<svg width="51" height="51" viewBox="0 0 51 51" fill="none" xmlns="http://www.w3.org/2000/svg">
    <g clip-path="url(#clip0_9_763)">
        <path
            d="M0.323368 13.6243H50.3233V9.80657C50.3233 9.33049 49.9372 8.94446 49.4612 8.94446H1.18548C0.709403 8.94446 0.323368 9.33049 0.323368 9.80657V13.6243Z"
            fill="#73AF00" />
        <path d="M50.3233 13.6245H0.323368V18.3045H50.3233V13.6245Z" fill="#F5F5F5" />
        <path d="M50.3233 18.3042H0.323368V22.9842H50.3233V18.3042Z" fill="#73AF00" />
        <path d="M50.3233 22.9838H0.323368V27.6637H50.3233V22.9838Z" fill="#F5F5F5" />
        <path d="M50.3233 27.6646H0.323368V32.3445H50.3233V27.6646Z" fill="#73AF00" />
        <path d="M50.3233 32.3433H0.323368V37.0232H50.3233V32.3433Z" fill="#F5F5F5" />
        <path
            d="M1.18548 41.7029H49.4613C49.9373 41.7029 50.3234 41.3169 50.3234 40.8408V37.0231H0.323368V40.8408C0.323368 41.317 0.709403 41.7029 1.18548 41.7029Z"
            fill="#73AF00" />
        <path
            d="M1.18548 22.9839H24.4612C24.9373 22.9839 25.3233 22.5978 25.3233 22.1218V9.80657C25.3233 9.33049 24.9373 8.94446 24.4612 8.94446H1.18548C0.709403 8.94446 0.323368 9.33049 0.323368 9.80657V22.1218C0.323368 22.5978 0.709403 22.9839 1.18548 22.9839Z"
            fill="#FF4B55" />
        <path
            d="M13.5794 21.8756H12.1895C12.0631 21.8756 11.9499 21.7969 11.9061 21.6783L11.4585 20.4701C11.2838 19.9984 11.2054 19.4965 11.2279 18.994L11.3837 15.5043C11.3877 15.4157 11.4446 15.3383 11.5279 15.308C11.6708 15.256 11.8222 15.3619 11.8222 15.5142V17.1033C11.8222 17.1477 11.8582 17.1838 11.9027 17.1838C11.9455 17.1838 11.9809 17.1502 11.983 17.1073L12.1079 14.5733C12.113 14.4704 12.1904 14.3856 12.2923 14.3711C12.4187 14.353 12.5329 14.4484 12.5377 14.5762L12.624 16.9386C12.6257 16.986 12.6677 17.0218 12.7148 17.0158C12.7546 17.0108 12.7848 16.9773 12.7856 16.9371L12.8374 14.312C12.8403 14.1686 12.9813 14.0691 13.1173 14.1144C13.2006 14.1423 13.2582 14.2183 13.2624 14.306L13.3906 16.9593C13.3919 16.9888 13.4092 17.0152 13.4356 17.0284C13.4889 17.0552 13.552 17.0176 13.5537 16.9578L13.618 14.9019C13.6229 14.7467 13.7855 14.6476 13.9257 14.7143C13.9965 14.748 14.0434 14.8177 14.048 14.896L14.1976 17.4192L14.5979 18.5869C14.6204 18.6525 14.7125 18.6537 14.7364 18.5887C14.8497 18.2792 15.1071 17.7013 15.5199 17.4468C15.5931 17.4017 15.6868 17.4075 15.7556 17.4591C15.8567 17.5349 15.8685 17.6811 15.7821 17.7732C15.5808 17.9875 15.2873 18.4378 15.3085 19.2295C15.3113 19.3303 15.2821 19.4293 15.2225 19.5106L14.0946 21.0514C13.9817 21.2057 13.9092 21.3859 13.8839 21.5755L13.8788 21.6133C13.8591 21.7635 13.731 21.8756 13.5794 21.8756Z"
            fill="#F5F5F5" />
        <path
            d="M12.8883 10.1252L13.1148 10.8043L13.8306 10.8097C13.8861 10.8101 13.909 10.8809 13.8644 10.9139L13.2885 11.3391L13.5044 12.0217C13.5211 12.0746 13.461 12.1183 13.4158 12.086L12.8334 11.6697L12.251 12.086C12.2059 12.1182 12.1457 12.0745 12.1624 12.0217L12.3783 11.3391L11.8025 10.9139C11.7578 10.8809 11.7808 10.8101 11.8363 10.8097L12.5521 10.8043L12.7785 10.1252C12.7962 10.0725 12.8707 10.0725 12.8883 10.1252Z"
            fill="#F5F5F5" />
        <path
            d="M9.52081 11.1023L9.74727 11.7814L10.4631 11.7869C10.5186 11.7873 10.5415 11.8581 10.4969 11.8911L9.921 12.3163L10.1369 12.9988C10.1536 13.0517 10.0935 13.0955 10.0483 13.0631L9.46593 12.6468L8.88351 13.0631C8.83839 13.0954 8.77823 13.0516 8.79493 12.9988L9.01085 12.3163L8.43497 11.8911C8.39034 11.8581 8.41329 11.7873 8.46876 11.7869L9.18458 11.7814L9.41104 11.1023C9.42891 11.0496 9.50323 11.0496 9.52081 11.1023Z"
            fill="#F5F5F5" />
        <path
            d="M16.3376 11.1023L16.5641 11.7814L17.2799 11.7869C17.3354 11.7873 17.3583 11.8581 17.3137 11.8911L16.7378 12.3163L16.9538 12.9988C16.9705 13.0517 16.9103 13.0955 16.8652 13.0631L16.2828 12.6468L15.7003 13.0631C15.6552 13.0954 15.5951 13.0516 15.6118 12.9988L15.8277 12.3163L15.2518 11.8911C15.2072 11.8581 15.2301 11.7873 15.2856 11.7869L16.0014 11.7814L16.2279 11.1023C16.2457 11.0496 16.3201 11.0496 16.3376 11.1023Z"
            fill="#F5F5F5" />
        <path
            d="M18.596 13.6701L18.8225 14.3492L19.5383 14.3547C19.5937 14.3551 19.6167 14.4259 19.5721 14.4589L18.9962 14.8841L19.2121 15.5666C19.2288 15.6195 19.1686 15.6633 19.1235 15.6309L18.5411 15.2146L17.9587 15.6309C17.9136 15.6632 17.8534 15.6194 17.8701 15.5666L18.086 14.8841L17.5102 14.4589C17.4655 14.4259 17.4885 14.3551 17.5439 14.3547L18.2598 14.3492L18.4862 13.6701C18.5041 13.6175 18.5784 13.6175 18.596 13.6701Z"
            fill="#F5F5F5" />
        <path
            d="M7.07461 13.6701L7.30107 14.3492L8.01689 14.3547C8.07236 14.3551 8.09531 14.4259 8.05068 14.4589L7.4748 14.8841L7.69072 15.5666C7.70742 15.6195 7.64726 15.6633 7.60214 15.6309L7.01972 15.2146L6.4373 15.6309C6.39219 15.6632 6.33203 15.6194 6.34873 15.5666L6.56465 14.8841L5.98877 14.4589C5.94414 14.4259 5.96709 14.3551 6.02256 14.3547L6.73838 14.3492L6.96484 13.6701C6.98252 13.6175 7.05703 13.6175 7.07461 13.6701Z"
            fill="#F5F5F5" />
        <path
            d="M19.2455 17.0383L19.472 17.7174L20.1878 17.7228C20.2433 17.7232 20.2662 17.794 20.2216 17.827L19.6457 18.2522L19.8616 18.9347C19.8783 18.9877 19.8182 19.0314 19.773 18.9991L19.1906 18.5828L18.6082 18.9991C18.5631 19.0313 18.5029 18.9876 18.5196 18.9347L18.7355 18.2522L18.1597 17.827C18.115 17.794 18.138 17.7232 18.1934 17.7228L18.9093 17.7174L19.1357 17.0383C19.1534 16.9856 19.2279 16.9856 19.2455 17.0383Z"
            fill="#F5F5F5" />
        <path
            d="M6.19694 17.0383L6.42341 17.7174L7.13923 17.7228C7.19469 17.7232 7.21764 17.794 7.17301 17.827L6.59714 18.2522L6.81305 18.9347C6.82975 18.9877 6.7696 19.0314 6.72448 18.9991L6.14206 18.5828L5.55964 18.9991C5.51452 19.0313 5.45437 18.9876 5.47107 18.9347L5.68698 18.2522L5.11111 17.827C5.06648 17.794 5.08943 17.7232 5.14489 17.7228L5.86071 17.7174L6.08718 17.0383C6.10495 16.9856 6.17936 16.9856 6.19694 17.0383Z"
            fill="#F5F5F5" />
    </g>
    <defs>
        <clipPath id="clip0_9_763">
            <rect width="50" height="50" fill="white" transform="translate(0.324219 0.32373)" />
        </clipPath>
    </defs>
</svg>
