<svg width="51" height="51" viewBox="0 0 51 51" fill="none" xmlns="http://www.w3.org/2000/svg">
    <g clip-path="url(#clip0_9_729)">
        <path
            d="M17.4189 41.7028H1.61428C1.13821 41.7028 0.752174 41.3168 0.752174 40.8407V9.80632C0.752174 9.33025 1.13821 8.94421 1.61428 8.94421H17.4189V41.7028Z"
            fill="#464655" />
        <path d="M34.0862 8.94458H17.4192V41.7034H34.0862V8.94458Z" fill="#FF4B55" />
        <path
            d="M49.89 41.7028H34.0854V8.94421H49.89C50.366 8.94421 50.7521 9.33025 50.7521 9.80632V40.8407C50.7521 41.3169 50.366 41.7028 49.89 41.7028Z"
            fill="#73AF00" />
        <path d="M28.0026 27.0137H23.5031L23.7531 26.5137H27.7526L28.0026 27.0137Z"
            fill="#F5F5F5" />
        <path d="M28.0026 23.014H23.5031L23.7531 23.514H27.7526L28.0026 23.014Z" fill="#F5F5F5" />
        <path d="M27.0028 23.2641H24.5031L25.0031 22.7642H26.5029L27.0028 23.2641Z"
            fill="#F5F5F5" />
        <path d="M24.5028 25.7639H23.7529V26.2639H24.5028V25.7639Z" fill="#F5F5F5" />
        <path d="M24.5028 25.0139H23.7529V25.5139H24.5028V25.0139Z" fill="#F5F5F5" />
        <path d="M24.5028 23.7639H23.7529V24.2639H24.5028V23.7639Z" fill="#F5F5F5" />
        <path d="M24.5028 24.5139H23.7529V24.7639H24.5028V24.5139Z" fill="#F5F5F5" />
        <path d="M27.7529 25.7639H27.003V26.2639H27.7529V25.7639Z" fill="#F5F5F5" />
        <path d="M27.7529 25.0139H27.003V25.5139H27.7529V25.0139Z" fill="#F5F5F5" />
        <path d="M27.7529 23.7639H27.003V24.2639H27.7529V23.7639Z" fill="#F5F5F5" />
        <path d="M27.7529 24.5139H27.003V24.7639H27.7529V24.5139Z" fill="#F5F5F5" />
        <path d="M24.503 21.7639H24.003V22.7638H24.503V21.7639Z" fill="#F5F5F5" />
        <path
            d="M24.503 21.5142H24.003V21.2642C24.003 21.1261 24.1149 21.0142 24.253 21.0142C24.391 21.0142 24.503 21.1261 24.503 21.2642V21.5142Z"
            fill="#F5F5F5" />
        <path d="M27.503 21.7639H27.003V22.7638H27.503V21.7639Z" fill="#F5F5F5" />
        <path
            d="M27.5027 21.5142H27.0027V21.2642C27.0027 21.1261 27.1146 21.0142 27.2527 21.0142C27.3908 21.0142 27.5027 21.1261 27.5027 21.2642V21.5142Z"
            fill="#F5F5F5" />
        <path
            d="M25.7528 23.764C25.2005 23.764 24.7529 24.2117 24.7529 24.7639V26.2638H26.7527V24.7639C26.7527 24.2117 26.3051 23.764 25.7528 23.764Z"
            fill="#F5F5F5" />
        <path
            d="M24.0979 25.3387L22.7369 23.751C22.7456 23.7253 22.7532 23.6989 22.7532 23.6703C22.7532 23.5322 22.6412 23.4203 22.5032 23.4203C22.3651 23.4203 22.2532 23.5322 22.2532 23.6703C22.2532 23.8084 22.3651 23.9203 22.5032 23.9203C22.5182 23.9203 22.5313 23.9142 22.5455 23.9118L22.6864 24.0761L22.0032 25.6702L22.7531 26.4201L23.4006 24.9093L23.9081 25.5014L24.0979 25.3387ZM22.8818 25.8609L22.2834 25.2626L22.5534 24.6326L23.1517 25.2309L22.8818 25.8609Z"
            fill="#F5F5F5" />
        <path
            d="M27.6038 25.5013L28.1114 24.9092L28.7589 26.42L29.5088 25.6701L28.8256 24.076L28.9664 23.9117C28.9808 23.9142 28.9938 23.9202 29.0088 23.9202C29.1469 23.9202 29.2588 23.8083 29.2588 23.6702C29.2588 23.5321 29.1469 23.4202 29.0088 23.4202C28.8707 23.4202 28.7588 23.5321 28.7588 23.6702C28.7588 23.6989 28.7662 23.7252 28.7751 23.7508L27.4141 25.3386L27.6038 25.5013ZM28.3602 25.231L28.9585 24.6327L29.2284 25.2626L28.6301 25.861L28.3602 25.231Z"
            fill="#F5F5F5" />
        <path
            d="M26.036 21.3077C25.9574 21.2846 25.8873 21.2417 25.843 21.173C25.8134 21.127 25.7832 21.0747 25.753 21.0143C25.7229 21.0747 25.6927 21.127 25.6631 21.173C25.6187 21.2418 25.5487 21.2847 25.4701 21.3077C25.056 21.4297 24.7531 21.8105 24.7531 22.2641C24.7531 22.3509 24.7677 22.4337 24.7885 22.5141H26.7176C26.7384 22.4337 26.753 22.3509 26.753 22.2641C26.7529 21.8105 26.4501 21.4297 26.036 21.3077Z"
            fill="#F5F5F5" />
        <path
            d="M20.0251 24.9844C20.0124 24.8291 20.0042 24.6725 20.0042 24.5138C20.0042 24.1927 20.0333 23.8769 20.0848 23.5671C20.1569 23.617 20.2324 23.6719 20.3108 23.7335C20.2742 23.9898 20.2541 24.2502 20.2541 24.5138C20.2541 24.6986 20.2635 24.8813 20.2814 25.0615L20.8098 25.2202C20.7768 24.9887 20.754 24.7542 20.754 24.5138C20.754 24.3943 20.7611 24.2762 20.7706 24.1586C21.0465 24.4646 21.2643 24.8344 21.2643 25.2429C21.2643 25.2534 22.0664 24.0555 20.6082 22.7328L20.5977 23.2952L19.7579 23.2864C19.6822 23.2856 19.6156 23.3393 19.6024 23.4138C19.5385 23.7731 19.5042 24.1405 19.5042 24.5138C19.5042 24.62 19.507 24.7255 19.5122 24.8303L20.0251 24.9844Z"
            fill="#F5F5F5" />
        <path
            d="M22.2424 19.962C22.3517 19.8778 22.3718 19.7208 22.2874 19.6115C22.2028 19.5021 22.046 19.4824 21.9367 19.5665C20.8054 20.4403 20.029 21.6407 19.6928 22.9853L20.208 22.9919C20.5323 21.8019 21.2339 20.7411 22.2424 19.962Z"
            fill="#F5F5F5" />
        <path
            d="M21.9075 20.5855C21.3639 21.1179 20.9523 21.7446 20.6723 22.4253C20.8269 22.5523 20.9536 22.6806 21.0588 22.8083C21.3107 22.1142 21.712 21.477 22.2574 20.9429C22.356 20.8463 22.3577 20.6881 22.2611 20.5895C22.1641 20.4906 22.0061 20.4888 21.9075 20.5855Z"
            fill="#F5F5F5" />
        <path
            d="M21.0388 27.7913C20.6681 27.2594 20.3848 26.6629 20.2089 26.0222L20.4995 26.129C20.6811 26.7137 20.9566 27.2574 21.3093 27.7419L21.861 27.6409C21.5495 27.2537 21.2935 26.8202 21.1065 26.352L21.4326 26.4719C21.6188 26.8806 21.857 27.2563 22.1411 27.5897L22.7152 27.4846C22.4895 27.2541 22.292 26.9946 22.1219 26.7147L21.7893 26.0495C21.6865 25.844 21.5036 25.6901 21.2836 25.6242L20.4967 25.3877L20.3148 25.3331L20.0528 25.2543L19.5318 25.0978L19.2537 25.0142L19.4258 25.5306C19.4636 25.6439 19.5401 25.7386 19.6395 25.8007C19.7985 26.5561 20.0936 27.2618 20.4988 27.8904L21.0388 27.7913Z"
            fill="#F5F5F5" />
        <path
            d="M30.9086 23.2952L30.8982 22.7328C29.44 24.0555 30.242 25.2534 30.242 25.2429C30.242 24.8344 30.4598 24.4646 30.7358 24.1586C30.7452 24.2762 30.7524 24.3944 30.7524 24.5138C30.7524 24.7543 30.7295 24.9888 30.6965 25.2202L31.2249 25.0615C31.2428 24.8813 31.2523 24.6987 31.2523 24.5138C31.2523 24.2501 31.2321 23.9897 31.1954 23.7335C31.2738 23.6719 31.3494 23.617 31.4214 23.5671C31.4731 23.8768 31.5021 24.1928 31.5021 24.5138C31.5021 24.6724 31.4939 24.8291 31.4812 24.9844L31.994 24.8303C31.9992 24.7255 32.002 24.62 32.002 24.5138C32.002 24.1405 31.9675 23.7731 31.9037 23.4138C31.8905 23.3392 31.8238 23.2856 31.7483 23.2864L30.9086 23.2952Z"
            fill="#F5F5F5" />
        <path
            d="M31.2977 22.9921L31.813 22.9855C31.4766 21.6408 30.7004 20.4404 29.569 19.5667C29.4597 19.4824 29.303 19.5023 29.2183 19.6116C29.134 19.721 29.1541 19.878 29.2634 19.9622C30.2719 20.7411 30.9734 21.802 31.2977 22.9921Z"
            fill="#F5F5F5" />
        <path
            d="M30.8334 22.4253C30.5533 21.7446 30.1419 21.118 29.5983 20.5855C29.4996 20.4889 29.3416 20.4906 29.2448 20.5894C29.1482 20.6881 29.1499 20.8463 29.2486 20.9429C29.794 21.4769 30.1952 22.1141 30.4472 22.8082C30.5522 22.6807 30.6787 22.5523 30.8334 22.4253Z"
            fill="#F5F5F5" />
        <path
            d="M31.974 25.0973L31.453 25.2539L31.1911 25.3327L31.0092 25.3873L30.2223 25.6238C30.0023 25.6898 29.8193 25.8437 29.7166 26.0491L29.384 26.7143C29.214 26.9942 29.0164 27.2537 28.7906 27.4841L29.3648 27.5893C29.6489 27.2559 29.8872 26.8802 30.0733 26.4714L30.3994 26.3516C30.2123 26.8198 29.9563 27.2534 29.6448 27.6405L30.1966 27.7415C30.5495 27.2569 30.8248 26.7132 31.0064 26.1286L31.297 26.0217C31.1211 26.6625 30.8378 27.259 30.4671 27.7909L31.0071 27.8897C31.4123 27.2609 31.7072 26.5552 31.8664 25.8C31.9658 25.7377 32.0423 25.6431 32.0801 25.5298L32.2522 25.0134L31.974 25.0973Z"
            fill="#F5F5F5" />
        <path
            d="M28.3582 27.8612L28.3453 27.8726C27.6181 28.4339 26.7148 28.7634 25.7531 28.7634C24.7914 28.7634 23.8882 28.4339 23.1609 27.8726L23.148 27.8612C23.0536 27.7574 22.9117 27.7109 22.7742 27.7386L20.2537 28.2635L20.813 28.7537C20.9626 28.8849 21.1548 28.946 21.3459 28.9348C21.796 29.383 22.3129 29.764 22.8813 30.06L22.7176 30.3622C23.6206 30.8532 24.6549 31.1324 25.7531 31.1324C26.8514 31.1324 27.8855 30.8532 28.7887 30.3622L28.6249 30.06C29.1933 29.764 29.7102 29.3829 30.1603 28.9348C30.3515 28.946 30.5437 28.8848 30.6933 28.7537L31.2526 28.2635L28.7321 27.7386C28.5945 27.7109 28.4525 27.7574 28.3582 27.8612ZM23.1202 29.6187C22.6671 29.3829 22.2522 29.0852 21.8789 28.7427L22.1216 28.627C22.4605 28.927 22.8334 29.1897 23.2386 29.3999L23.1202 29.6187ZM29.6269 28.7429C29.2537 29.0853 28.8388 29.3829 28.3856 29.6189L28.2672 29.4002C28.6724 29.19 29.0451 28.9273 29.3842 28.6273L29.6269 28.7429ZM25.7529 29.5133C24.5623 29.5133 23.4714 29.0908 22.6124 28.3929L22.8618 28.274C23.6728 28.8987 24.6807 29.2633 25.7527 29.2633C26.8248 29.2633 27.8327 28.8987 28.6436 28.274L28.8931 28.3929C28.0347 29.091 26.9435 29.5133 25.7529 29.5133Z"
            fill="#F5F5F5" />
        <path
            d="M23.0099 27.5068C23.1172 27.5977 23.2285 27.6836 23.3446 27.7635H28.1612C28.2772 27.6835 28.3885 27.5977 28.4958 27.5068L28.2527 27.2637H23.2533L23.0099 27.5068Z"
            fill="#F5F5F5" />
    </g>
    <defs>
        <clipPath id="clip0_9_729">
            <rect width="50" height="50" fill="white" transform="translate(0.751953 0.32373)" />
        </clipPath>
    </defs>
</svg>
