<svg width="51" height="51" viewBox="0 0 51 51" fill="none" xmlns="http://www.w3.org/2000/svg">
<g clip-path="url(#clip0_9_725)">
<path d="M49.3168 41.703H1.04112C0.565051 41.703 0.179016 41.317 0.179016 40.8409V9.80657C0.179016 9.33049 0.565051 8.94446 1.04112 8.94446H49.3169C49.793 8.94446 50.179 9.33049 50.179 9.80657V40.8409C50.1789 41.3171 49.7929 41.703 49.3168 41.703Z" fill="#4173CD"/>
<path d="M50.1789 21.0134H22.5927V8.94446H13.9721V21.0134H0.179016V29.6341H13.9721V41.703H22.5927V29.6341H50.1789V21.0134Z" fill="#FFE15A"/>
<path d="M50.1789 23.5996H20.0065V8.94446H16.5583V23.5996H0.179016V27.0478H16.5583V41.703H20.0065V27.0478H50.1789V23.5996Z" fill="#FF4B55"/>
</g>
<defs>
<clipPath id="clip0_9_725">
<rect width="50" height="50" fill="white" transform="translate(0.179688 0.32373)"/>
</clipPath>
</defs>
</svg>
