<svg width="51" height="51" viewBox="0 0 51 51" fill="none" xmlns="http://www.w3.org/2000/svg">
    <g clip-path="url(#clip0_9_722)">
        <path
            d="M49.7476 41.703H1.47189C0.995821 41.703 0.609787 41.317 0.609787 40.8409V9.80657C0.609787 9.33049 0.995821 8.94446 1.47189 8.94446H49.7477C50.2238 8.94446 50.6098 9.33049 50.6098 9.80657V40.8409C50.6097 41.3171 50.2237 41.703 49.7476 41.703Z"
            fill="#FF4B55" />
        <path
            d="M35.0387 29.405C34.5672 29.1087 34.2844 29.5801 34.2844 29.5801L32.9105 29.7417L33.5974 29.1625C34.0958 29.203 34.1631 29.0548 34.2978 28.8528C34.4325 28.6507 34.9982 28.7451 34.9982 28.7451C34.9173 28.1254 34.1361 28.4756 34.1361 28.4756C33.503 28.4082 33.3953 28.9201 33.3953 28.9201L32.412 29.6744L30.248 29.0332C30.4724 28.786 30.6487 28.5423 30.6744 28.3948C30.7174 28.147 29.076 27.7302 28.5731 27.2094C28.0703 26.6885 27.8907 25.8624 28.1242 25.6469C28.3576 25.4314 28.5552 26.0419 28.8066 26.5449C29.058 27.0478 29.5251 27.4428 29.8303 27.1914C30.1356 26.9401 29.5071 26.5629 29.2197 26.0241C28.9324 25.4853 29.4352 25.2876 29.6687 25.3415C29.9022 25.3955 30.0459 26.509 30.6027 27.0836C31.1593 27.6583 31.6623 27.5505 31.7162 27.1913C31.7701 26.8322 30.7973 26.3896 30.5997 26.0842C30.4021 25.7789 30.3511 25.1798 30.6745 25.162C30.9977 25.144 32.1831 26.9106 33.1889 27.5866C34.2844 28.3229 35.1644 27.4608 35.0209 27.1016C34.8772 26.7423 34.2127 26.8861 33.4404 26.6884C32.6681 26.4909 31.8779 25.4492 31.6444 24.8746C31.4109 24.2998 31.604 24.2998 31.7387 24.3538C31.8734 24.4077 32.3853 25.162 33.3686 25.7412C34.3519 26.3203 35.0388 25.7681 35.1197 25.6334C35.2005 25.4988 35.5112 24.8941 34.5001 25.0363C33.3507 25.1979 32.6951 24.5155 32.2237 24.1518C31.7522 23.7881 31.5636 23.2897 31.7792 23.0876C31.9947 22.8856 32.7041 23.797 33.7816 24.0844C34.7714 24.3483 35.1735 23.9228 35.1464 23.5322C35.1195 23.1415 34.8905 23.3032 33.7725 23.1955C32.6545 23.0877 31.8733 22.0371 31.8329 21.9697C31.7924 21.9023 31.8059 21.5251 32.3716 21.8888C32.9374 22.2525 33.9476 22.468 34.5403 22.4411C35.133 22.4141 35.2542 21.6194 34.9713 21.4847C34.6885 21.35 34.6211 21.5521 33.9746 21.6868C33.328 21.8214 32.1158 21.1615 31.8194 20.8516C31.523 20.5417 31.8463 20.3398 31.9945 20.3667C32.1426 20.3935 33.1125 20.9593 33.9746 20.9324C34.8367 20.9054 35.2003 20.1107 35.1734 19.8682C35.1464 19.6257 34.904 19.4237 34.5403 19.6662C34.1766 19.9086 33.6917 20.1915 32.8836 20.0568C32.0753 19.9221 31.6982 19.3833 31.806 19.1813C31.9137 18.9793 32.695 19.3294 33.9342 19.1948C35.1735 19.0601 35.2273 17.969 35.1061 17.7535C34.9849 17.5379 34.6885 17.6053 34.271 17.996C33.8534 18.3866 33.0452 18.4674 32.4122 18.4674C31.7791 18.4674 31.7656 18.1577 31.8599 17.9421C31.9543 17.7266 32.6277 17.7805 33.5706 17.4841C34.5134 17.1878 35.0522 16.4335 35.2004 15.9621C35.3487 15.4907 34.9849 15.1269 34.8368 15.1269C34.6886 15.1269 34.7829 14.9114 34.1364 15.8408C33.4898 16.7702 31.7926 17.1338 31.7926 17.1338C31.6714 16.9048 31.4829 16.8241 31.4829 16.8241C30.338 17.0531 28.9569 18.0417 28.9569 18.0417C28.9569 18.0417 29.2004 18.8225 28.8962 19.4311C28.5045 20.2145 27.1619 19.7251 27.527 18.4879C27.831 17.4577 29.0077 16.8348 30.0017 16.7232C30.9957 16.6117 31.0463 16.2364 31.0463 16.2364C31.0463 16.2364 30.0026 16.5762 29.9839 16.1097C30.1995 16.1535 30.5172 16.1725 31.0565 16.1248C31.8578 16.0539 32.3041 15.4858 31.9491 15.3641C31.5941 15.2424 31.7463 15.6076 31.1377 15.8916C30.7036 16.0941 30.248 16.0029 30.02 15.9337C30.2306 15.4737 31.1173 15.7089 31.1173 15.7089C31.1275 14.9077 30.0643 15.1943 30.0643 15.1943C29.5974 14.1884 26.8675 15.3559 26.8675 15.3559L27.514 15.8767C25.9336 16.7567 25.6102 18.4269 25.6102 18.4269C25.6102 18.4269 25.287 16.7567 23.7064 15.8766L24.353 15.3558C24.353 15.3558 21.623 14.1883 21.1561 15.1942C21.1561 15.1942 20.0929 14.9077 20.1031 15.7088C20.1031 15.7088 20.9898 15.4736 21.2006 15.9336C20.9725 16.0029 20.517 16.094 20.0829 15.8915C19.4744 15.6074 19.6265 15.2424 19.2715 15.364C18.9165 15.4857 19.3628 16.0537 20.164 16.1247C20.7034 16.1724 21.0211 16.1535 21.2366 16.1096C21.218 16.5761 20.1742 16.2363 20.1742 16.2363C20.1742 16.2363 20.225 16.6115 21.2188 16.7231C22.2128 16.8347 23.3895 17.4576 23.6935 18.4878C24.0586 19.7251 22.7161 20.2143 22.3244 19.431C22.0201 18.8225 22.2637 18.0416 22.2637 18.0416C22.2637 18.0416 20.8826 17.053 19.7377 16.824C19.7377 16.824 19.5491 16.9048 19.4279 17.1337C19.4279 17.1337 17.7308 16.7701 17.0842 15.8407C16.4376 14.9113 16.5319 15.1268 16.3838 15.1268C16.2356 15.1268 15.872 15.4905 16.0201 15.962C16.1683 16.4335 16.707 17.1878 17.65 17.484C18.593 17.7803 19.2664 17.7265 19.3606 17.942C19.455 18.1576 19.4415 18.4673 18.8084 18.4673C18.1753 18.4673 17.3671 18.3865 16.9496 17.9959C16.532 17.6052 16.2357 17.5378 16.1144 17.7534C15.9933 17.9689 16.0471 19.0599 17.2863 19.1947C18.5256 19.3293 19.3068 18.9792 19.4145 19.1812C19.5223 19.3833 19.1451 19.922 18.337 20.0567C17.5288 20.1914 17.0439 19.9085 16.6803 19.6661C16.3166 19.4236 16.0741 19.6256 16.0472 19.8681C16.0202 20.1106 16.3839 20.9053 17.246 20.9323C18.1081 20.9592 19.0779 20.3935 19.2261 20.3666C19.3742 20.3396 19.6975 20.5416 19.4012 20.8514C19.1049 21.1612 17.8926 21.8212 17.246 21.6866C16.5994 21.5519 16.5321 21.3499 16.2492 21.4845C15.9663 21.6192 16.0876 22.4139 16.6803 22.4409C17.2729 22.4678 18.2832 22.2523 18.8489 21.8886C19.4146 21.5249 19.4281 21.9021 19.3877 21.9695C19.3473 22.0369 18.566 23.0874 17.448 23.1953C16.3301 23.303 16.1011 23.1414 16.0741 23.532C16.0472 23.9226 16.4492 24.3482 17.4391 24.0842C18.5166 23.7968 19.2262 22.8854 19.4416 23.0874C19.6571 23.2895 19.4685 23.7878 18.9971 24.1516C18.5256 24.5153 17.87 25.1977 16.7207 25.0361C15.7096 24.894 16.0203 25.4986 16.1011 25.6332C16.1818 25.7679 16.8688 26.3202 17.8521 25.741C18.8354 25.1618 19.3473 24.4075 19.482 24.3536C19.6167 24.2997 19.8098 24.2997 19.5764 24.8744C19.3429 25.4491 18.5526 26.4908 17.7804 26.6882C17.0081 26.8859 16.3435 26.7421 16.1999 27.1014C16.0562 27.4606 16.9362 28.3226 18.0318 27.5863C19.0377 26.9103 20.2229 25.1437 20.5463 25.1617C20.8695 25.1795 20.8185 25.7787 20.6211 26.0839C20.4234 26.3893 19.4507 26.8319 19.5046 27.1911C19.5585 27.5502 20.0612 27.6579 20.618 27.0833C21.1748 26.5086 21.3184 25.3951 21.552 25.3412C21.7854 25.2873 22.2884 25.485 22.001 26.0238C21.7137 26.5625 21.085 26.9397 21.3904 27.1911C21.6957 27.4425 22.1627 27.0475 22.4141 26.5446C22.6655 26.0416 22.8631 25.4311 23.0966 25.6466C23.3301 25.8621 23.1505 26.6882 22.6475 27.2091C22.1447 27.7299 20.5031 28.1467 20.5463 28.3945C20.572 28.542 20.7481 28.7856 20.9726 29.0329L18.8087 29.6741L17.8254 28.9198C17.8254 28.9198 17.7177 28.4079 17.0846 28.4752C17.0846 28.4752 16.3033 28.125 16.2225 28.7447C16.2225 28.7447 16.7882 28.6503 16.9228 28.8524C17.0575 29.0544 17.1249 29.2026 17.6232 29.1621L18.31 29.7414L16.9361 29.5798C16.9361 29.5798 16.6532 29.1083 16.1818 29.4047C16.1818 29.4047 15.5892 29.2161 15.441 29.7819C15.441 29.7819 15.9528 29.6875 16.0876 29.7549C16.0876 29.7549 16.2896 30.2129 16.9362 29.9435L18.2967 30.0109L17.5289 30.388C17.5289 30.388 16.5591 30.0783 16.5995 30.8864C16.5995 30.8864 16.3166 31.2096 16.5726 31.5329C16.5726 31.5329 16.6265 31.1827 16.8823 31.0346C16.8823 31.0346 17.3807 31.2367 17.704 30.644L18.6873 30.0513L19.6571 30.5228C19.6571 30.5228 19.6302 31.0481 20.344 30.8326C20.344 30.8326 20.5865 30.9942 20.6538 31.2097C20.6538 31.2097 20.9636 30.873 20.4652 30.4824C20.4652 30.4824 20.344 30.0243 19.7514 30.1994L19.1991 29.9165L21.2426 29.3102C21.5964 29.6471 21.9781 29.9234 22.1117 29.8771C22.3754 29.7858 22.5783 29.512 22.7607 29.1266C22.9432 28.7411 23.7648 27.4025 24.1705 27.4127C24.5761 27.4229 24.7588 27.7473 24.6573 28.3255C24.5559 28.9035 23.7653 30.011 23.2534 30.24C22.7416 30.469 22.6607 30.5767 22.1892 30.5363C21.7178 30.4958 21.5561 30.6979 21.6639 30.9673C21.7717 31.2367 22.302 31.408 22.8223 31.2098C23.3881 30.9943 23.6036 30.698 23.8191 30.8731C24.0346 31.0482 23.5901 31.6813 22.984 31.8699C22.3778 32.0584 21.9198 31.9372 22.0141 32.3144C22.1085 32.6915 22.755 32.7185 23.1725 32.476C23.5901 32.2335 24.0615 31.5601 24.1828 31.7756C24.304 31.9911 24.2232 32.5434 23.8191 32.8398C23.415 33.1361 22.9554 32.9617 22.8628 33.2304C22.7281 33.621 23.1995 33.877 23.5632 33.7287C23.9268 33.5806 24.3444 33.1226 24.533 32.7185C24.7216 32.3144 25.0718 32.6646 24.964 33.0417C24.8563 33.4189 24.9461 33.7286 24.1737 34.3213L25.6105 36.5303L27.0473 34.3212C26.2751 33.7285 26.3649 33.4188 26.257 33.0416C26.1493 32.6645 26.4995 32.3143 26.6881 32.7184C26.8766 33.1225 27.2942 33.5805 27.6579 33.7286C28.0216 33.8768 28.493 33.6209 28.3583 33.2303C28.2657 32.9616 27.806 33.136 27.4019 32.8397C26.9978 32.5434 26.917 31.991 27.0383 31.7755C27.1594 31.56 27.6309 32.2335 28.0485 32.4759C28.4661 32.7184 29.1127 32.6914 29.2069 32.3143C29.3011 31.9371 28.8432 32.0583 28.2371 31.8698C27.6309 31.6812 27.1864 31.0481 27.4019 30.873C27.6175 30.6979 27.833 30.9942 28.3987 31.2097C28.9191 31.4079 29.4494 31.2367 29.5571 30.9672C29.6648 30.6978 29.5032 30.4957 29.0318 30.5362C28.5603 30.5766 28.4796 30.4688 27.9676 30.2399C27.4557 30.011 26.6652 28.9035 26.5637 28.3254C26.4623 27.7473 26.6449 27.4227 27.0506 27.4126C27.4562 27.4024 28.2777 28.741 28.4603 29.1265C28.6428 29.5119 28.8457 29.7858 29.1093 29.8771C29.243 29.9234 29.6249 29.6471 29.9785 29.3102L32.0219 29.9165L31.4697 30.1994C30.877 30.0243 30.7558 30.4824 30.7558 30.4824C30.2575 30.873 30.5672 31.2097 30.5672 31.2097C30.6346 30.9942 30.877 30.8326 30.877 30.8326C31.5909 31.0481 31.5639 30.5228 31.5639 30.5228L32.5337 30.0513L33.517 30.644C33.8403 31.2367 34.3387 31.0346 34.3387 31.0346C34.5947 31.1827 34.6485 31.5329 34.6485 31.5329C34.9044 31.2097 34.6215 30.8864 34.6215 30.8864C34.662 30.0783 33.6921 30.3881 33.6921 30.3881L32.924 30.0112L34.2844 29.9438C34.931 30.2132 35.1331 29.7552 35.1331 29.7552C35.2677 29.6878 35.7796 29.7822 35.7796 29.7822C35.6314 29.2164 35.0387 29.405 35.0387 29.405Z"
            fill="#464655" />
    </g>
    <defs>
        <clipPath id="clip0_9_722">
            <rect width="50" height="50" fill="white" transform="translate(0.609375 0.32373)" />
        </clipPath>
    </defs>
</svg>
