<svg width="51" height="51" viewBox="0 0 51 51" fill="none" xmlns="http://www.w3.org/2000/svg">
    <g clip-path="url(#clip0_9_716)">
        <path
            d="M25.0385 41.703H0.900685C0.42461 41.703 0.0385742 41.317 0.0385742 40.8409V9.80645C0.0385742 9.33037 0.42461 8.94434 0.900685 8.94434H25.0386V41.703H25.0385Z"
            fill="#73AF00" />
        <path
            d="M25.0385 8.94446H49.1765C49.6526 8.94446 50.0386 9.33049 50.0386 9.80657V40.841C50.0386 41.3171 49.6526 41.7031 49.1765 41.7031H25.0385V8.94446Z"
            fill="#F5F5F5" />
        <path
            d="M29.1994 22.1895L27.7048 24.1446L25.3711 23.3635C25.2406 23.3198 25.1296 23.4674 25.2077 23.5806L26.6053 25.6063L25.1412 27.5844C25.0592 27.6949 25.1653 27.8461 25.2972 27.8068L27.6556 27.1034L29.0845 29.1073C29.1644 29.2194 29.341 29.1652 29.3443 29.0277L29.4042 26.5673L31.7513 25.8276C31.8826 25.7862 31.8856 25.6016 31.7558 25.5559L29.4345 24.7386L29.4563 22.2775C29.4576 22.14 29.2829 22.0802 29.1994 22.1895Z"
            fill="#FF4B55" />
        <path
            d="M26.5882 31.2446C23.3207 31.2446 20.6702 28.5941 20.6702 25.3237C20.6702 22.0592 23.3207 19.4028 26.5882 19.4028C27.8038 19.4028 28.9249 19.7767 29.8592 20.4094C30.0022 20.5063 30.1655 20.3184 30.0457 20.1938C28.6494 18.742 26.6731 17.8565 24.4821 17.9313C20.7176 18.0597 17.6013 21.078 17.3608 24.8369C17.0852 29.1424 20.4945 32.7205 24.7391 32.7205C26.83 32.7205 28.7091 31.8463 30.051 30.4488C30.1695 30.3252 30.0058 30.1402 29.8642 30.2362C28.9289 30.8703 27.8059 31.2446 26.5882 31.2446Z"
            fill="#FF4B55" />
    </g>
    <defs>
        <clipPath id="clip0_9_716">
            <rect width="50" height="50" fill="white" transform="translate(0.0390625 0.32373)" />
        </clipPath>
    </defs>
</svg>
