<svg width="51" height="51" viewBox="0 0 51 51" fill="none" xmlns="http://www.w3.org/2000/svg">
<g clip-path="url(#clip0_9_698)">
<path d="M49.6071 41.9725H1.33144C0.855364 41.9725 0.46933 41.5865 0.46933 41.1104V10.0761C0.46933 9.60002 0.855364 9.21399 1.33144 9.21399H49.6072C50.0833 9.21399 50.4693 9.60002 50.4693 10.0761V41.1104C50.4692 41.5866 50.0832 41.9725 49.6071 41.9725Z" fill="#41479B"/>
<path d="M50.4692 41.1104V40.1582L6.0077 25.5933L50.4692 11.0284V10.0761C50.4692 9.7644 50.2951 9.50376 50.0473 9.35229L0.46933 25.5933L50.0473 41.8343C50.2951 41.6829 50.4692 41.4223 50.4692 41.1104Z" fill="#FF4B55"/>
<path d="M6.00784 25.5932L50.4694 40.1581V11.0283L6.00784 25.5932Z" fill="#F5F5F5"/>
<path d="M45.2056 21.3506C45.2056 21.3506 48.1576 21.4757 48.4328 21.2505C48.708 21.0254 48.758 19.5243 47.7824 19.2992C46.8068 19.0741 44.155 20.5251 44.155 20.5251L45.2056 21.3506Z" fill="#FFF5DC"/>
<path d="M39.4277 23.6775C39.4277 23.6775 39.3943 23.7609 39.3777 24.1278C39.361 24.4947 39.4277 25.4454 40.5786 25.8623L40.3118 26.9797L41.5293 27.7135C41.5293 27.7135 42.43 26.3792 42.48 25.2618C42.5299 24.1445 39.4277 23.6775 39.4277 23.6775Z" fill="#D27D69"/>
<path d="M35.7753 22.9269L36.2506 22.4516C36.2506 22.4516 35.2776 23.0452 34.9081 22.51C34.4245 21.8096 35.0748 21.0757 35.7503 20.7504C36.4257 20.4252 37.7767 20.6754 37.7767 20.6754L38.6273 22.8519L36.0505 24.4779L35.7753 22.9269Z" fill="#D27D69"/>
<path d="M43.7559 18.7742L46.0575 18.499C46.0575 18.499 45.3821 19.4747 44.0562 20.2002C44.0562 20.2002 45.4321 20.2002 45.8323 20.6755C46.2326 21.1508 45.432 21.6012 45.1319 21.7513C44.8318 21.9014 42.23 23.5024 42.23 23.5024L39.9034 23.2272L43.7559 18.7742Z" fill="#D27D69"/>
<path d="M45.4655 17.0063C45.4655 17.0063 45.9658 15.8388 45.9491 15.0216L44.2647 16.1891C44.2647 16.1891 44.6483 16.0057 44.5149 15.3385L39.0112 18.3238L37.8937 20.3085L41.296 21.3593L45.4655 17.0063Z" fill="#D27D69"/>
<path d="M41.3155 26.104L40.7401 27.0172C40.7401 27.0172 39.7143 26.7921 39.3641 27.0422C39.0139 27.2924 38.9764 28.2306 39.5892 28.3056C39.5892 28.3056 40.0145 28.5683 40.2646 28.3556C40.2646 28.3556 40.7774 28.5557 40.865 28.2305C40.9526 27.9053 40.84 27.6301 40.84 27.6301H41.2027L41.8406 26.4918L41.3155 26.104Z" fill="#FFE15A"/>
<path d="M36.1747 24.1275C36.1747 24.1275 37.7758 23.327 37.7758 22.1262C37.7758 20.9253 36.2914 20.8586 35.0907 21.2589C35.0907 21.2589 34.3736 20.6919 34.974 20.1247C35.797 19.3474 39.377 17.7231 39.377 17.7231L38.9767 19.7245C38.9767 19.7245 40.4027 20.475 40.9781 20.1248C41.4615 19.8305 46.1816 16.1221 46.1816 16.1221C46.1816 16.1221 45.7813 18.1234 42.9794 20.1248L42.6825 21.6093C42.6173 21.9354 42.4052 22.2132 42.1076 22.3618L40.9781 22.9265C40.9781 22.9265 44.1802 23.3268 44.1802 23.727C44.1802 24.1272 43.3797 26.1287 41.7786 26.9292L40.9781 26.1287L41.3783 24.9278C41.3783 24.9278 40.1775 24.5275 39.377 24.1272C39.377 24.1272 38.1761 24.5275 37.3756 24.5275C36.5751 24.5275 36.1747 24.1275 36.1747 24.1275Z" fill="#B95546"/>
<path d="M33.7728 26.129V25.2974C33.7728 25.061 33.8667 24.8343 34.0339 24.6672L35.7743 22.9268L36.1746 23.7272H37.7756L37.3754 24.1275V24.5278L35.374 25.7287L33.7728 26.129Z" fill="#FFF5DC"/>
<path d="M34.5721 25.7285H33.7715C33.7715 25.7285 32.9711 26.9294 33.7715 26.9294C33.7715 26.9294 34.9724 26.1288 35.3726 25.7285C35.3726 25.7285 35.3726 25.3283 34.5721 25.7285Z" fill="#FFE15A"/>
<path d="M44.3361 27.5042H38.8026C38.757 27.4551 38.6932 27.4234 38.6209 27.4234C38.6209 27.4234 37.6517 27.0216 37.5138 27.0216H37.4002C37.2624 27.0216 37.1506 27.1333 37.1506 27.2712V27.5042H35.8857V27.2712C35.8857 27.1334 35.774 27.0216 35.6361 27.0216H35.5225C35.3847 27.0216 35.2729 27.1333 35.2729 27.2712V27.2754C34.7308 27.2534 33.5717 27.1842 32.9712 26.9841L29.7691 27.7847L32.9712 28.5852C33.5715 28.3851 34.7306 28.3159 35.2729 28.2938V28.298C35.2729 28.4358 35.3846 28.5476 35.5225 28.5476H35.6361C35.7739 28.5476 35.8857 28.4359 35.8857 28.298V28.065H37.1506V28.298C37.1506 28.4358 37.2624 28.5476 37.4002 28.5476H37.5138C37.6516 28.5476 38.6209 28.1458 38.6209 28.1458C38.6932 28.1458 38.7571 28.1142 38.8026 28.065H44.3361C44.491 28.065 44.6165 27.9393 44.6165 27.7845C44.6165 27.6297 44.4909 27.5042 44.3361 27.5042Z" fill="#FFE15A"/>
<path d="M44.0957 28.5805C43.7621 28.5138 39.9429 29.1809 39.9429 29.1809C39.9429 29.1809 39.7094 28.9474 40.4097 28.2969L40.0763 28.2135C40.0763 28.2135 39.3425 28.7305 39.0422 28.7972C38.7837 28.8546 38.206 29.1355 38.0819 29.5104L35.7565 29.898L35.8065 30.0981L38.0875 29.8307C38.1963 30.1811 38.5549 30.2526 38.8086 30.1481C38.8086 30.1481 39.1422 30.2815 39.4424 30.048C39.4424 30.048 40.0428 30.1481 40.0761 29.5977L44.2623 28.9639C44.2624 28.9642 44.4292 28.6472 44.0957 28.5805Z" fill="#FFE15A"/>
<path d="M41.7274 31.3991C41.7274 31.3991 41.4105 31.816 40.6266 31.4491C39.8429 31.0822 38.9255 31.4825 38.4252 31.3657C37.9249 31.2489 37.1743 30.9488 36.4739 31.2156C35.7735 31.4824 35.3898 31.4658 35.5399 31.1322C35.69 30.7987 35.7734 30.5485 35.5399 30.4318L35.8067 30.0983L35.7567 29.8982C35.7567 29.8982 34.4225 29.3812 33.522 30.0983C32.6213 30.8153 32.8883 32.4499 34.3893 32.5666C34.3893 32.5666 34.8563 33.1503 36.007 32.9835C36.007 32.9835 36.7575 33.5005 38.0417 33.267C38.0417 33.267 38.0917 33.4171 38.9257 33.3504C39.7597 33.2837 40.6935 33.3838 40.5267 33.9508C40.5267 33.9508 41.1438 33.8341 40.7769 33.267C40.7769 33.267 41.5107 33.2336 42.0111 33.6673C42.0111 33.6673 42.0445 33.167 41.5608 32.9C41.5608 32.9 42.3781 32.6165 42.8284 32.9C42.8284 32.9 42.5282 32.2663 41.7276 32.3496C41.7276 32.3496 42.3113 31.8826 42.5782 31.9994C42.5782 31.9994 42.328 31.6992 41.5941 31.9994C41.594 31.9995 42.061 31.716 41.7274 31.3991Z" fill="#FFE15A"/>
</g>
<defs>
<clipPath id="clip0_9_698">
<rect width="50" height="50" fill="white" transform="translate(0.46875 0.593262)"/>
</clipPath>
</defs>
</svg>
