<svg width="51" height="51" viewBox="0 0 51 51" fill="none" xmlns="http://www.w3.org/2000/svg">
    <g clip-path="url(#clip0_9_641)">
        <path
            d="M17.5649 41.7028H1.76027C1.2842 41.7028 0.898163 41.3168 0.898163 40.8407V9.80632C0.898163 9.33025 1.2842 8.94421 1.76027 8.94421H17.5649V41.7028Z"
            fill="#41479B" />
        <path d="M34.2322 8.94458H17.5652V41.7034H34.2322V8.94458Z" fill="#FFE15A" />
        <path
            d="M50.0362 41.7028H34.2316V8.94421H50.0362C50.5123 8.94421 50.8983 9.33025 50.8983 9.80632V40.8407C50.8983 41.3169 50.5123 41.7028 50.0362 41.7028Z"
            fill="#FF4B55" />
        <path
            d="M31.7595 28.1253C31.7595 27.8751 31.5567 27.6722 31.3064 27.6722C31.2521 27.6722 31.2008 27.6833 31.1524 27.7009C30.9282 27.5015 30.5219 27.0067 30.9296 26.3079C30.9846 26.3508 31.0531 26.3774 31.1283 26.3774C31.3081 26.3774 31.4537 26.2317 31.4537 26.052C31.4537 25.91 31.3622 25.7905 31.2353 25.746C31.5704 25.5751 32.0482 25.2123 32.0236 24.5339C31.9886 23.5718 31.2005 23.0407 30.717 23.2531C30.7187 23.2396 30.7211 23.2263 30.7211 23.2124C30.7211 23.0352 30.5774 22.8915 30.4002 22.8915C30.2912 22.8915 30.1953 22.9461 30.1374 23.0291C30.1177 22.9329 30.12 22.7543 30.3436 22.5613C30.759 22.2026 31.2309 21.3436 30.3719 20.7395C29.8963 20.405 28.9871 20.2448 28.6824 20.7018C28.5503 20.8999 28.6562 21.1847 28.8071 21.2487C28.564 21.3842 28.1029 21.5876 27.7385 21.4286C27.2194 21.2022 27.5192 20.7523 27.6347 20.5508C27.8377 20.1968 27.7103 19.6163 27.0306 19.6163C26.5775 19.6163 26.351 20.0695 25.898 20.0695C25.445 20.0695 25.2184 19.6163 24.7654 19.6163C24.0858 19.6163 23.9584 20.1968 24.1613 20.5508C24.2768 20.7522 24.5766 21.2021 24.0575 21.4286C23.6931 21.5877 23.2321 21.3842 22.9889 21.2487C23.1397 21.1848 23.2458 20.9 23.1136 20.7018C22.8091 20.2448 21.8998 20.405 21.4241 20.7395C20.5651 21.3436 21.0372 22.2025 21.4524 22.5613C21.676 22.7543 21.6784 22.933 21.6587 23.0291C21.6007 22.9461 21.5048 22.8915 21.3959 22.8915C21.2186 22.8915 21.075 23.0352 21.075 23.2124C21.075 23.2263 21.0773 23.2397 21.0791 23.2531C20.5956 23.0407 19.8074 23.5718 19.7724 24.5339C19.7477 25.2122 20.2257 25.575 20.5607 25.746C20.4339 25.7906 20.3424 25.91 20.3424 26.052C20.3424 26.2318 20.4881 26.3774 20.6677 26.3774C20.7429 26.3774 20.8113 26.3509 20.8665 26.3079C21.2742 27.0067 20.8679 27.5015 20.6436 27.7009C20.5954 27.6833 20.5439 27.6722 20.4896 27.6722C20.2394 27.6722 20.0365 27.875 20.0365 28.1253C20.0365 28.3602 20.2159 28.5511 20.4449 28.574C20.1326 28.8948 19.8524 29.6018 20.4613 30.4049C21.1267 31.2827 22.7125 31.2119 23.477 31.2403C23.9618 31.2582 24.3264 31.5092 24.5289 31.6907C24.3995 31.7705 24.3124 31.9123 24.3124 32.0755C24.3124 32.3043 24.4826 32.4915 24.703 32.5223C24.7831 32.6504 24.9242 32.7363 25.0864 32.7363C25.2677 32.7363 25.4228 32.6291 25.4954 32.4752C25.7346 32.6724 25.8982 32.7551 25.8982 32.7551C25.8982 32.7551 26.0618 32.6725 26.3011 32.4752C26.3735 32.629 26.5288 32.7363 26.71 32.7363C26.8722 32.7363 27.0134 32.6504 27.0934 32.5223C27.3138 32.4915 27.4841 32.3043 27.4841 32.0755C27.4841 31.9122 27.3969 31.7704 27.2676 31.6907C27.4699 31.5092 27.8345 31.2581 28.3194 31.2403C29.084 31.2119 30.6697 31.2827 31.3351 30.4049C31.9439 29.6018 31.6638 28.8947 31.3515 28.574C31.5802 28.551 31.7595 28.3602 31.7595 28.1253Z"
            fill="#DCBE82" />
        <path
            d="M21.8202 22.3061V28.8757C21.8202 29.6264 22.4287 30.235 23.1795 30.235H24.9918C25.6714 30.235 25.8979 30.6881 25.8979 30.6881C25.8979 30.6881 26.1244 30.235 26.8041 30.235H28.6164C29.3671 30.235 29.9757 29.6265 29.9757 28.8757V22.3061C29.9757 22.181 29.8743 22.0796 29.7492 22.0796H22.0469C21.9216 22.0796 21.8202 22.181 21.8202 22.3061Z"
            fill="#D2AA73" />
        <path d="M25.6713 22.5325H22.2733V25.9305H25.6713V22.5325Z" fill="#FF4B55" />
        <path d="M25.6716 29.7818C23.7948 29.7818 22.2736 28.2605 22.2736 26.3838H25.6716V29.7818Z"
            fill="#FF4B55" />
        <path d="M26.1251 29.7818V26.3838H29.5232C29.5231 28.2604 28.0017 29.7818 26.1251 29.7818Z"
            fill="#FFE15A" />
        <path d="M26.6109 22.5325H26.1254V25.9305H26.6109V22.5325Z" fill="#FFE15A" />
        <path d="M27.0954 22.5325H26.61V25.9305H27.0954V22.5325Z" fill="#FF4B55" />
        <path d="M27.5807 22.5325H27.0952V25.9305H27.5807V22.5325Z" fill="#FFE15A" />
        <path d="M28.0675 22.5325H27.582V25.9305H28.0675V22.5325Z" fill="#FF4B55" />
        <path d="M28.5517 22.5325H28.0662V25.9305H28.5517V22.5325Z" fill="#FFE15A" />
        <path d="M29.5219 22.5325H29.0365V25.9305H29.5219V22.5325Z" fill="#FFE15A" />
        <path d="M29.0387 22.5323H28.5532V25.9304H29.0387V22.5323Z" fill="#FF4B55" />
        <path d="M23.7842 26.3839H23.4066V29.782H23.7842V26.3839Z" fill="#FF4B55" />
        <path d="M24.1629 26.384H23.7854V29.7821H24.1629V26.384Z" fill="#FFE15A" />
        <path d="M24.9191 26.384H24.5416V29.7821H24.9191V26.384Z" fill="#FFE15A" />
        <path d="M24.5386 26.384H24.161V29.7821H24.5386V26.384Z" fill="#FF4B55" />
        <path d="M25.6711 26.384H25.2935V29.7821H25.6711V26.384Z" fill="#FFE15A" />
        <path d="M25.294 26.384H24.9165V29.7821H25.294V26.384Z" fill="#FF4B55" />
        <path
            d="M22.6513 29.609V26.3838H22.2738V28.8757C22.2738 29.1781 22.4235 29.4443 22.6513 29.609Z"
            fill="#FFE15A" />
        <path
            d="M23.0289 29.7666V26.3837H22.6514V29.6089C22.7613 29.6884 22.8894 29.743 23.0289 29.7666Z"
            fill="#FF4B55" />
        <path
            d="M23.0289 26.3838V29.7667C23.0782 29.775 23.1281 29.7819 23.18 29.7819H23.4065V26.3839H23.0289V26.3838Z"
            fill="#FFE15A" />
        <path
            d="M22.7785 25.7379C22.7616 25.7379 22.7446 25.7331 22.7294 25.7231C22.5067 25.5757 22.4937 25.4222 22.5058 25.3438C22.5221 25.238 22.6008 25.1502 22.7064 25.12C22.8068 25.0918 22.9069 25.1214 22.9745 25.2C23.1152 25.3635 23.2604 25.4278 23.3826 25.3826C23.4794 25.3468 23.5371 25.2514 23.5371 25.1801C23.5371 25.1308 23.577 25.0908 23.6264 25.0908C23.6758 25.0908 23.7157 25.1307 23.7157 25.1801C23.7157 25.3361 23.6018 25.4917 23.4448 25.5499C23.33 25.5923 23.0992 25.6185 22.8393 25.3164C22.8114 25.2842 22.7785 25.2852 22.7553 25.2916C22.7237 25.3007 22.6886 25.3288 22.6822 25.3709C22.6727 25.4324 22.7258 25.5064 22.8279 25.5741C22.8691 25.6013 22.8802 25.6567 22.8531 25.6979C22.8359 25.7236 22.8075 25.7379 22.7785 25.7379Z"
            fill="#F5F5F5" />
        <path
            d="M25.1744 25.7379C25.1455 25.7379 25.1171 25.7238 25.1 25.6981C25.0728 25.6569 25.0841 25.6015 25.1252 25.5744C25.2272 25.5067 25.2804 25.4327 25.2709 25.3711C25.2643 25.3291 25.2294 25.3009 25.1977 25.2918C25.1745 25.2854 25.1416 25.2843 25.1138 25.3166C24.8538 25.6189 24.6229 25.5927 24.5083 25.5501C24.3513 25.4919 24.2374 25.3363 24.2374 25.1803C24.2374 25.131 24.2772 25.0911 24.3267 25.0911C24.376 25.0911 24.4159 25.1309 24.4159 25.1803C24.4159 25.2516 24.4736 25.3469 24.5704 25.3829C24.6927 25.4283 24.838 25.3637 24.9785 25.2002C25.0462 25.1212 25.1464 25.0918 25.2467 25.1203C25.3521 25.1504 25.4309 25.2382 25.4473 25.3441C25.4594 25.4223 25.4464 25.5759 25.2236 25.7234C25.2085 25.733 25.1913 25.7379 25.1744 25.7379Z"
            fill="#F5F5F5" />
        <path
            d="M22.7295 25.8437C22.7106 25.8437 22.6917 25.8377 22.6755 25.8256C22.6362 25.7956 22.6287 25.7397 22.6585 25.7005L24.5983 23.1498C24.6169 23.1163 24.6239 23.0699 24.6319 23.0165C24.6469 22.9163 24.6656 22.7916 24.8186 22.6996C24.9183 22.6398 25.0365 22.6415 25.1354 22.7047C25.2446 22.7744 25.309 22.9043 25.2957 23.0278C25.2877 23.1029 25.2438 23.2399 25.0406 23.3152C24.9941 23.3325 24.943 23.3087 24.926 23.2627C24.9089 23.2165 24.9324 23.165 24.9785 23.148C25.0378 23.1261 25.1102 23.0841 25.1182 23.0089C25.1243 22.9519 25.0919 22.8889 25.0393 22.8551C25.0099 22.8362 24.9637 22.8201 24.9104 22.8526C24.8295 22.9013 24.8215 22.9546 24.8082 23.043C24.7988 23.1056 24.7882 23.1765 24.7464 23.2486L22.8004 25.8085C22.7831 25.8315 22.7564 25.8437 22.7295 25.8437Z"
            fill="#FFE15A" />
        <path
            d="M23.9837 23.0382L23.0913 24.1091L23.4482 25.18H24.5191L24.876 24.1091L23.9837 23.0382Z"
            fill="#FFE15A" />
        <path
            d="M23.985 22.8988L22.9922 24.0901L23.3852 25.2692H24.5846L24.9775 24.0901L23.985 22.8988ZM23.1929 24.1281L23.8957 23.2847V25.0907H23.5138L23.1929 24.1281ZM24.4561 25.0908H24.0741V23.2848L24.777 24.1282L24.4561 25.0908Z"
            fill="#F5F5F5" />
        <path
            d="M28.6872 27.4566L28.7007 27.2586C28.7007 27.2586 28.8763 27.1326 28.7906 27.0157C28.7052 26.8987 28.6062 26.8761 28.3991 26.9032C28.1921 26.9302 27.8681 26.9257 27.7286 26.9346C27.5891 26.9437 27.5171 27.02 27.2966 26.9572L27.3551 26.8221C27.3551 26.8221 27.2517 26.8312 27.1886 26.8626C27.1542 26.8799 27.0716 26.7681 26.9906 26.7862C26.91 26.804 26.8287 26.9706 26.7025 27.0562L26.77 27.1912C26.77 27.1912 26.8465 27.1552 26.9051 27.1957C26.9636 27.2363 26.9815 27.2632 27.0807 27.2632L27.1438 27.2903C27.1438 27.2903 27.1212 27.4342 27.2157 27.5018C27.2157 27.5018 27.1077 27.6413 27.1212 27.6637C27.1347 27.6863 27.2246 27.8573 27.2607 27.9562L27.3418 27.8032C27.3418 27.8032 27.2202 27.6951 27.2428 27.6816C27.2653 27.6681 27.3462 27.6501 27.3327 27.6141C27.3192 27.5781 27.3958 27.6186 27.4813 27.6321C27.4813 27.6321 27.4857 27.7671 27.5038 27.7851C27.5219 27.8031 27.5488 27.875 27.5443 27.9516C27.5399 28.0281 27.4724 28.0506 27.4724 28.0506L27.594 28.0866C27.594 28.0866 27.6254 28.0416 27.648 28.0461C27.648 28.0461 27.6389 27.6726 27.6885 27.6141C27.6885 27.6141 27.981 27.6726 28.1159 27.6006C28.1159 27.6006 28.1332 27.6224 28.1669 27.6431C28.1534 27.6744 28.142 27.7057 28.1471 27.7149C28.1584 27.7353 28.1945 27.7329 28.2035 27.7104C28.2069 27.7019 28.2122 27.6844 28.2175 27.6663C28.2338 27.6717 28.2517 27.6759 28.2721 27.678C28.2701 27.7064 28.2699 27.7325 28.2765 27.7386C28.2935 27.7543 28.3272 27.7409 28.3287 27.7166C28.3293 27.7087 28.3289 27.6938 28.3285 27.6778C28.3518 27.6758 28.3766 27.6717 28.4039 27.6636L28.2509 27.9157L28.1744 27.9471L28.2734 27.9966L28.3634 27.9606C28.3634 27.9606 28.4488 27.7446 28.5884 27.6816C28.5884 27.6816 28.6829 27.9066 28.5658 28.0282L28.6692 28.0866L28.7188 27.9831C28.7188 27.9831 28.7008 27.7807 28.7683 27.6501L28.6872 27.4566Z"
            fill="#FF4B55" />
        <path
            d="M26.9942 26.8138C26.9942 26.8138 26.9491 26.7709 26.9378 26.7145C26.9265 26.6581 26.9129 26.6332 26.8632 26.6174C26.8632 26.6174 26.8947 26.6536 26.8903 26.71C26.8858 26.7665 26.8903 26.8433 26.9219 26.8681L26.9942 26.8138Z"
            fill="#4173CD" />
        <path
            d="M27.3874 26.9729C27.3874 26.9729 27.326 27.1817 27.1455 27.2903L27.0826 27.2632C27.0826 27.2632 27.2753 27.0986 27.2986 26.9572L27.3874 26.9729Z"
            fill="#4173CD" />
        <path
            d="M27.08 26.8633C27.0736 26.8567 27.1591 26.8318 27.1387 26.764C27.1183 26.6962 27.1183 26.6465 27.1591 26.615C27.1591 26.615 27.1636 26.6714 27.1952 26.7076C27.2268 26.7437 27.2449 26.834 27.193 26.886C27.193 26.886 27.1409 26.9266 27.08 26.8633Z"
            fill="#4173CD" />
        <path
            d="M27.0897 27.4791C27.079 27.4739 27.0744 27.4607 27.0798 27.4499L27.107 27.3945C27.1229 27.3619 27.1124 27.3215 27.081 27.3035C27.0466 27.2836 27.0032 27.2973 26.986 27.3324L26.9577 27.39C26.9524 27.4007 26.9392 27.4053 26.9285 27.3999L26.9115 27.4345C26.9115 27.4345 26.9365 27.4468 26.9668 27.4617L26.9661 27.4629C26.9592 27.4769 26.965 27.4939 26.979 27.5007C26.9929 27.5077 27.0099 27.5018 27.0168 27.4878L27.0175 27.4866C27.0477 27.5014 27.0727 27.5137 27.0727 27.5137L27.0897 27.4791Z"
            fill="#4173CD" />
        <path d="M27.3083 27.8594L27.3759 27.8729L27.3194 28.0469L27.2624 27.9562L27.3083 27.8594Z"
            fill="#4173CD" />
        <path d="M27.474 28.0507L27.4326 28.1237H27.5952L27.5955 28.0867L27.474 28.0507Z"
            fill="#4173CD" />
        <path d="M28.2749 27.9967V28.0402H28.0904L28.1796 27.9509L28.2749 27.9967Z"
            fill="#4173CD" />
        <path d="M28.5671 28.0282L28.476 28.1195H28.6678L28.6706 28.0868L28.5671 28.0282Z"
            fill="#4173CD" />
        <path
            d="M28.6872 28.8666L28.7007 28.6687C28.7007 28.6687 28.8763 28.5427 28.7906 28.4257C28.7052 28.3087 28.6062 28.2861 28.3991 28.3132C28.1921 28.3402 27.8681 28.3357 27.7286 28.3446C27.5891 28.3537 27.5171 28.4301 27.2966 28.3672L27.3551 28.2321C27.3551 28.2321 27.2517 28.2412 27.1886 28.2727C27.1542 28.2899 27.0716 28.1781 26.9906 28.1962C26.91 28.2141 26.8287 28.3807 26.7025 28.4662L26.77 28.6013C26.77 28.6013 26.8465 28.5652 26.9051 28.6058C26.9636 28.6463 26.9815 28.6732 27.0807 28.6732L27.1438 28.7003C27.1438 28.7003 27.1212 28.8442 27.2157 28.9118C27.2157 28.9118 27.1077 29.0514 27.1212 29.0737C27.1347 29.0963 27.2246 29.2673 27.2607 29.3662L27.3418 29.2132C27.3418 29.2132 27.2202 29.1052 27.2428 29.0916C27.2653 29.0781 27.3462 29.0602 27.3327 29.0241C27.3192 28.9881 27.3958 29.0286 27.4813 29.0421C27.4813 29.0421 27.4857 29.1772 27.5038 29.1951C27.5219 29.2131 27.5488 29.2851 27.5443 29.3616C27.5399 29.4381 27.4724 29.4606 27.4724 29.4606L27.594 29.4967C27.594 29.4967 27.6254 29.4517 27.648 29.4562C27.648 29.4562 27.6389 29.0826 27.6885 29.0241C27.6885 29.0241 27.981 29.0826 28.1159 29.0106C28.1159 29.0106 28.1332 29.0324 28.1669 29.0531C28.1534 29.0845 28.142 29.1157 28.1471 29.1249C28.1584 29.1453 28.1945 29.143 28.2035 29.1204C28.2069 29.1119 28.2122 29.0944 28.2175 29.0764C28.2338 29.0817 28.2517 29.0859 28.2721 29.088C28.2701 29.1164 28.2699 29.1426 28.2765 29.1486C28.2935 29.1644 28.3272 29.151 28.3287 29.1267C28.3293 29.1188 28.3289 29.1038 28.3285 29.0878C28.3518 29.0858 28.3766 29.0817 28.4039 29.0736L28.2509 29.3257L28.1744 29.3571L28.2734 29.4066L28.3634 29.3706C28.3634 29.3706 28.4488 29.1546 28.5884 29.0916C28.5884 29.0916 28.6829 29.3166 28.5658 29.4382L28.6692 29.4967L28.7188 29.3932C28.7188 29.3932 28.7008 29.1907 28.7683 29.0602L28.6872 28.8666Z"
            fill="#FF4B55" />
        <path
            d="M26.9942 28.2237C26.9942 28.2237 26.9491 28.1809 26.9378 28.1244C26.9265 28.068 26.9129 28.0431 26.8632 28.0273C26.8632 28.0273 26.8947 28.0635 26.8903 28.1199C26.8858 28.1764 26.8903 28.2532 26.9219 28.278L26.9942 28.2237Z"
            fill="#4173CD" />
        <path
            d="M27.3871 28.3828C27.3871 28.3828 27.3256 28.5916 27.1452 28.7002L27.0821 28.6731C27.0821 28.6731 27.2748 28.5085 27.2981 28.3671L27.3871 28.3828Z"
            fill="#4173CD" />
        <path
            d="M27.08 28.2732C27.0736 28.2666 27.1591 28.2417 27.1387 28.1739C27.1183 28.1062 27.1183 28.0564 27.1591 28.0249C27.1591 28.0249 27.1636 28.0813 27.1952 28.1175C27.2268 28.1536 27.2449 28.2439 27.193 28.2959C27.193 28.2959 27.1409 28.3364 27.08 28.2732Z"
            fill="#4173CD" />
        <path
            d="M27.0897 28.889C27.079 28.8838 27.0744 28.8706 27.0798 28.8598L27.107 28.8044C27.1229 28.7719 27.1124 28.7314 27.081 28.7134C27.0466 28.6935 27.0032 28.7072 26.986 28.7423L26.9577 28.7999C26.9524 28.8106 26.9392 28.8152 26.9285 28.8098L26.9115 28.8444C26.9115 28.8444 26.9365 28.8567 26.9668 28.8716L26.9661 28.8728C26.9592 28.8868 26.965 28.9038 26.979 28.9106C26.9929 28.9176 27.0099 28.9117 27.0168 28.8977L27.0175 28.8965C27.0477 28.9113 27.0727 28.9236 27.0727 28.9236L27.0897 28.889Z"
            fill="#4173CD" />
        <path d="M27.3083 29.2693L27.3759 29.2829L27.3194 29.4568L27.2624 29.3661L27.3083 29.2693Z"
            fill="#4173CD" />
        <path d="M27.474 29.4606L27.4326 29.5336H27.5952L27.5955 29.4965L27.474 29.4606Z"
            fill="#4173CD" />
        <path d="M28.2749 29.4066V29.4501H28.0904L28.1796 29.3608L28.2749 29.4066Z"
            fill="#4173CD" />
        <path d="M28.5671 29.4381L28.476 29.5294H28.6678L28.6706 29.4966L28.5671 29.4381Z"
            fill="#4173CD" />
    </g>
    <defs>
        <clipPath id="clip0_9_641">
            <rect width="50" height="50" fill="white" transform="translate(0.898438 0.32373)" />
        </clipPath>
    </defs>
</svg>
