<svg width="50" height="51" viewBox="0 0 50 51" fill="none" xmlns="http://www.w3.org/2000/svg">
<g clip-path="url(#clip0_9_4906)">
<path d="M49.9999 25.4389H0V9.92174C0 9.44567 0.386034 9.05963 0.862108 9.05963H49.1379C49.614 9.05963 50 9.44567 50 9.92174L49.9999 25.4389Z" fill="#FF4B55"/>
<path d="M0 25.4389H49.9999V40.9561C49.9999 41.4321 49.6139 41.8182 49.1378 41.8182H0.862108C0.386034 41.8182 0 41.4321 0 40.9561V25.4389Z" fill="#464655"/>
<path d="M23.037 18.241L23.6264 20.0082L25.4893 20.0227C25.6337 20.0238 25.6935 20.208 25.5774 20.2937L24.0788 21.4003L24.6407 23.1765C24.6843 23.3141 24.5275 23.4278 24.4101 23.3441L22.8945 22.2608L21.3789 23.3441C21.2614 23.428 21.1048 23.3141 21.1483 23.1765L21.7102 21.4003L20.2116 20.2937C20.0956 20.2079 20.1554 20.0238 20.2997 20.0227L22.1626 20.0082L22.752 18.241C22.7977 18.1042 22.9914 18.1042 23.037 18.241Z" fill="#FFE15A"/>
<path d="M31.0042 33.246C31.0042 33.246 20.3395 25.2007 20.0247 24.9362C19.5381 24.5275 19.1626 23.8048 19.1446 22.9247C19.1446 22.9247 17.9945 24.1028 18.2197 25.3223C18.4802 26.7321 19.2884 27.235 20.3301 27.9174C21.0621 28.397 26.8815 32.0673 30.2788 34.2084L31.0042 33.246Z" fill="#FFE15A"/>
<path d="M34.1948 35.6041C34.0559 35.5049 32.9389 34.6793 31.3892 33.5311L30.8268 34.5538C31.9646 35.2707 32.7222 35.7478 32.7222 35.7478C32.7222 35.7478 32.8299 37.1487 33.9614 36.9152C34.3692 36.831 34.6977 35.9633 34.1948 35.6041Z" fill="#FFE15A"/>
<path d="M24.9861 31.8894C24.1799 32.1731 23.3165 32.3354 22.4133 32.3354C20.124 32.3354 18.0729 31.3382 16.6528 29.7612L15.3903 30.8975C15.8135 31.3674 16.2653 31.8102 16.7746 32.1882L16.5232 32.6236L18.3896 33.7012L18.6367 33.2731C19.4799 33.6398 20.3863 33.8866 21.3357 33.9941V34.4906H23.4909V33.9941C24.4403 33.8866 25.3467 33.6398 26.1899 33.2731L26.437 33.7012L27.1787 33.2729C26.4544 32.8162 25.7124 32.3481 24.9861 31.8894Z" fill="#FFE15A"/>
<path d="M31.8307 23.4993C31.7232 22.5499 31.4764 21.6435 31.1097 20.8004L31.5377 20.5533L30.4602 18.6868L30.0247 18.9382C29.4673 18.1871 28.8031 17.523 28.052 16.9655L28.3033 16.5301L26.4369 15.4526L26.1899 15.8806C25.4904 15.5764 24.7457 15.3604 23.9708 15.2322L23.6876 16.9318C27.365 17.5409 30.172 20.727 30.172 24.5769C30.172 26.65 29.3539 28.5285 28.0292 29.9204C28.4874 30.2664 28.9422 30.6097 29.3918 30.9492C29.6096 30.7107 29.8317 30.4759 30.0248 30.2157L30.4603 30.4671L31.5378 28.6007L31.1098 28.3536C31.4765 27.5104 31.7232 26.604 31.8308 25.6547H32.3271V23.4995H31.8306L31.8307 23.4993Z" fill="#FFE15A"/>
</g>
<defs>
<clipPath id="clip0_9_4906">
<rect width="50" height="50" fill="white" transform="translate(0 0.438965)"/>
</clipPath>
</defs>
</svg>
