<svg width="50" height="50" viewBox="0 0 50 50" fill="none" xmlns="http://www.w3.org/2000/svg">
    <path
        d="M49.1378 41.3462H0.862108C0.386034 41.3462 0 40.9609 0 40.4858V9.51423C0 9.03912 0.386034 8.65387 0.862108 8.65387H49.1379C49.614 8.65387 50 9.03912 50 9.51423V40.4858C49.9999 40.961 49.6139 41.3462 49.1378 41.3462Z"
        fill="#41479B" />
    <path
        d="M24.138 8.65387H22.6406L14.6552 13.875V8.65387H10.3449V13.875L2.35948 8.65387H0.862113C0.386037 8.65387 0 9.03912 0 9.51423V10.1966L6.8511 14.6761H0V18.9778H6.8511L0 23.4574V24.1397C0 24.6148 0.386037 25 0.862113 25H2.35948L10.3449 19.7789V25H14.6552V19.7789L22.6405 25H24.1379C24.614 25 25 24.6148 25 24.1397V23.4573L18.149 18.9778H25V14.6761H18.1489L25 10.1966V9.51423C25 9.03912 24.6142 8.65387 24.138 8.65387Z"
        fill="#F5F5F5" />
    <path
        d="M25 15.5365H13.7931V8.65387H11.2069V15.5365H0V18.1174H11.2069V25H13.7931V18.1174H25V15.5365Z"
        fill="#FF4B55" />
    <path
        d="M9.61539 14.4231L0.416588 8.65387C0.171804 8.8036 0 9.05503 0 9.35573V9.39955L8.00983 14.4231H9.61539Z"
        fill="#FF4B55" />
    <path
        d="M16.0628 14.4231L25 9.06719C24.8447 8.82454 24.5706 8.65387 24.2431 8.65387H24.05L14.4231 14.4231H16.0628Z"
        fill="#FF4B55" />
    <path
        d="M8.93456 19.2308L0 24.5764C0.154067 24.8249 0.432825 25 0.765674 25H0.934327L10.5769 19.2308H8.93456Z"
        fill="#FF4B55" />
    <path
        d="M25 24.3112L16.9613 19.2308H15.3846L24.5132 25C24.7868 24.8764 24.9743 24.6175 25 24.3112Z"
        fill="#FF4B55" />
    <path
        d="M31.7885 18.5938C31.671 20.0881 31.185 29.5841 37.4999 31.7308C43.8171 29.5836 43.329 20.0879 43.2112 18.5938C42.4461 18.8799 39.6765 19.7472 37.4999 18.2692C35.3235 19.747 32.5541 18.8803 31.7885 18.5938Z"
        fill="#F5F5F5" />
    <path
        d="M41.3462 20.3717C40.9902 20.1055 40.3312 20.5999 39.5928 20.5493C38.908 20.5022 38.0642 19.8354 36.9673 20.1229C36.6643 19.8545 36.8109 19.2308 36.8109 19.2308C36.0494 19.7042 35.9948 20.3522 36.0427 20.7036C35.4997 21.3937 35.5364 22.4466 35.6376 22.768C35.7694 23.1864 36.0199 23.2371 36.0595 23.7061C36.099 24.1752 36.2837 24.0104 36.2837 24.0104C36.665 23.8048 36.7204 23.4168 36.8807 22.7819C37.5003 22.858 37.9051 22.3243 37.9051 22.3243C37.4987 22.4469 37.2423 22.2315 37.1026 22.0418C37.1245 21.979 37.1419 21.9212 37.1669 21.8553C37.6283 20.6381 39.8363 20.9728 40.0409 21.31C40.4101 21.9186 40.8978 22.1468 40.8978 22.1468C40.8978 21.5123 40.4101 20.9551 40.4101 20.9551C41.1484 20.8281 41.3462 20.3717 41.3462 20.3717ZM36.0334 22.9833C35.9605 22.9833 35.9015 22.9266 35.9015 22.8566C35.9015 22.7866 35.9605 22.7299 36.0334 22.7299C36.1062 22.7299 36.1652 22.7866 36.1652 22.8566C36.1652 22.9266 36.1062 22.9833 36.0334 22.9833Z"
        fill="#FFA028" />
    <path
        d="M38.7632 27.8846C39.1923 27.7625 39.1431 27.0135 39.6045 26.4947C40.0325 26.0136 41.0803 25.743 41.4558 24.78C41.8567 24.6981 42.3067 25.1368 42.3067 25.1368C42.3334 24.3232 41.8104 23.9399 41.4829 23.7891C41.2006 23.0223 40.2799 22.4918 39.9478 22.3965C39.5156 22.2724 39.3305 22.4307 38.9071 22.2116C38.4837 21.9924 38.5201 22.2162 38.5201 22.2162C38.4799 22.607 38.78 22.8533 39.232 23.308C38.8161 23.7256 39.043 24.3076 39.043 24.3076C39.1683 23.9421 39.4976 23.8668 39.7391 23.864C39.7803 23.9133 39.8199 23.9569 39.862 24.0103C40.6411 24.9957 39.1047 26.4506 38.7005 26.4232C37.9713 26.3737 37.5 26.6135 37.5 26.6135C38.0423 26.9495 38.7948 26.884 38.7948 26.884C38.4851 27.4968 38.7632 27.8846 38.7632 27.8846ZM39.5396 22.5748C39.5809 22.521 39.6628 22.5074 39.7226 22.5445C39.7824 22.5816 39.7976 22.6552 39.7563 22.709C39.715 22.7628 39.6331 22.7764 39.5733 22.7393C39.5134 22.7022 39.4984 22.6287 39.5396 22.5748Z"
        fill="#FFA028" />
    <path
        d="M32.6953 22.6197C32.6391 23.0283 33.3989 23.3082 33.721 23.9136C34.0197 24.475 33.8553 25.4611 34.6513 26.1852C34.5671 26.5533 33.9486 26.739 33.9486 26.739C34.7407 27.1097 35.3346 26.8396 35.6183 26.6323C36.4914 26.7263 37.3942 26.1891 37.625 25.9542C37.9255 25.6485 37.8455 25.4268 38.2361 25.1692C38.6268 24.9116 38.391 24.8459 38.391 24.8459C38.0218 24.6452 37.6551 24.7889 37.0201 24.9693C36.779 24.4451 36.1112 24.3843 36.1112 24.3843C36.4203 24.6449 36.359 24.9505 36.2624 25.1521C36.1968 25.1652 36.1374 25.1794 36.0675 25.1917C34.7738 25.4163 33.9705 23.5175 34.164 23.1937C34.513 22.6094 34.4704 22.1154 34.4704 22.1154C33.9154 22.4217 33.6701 23.0746 33.6701 23.0746C33.1927 22.5549 32.6953 22.6197 32.6953 22.6197ZM37.6171 25.5389C37.6533 25.5963 37.6329 25.6701 37.5716 25.7039C37.5103 25.7377 37.4315 25.7187 37.3953 25.6614C37.3591 25.604 37.3794 25.5303 37.4407 25.4964C37.5019 25.4626 37.581 25.4816 37.6171 25.5389Z"
        fill="#FFA028" />
    <path
        d="M37.5001 32.6923L37.4521 32.6754C30.6997 30.2679 31.7909 18.8554 31.8025 18.7401L31.8237 18.534L32.0082 18.6197C32.0401 18.6345 35.1728 20.0587 37.4124 18.3365L37.5 18.2692L37.5875 18.3365C39.8304 20.061 42.9604 18.6342 42.9916 18.6197L43.1763 18.5337L43.1974 18.7401C43.2093 18.8554 44.3003 30.2679 37.5478 32.6754L37.5001 32.6923ZM32.0766 18.9728C31.965 20.4972 31.5035 30.185 37.5001 32.3749C43.4988 30.1844 43.0353 20.497 42.9235 18.9728C42.197 19.2647 39.5669 20.1495 37.5001 18.6417C35.4334 20.1493 32.8036 19.2651 32.0766 18.9728Z"
        fill="#CDCE0C" />
    <path
        d="M33.6539 28.8461C34.4914 30.5506 35.7141 31.9785 37.4996 32.6923C39.2856 31.9782 40.5087 30.5505 41.3462 28.8461H33.6539Z"
        fill="#82AFFF" />
</svg>
