<svg width="50" height="50" viewBox="0 0 50 50" fill="none" xmlns="http://www.w3.org/2000/svg">
    <path
        d="M49.1378 8.65387H0.862108C0.386034 8.65387 0 9.03912 0 9.51423V40.4858C0 40.9609 0.386034 41.3462 0.862108 41.3462H49.1379C49.614 41.3462 50 40.9609 50 40.4858V9.51423C49.9999 9.03912 49.6139 8.65387 49.1378 8.65387Z"
        fill="#464655" />
    <path
        d="M24.5192 10.5769L25.5979 16.212L28.7508 11.4187L27.5909 17.0376L32.3382 13.8156L29.1163 18.563L34.7353 17.4031L29.9418 20.556L35.5769 21.6346L29.9418 22.7133L34.7353 25.8662L29.1163 24.7063L32.3382 29.4536L27.5909 26.2317L28.7508 31.8507L25.5979 27.0573L24.5192 32.6923L23.4407 27.0573L20.2876 31.8507L21.4476 26.2317L16.7003 29.4536L19.9222 24.7063L14.3033 25.8662L19.0967 22.7133L13.4615 21.6346L19.0967 20.556L14.3033 17.4031L19.9222 18.563L16.7003 13.8156L21.4476 17.0376L20.2876 11.4187L23.4407 16.212L24.5192 10.5769Z"
        fill="#FFE15A" />
    <path
        d="M0 9.22573V40.478C0 40.9574 0.386035 41.3462 0.862109 41.3462H25L0.224414 8.65387C0.0888672 8.80718 0 9.00426 0 9.22573Z"
        fill="#FF4B55" />
    <path
        d="M25 41.3462H49.1379C49.614 41.3462 50 40.9574 50 40.478V9.22582C50 9.00436 49.9111 8.80728 49.7756 8.65387L25 41.3462Z"
        fill="#FF4B55" />
    <path d="M14.7993 27.8846H34.2392L39.423 21.1539H9.61536L14.7993 27.8846Z" fill="#4173CD" />
    <path d="M15.3846 28.8461L25.4807 41.3461L35.577 28.8461H15.3846Z" fill="#F5F5F5" />
</svg>
