<svg width="51" height="51" viewBox="0 0 51 51" fill="none" xmlns="http://www.w3.org/2000/svg">
<g clip-path="url(#clip0_9_4864)">
<path d="M50.0065 41.8182H1.73076C1.25469 41.8182 0.868652 41.4321 0.868652 40.9561V9.92174C0.868652 9.44567 1.25469 9.05963 1.73076 9.05963H50.0065C50.4826 9.05963 50.8687 9.44567 50.8687 9.92174V40.9561C50.8686 41.4322 50.4825 41.8182 50.0065 41.8182Z" fill="#4173CD"/>
<path d="M50.8686 31.4731H0.868713V33.1972H50.8686V31.4731Z" fill="#FFE15A"/>
<path d="M50.8681 34.9213H0.868225V36.6454H50.8681V34.9213Z" fill="#FFE15A"/>
<path d="M7.239 17.6208L4.03119 16.5254L7.239 15.4301L8.3344 12.2227L9.42971 15.4301L12.6375 16.5254L9.42971 17.6208L8.3344 20.8283L7.239 17.6208Z" fill="#FF4B55"/>
<path d="M8.33426 12.799L9.28289 15.5768L12.0607 16.5255L9.28289 17.4741L8.33426 20.2519L7.38563 17.4741L4.6078 16.5255L7.38563 15.5768L8.33426 12.799ZM8.33426 11.6459L7.98152 12.6785L7.09207 15.2833L4.48739 16.1727L3.45477 16.5255L4.48739 16.878L7.09207 17.7674L7.98152 20.3721L8.33426 21.4047L8.68699 20.3721L9.57644 17.7674L12.1811 16.878L13.2137 16.5255L12.1811 16.1729L9.57644 15.2835L8.68699 12.6788L8.33426 11.6459Z" fill="#F5F5F5"/>
</g>
<defs>
<clipPath id="clip0_9_4864">
<rect width="50" height="50" fill="white" transform="translate(0.869141 0.438965)"/>
</clipPath>
</defs>
</svg>
