<svg width="50" height="50" viewBox="0 0 50 50" fill="none" xmlns="http://www.w3.org/2000/svg">
    <path
        d="M49.1378 41.3462H0.862108C0.386034 41.3462 0 40.9609 0 40.4858V9.51423C0 9.03912 0.386034 8.65387 0.862108 8.65387H49.1379C49.614 8.65387 50 9.03912 50 9.51423V40.4858C49.9999 40.961 49.6139 41.3462 49.1378 41.3462Z"
        fill="#41479B" />
    <path
        d="M24.1378 8.65387H22.6403L14.655 13.8751V8.65387H10.3447V13.8751L2.35937 8.65387H0.862106C0.386034 8.65387 0 9.03903 0 9.51414V10.1965L6.85105 14.676H0V18.9777H6.85105L0 23.4573V24.1397C0 24.6148 0.386034 25 0.862106 25H2.35956L10.3449 19.7788V25H14.6552V19.7788L22.6404 25H24.1379C24.614 25 25 24.6148 25 24.1397V23.4573L18.149 18.9778H24.9999V14.6761H18.1489L24.9999 10.1966V9.51423C24.9999 9.03903 24.6139 8.65387 24.1378 8.65387Z"
        fill="#F5F5F5" />
    <path
        d="M25 15.5365H13.7931V8.65387H11.2069V15.5365H0V18.1174H11.2069V25H13.7931V18.1174H25V15.5365Z"
        fill="#FF4B55" />
    <path
        d="M9.61539 14.4231L0.416588 8.65387C0.171804 8.8035 0 9.05503 0 9.35564V9.39946L8.00983 14.4231H9.61539Z"
        fill="#FF4B55" />
    <path
        d="M16.0628 14.4231L25 9.06719C24.8447 8.82454 24.5706 8.65387 24.243 8.65387H24.05L14.4231 14.4231H16.0628Z"
        fill="#FF4B55" />
    <path
        d="M8.93447 19.2308L0 24.5764C0.154065 24.8249 0.432821 25 0.765667 25H0.934318L10.5769 19.2308H8.93447Z"
        fill="#FF4B55" />
    <path
        d="M25 24.311L16.9613 19.2308H15.3846L24.5132 25C24.7866 24.8764 24.9742 24.6175 25 24.311Z"
        fill="#FF4B55" />
    <path
        d="M12.6816 29.9457L13.3191 32.1016L15.362 31.268C15.5363 31.1969 15.6948 31.4006 15.5884 31.5587L14.3404 33.4135L16.2503 34.5299C16.4132 34.6252 16.3567 34.879 16.1695 34.8924L13.9758 35.0493L14.3146 37.2751C14.3435 37.4651 14.1144 37.5781 13.9876 37.4365L12.5 35.7773L11.0124 37.4365C10.8856 37.578 10.6565 37.465 10.6854 37.2751L11.0242 35.0493L8.83046 34.8924C8.64332 34.879 8.58677 34.6252 8.74971 34.5299L10.6596 33.4135L9.41159 31.5587C9.3052 31.4006 9.46364 31.1969 9.63796 31.268L11.6809 32.1016L12.3184 29.9457C12.373 29.7617 12.6272 29.7617 12.6816 29.9457Z"
        fill="#F5F5F5" />
    <path
        d="M38.5525 14.4921L38.8712 15.57L39.8926 15.1533C39.9796 15.1178 40.059 15.2195 40.0057 15.2986L39.3818 16.2261L40.3367 16.7843C40.4182 16.8319 40.3899 16.9589 40.2962 16.9655L39.1995 17.044L39.3688 18.1568C39.3833 18.2518 39.2687 18.3083 39.2053 18.2374L38.4615 17.4079L37.7178 18.2374C37.6543 18.3082 37.5399 18.2517 37.5543 18.1568L37.7236 17.044L36.6268 16.9655C36.5332 16.9589 36.5049 16.8319 36.5864 16.7843L37.5412 16.2261L36.9174 15.2986C36.8641 15.2195 36.9434 15.1178 37.0305 15.1533L38.0518 15.57L38.3706 14.4921C38.3982 14.4001 38.5254 14.4001 38.5525 14.4921Z"
        fill="#F5F5F5" />
    <path
        d="M30.8602 22.1844L31.1789 23.2623L32.2003 22.8456C32.2873 22.8101 32.3666 22.9118 32.3134 22.991L31.6895 23.9184L32.6444 24.4767C32.7258 24.5242 32.6975 24.6512 32.6039 24.6578L31.5072 24.7363L31.6765 25.8491C31.691 25.9441 31.5764 26.0006 31.5129 25.9298L30.7692 25.1002L30.0255 25.9298C29.962 26.0005 29.8475 25.944 29.8619 25.8491L30.0313 24.7363L28.9345 24.6578C28.8409 24.6512 28.8126 24.5242 28.8941 24.4767L29.8489 23.9184L29.225 22.991C29.1718 22.9118 29.2511 22.8101 29.3381 22.8456L30.3595 23.2623L30.6782 22.1844C30.7059 22.0924 30.833 22.0924 30.8602 22.1844Z"
        fill="#F5F5F5" />
    <path
        d="M45.2832 19.2998L45.602 20.3777L46.6234 19.961C46.7104 19.9254 46.7897 20.0272 46.7365 20.1063L46.1126 21.0338L47.0675 21.592C47.1489 21.6396 47.1206 21.7666 47.027 21.7732L45.9302 21.8516L46.0995 22.9645C46.114 23.0595 45.9995 23.1159 45.9361 23.0451L45.1924 22.2156L44.4486 23.0451C44.3851 23.1158 44.2707 23.0594 44.2851 22.9645L44.4544 21.8516L43.3576 21.7732C43.264 21.7666 43.2357 21.6396 43.3172 21.592L44.272 21.0338L43.6481 20.1063C43.5949 20.0272 43.6742 19.9254 43.7613 19.961L44.7826 20.3777L45.1014 19.2998C45.1289 19.2078 45.256 19.2078 45.2832 19.2998Z"
        fill="#F5F5F5" />
    <path
        d="M38.5525 32.7613L38.8712 33.8393L39.8926 33.4224C39.9796 33.3869 40.059 33.4886 40.0057 33.5678L39.3818 34.4952L40.3367 35.0535C40.4182 35.1011 40.3899 35.2281 40.2962 35.2347L39.1995 35.3132L39.3688 36.426C39.3833 36.521 39.2687 36.5775 39.2053 36.5067L38.4615 35.6771L37.7178 36.5067C37.6543 36.5774 37.5399 36.5209 37.5543 36.426L37.7236 35.3132L36.6268 35.2347C36.5332 35.2281 36.5049 35.1011 36.5864 35.0535L37.5412 34.4952L36.9174 33.5678C36.8641 33.4886 36.9434 33.3869 37.0305 33.4224L38.0518 33.8393L38.3706 32.7613C38.3982 32.6693 38.5254 32.6693 38.5525 32.7613Z"
        fill="#F5F5F5" />
    <path
        d="M40.7485 24.1266L40.4594 25.0342L39.5455 25.0416C39.4272 25.0427 39.3781 25.2007 39.4733 25.2742L40.2085 25.8426L39.9328 26.7547C39.8971 26.8729 40.0256 26.9705 40.1218 26.8985L40.8654 26.3421L41.609 26.8985C41.7052 26.9705 41.8336 26.8727 41.798 26.7547L41.5222 25.8426L42.2574 25.2742C42.3527 25.2006 42.3036 25.0427 42.1853 25.0416L41.2714 25.0342L40.9822 24.1266C40.9447 24.0091 40.7859 24.0091 40.7485 24.1266Z"
        fill="#F5F5F5" />
</svg>
