<svg width="51" height="51" viewBox="0 0 51 51" fill="none" xmlns="http://www.w3.org/2000/svg">
    <g clip-path="url(#clip0_9_4806)">
        <path
            d="M20.138 41.8183H1.17252C0.696445 41.8183 0.31041 41.4323 0.31041 40.9562V9.9218C0.31041 9.44573 0.696445 9.05969 1.17252 9.05969H20.138V41.8183Z"
            fill="#41479B" />
        <path
            d="M49.4483 41.7106H20.1379V9.05975H49.4482C49.9243 9.05975 50.3103 9.44579 50.3103 9.92186V40.8486C50.3104 41.3247 49.9244 41.7106 49.4483 41.7106Z"
            fill="#F5F5F5" />
        <path
            d="M25.9531 25.2508C25.5902 25.2508 25.2382 25.3744 24.9548 25.601L23.2358 26.9762C22.9524 27.203 22.6004 27.3264 22.2375 27.3264H21.7604V27.052C21.7604 26.6304 22.1021 26.2886 22.5237 26.2886H23.3171V25.9187C23.3171 25.5499 23.0181 25.2508 22.6492 25.2508H22.2793C22.2793 24.9643 22.047 24.732 21.7605 24.732C20.3275 24.732 19.1659 25.8936 19.1659 27.3265H18.1698C17.807 27.3265 17.4549 27.203 17.1716 26.9763L15.4525 25.6011C15.1691 25.3744 14.8171 25.2509 14.4543 25.2509H6.88425C6.62917 25.2509 6.50153 25.5592 6.6819 25.7396L9.30193 28.3596C9.63718 28.6949 10.0919 28.8833 10.5659 28.8833H12.42L13.9421 30.0249C14.3014 30.2944 14.7383 30.4399 15.1875 30.4399H17.0902C17.4169 30.4399 17.7245 30.2861 17.9204 30.0249L18.1279 29.7481V30.9589L16.8475 33.52C16.7205 33.7738 16.9051 34.0723 17.1889 34.0723H21.3786C21.5894 34.0723 21.7603 33.9014 21.7603 33.6907V29.0563L22.4867 30.025C22.6827 30.2863 22.9902 30.44 23.317 30.44H25.2197C25.6689 30.44 26.1059 30.2943 26.4651 30.025L27.9872 28.8834H29.8413C30.3154 28.8834 30.7701 28.695 31.1053 28.3597L33.7253 25.7397C33.9056 25.5594 33.7779 25.251 33.523 25.251H25.9531V25.2508Z"
            fill="#FFE15A" />
        <path
            d="M20.3039 16.8432L20.5519 17.5871L21.3361 17.5931C21.4376 17.5939 21.4798 17.7235 21.398 17.7838L20.7672 18.2496L21.0037 18.9972C21.0342 19.094 20.9241 19.1741 20.8415 19.115L20.2036 18.659L19.5657 19.115C19.4832 19.1741 19.3729 19.094 19.4035 18.9972L19.64 18.2496L19.0091 17.7838C18.9275 17.7234 18.9696 17.5939 19.0711 17.5931L19.8552 17.5871L20.1033 16.8432C20.1355 16.7468 20.2717 16.7468 20.3039 16.8432Z"
            fill="#FFE15A" />
        <path
            d="M8.7856 21.531L9.48697 21.8816L10.0457 21.3314C10.1179 21.2602 10.2394 21.3221 10.2244 21.4224L10.1077 22.1978L10.8036 22.5593C10.8936 22.606 10.8723 22.7406 10.7722 22.7572L9.99869 22.8859L9.86997 23.6595C9.85327 23.7596 9.7188 23.7809 9.67202 23.6908L9.3106 22.9949L8.53521 23.1116C8.43481 23.1266 8.3729 23.0054 8.44419 22.9329L8.99439 22.3742L8.6438 21.6728C8.59849 21.5821 8.69478 21.4857 8.7856 21.531Z"
            fill="#FFE15A" />
        <path
            d="M31.7631 21.6729L31.4126 22.3743L31.9628 22.933C32.034 23.0053 31.9722 23.1268 31.8718 23.1117L31.0964 22.995L30.735 23.6909C30.6882 23.781 30.5536 23.7597 30.537 23.6596L30.4083 22.886L29.6348 22.7573C29.5347 22.7406 29.5133 22.6061 29.6034 22.5594L30.2993 22.1979L30.1826 21.4226C30.1676 21.3222 30.2889 21.2602 30.3612 21.3315L30.9199 21.8817L31.6213 21.5311C31.7121 21.4857 31.8085 21.5821 31.7631 21.6729Z"
            fill="#FFE15A" />
        <path
            d="M14.0782 18.0414L14.5921 18.6338L15.3188 18.3393C15.4129 18.3011 15.5013 18.4047 15.449 18.4917L15.0445 19.1635L15.5491 19.7637C15.6144 19.8414 15.5432 19.9576 15.4443 19.9346L14.6804 19.7575L14.2656 20.4229C14.2119 20.509 14.0794 20.4772 14.0707 20.3761L14.0031 19.5949L13.2421 19.4059C13.1435 19.3815 13.1328 19.2456 13.2263 19.206L13.9484 18.9003L13.8929 18.1181C13.8859 18.017 14.0117 17.9649 14.0782 18.0414Z"
            fill="#FFE15A" />
        <path
            d="M26.5138 18.1183L26.4583 18.9005L27.1804 19.2062C27.2739 19.2457 27.2631 19.3816 27.1646 19.4061L26.4036 19.595L26.336 20.3763C26.3273 20.4775 26.1949 20.5093 26.1411 20.4231L25.7263 19.7576L24.9624 19.9348C24.8635 19.9577 24.7924 19.8416 24.8576 19.7639L25.3622 19.1637L24.9577 18.4919C24.9054 18.405 24.9938 18.3014 25.0879 18.3395L25.8146 18.634L26.3285 18.0416C26.395 17.9649 26.5209 18.017 26.5138 18.1183Z"
            fill="#FFE15A" />
        <path
            d="M17.1321 17.1359L17.5206 17.817L18.2908 17.6701C18.3905 17.651 18.4571 17.7699 18.3887 17.845L17.8609 18.4249L18.2387 19.112C18.2876 19.201 18.1952 19.301 18.1026 19.2592L17.3879 18.9365L16.8512 19.5081C16.7817 19.5822 16.658 19.5251 16.6692 19.4242L16.7553 18.6448L16.0457 18.311C15.9538 18.2678 15.9699 18.1326 16.0694 18.1119L16.8372 17.953L16.9354 17.1749C16.9482 17.0742 17.0819 17.0476 17.1321 17.1359Z"
            fill="#FFE15A" />
        <path
            d="M29.3136 19.6372L29.1066 20.3935L29.7553 20.8342C29.8392 20.8913 29.8022 21.0224 29.7009 21.0271L28.9176 21.0639L28.6989 21.817C28.6706 21.9145 28.5344 21.9198 28.4986 21.8249L28.2215 21.0914L27.4378 21.1161C27.3363 21.1193 27.2891 20.9915 27.3683 20.928L27.9804 20.4378L27.7147 19.7001C27.6803 19.6046 27.7874 19.5202 27.8721 19.5759L28.5275 20.0065L29.147 19.5258C29.2272 19.4635 29.3405 19.5392 29.3136 19.6372Z"
            fill="#FFE15A" />
        <path
            d="M11.26 19.5257L11.8796 20.0064L12.5349 19.5758C12.6197 19.5202 12.7267 19.6043 12.6924 19.6999L12.4266 20.4376L13.0387 20.9279C13.1179 20.9914 13.0709 21.1192 12.9693 21.116L12.1856 21.0913L11.9085 21.8248C11.8726 21.9197 11.7365 21.9144 11.7082 21.8168L11.4895 21.0638L10.7062 21.027C10.6049 21.0222 10.5678 20.8912 10.6518 20.8341L11.3005 20.3934L11.0934 19.6371C11.0665 19.5392 11.1798 19.4635 11.26 19.5257Z"
            fill="#FFE15A" />
        <path
            d="M23.4716 17.1749L23.5697 17.953L24.3376 18.112C24.437 18.1326 24.453 18.2678 24.3612 18.311L23.6517 18.6448L23.7378 19.4242C23.7489 19.525 23.6252 19.5822 23.5558 19.5081L23.0191 18.9365L22.3044 19.2592C22.2118 19.301 22.1193 19.2009 22.1683 19.1121L22.5461 18.4249L22.0183 17.845C21.9499 17.7699 22.0165 17.651 22.1162 17.6701L22.8864 17.817L23.2749 17.1359C23.3253 17.0476 23.4588 17.0742 23.4716 17.1749Z"
            fill="#FFE15A" />
        <path
            d="M7.35932 12.7617V14.993C7.35932 15.9158 6.60853 16.6666 5.68578 16.6666C4.76302 16.6666 4.01224 15.9158 4.01224 14.993V12.7617H7.35932ZM7.91703 11.6459H3.45443C3.14632 11.6459 2.89651 11.8957 2.89651 12.2038V14.9931C2.89651 16.5335 4.14535 17.7824 5.68578 17.7824C7.22621 17.7824 8.47504 16.5335 8.47504 14.9931V12.2038C8.47495 11.8957 8.22514 11.6459 7.91703 11.6459Z"
            fill="#FF4B55" />
        <path
            d="M7.35938 12.7617V14.993C7.35938 15.9158 6.60859 16.6665 5.68584 16.6665C4.76308 16.6665 4.0123 15.9158 4.0123 14.993V12.7617H7.35938Z"
            fill="#F5F5F5" />
        <path
            d="M3.45002 12.4828C3.60405 12.4828 3.72893 12.3579 3.72893 12.2039C3.72893 12.0499 3.60405 11.925 3.45002 11.925C3.29598 11.925 3.17111 12.0499 3.17111 12.2039C3.17111 12.3579 3.29598 12.4828 3.45002 12.4828Z"
            fill="#FFE15A" />
        <path
            d="M7.91233 12.4826C8.06637 12.4826 8.19124 12.3577 8.19124 12.2037C8.19124 12.0496 8.06637 11.9247 7.91233 11.9247C7.75829 11.9247 7.63342 12.0496 7.63342 12.2037C7.63342 12.3577 7.75829 12.4826 7.91233 12.4826Z"
            fill="#FFE15A" />
        <path
            d="M3.44962 14.714C3.60366 14.714 3.72853 14.5891 3.72853 14.4351C3.72853 14.2811 3.60366 14.1562 3.44962 14.1562C3.29559 14.1562 3.17072 14.2811 3.17072 14.4351C3.17072 14.5891 3.29559 14.714 3.44962 14.714Z"
            fill="#FFE15A" />
        <path
            d="M7.91233 14.714C8.06637 14.714 8.19124 14.5891 8.19124 14.4351C8.19124 14.2811 8.06637 14.1562 7.91233 14.1562C7.75829 14.1562 7.63342 14.2811 7.63342 14.4351C7.63342 14.5891 7.75829 14.714 7.91233 14.714Z"
            fill="#FFE15A" />
        <path
            d="M5.68084 12.4826C5.83487 12.4826 5.95975 12.3577 5.95975 12.2037C5.95975 12.0496 5.83487 11.9247 5.68084 11.9247C5.5268 11.9247 5.40193 12.0496 5.40193 12.2037C5.40193 12.3577 5.5268 12.4826 5.68084 12.4826Z"
            fill="#FFE15A" />
        <path
            d="M7.35488 16.7706C7.50892 16.7706 7.63379 16.6458 7.63379 16.4917C7.63379 16.3377 7.50892 16.2128 7.35488 16.2128C7.20084 16.2128 7.07597 16.3377 7.07597 16.4917C7.07597 16.6458 7.20084 16.7706 7.35488 16.7706Z"
            fill="#FFE15A" />
        <path
            d="M4.03957 16.7706C4.19361 16.7706 4.31848 16.6458 4.31848 16.4917C4.31848 16.3377 4.19361 16.2128 4.03957 16.2128C3.88554 16.2128 3.76067 16.3377 3.76067 16.4917C3.76067 16.6458 3.88554 16.7706 4.03957 16.7706Z"
            fill="#FFE15A" />
        <path
            d="M6.04538 14.2938V14.7741C6.04538 14.9728 5.88376 15.1344 5.68513 15.1344C5.4865 15.1344 5.32487 14.9728 5.32487 14.7741V14.2938H6.04538Z"
            fill="#41479B" />
        <path
            d="M6.04538 13.1549V13.6353C6.04538 13.8339 5.88376 13.9955 5.68513 13.9955C5.4865 13.9955 5.32487 13.8339 5.32487 13.6353V13.1549H6.04538Z"
            fill="#41479B" />
        <path
            d="M6.04538 15.4444V15.9248C6.04538 16.1234 5.88376 16.285 5.68513 16.285C5.4865 16.285 5.32487 16.1234 5.32487 15.9248V15.4444H6.04538Z"
            fill="#41479B" />
        <path
            d="M7.01596 14.2938V14.7741C7.01596 14.9728 6.85434 15.1344 6.65571 15.1344C6.45708 15.1344 6.29546 14.9728 6.29546 14.7741V14.2938H7.01596Z"
            fill="#41479B" />
        <path
            d="M5.07515 14.2938V14.7741C5.07515 14.9728 4.91353 15.1344 4.7149 15.1344C4.51627 15.1344 4.35464 14.9728 4.35464 14.7741V14.2938H5.07515Z"
            fill="#41479B" />
    </g>
    <defs>
        <clipPath id="clip0_9_4806">
            <rect width="50" height="50" fill="white" transform="translate(0.310547 0.438965)" />
        </clipPath>
    </defs>
</svg>
