<svg width="50" height="51" viewBox="0 0 50 51" fill="none" xmlns="http://www.w3.org/2000/svg">
    <g clip-path="url(#clip0_9_4800)">
        <path
            d="M49.9999 20.2726H0V10.2151C0 9.739 0.386034 9.35297 0.862108 9.35297H49.1379C49.614 9.35297 50 9.739 50 10.2151L49.9999 20.2726Z"
            fill="#82AFFF" />
        <path
            d="M49.1378 42.1116H0.862108C0.386034 42.1116 0 41.7256 0 41.2495V31.1921H49.9999V41.2495C49.9999 41.7257 49.6139 42.1116 49.1378 42.1116Z"
            fill="#82AFFF" />
        <path d="M49.9999 20.2723H0V31.1913H49.9999V20.2723Z" fill="#FFE15A" />
        <path
            d="M0.317968 41.9032L20.1266 26.1791C20.4143 25.9508 20.4143 25.5139 20.1266 25.2855L0.317968 9.56146C0.128027 9.71957 0 9.94867 0 10.2151V41.2495C0 41.516 0.128027 41.7451 0.317968 41.9032Z"
            fill="#464655" />
    </g>
    <defs>
        <clipPath id="clip0_9_4800">
            <rect width="50" height="50" fill="white" transform="translate(0 0.732178)" />
        </clipPath>
    </defs>
</svg>
