<svg width="51" height="51" viewBox="0 0 51 51" fill="none" xmlns="http://www.w3.org/2000/svg">
    <g clip-path="url(#clip0_9_4797)">
        <path
            d="M21.1166 42.1116H1.28899C0.812916 42.1116 0.42688 41.7256 0.42688 41.2495V10.2151C0.42688 9.739 0.812916 9.35297 1.28899 9.35297H21.1166V42.1116Z"
            fill="#F5F5F5" />
        <path
            d="M14.22 9.35306L21.1166 11.4004L14.22 13.4478L21.1166 15.4952L14.22 17.5425L21.1166 19.5899L14.22 21.6373L21.1166 23.6846L14.22 25.732L21.1166 27.7794L14.22 29.8267L21.1166 31.8741L14.22 33.9215L21.1166 35.9688L14.22 38.0162L21.1166 40.0636L14.22 42.1109H49.5648C50.0409 42.1109 50.4269 41.7249 50.4269 41.2488V10.2151C50.4269 9.739 50.0409 9.35297 49.5648 9.35297H14.22V9.35306Z"
            fill="#FF4B55" />
    </g>
    <defs>
        <clipPath id="clip0_9_4797">
            <rect width="50" height="50" fill="white" transform="translate(0.427734 0.732178)" />
        </clipPath>
    </defs>
</svg>
