<svg width="50" height="50" viewBox="0 0 50 50" fill="none" xmlns="http://www.w3.org/2000/svg">
<path d="M0 12.5H50V9.56484C50 9.06179 49.614 8.65387 49.1379 8.65387H0.862109C0.386035 8.65387 0 9.06179 0 9.56484V12.5Z" fill="#FFE15A"/>
<path d="M50 12.5H0V16.3462H50V12.5Z" fill="#FF4B55"/>
<path d="M50 16.3461H0V20.1923H50V16.3461Z" fill="#FFE15A"/>
<path d="M50 19.2308H0V23.0769H50V19.2308Z" fill="#FF4B55"/>
<path d="M50 23.0769H0V26.9231H50V23.0769Z" fill="#FFE15A"/>
<path d="M0.862108 41.3462H49.1379C49.614 41.3462 50 40.9382 50 40.4352V37.5H0V40.4352C0 40.9384 0.386034 41.3462 0.862108 41.3462Z" fill="#FFE15A"/>
<path d="M50 26.9231H0V30.7693H50V26.9231Z" fill="#FF4B55"/>
<path d="M50 30.7692H0V34.6154H50V30.7692Z" fill="#FFE15A"/>
<path d="M50 33.6539H0V37.5H50V33.6539Z" fill="#FF4B55"/>
<path d="M24.1379 25H0.862109C0.386035 25 0 24.6148 0 24.1397V9.51423C0 9.03912 0.386035 8.65387 0.862109 8.65387H24.1379C24.614 8.65387 25 9.03912 25 9.51423V24.1398C24.9999 24.615 24.6141 25 24.1379 25Z" fill="#64466E"/>
<path d="M22.799 15.7452H20.8505V13.5816H21.1289V13.0408H20.8505H18.6237H18.3454V13.5816H18.6237V15.7452H17.5104V13.5816H17.7886V13.0408H17.5103H15.2835H15.0051V13.5816H15.2835V15.7452H13.6135V13.0408H13.8918V12.5H11.1084V13.0408H11.3868V15.7452H9.71668V13.5816H9.99504V13.0408H9.71668H7.48997H7.21161V13.5816H7.48997V15.7452H6.37661V13.5816H6.65498V13.0408H6.37661H4.1499H3.87154V13.5816H4.1499V15.7452H2.20146H1.9231V16.286H2.20146V21.1538H4.1499H6.09835V19.5313C6.09835 19.2325 6.34757 18.9905 6.65498 18.9905C6.96248 18.9905 7.21161 19.2327 7.21161 19.5313V21.1538H7.48997H9.71677H9.99514V19.5313C9.99514 19.2325 10.2444 18.9905 10.5518 18.9905C10.8593 18.9905 11.1084 19.2327 11.1084 19.5313V21.1538H11.3868H11.6651V19.2607C11.6651 18.8127 12.0391 18.4494 12.5002 18.4494C12.9614 18.4494 13.3353 18.8127 13.3353 19.2607V21.1538H13.6137H13.892V19.5313C13.892 19.2325 14.1412 18.9905 14.4487 18.9905C14.7561 18.9905 15.0053 19.2327 15.0053 19.5313V21.1538H15.2836H17.5105H17.7884V19.5313C17.7884 19.2325 18.0377 18.9905 18.3451 18.9905C18.6526 18.9905 18.9017 19.2327 18.9017 19.5313V21.1538H20.8501H22.7986V16.286H23.0769V15.7452H22.799ZM5.81989 17.9087H4.70653V16.2861C4.70653 15.9873 4.95575 15.7453 5.26316 15.7453C5.57057 15.7453 5.81979 15.9875 5.81979 16.2861C5.81989 16.2861 5.81989 17.9087 5.81989 17.9087ZM9.16005 17.9087H8.04669V16.2861C8.04669 15.9873 8.29592 15.7453 8.60332 15.7453C8.91083 15.7453 9.15995 15.9875 9.15995 16.2861L9.16005 17.9087ZM13.0568 16.2861H11.9435V15.2044C11.9435 14.9056 12.1927 14.6636 12.5001 14.6636C12.8075 14.6636 13.0567 14.9058 13.0567 15.2044L13.0568 16.2861ZM16.9536 17.9087H15.8403V16.2861C15.8403 15.9873 16.0895 15.7453 16.3969 15.7453C16.7044 15.7453 16.9535 15.9875 16.9535 16.2861L16.9536 17.9087ZM20.2938 17.9087H19.1804V16.2861C19.1804 15.9873 19.4297 15.7453 19.7371 15.7453C20.0445 15.7453 20.2937 15.9875 20.2937 16.2861L20.2938 17.9087Z" fill="#F5F5F5"/>
</svg>
