<svg width="51" height="51" viewBox="0 0 51 51" fill="none" xmlns="http://www.w3.org/2000/svg">
    <g clip-path="url(#clip0_9_4781)">
        <path
            d="M49.2856 42.1115H1.00987C0.533801 42.1115 0.147766 41.7255 0.147766 41.2494V10.2151C0.147766 9.739 0.533801 9.35297 1.00987 9.35297H49.2857C49.7617 9.35297 50.1478 9.739 50.1478 10.2151V41.2494C50.1477 41.7256 49.7616 42.1115 49.2856 42.1115Z"
            fill="#73AF00" />
        <path
            d="M21.6996 36.9392C27.889 36.9392 32.9066 31.9217 32.9066 25.7322C32.9066 19.5428 27.889 14.5252 21.6996 14.5252C15.5101 14.5252 10.4926 19.5428 10.4926 25.7322C10.4926 31.9217 15.5101 36.9392 21.6996 36.9392Z"
            fill="#FF4B55" />
    </g>
    <defs>
        <clipPath id="clip0_9_4781">
            <rect width="50" height="50" fill="white" transform="translate(0.148438 0.732178)" />
        </clipPath>
    </defs>
</svg>
