<svg width="50" height="50" viewBox="0 0 50 50" fill="none" xmlns="http://www.w3.org/2000/svg">
    <path
        d="M49.1378 41.3462H0.862108C0.386034 41.3462 0 40.9609 0 40.4858V9.51423C0 9.03912 0.386034 8.65387 0.862108 8.65387H49.1379C49.614 8.65387 50 9.03912 50 9.51423V40.4858C49.9999 40.961 49.6139 41.3462 49.1378 41.3462Z"
        fill="#FF4B55" />
    <path
        d="M50 9.51423C50 9.03912 49.614 8.65387 49.1379 8.65387H46.0678L24.9999 22.4289L3.93223 8.65387H0.862109C0.386035 8.65387 0 9.03912 0 9.51423V11.225L21.0678 25L0 38.775V40.4858C0 40.9609 0.386035 41.3462 0.862109 41.3462H3.93223L25 27.5711L46.0678 41.3462H49.1379C49.614 41.3462 50 40.9609 50 40.4858V38.775L28.9321 25L49.9999 11.2249L50 9.51423Z"
        fill="#73AF00" />
    <path
        d="M50 22.8492H27.1551V8.65387H22.8448V22.8492H0V27.1508H22.8448V41.3462H27.1551V27.1508H50V22.8492Z"
        fill="#F5F5F5" />
</svg>
