<svg width="50" height="50" viewBox="0 0 50 50" fill="none" xmlns="http://www.w3.org/2000/svg">
<path d="M49.1379 41.3462H0.862109C0.386035 41.3462 0 40.9586 0 40.4807V32.6923H50V40.4807C50 40.9587 49.614 41.3462 49.1379 41.3462Z" fill="#73AF00"/>
<path d="M49.1379 8.65387H0.862109C0.386035 8.65387 0 9.03831 0 9.51243V32.6923H50V9.51243C50 9.03831 49.614 8.65387 49.1379 8.65387Z" fill="#FF4B55"/>
<path d="M6.73077 41.3462H0.841382C0.376754 41.3462 0 40.9609 0 40.4858V9.51423C0 9.03912 0.376754 8.65387 0.841382 8.65387H6.73077V41.3462Z" fill="#F5F5F5"/>
<path d="M0.961548 39.8197H1.24496V38.9725H0.961548V39.8197ZM3.22355 39.8197H3.50705V38.9725H3.22355V39.8197ZM5.48701 39.8197H5.76915V38.9725H5.48701V39.8197ZM2.094 37.5483H2.3746V36.8423H2.094V37.5483ZM4.35737 37.5483H4.63951V36.8423H4.35737V37.5483ZM0.961548 35.7066H1.24496V34.8594H0.961548V35.7066ZM3.22355 35.7066H3.50705V34.8594H3.22355V35.7066ZM5.48701 35.7066H5.76915V34.8594H5.48701V35.7066ZM1.52991 36.8423H1.8105V36.13H2.094V35.4239H2.3746V36.13H2.65955V36.8423H2.94014V37.5483H2.65955V38.2603H2.3746V38.9723H2.094V38.2603H1.8105V37.5483H1.52991V36.8423ZM3.79201 36.8423H4.07541V36.13H4.35746V35.4239H4.6396V36.13H4.92165V36.8423H5.20506V37.5483H4.92165V38.2603H4.6396V38.9723H4.35746V38.2603H4.07541V37.5483H3.79201V36.8423ZM4.35737 34.006V34.712H4.0726V35.424H3.79201V36.13H3.50705V36.8424H3.22355V36.13H2.94005V35.424H2.65946V34.712H2.37451V34.006H2.09391V34.712H1.81041V35.424H1.52982V36.13H1.24487V36.8424H0.961548V37.5484H1.24496V38.2604H1.52991V38.9724H1.8105V39.6785H2.094V40.3846H2.3775V39.6785H2.65955V38.9724H2.94014V38.2604H3.22364V37.5484H3.50714V38.2604H3.7921V38.9724H4.07551V39.6785H4.35755V40.3846H4.63969V39.6785H4.92174V38.9724H5.20515V38.2604H5.48865V37.5484H5.76924V36.8424H5.4871V36.13H5.20515V35.424H4.92174V34.712H4.63969V34.006H4.35737ZM5.05818 33.3001H5.19925V33.0178H5.34168V33.3001H5.48411V33.5824H5.34168V33.8709H5.19925V33.5824H5.05818V33.3001ZM5.05818 32.3116V32.7292H4.91865V33.1589H4.77622V33.7237H4.91865V34.1472H5.05818V34.5707H5.4842V34.1472H5.62527V33.7237H5.76479V33.1589H5.62527V32.7292H5.4842V32.3116H5.05818ZM1.24496 33.2939H1.38739V33.0116H1.52982V33.2939H1.66789V33.5824H1.52982V33.8647H1.38739V33.5824H1.24496V33.2939ZM1.24496 32.3054V32.7291H1.10389V33.1526H0.961548V33.7235H1.10389V34.147H1.24496V34.5705H1.66798V34.147H1.81041V33.7235H1.94867V33.1526H1.81041V32.7291H1.66798V32.3054H1.24496ZM2.80044 33.2939H2.93996V33.0116H3.08394V33.2939H3.22346V33.5824H3.08394V33.8647H2.93996V33.5824H2.80044V33.2939ZM3.50705 33.2939H3.64948V33.0116H3.79191V33.2939H3.93144V33.5824H3.79191V33.8647H3.64948V33.5824H3.50705V33.2939ZM3.50705 32.3054V32.7291H3.22355V32.3054H2.80053V32.7291H2.65946V33.1526H2.51703V33.7235H2.65946V34.147H2.80053V34.5705H3.22355V34.147H3.50705V34.5705H3.93153V34.147H4.07541V33.7235H4.21367V33.1526H4.07541V32.7291H3.93153V32.3054H3.50705ZM0.961548 32.0169H1.24496V31.1698H0.961548V32.0169ZM3.22355 32.0169H3.50705V31.1698H3.22355V32.0169ZM5.48701 32.0169H5.76915V31.1698H5.48701V32.0169ZM0.961548 28.4746H1.24496V27.9099H0.961548V28.4746ZM5.48701 28.4746H5.76915V27.9099H5.48701V28.4746ZM3.22355 26.4917H3.50705V25.7856H3.22355V26.4917ZM0.961548 24.5764V24.9999V25.006V25.4295H1.24496V25.006V24.9999V24.5764H0.961548ZM2.51694 24.5764V24.9999V25.006V25.4295H2.80044V25.006V24.9999V24.5764H2.51694ZM3.93153 24.5764V24.9999V25.006V25.4295H4.21358V25.006V24.9999V24.5764H3.93153ZM5.48701 24.5764V24.9999V25.006V25.4295H5.76915V25.006V24.9999V24.5764H5.48701ZM3.64948 24.0792V24.3616H3.50705V24.5764H3.22355V24.3616H3.08403V24.0792H2.80053V24.5027H2.94005V24.7176H3.08403V24.9999V25.006V25.2823H2.94005V25.4972H2.80053V25.9207H3.08403V25.6385H3.22355V25.4296H3.50705V25.6385H3.64948V25.9207H3.93153V25.4972H3.79201V25.2823H3.64957V25.006V24.9999V24.7176H3.79201V24.5027H3.93153V24.0792H3.64948ZM3.22355 24.2202H3.50705V23.5142H3.22355V24.2202ZM0.961548 22.096H1.24496V21.5314H0.961548V22.096ZM5.48701 22.096H5.76915V21.5314H5.48701V22.096ZM0.961548 18.8363H1.24496V17.9831H0.961548V18.8363ZM3.22355 18.8363H3.50705V17.9831H3.22355V18.8363ZM5.48701 18.8363H5.76915V17.9831H5.48701V18.8363ZM2.094 25.0122V24.9938V24.7175H2.3746V24.2263H2.65955V23.6554H3.08403V22.9863H3.22355V22.6609H3.36607H3.50705V22.9801H3.64948V23.6555H4.07532V23.9378V24.2263H4.35737V24.7175H4.63951V24.9999V25.2823H4.35737V25.7856H4.07532V26.068V26.3503H3.64948V27.0195H3.50705V27.3387H3.36607H3.22355V27.0195H3.08403V26.3503H2.65955V25.7854H2.3746V25.2821H2.094V25.0122ZM4.35737 17.1297V17.8417H4.0726V18.5477H3.79201V19.26H3.50705V19.8247V19.966H3.22355V19.26H2.94005V18.5476H2.65946V17.8416H2.37451V17.1296H2.09391V17.8416H1.81041V18.5476H1.52691V19.26H1.24487V19.8246V19.9659H0.961548V20.6779H1.24496V21.3899H1.527V22.096H1.8105V22.8021H2.094V22.096H2.3746V21.3899H2.65955V20.6779H2.3746V19.8245H2.65955V19.9658V20.3955H2.94014V21.5313H3.08412V22.2311L2.65964 22.2372V22.8021H2.37469V23.2256H2.09409V23.9376H1.81059V23.2256H1.52709V22.8021H1.24505V22.3784H0.961548V23.6553H1.24496V24.2262H1.527V24.7174H1.8105V24.9999V25.006V25.2823H1.527V25.7857H1.24496V26.3506H0.961548V27.6275H1.24496V27.1977H1.527V26.7742H1.8105V26.0682H2.094V26.7742H2.3746V27.1977H2.65955V27.7686L3.08403 27.7747V28.4746H2.94005V29.6104H2.65946V30.0339V30.1813H2.37451V29.3218H2.65946V28.6158H2.37451V27.9098H2.09391V27.1975H1.81041V27.9098H1.52691V28.6158H1.24487V29.3218H0.961548V30.0339H1.24496V30.1813V30.7399H1.52991V31.4522H1.8105V32.1642H2.094V32.8703H2.3746V32.1642H2.65955V31.4522H2.94014V30.7399H3.22364V30.0339H3.50714V30.1813V30.7399H3.7921V31.4522H4.07551V32.1642H4.35755V32.8703H4.63969V32.1642H4.92174V31.4522H5.20515V30.7399H5.4871V30.0339H5.76915V29.3218H5.48701V28.6158H5.20506V27.9098H4.92165V27.1975H4.6396V27.9098H4.35746V28.6158H4.07269V29.3218H4.35746V30.0339V30.1813H4.07269V30.0339V29.6104H3.7921V28.4746H3.7517H3.64967V27.7685H3.7517H3.82804H3.93162H4.07551V27.1976H4.35755V26.7741H4.63969V26.0681H4.92174V26.7741H5.20515V27.1976H5.48865V27.6274H5.76924V26.3505H5.48855V25.7856H5.20506V25.2823H4.92165V25.006V24.9999V24.7176H5.20506V24.2264H5.48855V23.6555H5.76924V22.3786H5.48855V22.8023H5.20506V23.2258H4.92165V23.9378H4.6396V23.2258H4.35746V22.8023H4.07541V22.2374H3.93153H3.82795H3.75161H3.64957V21.5314H3.75161H3.79201V20.3956H4.0726V19.9659V19.8246H4.35737V19.9659V20.6779H4.0726V21.3899H4.35737V22.096H4.63951V22.8021H4.92156V22.096H5.20496V21.3899H5.48692V20.6779H5.76924V19.9659H5.4871V19.2599H5.20515V18.5475H4.92174V17.8415H4.63969V17.1295H4.35737V17.1297ZM1.24496 16.4237H1.38466V16.1413H1.52991V16.4237H1.66798V16.706H1.52991V16.9945H1.38466V16.706H1.24496V16.4237ZM1.24496 15.8527H1.10389V16.2824H0.961548V16.8473H1.10389V17.2769H1.24496V17.7006H1.66798V17.2769H1.81041V16.8473H1.94867V16.2824H1.81041V15.8527H1.66798V15.4353H1.24496V15.8527ZM2.80044 16.4237H2.93996V16.1413H3.08394V16.4237H3.22346V16.706H3.08394V16.9945H2.93996V16.706H2.80044V16.4237ZM3.50705 16.4237H3.64948V16.1413H3.79191V16.4237H3.93144V16.706H3.79191V16.9945H3.64948V16.706H3.50705V16.4237ZM2.80044 15.8527H2.65937V16.2824H2.51694V16.8473H2.65937V17.2769H2.80044V17.7006H3.22346V17.2769H3.50696V17.7006H3.93144V17.2769H4.07532V16.8473H4.21358V16.2824H4.07532V15.8527H3.93144V15.4353H3.50696V15.8527H3.22346V15.4353H2.80044V15.8527ZM5.05818 16.4176H5.19925V16.1412H5.34168V16.4176H5.48411V16.7061H5.34168V16.9883H5.19925V16.7061H5.05818V16.4176ZM5.05818 15.4292V15.8527H4.91865V16.2824H4.77622V16.8473H4.91865V17.2708H5.05818V17.6944H5.4842V17.2708H5.62527V16.8473H5.76479V16.2824H5.62527V15.8527H5.4842V15.4292H5.05818ZM0.961548 15.1468H1.24496V14.2996H0.961548V15.1468ZM3.22355 15.1468H3.50705V14.2996H3.22355V15.1468ZM5.48701 15.1468H5.76915V14.2996H5.48701V15.1468ZM2.094 13.1639H2.3746V12.4516H2.094V13.1639ZM4.35737 13.1639H4.63951V12.4516H4.35737V13.1639ZM0.961548 11.0336H1.24496V10.1864H0.961548V11.0336ZM3.22355 11.0336H3.50705V10.1864H3.22355V11.0336ZM5.48701 11.0336H5.76915V10.1864H5.48701V11.0336ZM1.52991 12.4516H1.8105V11.7456H2.094V11.0336H2.3746V11.7456H2.65955V12.4516H2.94014V13.164H2.65955V13.87H2.3746V14.582H2.094V13.87H1.8105V13.164H1.52991V12.4516ZM3.79201 12.4516H4.07541V11.7456H4.35746V11.0336H4.6396V11.7456H4.92165V12.4516H5.20506V13.164H4.92165V13.87H4.6396V14.582H4.35746V13.87H4.07541V13.164H3.79201V12.4516ZM4.35737 9.61536V10.3277H4.07532V11.0337H3.79191V11.7457H3.50696V12.4517H3.22346V11.7457H2.93996V11.0337H2.65937V10.3277H2.37741V9.61536H2.09391V10.3277H1.81041V11.0337H1.52982V11.7457H1.24487V12.4517H0.961548V13.1641H1.24496V13.8701H1.52991V14.5821H1.8105V15.2941H2.094V16.0002H2.3746V15.2941H2.65955V14.5821H2.94014V13.8701H3.22364V13.1641H3.50714V13.8701H3.7921V14.5821H4.07269V15.2941H4.35746V16.0002H4.6396V15.2941H4.92165V14.5821H5.20506V13.8701H5.48701V13.1641H5.76915V12.4517H5.48846V11.7457H5.20496V11.0337H4.92156V10.3277H4.63951V9.61536H4.35737Z" fill="#FF4B55"/>
</svg>
