<svg width="50" height="50" viewBox="0 0 50 50" fill="none" xmlns="http://www.w3.org/2000/svg">
<path d="M49.9999 12.5H0V9.61546C0 9.08445 0.386034 8.65387 0.862108 8.65387H49.1379C49.614 8.65387 50 9.08445 50 9.61546L49.9999 12.5Z" fill="#FF4B55"/>
<path d="M0 37.5H50V40.3846C50 40.9156 49.614 41.3462 49.1379 41.3462H0.862109C0.386035 41.3462 0 40.9156 0 40.3846V37.5Z" fill="#FF4B55"/>
<path d="M50 12.5H0V38.4615H50V12.5Z" fill="#41479B"/>
<path d="M24.5192 35.5769C30.6262 35.5769 35.5769 30.6262 35.5769 24.5192C35.5769 18.4122 30.6262 13.4615 24.5192 13.4615C18.4122 13.4615 13.4615 18.4122 13.4615 24.5192C13.4615 30.6262 18.4122 35.5769 24.5192 35.5769Z" fill="#F5F5F5"/>
<path d="M23.0769 30.4896L21.527 30.7645C21.3317 30.7991 21.1538 30.6389 21.1538 30.4281V29.8077H23.0768L23.0769 30.4896Z" fill="#82AFFF"/>
<path d="M26.9231 30.4896L28.4729 30.7645C28.6683 30.7991 28.8461 30.6389 28.8461 30.4281V29.8077H26.9232V30.4896H26.9231Z" fill="#82AFFF"/>
<path d="M25 19.2308H24.8279C24.6213 19.2308 24.4355 19.1251 24.343 18.9557L24.0385 18.3962L24.3147 18.2692L24.6192 18.8286C24.659 18.9018 24.7391 18.9472 24.8279 18.9472H25V19.2308Z" fill="#965032"/>
<path d="M22.5454 19.1293L22.1154 18.2692L21.8755 18.3892L22.3056 19.2492L22.5454 19.1293Z" fill="#965032"/>
<path d="M25.9614 23.0769L25.1948 22.3685C25.0283 22.2146 24.9326 22.0016 24.9326 21.7837V21.5452C24.9326 21.4578 24.9102 21.37 24.8679 21.2917L24.6768 20.9385C24.6369 20.8649 24.5568 20.8189 24.4676 20.8189H23.8078C23.6116 20.8189 23.4353 20.7183 23.3476 20.5562L23.0769 20.0558L23.3279 19.9396L23.5986 20.44C23.6384 20.5136 23.7186 20.5596 23.8078 20.5596H24.4676C24.6638 20.5596 24.8401 20.6603 24.9277 20.8223L25.1188 21.1755C25.1806 21.29 25.2133 21.4176 25.2133 21.5452V21.7837C25.2133 21.9332 25.2789 22.0795 25.3933 22.1848L25.681 22.4508V21.2428C25.681 20.9153 25.559 20.5942 25.3376 20.3382C25.0766 20.0363 24.9328 19.6579 24.9328 19.2717V18.2692H25.2133V19.2717C25.2133 19.5992 25.3354 19.9203 25.5568 20.1762C25.8179 20.4781 25.9615 20.8565 25.9615 21.2428V23.0769H25.9614Z" fill="#965032"/>
<path d="M25 23.0769H24.6362C24.4118 23.0769 24.2087 22.8786 24.1306 22.5839L24.0385 22.2354L24.2682 22.1154L24.3603 22.4638C24.403 22.6251 24.5137 22.7329 24.6362 22.7329H25V23.0769Z" fill="#965032"/>
<path d="M26.207 18.3775L25.9615 18.2692L24.4097 21.7884L24.6551 21.8966L26.207 18.3775Z" fill="#965032"/>
<path d="M25.9615 21.1539H25V20.8243H25.7627V19.2308H25.9615V21.1539Z" fill="#965032"/>
<path d="M23.5576 22.1153H22.5962C22.3306 22.1153 22.1154 21.9002 22.1154 21.6346C22.1154 21.3691 22.3306 21.1538 22.5962 21.1538H23.5577C23.8232 21.1538 24.0385 21.369 24.0385 21.6346C24.0384 21.9002 23.8231 22.1153 23.5576 22.1153Z" fill="#73AF00"/>
<path d="M26.4423 22.1153H25.4808C25.2153 22.1153 25 21.9002 25 21.6346C25 21.3691 25.2152 21.1538 25.4808 21.1538H26.4423C26.7078 21.1538 26.9231 21.369 26.9231 21.6346C26.9231 21.9002 26.7077 22.1153 26.4423 22.1153Z" fill="#73AF00"/>
<path d="M28.228 21.1538H26.5797C26.2383 21.1538 25.9615 20.9386 25.9615 20.673C25.9615 20.4075 26.2382 20.1923 26.5797 20.1923H28.228C28.5694 20.1923 28.8462 20.4074 28.8462 20.673C28.8461 20.9385 28.5694 21.1538 28.228 21.1538Z" fill="#73AF00"/>
<path d="M28.2692 20.1923H25.5769C25.2583 20.1923 25 19.9771 25 19.7115C25 19.446 25.2582 19.2308 25.5769 19.2308H28.2692C28.5878 19.2308 28.8462 19.4459 28.8462 19.7115C28.8462 19.977 28.5878 20.1923 28.2692 20.1923Z" fill="#73AF00"/>
<path d="M26.3461 18.2692H25.5769C25.2583 18.2692 25 18.054 25 17.7884C25 17.5229 25.2582 17.3077 25.5769 17.3077H26.3461C26.6648 17.3077 26.9231 17.5229 26.9231 17.7884C26.9231 18.054 26.6646 18.2692 26.3461 18.2692Z" fill="#73AF00"/>
<path d="M21.7548 19.2308H21.5144C21.3153 19.2308 21.1538 19.0156 21.1538 18.75C21.1538 18.4845 21.3152 18.2692 21.5144 18.2692H21.7548C21.9539 18.2692 22.1154 18.4844 22.1154 18.75C22.1153 19.0156 21.9539 19.2308 21.7548 19.2308Z" fill="#73AF00"/>
<path d="M24.5192 18.2692H23.5577C23.2922 18.2692 23.0769 18.054 23.0769 17.7884C23.0769 17.5229 23.2921 17.3077 23.5577 17.3077H24.5192C24.7848 17.3077 25 17.5229 25 17.7884C24.9998 18.054 24.7847 18.2692 24.5192 18.2692Z" fill="#73AF00"/>
<path d="M23.5577 20.1923H21.6346C21.3691 20.1923 21.1538 19.9771 21.1538 19.7115C21.1538 19.446 21.369 19.2308 21.6346 19.2308H23.5577C23.8232 19.2308 24.0385 19.4459 24.0385 19.7115C24.0385 19.9771 23.8232 20.1923 23.5577 20.1923Z" fill="#73AF00"/>
<path d="M30.9955 27.8846H19.9661C19.56 27.8846 19.2308 28.1716 19.2308 28.5256C19.2308 28.8797 19.56 29.1666 19.9661 29.1666H22.9073C22.9073 29.5207 23.2364 29.8077 23.6425 29.8077H27.319C27.7251 29.8077 28.0543 29.5207 28.0543 29.1666H30.9955C31.4016 29.1666 31.7308 28.8797 31.7308 28.5256C31.7308 28.1717 31.4016 27.8846 30.9955 27.8846Z" fill="#73AF00"/>
<path d="M31.7112 22.4317C31.6862 22.3715 31.556 22.443 31.4746 22.4067C30.4654 21.9562 29.1104 21.1354 28.2247 20.5759L28.0469 20.2378L26.3681 19.258C26.2612 19.1957 26.1325 19.2437 26.0738 19.3676L25.9911 19.5423C25.9279 19.6757 25.9696 19.8453 26.0828 19.9161L27.6813 20.9149L28.133 20.8747L29.8887 21.9588C29.8887 21.9588 31.0816 22.6916 31.145 22.7454C31.2085 22.7992 31.2449 23.1006 31.3631 23.0754C31.448 23.0574 31.8193 22.6924 31.7112 22.4317Z" fill="#BE7855"/>
<path d="M20.1206 28.9199C20.1206 28.9199 20.2753 29.6687 20.1303 29.7531C19.9852 29.8374 19.2117 29.8374 19.2311 29.6582C19.2504 29.4789 19.3569 28.8462 19.3569 28.8462L20.1206 28.9199Z" fill="#FFBE3C"/>
<path d="M21.1848 27.8846C21.1848 27.8846 21.0611 28.2794 21.3084 28.2943C21.5556 28.3092 22.9533 28.3017 22.9914 28.272C23.0295 28.2424 23.0769 28.1677 23.0769 28.1677L21.7837 27.8846H21.1848Z" fill="#FFBE3C"/>
<path d="M19.9204 23.0769C19.9204 23.0769 19.6188 23.7574 19.5091 26.1153C19.4799 26.7426 19.5598 26.5956 19.2308 28.6132L19.6211 28.8066C19.7348 28.8629 19.8713 28.8589 19.981 28.7957L20.3609 28.5772C20.3609 28.5772 20.1754 26.3195 20.7827 25.0225C20.7827 25.0225 21.1032 25.583 21.1032 25.9992C21.1032 26.4155 21.0864 28.417 21.0864 28.417C21.0864 28.417 21.7949 28.5291 22.1154 28.4971C22.1154 28.4971 21.9129 24.1538 21.7106 23.131L19.9204 23.0769Z" fill="#EAF3F5"/>
<path d="M20.2709 23.0769C20.2709 23.0769 20.1455 23.1551 20.2115 23.345C20.2115 23.345 21.1746 23.6969 22.0783 23.3953C22.0783 23.3953 22.1772 23.2723 22.052 23.1215L20.2709 23.0769Z" fill="#965032"/>
<path d="M19.3978 20.9035C18.9329 21.0784 18.2265 21.5151 18.2713 21.8625C18.3161 22.2099 18.5592 22.1252 18.6351 22.0398C18.711 21.9545 18.9288 21.6808 18.9969 21.6322C19.0649 21.5836 20.1645 21.0122 20.1645 21.0122L23.076 19.497C23.076 19.497 23.0983 19.3498 22.9249 19.2308C22.9248 19.2308 21.1436 20.2465 19.3978 20.9035Z" fill="#965032"/>
<path d="M20.0868 19.3858L20.0696 19.502C20.0696 19.502 20.0237 20.2466 20.2875 20.4472C20.2875 20.4472 20.3448 20.6003 20.2531 20.6743C20.1614 20.7483 19.2555 21.1706 19.2555 21.1706C19.2555 21.1706 19.0204 21.6195 19.0261 21.8728C19.0261 21.8728 18.8025 21.7936 18.8255 21.6933C18.8483 21.593 18.9803 21.329 18.9401 21.2023C18.8999 21.0755 18.7509 21.1125 18.7509 21.1125C18.7509 21.1125 18.6763 21.1865 18.7968 21.2339L18.7566 21.3923L18.2692 21.6563L18.3782 21.7777C18.3782 21.7777 18.3839 22.707 18.9801 22.8283C18.9801 22.8283 19.2954 22.8494 19.6682 22.1947C19.6682 22.1947 19.8688 22.522 19.8 22.8072C19.8 22.8072 20.4535 23.1345 21.3479 22.8495L21.3595 22.2792C21.3595 22.2792 21.4971 23.1557 21.9671 23.0712C21.9671 23.0712 23.2694 22.6095 23.0526 22.434C22.548 22.0257 21.9388 22.3708 21.9388 22.3708C21.9092 21.7777 21.8554 21.0104 21.7721 20.9275C21.6345 20.7902 21.2102 20.8641 21.1261 20.6881C21.042 20.5121 21.065 20.2024 21.1567 19.8433C21.2484 19.4842 20.7822 19.2308 20.7822 19.2308L20.0868 19.3858Z" fill="#FFBE3C"/>
<path d="M20.2129 19.8195C20.2129 19.8195 20.5904 19.9386 20.8861 19.7926L21.0156 20.1923H21.0895C21.0895 20.1923 21.2677 19.4525 21.0311 19.4612C21.0311 19.4612 21.0302 19.221 20.6169 19.2311C20.262 19.2398 20.139 19.5274 20.2129 19.8195Z" fill="#464655"/>
<path d="M29.8794 28.9199C29.8794 28.9199 29.7247 29.6687 29.8697 29.7531C30.0147 29.8374 30.7883 29.8374 30.7689 29.6582C30.7495 29.479 30.6431 28.8462 30.6431 28.8462L29.8794 28.9199Z" fill="#965032"/>
<path d="M28.8152 27.8846C28.8152 27.8846 28.9389 28.2794 28.6916 28.2943C28.4444 28.3092 27.0467 28.3017 27.0086 28.272C26.9704 28.2423 26.9231 28.1677 26.9231 28.1677L28.2163 27.8846H28.8152Z" fill="#965032"/>
<path d="M30.0796 23.0769C30.0796 23.0769 30.3812 23.7574 30.4909 26.1153C30.5201 26.7426 30.4403 26.5956 30.7692 28.6132L30.3789 28.8066C30.2652 28.8629 30.1287 28.8589 30.019 28.7957L29.6391 28.5772C29.6391 28.5772 29.8246 26.3195 29.2173 25.0225C29.2173 25.0225 28.8968 25.583 28.8968 25.9992C28.8968 26.4155 28.9136 28.417 28.9136 28.417C28.9136 28.417 28.2051 28.5291 27.8846 28.4971C27.8846 28.4971 28.0871 24.1538 28.2895 23.131L30.0796 23.0769Z" fill="#EAF3F5"/>
<path d="M29.7291 23.0769C29.7291 23.0769 29.8545 23.1551 29.7885 23.345C29.7885 23.345 28.8254 23.6969 27.9217 23.3953C27.9217 23.3953 27.8228 23.2723 27.948 23.1215L29.7291 23.0769Z" fill="#BE7855"/>
<path d="M29.9132 19.3858L29.9304 19.502C29.9304 19.502 29.9763 20.2466 29.7125 20.4472C29.7125 20.4472 29.6552 20.6003 29.7469 20.6743C29.8386 20.7483 30.7444 21.1706 30.7444 21.1706C30.7444 21.1706 30.9795 21.6195 30.9739 21.8728C30.9739 21.8728 31.1975 21.7936 31.1745 21.6933C31.1517 21.593 31.0197 21.329 31.0599 21.2023C31.1 21.0755 31.2491 21.1125 31.2491 21.1125C31.2491 21.1125 31.3236 21.1865 31.2032 21.2339L31.2434 21.3923L31.7308 21.6563L31.6218 21.7777C31.6218 21.7777 31.6161 22.707 31.0199 22.8283C31.0199 22.8283 30.7046 22.8494 30.3318 22.1947C30.3318 22.1947 30.1312 22.522 30.2 22.8072C30.2 22.8072 29.5465 23.1345 28.6521 22.8495L28.6405 22.2792C28.6405 22.2792 28.5029 23.1557 28.0329 23.0712C28.0329 23.0712 26.7305 22.6095 26.9474 22.434C27.452 22.0257 28.0612 22.3708 28.0612 22.3708C28.0908 21.7777 28.1446 21.0104 28.2279 20.9275C28.3655 20.7902 28.7897 20.8641 28.8739 20.6881C28.958 20.5121 28.935 20.2024 28.8433 19.8433C28.7516 19.4842 29.2178 19.2308 29.2178 19.2308L29.9132 19.3858Z" fill="#965032"/>
<path d="M29.7871 19.8195C29.7871 19.8195 29.4096 19.9386 29.1139 19.7926L28.9845 20.1923H28.9105C28.9105 20.1923 28.7323 19.4525 28.9689 19.4612C28.9689 19.4612 28.9698 19.221 29.383 19.2311C29.738 19.2398 29.8611 19.5274 29.7871 19.8195Z" fill="#464655"/>
<path d="M22.1245 19.4846C22.0959 19.4206 22.1438 19.403 22.1438 19.403C22.1438 19.403 22.4904 19.2278 22.5308 19.2308C22.5974 19.2358 22.6791 19.3436 22.6791 19.4357C22.6791 19.5277 22.8093 19.7667 23.0769 19.8261C23.0769 19.8261 22.7429 20.244 22.2793 20.187C22.2793 20.1868 22.3104 19.9009 22.1245 19.4846Z" fill="#EAF3F5"/>
<path d="M22.3763 23.0769C22.2322 23.0769 22.1154 23.1859 22.1154 23.3204V26.1058C22.1154 26.7788 22.476 29.1347 25 29.8077C27.524 29.1346 27.8846 26.7787 27.8846 26.1058V23.3204C27.8846 23.1859 27.7678 23.0769 27.6237 23.0769H22.3763Z" fill="#82AFFF"/>
<path d="M27.8846 26.2602V23.3328C27.8846 23.1915 27.7678 23.0769 27.6237 23.0769H25V25.5529L27.5355 27.8846C27.8162 27.2031 27.8846 26.5661 27.8846 26.2602Z" fill="#FFE15A"/>
<path d="M22.1154 26.2602V23.3328C22.1154 23.1915 22.2322 23.0769 22.3763 23.0769H25V25.5529L22.4645 27.8846C22.1838 27.2031 22.1154 26.5661 22.1154 26.2602Z" fill="#EAF3F5"/>
<path d="M23.0769 27.8846L23.7361 28.8462H25.5723L25.9615 28.1581L25.5138 28.4051H24.0299L23.0769 27.8846Z" fill="#8C5A28"/>
<path d="M24.0385 26.9231L23.8652 27.8846L23.0769 27.719C23.0769 27.719 23.4397 27.2555 24.0385 26.9231Z" fill="#F5F5F5"/>
<path d="M25.0637 25.9615H25V27.8846H25.0637V25.9615Z" fill="#8C5A28"/>
<path d="M26.0252 25.9615H25.9615V27.8846H26.0252V25.9615Z" fill="#8C5A28"/>
<path d="M24.1021 25.9615H24.0385V27.8846H24.1021V25.9615Z" fill="#8C5A28"/>
<path d="M25.8666 27.2663H25.095C25.0426 27.2663 25 27.2425 25 27.2133V26.976C25 26.9468 25.0426 26.9231 25.095 26.9231H25.8666C25.919 26.9231 25.9615 26.9468 25.9615 26.976V27.2133C25.9614 27.2425 25.919 27.2663 25.8666 27.2663Z" fill="#F5F5F5"/>
<path d="M25.8666 27.2663H25.095C25.0426 27.2663 25 27.2425 25 27.2133V26.976C25 26.9468 25.0426 26.9231 25.095 26.9231H25.8666C25.919 26.9231 25.9615 26.9468 25.9615 26.976V27.2133C25.9614 27.2425 25.919 27.2663 25.8666 27.2663Z" fill="#F5F5F5"/>
<path d="M25.8666 27.2663H25.095C25.0426 27.2663 25 27.2425 25 27.2133V26.976C25 26.9468 25.0426 26.9231 25.095 26.9231H25.8666C25.919 26.9231 25.9615 26.9468 25.9615 26.976V27.2133C25.9614 27.2425 25.919 27.2663 25.8666 27.2663Z" fill="#F5F5F5"/>
<path d="M25.7307 27.6999H25.3731C25.3439 27.6999 25.3201 27.6762 25.3201 27.647V27.4097C25.3201 27.3805 25.3439 27.3568 25.3731 27.3568H25.7307C25.7599 27.3568 25.7836 27.3805 25.7836 27.4097V27.647C25.7835 27.6762 25.7599 27.6999 25.7307 27.6999Z" fill="#F5F5F5"/>
<path d="M25.7307 27.2786H25.3731C25.3439 27.2786 25.3201 27.2549 25.3201 27.2257V27.0422C25.3201 27.013 25.3439 26.9893 25.3731 26.9893H25.7307C25.7599 26.9893 25.7836 27.013 25.7836 27.0422V27.2257C25.7835 27.255 25.7599 27.2786 25.7307 27.2786Z" fill="#F5F5F5"/>
<path d="M25.7307 26.8611H25.3731C25.3439 26.8611 25.3201 26.8374 25.3201 26.8082V26.6711C25.3201 26.6419 25.3439 26.6182 25.3731 26.6182H25.7307C25.7599 26.6182 25.7836 26.6419 25.7836 26.6711V26.8082C25.7835 26.8375 25.7599 26.8611 25.7307 26.8611Z" fill="#F5F5F5"/>
<path d="M24.5538 27.6999H24.1962C24.167 27.6999 24.1433 27.6762 24.1433 27.647V27.4097C24.1433 27.3805 24.167 27.3568 24.1962 27.3568H24.5538C24.583 27.3568 24.6068 27.3805 24.6068 27.4097V27.647C24.6068 27.6762 24.583 27.6999 24.5538 27.6999Z" fill="#F5F5F5"/>
<path d="M24.5538 27.2786H24.1962C24.167 27.2786 24.1433 27.2549 24.1433 27.2257V27.0422C24.1433 27.013 24.167 26.9893 24.1962 26.9893H24.5538C24.583 26.9893 24.6068 27.013 24.6068 27.0422V27.2257C24.6068 27.255 24.583 27.2786 24.5538 27.2786Z" fill="#F5F5F5"/>
<path d="M24.5538 26.8611H24.1962C24.167 26.8611 24.1433 26.8374 24.1433 26.8082V26.6711C24.1433 26.6419 24.167 26.6182 24.1962 26.6182H24.5538C24.583 26.6182 24.6068 26.6419 24.6068 26.6711V26.8082C24.6068 26.8375 24.583 26.8611 24.5538 26.8611Z" fill="#F5F5F5"/>
<path d="M25.5208 26.3657V26.558L25.2376 26.4601L25.5208 26.3657Z" fill="#FF4B55"/>
<path d="M24.3445 26.3657V26.558L24.0614 26.4601L24.3445 26.3657Z" fill="#FF4B55"/>
<path d="M24.9338 26.2274V26.4197L24.6506 26.3218L24.9338 26.2274Z" fill="#FF4B55"/>
<path d="M27.1213 28.0327H22.8651C22.9285 28.1533 22.998 28.2727 23.0759 28.3902H26.9103C26.9885 28.2728 27.0578 28.1533 27.1213 28.0327Z" fill="#4173CD"/>
<path d="M26.9105 28.3904H23.076C23.2453 28.6453 23.4529 28.8874 23.7018 29.1054H26.2845C26.5335 28.8874 26.741 28.6452 26.9105 28.3904Z" fill="#73AF00"/>
<path d="M23.7018 29.1054C24.0448 29.4061 24.466 29.6597 24.9932 29.8204C25.5204 29.6598 25.9414 29.406 26.2846 29.1054H23.7018Z" fill="#FFE15A"/>
<path d="M24.5341 25.3826C24.5341 25.3826 24.508 25.3918 24.4798 25.3886C24.4581 25.3792 24.4135 25.3779 24.4404 25.2952C24.4535 25.2543 24.4808 25.1965 24.461 25.1817C24.445 25.163 24.4276 25.1429 24.4089 25.1214C24.3717 25.0784 24.3299 25.0298 24.2841 24.9769C24.1902 24.8734 24.0789 24.7543 23.949 24.637C23.8842 24.5782 23.8173 24.5174 23.7492 24.4557C23.6787 24.3963 23.6136 24.3297 23.5369 24.2744C23.4934 24.2516 23.4382 24.2402 23.39 24.2223C23.3429 24.2033 23.3133 24.1675 23.2789 24.1371C23.2114 24.0748 23.1451 24.0135 23.0808 23.9541C22.9503 23.8373 22.8358 23.7215 22.7378 23.6219C22.6428 23.5269 22.566 23.4444 22.5119 23.3841C22.4602 23.3268 22.4635 23.2396 22.519 23.1861L22.6778 23.0328C22.7332 22.9793 22.8206 22.9791 22.8759 23.0327C22.9341 23.089 23.014 23.1688 23.1054 23.2671C23.2014 23.3686 23.3131 23.4872 23.4251 23.6217C23.4822 23.6881 23.541 23.7567 23.6009 23.8262C23.63 23.8617 23.6647 23.8925 23.6821 23.9402C23.6983 23.989 23.7078 24.0446 23.729 24.0888C23.7815 24.1675 23.8456 24.2349 23.9026 24.3075C23.9619 24.3777 24.0202 24.4468 24.0766 24.5136C24.1892 24.6476 24.3041 24.763 24.4043 24.8606C24.4556 24.9082 24.5026 24.9518 24.5443 24.9904C24.5651 25.0098 24.5846 25.0279 24.6027 25.0446C24.6169 25.0651 24.6756 25.0397 24.7169 25.0281C24.8004 25.0042 24.8002 25.0488 24.8088 25.0709C24.811 25.0991 24.8009 25.125 24.8009 25.125L24.5341 25.3826Z" fill="#BE7855"/>
<path d="M22.783 25.6642C22.7555 25.6642 22.7277 25.6558 22.7036 25.638C22.6442 25.5941 22.6314 25.5102 22.6754 25.4505L23.9491 23.7226C23.993 23.6632 24.0764 23.65 24.1366 23.6944C24.1961 23.7383 24.2089 23.8222 24.1649 23.8819L22.8911 25.6098C22.8648 25.6453 22.8242 25.6642 22.783 25.6642Z" fill="#965032"/>
<path d="M23.8035 23.6084L24.4665 24.0479L24.7494 23.6531L24.1312 23.1541L23.8035 23.6084Z" fill="#F5F5F5"/>
<path d="M25.5653 23.4385L27.2641 25.5334C27.2641 25.5334 27.5029 25.5443 27.4704 25.3543L25.7119 23.2919L25.5653 23.4385Z" fill="#965032"/>
<path d="M25.1852 23.7261C25.1852 23.7261 25.6628 23.6393 25.8636 23.3408L26.135 23.661C26.135 23.661 25.69 23.9757 25.6465 24.3176C25.6465 24.3177 25.2829 24.2201 25.1852 23.7261Z" fill="#EAF3F5"/>
<path d="M27.0191 23.5199C26.9878 23.5199 26.9578 23.503 26.9422 23.4734C26.8939 23.3818 26.8856 23.2991 26.9174 23.2272C26.962 23.1264 27.067 23.0969 27.0787 23.0939C27.126 23.0834 27.1725 23.1102 27.1846 23.1563C27.1964 23.2024 27.169 23.2497 27.1231 23.2618C27.1134 23.2648 27.0849 23.2774 27.0759 23.2981C27.0674 23.3185 27.0745 23.3521 27.0959 23.3927C27.1183 23.4351 27.1021 23.4876 27.0595 23.5101C27.0465 23.5168 27.0327 23.5199 27.0191 23.5199Z" fill="#965032"/>
<path d="M25.6234 24.8124C25.6234 24.7812 25.6065 24.7512 25.5769 24.7356C25.4853 24.6872 25.4026 24.6789 25.3307 24.7108C25.2299 24.7554 25.2004 24.8604 25.1974 24.8721C25.1869 24.9194 25.2137 24.9659 25.2598 24.978C25.3059 24.9898 25.3532 24.9623 25.3653 24.9164C25.3683 24.9068 25.3809 24.8783 25.4016 24.8693C25.422 24.8608 25.4556 24.8679 25.4962 24.8893C25.5386 24.9118 25.5912 24.8954 25.6136 24.8529C25.6204 24.8399 25.6234 24.8261 25.6234 24.8124Z" fill="#965032"/>
<path d="M27.0776 23.3245L25.4784 24.8948L25.8547 25.3146L27.4178 23.737L27.0776 23.3245Z" fill="#EAF3F5"/>
<path d="M18.9545 21.0611C19.0617 21.0362 19.1556 21.1802 19.0588 21.2846C18.962 21.3889 18.6822 21.5773 18.597 21.5603C18.4481 21.5303 18.3438 21.2025 18.9545 21.0611Z" fill="#FFBE3C"/>
<path d="M31.0889 21.2119C30.9896 21.1871 30.9024 21.331 30.9922 21.4354C31.0819 21.5397 31.3414 21.7281 31.4204 21.7111C31.5585 21.6811 31.6553 21.3534 31.0889 21.2119Z" fill="#965032"/>
<path d="M27.4322 22.6698C27.5661 22.6698 27.6747 22.7857 27.6747 22.9285V25.8875C27.6747 26.6025 27.3395 29.1053 24.9933 29.8202C22.6471 29.1052 22.3119 26.6024 22.3119 25.8875V22.9285C22.3119 22.7857 22.4204 22.6698 22.5544 22.6698H27.4322ZM27.4322 22.491H22.5545C22.3222 22.491 22.1332 22.6872 22.1332 22.9285V25.8875C22.1332 26.0583 22.1563 26.9597 22.6111 27.9299C23.0946 28.9612 23.9004 29.674 24.9414 29.9914L24.9936 30.0072L25.0457 29.9914C26.0867 29.6741 26.8926 28.9612 27.3761 27.9299C27.8309 26.9598 27.8539 26.0584 27.8539 25.8875V22.9285C27.8534 22.6874 27.6645 22.491 27.4322 22.491Z" fill="#464655"/>
<path d="M29.2856 29.8623C28.526 29.6077 27.7108 29.7251 26.9421 30.238C25.9596 30.893 25.3083 30.893 24.9952 30.893C24.6821 30.893 24.0309 30.893 23.0484 30.238C22.2798 29.7255 21.4644 29.6078 20.7048 29.8622V30.6286C21.1835 30.3998 21.8582 30.304 22.6517 30.8328C23.8144 31.6079 24.6419 31.6079 24.9952 31.6079C25.3485 31.6079 26.1761 31.6079 27.3388 30.8328C28.1322 30.3035 28.8069 30.3995 29.2856 30.6285V29.8623Z" fill="#EAF3F5"/>
<path d="M24.9954 33.9321C19.9683 33.9321 15.8785 29.8421 15.8785 24.8152C15.8785 19.7882 19.9684 15.6983 24.9954 15.6983C30.0223 15.6983 34.1123 19.7882 34.1123 24.8152C34.1123 29.8421 30.0224 33.9321 24.9954 33.9321ZM24.9954 16.0557C20.1654 16.0557 16.2359 19.985 16.2359 24.8152C16.2359 29.6453 20.1654 33.5746 24.9954 33.5746C29.8254 33.5746 33.7548 29.6453 33.7548 24.8152C33.7548 19.985 29.8254 16.0557 24.9954 16.0557Z" fill="#965032"/>
<path d="M15.0211 25.5749C15.0211 25.5749 14.9838 24.4576 16.0564 24.4576C16.0564 24.4576 16.0787 24.897 15.6915 25.0907C15.3783 25.2472 15.0211 25.5749 15.0211 25.5749Z" fill="#73AF00"/>
<path d="M17.0921 25.5749C17.0921 25.5749 17.1294 24.4576 16.0568 24.4576C16.0568 24.4576 16.0345 24.897 16.4217 25.0907C16.735 25.2472 17.0921 25.5749 17.0921 25.5749Z" fill="#73AF00"/>
<path d="M34.9607 24.4576C34.9607 24.4576 34.998 25.5749 33.9253 25.5749C33.9253 25.5749 33.9031 25.1354 34.2903 24.9418C34.6034 24.7851 34.9607 24.4576 34.9607 24.4576Z" fill="#73AF00"/>
<path d="M32.8897 24.4576C32.8897 24.4576 32.8523 25.5749 33.925 25.5749C33.925 25.5749 33.9473 25.1354 33.5601 24.9418C33.2467 24.7851 32.8897 24.4576 32.8897 24.4576Z" fill="#73AF00"/>
<path d="M25.5497 34.986C25.5497 34.986 24.4324 35.0233 24.4324 33.9506C24.4324 33.9506 24.8718 33.9283 25.0655 34.3156C25.2221 34.6287 25.5497 34.986 25.5497 34.986Z" fill="#73AF00"/>
<path d="M25.5497 32.9151C25.5497 32.9151 24.4324 32.8778 24.4324 33.9504C24.4324 33.9504 24.8718 33.9727 25.0655 33.5855C25.2221 33.2722 25.5497 32.9151 25.5497 32.9151Z" fill="#73AF00"/>
<path d="M24.4324 15.0465C24.4324 15.0465 25.5497 15.0092 25.5497 16.0818C25.5497 16.0818 25.1102 16.1041 24.9166 15.7169C24.7598 15.4036 24.4324 15.0465 24.4324 15.0465Z" fill="#73AF00"/>
<path d="M24.4324 17.1174C24.4324 17.1174 25.5497 17.1547 25.5497 16.082C25.5497 16.082 25.1102 16.0598 24.9166 16.447C24.7598 16.7601 24.4324 17.1174 24.4324 17.1174Z" fill="#73AF00"/>
<path d="M18.336 32.4609C18.336 32.4609 17.5196 31.6972 18.278 30.9388C18.278 30.9388 18.6045 31.2338 18.4677 31.6445C18.3571 31.9767 18.336 32.4609 18.336 32.4609Z" fill="#73AF00"/>
<path d="M19.8005 30.9966C19.8005 30.9966 19.0368 30.1802 18.2784 30.9386C18.2784 30.9386 18.5734 31.2651 18.9841 31.1283C19.3162 31.0175 19.8005 30.9966 19.8005 30.9966Z" fill="#73AF00"/>
<path d="M31.6456 17.5716C31.6456 17.5716 32.462 18.3353 31.7036 19.0937C31.7036 19.0937 31.3771 18.7987 31.5139 18.388C31.6246 18.0558 31.6456 17.5716 31.6456 17.5716Z" fill="#73AF00"/>
<path d="M30.1812 19.0358C30.1812 19.0358 30.9449 19.8522 31.7033 19.0938C31.7033 19.0938 31.4084 18.7674 30.9976 18.9042C30.6655 19.0148 30.1812 19.0358 30.1812 19.0358Z" fill="#73AF00"/>
<path d="M32.4356 31.6709C32.4356 31.6709 31.672 32.4873 30.9136 31.7289C30.9136 31.7289 31.2085 31.4024 31.6192 31.5392C31.9515 31.65 32.4356 31.6709 32.4356 31.6709Z" fill="#73AF00"/>
<path d="M30.9713 30.2065C30.9713 30.2065 30.1549 30.9702 30.9133 31.7286C30.9133 31.7286 31.2398 31.4337 31.103 31.023C30.9922 30.6907 30.9713 30.2065 30.9713 30.2065Z" fill="#73AF00"/>
<path d="M17.5462 18.3615C17.5462 18.3615 18.3098 17.5451 19.0682 18.3035C19.0682 18.3035 18.7733 18.63 18.3626 18.4931C18.0304 18.3824 17.5462 18.3615 17.5462 18.3615Z" fill="#73AF00"/>
<path d="M19.0105 19.8258C19.0105 19.8258 19.8269 19.0622 19.0685 18.3038C19.0685 18.3038 18.7421 18.5987 18.8789 19.0094C18.9896 19.3417 19.0105 19.8258 19.0105 19.8258Z" fill="#73AF00"/>
<path d="M15.9938 29.3477C15.9938 29.3477 15.5319 28.3297 16.5228 27.9193C16.5228 27.9193 16.7116 28.3166 16.4279 28.6439C16.1984 28.9083 15.9938 29.3477 15.9938 29.3477Z" fill="#73AF00"/>
<path d="M17.9072 28.5551C17.9072 28.5551 17.5142 27.5086 16.5232 27.9191C16.5232 27.9191 16.6707 28.3337 17.1027 28.3643C17.4518 28.3891 17.9072 28.5551 17.9072 28.5551Z" fill="#73AF00"/>
<path d="M33.9879 20.6848C33.9879 20.6848 34.4498 21.7027 33.4589 22.1132C33.4589 22.1132 33.2701 21.7157 33.5538 21.3886C33.7832 21.1241 33.9879 20.6848 33.9879 20.6848Z" fill="#73AF00"/>
<path d="M32.0746 21.4774C32.0746 21.4774 32.4677 22.5238 33.4587 22.1134C33.4587 22.1134 33.3111 21.6988 32.8792 21.6682C32.53 21.6434 32.0746 21.4774 32.0746 21.4774Z" fill="#73AF00"/>
<path d="M29.3221 34.0133C29.3221 34.0133 28.3042 34.4752 27.8937 33.4843C27.8937 33.4843 28.2911 33.2956 28.6183 33.5792C28.8829 33.8086 29.3221 34.0133 29.3221 34.0133Z" fill="#73AF00"/>
<path d="M28.5298 32.1001C28.5298 32.1001 27.4833 32.4932 27.8937 33.4842C27.8937 33.4842 28.3083 33.3366 28.339 32.9047C28.3639 32.5554 28.5298 32.1001 28.5298 32.1001Z" fill="#73AF00"/>
<path d="M20.6596 16.019C20.6596 16.019 21.6776 15.5571 22.088 16.548C22.088 16.548 21.6906 16.7368 21.3634 16.4531C21.0989 16.2237 20.6596 16.019 20.6596 16.019Z" fill="#73AF00"/>
<path d="M21.452 17.9324C21.452 17.9324 22.4985 17.5394 22.088 16.5483C22.088 16.5483 21.6734 16.6959 21.6428 17.1278C21.6179 17.477 21.452 17.9324 21.452 17.9324Z" fill="#73AF00"/>
<path d="M21.6918 34.4409C21.6918 34.4409 20.6453 34.0478 21.0558 33.0568C21.0558 33.0568 21.4703 33.2044 21.501 33.6363C21.5258 33.9855 21.6918 34.4409 21.6918 34.4409Z" fill="#73AF00"/>
<path d="M22.4842 32.5276C22.4842 32.5276 21.4663 32.0657 21.0558 33.0566C21.0558 33.0566 21.4533 33.2453 21.7804 32.9617C22.0449 32.7323 22.4842 32.5276 22.4842 32.5276Z" fill="#73AF00"/>
<path d="M28.2901 15.5916C28.2901 15.5916 29.3366 15.9847 28.9261 16.9757C28.9261 16.9757 28.5116 16.8281 28.4809 16.3962C28.456 16.0469 28.2901 15.5916 28.2901 15.5916Z" fill="#73AF00"/>
<path d="M27.4976 17.5049C27.4976 17.5049 28.5155 17.9668 28.926 16.9758C28.926 16.9758 28.5286 16.7871 28.2014 17.0708C27.9369 17.3002 27.4976 17.5049 27.4976 17.5049Z" fill="#73AF00"/>
<path d="M34.4154 28.3154C34.4154 28.3154 34.0224 29.3619 33.0314 28.9515C33.0314 28.9515 33.1789 28.5369 33.6109 28.5062C33.9602 28.4813 34.4154 28.3154 34.4154 28.3154Z" fill="#73AF00"/>
<path d="M32.5023 27.5229C32.5023 27.5229 32.0404 28.5409 33.0313 28.9514C33.0313 28.9514 33.22 28.554 32.9363 28.2268C32.7069 27.9622 32.5023 27.5229 32.5023 27.5229Z" fill="#73AF00"/>
<path d="M15.5662 21.717C15.5662 21.717 15.9593 20.6705 16.9503 21.081C16.9503 21.081 16.8027 21.4955 16.3708 21.5262C16.0215 21.5512 15.5662 21.717 15.5662 21.717Z" fill="#73AF00"/>
<path d="M17.4795 22.5095C17.4795 22.5095 17.9414 21.4916 16.9505 21.0811C16.9505 21.0811 16.7617 21.4786 17.0454 21.8057C17.2749 22.0702 17.4795 22.5095 17.4795 22.5095Z" fill="#73AF00"/>
<path d="M15.3216 27.5092C15.3216 27.5092 15.0671 26.4206 16.1192 26.2113C16.1192 26.2113 16.2268 26.638 15.8847 26.9034C15.608 27.1181 15.3216 27.5092 15.3216 27.5092Z" fill="#73AF00"/>
<path d="M17.3526 27.1051C17.3526 27.1051 17.1712 26.002 16.1192 26.2113C16.1192 26.2113 16.183 26.6466 16.6007 26.7611C16.9385 26.8535 17.3526 27.1051 17.3526 27.1051Z" fill="#73AF00"/>
<path d="M34.6601 22.5233C34.6601 22.5233 34.9146 23.6118 33.8626 23.8211C33.8626 23.8211 33.755 23.3944 34.0971 23.129C34.3737 22.9143 34.6601 22.5233 34.6601 22.5233Z" fill="#73AF00"/>
<path d="M32.6289 22.9273C32.6289 22.9273 32.8104 24.0304 33.8623 23.8212C33.8623 23.8212 33.7986 23.3858 33.3809 23.2713C33.0432 23.1789 32.6289 22.9273 32.6289 22.9273Z" fill="#73AF00"/>
<path d="M27.4837 34.6855C27.4837 34.6855 26.3952 34.94 26.1859 33.8879C26.1859 33.8879 26.6125 33.7803 26.878 34.1224C27.0928 34.3991 27.4837 34.6855 27.4837 34.6855Z" fill="#73AF00"/>
<path d="M27.0798 32.6544C27.0798 32.6544 25.9766 32.8358 26.1859 33.8878C26.1859 33.8878 26.6213 33.824 26.7357 33.4063C26.8282 33.0686 27.0798 32.6544 27.0798 32.6544Z" fill="#73AF00"/>
<path d="M22.4981 15.347C22.4981 15.347 23.5867 15.0925 23.7959 16.1446C23.7959 16.1446 23.3693 16.2522 23.1038 15.9101C22.889 15.6334 22.4981 15.347 22.4981 15.347Z" fill="#73AF00"/>
<path d="M22.902 17.3781C22.902 17.3781 24.0051 17.1967 23.7959 16.1447C23.7959 16.1447 23.3605 16.2085 23.2461 16.6262C23.1536 16.9639 22.902 17.3781 22.902 17.3781Z" fill="#73AF00"/>
<path d="M19.9165 33.6161C19.9165 33.6161 18.9668 33.0263 19.5627 32.1345C19.5627 32.1345 19.9405 32.3601 19.8863 32.7897C19.8427 33.1372 19.9165 33.6161 19.9165 33.6161Z" fill="#73AF00"/>
<path d="M21.0671 31.8942C21.0671 31.8942 20.1588 31.2425 19.5629 32.1343C19.5629 32.1343 19.9159 32.3969 20.2921 32.1825C20.5963 32.0093 21.0671 31.8942 21.0671 31.8942Z" fill="#73AF00"/>
<path d="M30.0652 16.4163C30.0652 16.4163 31.015 17.0061 30.4191 17.8979C30.4191 17.8979 30.0412 17.6723 30.0954 17.2427C30.1392 16.8953 30.0652 16.4163 30.0652 16.4163Z" fill="#73AF00"/>
<path d="M28.9147 18.1382C28.9147 18.1382 29.823 18.79 30.4189 17.8982C30.4189 17.8982 30.0659 17.6355 29.6897 17.8499C29.3855 18.0232 28.9147 18.1382 28.9147 18.1382Z" fill="#73AF00"/>
<path d="M33.5908 30.0907C33.5908 30.0907 33.0011 31.0404 32.1093 30.4445C32.1093 30.4445 32.3348 30.0667 32.7645 30.1209C33.1118 30.1646 33.5908 30.0907 33.5908 30.0907Z" fill="#73AF00"/>
<path d="M31.8688 28.9401C31.8688 28.9401 31.2171 29.8484 32.1089 30.4443C32.1089 30.4443 32.3716 30.0913 32.1571 29.7151C31.9838 29.4108 31.8688 28.9401 31.8688 28.9401Z" fill="#73AF00"/>
<path d="M16.3909 19.9418C16.3909 19.9418 16.9807 18.992 17.8725 19.5879C17.8725 19.5879 17.6469 19.9658 17.2173 19.9116C16.8699 19.8678 16.3909 19.9418 16.3909 19.9418Z" fill="#73AF00"/>
<path d="M18.1128 21.0924C18.1128 21.0924 18.7645 20.1841 17.8727 19.5882C17.8727 19.5882 17.61 19.9412 17.8245 20.3174C17.9977 20.6216 18.1128 21.0924 18.1128 21.0924Z" fill="#73AF00"/>
<path d="M17.0118 31.0197C17.0118 31.0197 16.36 30.1114 17.2518 29.5155C17.2518 29.5155 17.5145 29.8685 17.3 30.2447C17.1267 30.5489 17.0118 31.0197 17.0118 31.0197Z" fill="#73AF00"/>
<path d="M18.7335 29.8691C18.7335 29.8691 18.1437 28.9194 17.252 29.5153C17.252 29.5153 17.4775 29.8931 17.9071 29.8389C18.2545 29.7952 18.7335 29.8691 18.7335 29.8691Z" fill="#73AF00"/>
<path d="M32.9701 19.0128C32.9701 19.0128 33.6219 19.9211 32.73 20.517C32.73 20.517 32.4673 20.1639 32.6818 19.7878C32.855 19.4836 32.9701 19.0128 32.9701 19.0128Z" fill="#73AF00"/>
<path d="M31.2482 20.1634C31.2482 20.1634 31.8379 21.1131 32.7297 20.5172C32.7297 20.5172 32.5041 20.1394 32.0745 20.1936C31.7272 20.2373 31.2482 20.1634 31.2482 20.1634Z" fill="#73AF00"/>
<path d="M30.9943 32.9954C30.9943 32.9954 30.086 33.6471 29.4901 32.7553C29.4901 32.7553 29.8431 32.4926 30.2193 32.7071C30.5235 32.8804 30.9943 32.9954 30.9943 32.9954Z" fill="#73AF00"/>
<path d="M29.8438 31.2735C29.8438 31.2735 28.8941 31.8632 29.49 32.755C29.49 32.755 29.8678 32.5294 29.8137 32.0999C29.7699 31.7525 29.8438 31.2735 29.8438 31.2735Z" fill="#73AF00"/>
<path d="M18.9875 17.037C18.9875 17.037 19.8958 16.3852 20.4917 17.277C20.4917 17.277 20.1386 17.5397 19.7625 17.3253C19.4583 17.152 18.9875 17.037 18.9875 17.037Z" fill="#73AF00"/>
<path d="M20.1379 18.759C20.1379 18.759 21.0876 18.1693 20.4917 17.2775C20.4917 17.2775 20.1139 17.5031 20.1681 17.9326C20.2119 18.28 20.1379 18.759 20.1379 18.759Z" fill="#73AF00"/>
<path d="M23.5938 34.9034C23.5938 34.9034 22.4907 34.7219 22.6999 33.67C22.6999 33.67 23.1353 33.7338 23.2497 34.1514C23.3421 34.4891 23.5938 34.9034 23.5938 34.9034Z" fill="#73AF00"/>
<path d="M23.998 32.8722C23.998 32.8722 22.9094 32.6177 22.7001 33.6698C22.7001 33.6698 23.1268 33.7774 23.3922 33.4353C23.607 33.1586 23.998 32.8722 23.998 32.8722Z" fill="#73AF00"/>
<path d="M26.3879 15.129C26.3879 15.129 27.4911 15.3105 27.2818 16.3624C27.2818 16.3624 26.8464 16.2987 26.732 15.881C26.6396 15.5433 26.3879 15.129 26.3879 15.129Z" fill="#73AF00"/>
<path d="M25.984 17.1602C25.984 17.1602 27.0726 17.4147 27.2819 16.3626C27.2819 16.3626 26.8552 16.255 26.5898 16.5971C26.375 16.8737 25.984 17.1602 25.984 17.1602Z" fill="#73AF00"/>
<path d="M34.8781 26.4133C34.8781 26.4133 34.6966 27.5165 33.6447 27.3072C33.6447 27.3072 33.7084 26.8718 34.1261 26.7574C34.4639 26.6649 34.8781 26.4133 34.8781 26.4133Z" fill="#73AF00"/>
<path d="M32.847 26.0093C32.847 26.0093 32.5925 27.0979 33.6446 27.3072C33.6446 27.3072 33.7522 26.8805 33.4101 26.6151C33.1332 26.4003 32.847 26.0093 32.847 26.0093Z" fill="#73AF00"/>
<path d="M15.1035 23.6191C15.1035 23.6191 15.285 22.516 16.3369 22.7253C16.3369 22.7253 16.2732 23.1606 15.8555 23.2751C15.5178 23.3675 15.1035 23.6191 15.1035 23.6191Z" fill="#73AF00"/>
<path d="M17.1347 24.0231C17.1347 24.0231 17.3892 22.9346 16.3372 22.7253C16.3372 22.7253 16.2295 23.1519 16.5716 23.4174C16.8483 23.6322 17.1347 24.0231 17.1347 24.0231Z" fill="#73AF00"/>
</svg>
