<svg width="51" height="51" viewBox="0 0 51 51" fill="none" xmlns="http://www.w3.org/2000/svg">
    <g clip-path="url(#clip0_9_4610)">
        <path
            d="M50.3103 25.8673H0.31041V10.3501C0.31041 9.87407 0.696444 9.48804 1.17252 9.48804H49.4483C49.9244 9.48804 50.3104 9.87407 50.3104 10.3501L50.3103 25.8673Z"
            fill="#FFE15A" />
        <path
            d="M0.31041 25.8673H50.3103V41.3845C50.3103 41.8605 49.9243 42.2466 49.4482 42.2466H1.17252C0.696444 42.2466 0.31041 41.8605 0.31041 41.3845V25.8673Z"
            fill="#FF4B55" />
        <path
            d="M16.9771 42.246H1.17252C0.696444 42.246 0.31041 41.8599 0.31041 41.3839V10.3495C0.31041 9.87346 0.696444 9.48743 1.17252 9.48743H16.9771V42.246Z"
            fill="#73AF00" />
    </g>
    <defs>
        <clipPath id="clip0_9_4610">
            <rect width="50" height="50" fill="white" transform="translate(0.310547 0.866943)" />
        </clipPath>
    </defs>
</svg>
