<svg width="50" height="51" viewBox="0 0 50 51" fill="none" xmlns="http://www.w3.org/2000/svg">
<g clip-path="url(#clip0_9_4557)">
<path d="M49.1378 41.5393H0.862108C0.386034 41.5393 0 41.1533 0 40.6772V9.64287C0 9.1668 0.386034 8.78076 0.862108 8.78076H49.1379C49.614 8.78076 50 9.1668 50 9.64287V40.6772C49.9999 41.1534 49.6139 41.5393 49.1378 41.5393Z" fill="#FF4B55"/>
<path d="M24.1378 25.16H0.862108C0.386034 25.16 0 24.774 0 24.2979V9.64287C0 9.1668 0.386034 8.78076 0.862108 8.78076H24.1378C24.6139 8.78076 25 9.1668 25 9.64287V24.298C24.9999 24.7742 24.614 25.16 24.1378 25.16Z" fill="#41479B"/>
<path d="M24.1378 8.78076H22.6405L14.6551 14.0125V8.78076H10.3448V14.0125L2.35947 8.78076H0.862108C0.386034 8.78076 0 9.1668 0 9.64287V10.3267L6.85106 14.8152H0V19.1256H6.85106L0 23.6142V24.2979C0 24.774 0.386034 25.16 0.862108 25.16H2.35947L10.3448 19.9283V25.16H14.6551V19.9283L22.6404 25.16H24.1377C24.6138 25.16 24.9999 24.774 24.9999 24.2979V23.6141L18.1489 19.1256H24.9999V14.8152H18.1488L24.9999 10.3267V9.64287C24.9999 9.1668 24.614 8.78076 24.1378 8.78076Z" fill="#F5F5F5"/>
<path d="M24.9999 15.6775H13.793V8.78088H11.2068V15.6775H0V18.2636H11.2068V25.1602H13.793V18.2636H24.9999V15.6775Z" fill="#FF4B55"/>
<path d="M9.4827 14.8151L0.410839 8.92633C0.169433 9.07916 0 9.3358 0 9.64274V9.68746L7.8993 14.8151H9.4827Z" fill="#FF4B55"/>
<path d="M16.2386 14.8151L24.8689 9.21296C24.7189 8.95916 24.4542 8.78064 24.1379 8.78064H23.9515L14.6552 14.8151H16.2386Z" fill="#FF4B55"/>
<path d="M8.73808 19.1254L0.124329 24.7168C0.272863 24.9768 0.541613 25.1599 0.862511 25.1599H1.02511L10.3215 19.1254H8.73808Z" fill="#FF4B55"/>
<path d="M24.9862 24.3657L16.9133 19.1255H15.33L24.4973 25.0761C24.772 24.9487 24.9603 24.6816 24.9862 24.3657Z" fill="#FF4B55"/>
<path d="M31.3423 17.1551C31.1723 17.1551 31.0344 17.2929 31.0344 17.463V28.8546C31.0344 29.7782 31.6501 32.857 37.4999 33.7806C43.3497 32.857 43.9654 29.7782 43.9654 28.8546V17.4631C43.9654 17.2931 43.8276 17.1552 43.6575 17.1552L31.3423 17.1551Z" fill="#F5F5F5"/>
<path d="M37.4997 33.7807C42.3829 33.0097 43.618 30.7378 43.8932 29.4704H31.1064C31.3815 30.7377 32.6165 33.0098 37.4997 33.7807Z" fill="#73AF00"/>
<path d="M41.5023 23.6207C41.5023 23.6207 41.8103 23.3128 41.5023 22.697L37.4999 22.5179L33.4975 22.697C33.1896 23.3128 33.4975 23.6207 33.4975 23.6207C33.1896 23.9286 33.1896 24.2364 33.1896 24.2364H33.8053L34.4724 25.3396L37.4998 27.0073L40.5273 25.3396L41.1944 24.2364H41.8102C41.8103 24.2364 41.8103 23.9286 41.5023 23.6207Z" fill="#82AFFF"/>
<path d="M40.5276 25.3397C40.5276 25.3397 40.3352 24.9163 39.8221 24.9677C39.8221 24.9677 39.5398 24.5957 39.0651 24.6983C39.0651 24.6983 38.5135 24.3776 38.1929 24.9677C38.1929 24.9677 37.173 24.864 37.1185 25.6406C37.1185 25.6406 38.706 28.0336 38.7445 28.0593C38.783 28.085 40.6432 28.0721 40.6432 28.0721L41.5027 27.1237L40.656 25.9041L40.5276 25.3397Z" fill="#F5F5F5"/>
<path d="M37.5384 26.0966C37.5384 26.0966 36.1918 23.8966 35.999 23.7104C35.813 23.5308 35.4473 23.3641 35.0753 23.672C35.0753 23.672 33.9593 23.5822 34.1131 24.4289L34.4338 25.7118C34.4338 25.7118 34.1515 26.597 34.0232 26.6868C33.895 26.7765 33.4203 27.0203 33.4203 27.0203L33.6897 28.085L37.2816 27.9054L37.5384 26.0966Z" fill="#F0C850"/>
<path d="M39.0905 25.1344L39.0863 25.1362L38.987 24.9018C38.979 24.8828 38.9637 24.8678 38.9446 24.8602C38.9255 24.8527 38.9043 24.853 38.8851 24.8614L38.217 25.156L37.4222 23.8551C37.4575 23.8248 37.4728 23.7753 37.4562 23.7292C37.4347 23.669 37.3686 23.6378 37.3086 23.6592L37.1314 23.7226L37.0116 23.3685C36.9979 23.3281 36.9545 23.3071 36.914 23.3201C36.8737 23.3339 36.8521 23.3775 36.8658 23.4179L36.9865 23.7747L36.7971 23.8425C36.7371 23.8642 36.7058 23.9303 36.7274 23.9901C36.7442 24.0373 36.7887 24.0669 36.8361 24.0669C36.8427 24.0669 36.8496 24.0646 36.8563 24.0635L37.1182 25.6409L36.9493 25.7153C36.9125 25.7316 36.8942 25.7736 36.9079 25.8115L37.0037 26.0783C37.006 26.1232 37.0058 26.199 36.9905 26.2949L35.9157 24.4513C35.9608 24.423 35.9834 24.3682 35.9647 24.3162C35.943 24.2561 35.8775 24.2245 35.8171 24.2462L35.6399 24.3096L35.5201 23.9555C35.5065 23.9151 35.4628 23.8936 35.4225 23.9071C35.3822 23.9209 35.3606 23.9645 35.3743 24.0049L35.495 24.3617L35.3056 24.4295C35.2456 24.4512 35.2143 24.5173 35.2359 24.5771C35.2513 24.6202 35.2905 24.6456 35.3331 24.6502L35.7996 27.5617C35.7393 27.587 35.6802 27.6127 35.6139 27.6363C35.6139 27.6363 35.3959 28.6755 35.5627 28.7267C35.7295 28.778 37.4484 29.304 37.4484 29.304C37.4484 29.304 39.8216 28.1751 39.873 28.1495C39.9243 28.1238 40.027 27.3798 40.027 27.3798L39.0905 25.1344ZM38.9449 25.197L38.7461 25.2823L38.6803 25.1199L38.8755 25.0338L38.9449 25.197ZM37.7437 25.5329L37.9071 25.4609L37.9699 25.6157L37.7969 25.69L37.7437 25.5329ZM37.6549 25.7509L37.4618 25.8339L37.401 25.6841L37.6024 25.5953L37.6549 25.7509ZM38.1112 25.555L38.0478 25.3988L38.2224 25.3219L38.2864 25.4799L38.1112 25.555ZM38.3631 25.2599L38.5395 25.182L38.6048 25.3431L38.4277 25.4191L38.3631 25.2599ZM37.2788 23.9153L38.0749 25.2186L37.6943 25.3864L37.2055 23.9415L37.2788 23.9153ZM37.004 24.0138L37.0604 23.9936L37.5528 25.449L37.2634 25.5766L37.004 24.0138ZM37.2602 25.7463L37.3205 25.8948L37.1305 25.9764L37.077 25.8271L37.2602 25.7463ZM35.7709 24.5081L36.9367 26.508C36.878 26.6776 36.7672 26.8745 36.5731 27.0678L35.714 24.5283L35.7709 24.5081ZM35.4831 24.6112L35.5692 24.5804L36.449 27.1811C36.3156 27.2918 36.1497 27.3987 35.9455 27.4967L35.4831 24.6112Z" fill="#965032"/>
<path d="M41.7812 22.2305C41.6994 22.1006 41.437 22.1563 41.437 22.1563C41.437 22.1563 41.3621 22.0065 41.1642 21.992C40.9662 21.9776 40.9299 22.1538 40.9299 22.1538C40.9299 22.1538 40.8928 22.1263 40.6747 22.1327C40.4567 22.1392 40.5016 22.4984 40.5016 22.4984C40.5016 22.4984 40.4182 22.4984 40.136 22.4086C39.8537 22.3188 39.6678 22.3829 39.6678 22.3829C39.655 22.2354 39.5781 22.1264 39.5781 22.1264C39.3408 22.2226 39.1547 22.1136 39.1099 22.0302C39.065 21.9468 39.1805 21.8186 39.1805 21.7095C39.1805 21.6004 39.0297 21.6053 38.9768 21.5091C38.9239 21.4129 38.9768 21.36 39.1163 21.2975C39.2559 21.235 39.3858 21.004 39.2991 20.8164C39.2123 20.6288 38.9623 20.6624 38.9623 20.6624C39.049 20.6769 39.121 20.8404 38.9817 20.874C38.8422 20.9076 38.7171 20.3978 38.7171 20.3978C39.0394 20.6143 39.2752 20.4844 39.3425 20.2967C39.4099 20.109 39.2319 19.9792 39.2319 19.9792C39.0923 20.2053 38.8518 20.0081 38.9818 19.8638C39.1117 19.7195 39.1228 19.4774 39.1228 19.4774C38.8341 19.6186 38.6546 19.4389 38.6546 19.4389C39.033 19.176 38.9241 18.8038 38.9241 18.8038C38.783 18.7397 38.4815 18.791 38.4815 18.791C38.5456 18.6627 38.5327 18.4318 38.5327 18.4318C38.3724 18.4061 38.1928 18.5087 38.1928 18.5087C38.2441 18.3292 38.1735 18.0149 38.1735 18.0149C38.058 18.0342 37.84 18.0983 37.84 18.0983C37.7502 17.893 37.5 17.7711 37.5 17.7711C37.5 17.7711 37.2499 17.893 37.1601 18.0983C37.1601 18.0983 36.942 18.0341 36.8266 18.0149C36.8266 18.0149 36.756 18.3292 36.8073 18.5087C36.8073 18.5087 36.6277 18.4062 36.4673 18.4318C36.4673 18.4318 36.4545 18.6627 36.5186 18.791C36.5186 18.791 36.2171 18.7398 36.076 18.8038C36.076 18.8038 35.9669 19.1758 36.3454 19.4389C36.3454 19.4389 36.1659 19.6185 35.8773 19.4774C35.8773 19.4774 35.8885 19.7195 36.0183 19.8638C36.1482 20.0081 35.9077 20.2054 35.7682 19.9792C35.7682 19.9792 35.5902 20.1091 35.6576 20.2967C35.7249 20.4843 35.9607 20.6142 36.2829 20.3978C36.2829 20.3978 36.1578 20.9077 36.0184 20.874C35.8789 20.8404 35.951 20.6769 36.0377 20.6624C36.0377 20.6624 35.7876 20.6287 35.701 20.8164C35.6144 21.004 35.7444 21.235 35.8837 21.2975C36.0233 21.36 36.0762 21.4129 36.0233 21.5091C35.9704 21.6053 35.8196 21.6005 35.8196 21.7095C35.8196 21.8186 35.935 21.9468 35.8902 22.0302C35.8453 22.1136 35.6592 22.2227 35.422 22.1264C35.422 22.1264 35.3451 22.2355 35.3323 22.3829C35.3323 22.3829 35.1462 22.3188 34.8641 22.4086C34.5819 22.4984 34.4985 22.4984 34.4985 22.4984C34.4985 22.4984 34.5434 22.1392 34.3253 22.1327C34.1073 22.1263 34.0702 22.1538 34.0702 22.1538C34.0702 22.1538 34.0339 21.9776 33.8359 21.992C33.6379 22.0066 33.563 22.1563 33.563 22.1563C33.563 22.1563 33.3006 22.1007 33.2189 22.2305C33.1372 22.3604 33.1275 22.5576 33.2814 22.6395C33.4354 22.7213 33.8442 23.0628 33.8442 23.0628L34.4214 23.3129L36.4419 22.4181L37.5002 22.6971L38.5585 22.4181L40.579 23.3129L41.1563 23.0628C41.1563 23.0628 41.5653 22.7212 41.7191 22.6395C41.8726 22.5575 41.863 22.3603 41.7812 22.2305Z" fill="#FF4B55"/>
<path d="M36.8696 18.9699C36.8696 18.9699 36.8914 19.2416 37.2935 19.1691C37.2934 19.1691 37.2826 18.8866 36.8696 18.9699Z" fill="#F5F5F5"/>
<path d="M35.3821 29.7014C35.3821 29.7014 35.0934 29.6918 34.7952 29.913C34.497 30.1343 34.3655 29.9771 34.0672 29.9771C33.769 29.9771 33.6984 30.2883 33.6984 30.2883C33.6984 30.2883 33.1211 30.4326 33.3521 30.8559C33.4981 31.1237 33.7013 31.1181 33.8314 31.0778C33.8248 31.2577 33.8658 31.4554 34.0737 31.491C34.4682 31.5584 34.6413 31.3467 34.5547 31.0195C34.5547 31.0195 34.6028 31.3562 34.8626 31.3467C35.1224 31.3371 35.2956 31.1927 35.2667 30.8464C35.2378 30.5001 35.6997 30.7117 36.0556 30.2017L35.3821 29.7014Z" fill="#FF4B55"/>
<path d="M33.6961 30.9393C33.6961 30.9393 33.5161 31.1766 33.5676 31.4074C33.5676 31.4074 33.1818 31.2855 33.3875 30.7146C33.3874 30.7147 33.6512 30.6442 33.6961 30.9393Z" fill="#82AFFF"/>
<path d="M34.3 31.2503C34.3 31.2503 34.1941 31.5486 34.3384 31.8131C34.3384 31.8131 33.8574 31.7987 33.9537 31.207C33.9537 31.207 34.1076 31.0483 34.3 31.2503Z" fill="#82AFFF"/>
<path d="M34.7809 31.2214C34.7809 31.2214 34.8678 31.4715 34.7809 31.7121C34.7809 31.7121 35.1765 31.6881 35.1089 31.1204C35.1088 31.1204 34.8967 31.0435 34.7809 31.2214Z" fill="#82AFFF"/>
<path d="M34.4295 25.4681C34.3931 25.1714 32.5341 24.9966 32.6495 26.5585C32.6495 26.5585 32.4433 26.5547 32.3419 26.7467C32.2406 26.9387 32.0232 26.8916 31.9579 26.8228C31.9579 26.8228 31.9724 27.1705 32.4035 27.156C32.4035 27.156 32.267 27.2634 32.2864 27.4204C32.3057 27.5774 32.4191 27.7754 32.4119 27.9106C32.4048 28.0459 32.2767 28.2343 32.2767 28.2343C32.2767 28.2343 32.6076 28.1208 32.6292 27.8842C32.651 27.6476 32.5979 27.4495 32.663 27.3288C32.663 27.3288 32.6317 27.4954 32.7789 27.7056C32.9262 27.9157 32.9334 28.1716 32.8731 28.331C32.8731 28.331 33.2401 28.1498 33.1701 27.7997C33.1 27.4496 33.0251 27.481 33.0589 27.2854C33.0589 27.2854 33.4405 27.6741 33.3753 28.005C33.3753 28.005 33.4973 27.8589 33.4865 27.5837C33.4756 27.3084 33.2845 27.1232 33.2845 27.1232C33.2845 27.1232 34.5545 26.4879 34.4295 25.4681Z" fill="#FF4B55"/>
<path d="M39.6176 29.7013C39.6176 29.7013 39.9062 29.6917 40.2044 29.9129C40.5026 30.1342 40.6342 29.9771 40.9324 29.9771C41.2306 29.9771 41.3012 30.2882 41.3012 30.2882C41.3012 30.2882 41.8785 30.4325 41.6475 30.8559C41.5015 31.1237 41.2983 31.118 41.1682 31.0778C41.1748 31.2576 41.1339 31.4553 40.926 31.4909C40.5314 31.5583 40.3583 31.3466 40.4449 31.0195C40.4449 31.0195 40.3969 31.3562 40.137 31.3466C39.8772 31.337 39.704 31.1926 39.7329 30.8463C39.7618 30.5 39.2999 30.7116 38.944 30.2017L39.6176 29.7013Z" fill="#FF4B55"/>
<path d="M41.3051 30.9392C41.3051 30.9392 41.4852 31.1765 41.4337 31.4074C41.4337 31.4074 41.8194 31.2855 41.6137 30.7146C41.6137 30.7147 41.3501 30.6442 41.3051 30.9392Z" fill="#82AFFF"/>
<path d="M40.7005 31.2503C40.7005 31.2503 40.8063 31.5486 40.662 31.8131C40.662 31.8131 41.143 31.7986 41.0468 31.207C41.047 31.207 40.8929 31.0483 40.7005 31.2503Z" fill="#82AFFF"/>
<path d="M40.2205 31.2214C40.2205 31.2214 40.1337 31.4715 40.2205 31.7121C40.2205 31.7121 39.825 31.6881 39.8925 31.1204C39.8924 31.1204 40.1048 31.0435 40.2205 31.2214Z" fill="#82AFFF"/>
<path d="M40.5701 25.4681C40.6066 25.1714 42.4655 24.9966 42.3501 26.5585C42.3501 26.5585 42.5564 26.5547 42.6577 26.7467C42.7591 26.9387 42.9765 26.8916 43.0417 26.8228C43.0417 26.8228 43.0273 27.1705 42.5962 27.156C42.5962 27.156 42.7326 27.2634 42.7133 27.4204C42.694 27.5774 42.5804 27.7754 42.5877 27.9106C42.5949 28.0459 42.723 28.2343 42.723 28.2343C42.723 28.2343 42.3921 28.1208 42.3704 27.8842C42.3486 27.6476 42.4018 27.4495 42.3366 27.3288C42.3366 27.3288 42.368 27.4954 42.2207 27.7056C42.0734 27.9157 42.0662 28.1716 42.1266 28.331C42.1266 28.331 41.7596 28.1498 41.8296 27.7997C41.8996 27.4496 41.9745 27.481 41.9407 27.2854C41.9407 27.2854 41.5592 27.6741 41.6243 28.005C41.6243 28.005 41.5024 27.8589 41.5132 27.5837C41.524 27.3084 41.7151 27.1232 41.7151 27.1232C41.7151 27.1232 40.445 26.4879 40.5701 25.4681Z" fill="#FF4B55"/>
<path d="M41.3306 22.8058C41.2599 22.7583 41.1643 22.7781 41.1172 22.8495C41.0199 22.9965 40.8915 23.0825 40.7252 23.1123C40.1744 23.2079 39.3802 22.6655 39.1496 22.4959C38.8153 22.2502 38.4024 22.2075 38.1283 22.3764C38.0189 22.4126 37.6845 22.518 37.5 22.518C37.3154 22.518 36.981 22.4125 36.8716 22.3764C36.5975 22.2075 36.1845 22.2502 35.8503 22.4959C35.6198 22.6655 34.8255 23.2078 34.2747 23.1123C34.1083 23.0825 33.98 22.9966 33.8827 22.8495C33.8356 22.7783 33.74 22.7585 33.6693 22.8058C33.5984 22.8527 33.579 22.9484 33.6258 23.019C33.7702 23.2374 33.9703 23.3705 34.2207 23.4152C34.2839 23.4266 34.3486 23.4317 34.4144 23.4317C35.0019 23.4317 35.6667 23.0126 36.0324 22.7441C36.3043 22.5444 36.6092 22.5448 36.7465 22.6605C36.7812 22.6899 36.8207 22.7363 36.8112 22.7907C36.8061 22.8205 36.7865 22.8473 36.7539 22.8698C36.7618 22.8226 36.7474 22.7723 36.711 22.7357C36.6508 22.6756 36.5535 22.6756 36.4933 22.7357C36.415 22.8137 36.4065 22.9401 36.4724 23.0431C36.5387 23.1462 36.6816 23.2216 36.8513 23.1588C36.9375 23.1266 37.0065 23.0652 37.0542 22.99C37.2882 22.922 37.5 22.9215 37.5 22.9215C37.5 22.9215 37.7119 22.9219 37.9458 22.99C37.9936 23.0652 38.0625 23.1266 38.1488 23.1588C38.3185 23.2216 38.4613 23.1462 38.5277 23.0431C38.5936 22.9402 38.5851 22.8137 38.5068 22.7357C38.4466 22.6756 38.3493 22.6756 38.2891 22.7357C38.2527 22.7723 38.2384 22.8225 38.2462 22.8698C38.2136 22.8473 38.1941 22.8205 38.1889 22.7907C38.1794 22.7363 38.2189 22.6899 38.2536 22.6605C38.3909 22.5448 38.6957 22.5445 38.9677 22.7441C39.3334 23.0127 39.9982 23.4317 40.5857 23.4317C40.6515 23.4317 40.7162 23.4266 40.7794 23.4152C41.0298 23.3704 41.2299 23.2372 41.3743 23.019C41.4209 22.9484 41.4016 22.8527 41.3306 22.8058Z" fill="#FFE15A"/>
<path d="M33.5779 22.9759C33.5779 22.9759 33.5525 22.6318 33.5415 22.5195C33.5306 22.4072 33.3201 22.3239 33.2401 22.4362C33.1602 22.5485 33.1385 22.755 33.5779 22.9759Z" fill="#82AFFF"/>
<path d="M33.6514 22.8654C33.6514 22.8654 33.9553 22.62 33.9166 22.4902C33.8781 22.3603 33.7961 22.293 33.6948 22.3315C33.5934 22.37 33.5453 22.6056 33.6514 22.8654Z" fill="#82AFFF"/>
<path d="M34.2437 22.6729C34.2873 22.6294 34.3015 22.4179 34.181 22.3939C34.0605 22.3699 33.9013 22.5575 33.9109 22.7885C33.9109 22.7884 34.1616 22.7548 34.2437 22.6729Z" fill="#82AFFF"/>
<path d="M34.1178 22.7932C33.9783 22.8378 33.8436 22.9568 33.8436 22.9568C33.8436 22.9568 34.0937 23.1395 34.267 23.0819C34.4402 23.0243 34.3585 22.7163 34.1178 22.7932Z" fill="#82AFFF"/>
<path d="M38.1302 18.9699C38.1302 18.9699 38.1084 19.2416 37.7064 19.1691C37.7064 19.1691 37.7173 18.8866 38.1302 18.9699Z" fill="#F5F5F5"/>
<path d="M41.4229 22.9759C41.4229 22.9759 41.4482 22.6318 41.4592 22.5195C41.47 22.4072 41.6806 22.3239 41.7606 22.4362C41.8404 22.5485 41.8623 22.755 41.4229 22.9759Z" fill="#82AFFF"/>
<path d="M41.3493 22.8654C41.3493 22.8654 41.0454 22.62 41.0841 22.4902C41.1227 22.3603 41.2046 22.293 41.3059 22.3315C41.4073 22.37 41.4554 22.6056 41.3493 22.8654Z" fill="#82AFFF"/>
<path d="M40.7572 22.6729C40.7135 22.6294 40.6993 22.4179 40.8199 22.3939C40.9404 22.3699 41.0996 22.5575 41.09 22.7885C41.0899 22.7884 40.8392 22.7548 40.7572 22.6729Z" fill="#82AFFF"/>
<path d="M40.8819 22.7932C41.0215 22.8378 41.1561 22.9568 41.1561 22.9568C41.1561 22.9568 40.906 23.1395 40.7328 23.0819C40.5595 23.0243 40.6414 22.7163 40.8819 22.7932Z" fill="#82AFFF"/>
<path d="M37.3409 19.61L37.4633 19.732C37.4839 19.7526 37.5173 19.7526 37.5377 19.732L37.6601 19.61C37.6933 19.5769 37.6698 19.5203 37.6228 19.5203H37.378C37.3312 19.5203 37.3078 19.5769 37.3409 19.61Z" fill="#464655"/>
<path d="M37.2762 20.1108C37.1857 20.1108 37.1073 20.0783 37.0541 20.0184C36.999 19.9561 36.9757 19.8704 36.9896 19.7832C36.9945 19.754 37.0238 19.7363 37.0513 19.7387C37.0807 19.7436 37.1006 19.7711 37.0959 19.8006C37.0871 19.8557 37.1012 19.9088 37.1347 19.9467C37.1693 19.9855 37.2221 20.0035 37.2869 20.0026C37.4223 19.9973 37.4449 19.865 37.4459 19.8596L37.4452 19.6181C37.4452 19.5883 37.4693 19.5643 37.499 19.5643C37.5288 19.5643 37.5529 19.5883 37.5529 19.6181V19.868C37.5398 19.9543 37.4693 20.1031 37.2911 20.1104C37.2864 20.1108 37.2812 20.1108 37.2762 20.1108Z" fill="#464655"/>
<path d="M37.7224 20.1108C37.7174 20.1108 37.7123 20.1108 37.7071 20.1105C37.529 20.1033 37.4585 19.9544 37.446 19.8765L37.4453 19.6182C37.4453 19.5884 37.4693 19.5644 37.4991 19.5644C37.5289 19.5644 37.5529 19.5884 37.5529 19.6182V19.8681C37.5548 19.8735 37.58 19.9977 37.7112 20.0028C37.7779 20.0039 37.8288 19.9863 37.8635 19.9468C37.897 19.9089 37.9111 19.8558 37.9022 19.8007C37.8977 19.7713 37.9175 19.7436 37.9469 19.7388C37.975 19.7353 38.0039 19.7538 38.0086 19.7833C38.0226 19.8705 37.9991 19.9562 37.9441 20.0185C37.8911 20.0784 37.8129 20.1108 37.7224 20.1108Z" fill="#464655"/>
<path d="M39.3472 27.931C39.3472 27.931 38.9624 27.3153 38.5134 27.7258C38.0643 28.1363 37.8976 28.6366 37.3845 28.598C37.1029 28.5769 36.9591 28.4483 36.8844 28.3359C37.0207 28.2237 37.1174 28.0533 37.0125 27.8026C36.7815 27.251 35.935 27.4179 35.704 28.0207C35.704 28.0207 35.9734 27.1355 35.0369 27.4307C35.0369 27.4307 34.9215 26.8149 34.3827 26.9816C34.0897 27.0724 33.9813 27.2526 33.9411 27.3995C33.8277 27.3731 33.6821 27.3739 33.5488 27.4819L34.2287 29.3164L35.255 29.3292L35.4859 29.6755L36.8329 30.5221L37.0767 31.0353H37.9233C37.9233 31.0353 37.9875 30.5094 38.4365 30.3554C38.8855 30.2014 39.6167 29.8807 39.6937 29.5985C39.7707 29.3163 39.7707 29.3163 39.7707 29.3163L40.5917 29.3291C40.6814 29.2649 41.2845 28.2771 41.2845 28.2771L41.5643 27.005C41.4098 26.9828 39.6416 26.7534 39.3472 27.931Z" fill="#F5F5F5"/>
<path d="M41.5666 26.9946L41.5641 27.0057C41.5716 27.0068 41.5801 27.0081 41.5801 27.0081L41.5666 26.9946Z" fill="#F5F5F5"/>
<path d="M35.9788 29.8982C35.6462 29.7641 35.5274 29.5762 35.4863 29.4761C35.4481 29.3835 35.4556 29.3179 35.4661 29.2939C35.4873 29.2449 35.513 29.2136 35.5369 29.2076C35.5595 29.2022 35.588 29.2151 35.5931 29.2183C35.6039 29.2306 35.6096 29.2697 35.5993 29.2793C35.5374 29.3376 35.5346 29.435 35.5928 29.497C35.6513 29.5589 35.7483 29.5617 35.8104 29.5036C35.8737 29.4441 35.91 29.3608 35.9125 29.2691C35.9154 29.1708 35.8794 29.0728 35.8166 29.0066C35.7535 28.9399 35.6241 28.8791 35.4862 28.9037C35.4578 28.9087 35.4258 28.9203 35.393 28.9362C35.4146 28.7229 35.3324 28.6137 35.2721 28.5697C35.1706 28.4959 35.0262 28.4943 34.9046 28.5655C34.7803 28.6385 34.7131 28.7663 34.7295 28.8987C34.74 28.9831 34.8247 29.0337 34.9073 29.0223C34.9917 29.012 35.058 28.9249 35.0476 28.8408C35.0651 28.8248 35.0881 28.8195 35.0873 28.8158C35.0876 28.8161 35.1079 28.8497 35.0834 28.9583C35.045 29.1285 34.9551 29.2331 34.8158 29.2699C34.6425 29.3177 34.4204 29.2447 34.2891 29.1005C34.1066 28.8996 33.7246 27.8338 33.4974 27.1239C34.4712 26.6621 34.5908 25.8948 34.5723 25.4672C34.5442 24.816 34.1546 24.1497 33.7213 24.0123C33.5508 23.9584 33.2954 23.9473 33.11 24.0429C33.0051 24.0977 32.9322 24.1815 32.8994 24.2858C32.8325 24.4986 32.9664 24.6746 33.1265 24.732C33.2924 24.7915 33.4598 24.7199 33.5241 24.5615C33.556 24.4827 33.5212 24.3925 33.4425 24.3606C33.3633 24.3279 33.277 24.3663 33.2453 24.4448C33.2389 24.4483 33.2175 24.4403 33.2015 24.4222C33.19 24.4089 33.1876 24.396 33.1932 24.3784C33.1983 24.3621 33.2099 24.338 33.2523 24.3161C33.3529 24.2635 33.5211 24.2715 33.6285 24.3055C33.8764 24.3839 34.2385 24.869 34.2648 25.4802C34.2805 25.8456 34.1697 26.5152 33.2504 26.8967C33.1766 26.9274 33.1387 27.0089 33.1625 27.085C33.2225 27.2771 33.758 28.9738 34.0613 29.3072C34.2245 29.4867 34.4711 29.591 34.7069 29.591C34.7708 29.591 34.834 29.5834 34.8944 29.5674C34.9972 29.5402 35.0831 29.4871 35.1578 29.4205C35.1652 29.477 35.1783 29.5348 35.2021 29.5926C35.2616 29.7375 35.4267 30.007 35.8877 30.1927C36.82 30.5667 36.9086 30.8168 36.9035 30.9074C36.9007 30.957 36.8722 30.9827 36.8491 30.9957C36.839 31.0015 36.8291 31.005 36.8206 31.0072C36.855 30.96 36.8612 30.8953 36.8308 30.8409C36.7893 30.7666 36.6958 30.7401 36.6215 30.7816C36.5167 30.8402 36.4436 30.9783 36.5062 31.1291C36.5551 31.2464 36.6694 31.3174 36.8014 31.3174C36.8226 31.3174 36.8443 31.3156 36.8662 31.3117C37.0579 31.2792 37.1995 31.1201 37.2108 30.925C37.2372 30.4584 36.5334 30.1208 35.9788 29.8982Z" fill="#FFE15A"/>
<path d="M39.021 29.8979C39.3536 29.7638 39.4723 29.5759 39.5134 29.4758C39.5516 29.3832 39.5441 29.3176 39.5337 29.2936C39.5125 29.2446 39.4868 29.2133 39.4629 29.2073C39.4403 29.2019 39.4118 29.2148 39.4066 29.218C39.3959 29.2303 39.3901 29.2694 39.4005 29.279C39.4625 29.3373 39.4652 29.4347 39.407 29.4967C39.3485 29.5586 39.2514 29.5614 39.1893 29.5032C39.126 29.4438 39.0897 29.3605 39.0873 29.2688C39.0844 29.1705 39.1204 29.0725 39.1832 29.0063C39.2463 28.9396 39.3756 28.8788 39.5135 28.9034C39.542 28.9084 39.574 28.92 39.6067 28.9359C39.5851 28.7226 39.6673 28.6134 39.7277 28.5694C39.8292 28.4956 39.9736 28.494 40.0952 28.5652C40.2195 28.6382 40.2867 28.766 40.2703 28.8984C40.2597 28.9828 40.1751 29.0334 40.0924 29.022C40.0081 29.0117 39.9418 28.9246 39.9521 28.8405C39.9346 28.8245 39.9117 28.8192 39.9125 28.8155C39.9122 28.8157 39.8919 28.8494 39.9164 28.958C39.9547 29.1281 40.0447 29.2328 40.1839 29.2696C40.3573 29.3174 40.5794 29.2444 40.7106 29.1002C40.8931 28.8993 41.2752 27.8335 41.5023 27.1236C40.5286 26.6617 40.4089 25.8945 40.4274 25.4669C40.4555 24.8157 40.8452 24.1494 41.2785 24.0119C41.449 23.9581 41.7044 23.947 41.8897 24.0426C41.9947 24.0974 42.0675 24.1812 42.1003 24.2855C42.1672 24.4983 42.0334 24.6743 41.8732 24.7317C41.7074 24.7911 41.54 24.7196 41.4756 24.5612C41.4437 24.4824 41.4786 24.3922 41.5573 24.3603C41.6365 24.3276 41.7227 24.366 41.7545 24.4445C41.7609 24.448 41.7823 24.44 41.7982 24.4219C41.8097 24.4086 41.8122 24.3957 41.8065 24.3781C41.8014 24.3618 41.7898 24.3377 41.7474 24.3158C41.6468 24.2632 41.4787 24.2712 41.3712 24.3052C41.1233 24.3836 40.7613 24.8687 40.7349 25.4799C40.7192 25.8452 40.83 26.5149 41.7494 26.8964C41.8231 26.9271 41.8611 27.0086 41.8373 27.0847C41.7772 27.2768 41.2418 28.9735 40.9384 29.3069C40.7753 29.4864 40.5287 29.5906 40.2928 29.5906C40.229 29.5906 40.1658 29.5831 40.1053 29.5671C40.0025 29.5399 39.9167 29.4868 39.842 29.4202C39.8345 29.4767 39.8214 29.5345 39.7976 29.5923C39.7381 29.7372 39.573 30.0067 39.1121 30.1924C38.1798 30.5664 38.0912 30.8165 38.0963 30.9071C38.0992 30.9567 38.1275 30.9824 38.1506 30.9954C38.1607 31.0012 38.1707 31.0047 38.1792 31.0069C38.1448 30.9597 38.1385 30.895 38.1689 30.8405C38.2104 30.7663 38.304 30.7398 38.3783 30.7813C38.4831 30.8399 38.5561 30.9779 38.4935 31.1288C38.4447 31.2461 38.3303 31.3171 38.1983 31.3171C38.1771 31.3171 38.1554 31.3153 38.1336 31.3113C37.9419 31.2789 37.8003 31.1198 37.7889 30.9247C37.7625 30.4581 38.4664 30.1205 39.021 29.8979Z" fill="#FFE15A"/>
</g>
<defs>
<clipPath id="clip0_9_4557">
<rect width="50" height="50" fill="white" transform="translate(0 0.160156)"/>
</clipPath>
</defs>
</svg>
