<svg width="51" height="51" viewBox="0 0 51 51" fill="none" xmlns="http://www.w3.org/2000/svg">
    <g clip-path="url(#clip0_9_4525)">
        <path
            d="M49.5647 8.78076H1.28899C0.812914 8.78076 0.42688 9.1668 0.42688 9.64287V40.6772C0.42688 41.1533 0.812914 41.5393 1.28899 41.5393H49.5648C50.0408 41.5393 50.4269 41.1533 50.4269 40.6772V9.64287C50.4268 9.1668 50.0407 8.78076 49.5647 8.78076Z"
            fill="#FF6E55" />
        <path
            d="M0.744848 41.331L50.1087 8.98916C49.9593 8.86484 49.7742 8.78076 49.5647 8.78076H1.28899C0.812914 8.78076 0.42688 9.1668 0.42688 9.64287V40.6772C0.42688 40.9437 0.554907 41.1729 0.744848 41.331Z"
            fill="#FFE15A" />
        <path
            d="M27.9181 17.5454C27.4849 17.6382 26.8043 17.4062 26.8043 17.4062C26.9446 17.6477 27.3196 17.8103 27.6577 17.9126C27.3847 17.9399 27.0733 17.9553 26.7269 17.9477C25.3346 17.9166 24.685 18.8294 24.685 18.8294C25.18 18.52 25.6905 18.52 26.4485 18.6284C27.2065 18.7367 28.8153 18.2572 28.8153 18.2572L28.9545 17.6384C28.9545 17.6383 28.3513 17.4527 27.9181 17.5454Z"
            fill="#FFF5DC" />
        <path
            d="M29.3491 14.6451C29.3491 14.6451 30.069 14.7976 30.7995 15.2169C30.7556 15.2399 30.7135 15.2681 30.6735 15.3012C30.4373 15.1838 30.1521 15.0888 29.7821 15.0511C29.7821 15.0511 30.1651 15.1507 30.5329 15.4388C30.4377 15.551 30.3592 15.6787 30.2988 15.7921C29.4895 14.9244 28.6143 15.5036 28.6143 15.5036C29.6999 15.4211 29.9561 16.1186 30.0172 16.4555C29.807 16.315 29.6089 16.1992 29.4232 16.1049C29.4504 16.0845 29.4642 16.0662 29.4961 16.0452C29.4961 16.0452 29.4281 16.0479 29.3338 16.062C27.9483 15.3961 27.2685 15.9213 27.2685 15.9213C27.8838 15.8462 28.4525 16.0061 28.9036 16.2053C28.7054 16.3195 28.5711 16.5206 28.6819 16.8624C27.9048 16.6509 26.9283 16.4426 26.4486 16.5711C25.5823 16.8031 25.8608 17.6075 25.8608 17.6075C25.8608 17.6075 25.8763 17.0661 26.4641 16.9422C26.9041 16.8496 29.0938 17.5456 29.0938 17.5456L29.8053 17.2052L29.5114 16.9577C29.5114 16.9577 28.9466 16.7309 29.1888 16.3413C29.5938 16.5572 29.8517 16.7719 29.8517 16.7719L30.0258 16.5175C30.0343 16.5834 30.0373 16.6328 30.0373 16.6328L30.5323 16.4163L30.6406 16.2615C30.684 16.0267 30.7557 15.8597 30.8382 15.7347C30.9814 15.9147 31.0998 16.137 31.1589 16.4122L31.6075 16.4587C31.6075 16.4587 31.5347 15.9401 31.0327 15.5277C31.0773 15.4961 31.1212 15.4698 31.1645 15.4523C31.495 15.6895 31.8033 15.9861 32.0174 16.3582L32.8449 16.3465C32.8451 16.3467 31.4838 14.8307 29.3491 14.6451Z"
            fill="#FFF5DC" />
        <path
            d="M37.2461 22.9905C37.8185 22.9905 38.2825 22.5265 38.2825 21.9541C38.2825 21.3817 37.8185 20.9177 37.2461 20.9177C36.6737 20.9177 36.2097 21.3817 36.2097 21.9541C36.2097 22.5265 36.6737 22.9905 37.2461 22.9905Z"
            fill="#FFF5DC" />
        <path
            d="M34.8262 32.0681C35.5941 32.0681 36.2166 31.4456 36.2166 30.6777C36.2166 29.9097 35.5941 29.2872 34.8262 29.2872C34.0583 29.2872 33.4358 29.9097 33.4358 30.6777C33.4358 31.4456 34.0583 32.0681 34.8262 32.0681Z"
            fill="#FFF5DC" />
        <path
            d="M24.2268 31.1059C24.8354 31.1059 25.3289 30.6125 25.3289 30.0038C25.3289 29.3952 24.8354 28.9018 24.2268 28.9018C23.6182 28.9018 23.1248 29.3952 23.1248 30.0038C23.1248 30.6125 23.6182 31.1059 24.2268 31.1059Z"
            fill="#FFF5DC" />
        <path
            d="M21.6915 36.5096C22.3943 36.5096 22.964 35.9399 22.964 35.2372C22.964 34.5344 22.3943 33.9647 21.6915 33.9647C20.9888 33.9647 20.4191 34.5344 20.4191 35.2372C20.4191 35.9399 20.9888 36.5096 21.6915 36.5096Z"
            fill="#FFF5DC" />
        <path
            d="M33.8119 19.2472C33.8119 19.2472 36.1949 20.0964 36.7703 20.3841C37.5825 20.7902 38.8587 19.6068 39.7519 20.5234C39.7519 20.5234 39.5972 19.9124 38.8548 19.866C38.8548 19.866 38.8703 19.2627 38.1742 19.2937C38.1742 19.2937 38.6847 19.6649 38.3908 19.928C38.3908 19.928 38.1897 19.4794 37.6173 19.5568C37.6173 19.5568 38.0504 19.7269 37.9422 19.9899C37.9422 19.9899 37.2538 20.3224 36.9444 20.1059C36.6351 19.8893 34.191 18.5706 33.4175 18.5396L33.8119 19.2472Z"
            fill="#FFF5DC" />
        <path
            d="M33.2017 19.9896C33.2017 19.9896 33.7121 20.1405 34.4547 20.9177C34.7987 21.278 35.6844 21.3006 35.5452 20.6044C35.406 19.9083 33.689 19.4791 33.5033 19.4791C33.3178 19.4791 33.2017 19.9896 33.2017 19.9896Z"
            fill="#F5F5F5" />
        <path
            d="M36.9216 18.4583L35.947 18.7832C35.947 18.7832 36.0553 19.4445 35.4984 19.7345C35.1554 19.9132 34.9261 20.3764 34.9415 20.7167C34.9415 20.7167 35.2664 20.2681 35.7303 20.0207C35.8396 19.9623 35.9404 19.9113 36.0322 19.8594C36.0137 20.0914 36.0088 20.3348 36.0398 20.5466C36.1326 21.1808 35.9315 21.3974 35.9315 21.3974C35.9315 21.3974 36.473 20.9797 36.411 20.2992C36.3872 20.0376 36.43 19.8524 36.4966 19.7118C36.5446 20.1857 36.7976 20.4076 36.7976 20.4076C36.612 20.0364 36.9987 19.634 37.1535 19.3092C37.3083 18.9841 36.9216 18.4583 36.9216 18.4583Z"
            fill="#FFF5DC" />
        <path
            d="M39.3849 17.1124C39.0012 16.982 38.6308 17.2168 38.4103 17.4141C38.3164 17.4981 38.0692 17.5407 37.8162 17.5637C37.9851 17.4442 38.165 17.303 38.2596 17.1821C38.4684 16.9153 38.8513 16.8689 39.1761 16.7645C39.501 16.6601 39.6403 16.2424 39.6403 16.2424C39.6403 16.2424 39.4662 16.4977 38.9789 16.4744C38.4916 16.4512 38.3292 16.4279 38.0043 16.7761C37.9044 16.8831 37.7646 16.9658 37.6196 17.0323C37.6227 16.8803 37.6359 16.6868 37.6794 16.5557C37.7607 16.312 38.1319 16.1149 38.1551 15.6276C38.1783 15.1403 38.2016 15.1867 38.48 14.8966C38.7584 14.6066 38.8397 14.0613 38.7584 14.2353C38.6772 14.4093 38.306 14.6182 37.9927 14.9082C37.6794 15.1983 37.8999 15.5231 37.7374 15.7783C37.575 16.0336 37.1922 16.0916 37.1689 16.5672C37.1457 17.0429 36.8092 17.3213 36.8092 17.3213C36.8092 17.3213 35.9855 17.7737 36.9716 18.1335C37.9578 18.4932 38.7556 17.4926 39.2455 17.5187C40.3361 17.5767 40.6261 17.217 40.6261 17.217C40.4407 17.2169 39.965 17.3097 39.3849 17.1124Z"
            fill="#FFF5DC" />
        <path
            d="M27.4235 24.7541C27.3617 24.7076 26.2943 23.5321 25.9385 23.3618L26.0158 23.6558C26.0158 23.6558 25.7838 23.6403 25.3661 23.1298C24.9484 22.6194 24.6391 22.4801 24.6391 22.4801C24.6391 22.4801 24.933 22.9443 24.9175 23.2381C24.9175 23.2381 24.2832 23.1916 23.6026 23.5165C23.6026 23.5165 23.2933 22.9132 23.0304 22.805C23.0304 22.805 23.1231 23.4393 22.9066 23.5939C22.69 23.7487 24.9485 24.8159 25.2579 24.8469C25.5673 24.8779 27.4235 24.7541 27.4235 24.7541Z"
            fill="#FFF5DC" />
        <path
            d="M28.8313 22.4492C28.8094 22.4438 28.6952 22.524 28.5479 22.6292C28.4829 22.2535 28.3519 21.494 28.3519 21.4592C28.3519 21.4127 27.2999 19.9433 27.2689 19.8814C27.2684 19.8803 27.2649 19.8802 27.2642 19.8792C27.3663 19.6321 27.4764 19.2114 26.8513 19.541C26.0004 19.9898 25.6602 21.0261 25.6602 21.0261C25.8541 20.8237 26.1926 20.6692 26.4627 20.5689C26.4683 20.695 26.4692 20.8448 26.2943 21.1034C25.9385 21.6293 26.1395 21.8305 26.1395 21.8305C26.418 21.351 27.0367 21.3045 27.0367 21.3045C26.9439 21.8769 27.2687 22.2017 27.2687 22.2017L27.5316 21.8923C27.4992 22.3352 27.7362 22.8104 27.8836 23.0601C27.8254 23.0882 27.7723 23.1098 27.7328 23.1143C27.4697 23.1453 27.0522 23.3463 27.0522 23.3463C27.0522 23.3463 27.3907 23.2741 27.5829 23.4226C27.775 23.5711 28.0809 23.6847 28.2468 23.6497C28.2468 23.6497 28.1681 24.0516 28.2555 24.2C28.2555 24.2 28.037 24.1387 27.7837 24.1476C27.5304 24.1563 27.346 23.9806 27.346 23.9806C27.346 23.9806 27.8102 24.6456 28.1504 24.7849C28.4906 24.9241 29.0785 24.4137 29.0785 24.4137C29.0785 24.4137 28.8933 22.4646 28.8313 22.4492Z"
            fill="#FFF5DC" />
        <path
            d="M20.8338 32.1483C20.8338 32.1483 20.5398 32.1793 20.2615 32.597L20.1378 32.1639C20.1378 32.1639 19.7975 32.4114 19.4263 32.2566C19.4263 32.2566 19.7666 32.1793 19.8284 31.8699C19.8902 31.5606 20.0141 31.5296 20.0141 31.5296C20.0141 31.5296 19.782 31.282 19.5346 31.2976C19.5346 31.2976 20.2151 30.9417 20.5865 31.282C20.9574 31.6224 20.8338 32.1483 20.8338 32.1483Z"
            fill="#FFF5DC" />
        <path
            d="M29.0168 28.7297C29.0168 28.7297 28.7228 28.7606 28.4445 29.1783L28.3208 28.7451C28.3208 28.7451 27.9804 28.9927 27.6093 28.8379C27.6093 28.8379 27.9496 28.7605 28.0114 28.4512C28.0732 28.1418 28.197 28.1108 28.197 28.1108C28.197 28.1108 27.965 27.8633 27.7176 27.8788C27.7176 27.8788 28.3981 27.5229 28.7695 27.8633C29.1406 28.2037 29.0168 28.7297 29.0168 28.7297Z"
            fill="#FFF5DC" />
        <path
            d="M34.0344 24.3288C34.0344 24.3288 33.8908 24.5872 34.0728 25.055L33.6472 24.9075C33.6472 24.9075 33.6543 25.3283 33.3144 25.5432C33.3144 25.5432 33.4466 25.2202 33.2289 24.9918C33.0112 24.7634 33.0569 24.6444 33.0569 24.6444C33.0569 24.6444 32.7211 24.6921 32.5915 24.9036C32.5915 24.9036 32.6912 24.1421 33.183 24.0337C33.6749 23.9254 34.0344 24.3288 34.0344 24.3288Z"
            fill="#FFF5DC" />
        <path d="M35.5242 29.5566L35.8236 29.7352C35.7365 29.6603 35.6331 29.6041 35.5242 29.5566Z"
            fill="#FF6E55" />
        <path
            d="M18.6376 31.05C18.6376 31.05 17.2609 32.9836 15.6831 33.4013L16.24 32.6897C16.24 32.6897 15.4974 33.3394 14.6622 33.4786L15.6676 32.3185C15.6676 32.3185 13.4247 34.4068 10.5474 34.8399C10.5474 34.8399 12.775 33.4323 13.2236 32.9372C13.2236 32.9372 12.1407 33.3704 11.1662 33.3858C11.1662 33.3858 13.9661 32.3029 14.4301 31.8699C14.4301 31.8699 13.3164 32.1175 12.6203 31.8854C12.6203 31.8854 15.0335 31.1894 15.3737 31.2821C15.3737 31.2821 13.9814 30.7252 13.1461 30.7871C13.1461 30.7871 14.5693 30.4468 16.2245 30.7871L15.8686 30.4004C15.8686 30.4004 16.8123 30.1528 17.7404 30.091C18.6685 30.0292 18.2045 29.9518 18.2045 29.9518L18.3128 29.6424C18.3128 29.6424 17.7095 29.7197 17.2146 29.6424C17.2146 29.6424 18.6997 28.807 19.1173 28.4358C19.535 28.0647 19.2566 28.2348 19.2566 28.2348C19.2566 28.2348 18.4831 28.4977 18.2046 28.5441C18.2046 28.5441 18.9007 27.7397 19.1173 27.2138C19.1173 27.2138 18.4831 27.4613 17.9416 27.2138C17.9416 27.2138 18.5914 27.0281 18.9163 26.7033C19.2412 26.3784 19.7206 25.5702 19.7206 25.5702L19.1637 25.8139C19.1637 25.8139 19.651 24.9785 20.0803 24.7697C20.0803 24.7697 19.3494 24.8277 19.1174 24.6537C19.1174 24.6537 19.8948 24.4681 20.1268 24.2825C20.3588 24.0969 20.8694 23.6096 21.3913 23.7952C21.3913 23.7952 22.1223 23.1223 21.8787 22.6815C21.8787 22.6815 22.3543 22.7162 22.598 23.0064C22.8416 23.2964 23.2245 23.54 23.2245 23.54L21.2367 25.0946L19.7207 30.0138L18.6376 31.05Z"
            fill="#FFF5DC" />
        <path
            d="M38.1134 21.7685C38.6859 22.6967 37.9742 22.7895 37.9742 22.7895C37.8659 21.9078 37.1234 22.0162 37.1234 22.0162L37.3245 22.6659C36.087 22.8207 36.1797 21.583 36.1797 21.583C35.9941 21.7378 35.6847 22.3719 35.6847 22.3719C35.6847 22.3719 32.3434 23.4856 30.0849 20.1753C30.0849 20.1753 30.0231 19.5874 30.2088 19.3089L28.8165 18.257L27.0221 18.5046C27.0221 18.5046 26.3105 20.1133 27.1768 21.1034C28.0431 22.0933 29.064 23.4856 28.8784 24.1353C28.7683 24.5205 28.4409 24.6772 27.9863 24.6445C27.6739 24.622 27.3016 24.5099 26.8985 24.321C25.9085 23.8568 23.4953 22.867 21.7628 23.6713C20.0303 24.4757 19.8423 25.8676 19.5043 26.9508C19.2051 27.9095 18.5411 30.3574 13.811 32.5907C13.5851 32.6973 13.7 33.0408 13.9425 32.9805C15.9929 32.4708 18.7883 31.6214 19.6512 30.617L20.3473 30.6401L20.092 31.7075C20.092 31.7075 20.997 31.9859 21.1361 33.3086C21.1361 33.3086 19.5506 33.7417 20.4477 35.103C20.4477 35.103 20.587 34.1129 21.6852 34.0666C21.6852 34.0666 21.9328 34.3915 22.4741 34.4378C22.4741 34.4378 22.7525 34.8865 22.6134 35.2577C22.6134 35.2577 23.7116 34.9173 22.7835 33.6024C22.7835 33.6024 23.8199 33.3549 23.9592 34.6544C23.9592 34.6544 24.6244 32.5505 22.2499 32.7052C22.2499 32.7052 22.2499 32.334 21.6234 31.6611C21.6234 31.6611 21.4688 31.282 21.6234 30.7561C21.67 30.5978 21.7121 30.4336 21.7473 30.2662C21.8763 30.3378 22.0746 30.4223 22.335 30.4314C22.335 30.4314 22.7217 31.0656 23.8664 30.9573C23.8664 30.9573 23.031 30.5707 23.1084 29.8281C23.1857 29.0855 24.1603 28.6834 24.578 28.9772C24.578 28.9772 24.4697 28.0026 22.9538 28.6369C22.9538 28.6369 22.9538 27.9098 23.7582 27.8635C23.7582 27.8635 22.4589 26.8735 22.1648 28.7607L21.6271 28.8951C21.3644 28.1669 21.0316 26.476 22.5052 25.8602C24.0598 25.2105 25.6841 26.6724 28.5613 26.8116C28.5613 26.8116 28.2829 28.5054 29.211 28.9231C30.1391 29.3408 32.4131 29.7353 32.4131 29.7353C32.3899 32.1794 34.1687 31.8545 34.1687 31.8545C33.3053 31.3371 33.3053 30.35 33.8382 29.7734C34.5645 28.9877 35.8239 29.7351 35.8239 29.7351C35.8061 28.5455 34.1378 28.7296 34.1378 28.7296C34.4007 27.9562 35.4371 27.755 35.4371 27.755C33.9985 27.2291 32.8074 28.7838 32.8074 28.7838L30.371 28.0877C30.371 28.0877 30.2782 27.6004 30.8583 26.9508C31.4384 26.3011 31.9257 25.2104 31.7633 24.0504C31.7633 24.0504 32.4362 23.5785 33.2715 24.0427C34.1068 24.5068 35.9011 23.4857 35.9011 23.4857C36.6747 24.4757 38.5154 24.2901 38.7628 23.0991C39.0107 21.9078 38.1134 21.7685 38.1134 21.7685Z"
            fill="#F5F5F5" />
        <path
            d="M35.5612 18.9223C35.1011 18.6539 34.2772 18.4273 33.9988 19.0461C33.7204 19.6648 33.411 20.2836 32.452 20.2526C31.4929 20.2216 31.0597 21.0415 30.3945 20.8095C30.3945 20.8095 31.0133 20.6085 31.1371 20.3145C31.2608 20.0206 31.7559 19.4792 31.7559 19.4792L31.694 18.9222C31.694 18.9222 30.5493 18.984 30.209 19.3089C29.8687 19.6338 28.5848 19.0305 28.5848 19.0305L28.7396 17.6847C28.7396 17.6847 29.7295 16.1688 31.1064 16.2771C32.4831 16.3854 32.7151 16.0296 33.3803 16.0761C34.0455 16.1225 34.3857 16.8031 35.0973 16.9578C35.8088 17.1126 37.2319 16.8185 37.4176 17.2517C37.6032 17.6848 37.0617 17.8551 36.9226 18.4583C36.7833 19.0615 36.4894 19.4638 35.5612 18.9223Z"
            fill="#F5F5F5" />
        <path
            d="M31.5395 18.5356C31.5395 18.5356 30.8742 18.9842 30.3174 18.7985C29.7605 18.6128 29.2654 18.6747 28.6932 18.8603C28.6932 18.8603 29.7451 18.7366 30.1782 19.1387C30.6113 19.5409 31.7097 19.278 31.787 19.1077L31.5395 18.5356Z"
            fill="#FFF5DC" />
        <path
            d="M31.8798 19.5719C31.8798 19.5719 31.2301 20.0361 30.5805 19.9123C29.9308 19.7885 29.343 20.0515 29.343 20.0515C29.343 20.0515 29.8225 19.5256 30.4722 19.6184C31.1219 19.7112 31.3539 19.077 31.3539 19.077L31.7871 19.108L31.8798 19.5719Z"
            fill="#FFF5DC" />
        <path
            d="M32.406 19.8664C32.8845 19.8664 33.2724 19.4785 33.2724 18.9999C33.2724 18.5214 32.8845 18.1335 32.406 18.1335C31.9275 18.1335 31.5396 18.5214 31.5396 18.9999C31.5396 19.4785 31.9275 19.8664 32.406 19.8664Z"
            fill="#FFF5DC" />
        <path
            d="M31.8952 18.35C31.8952 18.35 31.5549 17.9169 30.7041 18.0871C29.8533 18.2572 29.6522 17.9478 29.6522 17.9478C29.6522 17.9478 30.0543 18.5666 30.6886 18.4892C31.3229 18.4119 31.5858 18.8451 31.5858 18.8451L31.8952 18.35Z"
            fill="#FFF5DC" />
        <path
            d="M34.7574 17.2668C34.8339 17.1615 34.93 17.061 35.0615 16.9845C35.139 16.9394 35.2188 16.9109 35.2978 16.8874C35.3154 16.77 35.2981 16.6433 35.2311 16.5283C35.0849 16.2773 34.7809 16.182 34.552 16.3154C34.3232 16.4487 34.2562 16.7602 34.4024 17.0112C34.4845 17.152 34.617 17.2369 34.7574 17.2668Z"
            fill="#FFF5DC" />
        <path
            d="M33.9974 18.2633C34.041 18.1405 34.1048 18.0171 34.2091 17.9064C34.2708 17.8411 34.3392 17.7913 34.4083 17.7464C34.3919 17.6288 34.3395 17.5121 34.2426 17.4207C34.0314 17.2214 33.7128 17.2159 33.531 17.4085C33.3492 17.6011 33.3731 17.9189 33.5844 18.1182C33.7033 18.2305 33.8543 18.2744 33.9974 18.2633Z"
            fill="#FFF5DC" />
    </g>
    <defs>
        <clipPath id="clip0_9_4525">
            <rect width="50" height="50" fill="white" transform="translate(0.427734 0.160156)" />
        </clipPath>
    </defs>
</svg>
