<svg width="51" height="51" viewBox="0 0 51 51" fill="none" xmlns="http://www.w3.org/2000/svg">
<g clip-path="url(#clip0_9_4461)">
<path d="M0.720886 30.6198H50.7208V40.6772C50.7208 41.1533 50.3348 41.5393 49.8587 41.5393H1.58299C1.10692 41.5393 0.720886 41.1533 0.720886 40.6772V30.6198Z" fill="#73AF00"/>
<path d="M1.58299 8.78076H49.8588C50.3349 8.78076 50.7209 9.1668 50.7209 9.64287V19.7003H0.720886V9.64287C0.720886 9.1668 1.10692 8.78076 1.58299 8.78076Z" fill="#FF4B55"/>
<path d="M50.7208 19.7001H0.720886V30.619H50.7208V19.7001Z" fill="#FFE15A"/>
<path d="M24.6072 20.2731C24.6072 20.2731 24.585 20.3008 24.5434 20.3529C24.5088 20.4009 24.4567 20.4747 24.3999 20.573C24.2881 20.7682 24.1707 21.0708 24.1675 21.4316C24.1663 21.6075 24.2026 21.821 24.2626 21.9909C24.3276 22.1783 24.4355 22.3576 24.5719 22.5178C24.7086 22.6794 24.8911 22.804 25.0863 22.896C25.1831 22.9451 25.2893 22.9734 25.3947 22.9993C25.4469 23.0153 25.5026 23.016 25.5562 23.0266C25.5832 23.0317 25.6111 23.0294 25.6384 23.0316L25.6796 23.0334L25.7002 23.0345L25.7104 23.0351L25.7156 23.0354L25.7181 23.0355C25.7098 23.0358 25.7403 23.0351 25.7002 23.0362C25.767 23.0323 25.848 23.0318 25.9031 23.025C25.9511 23.0138 25.9916 23.0158 26.0467 22.9994C26.1521 22.9735 26.2583 22.9452 26.355 22.8961C26.5502 22.8041 26.7328 22.6795 26.8694 22.5179C27.0058 22.3577 27.1137 22.1784 27.1788 21.9909C27.2411 21.8002 27.2744 21.6177 27.2739 21.4308C27.2709 21.0716 27.1534 20.7679 27.0416 20.5729C26.9851 20.475 26.9329 20.4007 26.8957 20.3506C26.857 20.3013 26.8364 20.2748 26.8364 20.2748L26.8312 20.2683C26.794 20.2208 26.8024 20.1524 26.8499 20.1152C26.8874 20.0859 26.9382 20.085 26.9759 20.1092C26.9759 20.1092 27.0078 20.1296 27.0674 20.1678C27.1239 20.2102 27.2114 20.2701 27.3056 20.3669C27.4948 20.5542 27.7403 20.8878 27.8289 21.3726C27.8727 21.6046 27.8775 21.8853 27.8171 22.1612C27.7585 22.4399 27.6396 22.7281 27.4477 22.9802C27.2592 23.2335 27.006 23.4575 26.705 23.6086C26.5564 23.6878 26.3948 23.7453 26.229 23.7854C26.1495 23.8087 26.0486 23.8184 25.9588 23.8325C25.8746 23.8418 25.8147 23.842 25.7414 23.8472L25.7129 23.8473L25.7049 23.8469L25.6888 23.8461L25.6568 23.8445L25.5926 23.841C25.55 23.8376 25.5071 23.8382 25.4648 23.8309C25.3805 23.816 25.2948 23.8091 25.2126 23.7854C25.0468 23.7454 24.885 23.6878 24.7366 23.6086C24.4355 23.4575 24.1823 23.2334 23.9938 22.9802C23.802 22.728 23.6832 22.4398 23.6245 22.1612C23.5618 21.8643 23.5696 21.6147 23.6128 21.3717C23.7011 20.8884 23.9469 20.5536 24.1359 20.3667C24.2298 20.2702 24.3176 20.2098 24.3764 20.1655C24.4331 20.1299 24.4634 20.1109 24.4634 20.1109C24.5147 20.0786 24.5825 20.0941 24.6147 20.1454C24.6401 20.1863 24.6355 20.2375 24.6072 20.2731Z" fill="#73AF00"/>
<path d="M25.5042 28.8579V30.2223C25.5042 30.3584 25.3397 30.4266 25.2435 30.3304L25.1684 30.2553C25.106 30.1929 25.0709 30.1083 25.0709 30.0201V28.8579H25.5042Z" fill="#FF4B55"/>
<path d="M24.8543 28.6413V29.6316C24.8543 29.6911 24.878 29.7482 24.9202 29.7903L25.0715 29.9412V28.6413H24.8543Z" fill="#FFE15A"/>
<path d="M24.6376 28.6413V29.1727C24.6376 29.2486 24.6679 29.3214 24.7215 29.375L24.8548 29.5079V28.6413H24.6376Z" fill="#73AF00"/>
<path d="M25.9375 28.8579V30.2223C25.9375 30.3584 26.1021 30.4266 26.1982 30.3304L26.2733 30.2553C26.3357 30.1929 26.3708 30.1083 26.3708 30.0201V28.8579H25.9375Z" fill="#FF4B55"/>
<path d="M26.5879 28.6413V29.6316C26.5879 29.6911 26.5643 29.7482 26.5221 29.7903L26.3708 29.9412V28.6413H26.5879Z" fill="#FFE15A"/>
<path d="M26.8046 28.6413V29.1727C26.8046 29.2486 26.7744 29.3214 26.7207 29.375L26.5875 29.5079V28.6413H26.8046Z" fill="#73AF00"/>
<path d="M26.804 24.7416L29.1871 23.0084V26.5726C29.1871 27.5955 28.3579 28.4246 27.3352 28.4246C26.9881 28.4246 26.648 28.327 26.3536 28.1431L25.0709 27.3414V24.7115L26.804 24.7416Z" fill="#FF4B55"/>
<path d="M28.3206 23.6387V26.1394C28.3206 27.1623 27.4914 27.9914 26.4687 27.9914C26.3149 27.9914 26.1633 27.9692 26.0156 27.9318L25.0709 27.3414V24.7115L26.8041 24.7416L28.3206 23.6387Z" fill="#FFE15A"/>
<path d="M27.6707 24.1113V25.7257C27.6707 26.7485 26.8415 27.5776 25.8188 27.5776C25.665 27.5776 25.5133 27.5555 25.3656 27.5181L25.0709 27.3339V24.7115L26.8041 24.7416L27.6707 24.1113Z" fill="#73AF00"/>
<path d="M29.317 22.6184L30.2703 22.1418L29.577 23.0083H29.187L29.317 22.6184Z" fill="#F5F5F5"/>
<path d="M28.1039 25.8248L30.487 24.0916V27.6559C30.487 28.6787 29.6578 29.5078 28.635 29.5078C28.288 29.5078 27.9478 29.4103 27.6535 29.2264L26.3708 28.4246V25.7948L28.1039 25.8248Z" fill="#FF4B55"/>
<path d="M28.9706 25.1946V26.8089C28.9706 27.8318 28.1414 28.6609 27.1186 28.6609C26.9648 28.6609 26.8133 28.6387 26.6655 28.6013L26.3708 28.4171V25.7948L28.104 25.8249L28.9706 25.1946Z" fill="#73AF00"/>
<path d="M30.617 23.7016L31.5703 23.225L30.8769 24.0916H30.487L30.617 23.7016Z" fill="#F5F5F5"/>
<path d="M27.4539 25.3915L29.837 23.6583V27.2225C29.837 28.2454 29.0078 29.0745 27.9851 29.0745C27.638 29.0745 27.2979 28.9769 27.0035 28.793L25.7208 27.9913V25.3614L27.4539 25.3915Z" fill="#FF4B55"/>
<path d="M28.9706 24.2886V26.7893C28.9706 27.8121 28.1414 28.6412 27.1187 28.6412C26.9649 28.6412 26.8133 28.619 26.6656 28.5816L25.7208 27.9913V25.3614L27.454 25.3915L28.9706 24.2886Z" fill="#FFE15A"/>
<path d="M28.3206 24.7614V26.3757C28.3206 27.3986 27.4914 28.2276 26.4687 28.2276C26.3149 28.2276 26.1633 28.2055 26.0156 28.1681L25.7208 27.984V25.3616L27.454 25.3917L28.3206 24.7614Z" fill="#73AF00"/>
<path d="M29.9672 23.2683L30.9204 22.7917L30.2271 23.6583H29.8372L29.9672 23.2683Z" fill="#F5F5F5"/>
<path d="M24.6376 24.7416L22.2545 23.0084V26.5726C22.2545 27.5955 23.0837 28.4246 24.1064 28.4246C24.4535 28.4246 24.7936 28.327 25.0879 28.1431L26.3707 27.3414V24.7115L24.6376 24.7416Z" fill="#FF4B55"/>
<path d="M23.121 23.6387V26.1394C23.121 27.1623 23.9502 27.9914 24.973 27.9914C25.1268 27.9914 25.2784 27.9692 25.4261 27.9318L26.3707 27.3414V24.7115L24.6375 24.7416L23.121 23.6387Z" fill="#FFE15A"/>
<path d="M23.771 24.1113V25.7257C23.771 26.7485 24.6002 27.5776 25.6229 27.5776C25.7768 27.5776 25.9284 27.5555 26.0761 27.5181L26.3708 27.3339V24.7115L24.6376 24.7416L23.771 24.1113Z" fill="#73AF00"/>
<path d="M22.1244 22.6184L21.1712 22.1418L21.8646 23.0083H22.2544L22.1244 22.6184Z" fill="#F5F5F5"/>
<path d="M23.3376 25.8248L20.9545 24.0916V27.6559C20.9545 28.6787 21.7837 29.5078 22.8065 29.5078C23.1535 29.5078 23.4937 29.4103 23.788 29.2264L25.0707 28.4246V25.7948L23.3376 25.8248Z" fill="#FF4B55"/>
<path d="M22.4711 25.1946V26.8089C22.4711 27.8318 23.3003 28.6609 24.3231 28.6609C24.4769 28.6609 24.6284 28.6387 24.7762 28.6013L25.0709 28.4171V25.7948L23.3377 25.8249L22.4711 25.1946Z" fill="#73AF00"/>
<path d="M20.8246 23.7016L19.8713 23.225L20.5647 24.0916H20.9545L20.8246 23.7016Z" fill="#F5F5F5"/>
<path d="M23.9876 25.3915L21.6045 23.6583V27.2225C21.6045 28.2454 22.4337 29.0745 23.4564 29.0745C23.8035 29.0745 24.1436 28.9769 24.438 28.793L25.7207 27.9913V25.3614L23.9876 25.3915Z" fill="#FF4B55"/>
<path d="M22.4711 24.2886V26.7893C22.4711 27.8121 23.3003 28.6412 24.3231 28.6412C24.4769 28.6412 24.6284 28.619 24.7762 28.5816L25.7208 27.9912V25.3613L23.9876 25.3914L22.4711 24.2886Z" fill="#FFE15A"/>
<path d="M23.121 24.7614V26.3757C23.121 27.3986 23.9502 28.2276 24.973 28.2276C25.1268 28.2276 25.2784 28.2055 25.4261 28.1681L25.7208 27.9839V25.3615L23.9876 25.3916L23.121 24.7614Z" fill="#73AF00"/>
<path d="M22.8837 28.6126L22.598 28.3269C22.4249 28.1538 22.4295 27.8715 22.6084 27.7041L27.3366 23.2611L27.9494 23.8739L23.5064 28.6021C23.3391 28.7811 23.0569 28.7859 22.8837 28.6126Z" fill="#FFBE5A"/>
<path d="M22.7416 28.6864C22.8612 28.6864 22.9582 28.5894 22.9582 28.4698C22.9582 28.3501 22.8612 28.2532 22.7416 28.2532C22.6219 28.2532 22.525 28.3501 22.525 28.4698C22.525 28.5894 22.6219 28.6864 22.7416 28.6864Z" fill="#FFBE5A"/>
<path d="M27.7965 23.415C27.6273 23.2458 27.4216 23.1772 27.337 23.2618C27.2524 23.3464 27.321 23.5521 27.4902 23.7213C27.6594 23.8904 27.8651 23.959 27.9497 23.8744C28.0343 23.7898 27.9657 23.5841 27.7965 23.415Z" fill="#F5F5F5"/>
<path d="M28.5578 28.6126L28.8435 28.3269C29.0166 28.1538 29.012 27.8715 28.8331 27.7041L24.1049 23.2611L23.4921 23.8739L27.9351 28.6021C28.1025 28.7811 28.3847 28.7859 28.5578 28.6126Z" fill="#FFBE5A"/>
<path d="M28.7004 28.6864C28.8201 28.6864 28.917 28.5894 28.917 28.4698C28.917 28.3501 28.8201 28.2532 28.7004 28.2532C28.5808 28.2532 28.4838 28.3501 28.4838 28.4698C28.4838 28.5894 28.5808 28.6864 28.7004 28.6864Z" fill="#FFBE5A"/>
<path d="M23.9524 23.7215C24.1215 23.5523 24.1901 23.3466 24.1055 23.262C24.0209 23.1774 23.8152 23.246 23.646 23.4152C23.4769 23.5844 23.4083 23.7901 23.4929 23.8747C23.5775 23.9592 23.7832 23.8907 23.9524 23.7215Z" fill="#F5F5F5"/>
<path d="M25.7208 28.4252C26.7788 28.4252 27.6364 27.4067 27.6364 26.1504C27.6364 24.8941 26.7788 23.8756 25.7208 23.8756C24.6628 23.8756 23.8052 24.8941 23.8052 26.1504C23.8052 27.4067 24.6628 28.4252 25.7208 28.4252Z" fill="#FFBE5A"/>
<path d="M25.7207 24.0916L25.8225 24.533L26.0556 24.1446L26.0159 24.5958L26.3575 24.2985L26.1804 24.7153L26.5972 24.5382L26.2998 24.8799L26.751 24.8401L26.3627 25.0733L26.804 25.1749L26.3627 25.2766L26.751 25.5097L26.2998 25.47L26.5972 25.8115L26.1804 25.6345L26.3575 26.0513L26.0159 25.754L26.0556 26.2051L25.8225 25.8168L25.7207 26.2581L25.6192 25.8168L25.3861 26.2051L25.4257 25.754L25.0841 26.0513L25.2612 25.6345L24.8445 25.8115L25.1417 25.47L24.6907 25.5097L25.0788 25.2766L24.6376 25.1749L25.0788 25.0733L24.6907 24.8401L25.1417 24.8799L24.8445 24.5382L25.2612 24.7153L25.0841 24.2985L25.4257 24.5958L25.3861 24.1446L25.6192 24.533L25.7207 24.0916Z" fill="#FF4B55"/>
<path d="M28.1172 26.1092C28.1172 26.1092 27.3996 26.2987 26.9325 25.9061C26.4133 25.4696 26.0241 25.2636 25.8573 25.1862C25.8002 25.1598 25.7363 25.1598 25.6791 25.1861C25.5595 25.2413 25.3396 25.3557 25.1451 25.527C24.8607 25.7775 23.9874 26.2717 23.8114 26.2717V27.3487L25.1857 28.5398L26.8106 28.4923L28.1172 26.1092Z" fill="#73AF00"/>
<path d="M25.7207 28.9662C24.3469 28.9662 23.2292 27.7027 23.2292 26.1498C23.2292 24.5968 24.3468 23.3334 25.7207 23.3334C27.0947 23.3334 28.2122 24.5968 28.2122 26.1498C28.2122 27.7027 27.0946 28.9662 25.7207 28.9662ZM25.7207 23.9833C24.7053 23.9833 23.8792 24.9552 23.8792 26.1498C23.8792 27.3443 24.7053 28.3163 25.7207 28.3163C26.7362 28.3163 27.5623 27.3443 27.5623 26.1498C27.5623 24.9552 26.7362 23.9833 25.7207 23.9833Z" fill="#3CC8FF"/>
<path d="M25.3483 28.3775L25.396 28.5206L25.5469 28.5217C25.5664 28.5218 25.5744 28.5468 25.5588 28.5584L25.4375 28.648L25.483 28.7919C25.489 28.8105 25.4677 28.8259 25.4518 28.8145L25.329 28.7268L25.2063 28.8145C25.1904 28.8258 25.1692 28.8104 25.175 28.7919L25.2205 28.648L25.0992 28.5584C25.0835 28.5467 25.0916 28.5218 25.1112 28.5217L25.262 28.5206L25.3098 28.3775C25.3159 28.3589 25.3421 28.3589 25.3483 28.3775Z" fill="#FFBE5A"/>
<path d="M24.6712 28.0863L24.719 28.2294L24.8698 28.2305C24.8894 28.2306 24.8974 28.2556 24.8817 28.2672L24.7605 28.3568L24.806 28.5007C24.8119 28.5193 24.7906 28.5347 24.7747 28.5233L24.652 28.4356L24.5292 28.5233C24.5134 28.5346 24.4921 28.5192 24.498 28.5007L24.5435 28.3568L24.4222 28.2672C24.4065 28.2555 24.4146 28.2306 24.4341 28.2305L24.585 28.2294L24.6327 28.0863C24.6389 28.0677 24.665 28.0677 24.6712 28.0863Z" fill="#FFBE5A"/>
<path d="M24.1272 27.592L24.1749 27.7351L24.3258 27.7363C24.3454 27.7364 24.3534 27.7614 24.3377 27.7729L24.2165 27.8625L24.262 28.0064C24.2679 28.025 24.2466 28.0405 24.2307 28.0291L24.108 27.9414L23.9852 28.0291C23.9694 28.0404 23.9481 28.025 23.954 28.0064L23.9995 27.8625L23.8782 27.7729C23.8624 27.7613 23.8706 27.7364 23.8901 27.7363L24.041 27.7351L24.0887 27.592C24.0949 27.5735 24.121 27.5735 24.1272 27.592Z" fill="#FFBE5A"/>
<path d="M23.7568 26.9341L23.8046 27.0772L23.9555 27.0784C23.975 27.0785 23.983 27.1035 23.9674 27.115L23.8461 27.2047L23.8916 27.3485C23.8976 27.3672 23.8763 27.3826 23.8603 27.3712L23.7376 27.2835L23.6148 27.3712C23.599 27.3825 23.5777 27.3671 23.5836 27.3485L23.6291 27.2047L23.5078 27.115C23.4921 27.1034 23.5002 27.0785 23.5197 27.0784L23.6706 27.0772L23.7184 26.9341C23.7245 26.9156 23.7507 26.9156 23.7568 26.9341Z" fill="#FFBE5A"/>
<path d="M23.5918 26.1694L23.6395 26.3125L23.7904 26.3137C23.81 26.3138 23.818 26.3388 23.8023 26.3503L23.681 26.4399L23.7266 26.5838C23.7325 26.6024 23.7112 26.6179 23.6953 26.6064L23.5726 26.5187L23.4498 26.6064C23.434 26.6178 23.4127 26.6023 23.4185 26.5838L23.4641 26.4399L23.3428 26.3503C23.327 26.3387 23.3352 26.3138 23.3547 26.3137L23.5056 26.3125L23.5533 26.1694C23.5594 26.1509 23.5856 26.1509 23.5918 26.1694Z" fill="#FFBE5A"/>
<path d="M26.094 28.3775L26.0463 28.5206L25.8954 28.5217C25.8759 28.5218 25.8678 28.5468 25.8835 28.5584L26.0048 28.648L25.9593 28.7919C25.9533 28.8105 25.9746 28.8259 25.9905 28.8145L26.1133 28.7268L26.236 28.8145C26.2518 28.8258 26.2731 28.8104 26.2673 28.7919L26.2218 28.648L26.343 28.5584C26.3588 28.5467 26.3507 28.5218 26.3311 28.5217L26.1803 28.5206L26.1325 28.3775C26.1263 28.3589 26.1002 28.3589 26.094 28.3775Z" fill="#FFBE5A"/>
<path d="M26.771 28.0863L26.7232 28.2294L26.5724 28.2305C26.5528 28.2306 26.5448 28.2556 26.5604 28.2672L26.6817 28.3568L26.6362 28.5007C26.6303 28.5193 26.6516 28.5347 26.6675 28.5233L26.7902 28.4356L26.913 28.5233C26.9288 28.5346 26.9501 28.5192 26.9442 28.5007L26.8987 28.3568L27.02 28.2672C27.0357 28.2555 27.0276 28.2306 27.0081 28.2305L26.8572 28.2294L26.8095 28.0863C26.8033 28.0677 26.7771 28.0677 26.771 28.0863Z" fill="#FFBE5A"/>
<path d="M27.315 27.592L27.2672 27.7351L27.1164 27.7363C27.0968 27.7364 27.0888 27.7614 27.1044 27.7729L27.2257 27.8625L27.1802 28.0064C27.1743 28.025 27.1956 28.0405 27.2115 28.0291L27.3342 27.9414L27.457 28.0291C27.4728 28.0404 27.4941 28.025 27.4882 28.0064L27.4427 27.8625L27.564 27.7729C27.5797 27.7613 27.5716 27.7364 27.5521 27.7363L27.4012 27.7351L27.3535 27.592C27.3474 27.5735 27.3211 27.5735 27.315 27.592Z" fill="#FFBE5A"/>
<path d="M27.6858 26.9341L27.6381 27.0772L27.4872 27.0784C27.4677 27.0785 27.4597 27.1035 27.4753 27.115L27.5966 27.2047L27.5511 27.3485C27.5451 27.3672 27.5664 27.3826 27.5823 27.3712L27.7051 27.2835L27.8278 27.3712C27.8437 27.3825 27.8649 27.3671 27.8591 27.3485L27.8136 27.2047L27.9349 27.115C27.9506 27.1034 27.9425 27.0785 27.9229 27.0784L27.7721 27.0772L27.7243 26.9341C27.7182 26.9156 27.692 26.9156 27.6858 26.9341Z" fill="#FFBE5A"/>
<path d="M27.8496 26.1693L27.8018 26.3124L27.651 26.3136C27.6314 26.3136 27.6234 26.3386 27.6391 26.3502L27.7603 26.4398L27.7148 26.5837C27.7089 26.6023 27.7302 26.6177 27.7461 26.6063L27.8688 26.5186L27.9916 26.6063C28.0074 26.6177 28.0287 26.6022 28.0228 26.5837L27.9773 26.4398L28.0986 26.3502C28.1143 26.3386 28.1062 26.3136 28.0867 26.3136L27.9358 26.3124L27.8881 26.1693C27.882 26.1508 27.8558 26.1508 27.8496 26.1693Z" fill="#FFBE5A"/>
<path d="M24.7795 27.5387L24.8515 27.883H24.8826V27.6481C24.8826 27.6481 24.9337 27.8119 25.0062 27.883H25.0648C25.0368 27.847 24.9864 27.7723 24.9864 27.6948C24.9864 27.5883 25.0711 27.5737 25.0711 27.4598H25.1438V27.8829H25.1863L25.265 27.5059C25.265 27.5059 25.3298 27.7417 25.4519 27.8829H25.5062C25.467 27.8254 25.3857 27.677 25.4006 27.4525C25.4006 27.4525 25.5169 27.3943 25.5169 27.2369V27.0129C25.5169 26.971 25.551 26.9369 25.5929 26.9369H25.6452C25.6452 26.9369 25.5674 26.7861 25.4843 26.7643V26.6697L25.4217 26.7644C25.3619 26.7773 25.3267 26.8325 25.3267 26.8917V27.0281C25.3267 27.07 25.2927 27.1041 25.2507 27.1041H24.9791C24.8988 27.1041 24.77 27.1845 24.77 27.2875C24.77 27.3905 24.8472 27.4581 24.8472 27.4581L24.7795 27.5387Z" fill="#F5F5F5"/>
<path d="M25.9962 27.1956H25.9713C25.7744 27.2063 25.6644 27.3358 25.6644 27.3358L25.8641 27.5355V27.9113H26.1031V27.5355L26.3028 27.3358C26.3029 27.3357 26.193 27.2063 25.9962 27.1956Z" fill="#FFBE5A"/>
<path d="M26.4889 26.581H26.4166V27.9124H26.4889V26.581Z" fill="#F5F5F5"/>
<path d="M26.4545 26.5707L26.0651 27.0413C26.0651 27.0413 26.0144 26.8145 26.2412 26.5911L25.7402 26.6825C25.7402 26.6825 25.8926 26.3982 26.292 26.4286L25.8824 26.0867C25.8824 26.0867 26.2345 26.0665 26.4139 26.3305C26.4139 26.3305 26.5153 26.0259 26.7997 26.0123L26.565 26.3689C26.565 26.3689 26.7997 26.2492 27.1247 26.3542L26.6406 26.4829C26.6406 26.4829 26.9114 26.51 27.0231 26.9061L26.6034 26.6184C26.6034 26.6184 26.7321 26.7707 26.6847 27.0686L26.4545 26.5707Z" fill="#F5F5F5"/>
<path d="M21.4746 23.2683L20.5212 22.7917L21.2146 23.6583H21.6045L21.4746 23.2683Z" fill="#F5F5F5"/>
<path d="M26.3986 22.7165L28.9705 21.9251L27.6052 21.4132C27.362 21.3219 27.1043 21.2753 26.8446 21.2753H26.5874C26.4678 21.2753 26.3708 21.3723 26.3708 21.4919V21.7085H25.7207H25.0708V21.4919C25.0708 21.3723 24.9739 21.2753 24.8542 21.2753H24.5971C24.3373 21.2753 24.0796 21.3221 23.8365 21.4132L22.4711 21.9251L25.0431 22.7165C25.171 22.7559 25.2329 22.9007 25.1732 23.0205L24.8542 23.6583H26.5874L26.2685 23.0205C26.2086 22.9008 26.2705 22.756 26.3986 22.7165Z" fill="#825546"/>
<path d="M25.7208 22.3579C25.9601 22.3579 26.154 22.164 26.154 21.9247C26.154 21.6855 25.9601 21.4915 25.7208 21.4915C25.4815 21.4915 25.2876 21.6855 25.2876 21.9247C25.2876 22.164 25.4815 22.3579 25.7208 22.3579Z" fill="#F5F5F5"/>
<path d="M25.9375 21.9252C25.9375 22.0448 25.8405 22.1418 25.7209 22.1418H24.8543L25.2241 21.772C25.2648 21.7313 25.3198 21.7085 25.3774 21.7085H25.7208C25.8405 21.7086 25.9375 21.8056 25.9375 21.9252Z" fill="#FFBE5A"/>
</g>
<defs>
<clipPath id="clip0_9_4461">
<rect width="50" height="50" fill="white" transform="translate(0.720703 0.160156)"/>
</clipPath>
</defs>
</svg>
