<svg width="51" height="51" viewBox="0 0 51 51" fill="none" xmlns="http://www.w3.org/2000/svg">
    <g clip-path="url(#clip0_9_4455)">
        <path
            d="M49.2856 8.78076H1.00987C0.533801 8.78076 0.147766 9.1668 0.147766 9.64287V40.6772C0.147766 41.1533 0.533801 41.5393 1.00987 41.5393H49.2857C49.7617 41.5393 50.1478 41.1533 50.1478 40.6772V9.64287C50.1477 9.1668 49.7616 8.78076 49.2856 8.78076Z"
            fill="#41479B" />
        <path
            d="M0.465734 41.331L49.8296 8.98916C49.6802 8.86484 49.4951 8.78076 49.2856 8.78076H1.00987C0.533801 8.78076 0.147766 9.1668 0.147766 9.64287V40.6772C0.147766 40.9437 0.275793 41.1729 0.465734 41.331Z"
            fill="#F5F5F5" />
        <path
            d="M22.0988 8.78076H1.00987C0.533801 8.78076 0.147766 9.1668 0.147766 9.64287V23.1626L22.0988 8.78076Z"
            fill="#FFE15A" />
        <path
            d="M19.9011 22.5368C19.5099 19.9259 17.451 17.8669 14.84 17.4757L13.9409 15.6774L13.0418 17.4757C10.4308 17.8669 8.37196 19.9257 7.98065 22.5368L6.18231 23.4359L7.98065 24.3351C8.37186 26.946 10.4307 29.005 13.0418 29.3962L13.9409 31.1945L14.84 29.3962C17.4509 29.005 19.5098 26.9462 19.9011 24.3351L21.6995 23.4359L19.9011 22.5368ZM13.9409 28.6083C11.0843 28.6083 8.76854 26.2926 8.76854 23.4359C8.76854 20.5793 11.0843 18.2636 13.9409 18.2636C16.7975 18.2636 19.1132 20.5793 19.1132 23.4359C19.1132 26.2926 16.7975 28.6083 13.9409 28.6083Z"
            fill="#464655" />
        <path
            d="M13.9407 20.1211L14.869 21.8283L16.8115 21.7785L15.7971 23.4359L16.8115 25.0934L14.869 25.0435L13.9407 26.7509L13.0126 25.0435L11.0699 25.0934L12.0844 23.4359L11.0699 21.7785L13.0126 21.8283L13.9407 20.1211Z"
            fill="#FF4B55" />
    </g>
    <defs>
        <clipPath id="clip0_9_4455">
            <rect width="50" height="50" fill="white" transform="translate(0.148438 0.160156)" />
        </clipPath>
    </defs>
</svg>
