<svg width="51" height="51" viewBox="0 0 51 51" fill="none" xmlns="http://www.w3.org/2000/svg">
    <g clip-path="url(#clip0_9_4441)">
        <path
            d="M49.5796 41.5393H1.30388C0.827807 41.5393 0.441772 41.1533 0.441772 40.6772V9.64287C0.441772 9.1668 0.827807 8.78076 1.30388 8.78076H49.5797C50.0557 8.78076 50.4418 9.1668 50.4418 9.64287V40.6772C50.4417 41.1534 50.0556 41.5393 49.5796 41.5393Z"
            fill="#41479B" />
        <path d="M43.545 8.78076V41.5393L10.7866 8.78076H43.545Z" fill="#FFE15A" />
        <path
            d="M20.6914 20.9779L21.1882 22.4675L22.7585 22.4797C22.8801 22.4807 22.9305 22.6359 22.8327 22.7081L21.5694 23.641L22.0431 25.1382C22.0798 25.2541 21.9477 25.3501 21.8487 25.2794L20.5712 24.3662L19.2936 25.2794C19.1947 25.3501 19.0626 25.2542 19.0992 25.1382L19.5729 23.641L18.3096 22.7081C18.2118 22.6359 18.2622 22.4807 18.3839 22.4797L19.9541 22.4675L20.4509 20.9779C20.4896 20.8625 20.6528 20.8625 20.6914 20.9779Z"
            fill="#F5F5F5" />
        <path
            d="M17.0995 17.386L17.5964 18.8757L19.1666 18.8879C19.2883 18.8888 19.3387 19.0441 19.2408 19.1163L17.9775 20.0492L18.4513 21.5464C18.488 21.6623 18.3559 21.7583 18.2568 21.6876L16.9793 20.7744L15.7018 21.6876C15.6028 21.7584 15.4707 21.6624 15.5073 21.5464L15.9811 20.0492L14.7178 19.1163C14.6199 19.044 14.6703 18.8888 14.792 18.8879L16.3622 18.8757L16.8591 17.386C16.8978 17.2706 17.061 17.2706 17.0995 17.386Z"
            fill="#F5F5F5" />
        <path
            d="M13.5075 13.794L14.0044 15.2837L15.5746 15.2959C15.6963 15.2969 15.7467 15.452 15.6488 15.5243L14.3856 16.4572L14.8593 17.9544C14.896 18.0703 14.7639 18.1663 14.6649 18.0956L13.3873 17.1824L12.1098 18.0956C12.0109 18.1664 11.8787 18.0704 11.9153 17.9544L12.3891 16.4572L11.1258 15.5243C11.0279 15.452 11.0783 15.2969 11.2 15.2959L12.7702 15.2837L13.2671 13.794C13.3058 13.6786 13.4691 13.6786 13.5075 13.794Z"
            fill="#F5F5F5" />
        <path
            d="M9.91545 10.2021L10.4123 11.6918L11.9825 11.704C12.1042 11.7049 12.1546 11.8601 12.0568 11.9324L10.7936 12.8652L11.2673 14.3624C11.304 14.4783 11.1719 14.5743 11.0729 14.5036L9.79534 13.5904L8.5178 14.5036C8.41888 14.5743 8.28675 14.4784 8.32337 14.3624L8.7971 12.8652L7.53382 11.9324C7.43597 11.8601 7.48636 11.7049 7.60804 11.704L9.17825 11.6918L9.67512 10.2021C9.7137 10.0867 9.87688 10.0867 9.91545 10.2021Z"
            fill="#F5F5F5" />
        <path
            d="M35.0591 35.3457L35.556 36.8354L37.1262 36.8476C37.2479 36.8486 37.2983 37.0037 37.2004 37.076L35.9372 38.0089L36.4109 39.5061C36.4476 39.622 36.3155 39.7181 36.2166 39.6473L34.939 38.7341L33.6615 39.6473C33.5626 39.7181 33.4304 39.6221 33.467 39.5061L33.9408 38.0089L32.6775 37.076C32.5796 37.0037 32.63 36.8486 32.7517 36.8476L34.3219 36.8354L34.8188 35.3457C34.8574 35.2303 35.0207 35.2303 35.0591 35.3457Z"
            fill="#F5F5F5" />
        <path
            d="M31.4672 31.7537L31.964 33.2434L33.5342 33.2556C33.6559 33.2566 33.7063 33.4118 33.6085 33.484L32.3452 34.4169L32.8189 35.9141C32.8556 36.03 32.7235 36.1261 32.6246 36.0553L31.347 35.1421L30.0695 36.0553C29.9706 36.126 29.8384 36.0301 29.8751 35.9141L30.3488 34.4169L29.0855 33.484C28.9877 33.4118 29.0381 33.2566 29.1597 33.2556L30.7299 33.2434L31.2268 31.7537C31.2654 31.6383 31.4287 31.6383 31.4672 31.7537Z"
            fill="#F5F5F5" />
        <path
            d="M27.8753 28.1619L28.3721 29.6515L29.9424 29.6637C30.064 29.6647 30.1144 29.8199 30.0166 29.8921L28.7533 30.8251L29.227 32.3222C29.2637 32.4381 29.1316 32.5342 29.0326 32.4633L27.7551 31.5502L26.4775 32.4633C26.3786 32.534 26.2465 32.4381 26.2831 32.3222L26.7568 30.8251L25.4935 29.8921C25.3957 29.8199 25.4461 29.6647 25.5678 29.6637L27.138 29.6515L27.6348 28.1619C27.6736 28.0465 27.8368 28.0465 27.8753 28.1619Z"
            fill="#F5F5F5" />
        <path
            d="M24.2833 24.5698L24.7802 26.0595L26.3504 26.0717C26.4721 26.0727 26.5225 26.2279 26.4247 26.3001L25.1614 27.233L25.6351 28.7302C25.6718 28.8461 25.5397 28.9422 25.4407 28.8714L24.1631 27.9582L22.8856 28.8714C22.7867 28.9421 22.6545 28.8462 22.6912 28.7302L23.1649 27.233L21.9016 26.3001C21.8038 26.2279 21.8542 26.0727 21.9758 26.0717L23.546 26.0595L24.0429 24.5698C24.0816 24.4544 24.2449 24.4544 24.2833 24.5698Z"
            fill="#F5F5F5" />
        <path
            d="M4.53784 8.78076L5.20483 9.27334L4.7311 10.7705C4.69448 10.8864 4.82651 10.9824 4.92554 10.9118L6.20298 9.99863L7.48051 10.9118C7.57944 10.9825 7.71157 10.8866 7.67485 10.7705L7.20122 9.27334L7.8685 8.78076H4.53784Z"
            fill="#F5F5F5" />
        <path
            d="M40.7181 40.4396L39.1479 40.4274L38.6511 38.9378C38.6126 38.8223 38.4493 38.8223 38.4109 38.9378L37.9141 40.4274L36.3439 40.4396C36.2222 40.4406 36.1718 40.5959 36.2697 40.668L37.4496 41.5392H39.6128L40.7927 40.668C40.8902 40.5958 40.8398 40.4405 40.7181 40.4396Z"
            fill="#F5F5F5" />
    </g>
    <defs>
        <clipPath id="clip0_9_4441">
            <rect width="50" height="50" fill="white" transform="translate(0.441406 0.160156)" />
        </clipPath>
    </defs>
</svg>
