<svg width="51" height="51" viewBox="0 0 51 51" fill="none" xmlns="http://www.w3.org/2000/svg">
<g clip-path="url(#clip0_9_4330)">
<path d="M49.4482 41.5393H1.17252C0.696444 41.5393 0.31041 41.1533 0.31041 40.6772V9.64287C0.31041 9.1668 0.696444 8.78076 1.17252 8.78076H49.4483C49.9244 8.78076 50.3104 9.1668 50.3104 9.64287V40.6772C50.3103 41.1534 49.9243 41.5393 49.4482 41.5393Z" fill="#41479B"/>
<path d="M24.4483 8.78076H22.9509L14.9656 14.0125V8.78076H10.6552V14.0125L2.66988 8.78076H1.17252C0.696444 8.78076 0.31041 9.1668 0.31041 9.64287V10.3267L7.16147 14.8152H0.31041V19.1256H7.16147L0.31041 23.6142V24.2979C0.31041 24.774 0.696444 25.16 1.17252 25.16H2.66988L10.6552 19.9283V25.16H14.9656V19.9283L22.9508 25.16H24.4482C24.9242 25.16 25.3103 24.774 25.3103 24.2979V23.6141L18.4593 19.1256H25.3103V14.8152H18.4592L25.3103 10.3267V9.64287C25.3103 9.1668 24.9244 8.78076 24.4483 8.78076Z" fill="#F5F5F5"/>
<path d="M25.3102 15.6773H14.1034V8.78076H11.5172V15.6773H0.310394V18.2635H11.5172V25.16H14.1034V18.2635H25.3102V15.6773Z" fill="#FF4B55"/>
<path d="M9.79295 14.8152L0.721096 8.92639C0.47969 9.07922 0.310257 9.33586 0.310257 9.6428V9.68752L8.20956 14.8152H9.79295Z" fill="#FF4B55"/>
<path d="M16.5489 14.8152L25.1791 9.21302C25.0291 8.95922 24.7645 8.7807 24.4482 8.7807H24.2617L14.9655 14.8152H16.5489Z" fill="#FF4B55"/>
<path d="M9.04755 19.1255L0.433792 24.7169C0.582327 24.9768 0.851076 25.1599 1.17197 25.1599H1.33457L10.6309 19.1255H9.04755Z" fill="#FF4B55"/>
<path d="M25.2964 24.3657L17.2236 19.1256H15.6403L24.8075 25.0762C25.0822 24.9487 25.2705 24.6817 25.2964 24.3657Z" fill="#FF4B55"/>
<path d="M38.1766 16.8714H32.5325C32.5325 16.8714 32.5325 24.1756 32.5325 27.1637C32.5325 29.4877 38.1766 31.8118 38.1766 31.8118C38.1766 31.8118 43.8207 29.4878 43.8207 27.1637C43.8207 24.1755 43.8207 16.8714 43.8207 16.8714H38.1766Z" fill="#73AF00"/>
<path d="M34.8719 24.7247C34.8719 24.7247 34.8404 24.6154 34.8684 24.5167C34.8966 24.418 34.8242 24.3274 34.8086 24.2418C34.7664 24.0092 34.9633 23.9492 34.9738 23.7414C34.9738 23.7414 35.1144 23.8859 35.0618 24.0234C35.009 24.1609 35.1391 24.182 35.1216 24.3124C35.1041 24.4428 34.9598 24.5803 34.9739 24.6966L34.8719 24.7247Z" fill="#FF4B55"/>
<path d="M37.0913 24.5038C36.9759 24.3597 36.7737 24.5149 36.6256 24.6278C36.605 24.6437 36.5876 24.6558 36.5693 24.669L36.0232 23.8625C36.0385 23.8395 36.0496 23.8134 36.0496 23.7837C36.0496 23.7033 35.9845 23.6382 35.9041 23.6382C35.8236 23.6382 35.7586 23.7032 35.7586 23.7837C35.7586 23.8135 35.7697 23.8396 35.7849 23.8625L35.2215 24.6944H34.8226C34.8226 24.6944 34.8061 24.9424 35.2417 24.9725C35.2978 25.0575 35.3779 25.1252 35.4738 25.1635C35.4288 25.1708 35.3924 25.2056 35.3924 25.2527V25.311C35.3924 25.3147 35.396 25.3169 35.3964 25.3205H36.4111C36.4115 25.317 36.415 25.3148 36.415 25.311V25.2527C36.415 25.2051 36.3781 25.1695 36.3323 25.163C36.5021 25.0946 36.6214 24.9357 36.6416 24.747C36.6574 24.7353 36.6721 24.7245 36.6893 24.7115C36.7964 24.6293 36.9578 24.5041 37.0092 24.5696C37.022 24.5856 37.0208 24.5945 37.0203 24.5978C37.0144 24.6358 36.9331 24.6905 36.8677 24.7344C36.7649 24.8034 36.6586 24.8751 36.6502 24.9767C36.6477 25.0057 36.6691 25.0308 36.698 25.0335C36.6995 25.0335 36.7011 25.0335 36.7024 25.0335C36.7295 25.0335 36.7524 25.0127 36.7546 24.9855C36.7588 24.9341 36.8516 24.8718 36.9262 24.8218C37.0212 24.7576 37.111 24.6975 37.1239 24.6141C37.1298 24.5756 37.1188 24.5388 37.0913 24.5038ZM36.1578 24.6944C36.1277 24.5798 36.0568 24.4696 35.9682 24.4298C36.0151 24.4057 36.0482 24.3581 36.0482 24.3018C36.0482 24.2215 35.9832 24.1562 35.9027 24.1562C35.8224 24.1562 35.7572 24.2213 35.7572 24.3018C35.7572 24.3581 35.7902 24.4057 35.8372 24.4298C35.7486 24.4695 35.6776 24.5797 35.6476 24.6944H35.3483L35.8711 23.9225C35.8819 23.925 35.8924 23.9291 35.9042 23.9291C35.9159 23.9291 35.9263 23.925 35.9373 23.9225L36.46 24.6944H36.1578Z" fill="#FFE15A"/>
<path d="M37.8168 19.8041C37.8168 19.8041 37.2911 19.6485 37.056 21.4884C37.056 21.4884 35.7694 23.1242 35.7279 23.221C35.6864 23.3179 35.7245 24.013 35.8629 23.9576C36.0013 23.9022 36.2503 23.5807 36.2364 23.3454C36.2226 23.1101 36.3287 22.979 36.4335 22.8612C36.6306 22.6399 37.7408 21.637 37.7823 21.4156C37.8237 21.1944 37.8168 19.8041 37.8168 19.8041Z" fill="#FFC8B9"/>
<path d="M38.6318 19.4548C38.6318 19.4548 39.4445 19.3476 39.6831 20.1776C39.6831 20.1776 39.0156 20.5442 39.0986 21.0215C39.1817 21.4987 39.0883 23.6776 39.0883 23.6776C37.8121 24.0926 37.1377 23.5738 37.1377 23.5738C37.1377 23.5738 37.4697 22.3392 37.4179 21.3328C37.4179 21.3328 37.117 21.1046 37.1897 20.8452C37.2623 20.5858 37.449 20.2953 37.5113 20.0774C37.5736 19.8596 37.7396 19.4964 38.1443 19.4652C38.5487 19.434 38.6318 19.4548 38.6318 19.4548Z" fill="#F5F5F5"/>
<path d="M37.3735 23.3317C37.3735 23.3317 36.7371 25.7388 36.9585 29.0174C36.9585 29.0174 38.9437 29.2802 40.0228 28.8859C40.0228 28.8859 39.4625 24.964 38.923 23.4285L37.3735 23.3317Z" fill="#F5F5F5"/>
<path d="M37.7477 18.037V19.0342C37.7477 19.1437 37.8365 19.2325 37.946 19.2325H37.9638C38.0412 19.2325 38.1041 19.2953 38.1041 19.3728V19.6112C38.1041 19.6112 38.2377 19.9602 38.7575 19.5518V18.0445L37.7477 18.037Z" fill="#FFC8B9"/>
<path d="M37.63 17.8328C37.5978 17.9134 37.6318 18.1319 37.8305 18.1164C38.0789 18.097 38.3787 18.0956 38.4461 18.3706C38.5088 18.6261 38.4669 19.2645 38.7436 19.3061C39.0204 19.3476 39.334 19.1637 39.3281 18.6144C39.3229 18.1303 39.0064 17.551 38.5637 17.6391C38.5637 17.6391 38.1711 17.3641 37.9412 17.6737C37.9414 17.6737 37.6993 17.6599 37.63 17.8328Z" fill="#8C5A28"/>
<path d="M39.6844 20.1776C39.6844 20.1776 39.9676 22.0432 39.9541 22.1973C39.9403 22.3564 38.9512 23.885 39.0064 24.0511C39.0618 24.2172 39.1171 24.4385 38.8128 24.5216C38.5085 24.6046 38.5396 24.1186 38.6226 23.8696C38.7056 23.6206 39.4007 22.2943 39.4007 22.1422C39.4007 21.99 39.0063 21.0078 39.1032 20.6204C39.2002 20.2329 39.6844 20.1776 39.6844 20.1776Z" fill="#FFC8B9"/>
<path d="M33.627 18.838C33.627 18.838 33.5954 18.7288 33.6235 18.63C33.6516 18.5313 33.5793 18.4408 33.5638 18.3551C33.5216 18.1225 33.7185 18.0625 33.729 17.8547C33.729 17.8547 33.8695 17.9993 33.8169 18.1368C33.7642 18.2743 33.8943 18.2954 33.8767 18.4257C33.8592 18.5561 33.7149 18.6936 33.7291 18.8099L33.627 18.838Z" fill="#FF4B55"/>
<path d="M35.8462 18.6171C35.7308 18.4729 35.5286 18.6282 35.3806 18.7411C35.3599 18.7569 35.3425 18.769 35.3242 18.7823L34.7781 17.9758C34.7934 17.9527 34.8045 17.9267 34.8045 17.897C34.8045 17.8166 34.7394 17.7515 34.659 17.7515C34.5785 17.7515 34.5135 17.8165 34.5135 17.897C34.5135 17.9268 34.5246 17.9528 34.5398 17.9758L33.9765 18.8077H33.5775C33.5775 18.8077 33.561 19.0557 33.9966 19.0857C34.0527 19.1708 34.1328 19.2385 34.2287 19.2768C34.1837 19.2841 34.1474 19.3188 34.1474 19.366V19.4243C34.1474 19.428 34.1509 19.4302 34.1513 19.4338H35.166C35.1664 19.4303 35.1699 19.4281 35.1699 19.4243V19.366C35.1699 19.3184 35.133 19.2828 35.0872 19.2763C35.257 19.2079 35.3764 19.049 35.3965 18.8603C35.4123 18.8485 35.427 18.8378 35.4442 18.8248C35.5514 18.7426 35.7127 18.6174 35.7641 18.6829C35.7769 18.6989 35.7757 18.7078 35.7752 18.711C35.7693 18.7491 35.688 18.8038 35.6226 18.8477C35.5198 18.9167 35.4135 18.9884 35.4051 19.0899C35.4026 19.1189 35.424 19.144 35.4529 19.1467C35.4544 19.1467 35.456 19.1467 35.4573 19.1467C35.4844 19.1467 35.5073 19.1259 35.5096 19.0987C35.5138 19.0473 35.6065 18.985 35.6811 18.935C35.7762 18.8708 35.8659 18.8106 35.8788 18.7272C35.8847 18.6889 35.8737 18.652 35.8462 18.6171ZM34.9127 18.8077C34.8826 18.6931 34.8117 18.5829 34.7231 18.5431C34.77 18.5189 34.8031 18.4714 34.8031 18.415C34.8031 18.3348 34.7381 18.2695 34.6576 18.2695C34.5773 18.2695 34.5121 18.3346 34.5121 18.415C34.5121 18.4714 34.5451 18.5189 34.5921 18.5431C34.5035 18.5828 34.4325 18.693 34.4025 18.8077H34.1032L34.626 18.0357C34.6368 18.0383 34.6473 18.0424 34.6591 18.0424C34.6708 18.0424 34.6812 18.0383 34.6922 18.0357L35.2149 18.8077H34.9127Z" fill="#FFE15A"/>
<path d="M33.627 20.8003C33.627 20.8003 33.5954 20.691 33.6235 20.5923C33.6516 20.4936 33.5793 20.4031 33.5638 20.3174C33.5216 20.0848 33.7185 20.0248 33.729 19.817C33.729 19.817 33.8695 19.9615 33.8169 20.099C33.7641 20.2365 33.8943 20.2576 33.8767 20.388C33.8592 20.5184 33.7149 20.6559 33.7291 20.7722L33.627 20.8003Z" fill="#FF4B55"/>
<path d="M35.8462 20.5794C35.7308 20.4353 35.5286 20.5906 35.3806 20.7035C35.3599 20.7193 35.3425 20.7314 35.3242 20.7447L34.7781 19.9381C34.7934 19.9151 34.8045 19.889 34.8045 19.8593C34.8045 19.7789 34.7394 19.7138 34.659 19.7138C34.5785 19.7138 34.5135 19.7788 34.5135 19.8593C34.5135 19.8891 34.5246 19.9152 34.5398 19.9381L33.9765 20.7701H33.5775C33.5775 20.7701 33.561 21.018 33.9966 21.0481C34.0527 21.1331 34.1328 21.2008 34.2287 21.2391C34.1837 21.2464 34.1474 21.2812 34.1474 21.3284V21.3867C34.1474 21.3904 34.1509 21.3925 34.1513 21.3961H35.166C35.1664 21.3926 35.1699 21.3905 35.1699 21.3867V21.3284C35.1699 21.2807 35.133 21.2451 35.0872 21.2386C35.257 21.1702 35.3764 21.0114 35.3965 20.8226C35.4123 20.8109 35.427 20.8001 35.4442 20.7871C35.5514 20.7049 35.7127 20.5797 35.7641 20.6452C35.7769 20.6613 35.7757 20.6702 35.7752 20.6734C35.7693 20.7115 35.688 20.7661 35.6226 20.81C35.5198 20.879 35.4135 20.9507 35.4051 21.0523C35.4026 21.0813 35.424 21.1064 35.4529 21.1091C35.4544 21.1091 35.456 21.1091 35.4573 21.1091C35.4844 21.1091 35.5073 21.0883 35.5096 21.0612C35.5138 21.0097 35.6065 20.9474 35.6811 20.8974C35.7762 20.8332 35.8659 20.7731 35.8788 20.6897C35.8847 20.651 35.8737 20.6142 35.8462 20.5794ZM34.9127 20.77C34.8826 20.6553 34.8117 20.5452 34.7231 20.5053C34.77 20.4812 34.8031 20.4336 34.8031 20.3773C34.8031 20.297 34.7381 20.2318 34.6576 20.2318C34.5773 20.2318 34.5121 20.2968 34.5121 20.3773C34.5121 20.4336 34.5451 20.4812 34.5921 20.5053C34.5035 20.5451 34.4325 20.6552 34.4025 20.77H34.1032L34.626 19.998C34.6368 20.0005 34.6473 20.0046 34.6591 20.0046C34.6708 20.0046 34.6812 20.0005 34.6922 19.998L35.2149 20.77H34.9127Z" fill="#FFE15A"/>
<path d="M33.627 22.7625C33.627 22.7625 33.5954 22.6532 33.6235 22.5545C33.6516 22.4557 33.5793 22.3652 33.5638 22.2796C33.5216 22.0469 33.7185 21.987 33.729 21.7792C33.729 21.7792 33.8695 21.9237 33.8169 22.0612C33.7642 22.1987 33.8943 22.2198 33.8767 22.3502C33.8592 22.4805 33.7149 22.618 33.7291 22.7343L33.627 22.7625Z" fill="#FF4B55"/>
<path d="M35.8462 22.5416C35.7308 22.3974 35.5286 22.5527 35.3806 22.6656C35.3599 22.6814 35.3425 22.6935 35.3242 22.7068L34.7781 21.9003C34.7934 21.8772 34.8045 21.8512 34.8045 21.8215C34.8045 21.7411 34.7394 21.676 34.659 21.676C34.5785 21.676 34.5135 21.741 34.5135 21.8215C34.5135 21.8513 34.5246 21.8773 34.5398 21.9003L33.9765 22.7322H33.5775C33.5775 22.7322 33.561 22.9802 33.9966 23.0102C34.0527 23.0953 34.1328 23.163 34.2287 23.2013C34.1837 23.2086 34.1474 23.2433 34.1474 23.2905V23.3488C34.1474 23.3525 34.1509 23.3547 34.1513 23.3583H35.166C35.1664 23.3548 35.1699 23.3526 35.1699 23.3488V23.2905C35.1699 23.2429 35.133 23.2073 35.0872 23.2008C35.257 23.1324 35.3764 22.9735 35.3965 22.7848C35.4123 22.773 35.427 22.7623 35.4442 22.7493C35.5514 22.6671 35.7127 22.5419 35.7641 22.6074C35.7769 22.6234 35.7757 22.6323 35.7752 22.6355C35.7693 22.6736 35.688 22.7283 35.6226 22.7722C35.5198 22.8412 35.4135 22.9129 35.4051 23.0144C35.4026 23.0434 35.424 23.0685 35.4529 23.0712C35.4544 23.0712 35.456 23.0712 35.4573 23.0712C35.4844 23.0712 35.5073 23.0504 35.5096 23.0232C35.5138 22.9718 35.6065 22.9095 35.6811 22.8595C35.7762 22.7953 35.8659 22.7351 35.8788 22.6517C35.8847 22.6133 35.8737 22.5765 35.8462 22.5416ZM34.9127 22.7321C34.8826 22.6175 34.8117 22.5073 34.7231 22.4675C34.77 22.4433 34.8031 22.3958 34.8031 22.3394C34.8031 22.2592 34.7381 22.1939 34.6576 22.1939C34.5773 22.1939 34.5121 22.259 34.5121 22.3394C34.5121 22.3958 34.5451 22.4433 34.5921 22.4675C34.5035 22.5072 34.4325 22.6174 34.4025 22.7321H34.1032L34.626 21.9601C34.6368 21.9627 34.6473 21.9668 34.6591 21.9668C34.6708 21.9668 34.6812 21.9627 34.6922 21.9601L35.2149 22.7321H34.9127Z" fill="#FFE15A"/>
<path d="M33.627 26.687C33.627 26.687 33.5954 26.5777 33.6235 26.479C33.6516 26.3802 33.5793 26.2897 33.5638 26.2041C33.5216 25.9714 33.7185 25.9115 33.729 25.7037C33.729 25.7037 33.8695 25.8482 33.8169 25.9857C33.7643 26.1232 33.8943 26.1443 33.8767 26.2747C33.8592 26.405 33.7149 26.5425 33.7291 26.6588L33.627 26.687Z" fill="#FF4B55"/>
<path d="M35.8462 26.4661C35.7308 26.3219 35.5286 26.4772 35.3806 26.5901C35.3599 26.6059 35.3425 26.618 35.3242 26.6313L34.7781 25.8248C34.7934 25.8017 34.8045 25.7757 34.8045 25.746C34.8045 25.6656 34.7394 25.6005 34.659 25.6005C34.5785 25.6005 34.5135 25.6656 34.5135 25.746C34.5135 25.7758 34.5246 25.8018 34.5398 25.8248L33.9765 26.6567H33.5775C33.5775 26.6567 33.561 26.9047 33.9966 26.9347C34.0527 27.0198 34.1328 27.0875 34.2287 27.1258C34.1837 27.1331 34.1474 27.1678 34.1474 27.215V27.2733C34.1474 27.277 34.1509 27.2792 34.1513 27.2828H35.166C35.1664 27.2793 35.1699 27.2771 35.1699 27.2733V27.215C35.1699 27.1674 35.133 27.1318 35.0872 27.1253C35.257 27.0569 35.3764 26.898 35.3965 26.7093C35.4123 26.6975 35.427 26.6869 35.4442 26.6738C35.5514 26.5916 35.7127 26.4664 35.7641 26.5319C35.7769 26.5479 35.7757 26.5568 35.7752 26.56C35.7693 26.5981 35.688 26.6528 35.6226 26.6967C35.5198 26.7657 35.4135 26.8374 35.4051 26.9389C35.4026 26.9679 35.424 26.993 35.4529 26.9958C35.4544 26.9958 35.456 26.9958 35.4573 26.9958C35.4844 26.9958 35.5073 26.975 35.5096 26.9478C35.5138 26.8964 35.6065 26.8341 35.6811 26.7841C35.7762 26.7199 35.8659 26.6597 35.8788 26.5763C35.8847 26.5378 35.8737 26.5009 35.8462 26.4661ZM34.9127 26.6567C34.8826 26.5421 34.8117 26.4319 34.7231 26.3921C34.77 26.3679 34.8031 26.3204 34.8031 26.264C34.8031 26.1838 34.7381 26.1185 34.6576 26.1185C34.5773 26.1185 34.5121 26.1836 34.5121 26.264C34.5121 26.3204 34.5451 26.3679 34.5921 26.3921C34.5035 26.4318 34.4325 26.542 34.4025 26.6567H34.1032L34.626 25.8847C34.6368 25.8873 34.6473 25.8914 34.6591 25.8914C34.6708 25.8914 34.6812 25.8873 34.6922 25.8847L35.2149 26.6567H34.9127Z" fill="#FFE15A"/>
<path d="M33.627 28.6493C33.627 28.6493 33.5954 28.54 33.6235 28.4413C33.6516 28.3426 33.5793 28.252 33.5638 28.1664C33.5216 27.9338 33.7185 27.8738 33.729 27.666C33.729 27.666 33.8695 27.8105 33.8169 27.948C33.7641 28.0855 33.8943 28.1066 33.8767 28.237C33.8591 28.3674 33.7149 28.5049 33.7291 28.6212L33.627 28.6493Z" fill="#FF4B55"/>
<path d="M35.8462 28.4283C35.7308 28.2842 35.5286 28.4394 35.3806 28.5523C35.3599 28.5681 35.3425 28.5803 35.3242 28.5934L34.7781 27.787C34.7934 27.764 34.8045 27.7379 34.8045 27.7082C34.8045 27.6278 34.7394 27.5627 34.659 27.5627C34.5785 27.5627 34.5135 27.6278 34.5135 27.7082C34.5135 27.738 34.5246 27.764 34.5398 27.787L33.9765 28.6189H33.5775C33.5775 28.6189 33.561 28.8669 33.9966 28.897C34.0527 28.982 34.1328 29.0497 34.2287 29.088C34.1837 29.0953 34.1474 29.1301 34.1474 29.1772V29.2355C34.1474 29.2392 34.1509 29.2414 34.1513 29.245H35.166C35.1664 29.2415 35.1699 29.2392 35.1699 29.2355V29.1772C35.1699 29.1296 35.133 29.094 35.0872 29.0875C35.257 29.0191 35.3764 28.8602 35.3965 28.6715C35.4123 28.6598 35.427 28.649 35.4442 28.636C35.5514 28.5538 35.7127 28.4286 35.7641 28.4941C35.7769 28.5101 35.7757 28.519 35.7752 28.5222C35.7693 28.5603 35.688 28.615 35.6226 28.6589C35.5198 28.7279 35.4135 28.7996 35.4051 28.9012C35.4026 28.9302 35.424 28.9553 35.4529 28.958C35.4544 28.958 35.456 28.958 35.4573 28.958C35.4844 28.958 35.5073 28.9372 35.5096 28.91C35.5138 28.8586 35.6065 28.7963 35.6811 28.7463C35.7762 28.6821 35.8659 28.622 35.8788 28.5386C35.8847 28.5 35.8737 28.4632 35.8462 28.4283ZM34.9127 28.6188C34.8826 28.5042 34.8117 28.394 34.7231 28.3542C34.77 28.3301 34.8031 28.2825 34.8031 28.2262C34.8031 28.1459 34.7381 28.0807 34.6576 28.0807C34.5773 28.0807 34.5121 28.1457 34.5121 28.2262C34.5121 28.2825 34.5451 28.3301 34.5921 28.3542C34.5035 28.3939 34.4325 28.5041 34.4025 28.6188H34.1032L34.626 27.8469C34.6368 27.8494 34.6473 27.8535 34.6591 27.8535C34.6708 27.8535 34.6812 27.8494 34.6922 27.8469L35.2149 28.6188H34.9127Z" fill="#FFE15A"/>
<path d="M40.4538 18.838C40.4538 18.838 40.4223 18.7288 40.4503 18.63C40.4785 18.5313 40.406 18.4408 40.3906 18.3551C40.3484 18.1225 40.5453 18.0625 40.5558 17.8547C40.5558 17.8547 40.6964 17.9993 40.6438 18.1368C40.591 18.2743 40.7211 18.2954 40.7036 18.4257C40.6861 18.5561 40.5418 18.6936 40.5559 18.8099L40.4538 18.838Z" fill="#FF4B55"/>
<path d="M42.673 18.6171C42.5577 18.4729 42.3555 18.6282 42.2074 18.7411C42.1868 18.7569 42.1693 18.769 42.1511 18.7823L41.605 17.9758C41.6203 17.9527 41.6313 17.9267 41.6313 17.897C41.6313 17.8166 41.5663 17.7515 41.4858 17.7515C41.4054 17.7515 41.3403 17.8165 41.3403 17.897C41.3403 17.9268 41.3514 17.9528 41.3667 17.9758L40.8033 18.8077H40.4044C40.4044 18.8077 40.3879 19.0557 40.8234 19.0857C40.8796 19.1708 40.9597 19.2385 41.0555 19.2768C41.0105 19.2841 40.9742 19.3188 40.9742 19.366V19.4243C40.9742 19.428 40.9777 19.4302 40.9781 19.4338H41.9929C41.9932 19.4303 41.9968 19.4281 41.9968 19.4243V19.366C41.9968 19.3184 41.9598 19.2828 41.914 19.2763C42.0839 19.2079 42.2032 19.049 42.2233 18.8603C42.2391 18.8485 42.2539 18.8378 42.2711 18.8248C42.3782 18.7426 42.5395 18.6174 42.591 18.6829C42.6038 18.6989 42.6025 18.7078 42.602 18.711C42.5962 18.7491 42.5148 18.8038 42.4495 18.8477C42.3467 18.9167 42.2403 18.9884 42.2319 19.0899C42.2295 19.1189 42.2509 19.144 42.2798 19.1467C42.2812 19.1467 42.2829 19.1467 42.2842 19.1467C42.3112 19.1467 42.3342 19.1259 42.3364 19.0987C42.3406 19.0473 42.4334 18.985 42.508 18.935C42.603 18.8708 42.6928 18.8106 42.7056 18.7272C42.7116 18.6889 42.7008 18.652 42.673 18.6171ZM41.7396 18.8077C41.7096 18.6931 41.6387 18.5829 41.5501 18.5431C41.597 18.5189 41.6301 18.4714 41.6301 18.415C41.6301 18.3348 41.5649 18.2695 41.4846 18.2695C41.4043 18.2695 41.339 18.3346 41.339 18.415C41.339 18.4714 41.3721 18.5189 41.419 18.5431C41.3305 18.5828 41.2595 18.693 41.2295 18.8077H40.9302L41.4529 18.0357C41.4638 18.0383 41.4742 18.0424 41.486 18.0424C41.4977 18.0424 41.5082 18.0383 41.5191 18.0357L42.0419 18.8077H41.7396Z" fill="#FFE15A"/>
<path d="M40.4538 20.8003C40.4538 20.8003 40.4223 20.691 40.4503 20.5923C40.4785 20.4936 40.406 20.4031 40.3906 20.3174C40.3484 20.0848 40.5453 20.0248 40.5558 19.817C40.5558 19.817 40.6964 19.9615 40.6438 20.099C40.591 20.2365 40.7211 20.2576 40.7036 20.388C40.6861 20.5184 40.5418 20.6559 40.5559 20.7722L40.4538 20.8003Z" fill="#FF4B55"/>
<path d="M42.673 20.5794C42.5577 20.4353 42.3555 20.5906 42.2074 20.7035C42.1868 20.7193 42.1693 20.7314 42.1511 20.7447L41.605 19.9381C41.6203 19.9151 41.6313 19.889 41.6313 19.8593C41.6313 19.7789 41.5663 19.7138 41.4858 19.7138C41.4054 19.7138 41.3403 19.7788 41.3403 19.8593C41.3403 19.8891 41.3514 19.9152 41.3667 19.9381L40.8033 20.7701H40.4044C40.4044 20.7701 40.3879 21.018 40.8234 21.0481C40.8796 21.1331 40.9597 21.2008 41.0555 21.2391C41.0105 21.2464 40.9742 21.2812 40.9742 21.3284V21.3867C40.9742 21.3904 40.9777 21.3925 40.9781 21.3961H41.9929C41.9932 21.3926 41.9968 21.3905 41.9968 21.3867V21.3284C41.9968 21.2807 41.9598 21.2451 41.914 21.2386C42.0839 21.1702 42.2032 21.0114 42.2233 20.8226C42.2391 20.8109 42.2539 20.8001 42.2711 20.7871C42.3782 20.7049 42.5395 20.5797 42.591 20.6452C42.6038 20.6613 42.6025 20.6702 42.602 20.6734C42.5962 20.7115 42.5148 20.7661 42.4495 20.81C42.3467 20.879 42.2403 20.9507 42.2319 21.0523C42.2295 21.0813 42.2509 21.1064 42.2798 21.1091C42.2812 21.1091 42.2829 21.1091 42.2842 21.1091C42.3112 21.1091 42.3342 21.0883 42.3364 21.0612C42.3406 21.0097 42.4334 20.9474 42.508 20.8974C42.603 20.8332 42.6928 20.7731 42.7056 20.6897C42.7116 20.651 42.7008 20.6142 42.673 20.5794ZM41.7396 20.77C41.7096 20.6553 41.6387 20.5452 41.5501 20.5053C41.597 20.4812 41.6301 20.4336 41.6301 20.3773C41.6301 20.297 41.5649 20.2318 41.4846 20.2318C41.4043 20.2318 41.339 20.2968 41.339 20.3773C41.339 20.4336 41.3721 20.4812 41.419 20.5053C41.3305 20.5451 41.2595 20.6552 41.2295 20.77H40.9302L41.4529 19.998C41.4638 20.0005 41.4742 20.0046 41.486 20.0046C41.4977 20.0046 41.5082 20.0005 41.5191 19.998L42.0419 20.77H41.7396Z" fill="#FFE15A"/>
<path d="M40.4538 22.7625C40.4538 22.7625 40.4223 22.6532 40.4503 22.5545C40.4785 22.4557 40.406 22.3652 40.3906 22.2796C40.3484 22.0469 40.5453 21.987 40.5558 21.7792C40.5558 21.7792 40.6964 21.9237 40.6438 22.0612C40.591 22.1987 40.7211 22.2198 40.7036 22.3502C40.6861 22.4805 40.5418 22.618 40.5559 22.7343L40.4538 22.7625Z" fill="#FF4B55"/>
<path d="M42.673 22.5416C42.5577 22.3974 42.3555 22.5527 42.2074 22.6656C42.1868 22.6814 42.1693 22.6935 42.1511 22.7068L41.605 21.9003C41.6203 21.8772 41.6313 21.8512 41.6313 21.8215C41.6313 21.7411 41.5663 21.676 41.4858 21.676C41.4054 21.676 41.3403 21.741 41.3403 21.8215C41.3403 21.8513 41.3514 21.8773 41.3667 21.9003L40.8033 22.7322H40.4044C40.4044 22.7322 40.3879 22.9802 40.8234 23.0102C40.8796 23.0953 40.9597 23.163 41.0555 23.2013C41.0105 23.2086 40.9742 23.2433 40.9742 23.2905V23.3488C40.9742 23.3525 40.9777 23.3547 40.9781 23.3583H41.9929C41.9932 23.3548 41.9968 23.3526 41.9968 23.3488V23.2905C41.9968 23.2429 41.9598 23.2073 41.914 23.2008C42.0839 23.1324 42.2032 22.9735 42.2233 22.7848C42.2391 22.773 42.2539 22.7623 42.2711 22.7493C42.3782 22.6671 42.5395 22.5419 42.591 22.6074C42.6038 22.6234 42.6025 22.6323 42.602 22.6355C42.5962 22.6736 42.5148 22.7283 42.4495 22.7722C42.3467 22.8412 42.2403 22.9129 42.2319 23.0144C42.2295 23.0434 42.2509 23.0685 42.2798 23.0712C42.2812 23.0712 42.2829 23.0712 42.2842 23.0712C42.3112 23.0712 42.3342 23.0504 42.3364 23.0232C42.3406 22.9718 42.4334 22.9095 42.508 22.8595C42.603 22.7953 42.6928 22.7351 42.7056 22.6517C42.7116 22.6133 42.7008 22.5765 42.673 22.5416ZM41.7396 22.7321C41.7096 22.6175 41.6387 22.5073 41.5501 22.4675C41.597 22.4433 41.6301 22.3958 41.6301 22.3394C41.6301 22.2592 41.5649 22.1939 41.4846 22.1939C41.4043 22.1939 41.339 22.259 41.339 22.3394C41.339 22.3958 41.3721 22.4433 41.419 22.4675C41.3305 22.5072 41.2595 22.6174 41.2295 22.7321H40.9302L41.4529 21.9601C41.4638 21.9627 41.4742 21.9668 41.486 21.9668C41.4977 21.9668 41.5082 21.9627 41.5191 21.9601L42.0419 22.7321H41.7396Z" fill="#FFE15A"/>
<path d="M40.4538 24.7247C40.4538 24.7247 40.4223 24.6154 40.4503 24.5167C40.4785 24.418 40.406 24.3274 40.3906 24.2418C40.3484 24.0092 40.5453 23.9492 40.5558 23.7414C40.5558 23.7414 40.6964 23.8859 40.6438 24.0234C40.591 24.1609 40.7211 24.182 40.7036 24.3124C40.6861 24.4428 40.5418 24.5803 40.5559 24.6966L40.4538 24.7247Z" fill="#FF4B55"/>
<path d="M42.673 24.5038C42.5577 24.3597 42.3555 24.5149 42.2074 24.6278C42.1868 24.6437 42.1693 24.6558 42.1511 24.669L41.605 23.8625C41.6203 23.8395 41.6313 23.8134 41.6313 23.7837C41.6313 23.7033 41.5663 23.6382 41.4858 23.6382C41.4054 23.6382 41.3403 23.7032 41.3403 23.7837C41.3403 23.8135 41.3514 23.8396 41.3667 23.8625L40.8033 24.6944H40.4044C40.4044 24.6944 40.3879 24.9424 40.8234 24.9725C40.8796 25.0575 40.9597 25.1252 41.0555 25.1635C41.0105 25.1708 40.9742 25.2056 40.9742 25.2527V25.311C40.9742 25.3147 40.9777 25.3169 40.9781 25.3205H41.9929C41.9932 25.317 41.9968 25.3148 41.9968 25.311V25.2527C41.9968 25.2051 41.9598 25.1695 41.914 25.163C42.0839 25.0946 42.2032 24.9357 42.2233 24.747C42.2391 24.7353 42.2539 24.7245 42.2711 24.7115C42.3782 24.6293 42.5395 24.5041 42.591 24.5696C42.6038 24.5856 42.6025 24.5945 42.602 24.5978C42.5962 24.6358 42.5148 24.6905 42.4495 24.7344C42.3467 24.8034 42.2403 24.8751 42.2319 24.9767C42.2295 25.0057 42.2509 25.0308 42.2798 25.0335C42.2812 25.0335 42.2829 25.0335 42.2842 25.0335C42.3112 25.0335 42.3342 25.0127 42.3364 24.9855C42.3406 24.9341 42.4334 24.8718 42.508 24.8218C42.603 24.7576 42.6928 24.6975 42.7056 24.6141C42.7116 24.5756 42.7008 24.5388 42.673 24.5038ZM41.7396 24.6944C41.7096 24.5798 41.6387 24.4696 41.5501 24.4298C41.597 24.4057 41.6301 24.3581 41.6301 24.3018C41.6301 24.2215 41.5649 24.1562 41.4846 24.1562C41.4043 24.1562 41.339 24.2213 41.339 24.3018C41.339 24.3581 41.3721 24.4057 41.419 24.4298C41.3305 24.4695 41.2595 24.5797 41.2295 24.6944H40.9302L41.4529 23.9225C41.4638 23.925 41.4742 23.9291 41.486 23.9291C41.4977 23.9291 41.5082 23.925 41.5191 23.9225L42.0419 24.6944H41.7396Z" fill="#FFE15A"/>
<path d="M40.4538 26.687C40.4538 26.687 40.4223 26.5777 40.4503 26.479C40.4785 26.3802 40.406 26.2897 40.3906 26.2041C40.3484 25.9714 40.5453 25.9115 40.5558 25.7037C40.5558 25.7037 40.6964 25.8482 40.6438 25.9857C40.591 26.1232 40.7211 26.1443 40.7036 26.2747C40.6861 26.405 40.5418 26.5425 40.5559 26.6588L40.4538 26.687Z" fill="#FF4B55"/>
<path d="M42.673 26.4661C42.5577 26.3219 42.3555 26.4772 42.2074 26.5901C42.1868 26.6059 42.1693 26.618 42.1511 26.6313L41.605 25.8248C41.6203 25.8017 41.6313 25.7757 41.6313 25.746C41.6313 25.6656 41.5663 25.6005 41.4858 25.6005C41.4054 25.6005 41.3403 25.6656 41.3403 25.746C41.3403 25.7758 41.3514 25.8018 41.3667 25.8248L40.8033 26.6567H40.4044C40.4044 26.6567 40.3879 26.9047 40.8234 26.9347C40.8796 27.0198 40.9597 27.0875 41.0555 27.1258C41.0105 27.1331 40.9742 27.1678 40.9742 27.215V27.2733C40.9742 27.277 40.9777 27.2792 40.9781 27.2828H41.9929C41.9932 27.2793 41.9968 27.2771 41.9968 27.2733V27.215C41.9968 27.1674 41.9598 27.1318 41.914 27.1253C42.0839 27.0569 42.2032 26.898 42.2233 26.7093C42.2391 26.6975 42.2539 26.6869 42.2711 26.6738C42.3782 26.5916 42.5395 26.4664 42.591 26.5319C42.6038 26.5479 42.6025 26.5568 42.602 26.56C42.5962 26.5981 42.5148 26.6528 42.4495 26.6967C42.3467 26.7657 42.2403 26.8374 42.2319 26.9389C42.2295 26.9679 42.2509 26.993 42.2798 26.9958C42.2812 26.9958 42.2829 26.9958 42.2842 26.9958C42.3112 26.9958 42.3342 26.975 42.3364 26.9478C42.3406 26.8964 42.4334 26.8341 42.508 26.7841C42.603 26.7199 42.6928 26.6597 42.7056 26.5763C42.7116 26.5378 42.7008 26.5009 42.673 26.4661ZM41.7396 26.6567C41.7096 26.5421 41.6387 26.4319 41.5501 26.3921C41.597 26.3679 41.6301 26.3204 41.6301 26.264C41.6301 26.1838 41.5649 26.1185 41.4846 26.1185C41.4043 26.1185 41.339 26.1836 41.339 26.264C41.339 26.3204 41.3721 26.3679 41.419 26.3921C41.3305 26.4318 41.2595 26.542 41.2295 26.6567H40.9302L41.4529 25.8847C41.4638 25.8873 41.4742 25.8914 41.486 25.8914C41.4977 25.8914 41.5082 25.8873 41.5191 25.8847L42.0419 26.6567H41.7396Z" fill="#FFE15A"/>
<path d="M40.4538 28.6493C40.4538 28.6493 40.4223 28.54 40.4503 28.4413C40.4785 28.3426 40.406 28.252 40.3906 28.1664C40.3484 27.9338 40.5453 27.8738 40.5558 27.666C40.5558 27.666 40.6964 27.8105 40.6438 27.948C40.591 28.0855 40.7211 28.1066 40.7036 28.237C40.686 28.3674 40.5418 28.5049 40.5559 28.6212L40.4538 28.6493Z" fill="#FF4B55"/>
<path d="M42.673 28.4283C42.5577 28.2842 42.3555 28.4394 42.2074 28.5523C42.1868 28.5681 42.1693 28.5803 42.1511 28.5934L41.605 27.787C41.6203 27.764 41.6313 27.7379 41.6313 27.7082C41.6313 27.6278 41.5663 27.5627 41.4858 27.5627C41.4054 27.5627 41.3403 27.6278 41.3403 27.7082C41.3403 27.738 41.3514 27.764 41.3667 27.787L40.8033 28.6189H40.4044C40.4044 28.6189 40.3879 28.8669 40.8234 28.897C40.8796 28.982 40.9597 29.0497 41.0555 29.088C41.0105 29.0953 40.9742 29.1301 40.9742 29.1772V29.2355C40.9742 29.2392 40.9777 29.2414 40.9781 29.245H41.9929C41.9932 29.2415 41.9968 29.2392 41.9968 29.2355V29.1772C41.9968 29.1296 41.9598 29.094 41.914 29.0875C42.0839 29.0191 42.2032 28.8602 42.2233 28.6715C42.2391 28.6598 42.2539 28.649 42.2711 28.636C42.3782 28.5538 42.5395 28.4286 42.591 28.4941C42.6038 28.5101 42.6025 28.519 42.602 28.5222C42.5962 28.5603 42.5148 28.615 42.4495 28.6589C42.3467 28.7279 42.2403 28.7996 42.2319 28.9012C42.2295 28.9302 42.2509 28.9553 42.2798 28.958C42.2812 28.958 42.2829 28.958 42.2842 28.958C42.3112 28.958 42.3342 28.9372 42.3364 28.91C42.3406 28.8586 42.4334 28.7963 42.508 28.7463C42.603 28.6821 42.6928 28.622 42.7056 28.5386C42.7116 28.5 42.7008 28.4632 42.673 28.4283ZM41.7396 28.6188C41.7096 28.5042 41.6387 28.394 41.5501 28.3542C41.597 28.3301 41.6301 28.2825 41.6301 28.2262C41.6301 28.1459 41.5649 28.0807 41.4846 28.0807C41.4043 28.0807 41.339 28.1457 41.339 28.2262C41.339 28.2825 41.3721 28.3301 41.419 28.3542C41.3305 28.3939 41.2595 28.5041 41.2295 28.6188H40.9302L41.4529 27.8469C41.4638 27.8494 41.4742 27.8535 41.486 27.8535C41.4977 27.8535 41.5082 27.8494 41.5191 27.8469L42.0419 28.6188H41.7396Z" fill="#FFE15A"/>
<path d="M43.8201 16.8714C43.8201 16.8714 43.8201 24.1756 43.8201 27.1637C43.8201 29.4877 38.176 31.8118 38.176 31.8118C38.176 31.8118 32.5319 29.4878 32.5319 27.1637C32.5319 24.1755 32.5319 16.8714 32.5319 16.8714H38.176H43.8201ZM44.1522 16.5394H43.8201H38.176H32.5319H32.1998V16.8714V27.1637C32.1998 28.2504 33.2023 29.4206 35.1794 30.6418C36.5972 31.5175 37.9909 32.0947 38.0495 32.1188L38.1759 32.1709L38.3023 32.1188C38.3609 32.0947 39.7546 31.5175 41.1724 30.6418C43.1495 29.4206 44.152 28.2504 44.152 27.1637V16.8714L44.1522 16.5394Z" fill="#F5F5F5"/>
<path d="M44.2003 28.9943L45.7054 30.0323C43.9572 32.2748 41.2333 33.721 38.1761 33.721C35.119 33.721 32.3951 32.2747 30.6468 30.0323L32.1519 28.9943C33.5677 30.7608 35.7413 31.8949 38.176 31.8949C40.6109 31.8948 42.7845 30.7607 44.2003 28.9943ZM44.1345 28.5455L43.9413 28.7865C42.5273 30.5509 40.4259 31.5628 38.1763 31.5628C35.9267 31.5628 33.8253 30.5509 32.4113 28.7865L32.2181 28.5455L31.9638 28.7209L30.4587 29.7589L30.169 29.9587L30.3854 30.2363C32.2763 32.6616 35.1161 34.0528 38.1764 34.0528C41.2367 34.0528 44.0766 32.6618 45.9674 30.2363L46.1838 29.9587L45.8941 29.7589L44.389 28.7209L44.1345 28.5455Z" fill="#F5F5F5"/>
<path d="M38.1766 33.7209C41.2337 33.7209 43.9577 32.2746 45.7059 30.0322L44.2008 28.9942C42.785 30.7607 40.6114 31.8949 38.1767 31.8949C35.742 31.8949 33.5684 30.7607 32.1526 28.9942L30.6475 30.0322C32.3956 32.2747 35.1195 33.7209 38.1766 33.7209Z" fill="#FFE15A"/>
</g>
<defs>
<clipPath id="clip0_9_4330">
<rect width="50" height="50" fill="white" transform="translate(0.310547 0.160156)"/>
</clipPath>
</defs>
</svg>
