<svg width="51" height="51" viewBox="0 0 51 51" fill="none" xmlns="http://www.w3.org/2000/svg">
    <g clip-path="url(#clip0_9_4395)">
        <path
            d="M50.5895 25.1601H0.595581V9.64472C0.595581 9.16875 0.981516 8.78271 1.45759 8.78271H49.7275C50.2035 8.78271 50.5895 9.16865 50.5895 9.64472V25.16V25.1601Z"
            fill="#41479B" />
        <path
            d="M0.595184 25.1601H50.5892V40.6754C50.5892 41.1514 50.2033 41.5374 49.7272 41.5374H1.45719C0.981216 41.5374 0.595184 41.1515 0.595184 40.6754V25.1601Z"
            fill="#F5F5F5" />
        <path
            d="M49.728 8.78278H44.5562L28.5875 14.0139V8.78278H22.5985V14.0139L6.62969 8.78278H1.45786C0.981888 8.78278 0.595856 9.16871 0.595856 9.64478V10.3286L14.2962 14.8166H0.595953V19.1264H14.2963L0.595953 23.6144V25.1601H6.62969L22.5984 19.929V25.1601H28.5873V19.929L44.5561 25.1601H50.5898V23.6144L36.8894 19.1263H50.5898V14.8165H36.8894L50.5898 10.3285V9.64468C50.5899 9.16871 50.204 8.78278 49.728 8.78278Z"
            fill="#F5F5F5" />
        <path d="M50.5895 15.6785H0.595703V18.2644H50.5895V15.6785Z" fill="#FF4B55" />
        <path d="M26.8854 8.78308H24.2995V25.1609H26.8854V8.78308Z" fill="#FF4B55" />
        <path
            d="M30.0117 15.4697L28.7402 16.1271L28.2379 14.9588C28.1861 14.8382 27.9781 14.8167 27.8872 14.9224L26.8515 16.1271L25.7686 14.4475C25.6959 14.3349 25.4889 14.3349 25.4163 14.4475L24.3333 16.1271L23.2976 14.9224C23.2067 14.8167 22.9987 14.8382 22.9469 14.9588L22.4447 16.1271L21.1731 15.4697C21.0051 15.3829 20.7974 15.525 20.8877 15.6651L22.1299 17.5917H22.076C21.9319 17.5917 21.815 17.6823 21.815 17.7941V18.3656C21.815 18.4774 21.9319 18.5681 22.076 18.5681H29.1085C29.2526 18.5681 29.3695 18.4774 29.3695 18.3656V17.7941C29.3695 17.6823 29.2526 17.5917 29.1085 17.5917H29.0547L30.2969 15.6651C30.3875 15.525 30.1797 15.3829 30.0117 15.4697Z"
            fill="#FFE15A" />
        <path d="M18.0689 19.1264L0.595581 24.7958V25.1602H2.64478L21.2353 19.1264H18.0689Z"
            fill="#FF4B55" />
        <path d="M50.5896 25.1602V24.3747L34.4184 19.1263H31.252L49.8384 25.1602H50.5896Z"
            fill="#FF4B55" />
        <path
            d="M50.5839 29.9008C48.0807 29.9008 48.0807 29.1467 45.5774 29.1467C43.0758 29.1467 43.0758 29.9008 40.5743 29.9008C38.0749 29.9008 38.0749 29.1467 35.5755 29.1467C33.0765 29.1467 33.0765 29.9008 30.5775 29.9008C28.0778 29.9008 28.0778 29.1467 25.5781 29.1467C23.0784 29.1467 23.0784 29.9008 20.5787 29.9008C18.079 29.9008 18.079 29.1467 15.5794 29.1467C13.0807 29.1467 13.0807 29.9008 10.5821 29.9008C8.08479 29.9008 8.08479 29.1467 5.58735 29.1467C3.08854 29.1467 3.08854 29.9008 0.589539 29.9008V27.6382C3.08835 27.6382 3.08835 26.884 5.58735 26.884C8.08469 26.884 8.08469 27.6382 10.5821 27.6382C13.0807 27.6382 13.0807 26.884 15.5794 26.884C18.079 26.884 18.079 27.6382 20.5787 27.6382C23.0784 27.6382 23.0784 26.884 25.5781 26.884C28.0778 26.884 28.0778 27.6382 30.5775 27.6382C33.0765 27.6382 33.0765 26.884 35.5755 26.884C38.0749 26.884 38.0749 27.6382 40.5743 27.6382C43.0758 27.6382 43.0758 26.884 45.5774 26.884C48.0806 26.884 48.0806 27.6382 50.5839 27.6382V29.9008Z"
            fill="#41479B" />
        <path
            d="M50.5835 34.4261C48.0803 34.4261 48.0803 33.6719 45.577 33.6719C43.0755 33.6719 43.0755 34.4261 40.5739 34.4261C38.0746 34.4261 38.0746 33.6719 35.5752 33.6719C33.0762 33.6719 33.0762 34.4261 30.5772 34.4261C28.0775 34.4261 28.0775 33.6719 25.5778 33.6719C23.0781 33.6719 23.0781 34.4261 20.5784 34.4261C18.0787 34.4261 18.0787 33.6719 15.579 33.6719C13.0804 33.6719 13.0804 34.4261 10.5818 34.4261C8.08446 34.4261 8.08446 33.6719 5.58702 33.6719C3.08821 33.6719 3.08821 34.4261 0.589203 34.4261V32.1634C3.08801 32.1634 3.08801 31.4092 5.58702 31.4092C8.08436 31.4092 8.08436 32.1634 10.5818 32.1634C13.0804 32.1634 13.0804 31.4092 15.579 31.4092C18.0787 31.4092 18.0787 32.1634 20.5784 32.1634C23.0781 32.1634 23.0781 31.4092 25.5778 31.4092C28.0775 31.4092 28.0775 32.1634 30.5772 32.1634C33.0762 32.1634 33.0762 31.4092 35.5752 31.4092C38.0746 31.4092 38.0746 32.1634 40.5739 32.1634C43.0755 32.1634 43.0755 31.4092 45.577 31.4092C48.0802 31.4092 48.0802 32.1634 50.5835 32.1634V34.4261Z"
            fill="#41479B" />
        <path
            d="M50.5835 38.9515C48.0803 38.9515 48.0803 38.1973 45.577 38.1973C43.0755 38.1973 43.0755 38.9515 40.5739 38.9515C38.0746 38.9515 38.0746 38.1973 35.5752 38.1973C33.0762 38.1973 33.0762 38.9515 30.5772 38.9515C28.0775 38.9515 28.0775 38.1973 25.5778 38.1973C23.0781 38.1973 23.0781 38.9515 20.5784 38.9515C18.0787 38.9515 18.0787 38.1973 15.579 38.1973C13.0804 38.1973 13.0804 38.9515 10.5818 38.9515C8.08446 38.9515 8.08446 38.1973 5.58702 38.1973C3.08821 38.1973 3.08821 38.9515 0.589203 38.9515V36.6888C3.08801 36.6888 3.08801 35.9346 5.58702 35.9346C8.08436 35.9346 8.08436 36.6888 10.5818 36.6888C13.0804 36.6888 13.0804 35.9346 15.579 35.9346C18.0787 35.9346 18.0787 36.6888 20.5784 36.6888C23.0781 36.6888 23.0781 35.9346 25.5778 35.9346C28.0775 35.9346 28.0775 36.6888 30.5772 36.6888C33.0762 36.6888 33.0762 35.9346 35.5752 35.9346C38.0746 35.9346 38.0746 36.6888 40.5739 36.6888C43.0755 36.6888 43.0755 35.9346 45.577 35.9346C48.0802 35.9346 48.0802 36.6888 50.5835 36.6888V38.9515Z"
            fill="#41479B" />
        <path
            d="M19.5588 14.8166L1.14941 8.84497C0.826561 8.96948 0.595703 9.27798 0.595703 9.64477V9.6895L16.3925 14.8166H19.5588Z"
            fill="#FF4B55" />
        <path
            d="M33.0691 14.8166L50.4367 9.18244C50.2827 8.94739 50.0299 8.78284 49.7278 8.78284H48.493L29.9027 14.8166H33.0691Z"
            fill="#FF4B55" />
        <path
            d="M39.8134 40.3766C41.6238 39.4441 42.2752 38.0457 42.5123 37.5262C42.8715 36.7392 44.5383 36.1045 44.5383 36.1045C44.5383 36.1045 42.4794 36.1142 41.3773 37.5448C40.3614 38.8638 38.5324 38.9773 36.7683 39.9864C36.6001 39.775 36.4271 39.5678 36.2475 39.3663L41.7441 32.7125L35.0903 38.2091C34.8298 37.9768 34.5605 37.7545 34.2834 37.5415C34.4586 37.0861 34.8042 36.3822 35.4829 35.5806C36.7987 34.0264 36.8653 32.4851 36.8855 31.9144C36.9164 31.0499 38.2131 29.8256 38.2131 29.8256C38.2131 29.8256 36.3146 30.6224 35.844 32.3659C35.4104 33.9724 33.7655 34.7771 32.522 36.3829C32.2861 36.2516 32.0471 36.125 31.8032 36.0069L34.3337 27.761L30.2909 35.3832C29.962 35.2686 29.6281 35.1647 29.2888 35.074C29.2767 34.5859 29.3272 33.8046 29.6466 32.8068C30.2674 30.8673 29.7391 29.4179 29.5394 28.8828C29.2369 28.0723 29.9666 26.4449 29.9666 26.4449C29.9666 26.4449 28.5175 27.9077 28.7499 29.6985C28.9641 31.3491 27.7516 32.7225 27.2176 34.6828C26.9505 34.6525 26.6817 34.6284 26.4104 34.6129L25.5921 26.0223L24.7739 34.6129C24.4225 34.6329 24.0754 34.6679 23.7313 34.7127C23.5332 34.2667 23.2797 33.5246 23.1928 32.4777C23.0242 30.4483 21.9814 29.3113 21.5923 28.8934C21.0026 28.2604 21.054 26.4776 21.054 26.4776C21.054 26.4776 20.275 28.3835 21.1751 29.9491C22.0045 31.3918 21.4103 33.1244 21.6667 35.1391C21.4058 35.2135 21.148 35.2946 20.8936 35.3833L16.8509 27.7611L19.3813 36.007C19.0658 36.1596 18.7588 36.3267 18.4566 36.5013C18.1029 36.1651 17.5852 35.5764 17.1047 34.6433C16.1723 32.8329 14.7738 32.1815 14.2543 31.9444C13.4673 31.5852 12.8327 29.9185 12.8327 29.9185C12.8327 29.9185 12.8422 31.9774 14.273 33.0794C15.5919 34.0953 15.7054 35.9244 16.7145 37.6885C16.503 37.8567 16.2957 38.0297 16.0943 38.2093L9.4403 32.7123L14.9369 39.3661C14.7046 39.6266 14.4823 39.8959 14.2694 40.173C13.8139 39.9979 13.1099 39.6521 12.3084 38.9735C10.7543 37.6577 9.21295 37.5911 8.64216 37.5708C7.77761 37.5402 6.55341 36.2433 6.55341 36.2433C6.55341 36.2433 7.35027 38.1418 9.09372 38.6124C10.5348 39.0014 11.3355 40.3633 12.6432 41.5375H38.1517C38.504 41.2012 39.0324 40.7788 39.8134 40.3766Z"
            fill="#FFE15A" />
        <path d="M44.0283 41.5375L46.6955 40.1229L42.0858 41.5375H44.0283Z" fill="#FFE15A" />
        <path d="M4.48883 40.1229L7.15609 41.5375H9.09875L4.48883 40.1229Z" fill="#FFE15A" />
    </g>
    <defs>
        <clipPath id="clip0_9_4395">
            <rect width="50" height="50" fill="white" transform="translate(0.589844 0.160156)" />
        </clipPath>
    </defs>
</svg>
