<svg width="51" height="51" viewBox="0 0 51 51" fill="none" xmlns="http://www.w3.org/2000/svg">
<g clip-path="url(#clip0_9_4375)">
<path d="M50.0213 41.5393H1.74565C1.26958 41.5393 0.883545 41.1533 0.883545 40.6772V9.64287C0.883545 9.1668 1.26958 8.78076 1.74565 8.78076H50.0214C50.4975 8.78076 50.8835 9.1668 50.8835 9.64287V40.6772C50.8834 41.1534 50.4974 41.5393 50.0213 41.5393Z" fill="#F5F5F5"/>
<path d="M50.8841 34.6426C48.3812 34.6426 48.3812 33.7805 45.8786 33.7805C43.3758 33.7805 43.3758 34.6426 40.8731 34.6426C38.3721 34.6426 38.3721 33.7805 35.8711 33.7805C33.3722 33.7805 33.3722 34.6426 30.8734 34.6426C28.3732 34.6426 28.3732 33.7805 25.873 33.7805C23.3734 33.7805 23.3734 34.6426 20.8739 34.6426C18.3744 34.6426 18.3743 33.7805 15.8749 33.7805C13.3755 33.7805 13.3753 34.6426 10.8757 34.6426C8.37722 34.6426 8.37722 33.7805 5.87888 33.7805C3.38172 33.7805 3.38172 34.6426 0.88446 34.6426V32.0564C3.38162 32.0564 3.38162 31.1943 5.87888 31.1943C8.37732 31.1943 8.37732 32.0564 10.8757 32.0564C13.3754 32.0564 13.3754 31.1943 15.8749 31.1943C18.3744 31.1943 18.3745 32.0564 20.8739 32.0564C23.3735 32.0564 23.3735 31.1943 25.873 31.1943C28.3732 31.1943 28.3732 32.0564 30.8734 32.0564C33.3723 32.0564 33.3723 31.1943 35.8711 31.1943C38.3722 31.1943 38.3722 32.0564 40.8731 32.0564C43.376 32.0564 43.376 31.1943 45.8786 31.1943C48.3814 31.1943 48.3814 32.0564 50.8841 32.0564V34.6426Z" fill="#41479B"/>
<path d="M50.8841 24.2978C48.3812 24.2978 48.3812 23.4357 45.8786 23.4357C43.3758 23.4357 43.3758 24.2978 40.8731 24.2978C38.3721 24.2978 38.3721 23.4357 35.8711 23.4357C33.3722 23.4357 33.3722 24.2978 30.8734 24.2978C28.3732 24.2978 28.3732 23.4357 25.873 23.4357C23.3734 23.4357 23.3734 24.2978 20.8739 24.2978C18.3744 24.2978 18.3743 23.4357 15.8749 23.4357C13.3755 23.4357 13.3753 24.2978 10.8757 24.2978C8.37722 24.2978 8.37722 23.4357 5.87888 23.4357C3.38172 23.4357 3.38172 24.2978 0.88446 24.2978V21.7117C3.38162 21.7117 3.38162 20.8495 5.87888 20.8495C8.37732 20.8495 8.37732 21.7117 10.8757 21.7117C13.3754 21.7117 13.3754 20.8495 15.8749 20.8495C18.3744 20.8495 18.3745 21.7117 20.8739 21.7117C23.3735 21.7117 23.3735 20.8495 25.873 20.8495C28.3732 20.8495 28.3732 21.7117 30.8734 21.7117C33.3723 21.7117 33.3723 20.8495 35.8711 20.8495C38.3722 20.8495 38.3722 21.7117 40.8731 21.7117C43.376 21.7117 43.376 20.8495 45.8786 20.8495C48.3814 20.8495 48.3814 21.7117 50.8841 21.7117V24.2978Z" fill="#41479B"/>
<path d="M50.8841 19.1255C48.3812 19.1255 48.3812 18.2633 45.8786 18.2633C43.3758 18.2633 43.3758 19.1255 40.8731 19.1255C38.3721 19.1255 38.3721 18.2633 35.8711 18.2633C33.3722 18.2633 33.3722 19.1255 30.8734 19.1255C28.3732 19.1255 28.3732 18.2633 25.873 18.2633C23.3734 18.2633 23.3734 19.1255 20.8739 19.1255C18.3744 19.1255 18.3743 18.2633 15.8749 18.2633C13.3755 18.2633 13.3753 19.1255 10.8757 19.1255C8.37722 19.1255 8.37722 18.2633 5.87888 18.2633C3.38172 18.2633 3.38172 19.1255 0.88446 19.1255V16.5392C3.38162 16.5392 3.38162 15.6771 5.87888 15.6771C8.37732 15.6771 8.37732 16.5392 10.8757 16.5392C13.3754 16.5392 13.3754 15.6771 15.8749 15.6771C18.3744 15.6771 18.3745 16.5392 20.8739 16.5392C23.3735 16.5392 23.3735 15.6771 25.873 15.6771C28.3732 15.6771 28.3732 16.5392 30.8734 16.5392C33.3723 16.5392 33.3723 15.6771 35.8711 15.6771C38.3722 15.6771 38.3722 16.5392 40.8731 16.5392C43.376 16.5392 43.376 15.6771 45.8786 15.6771C48.3814 15.6771 48.3814 16.5392 50.8841 16.5392V19.1255Z" fill="#41479B"/>
<path d="M50.8841 13.9531C48.3812 13.9531 48.3812 13.091 45.8786 13.091C43.3758 13.091 43.3758 13.9531 40.8731 13.9531C38.3721 13.9531 38.3721 13.091 35.8711 13.091C33.3722 13.091 33.3722 13.9531 30.8734 13.9531C28.3732 13.9531 28.3732 13.091 25.873 13.091C23.3734 13.091 23.3734 13.9531 20.8739 13.9531C18.3744 13.9531 18.3743 13.091 15.8749 13.091C13.3755 13.091 13.3753 13.9531 10.8757 13.9531C8.37722 13.9531 8.37722 13.091 5.87888 13.091C3.38172 13.091 3.38172 13.9531 0.88446 13.9531V11.3669C3.38162 11.3669 3.38162 10.5048 5.87888 10.5048C8.37732 10.5048 8.37732 11.3669 10.8757 11.3669C13.3754 11.3669 13.3754 10.5048 15.8749 10.5048C18.3744 10.5048 18.3745 11.3669 20.8739 11.3669C23.3735 11.3669 23.3735 10.5048 25.873 10.5048C28.3732 10.5048 28.3732 11.3669 30.8734 11.3669C33.3723 11.3669 33.3723 10.5048 35.8711 10.5048C38.3722 10.5048 38.3722 11.3669 40.8731 11.3669C43.376 11.3669 43.376 10.5048 45.8786 10.5048C48.3814 10.5048 48.3814 11.3669 50.8841 11.3669V13.9531Z" fill="#41479B"/>
<path d="M50.8841 29.4702C48.3812 29.4702 48.3812 28.6081 45.8786 28.6081C43.3758 28.6081 43.3758 29.4702 40.8731 29.4702C38.3721 29.4702 38.3721 28.6081 35.8711 28.6081C33.3722 28.6081 33.3722 29.4702 30.8734 29.4702C28.3732 29.4702 28.3732 28.6081 25.873 28.6081C23.3734 28.6081 23.3734 29.4702 20.8739 29.4702C18.3744 29.4702 18.3743 28.6081 15.8749 28.6081C13.3755 28.6081 13.3753 29.4702 10.8757 29.4702C8.37722 29.4702 8.37722 28.6081 5.87888 28.6081C3.38172 28.6081 3.38172 29.4702 0.88446 29.4702V26.884C3.38162 26.884 3.38162 26.0219 5.87888 26.0219C8.37732 26.0219 8.37732 26.884 10.8757 26.884C13.3754 26.884 13.3754 26.0219 15.8749 26.0219C18.3744 26.0219 18.3745 26.884 20.8739 26.884C23.3735 26.884 23.3735 26.0219 25.873 26.0219C28.3732 26.0219 28.3732 26.884 30.8734 26.884C33.3723 26.884 33.3723 26.0219 35.8711 26.0219C38.3722 26.0219 38.3722 26.884 40.8731 26.884C43.376 26.884 43.376 26.0219 45.8786 26.0219C48.3814 26.0219 48.3814 26.884 50.8841 26.884V29.4702Z" fill="#41479B"/>
<path d="M50.8841 39.815C48.3812 39.815 48.3812 38.9529 45.8786 38.9529C43.3758 38.9529 43.3758 39.815 40.8731 39.815C38.3721 39.815 38.3721 38.9529 35.8711 38.9529C33.3722 38.9529 33.3722 39.815 30.8734 39.815C28.3732 39.815 28.3732 38.9529 25.873 38.9529C23.3734 38.9529 23.3734 39.815 20.8739 39.815C18.3744 39.815 18.3743 38.9529 15.8749 38.9529C13.3755 38.9529 13.3753 39.815 10.8757 39.815C8.37722 39.815 8.37722 38.9529 5.87888 38.9529C3.38172 38.9529 3.38172 39.815 0.88446 39.815V37.2288C3.38162 37.2288 3.38162 36.3667 5.87888 36.3667C8.37732 36.3667 8.37732 37.2288 10.8757 37.2288C13.3754 37.2288 13.3754 36.3667 15.8749 36.3667C18.3744 36.3667 18.3745 37.2288 20.8739 37.2288C23.3735 37.2288 23.3735 36.3667 25.873 36.3667C28.3732 36.3667 28.3732 37.2288 30.8734 37.2288C33.3723 37.2288 33.3723 36.3667 35.8711 36.3667C38.3722 36.3667 38.3722 37.2288 40.8731 37.2288C43.376 37.2288 43.376 36.3667 45.8786 36.3667C48.3814 36.3667 48.3814 37.2288 50.8841 37.2288V39.815Z" fill="#41479B"/>
<path d="M25.0214 25.16H1.74565C1.26958 25.16 0.883545 24.774 0.883545 24.2979V9.64287C0.883545 9.1668 1.26958 8.78076 1.74565 8.78076H25.0214C25.4975 8.78076 25.8835 9.1668 25.8835 9.64287V24.298C25.8834 24.7742 25.4976 25.16 25.0214 25.16Z" fill="#41479B"/>
<path d="M25.0214 8.78076H23.524L15.5387 14.0125V8.78076H11.2283V14.0125L3.24301 8.78076H1.74565C1.26958 8.78076 0.883545 9.1668 0.883545 9.64287V10.3267L7.73461 14.8152H0.883545V19.1256H7.73461L0.883545 23.6142V24.2979C0.883545 24.774 1.26958 25.16 1.74565 25.16H3.24301L11.2283 19.9283V25.16H15.5387V19.9283L23.5239 25.16H25.0213C25.4974 25.16 25.8834 24.774 25.8834 24.2979V23.6141L19.0324 19.1256H25.8834V14.8152H19.0323L25.8834 10.3267V9.64287C25.8834 9.1668 25.4976 8.78076 25.0214 8.78076Z" fill="#F5F5F5"/>
<path d="M25.8834 15.6775H14.6766V8.78088H12.0904V15.6775H0.883575V18.2636H12.0904V25.1602H14.6766V18.2636H25.8834V15.6775Z" fill="#FF4B55"/>
<path d="M10.367 14.8151L1.29515 8.92633C1.05374 9.07916 0.884308 9.3358 0.884308 9.64274V9.68746L8.78361 14.8151H10.367Z" fill="#FF4B55"/>
<path d="M17.1229 14.8151L25.7531 9.21296C25.6031 8.95916 25.3385 8.78064 25.0222 8.78064H24.8358L15.5395 14.8151H17.1229Z" fill="#FF4B55"/>
<path d="M9.62236 19.1254L1.00861 24.7168C1.15714 24.9768 1.42589 25.1599 1.74679 25.1599H1.90939L11.2058 19.1254H9.62236Z" fill="#FF4B55"/>
<path d="M25.8705 24.3657L17.7976 19.1255H16.2143L25.3816 25.0761C25.6563 24.9487 25.8446 24.6816 25.8705 24.3657Z" fill="#FF4B55"/>
<path d="M38.8143 37.9908C38.4847 37.9908 38.2175 37.7235 38.2175 37.394V18.2972H39.4111V37.3941C39.4112 37.7237 39.1439 37.9908 38.8143 37.9908Z" fill="#965032"/>
<path d="M47.1694 20.6842L45.9758 20.0874L41.5813 19.5382L44.3002 16.0424L44.7222 14.7764L43.4563 15.1984L39.9605 17.9173L39.4113 13.5229L38.8144 12.3293L38.2176 13.5229L37.6684 17.9173L34.1726 15.1984L32.9067 14.7764L33.3287 16.0424L36.0476 19.5382L31.6531 20.0874L30.4595 20.6842L31.6531 21.2809L36.0476 21.8303L33.3287 25.3259L32.9067 26.5921L34.1726 26.1701L37.9705 23.2162L38.8144 21.8778L39.6583 23.2162L43.4563 26.1701L44.7222 26.5921L44.3002 25.3259L41.5813 21.8303L45.9758 21.2809L47.1694 20.6842Z" fill="#73AF00"/>
<path d="M41.4126 27.6346C40.8763 27.0993 39.7278 27.296 39.1129 27.4513V26.9504C39.1129 26.7857 38.9793 26.6521 38.8146 26.6521C38.6498 26.6521 38.5162 26.7857 38.5162 26.9504V27.4512C37.9014 27.2956 36.7531 27.0988 36.2165 27.6346C35.705 28.1458 36.0756 29.3786 36.4276 30.2356V31.0291C36.4276 31.2486 36.6054 31.4262 36.8246 31.4262H40.8047C41.024 31.4262 41.2018 31.2484 41.2018 31.0291V30.2356C41.5535 29.3786 41.9241 28.1458 41.4126 27.6346ZM40.9906 28.0566C41.2185 28.2846 40.9633 29.2838 40.5522 30.2328H39.1128V28.0677C39.7828 27.878 40.7006 27.7659 40.9906 28.0566ZM36.6384 28.0566C36.9282 27.766 37.846 27.8781 38.5162 28.0677V30.2327H37.0769C36.6657 29.2838 36.4106 28.2846 36.6384 28.0566Z" fill="#FFE15A"/>
</g>
<defs>
<clipPath id="clip0_9_4375">
<rect width="50" height="50" fill="white" transform="translate(0.882812 0.160156)"/>
</clipPath>
</defs>
</svg>
