<svg width="50" height="51" viewBox="0 0 50 51" fill="none" xmlns="http://www.w3.org/2000/svg">
<g clip-path="url(#clip0_9_4318)">
<path d="M49.1378 41.8326H0.862108C0.386034 41.8326 0 41.4466 0 40.9705V9.9362C0 9.46013 0.386034 9.0741 0.862108 9.0741H49.1379C49.614 9.0741 50 9.46013 50 9.9362V40.9705C49.9999 41.4467 49.6139 41.8326 49.1378 41.8326Z" fill="#FFE15A"/>
<path d="M0 9.93613V15.1085L49.9999 35.7981V29.7636L0.388476 9.23486C0.159668 9.38975 0 9.63887 0 9.93613Z" fill="#F5F5F5"/>
<path d="M0 21.143L49.6113 41.6717C49.8401 41.5168 49.9998 41.2676 49.9998 40.9705V35.7981L0 15.1085V21.143Z" fill="#464655"/>
<path d="M29.8418 23.9226L29.8424 23.8982C29.8424 23.8982 29.831 23.7802 29.8094 23.5586C29.8029 23.4478 29.7774 23.313 29.7438 23.1558C29.7178 22.9973 29.6676 22.8199 29.6032 22.6242C29.4737 22.2358 29.2744 21.7722 28.9302 21.3232C28.8886 21.2678 28.8394 21.213 28.7941 21.1578C28.9893 20.934 29.1797 20.6736 29.3593 20.3595C29.3593 20.3595 28.375 20.4046 27.2694 19.9222C26.9045 19.7321 26.5081 19.5762 26.0733 19.474L25.8671 18.6491C25.8229 18.4728 25.6643 18.3489 25.4826 18.3489H25.1974V17.9526H26.5847L26.1884 17.1599L26.5847 16.3671H25.1974V15.9707H24.8009V18.3489H24.5158C24.3339 18.3489 24.1754 18.4728 24.1313 18.6491L23.9296 19.4562C23.6618 19.5133 23.3951 19.5856 23.1362 19.6957C22.9244 19.7805 22.7195 19.8867 22.5195 20.0057C21.5026 20.396 20.6389 20.3596 20.6389 20.3596C20.8184 20.6735 21.0086 20.9338 21.2037 21.1575C21.1641 21.2056 21.1203 21.2487 21.082 21.2981C20.812 21.6648 20.5964 22.0771 20.4318 22.5149C20.2753 22.94 20.1863 23.4796 20.1565 23.874L20.1557 24.2554C20.1517 24.3751 20.1654 24.4937 20.178 24.6128C20.1936 24.8527 20.2467 25.0869 20.2967 25.3228C20.4203 25.7875 20.6011 26.2395 20.8477 26.6546C21.3413 27.4859 22.094 28.1413 22.9381 28.5476C23.3741 28.7397 23.786 28.8861 24.2775 28.9559C24.5393 29.0047 24.7024 29.0039 24.8964 29.0208L24.9316 29.0233L24.9493 29.0246L25.0068 29.0261L25.0893 29.0226L25.2538 29.0152C25.363 29.0079 25.4721 29.0093 25.5791 28.9933C26.4416 28.8987 27.219 28.5634 27.826 28.1279C28.433 27.6847 28.8689 27.1442 29.1675 26.629C29.4709 26.1133 29.6273 25.6142 29.7238 25.2055C29.7699 25.0014 29.8042 24.8148 29.8167 24.6394C29.8363 24.4658 29.8477 24.3236 29.8425 24.2307C29.8421 24.0298 29.8418 23.9226 29.8418 23.9226ZM22.6379 26.7161C22.3625 26.5014 22.1135 26.2456 21.8866 25.9634C21.6681 25.6744 21.4936 25.3484 21.3566 25.0018C21.2274 24.6627 21.1563 24.255 21.1214 23.9226C21.1117 23.4614 21.1333 23.1469 21.2214 22.7536C21.3174 22.3801 21.4574 22.0144 21.6522 21.6771C21.6635 21.6576 21.6789 21.641 21.6905 21.6218C22.5916 22.3257 23.5429 22.2756 24.2064 21.934V22.7092C24.4253 22.7092 24.6027 23.1528 24.6027 23.7001C24.6027 24.2474 24.4253 24.691 24.2064 24.691V25.0873C24.9499 26.0784 24.6088 26.9147 24.1519 27.4023C23.9446 27.3573 23.7295 27.2968 23.5283 27.2176C23.2163 27.0963 22.9199 26.9215 22.6379 26.7161ZM28.8764 23.8781C28.8757 23.884 28.8652 23.9858 28.8451 24.1801C28.839 24.2884 28.8151 24.3909 28.7875 24.5045C28.7677 24.619 28.7258 24.7577 28.672 24.9149C28.5647 25.2229 28.4033 25.5907 28.1226 25.9431C27.8483 26.2965 27.4783 26.6455 27.0167 26.9186C26.6657 27.1269 26.2532 27.2679 25.8173 27.3679C25.3759 26.8761 25.0651 26.0566 25.7922 25.0874V24.6911C25.5733 24.6911 25.3959 24.2474 25.3959 23.7002C25.3959 23.1529 25.5733 22.7093 25.7922 22.7093V21.9341C26.4564 22.2761 27.4092 22.326 28.3113 21.6195C28.3267 21.6455 28.3456 21.6719 28.3601 21.6976C28.6 22.1168 28.7185 22.5199 28.7928 22.8481C28.8283 23.0139 28.8544 23.1617 28.8605 23.2931C28.8742 23.423 28.8841 23.533 28.8785 23.6235C28.8771 23.7771 28.8765 23.855 28.8764 23.8781Z" fill="#FF4B55"/>
<path d="M24.9991 29.8439C23.5356 29.8439 22.208 29.2738 21.2172 28.3473C21.0353 28.1772 20.7475 28.1978 20.5854 28.3869L19.0676 30.1577C18.9063 30.346 19.0401 30.6367 19.2878 30.6367H20.2424L21.515 31.273C21.6938 31.3625 21.9111 31.3047 22.0221 31.1384L22.4317 30.5239C23.2233 30.8506 24.0896 31.0331 24.999 31.0331C25.9085 31.0331 26.7748 30.8506 27.5664 30.5239L27.976 31.1384C28.0868 31.3048 28.3042 31.3624 28.4831 31.273L29.7557 30.6367H30.7103C30.9581 30.6367 31.0919 30.346 30.9305 30.1577L29.4127 28.3869C29.2506 28.1977 28.9628 28.1772 28.7809 28.3473C27.7903 29.2738 26.4629 29.8439 24.9991 29.8439Z" fill="#FF4B55"/>
<path d="M19.4499 28.2583H17.468L17.8643 24.6909C17.8643 24.6909 16.4769 23.9971 16.6222 21.9608C16.6399 21.7131 16.8492 21.5198 17.0975 21.5198H17.4358C17.6693 21.5198 17.8651 21.6891 17.9038 21.9195C17.9872 22.4166 18.2467 23.2328 19.0534 23.5017L19.4499 28.2583Z" fill="#FF4B55"/>
<path d="M30.5485 28.2583H32.5305L32.1342 24.6909C32.1342 24.6909 33.5216 23.9971 33.3763 21.9608C33.3586 21.7131 33.1492 21.5198 32.901 21.5198H32.5627C32.3291 21.5198 32.1333 21.6891 32.0946 21.9195C32.0112 22.4166 31.7517 23.2328 30.945 23.5017L30.5485 28.2583Z" fill="#FF4B55"/>
<path d="M19.6489 28.6548H17.2707C17.1612 28.6548 17.0725 28.5662 17.0725 28.4567C17.0725 28.3472 17.1612 28.2585 17.2707 28.2585H19.6489C19.7583 28.2585 19.847 28.3472 19.847 28.4567C19.847 28.5661 19.7582 28.6548 19.6489 28.6548Z" fill="#FFE15A"/>
<path d="M32.7285 28.655H30.3503C30.2408 28.655 30.1522 28.5663 30.1522 28.4568C30.1522 28.3473 30.2408 28.2587 30.3503 28.2587H32.7285C32.838 28.2587 32.9267 28.3473 32.9267 28.4568C32.9267 28.5662 32.838 28.655 32.7285 28.655Z" fill="#FFE15A"/>
</g>
<defs>
<clipPath id="clip0_9_4318">
<rect width="50" height="50" fill="white" transform="translate(0 0.453369)"/>
</clipPath>
</defs>
</svg>
