<svg width="51" height="51" viewBox="0 0 51 51" fill="none" xmlns="http://www.w3.org/2000/svg">
<g clip-path="url(#clip0_9_4310)">
<path d="M50.7208 25.4534H0.720886V9.9362C0.720886 9.46013 1.10692 9.0741 1.58299 9.0741H49.8588C50.3349 9.0741 50.7209 9.46013 50.7209 9.9362L50.7208 25.4534Z" fill="#FF4B55"/>
<path d="M0.720886 25.4534H50.7208V40.9705C50.7208 41.4466 50.3348 41.8326 49.8587 41.8326H1.58299C1.10692 41.8326 0.720886 41.4466 0.720886 40.9705V25.4534Z" fill="#73AF00"/>
<path d="M25.9831 20.7518L27.0677 24.0038L30.4956 24.0304C30.7612 24.0325 30.8713 24.3714 30.6577 24.5292L27.9001 26.5656L28.9342 29.834C29.0142 30.0873 28.726 30.2967 28.5099 30.1422L25.721 28.1488L22.9321 30.1422C22.7161 30.2966 22.4277 30.0872 22.5079 29.834L23.542 26.5656L20.7844 24.5292C20.5707 24.3715 20.6808 24.0325 20.9465 24.0304L24.3744 24.0038L25.459 20.7518C25.5427 20.4999 25.8991 20.4999 25.9831 20.7518Z" fill="#FFE15A"/>
</g>
<defs>
<clipPath id="clip0_9_4310">
<rect width="50" height="50" fill="white" transform="translate(0.720703 0.453369)"/>
</clipPath>
</defs>
</svg>
