<svg width="51" height="51" viewBox="0 0 51 51" fill="none" xmlns="http://www.w3.org/2000/svg">
<g clip-path="url(#clip0_9_4298)">
<path d="M49.2856 9.06909H1.00987C0.533801 9.06909 0.147766 9.45513 0.147766 9.9312V40.9655C0.147766 41.4416 0.533801 41.8276 1.00987 41.8276H49.2857C49.7617 41.8276 50.1478 41.4416 50.1478 40.9655V9.9312C50.1477 9.45513 49.7616 9.06909 49.2856 9.06909Z" fill="#73AF00"/>
<path d="M4.08002 9.06909L25.1477 22.8721L46.2154 9.06909H4.08002Z" fill="#FF4B55"/>
<path d="M46.2158 41.8376L25.1481 28.0345L4.08044 41.8376H46.2158Z" fill="#FF4B55"/>
<path d="M50.1477 9.9312C50.1477 9.45513 49.7616 9.06909 49.2856 9.06909H46.2155L30.1961 19.5645C28.8387 18.3988 27.0774 17.6899 25.1477 17.6899C23.218 17.6899 21.4567 18.3987 20.0993 19.5645L4.07999 9.06909H1.00987C0.533801 9.06909 0.147766 9.45513 0.147766 9.9312V11.6455L17.7315 23.1657C17.5096 23.8875 17.389 24.6539 17.389 25.4484C17.389 26.2429 17.5096 27.0091 17.7315 27.731L0.147766 39.2514V40.9656C0.147766 41.4417 0.533801 41.8277 1.00987 41.8277H4.07999L20.0992 31.3324C21.4566 32.4981 23.2179 33.2071 25.1476 33.2071C27.0773 33.2071 28.8386 32.4983 30.196 31.3324L46.2153 41.8277H49.2854C49.7614 41.8277 50.1475 41.4417 50.1475 40.9656V39.2514L32.5638 27.7311C32.7857 27.0093 32.9063 26.2429 32.9063 25.4485C32.9063 24.6539 32.7857 23.8877 32.5638 23.1658L50.1476 11.6456L50.1477 9.9312Z" fill="#F5F5F5"/>
<path d="M24.589 22.9675L23.4201 22.9978L24.0305 22.0001L23.4201 21.0026L24.589 21.0328L25.1475 20.005L25.7062 21.0328L26.8752 21.0026L26.2647 22.0001L26.8752 22.9978L25.7062 22.9675L25.1475 23.9953L24.589 22.9675Z" fill="#FF4B55"/>
<path d="M25.1476 20.276L25.6303 21.1639L26.6407 21.138L26.1131 22.0001L26.6407 22.8622L25.6303 22.8364L25.1476 23.7243L24.6649 22.8364L23.6546 22.8622L24.1821 22.0001L23.6546 21.138L24.6649 21.1639L25.1476 20.276ZM25.1476 19.7346L24.9204 20.1525L24.5132 20.9014L23.6611 20.8795L23.1856 20.8673L23.4338 21.2732L23.8789 22.0002L23.4338 22.7273L23.1856 23.1331L23.6611 23.1209L24.5132 23.0991L24.9204 23.848L25.1476 24.2659L25.3749 23.848L25.782 23.0991L26.6341 23.1209L27.1097 23.1331L26.8615 22.7273L26.4165 22.0002L26.8615 21.2732L27.1097 20.8673L26.6341 20.8795L25.782 20.9014L25.3749 20.1525L25.1476 19.7346Z" fill="#73AF00"/>
<path d="M21.3787 28.6812L20.2098 28.7116L20.8201 27.714L20.2098 26.7164L21.3787 26.7467L21.9373 25.7188L22.4959 26.7467L23.6648 26.7164L23.0544 27.714L23.6648 28.7116L22.4959 28.6812L21.9373 29.7091L21.3787 28.6812Z" fill="#FF4B55"/>
<path d="M21.9374 25.9899L22.4201 26.8778L23.4305 26.8519L22.9029 27.714L23.4305 28.5761L22.4201 28.5502L21.9374 29.4381L21.4547 28.5502L20.4443 28.5761L20.9719 27.714L20.4443 26.8519L21.4547 26.8778L21.9374 25.9899ZM21.9374 25.4484L21.7101 25.8662L21.303 26.6152L20.4509 26.5933L19.9753 26.5811L20.2235 26.9869L20.6685 27.714L20.2235 28.441L19.9753 28.8469L20.4509 28.8347L21.303 28.8128L21.7101 29.5617L21.9374 29.9796L22.1646 29.5617L22.5718 28.8128L23.4239 28.8347L23.8995 28.8469L23.6513 28.441L23.2062 27.714L23.6513 26.9869L23.8995 26.5811L23.4239 26.5933L22.5718 26.6152L22.1646 25.8662L21.9374 25.4484Z" fill="#73AF00"/>
<path d="M27.7994 28.6812L26.6304 28.7116L27.2408 27.714L26.6304 26.7164L27.7994 26.7467L28.3579 25.7188L28.9166 26.7467L30.0855 26.7164L29.4752 27.714L30.0855 28.7116L28.9166 28.6812L28.3579 29.7091L27.7994 28.6812Z" fill="#FF4B55"/>
<path d="M28.358 25.9899L28.8408 26.8778L29.8511 26.8519L29.3236 27.714L29.8511 28.5761L28.8408 28.5502L28.358 29.4381L27.8753 28.5502L26.865 28.5761L27.3925 27.714L26.865 26.8519L27.8753 26.8778L28.358 25.9899ZM28.358 25.4484L28.1308 25.8662L27.7237 26.6152L26.8715 26.5933L26.3959 26.5811L26.6442 26.9869L27.0892 27.714L26.6442 28.441L26.3959 28.8469L26.8715 28.8347L27.7237 28.8128L28.1308 29.5617L28.358 29.9796L28.5853 29.5617L28.9924 28.8128L29.8446 28.8347L30.3201 28.8469L30.0719 28.441L29.6269 27.714L30.0719 26.9869L30.3201 26.5811L29.8446 26.5933L28.9924 26.6152L28.5853 25.8662L28.358 25.4484Z" fill="#73AF00"/>
</g>
<defs>
<clipPath id="clip0_9_4298">
<rect width="50" height="50" fill="white" transform="translate(0.148438 0.453369)"/>
</clipPath>
</defs>
</svg>
