<svg width="51" height="51" viewBox="0 0 51 51" fill="none" xmlns="http://www.w3.org/2000/svg">
    <g clip-path="url(#clip0_9_4294)">
        <path
            d="M49.5796 41.8326H1.30388C0.827807 41.8326 0.441772 41.4466 0.441772 40.9705V9.9362C0.441772 9.46013 0.827807 9.0741 1.30388 9.0741H49.5797C50.0557 9.0741 50.4418 9.46013 50.4418 9.9362V40.9705C50.4417 41.4467 50.0556 41.8326 49.5796 41.8326Z"
            fill="#41479B" />
        <path d="M50.4417 16.8323H0.441772V34.0734H50.4417V16.8323Z" fill="#FF4B55" />
        <path
            d="M36.8496 31.9899V30.7674H36.4422V29.9526H36.0347V29.1378H35.6272V28.323H34.405V25.8785H34.4049L34.8124 25.471V24.2488H34.405V23.4339H33.9975V22.2117H33.5902V21.3968H33.1828V20.582H32.7754V20.1746H31.9604V20.582H31.553V21.3968H31.1456V22.2117H30.7383V23.4339H30.3309V24.2488H27.8862V23.0265H27.4789V21.8042H27.0715V20.582H26.6641V19.7671H26.2566V18.9523H25.8492V18.5449H25.6455V18.1375H25.2381V18.5449H25.0343V18.9523H24.627V19.7671H24.2195V20.582H23.8121V21.8042H23.4047V23.0265H22.9973V24.2488H20.5527V23.4339H20.1453V22.2117H19.7379V21.3968H19.3305V20.582H18.9231V20.1746H18.1082V20.582H17.7008V21.3968H17.2934V22.2117H16.886V23.4339H16.4785V24.2488H16.0711V25.471L16.4783 25.8785H16.4785V28.323H15.2564V29.1378H14.8489V29.9526H14.4414V30.7674H14.034V31.9899H13.6266V33.2119H37.2569V31.9899H36.8496Z"
            fill="#F5F5F5" />
    </g>
    <defs>
        <clipPath id="clip0_9_4294">
            <rect width="50" height="50" fill="white" transform="translate(0.441406 0.453369)" />
        </clipPath>
    </defs>
</svg>
