<svg width="51" height="51" viewBox="0 0 51 51" fill="none" xmlns="http://www.w3.org/2000/svg">
    <g clip-path="url(#clip0_9_4288)">
        <path
            d="M17.5354 41.8325H1.73076C1.25469 41.8325 0.868652 41.4464 0.868652 40.9703V9.93596C0.868652 9.45989 1.25469 9.07385 1.73076 9.07385H17.5354V41.8325Z"
            fill="#73AF00" />
        <path d="M34.2026 9.07422H17.5356V41.833H34.2026V9.07422Z" fill="#FF4B55" />
        <path
            d="M50.007 41.8325H34.2024V9.07385H50.007C50.4831 9.07385 50.8691 9.45989 50.8691 9.93596V40.9703C50.8691 41.4465 50.4831 41.8325 50.007 41.8325Z"
            fill="#FFE15A" />
        <path
            d="M26.0481 22.2934L26.7887 24.5142L29.1296 24.5323C29.311 24.5336 29.3862 24.7652 29.2403 24.8729L27.3571 26.2635L28.0632 28.4955C28.118 28.6685 27.9211 28.8115 27.7735 28.706L25.869 27.3448L23.9645 28.7061C23.8169 28.8116 23.6201 28.6685 23.6747 28.4956L24.3809 26.2636L22.4977 24.873C22.3518 24.7653 22.427 24.5337 22.6083 24.5324L24.9493 24.5143L25.6899 22.2935C25.7474 22.1214 25.9907 22.1214 26.0481 22.2934Z"
            fill="#FFE15A" />
    </g>
    <defs>
        <clipPath id="clip0_9_4288">
            <rect width="50" height="50" fill="white" transform="translate(0.869141 0.453369)" />
        </clipPath>
    </defs>
</svg>
