<svg width="51" height="51" viewBox="0 0 51 51" fill="none" xmlns="http://www.w3.org/2000/svg">
    <g clip-path="url(#clip0_9_4252)">
        <path
            d="M17.2562 41.8325H1.45162C0.975543 41.8325 0.589508 41.4464 0.589508 40.9703V9.93596C0.589508 9.45989 0.975543 9.07385 1.45162 9.07385H17.2562V41.8325Z"
            fill="#F5F5F5" />
        <path d="M33.9235 9.07422H17.2565V41.833H33.9235V9.07422Z" fill="#4173CD" />
        <path
            d="M49.7274 41.8325H33.9228V9.07385H49.7274C50.2034 9.07385 50.5895 9.45989 50.5895 9.93596V40.9703C50.5895 41.4465 50.2034 41.8325 49.7274 41.8325Z"
            fill="#FFE15A" />
        <path
            d="M22.9876 26.4094C22.9776 26.6669 22.5916 26.7758 22.5916 26.7758C22.552 26.3402 22.9976 25.5384 23.0865 25.4691C23.1757 25.3998 23.532 25.0731 23.1757 25.1424C22.8193 25.2117 22.4727 26.0134 22.3935 26.152C22.3143 26.2906 22.1263 26.2807 22.1263 26.2807C22.1263 26.2807 22.1263 25.6373 22.1263 25.4987C22.1263 25.3601 22.74 25.0632 22.74 25.0632C22.74 25.0632 22.8391 24.4692 22.75 24.4098C22.6608 24.3505 22.4728 24.5188 22.2055 24.5385C21.9382 24.5584 21.6115 24.5683 21.3344 24.8257C21.0572 25.0831 21.0473 25.2612 21.0473 25.6967C21.0473 26.1323 21.0473 25.6967 21.0473 26.7461C21.0473 27.7954 20.0672 28.528 19.701 28.8942C19.6013 28.9939 19.5631 29.1159 19.5598 29.2438C19.4861 29.3128 19.3237 29.4133 19.1881 29.3842C18.9796 29.3393 18.9485 28.9727 18.9485 28.7582C18.9485 28.6926 18.8954 28.6394 18.8298 28.6394C18.7642 28.6394 18.711 28.6926 18.711 28.7582C18.711 29.484 19.02 29.6132 19.204 29.6258C19.2142 29.6264 19.2242 29.6267 19.2346 29.6267C19.3565 29.6267 19.4877 29.5786 19.5965 29.5114C19.6673 29.7676 19.8164 30.0058 19.8592 30.102C19.9384 30.2802 19.5028 30.5674 19.5028 30.5674L19.8592 31.6662H20.3443C20.3443 31.394 20.0128 31.4484 19.9632 31.3791C19.9138 31.3097 19.8544 30.6811 19.8544 30.6811L20.5427 30.1052C20.5958 30.0608 20.6265 29.9951 20.6265 29.9259V29.6194C20.6265 29.6194 21.1313 29.701 21.2576 29.8124C21.3838 29.9238 21.2725 30.2579 21.2725 30.3023C21.2725 30.3469 21.9109 30.9111 21.9109 30.9111H22.349C22.349 30.7107 22.1411 30.7181 22.0372 30.6809C21.9332 30.6438 21.6215 30.2578 21.6215 30.2578C21.6215 30.2578 21.7898 29.7356 21.7898 29.6069C21.7898 29.4782 21.0672 28.9536 21.0672 28.9536C21.0672 28.9536 21.1662 28.7852 21.8987 28.3299C22.6312 27.8745 22.5719 27.3597 22.5719 27.3597L23.2055 26.647V26.1323C23.2054 26.1322 22.9975 26.152 22.9876 26.4094Z"
            fill="#C17400" />
        <path
            d="M28.2089 26.4096C28.2188 26.667 28.6049 26.7759 28.6049 26.7759C28.6444 26.3403 28.1989 25.5385 28.11 25.4692C28.0208 25.3999 27.6645 25.0732 28.0208 25.1425C28.3772 25.2118 28.7237 26.0136 28.8029 26.1521C28.8821 26.2907 29.0702 26.2809 29.0702 26.2809C29.0702 26.2809 29.0702 25.6374 29.0702 25.4988C29.0702 25.3602 28.4564 25.0633 28.4564 25.0633C28.4564 25.0633 28.3574 24.4693 28.4465 24.41C28.5356 24.3506 28.7236 24.5189 28.991 24.5387C29.2583 24.5585 29.585 24.5685 29.8621 24.8258C30.1393 25.0832 30.1492 25.2613 30.1492 25.6969C30.1492 26.1324 30.1492 25.6969 30.1492 26.7462C30.1492 27.7955 31.1293 28.5281 31.4955 28.8943C31.5952 28.994 31.6334 29.116 31.6366 29.2439C31.7103 29.3129 31.8727 29.4134 32.0083 29.3843C32.2168 29.3395 32.2479 28.9728 32.2479 28.7583C32.2479 28.6927 32.301 28.6395 32.3666 28.6395C32.4322 28.6395 32.4854 28.6927 32.4854 28.7583C32.4854 29.4841 32.1764 29.6133 31.9924 29.6259C31.9822 29.6266 31.9722 29.6269 31.9618 29.6269C31.8398 29.6269 31.7087 29.5787 31.5999 29.5115C31.5291 29.7678 31.38 30.006 31.3372 30.1021C31.258 30.2804 31.6936 30.5675 31.6936 30.5675L31.3372 31.6663H30.8521C30.8521 31.3941 31.1837 31.4485 31.2332 31.3792C31.2827 31.3099 31.342 30.6812 31.342 30.6812L30.6537 30.1054C30.6006 30.0609 30.5699 29.9952 30.5699 29.926V29.6195C30.5699 29.6195 30.065 29.7012 29.9388 29.8125C29.8126 29.9239 29.9239 30.258 29.9239 30.3024C29.9239 30.3469 29.2854 30.9112 29.2854 30.9112H28.8474C28.8474 30.7108 29.0553 30.7183 29.1592 30.6811C29.2632 30.6439 29.5749 30.2579 29.5749 30.2579C29.5749 30.2579 29.4065 29.7357 29.4065 29.607C29.4065 29.4783 30.1292 28.9537 30.1292 28.9537C30.1292 28.9537 30.0302 28.7853 29.2977 28.33C28.5651 27.8746 28.6245 27.3599 28.6245 27.3599L27.9909 26.6472V26.1324C27.9911 26.1323 28.1989 26.1521 28.2089 26.4096Z"
            fill="#C17400" />
        <path d="M24.6457 25.7314L23.933 26.4441H25.3586L24.6457 25.7314Z" fill="#C8C8C8" />
        <path d="M26.5459 25.7314L25.8333 26.4441H27.2586L26.5459 25.7314Z" fill="#C8C8C8" />
        <path d="M24.6452 26.9194L23.9325 27.6321H25.3581L24.6452 26.9194Z" fill="#C8C8C8" />
        <path d="M26.5459 26.9194L25.8333 27.6321H27.2586L26.5459 26.9194Z" fill="#C8C8C8" />
        <path d="M24.6452 28.1073L23.9325 28.82H25.3581L24.6452 28.1073Z" fill="#C8C8C8" />
        <path d="M26.5459 28.1073L25.8333 28.82H27.2586L26.5459 28.1073Z" fill="#C8C8C8" />
        <path d="M25.5958 29.2952L24.8829 30.0079H26.3085L25.5958 29.2952Z" fill="#C8C8C8" />
        <path d="M25.7138 21.9305H25.4768V23.356H25.7138V21.9305Z" fill="#FFE15A" />
        <path
            d="M24.2926 23.3841C24.2886 23.3688 24.2011 23.0041 24.4468 22.7382C24.6632 22.5039 25.0569 22.4324 25.6153 22.5255L25.5763 22.7599C25.1078 22.6815 24.7777 22.7299 24.6213 22.8994C24.4643 23.0694 24.5225 23.3242 24.5231 23.3267L24.2926 23.3841Z"
            fill="#FFE15A" />
        <path
            d="M23.6418 24.1744C23.3449 24.0259 23.199 23.5949 23.3232 23.2329C23.3752 23.0812 23.6092 22.5992 24.4311 22.7638L24.3844 22.9968C23.9502 22.9093 23.646 23.0243 23.548 23.3101C23.4633 23.5568 23.5587 23.8674 23.7481 23.962L23.6418 24.1744Z"
            fill="#FFE15A" />
        <path
            d="M26.899 23.3842L26.6686 23.3267L26.7839 23.3555L26.6684 23.3271C26.6691 23.3246 26.728 23.0685 26.569 22.8979C26.412 22.7295 26.0823 22.6816 25.6155 22.7599L25.5765 22.5255C26.1357 22.4321 26.5287 22.5039 26.745 22.7382C26.9905 23.0041 26.9028 23.3688 26.899 23.3842Z"
            fill="#FFE15A" />
        <path
            d="M27.5495 24.1744L27.4432 23.9619C27.6326 23.8672 27.728 23.5565 27.6433 23.3099C27.5453 23.0243 27.2405 22.9095 26.8069 22.9966L26.7602 22.7636C27.5827 22.5991 27.8161 23.0813 27.8681 23.2328C27.9924 23.5948 27.8464 24.0258 27.5495 24.1744Z"
            fill="#FFE15A" />
        <path
            d="M26.5465 23.3554C26.5465 23.3554 26.0713 23.1178 25.5962 23.1178C25.1211 23.1178 24.6459 23.3554 24.6459 23.3554C24.1707 23.1178 23.458 23.3554 23.458 23.8306C23.458 24.3058 24.1707 25.0185 24.1707 25.0185H25.5963H27.0218C27.0218 25.0185 27.7345 24.3058 27.7345 23.8306C27.7345 23.3554 27.0217 23.1178 26.5465 23.3554Z"
            fill="#FF4B55" />
        <path d="M25.8342 22.0488H25.359V22.2864H25.8342V22.0488Z" fill="#FFE15A" />
        <path d="M27.9729 20.7423H23.2207V21.6926H27.9729V20.7423Z" fill="#C8C8C8" />
        <path d="M23.8089 22.0288L23.5837 21.3528L22.1582 21.8277L22.3835 22.5038L23.8089 22.0288Z"
            fill="#C8C8C8" />
        <path d="M29.037 21.8297L27.6115 21.3546L27.3862 22.0307L28.8117 22.5058L29.037 21.8297Z"
            fill="#C8C8C8" />
        <path
            d="M25.5961 30.8395C24.2206 30.8395 23.1013 30.1467 23.1013 29.2952V25.2563C23.1013 25.0597 23.2612 24.8999 23.4577 24.8999H27.7343C27.9308 24.8999 28.0906 25.0598 28.0906 25.2563V29.2952C28.0907 30.1467 26.9716 30.8395 25.5961 30.8395ZM23.4577 25.1374C23.3922 25.1374 23.3389 25.1907 23.3389 25.2562V29.2951C23.3389 30.0155 24.3514 30.6018 25.5961 30.6018C26.8407 30.6018 27.8532 30.0154 27.8532 29.2951V25.2562C27.8532 25.1907 27.8 25.1374 27.7345 25.1374H23.4577Z"
            fill="#464655" />
    </g>
    <defs>
        <clipPath id="clip0_9_4252">
            <rect width="50" height="50" fill="white" transform="translate(0.589844 0.453369)" />
        </clipPath>
    </defs>
</svg>
