<svg width="51" height="51" viewBox="0 0 51 51" fill="none" xmlns="http://www.w3.org/2000/svg">
<g clip-path="url(#clip0_9_4235)">
<path d="M50.0213 41.8326H1.74565C1.26958 41.8326 0.883545 41.4466 0.883545 40.9705V9.9362C0.883545 9.46013 1.26958 9.0741 1.74565 9.0741H50.0214C50.4975 9.0741 50.8835 9.46013 50.8835 9.9362V40.9705C50.8834 41.4467 50.4974 41.8326 50.0213 41.8326Z" fill="#41479B"/>
<path d="M50.8834 28.0393H0.883545V30.3381H50.8834V28.0393Z" fill="#F5F5F5"/>
<path d="M50.8842 32.6379H0.884277V34.9368H50.8842V32.6379Z" fill="#F5F5F5"/>
<path d="M50.8834 30.3381H0.883545V32.637H50.8834V30.3381Z" fill="#FF4B55"/>
<path d="M17.4512 23.3697L17.7157 24.1624L18.5513 24.1689C18.6161 24.1695 18.6429 24.252 18.5909 24.2905L17.9186 24.787L18.1706 25.5837C18.1902 25.6455 18.1199 25.6965 18.0672 25.6588L17.3873 25.1728L16.7073 25.6588C16.6545 25.6964 16.5843 25.6455 16.6039 25.5837L16.8559 24.787L16.1836 24.2905C16.1316 24.252 16.1584 24.1694 16.2232 24.1689L17.0588 24.1624L17.3233 23.3697C17.3438 23.3083 17.4308 23.3083 17.4512 23.3697Z" fill="#FFE15A"/>
<path d="M17.4512 37.3011L17.7157 38.0938L18.5513 38.1003C18.6161 38.1009 18.6429 38.1834 18.5909 38.2219L17.9186 38.7184L18.1706 39.5151C18.1902 39.5769 18.1199 39.6279 18.0672 39.5902L17.3873 39.1042L16.7073 39.5902C16.6545 39.6278 16.5843 39.5769 16.6039 39.5151L16.8559 38.7184L16.1836 38.2219C16.1316 38.1834 16.1584 38.1008 16.2232 38.1003L17.0588 38.0938L17.3233 37.3011C17.3438 37.2396 17.4308 37.2396 17.4512 37.3011Z" fill="#FFE15A"/>
<path d="M12.929 38.0795L13.6009 37.5826L14.2885 38.0576C14.3418 38.0944 14.4113 38.0422 14.3908 37.9808L14.1259 37.1881L14.7902 36.6809C14.8417 36.6415 14.8134 36.5594 14.7487 36.56L13.913 36.5669L13.6359 35.7785C13.6144 35.7173 13.5276 35.7188 13.5081 35.7805L13.2564 36.5775L12.421 36.5974C12.3562 36.5989 12.3307 36.682 12.3835 36.7196L13.0636 37.2051L12.8244 38.0059C12.8058 38.0681 12.8768 38.1181 12.929 38.0795Z" fill="#FFE15A"/>
<path d="M14.2729 26.7542L13.5905 26.2717L12.9131 26.7611C12.8607 26.799 12.7901 26.7483 12.8093 26.6864L13.0573 25.8884L12.3825 25.3953C12.3303 25.3571 12.3567 25.2744 12.4214 25.2735L13.2571 25.2629L13.5175 24.4689C13.5376 24.4073 13.6245 24.4069 13.6453 24.4682L13.9138 25.2597L14.7495 25.2619C14.8143 25.2621 14.8415 25.3445 14.7896 25.3832L14.1197 25.883L14.3759 26.6786C14.3958 26.74 14.3258 26.7915 14.2729 26.7542Z" fill="#FFE15A"/>
<path d="M20.5668 26.7645L21.2388 26.2676L21.9263 26.7426C21.9796 26.7793 22.0491 26.7272 22.0286 26.6657L21.7638 25.8731L22.428 25.3658C22.4795 25.3265 22.4512 25.2443 22.3865 25.2449L21.5509 25.2519L21.2737 24.4634C21.2522 24.4023 21.1654 24.4037 21.1459 24.4654L20.8942 25.2624L20.0588 25.2823C19.994 25.2838 19.9685 25.3669 20.0213 25.4045L20.7014 25.89L20.4622 26.6908C20.4436 26.7529 20.5147 26.803 20.5668 26.7645Z" fill="#FFE15A"/>
<path d="M21.9107 38.0693L21.2284 37.5867L20.5509 38.0762C20.4985 38.1141 20.4279 38.0634 20.4471 38.0015L20.6952 37.2034L20.0204 36.7104C19.9681 36.6722 19.9945 36.5895 20.0592 36.5886L20.8949 36.578L21.1553 35.7839C21.1754 35.7224 21.2624 35.722 21.2832 35.7832L21.5516 36.5747L22.3873 36.577C22.4521 36.5772 22.4793 36.6596 22.4274 36.6983L21.7576 37.1981L22.0137 37.9937C22.0335 38.0554 21.9635 38.1068 21.9107 38.0693Z" fill="#FFE15A"/>
<path d="M11.9295 33.2L11.0938 33.2055L10.818 32.4166C10.7967 32.3555 10.7098 32.3567 10.6902 32.4185L10.4372 33.215L9.60163 33.2336C9.53689 33.235 9.5112 33.3181 9.56394 33.3558L10.2433 33.8425L10.0027 34.6428C9.98405 34.7047 10.055 34.7549 10.1072 34.7164L10.78 34.2207L11.4669 34.6969C11.5201 34.7337 11.5896 34.6816 11.5692 34.6202L11.3056 33.8272L11.9707 33.3211C12.0222 33.2817 11.9942 33.1995 11.9295 33.2Z" fill="#FFE15A"/>
<path d="M9.60179 28.9046L10.4373 28.8888L10.6929 28.0931C10.7127 28.0315 10.7995 28.0305 10.8207 28.0918L11.094 28.8815L11.9297 28.8787C11.9945 28.8785 12.0223 28.9608 11.9705 28.9998L11.3038 29.5037L11.5649 30.2976C11.5851 30.3592 11.5155 30.411 11.4623 30.3739L10.7771 29.8956L10.1027 30.3891C10.0504 30.4274 9.97962 30.377 9.99837 30.3151L10.2415 29.5155L9.5637 29.0266C9.51117 28.9887 9.53714 28.9057 9.60179 28.9046Z" fill="#FFE15A"/>
<path d="M25.171 28.8739L24.3354 28.8793L24.0596 28.0905C24.0383 28.0293 23.9514 28.0305 23.9318 28.0923L23.6788 28.8889L22.8432 28.9075C22.7785 28.9088 22.7528 28.9919 22.8055 29.0296L23.4849 29.5164L23.2443 30.3166C23.2256 30.3786 23.2966 30.4288 23.3488 30.3904L24.0216 29.8947L24.7084 30.3708C24.7617 30.4077 24.8312 30.3556 24.8108 30.2942L24.5473 29.5011L25.2123 28.9951C25.2638 28.9557 25.2358 28.8734 25.171 28.8739Z" fill="#FFE15A"/>
<path d="M22.8434 33.2309L23.6789 33.2151L23.9345 32.4194C23.9543 32.3578 24.0411 32.3568 24.0623 32.4181L24.3356 33.2078L25.1713 33.205C25.2361 33.2048 25.2639 33.2871 25.2121 33.3261L24.5454 33.83L24.8065 34.6239C24.8267 34.6854 24.7571 34.7373 24.7039 34.7002L24.0187 34.2219L23.3443 34.7154C23.292 34.7537 23.2212 34.7033 23.24 34.6414L23.4831 33.8418L22.8053 33.3529C22.7528 33.315 22.7786 33.2322 22.8434 33.2309Z" fill="#FFE15A"/>
</g>
<defs>
<clipPath id="clip0_9_4235">
<rect width="50" height="50" fill="white" transform="translate(0.882812 0.453369)"/>
</clipPath>
</defs>
</svg>
