<svg width="51" height="51" viewBox="0 0 51 51" fill="none" xmlns="http://www.w3.org/2000/svg">
    <g clip-path="url(#clip0_9_4149)">
        <path
            d="M49.4482 41.9674H1.17252C0.696444 41.9674 0.31041 41.5814 0.31041 41.1053V10.071C0.31041 9.5949 0.696444 9.20886 1.17252 9.20886H49.4483C49.9244 9.20886 50.3104 9.5949 50.3104 10.071V41.1053C50.3103 41.5815 49.9243 41.9674 49.4482 41.9674Z"
            fill="#41479B" />
        <path
            d="M24.4483 9.20886H22.9509L14.9656 14.4406V9.20886H10.6552V14.4406L2.66988 9.20886H1.17252C0.696444 9.20886 0.31041 9.5949 0.31041 10.071V10.7548L7.16147 15.2433H0.31041V19.5537H7.16147L0.31041 24.0423V24.726C0.31041 25.2021 0.696444 25.5881 1.17252 25.5881H2.66988L10.6552 20.3564V25.5881H14.9656V20.3564L22.9508 25.5881H24.4482C24.9242 25.5881 25.3103 25.2021 25.3103 24.726V24.0422L18.4593 19.5537H25.3103V15.2433H18.4592L25.3103 10.7548V10.071C25.3103 9.5949 24.9244 9.20886 24.4483 9.20886Z"
            fill="#F5F5F5" />
        <path
            d="M25.3102 16.1054H14.1034V9.20886H11.5172V16.1054H0.310394V18.6916H11.5172V25.5881H14.1034V18.6916H25.3102V16.1054Z"
            fill="#FF4B55" />
        <path
            d="M9.79295 15.2434L0.721096 9.35461C0.47969 9.50745 0.310257 9.76409 0.310257 10.071V10.1157L8.20956 15.2434H9.79295Z"
            fill="#FF4B55" />
        <path
            d="M16.5489 15.2433L25.1791 9.64119C25.0291 9.38738 24.7645 9.20886 24.4482 9.20886H24.2617L14.9655 15.2433H16.5489Z"
            fill="#FF4B55" />
        <path
            d="M9.04755 19.5537L0.433792 25.1451C0.582327 25.4051 0.851076 25.5882 1.17197 25.5882H1.33457L10.6309 19.5537H9.04755Z"
            fill="#FF4B55" />
        <path
            d="M25.2964 24.794L17.2236 19.5538H15.6403L24.8075 25.5044C25.0822 25.377 25.2705 25.1099 25.2964 24.794Z"
            fill="#FF4B55" />
        <path
            d="M37.7927 17.4063C37.7927 17.4063 37.4322 15.9643 36.3507 15.2433C36.3507 15.2433 37.4322 17.0457 37.4322 18.4878L37.7927 17.4063Z"
            fill="#FFE15A" />
        <path
            d="M36.1255 15.8402C36.1255 15.8402 36.8804 16.302 37.2858 17.0569L36.9591 17.8118C36.9593 17.8118 36.6889 16.7416 36.1255 15.8402Z"
            fill="#FFE15A" />
        <path
            d="M35.2914 16.0093C35.2914 16.0093 36.5982 16.4148 37.2177 17.2598L36.8459 17.823C36.846 17.823 36.3503 16.8655 35.2914 16.0093Z"
            fill="#FFE15A" />
        <path
            d="M35.1003 16.6627C35.1003 16.6627 36.4747 16.8767 37.0944 17.5302L36.9367 18.1498C36.9367 18.1497 36.1819 17.2485 35.1003 16.6627Z"
            fill="#FFE15A" />
        <path
            d="M35.1456 17.1133C35.1456 17.1133 36.4749 17.2485 37.0832 17.9469C37.6915 18.6454 36.858 18.4312 36.858 18.4312C36.858 18.4312 36.1594 17.6315 35.1456 17.1133Z"
            fill="#FFE15A" />
        <path
            d="M37.7929 17.4063C37.7929 17.4063 38.1534 15.9643 39.2349 15.2433C39.2349 15.2433 38.1535 17.0457 38.1535 18.4878L37.7929 17.4063Z"
            fill="#FFE15A" />
        <path
            d="M39.4602 15.8402C39.4602 15.8402 38.7053 16.302 38.2999 17.0569L38.6266 17.8118C38.6265 17.8118 38.8969 16.7416 39.4602 15.8402Z"
            fill="#FFE15A" />
        <path
            d="M40.2939 16.0093C40.2939 16.0093 38.987 16.4148 38.3675 17.2598L38.7393 17.823C38.7392 17.823 39.2349 16.8655 40.2939 16.0093Z"
            fill="#FFE15A" />
        <path
            d="M40.4854 16.6627C40.4854 16.6627 39.111 16.8767 38.4914 17.5302L38.6491 18.1498C38.6491 18.1497 39.4039 17.2485 40.4854 16.6627Z"
            fill="#FFE15A" />
        <path
            d="M40.4401 17.1133C40.4401 17.1133 39.1108 17.2485 38.5024 17.9469C37.8941 18.6454 38.7277 18.4312 38.7277 18.4312C38.7277 18.4312 39.4262 17.6315 40.4401 17.1133Z"
            fill="#FFE15A" />
        <path
            d="M37.7924 15.2432C37.7924 15.2432 37.4329 16.0017 37.7924 16.381C38.152 16.0018 37.7924 15.2432 37.7924 15.2432Z"
            fill="#FFE15A" />
        <path
            d="M37.4336 15.4315C37.4336 15.4315 37.3853 16.27 37.8619 16.4856C38.0532 15.9985 37.4336 15.4315 37.4336 15.4315Z"
            fill="#FFE15A" />
        <path
            d="M38.152 15.4315C38.152 15.4315 38.2003 16.27 37.7236 16.4856C37.5323 15.9985 38.152 15.4315 38.152 15.4315Z"
            fill="#FFE15A" />
        <path
            d="M38.2699 15.9152C38.2699 15.9152 37.9554 16.694 37.4322 16.6851C37.4675 16.163 38.2699 15.9152 38.2699 15.9152Z"
            fill="#FFE15A" />
        <path
            d="M37.3155 15.9152C37.3155 15.9152 37.63 16.694 38.1532 16.6851C38.1179 16.163 37.3155 15.9152 37.3155 15.9152Z"
            fill="#FFE15A" />
        <path
            d="M37.7928 19.2088C38.3904 19.2088 38.8748 18.5632 38.8748 17.7668C38.8748 16.9704 38.3904 16.3248 37.7928 16.3248C37.1952 16.3248 36.7107 16.9704 36.7107 17.7668C36.7107 18.5632 37.1952 19.2088 37.7928 19.2088Z"
            fill="#FFD255" />
        <path
            d="M35.3227 19.239L35.0748 18.8559C35.0748 18.8559 34.3538 19.0286 34.1811 18.4879L33.9032 18.4653C33.9032 18.4653 33.9407 18.0974 34.2636 18.0447C34.2636 18.0447 34.4588 17.8044 34.8043 17.8495C35.1498 17.8945 35.3301 18.1874 35.5291 18.2626C35.7282 18.3377 35.7507 18.5855 35.7507 18.5855L37.2678 20.1401C37.2678 20.1401 36.8323 20.696 36.4416 20.8762C36.051 21.0562 34.6166 20.1777 35.3227 19.239Z"
            fill="#73AF00" />
        <path
            d="M40.2499 19.5244C40.2499 19.5244 40.8809 19.9525 40.9033 21.1354H39.8556C39.8556 21.1354 39.8669 20.3355 39.6641 19.9075L40.2499 19.5244Z"
            fill="#73AF00" />
        <path
            d="M40.1149 19.5696C40.1149 19.5696 40.9035 19.8288 41.3879 19.2092L40.5656 19.0966L40.1149 19.5696Z"
            fill="#73AF00" />
        <path
            d="M39.8784 18.702L40.6791 18.9719C40.7801 19.006 40.8158 19.131 40.745 19.2107C40.4411 19.553 39.5343 20.3731 38.0721 20.3731C36.1682 20.3731 35.6763 19.1752 35.6537 19.0851C35.6312 18.9951 35.5298 18.2628 35.5298 18.2628L36.3409 18.1727L39.8784 18.702Z"
            fill="#73AF00" />
        <path d="M32.0915 29.7316H34.1885L33.107 31.8264L32.0255 30.3843L32.0915 29.7316Z"
            fill="#FF4B55" />
        <path d="M43.495 29.7316H41.3982L42.4796 31.8264L43.561 30.3843L43.495 29.7316Z"
            fill="#FF4B55" />
        <path
            d="M32.0827 33.2684C31.0483 33.2684 30.2567 32.7132 30.2159 32.6843L31.0494 31.5073C31.0564 31.5118 31.7548 31.9864 32.467 31.7707C33.1877 31.5531 33.6609 30.7027 33.931 30.027L35.2698 30.5627C34.7019 31.9828 33.8917 32.8556 32.8625 33.1573C32.5934 33.2363 32.331 33.2684 32.0827 33.2684Z"
            fill="#FFD25A" />
        <path
            d="M43.5036 33.2684C44.5381 33.2684 45.3297 32.7132 45.3705 32.6843L44.537 31.5073C44.53 31.5118 43.8316 31.9864 43.1194 31.7707C42.3987 31.5531 41.9255 30.7027 41.6554 30.027L40.3165 30.5627C40.8845 31.9828 41.6947 32.8556 42.7239 33.1573C42.993 33.2363 43.2555 33.2684 43.5036 33.2684Z"
            fill="#FFD25A" />
        <path
            d="M42.4798 25.6978H33.1068V22.2339C33.1068 21.7579 33.4928 21.3718 33.9689 21.3718H41.6178C42.0939 21.3718 42.4799 21.7579 42.4799 22.2339V25.6978H42.4798Z"
            fill="#FF4B55" />
        <path
            d="M35.6644 23.8954L35.5518 23.1744C35.0223 23.1519 34.7182 22.5323 34.7182 22.5323L34.2901 22.7689C34.7406 23.8504 35.6644 23.8954 35.6644 23.8954Z"
            fill="#FFE15A" />
        <path
            d="M41.309 23.1519C41.4667 23.0318 41.8122 22.9867 41.8122 22.9867C41.5644 22.7313 41.2941 22.9116 41.2941 22.9116C41.5193 22.7013 41.3917 22.4009 41.3917 22.4009C41.3917 22.4986 41.234 22.5662 41.234 22.5662C41.2415 22.3709 41.0388 22.1831 41.0388 22.1831L40.9336 22.3558C40.866 22.1906 40.6257 22.0629 40.6257 22.0629L40.528 22.4685C40.3027 22.2733 39.9047 22.2882 39.9047 22.2882L39.9798 22.476C39.7395 22.4834 39.0861 22.6187 38.7029 22.6637C38.3198 22.7087 38.012 22.6037 38.012 22.431C38.012 22.2863 38.3468 22.2684 38.4916 22.2663C38.5941 22.2891 38.7229 22.326 38.9039 22.3804C39.2418 22.4818 39.4398 22.3349 39.4398 22.3349C39.3214 22.2899 39.3083 22.2373 39.3083 22.2373C39.5617 22.0908 39.7995 22.1269 39.7995 22.1269C39.7151 21.9411 39.3488 21.9523 39.3488 21.9523C39.4446 21.9016 39.5178 21.7439 39.5178 21.7439C39.4952 21.7665 39.2871 21.8175 39.0029 21.8556C38.7891 21.8844 38.5882 22.047 38.5052 22.1222C38.2797 22.1049 37.6905 22.0978 37.7942 22.5063C37.9219 23.0095 38.9358 22.8292 39.5591 22.7316C40.1824 22.6339 40.5054 22.7166 40.6405 22.7992C40.7758 22.8818 40.583 23.1617 39.9496 23.047C39.4023 22.948 39.1008 22.9452 38.9353 22.9625C38.7518 22.9743 38.5953 23.0237 38.4851 23.047C38.2372 23.0996 37.2833 23.4375 37.1031 22.9494C36.9229 22.4611 36.0442 23.7455 36.0442 23.7455L36.1128 23.8271L35.8789 23.7717C35.5635 24.1942 34.6172 24.3238 34.6172 24.3238C34.6172 24.3238 34.4764 24.0704 34.358 24.0365C34.2397 24.0027 34.1891 24.1885 34.1891 24.1885C34.1891 24.1885 34.0483 24.1941 34.037 24.3238C34.0257 24.4533 34.1384 24.4646 34.1384 24.4646C34.1384 24.4646 34.0032 24.6618 34.2284 24.718C34.2284 24.718 34.2116 24.994 34.5439 24.8025C35.5312 24.9269 36.2511 24.42 36.5628 24.1434C36.7666 24.1565 37.0842 24.1499 37.3283 24.0233C37.7189 23.8205 38.1695 23.5651 38.4323 23.6628C38.4323 23.6628 38.6427 24.3087 37.8165 24.3237C37.8165 24.3237 37.6944 24.1692 37.5714 24.1692C37.5184 24.1692 37.4632 24.2329 37.4802 24.2901C37.4802 24.2901 37.3361 24.2816 37.3106 24.3665C37.2898 24.4356 37.3402 24.5148 37.4462 24.5021C37.4462 24.5021 37.3741 24.6082 37.4462 24.6717C37.5183 24.7353 37.6074 24.6717 37.6074 24.6717C37.6074 24.6717 37.5693 24.8032 37.6583 24.8159C37.7345 24.8267 37.8354 24.7023 37.8643 24.6645C37.9965 24.6851 38.8986 24.7891 39.0934 23.8429C39.0934 23.8429 39.5441 24.0381 39.9871 24.0006C40.4302 23.9631 40.8659 24.0307 40.8283 24.2485C40.7792 24.4064 40.6823 24.3959 40.6823 24.3959C40.5763 24.3535 40.3982 24.3578 40.3728 24.5105C40.3474 24.6632 40.5551 24.6674 40.5551 24.6674C40.6145 24.8074 40.7841 24.748 40.7841 24.748C40.9324 24.854 41.0301 24.7395 41.0301 24.7395C41.0938 24.7947 41.1594 24.8049 41.2209 24.7522C41.2803 24.7013 41.247 24.362 41.2413 24.2409C41.2319 24.0394 41.2037 23.5124 40.9109 23.5048C40.618 23.4973 40.2424 23.6701 39.7242 23.2344C39.6972 23.2117 39.6708 23.1972 39.6441 23.1779C39.8893 23.2006 40.065 23.2671 40.235 23.2945C40.4679 23.3322 41.1514 23.2721 41.309 23.1519Z"
            fill="#FFE15A" />
        <path
            d="M34.2907 22.769C34.2907 22.769 34.1471 22.7729 34.0768 22.7521C33.9562 22.7165 33.9415 22.5268 34.0712 22.4929C34.0712 22.4929 33.9153 22.387 33.9867 22.2676C34.044 22.1721 34.1898 22.1724 34.2404 22.2287C34.2404 22.2287 34.1929 22.0716 34.3304 22.0198C34.4398 21.9785 34.5276 22.1042 34.5276 22.2676C34.5276 22.2676 34.691 22.1346 34.7754 22.2226C34.8342 22.2839 34.8173 22.3645 34.7191 22.5324C34.6187 22.7037 34.2907 22.769 34.2907 22.769Z"
            fill="#FFE15A" />
        <path
            d="M34.1114 22.6994C34.1114 22.6994 34.0353 22.8308 33.8153 22.7503C33.8153 22.7503 34.0056 22.6611 34.031 22.5848L34.1114 22.6994Z"
            fill="#41479B" />
        <path
            d="M34.0309 22.3133C34.0309 22.3133 33.9125 22.2371 33.7814 22.2413C33.7814 22.2413 33.9759 22.0971 34.1409 22.2244L34.0309 22.3133Z"
            fill="#41479B" />
        <path
            d="M34.3073 22.1099C34.3073 22.1099 34.3454 21.9699 34.2692 21.8936C34.2692 21.8936 34.4257 21.9614 34.4468 22.0886L34.3073 22.1099Z"
            fill="#41479B" />
        <path
            d="M34.655 22.254C34.655 22.254 34.7311 22.0843 34.6635 22.0038C34.6635 22.0038 34.8665 22.1225 34.7819 22.3176L34.655 22.254Z"
            fill="#41479B" />
        <path
            d="M34.2565 24.139C34.2565 24.139 34.1751 23.972 34.0701 23.9725C34.0701 23.9725 34.291 23.892 34.3866 24.0819L34.2565 24.139Z"
            fill="#41479B" />
        <path
            d="M34.0784 24.3518C34.0784 24.3518 33.9332 24.236 33.8386 24.2819C33.8386 24.2819 34.0035 24.1139 34.1711 24.2442L34.0784 24.3518Z"
            fill="#41479B" />
        <path
            d="M34.1804 24.6522C34.1804 24.6522 33.9949 24.6502 33.9483 24.7446C33.9483 24.7446 33.9756 24.5105 34.1877 24.5103L34.1804 24.6522Z"
            fill="#41479B" />
        <path
            d="M34.3502 24.8455C34.3502 24.8455 34.2741 24.977 34.054 24.8964C34.054 24.8964 34.2444 24.8072 34.2698 24.731L34.3502 24.8455Z"
            fill="#41479B" />
        <path
            d="M37.7032 24.7787C37.7032 24.7787 37.6408 24.8863 37.4606 24.8204C37.4606 24.8204 37.6069 24.768 37.6277 24.7054L37.7032 24.7787Z"
            fill="#41479B" />
        <path
            d="M35.7957 22.4533C35.7957 22.4533 35.39 23.1442 35.4876 24.1432C35.4876 24.1432 36.6835 23.9686 37.2018 22.7744C37.2018 22.7744 37.3281 22.7233 37.3774 22.6007C37.4193 22.4964 37.4159 22.3246 37.215 22.3256C37.215 22.3256 37.2751 22.2055 37.3483 22.1772C37.3483 22.1772 37.2188 22.1266 37.0667 22.1604C37.0667 22.1604 37.185 22.042 37.185 21.8899C37.185 21.8899 37.0047 22.0083 36.8921 22.0194C36.8921 22.0194 36.8808 21.8336 36.9259 21.811C36.9259 21.811 36.6894 21.8336 36.5711 21.9575C36.5711 21.9575 36.4921 21.8505 36.4978 21.7378C36.4978 21.7378 36.2781 21.8336 36.1936 21.9743C36.1936 21.9743 36.126 21.9011 36.1317 21.8278C36.1317 21.8278 35.974 22.0193 35.9402 22.1207C35.9402 22.1207 35.7916 22.0799 35.7262 22.1996C35.6789 22.2861 35.6897 22.3812 35.7957 22.4533Z"
            fill="#FFD255" />
        <path
            d="M37.5219 24.2757C37.5219 24.2757 37.4739 24.1852 37.3301 24.1655C37.3301 24.1655 37.5134 24.0807 37.629 24.2022L37.5219 24.2757Z"
            fill="#41479B" />
        <path
            d="M40.5039 24.6193C40.5039 24.6193 40.3988 24.6526 40.3495 24.8016C40.3495 24.8016 40.2957 24.59 40.447 24.4908L40.5039 24.6193Z"
            fill="#41479B" />
        <path
            d="M40.7249 24.697C40.7249 24.697 40.6254 24.794 40.6301 24.951C40.6301 24.951 40.5073 24.7707 40.6156 24.6256L40.7249 24.697Z"
            fill="#41479B" />
        <path
            d="M41.2022 24.6885C41.2022 24.6885 41.1721 24.7912 41.2631 24.9008C41.2631 24.9008 41.0748 24.8407 41.0712 24.6764L41.2022 24.6885Z"
            fill="#41479B" />
        <path
            d="M40.978 24.7286C40.978 24.7286 40.8982 24.8048 40.9194 24.9605C40.9194 24.9605 40.7708 24.8296 40.8634 24.674L40.978 24.7286Z"
            fill="#41479B" />
        <path
            d="M37.3684 24.461C37.3684 24.461 37.2722 24.4265 37.1526 24.5089C37.1526 24.5089 37.2312 24.3225 37.3982 24.3343L37.3684 24.461Z"
            fill="#41479B" />
        <path
            d="M37.5 24.6662C37.5 24.6662 37.4012 24.6402 37.2892 24.7328C37.2892 24.7328 37.3064 24.5529 37.4739 24.5502L37.5 24.6662Z"
            fill="#41479B" />
        <path
            d="M42.4798 26.2789C41.6981 26.2789 41.6981 26.9841 40.9162 26.9841C40.1345 26.9841 40.1345 26.2789 39.3527 26.2789C38.5714 26.2789 38.5714 26.9841 37.7902 26.9841C37.0096 26.9841 37.0096 26.2789 36.229 26.2789C35.4485 26.2789 35.4486 26.9841 34.6682 26.9841C33.8875 26.9841 33.8875 26.2789 33.1068 26.2789V24.9769C33.8874 24.9769 33.8874 25.6821 34.6682 25.6821C35.4487 25.6821 35.4487 24.9769 36.229 24.9769C37.0096 24.9769 37.0096 25.6821 37.7902 25.6821C38.5714 25.6821 38.5714 24.9769 39.3527 24.9769C40.1345 24.9769 40.1345 25.6821 40.9162 25.6821C41.6981 25.6821 41.6981 24.9769 42.4798 24.9769V26.2789Z"
            fill="#F5F5F5" />
        <path
            d="M40.9164 26.984C40.1347 26.984 40.1347 26.2788 39.3529 26.2788C38.5716 26.2788 38.5716 26.984 37.7904 26.984C37.0098 26.984 37.0098 26.2788 36.2292 26.2788C35.4487 26.2788 35.4488 26.984 34.6684 26.984C33.8893 26.984 33.8871 26.2822 33.1114 26.2792C33.1221 26.5909 33.1579 27.0536 33.2493 27.5973C33.8834 27.6812 33.9411 28.2858 34.6683 28.2858C35.4488 28.2858 35.4488 27.5806 36.2291 27.5806C37.0097 27.5806 37.0097 28.2858 37.7903 28.2858C38.5715 28.2858 38.5715 27.5806 39.3528 27.5806C40.1345 27.5806 40.1345 28.2858 40.9163 28.2858C41.6445 28.2858 41.7025 27.6811 42.3375 27.5973C42.4289 27.0536 42.4647 26.5909 42.4754 26.2792C41.6987 26.2822 41.6966 26.984 40.9164 26.984Z"
            fill="#41479B" />
        <path
            d="M40.9163 28.286C40.1346 28.286 40.1346 27.5807 39.3528 27.5807C38.5715 27.5807 38.5715 28.286 37.7903 28.286C37.0097 28.286 37.0097 27.5807 36.2291 27.5807C35.4486 27.5807 35.4487 28.286 34.6683 28.286C33.9412 28.286 33.8833 27.6814 33.2493 27.5974C33.3217 28.0282 33.4297 28.5086 33.589 29.0054C33.9405 29.2072 34.0935 29.5879 34.6683 29.5879C35.4488 29.5879 35.4488 28.8827 36.2291 28.8827C37.0097 28.8827 37.0097 29.5879 37.7903 29.5879C38.5715 29.5879 38.5715 28.8827 39.3528 28.8827C40.1345 28.8827 40.1345 29.5879 40.9163 29.5879C41.4924 29.5879 41.6453 29.2064 41.998 29.0048C42.1572 28.5082 42.2651 28.028 42.3376 27.5974C41.7025 27.6813 41.6446 28.286 40.9163 28.286Z"
            fill="#F5F5F5" />
        <path
            d="M40.9164 29.5879C40.1346 29.5879 40.1346 28.8827 39.3528 28.8827C38.5716 28.8827 38.5716 29.5879 37.7903 29.5879C37.0097 29.5879 37.0097 28.8827 36.2292 28.8827C35.4486 28.8827 35.4487 29.5879 34.6683 29.5879C34.0936 29.5879 33.9405 29.207 33.5891 29.0053C33.7874 29.6243 34.066 30.2662 34.4549 30.8648C34.5204 30.8783 34.588 30.8898 34.6683 30.8898C35.4488 30.8898 35.4488 30.1845 36.2292 30.1845C37.0097 30.1845 37.0097 30.8898 37.7903 30.8898C38.5716 30.8898 38.5716 30.1845 39.3528 30.1845C40.1345 30.1845 40.1345 30.8898 40.9164 30.8898C40.9976 30.8898 41.0661 30.8783 41.1322 30.8646C41.5211 30.2658 41.7997 29.6238 41.998 29.0049C41.6455 29.2062 41.4925 29.5879 40.9164 29.5879Z"
            fill="#41479B" />
        <path
            d="M40.9163 30.8898C40.1346 30.8898 40.1346 30.1846 39.3528 30.1846C38.5715 30.1846 38.5715 30.8898 37.7903 30.8898C37.0097 30.8898 37.0097 30.1846 36.2291 30.1846C35.4486 30.1846 35.4487 30.8898 34.6683 30.8898C34.5879 30.8898 34.5204 30.8783 34.4548 30.8648C34.7019 31.2452 34.9945 31.6069 35.339 31.9343C35.5777 31.7326 35.7673 31.4865 36.2292 31.4865C37.0098 31.4865 37.0098 32.1917 37.7904 32.1917C38.5716 32.1917 38.5716 31.4865 39.3529 31.4865C39.8166 31.4865 40.0063 31.7338 40.2463 31.9357C40.5915 31.6079 40.8847 31.2457 41.1322 30.8646C41.0661 30.8782 40.9976 30.8898 40.9163 30.8898Z"
            fill="#F5F5F5" />
        <path
            d="M40.2464 31.9358C40.0064 31.7338 39.8168 31.4866 39.3529 31.4866C38.5717 31.4866 38.5717 32.1917 37.7904 32.1917C37.0099 32.1917 37.0099 31.4866 36.2293 31.4866C35.7674 31.4866 35.5778 31.7327 35.3391 31.9343C35.967 32.531 36.7676 33.0119 37.7935 33.2684C38.8186 33.0122 39.6187 32.5319 40.2464 31.9358Z"
            fill="#41479B" />
        <path
            d="M39.3521 24.9768C38.5709 24.9768 38.5709 25.682 37.7896 25.682C37.0091 25.682 37.0091 24.9768 36.2285 24.9768C35.4479 24.9768 35.448 25.682 34.6677 25.682C33.887 25.682 33.887 24.9768 33.1062 24.9768C33.1062 25.4216 33.1062 25.808 33.1062 26.0583C33.1062 26.1193 33.1076 26.1945 33.1105 26.2791C33.8863 26.2822 33.8886 26.9839 34.6676 26.9839C35.448 26.9839 35.448 26.2788 36.2284 26.2788C37.009 26.2788 37.009 26.9839 37.7895 26.9839C38.5708 26.9839 38.5708 26.2788 39.352 26.2788C40.1339 26.2788 40.1339 26.9839 40.9156 26.9839C41.6958 26.9839 41.6979 26.2822 42.4749 26.2791C42.4778 26.1944 42.4792 26.1192 42.4792 26.0583C42.4792 25.808 42.4792 25.4215 42.4792 24.9768C41.6973 24.9768 41.6973 25.682 40.9156 25.682C40.134 25.682 40.134 24.9768 39.3521 24.9768Z"
            fill="#F5F5F5" />
        <path
            d="M42.1195 21.3718C42.3186 21.3718 42.4799 21.5332 42.4799 21.7322V24.9767V25.6977C42.4799 25.8343 42.4799 25.9592 42.4799 26.0582C42.4799 26.1192 42.4786 26.1944 42.4756 26.2791C42.4649 26.5908 42.4291 27.0535 42.3377 27.5971C42.2653 28.0277 42.1573 28.508 41.9981 29.0045C41.7998 29.6236 41.5211 30.2657 41.1323 30.8643C40.8847 31.2455 40.5916 31.6078 40.2464 31.9354C39.6187 32.5314 38.8186 33.0118 37.7936 33.268C36.7677 33.0116 35.9671 32.5306 35.3392 31.9339C34.9947 31.6066 34.7021 31.245 34.455 30.8645C34.0662 30.2658 33.7876 29.624 33.5892 29.005C33.4299 28.5083 33.3218 28.0278 33.2495 27.597C33.1581 27.0534 33.1223 26.5907 33.1116 26.279C33.1087 26.1942 33.1073 26.119 33.1073 26.0581C33.1073 25.9591 33.1073 25.8341 33.1073 25.6976V24.9766V21.7321C33.1073 21.533 33.2687 21.3717 33.4677 21.3717H42.1197L42.1195 21.3718ZM42.1195 21.1014H33.4674C33.1196 21.1014 32.8365 21.3844 32.8365 21.7324V24.9769V25.6979V26.0584C32.8365 26.1219 32.8379 26.2003 32.841 26.2886C32.8512 26.5829 32.884 27.0565 32.9825 27.6421C33.0663 28.1408 33.1838 28.6271 33.3314 29.0879C33.5599 29.8006 33.8616 30.4481 34.228 31.0121C34.4978 31.4274 34.8089 31.8037 35.1526 32.1302C35.8696 32.8116 36.736 33.2827 37.7277 33.5306L37.7933 33.547L37.8588 33.5306C38.8498 33.2829 39.7156 32.8122 40.4324 32.1317C40.7769 31.8046 41.0886 31.4278 41.3588 31.0118C41.7253 30.4476 42.0269 29.8002 42.2554 29.0871C42.4031 28.6267 42.5204 28.1405 42.6042 27.6421C42.7028 27.0564 42.7356 26.5827 42.7458 26.2885C42.7488 26.2002 42.7502 26.1218 42.7502 26.0583V25.6978V24.9768V21.7323C42.7503 21.3844 42.4673 21.1014 42.1195 21.1014Z"
            fill="#F5F5F5" />
        <path
            d="M37.7936 31.0883L36.8043 31.7766L37.1533 30.623L36.1931 29.895L37.3978 29.8705L37.7936 28.7321L38.1894 29.8705L39.3941 29.895L38.4339 30.623L38.7829 31.7766L37.7936 31.0883Z"
            fill="#73AF00" />
        <path
            d="M37.7934 28.9546L38.1369 29.9424L39.1826 29.9637L38.3491 30.5956L38.652 31.5967L37.7935 30.9992L36.935 31.5967L37.2379 30.5956L36.4045 29.9638L37.4502 29.9425L37.7934 28.9546ZM37.7934 28.5098L37.6555 28.9066L37.3454 29.7985L36.4014 29.8179L35.9814 29.8264L36.3162 30.0803L37.0685 30.6508L36.7952 31.5546L36.6735 31.9567L37.0184 31.7168L37.7934 31.1774L38.5684 31.7168L38.9133 31.9567L38.7916 31.5546L38.5183 30.6508L39.2706 30.0803L39.6054 29.8264L39.1854 29.8179L38.2413 29.7985L37.9313 28.9066L37.7934 28.5098Z"
            fill="#FFE15A" />
        <path
            d="M35.621 28.2765L34.6318 28.9647L34.9808 27.8112L34.0204 27.0832L35.2253 27.0588L35.621 25.9203L36.0167 27.0588L37.2216 27.0832L36.2613 27.8112L36.6103 28.9647L35.621 28.2765Z"
            fill="#73AF00" />
        <path
            d="M35.6208 26.1426L35.9642 27.1304L37.0099 27.1517L36.1765 27.7835L36.4794 28.7846L35.6209 28.1871L34.7625 28.7846L35.0654 27.7835L34.232 27.1517L35.2777 27.1304L35.6208 26.1426ZM35.6208 25.6978L35.4829 26.0946L35.1728 26.9865L34.2288 27.0059L33.8087 27.0144L34.1435 27.2683L34.8959 27.8388L34.6225 28.7426L34.5008 29.1447L34.8458 28.9048L35.6208 28.3654L36.3957 28.9048L36.7407 29.1447L36.619 28.7426L36.3457 27.8388L37.098 27.2683L37.4328 27.0144L37.0127 27.0059L36.0687 26.9865L35.7586 26.0946L35.6208 25.6978Z"
            fill="#FFE15A" />
        <path
            d="M39.9469 28.2765L38.9578 28.9647L39.3067 27.8112L38.3465 27.0832L39.5512 27.0588L39.9469 25.9203L40.3427 27.0588L41.5475 27.0832L40.5873 27.8112L40.9362 28.9647L39.9469 28.2765Z"
            fill="#73AF00" />
        <path
            d="M39.9464 26.1427L40.2899 27.1305L41.3355 27.1518L40.5021 27.7836L40.805 28.7847L39.9465 28.1872L39.088 28.7847L39.391 27.7836L38.5576 27.1518L39.6033 27.1305L39.9464 26.1427ZM39.9464 25.6979L39.8085 26.0948L39.4985 26.9866L38.5544 27.006L38.1344 27.0145L38.4692 27.2684L39.2215 27.8389L38.9482 28.7427L38.8265 29.1448L39.1714 28.9049L39.9464 28.3656L40.7214 28.9049L41.0664 29.1448L40.9447 28.7427L40.6713 27.8389L41.4237 27.2684L41.7584 27.0145L41.3384 27.006L40.3944 26.9866L40.0843 26.0948L39.9464 25.6979Z"
            fill="#FFE15A" />
        <path
            d="M43.495 29.7317C42.6004 32.0096 40.3847 33.6289 37.7931 33.6289C35.2015 33.6289 32.9857 32.0095 32.0911 29.7317L30.7495 30.2566C31.8547 33.0705 34.5917 35.071 37.7931 35.071C40.9944 35.071 43.7314 33.0705 44.8366 30.2566L43.495 29.7317Z"
            fill="#FFE15A" />
        <path d="M38.5143 21.3718H37.4328L37.0723 20.2904H38.1538L38.5143 21.3718Z"
            fill="#F5F5F5" />
        <path
            d="M40.3169 21.3719H39.596L39.3556 20.6509H39.6847C39.9188 20.6509 40.1265 20.8007 40.2005 21.0227L40.3169 21.3719Z"
            fill="#F5F5F5" />
        <path
            d="M36.3514 21.3719H35.6304L35.5482 21.1253C35.4704 20.8919 35.6441 20.6509 35.8902 20.6509H36.111L36.3514 21.3719Z"
            fill="#F5F5F5" />
        <path
            d="M39.5969 21.3718H38.5154L38.155 20.2904H38.9766C39.1318 20.2904 39.2695 20.3896 39.3186 20.537L39.5969 21.3718Z"
            fill="#41479B" />
        <path
            d="M37.433 21.372H36.3516L36.1081 20.6415C36.0505 20.4688 36.179 20.2905 36.3611 20.2905H37.0726L37.433 21.372Z"
            fill="#41479B" />
        <path
            d="M40.4408 18.871C40.1591 19.2765 39.3706 19.7609 38.0863 19.7609C37.0281 19.7609 36.3475 19.1219 36.1203 18.87C36.0649 18.8087 36.036 18.7302 36.036 18.6475V18.4016C36.036 18.2958 36.0909 18.1995 36.1823 18.1464C36.4112 18.0132 36.9403 17.8007 37.9848 17.8007C39.2805 17.8007 40.4408 18.871 40.4408 18.871Z"
            fill="#509664" />
    </g>
    <defs>
        <clipPath id="clip0_9_4149">
            <rect width="50" height="50" fill="white" transform="translate(0.310547 0.588135)" />
        </clipPath>
    </defs>
</svg>
