<svg width="50" height="51" viewBox="0 0 50 51" fill="none" xmlns="http://www.w3.org/2000/svg">
<g clip-path="url(#clip0_9_4142)">
<path d="M49.1378 42.2604H0.862108C0.386034 42.2604 0 41.8744 0 41.3983V34.0708H49.9999V41.3983C49.9999 41.8746 49.6139 42.2604 49.1378 42.2604Z" fill="#FFE15A"/>
<path d="M49.9999 25.8811H0V34.0705H49.9999V25.8811Z" fill="#73AF00"/>
<path d="M49.9999 17.6917H0V25.8811H49.9999V17.6917Z" fill="#F5F5F5"/>
<path d="M49.9999 17.6915H0V10.3639C0 9.88786 0.386034 9.50183 0.862108 9.50183H49.1379C49.614 9.50183 50 9.88786 50 10.3639L49.9999 17.6915Z" fill="#41479B"/>
<path d="M29.0947 9.5022H20.9052V42.2609H29.0947V9.5022Z" fill="#FF4B55"/>
<path d="M7.4706 10.6052L8.18993 12.7621L10.4636 12.7798C10.6397 12.7811 10.7127 13.006 10.571 13.1106L8.74188 14.4612L9.42762 16.629C9.48075 16.7969 9.28954 16.9359 9.14628 16.8334L7.29657 15.5113L5.44687 16.8334C5.30351 16.9358 5.1124 16.7969 5.16552 16.629L5.85126 14.4612L4.02246 13.1106C3.88076 13.0061 3.95381 12.7812 4.12988 12.7798L6.40351 12.7621L7.12284 10.6052C7.17851 10.4381 7.41483 10.4381 7.4706 10.6052Z" fill="#FFE15A"/>
</g>
<defs>
<clipPath id="clip0_9_4142">
<rect width="50" height="50" fill="white" transform="translate(0 0.881348)"/>
</clipPath>
</defs>
</svg>
