<svg width="51" height="51" viewBox="0 0 51 51" fill="none" xmlns="http://www.w3.org/2000/svg">
<g clip-path="url(#clip0_9_4097)">
<path d="M49.5647 42.2607H1.28899C0.812914 42.2607 0.42688 41.8747 0.42688 41.3986V10.3643C0.42688 9.88823 0.812914 9.5022 1.28899 9.5022H49.5648C50.0408 9.5022 50.4269 9.88823 50.4269 10.3643V41.3986C50.4268 41.8748 50.0407 42.2607 49.5647 42.2607Z" fill="#F5F5F5"/>
<path d="M25.4261 25.8815V9.5022H1.2883C1.07873 9.5022 0.893676 9.58618 0.744263 9.7106L25.4261 25.8815Z" fill="#464655"/>
<path d="M50.1081 9.71057L25.4261 25.8814H50.4259V10.3643C50.4261 10.0978 50.2981 9.86858 50.1081 9.71057Z" fill="#464655"/>
<path d="M0.744055 42.0524L25.4259 25.8815H0.426086V41.3986C0.426086 41.6651 0.554114 41.8943 0.744055 42.0524Z" fill="#464655"/>
<path d="M25.4261 25.8815V42.2607H49.5639C49.7735 42.2607 49.9586 42.1768 50.108 42.0523L25.4261 25.8815Z" fill="#464655"/>
<path d="M27.4959 24.6745V27.433C27.4959 28.5739 26.5678 29.502 25.427 29.502C24.2862 29.502 23.3581 28.5739 23.3581 27.433V24.6745H27.4959ZM28.1856 23.2952H22.6684C22.2875 23.2952 21.9788 23.6039 21.9788 23.9848V27.433C21.9788 29.3374 23.5226 30.8813 25.427 30.8813C27.3314 30.8813 28.8752 29.3374 28.8752 27.433V23.9848C28.8752 23.6041 28.5664 23.2952 28.1856 23.2952Z" fill="#FF4B55"/>
<path d="M27.4959 24.6744V27.433C27.4959 28.5738 26.5677 29.502 25.4269 29.502C24.2861 29.502 23.358 28.5738 23.358 27.433V24.6744H27.4959Z" fill="#F5F5F5"/>
<path d="M22.664 24.3298C22.8545 24.3298 23.0089 24.1754 23.0089 23.985C23.0089 23.7945 22.8545 23.6401 22.664 23.6401C22.4736 23.6401 22.3192 23.7945 22.3192 23.985C22.3192 24.1754 22.4736 24.3298 22.664 24.3298Z" fill="#FFE15A"/>
<path d="M28.1796 24.3299C28.37 24.3299 28.5244 24.1755 28.5244 23.9851C28.5244 23.7946 28.37 23.6403 28.1796 23.6403C27.9892 23.6403 27.8348 23.7946 27.8348 23.9851C27.8348 24.1755 27.9892 24.3299 28.1796 24.3299Z" fill="#FFE15A"/>
<path d="M22.6631 27.0887C22.8535 27.0887 23.0079 26.9343 23.0079 26.7439C23.0079 26.5534 22.8535 26.399 22.6631 26.399C22.4726 26.399 22.3182 26.5534 22.3182 26.7439C22.3182 26.9343 22.4726 27.0887 22.6631 27.0887Z" fill="#FFE15A"/>
<path d="M28.1796 27.0887C28.37 27.0887 28.5244 26.9343 28.5244 26.7439C28.5244 26.5534 28.37 26.399 28.1796 26.399C27.9892 26.399 27.8348 26.5534 27.8348 26.7439C27.8348 26.9343 27.9892 27.0887 28.1796 27.0887Z" fill="#FFE15A"/>
<path d="M25.4208 24.3299C25.6113 24.3299 25.7656 24.1755 25.7656 23.9851C25.7656 23.7946 25.6113 23.6403 25.4208 23.6403C25.2304 23.6403 25.076 23.7946 25.076 23.9851C25.076 24.1755 25.2304 24.3299 25.4208 24.3299Z" fill="#FFE15A"/>
<path d="M25.4208 30.5633C25.6113 30.5633 25.7656 30.4089 25.7656 30.2185C25.7656 30.028 25.6113 29.8737 25.4208 29.8737C25.2304 29.8737 25.076 30.028 25.076 30.2185C25.076 30.4089 25.2304 30.5633 25.4208 30.5633Z" fill="#FFE15A"/>
<path d="M27.4912 29.6317C27.6817 29.6317 27.8361 29.4773 27.8361 29.2868C27.8361 29.0964 27.6817 28.942 27.4912 28.942C27.3008 28.942 27.1464 29.0964 27.1464 29.2868C27.1464 29.4773 27.3008 29.6317 27.4912 29.6317Z" fill="#FFE15A"/>
<path d="M23.3915 29.6317C23.5819 29.6317 23.7363 29.4773 23.7363 29.2868C23.7363 29.0964 23.5819 28.942 23.3915 28.942C23.201 28.942 23.0466 29.0964 23.0466 29.2868C23.0466 29.4773 23.201 29.6317 23.3915 29.6317Z" fill="#FFE15A"/>
<path d="M25.8715 26.5687V27.1626C25.8715 27.4082 25.6717 27.608 25.4261 27.608C25.1805 27.608 24.9807 27.4082 24.9807 27.1626V26.5687H25.8715Z" fill="#41479B"/>
<path d="M25.8715 25.1606V25.7545C25.8715 26.0001 25.6717 26.1999 25.4261 26.1999C25.1805 26.1999 24.9807 26.0001 24.9807 25.7545V25.1606H25.8715Z" fill="#41479B"/>
<path d="M25.8715 27.9911V28.5849C25.8715 28.8305 25.6717 29.0303 25.4261 29.0303C25.1805 29.0303 24.9807 28.8305 24.9807 28.5849V27.9911H25.8715Z" fill="#41479B"/>
<path d="M27.0711 26.5687V27.1626C27.0711 27.4082 26.8713 27.608 26.6257 27.608C26.3801 27.608 26.1802 27.4082 26.1802 27.1626V26.5687H27.0711Z" fill="#41479B"/>
<path d="M24.6716 26.5687V27.1626C24.6716 27.4082 24.4718 27.608 24.2262 27.608C23.9806 27.608 23.7808 27.4082 23.7808 27.1626V26.5687H24.6716Z" fill="#41479B"/>
<path d="M28.7653 23.2952H22.1223C21.8983 23.2952 21.7167 23.1135 21.7167 22.8895V22.636C21.7167 22.412 21.8983 22.2303 22.1223 22.2303H28.7653C28.9893 22.2303 29.171 22.412 29.171 22.636V22.8895C29.1711 23.1136 28.9893 23.2952 28.7653 23.2952Z" fill="#FFE15A"/>
<path d="M25.4438 22.4966L24.9114 22.7628L25.4438 23.0291L25.9763 22.7628L25.4438 22.4966Z" fill="#FF4B55"/>
<path d="M27.1742 23.0296C27.3947 23.0296 27.5735 22.9103 27.5735 22.7633C27.5735 22.6162 27.3947 22.4969 27.1742 22.4969C26.9536 22.4969 26.7748 22.6162 26.7748 22.7633C26.7748 22.9103 26.9536 23.0296 27.1742 23.0296Z" fill="#4173CD"/>
<path d="M23.714 23.0296C23.9345 23.0296 24.1133 22.9103 24.1133 22.7633C24.1133 22.6162 23.9345 22.4969 23.714 22.4969C23.4934 22.4969 23.3146 22.6162 23.3146 22.7633C23.3146 22.9103 23.4934 23.0296 23.714 23.0296Z" fill="#4173CD"/>
<path d="M26.377 22.8963C26.4505 22.8963 26.5101 22.8367 26.5101 22.7632C26.5101 22.6897 26.4505 22.6301 26.377 22.6301C26.3035 22.6301 26.2439 22.6897 26.2439 22.7632C26.2439 22.8367 26.3035 22.8963 26.377 22.8963Z" fill="#F5F5F5"/>
<path d="M27.9737 22.8963C28.0472 22.8963 28.1068 22.8367 28.1068 22.7632C28.1068 22.6897 28.0472 22.6301 27.9737 22.6301C27.9002 22.6301 27.8406 22.6897 27.8406 22.7632C27.8406 22.8367 27.9002 22.8963 27.9737 22.8963Z" fill="#F5F5F5"/>
<path d="M24.5127 22.8963C24.5863 22.8963 24.6458 22.8367 24.6458 22.7632C24.6458 22.6897 24.5863 22.6301 24.5127 22.6301C24.4392 22.6301 24.3796 22.6897 24.3796 22.7632C24.3796 22.8367 24.4392 22.8963 24.5127 22.8963Z" fill="#F5F5F5"/>
<path d="M22.9153 22.8963C22.9888 22.8963 23.0484 22.8367 23.0484 22.7632C23.0484 22.6897 22.9888 22.6301 22.9153 22.6301C22.8418 22.6301 22.7822 22.6897 22.7822 22.7632C22.7822 22.8367 22.8418 22.8963 22.9153 22.8963Z" fill="#F5F5F5"/>
<path d="M21.7167 22.6297V22.8959L21.9829 23.0291L22.5154 22.7628L21.9829 22.4966L21.7167 22.6297Z" fill="#FF4B55"/>
<path d="M29.1709 22.8958V22.6296L28.9046 22.4965L28.3722 22.7627L28.9046 23.029L29.1709 22.8958Z" fill="#FF4B55"/>
<path d="M23.672 20.4988C23.5871 20.457 23.4862 20.4828 23.4011 20.5485C23.4448 20.484 23.4698 20.3978 23.465 20.3042C23.4553 20.1137 23.3284 19.9654 23.1816 19.9729C23.0347 19.9804 22.9236 20.1408 22.9333 20.3312C22.9384 20.4324 22.9779 20.5195 23.0346 20.5799C22.92 20.5239 22.7946 20.5293 22.7179 20.606C22.6139 20.7099 22.6389 20.9036 22.7739 21.0384C22.9087 21.1733 23.1023 21.1982 23.2063 21.0943C23.2353 21.0653 23.252 21.0286 23.2613 20.9887C23.2825 21.0444 23.3152 21.0928 23.367 21.1182C23.4989 21.1832 23.6741 21.0972 23.7584 20.9262C23.8425 20.7552 23.804 20.5637 23.672 20.4988ZM23.2806 20.6908C23.2611 20.7304 23.2497 20.7711 23.2429 20.811C23.2231 20.7586 23.1952 20.7068 23.1503 20.6618C23.1425 20.6541 23.1332 20.6504 23.125 20.6432C23.1542 20.6553 23.1845 20.6639 23.2167 20.6623C23.2597 20.66 23.298 20.6417 23.3329 20.6164C23.3144 20.6399 23.2948 20.6622 23.2806 20.6908Z" fill="#F5F5F5"/>
<path d="M27.0945 20.9261C27.1788 21.0971 27.354 21.1831 27.4859 21.1181C27.5378 21.0925 27.5704 21.0442 27.5916 20.9886C27.6009 21.0284 27.6175 21.0651 27.6465 21.0942C27.7505 21.1982 27.9441 21.1732 28.079 21.0382C28.2137 20.9035 28.2387 20.7098 28.1349 20.6059C28.0582 20.5291 27.9329 20.5238 27.8182 20.5797C27.8751 20.5194 27.9144 20.4323 27.9196 20.3311C27.9293 20.1407 27.8181 19.9802 27.6712 19.9728C27.5244 19.9654 27.3975 20.1136 27.3879 20.304C27.3831 20.3978 27.4081 20.4838 27.4517 20.5484C27.3667 20.4827 27.2657 20.4569 27.1808 20.4987C27.0488 20.5637 27.0102 20.7551 27.0945 20.9261ZM27.5199 20.6165C27.5546 20.6418 27.5929 20.6602 27.6361 20.6623C27.6682 20.664 27.6986 20.6553 27.7278 20.6433C27.7197 20.6503 27.7102 20.654 27.7025 20.6619C27.6576 20.7068 27.6296 20.7586 27.6098 20.8111C27.6032 20.7711 27.5918 20.7304 27.5721 20.6909C27.5581 20.6622 27.5384 20.6399 27.5199 20.6165Z" fill="#F5F5F5"/>
<path d="M30.2856 19.7166C29.9021 19.5801 29.0954 19.507 28.7884 20.2041C28.7291 20.3387 28.7901 20.4958 28.9246 20.555C29.0547 20.6125 29.2041 20.5556 29.2677 20.43L29.3679 20.5488C29.284 20.7846 29.2503 20.9959 29.2408 21.0685C29.1039 21.6363 28.5766 21.6979 28.3552 21.6979C27.9978 21.6979 27.7958 21.3149 27.7938 21.3111C27.7574 21.2406 27.6909 21.1894 27.6133 21.1725C27.5353 21.1556 27.4541 21.1736 27.3917 21.2224C27.2458 21.3371 26.792 21.6467 26.4497 21.7013C26.2847 21.7278 26.1499 21.7003 26.059 21.6223C25.9852 21.5594 25.9592 21.4804 25.9592 21.4318C25.9592 21.3125 26.1059 21.1655 26.2255 21.1655C26.316 21.1655 26.3507 21.2235 26.3507 21.2235C26.4138 21.3571 26.5726 21.4135 26.7054 21.3508C26.8385 21.2877 26.8951 21.1291 26.8322 20.9963C26.7805 20.8871 26.6383 20.7187 26.4045 20.6577C26.5465 20.4323 26.677 20.1584 26.758 19.8344L25.9593 19.5681C25.9593 19.5681 26.2256 18.7694 25.4268 18.7694C24.6281 18.7694 24.8944 19.5681 24.8944 19.5681L24.0957 19.8344C24.1767 20.1584 24.3071 20.4324 24.4492 20.6577C24.2155 20.7187 24.0731 20.8871 24.0215 20.9963C23.9586 21.1292 24.0152 21.2878 24.1482 21.3508C24.2809 21.4134 24.4398 21.3571 24.5027 21.224C24.5027 21.224 24.5378 21.1655 24.6281 21.1655C24.7476 21.1655 24.8944 21.3124 24.8944 21.4318C24.8944 21.4804 24.8683 21.5595 24.7946 21.6223C24.7037 21.7004 24.5689 21.7279 24.4039 21.7013C24.0614 21.6467 23.6077 21.3371 23.4619 21.2224C23.3995 21.1735 23.3182 21.1556 23.2403 21.1725C23.1628 21.1894 23.0962 21.2406 23.0598 21.3111C23.0578 21.315 22.8557 21.6979 22.4984 21.6979C22.2768 21.6979 21.7498 21.6363 21.6128 21.0685C21.6034 20.9959 21.5697 20.7848 21.4857 20.5488L21.586 20.43C21.6496 20.5557 21.7991 20.6125 21.9291 20.555C22.0637 20.4958 22.1246 20.3387 22.0653 20.2041C21.7583 19.5071 20.9516 19.5801 20.5681 19.7166C20.4583 19.7555 20.3865 19.8614 20.391 19.9779C20.3954 20.0944 20.4753 20.1942 20.5878 20.2247C20.914 20.3123 21.0603 20.9358 21.0858 21.147C21.087 21.1561 21.0888 21.1658 21.0907 21.1749C21.2395 21.8258 21.7791 22.2304 22.4983 22.2304C22.9107 22.2304 23.1958 21.9969 23.3612 21.8035C23.5944 21.9572 23.9697 22.1714 24.32 22.227C24.3873 22.2377 24.453 22.2432 24.5172 22.2432C24.7577 22.2432 24.9741 22.1691 25.1401 22.0274C25.3196 21.8743 25.4267 21.6514 25.4267 21.4318C25.4267 21.6515 25.5339 21.8743 25.7134 22.0274C25.8793 22.1691 26.0958 22.2432 26.3363 22.2432C26.4006 22.2432 26.4663 22.2378 26.5335 22.227C26.8838 22.1715 27.2592 21.9572 27.4923 21.8035C27.6578 21.9969 27.9428 22.2304 28.3552 22.2304C29.0746 22.2304 29.6139 21.8259 29.7629 21.1749C29.7648 21.1658 29.7666 21.1561 29.7677 21.147C29.7931 20.9356 29.9396 20.3123 30.2657 20.2247C30.3783 20.1943 30.4581 20.0944 30.4625 19.9779C30.4672 19.8613 30.3954 19.7555 30.2856 19.7166Z" fill="#FFE15A"/>
<path d="M20.8021 20.2635C20.6662 20.3198 20.6246 20.5307 20.709 20.7344C20.7935 20.9381 20.9722 21.0575 21.108 21.0012C21.2439 20.9448 21.2855 20.734 21.201 20.5303C21.1165 20.3266 20.9379 20.2071 20.8021 20.2635Z" fill="#4173CD"/>
<path d="M29.7438 21.0027C29.8797 21.059 30.0583 20.9396 30.1428 20.7359C30.2273 20.5321 30.1856 20.3213 30.0498 20.265C29.9139 20.2086 29.7353 20.3281 29.6508 20.5318C29.5663 20.7355 29.6079 20.9463 29.7438 21.0027Z" fill="#4173CD"/>
<path d="M25.4262 20.8992C25.6468 20.8992 25.8255 20.6608 25.8255 20.3668C25.8255 20.0727 25.6468 19.8344 25.4262 19.8344C25.2057 19.8344 25.0269 20.0727 25.0269 20.3668C25.0269 20.6608 25.2057 20.8992 25.4262 20.8992Z" fill="#4173CD"/>
</g>
<defs>
<clipPath id="clip0_9_4097">
<rect width="50" height="50" fill="white" transform="translate(0.427734 0.881348)"/>
</clipPath>
</defs>
</svg>
