<svg width="51" height="51" viewBox="0 0 51 51" fill="none" xmlns="http://www.w3.org/2000/svg">
<g clip-path="url(#clip0_9_4088)">
<path d="M50.1477 25.8814H0.147766V10.3642C0.147766 9.88811 0.533801 9.50208 1.00987 9.50208H49.2857C49.7617 9.50208 50.1478 9.88811 50.1478 10.3642L50.1477 25.8814Z" fill="#F5F5F5"/>
<path d="M1.87188 25.8814V25.0193H0.147766V25.8814V26.7435V41.3987C0.147766 41.8747 0.533801 42.2608 1.00987 42.2608H49.2857C49.7617 42.2608 50.1478 41.8747 50.1478 41.3987V25.8814H1.87188Z" fill="#FF4B55"/>
<path d="M15.665 25.8814H1.00987C0.533801 25.8814 0.147766 25.4954 0.147766 25.0193V10.3642C0.147766 9.88811 0.533801 9.50208 1.00987 9.50208H15.665C16.1411 9.50208 16.5271 9.88811 16.5271 10.3642V25.0193C16.527 25.4954 16.1411 25.8814 15.665 25.8814Z" fill="#41479B"/>
<path d="M8.66938 14.0149L9.49125 16.4792L12.0889 16.4993C12.4252 16.5018 12.5647 16.9311 12.2941 17.1308L10.2044 18.6739L10.9879 21.1506C11.0893 21.4713 10.7243 21.7365 10.4506 21.541L8.33735 20.0305L6.22398 21.5411C5.95034 21.7367 5.5853 21.4713 5.68667 21.1507L6.47017 18.674L4.38052 17.1309C4.10992 16.9311 4.24937 16.5019 4.5857 16.4994L7.18335 16.4793L8.00522 14.015C8.11167 13.6959 8.56303 13.6959 8.66938 14.0149Z" fill="#F5F5F5"/>
</g>
<defs>
<clipPath id="clip0_9_4088">
<rect width="50" height="50" fill="white" transform="translate(0.148438 0.881348)"/>
</clipPath>
</defs>
</svg>
