<svg width="51" height="51" viewBox="0 0 51 51" fill="none" xmlns="http://www.w3.org/2000/svg">
    <g clip-path="url(#clip0_9_4080)">
        <path
            d="M49.5796 42.2608H1.30388C0.827807 42.2608 0.441772 41.8748 0.441772 41.3987V10.3643C0.441772 9.88823 0.827807 9.5022 1.30388 9.5022H49.5797C50.0557 9.5022 50.4418 9.88823 50.4418 10.3643V41.3987C50.4417 41.8749 50.0556 42.2608 49.5796 42.2608Z"
            fill="#FF4B55" />
        <path
            d="M8.74271 14.6249L9.56458 17.0891L12.1622 17.1092C12.4986 17.1118 12.638 17.5411 12.3674 17.7408L10.2778 19.2838L11.0613 21.7606C11.1626 22.0813 10.7976 22.3464 10.524 22.1509L8.41068 20.6403L6.2974 22.1508C6.02377 22.3464 5.65873 22.0811 5.7601 21.7605L6.54359 19.2837L4.45395 17.7408C4.18334 17.541 4.32279 17.1118 4.65912 17.1092L7.25677 17.0891L8.07865 14.6249C8.18509 14.3057 8.63636 14.3057 8.74271 14.6249Z"
            fill="#FFE15A" />
        <path
            d="M18.1754 15.2321L18.7648 16.0358L19.7159 15.7384C19.839 15.6999 19.9403 15.8403 19.8649 15.9449L19.2827 16.7536L19.8594 17.5662C19.9341 17.6714 19.8319 17.8111 19.709 17.7718L18.7599 17.468L18.1653 18.2677C18.0883 18.3712 17.9238 18.3171 17.9233 18.1882L17.9189 17.1916L16.9746 16.8731C16.8524 16.8318 16.8529 16.6588 16.9755 16.6184L17.9217 16.3063L17.9329 15.3098C17.9342 15.181 18.0992 15.1281 18.1754 15.2321Z"
            fill="#FFE15A" />
        <path
            d="M14.5874 12.8366L15.5782 12.9443L16.0008 12.0418C16.0556 11.925 16.2275 11.945 16.2539 12.0713L16.4576 13.0467L17.4464 13.1698C17.5745 13.1857 17.6085 13.3554 17.4965 13.4196L16.6318 13.9147L16.8204 14.8932C16.8448 15.0199 16.6939 15.1047 16.5983 15.0181L15.8601 14.3487L14.9878 14.8303C14.8749 14.8927 14.7475 14.7753 14.8004 14.6576L15.2089 13.7487L14.4812 13.0678C14.3871 12.9801 14.4592 12.8228 14.5874 12.8366Z"
            fill="#FFE15A" />
        <path
            d="M16.1536 22.4941L15.5643 23.2978L14.6132 23.0004C14.4901 22.9619 14.3888 23.1023 14.4642 23.2069L15.0464 24.0156L14.4697 24.8282C14.395 24.9334 14.4972 25.0731 14.62 25.0338L15.5692 24.73L16.1638 25.5297C16.2407 25.6332 16.4053 25.5791 16.4058 25.4502L16.4102 24.4536L17.3545 24.1351C17.4768 24.0938 17.4762 23.9208 17.3536 23.8803L16.4073 23.5682L16.3962 22.5718C16.3947 22.443 16.2299 22.39 16.1536 22.4941Z"
            fill="#FFE15A" />
        <path
            d="M19.7416 20.243L18.7509 20.3506L18.3282 19.4482C18.2734 19.3314 18.1015 19.3514 18.0752 19.4777L17.8714 20.4531L16.8825 20.5761C16.7545 20.592 16.7204 20.7618 16.8324 20.8259L17.6972 21.321L17.5086 22.2996C17.4842 22.4263 17.635 22.5111 17.7306 22.4245L18.4688 21.755L19.3411 22.2367C19.454 22.2991 19.5814 22.1817 19.5285 22.064L19.12 21.155L19.8477 20.4742C19.9422 20.3865 19.87 20.2292 19.7416 20.243Z"
            fill="#FFE15A" />
    </g>
    <defs>
        <clipPath id="clip0_9_4080">
            <rect width="50" height="50" fill="white" transform="translate(0.441406 0.881348)" />
        </clipPath>
    </defs>
</svg>
