<svg width="51" height="51" viewBox="0 0 51 51" fill="none" xmlns="http://www.w3.org/2000/svg">
<g clip-path="url(#clip0_9_4068)">
<path d="M1.73076 9.5022H50.0065C50.4826 9.5022 50.8687 9.88823 50.8687 10.3643V41.3986C50.8687 41.8747 50.4826 42.2607 50.0065 42.2607H1.73076C1.25469 42.2607 0.868652 41.8747 0.868652 41.3986V10.3643C0.868652 9.88823 1.25469 9.5022 1.73076 9.5022Z" fill="#41479B"/>
<path d="M50.5504 42.0524L1.18652 9.7106C1.33594 9.58618 1.521 9.5022 1.73057 9.5022H50.0064C50.4824 9.5022 50.8685 9.88823 50.8685 10.3643V41.3986C50.8685 41.6651 50.7404 41.8943 50.5504 42.0524Z" fill="#73AF00"/>
<path d="M25.8685 31.0538C28.7251 31.0538 31.0409 28.7381 31.0409 25.8815C31.0409 23.0248 28.7251 20.7091 25.8685 20.7091C23.0119 20.7091 20.6962 23.0248 20.6962 25.8815C20.6962 28.7381 23.0119 31.0538 25.8685 31.0538Z" fill="#FFE15A"/>
<path d="M4.6393 25.9397L4.93851 26.6976L5.71761 26.459C5.76097 26.4458 5.79799 26.4923 5.77552 26.5317L5.36947 27.2381L6.04174 27.6985C6.07914 27.7241 6.06586 27.7821 6.02103 27.789L5.21556 27.9121L5.27484 28.7247C5.27816 28.7698 5.22445 28.7957 5.19125 28.765L4.59291 28.212L3.99457 28.765C3.96137 28.7957 3.90766 28.7699 3.91098 28.7247L3.97026 27.9121L3.16479 27.789C3.12006 27.7822 3.10678 27.7241 3.14409 27.6985L3.81635 27.2381L3.4103 26.5317C3.38774 26.4924 3.42485 26.4459 3.46821 26.459L4.24731 26.6976L4.54652 25.9397C4.56303 25.8977 4.6226 25.8977 4.6393 25.9397Z" fill="#F5F5F5"/>
<path d="M15.5355 23.8968L15.8347 24.6547L16.6138 24.4161C16.6572 24.4028 16.6942 24.4494 16.6717 24.4887L16.2657 25.1952L16.9379 25.6555C16.9753 25.6811 16.962 25.7391 16.9172 25.7461L16.1117 25.8691L16.171 26.6817C16.1743 26.7268 16.1206 26.7527 16.0874 26.722L15.4891 26.169L14.8908 26.722C14.8575 26.7527 14.8038 26.7269 14.8072 26.6817L14.8664 25.8691L14.061 25.7461C14.0162 25.7392 14.003 25.6811 14.0403 25.6555L14.7125 25.1952L14.3065 24.4887C14.2839 24.4495 14.321 24.4029 14.3644 24.4161L15.1435 24.6547L15.4427 23.8968C15.4593 23.8546 15.5189 23.8546 15.5355 23.8968Z" fill="#F5F5F5"/>
<path d="M10.0874 18.9836L10.3866 19.7415L11.1657 19.5029C11.2091 19.4896 11.2461 19.5362 11.2236 19.5756L10.8176 20.282L11.4899 20.7424C11.5273 20.768 11.514 20.826 11.4692 20.8329L10.6637 20.956L10.723 21.7685C10.7263 21.8137 10.6726 21.8395 10.6394 21.8089L10.041 21.2559L9.44269 21.8089C9.40949 21.8395 9.35578 21.8138 9.3591 21.7685L9.41838 20.956L8.61291 20.8329C8.56818 20.8261 8.5549 20.768 8.59221 20.7424L9.26447 20.282L8.85842 19.5756C8.83586 19.5363 8.87297 19.4897 8.91633 19.5029L9.69543 19.7415L9.99464 18.9836C10.0112 18.9415 10.0708 18.9415 10.0874 18.9836Z" fill="#F5F5F5"/>
<path d="M10.0874 36.836L10.3866 37.5939L11.1657 37.3553C11.2091 37.3421 11.2461 37.3886 11.2236 37.428L10.8176 38.1344L11.4899 38.5948C11.5273 38.6204 11.514 38.6784 11.4692 38.6853L10.6637 38.8084L10.723 39.621C10.7263 39.6661 10.6726 39.692 10.6394 39.6613L10.041 39.1083L9.44269 39.6613C9.40949 39.692 9.35578 39.6662 9.3591 39.621L9.41838 38.8084L8.61291 38.6853C8.56818 38.6785 8.5549 38.6204 8.59221 38.5948L9.26447 38.1344L8.85842 37.428C8.83586 37.3887 8.87297 37.3422 8.91633 37.3553L9.69543 37.5939L9.99464 36.836C10.0112 36.7939 10.0708 36.7939 10.0874 36.836Z" fill="#F5F5F5"/>
<path d="M12.3173 26.6256L12.5261 27.2518L13.1864 27.2569C13.2375 27.2573 13.2586 27.3225 13.2176 27.3529L12.6865 27.7452L12.8856 28.3746C12.901 28.4234 12.8455 28.4637 12.8039 28.434L12.2668 28.05L11.7297 28.434C11.6881 28.4637 11.6326 28.4234 11.6481 28.3746L11.8472 27.7452L11.316 27.3529C11.2748 27.3225 11.2961 27.2572 11.3473 27.2569L12.0075 27.2518L12.2163 26.6256C12.2325 26.5771 12.3011 26.5771 12.3173 26.6256Z" fill="#F5F5F5"/>
<path d="M22.7996 23.6565C22.5881 23.6072 22.3755 24.1513 22.6111 24.3398C22.8467 24.5282 23.2709 24.8817 23.0117 25.0938C22.7525 25.3059 22.6583 25.3294 22.6111 25.5886C22.564 25.8478 22.6111 25.8949 22.399 26.0127C22.1869 26.1305 21.6921 26.3661 21.9042 26.6019C22.1163 26.8376 22.399 26.6962 22.5875 26.3192C22.5875 26.3192 23.907 26.2721 23.9542 26.3662C24.0012 26.4606 24.1191 26.814 24.4019 26.7197C24.6846 26.6253 24.6846 26.6253 24.6846 26.6253C24.6846 26.6253 24.8496 26.5546 24.9673 26.696C25.0851 26.8374 25.3679 26.8845 25.6978 26.8845C26.0277 26.8845 26.3104 27.073 26.287 27.5207C26.2719 27.8075 26.1987 28.4038 26.1482 28.7953C26.1212 29.0049 26.2649 29.1979 26.4734 29.2326L27.0767 29.3332C27.2354 29.3596 27.383 29.2464 27.3971 29.0862C27.4254 28.7639 27.4666 28.2915 27.4652 28.2748C27.4516 28.1054 27.7951 27.2381 27.7715 26.8374C27.7479 26.4368 27.7479 26.4368 27.7479 26.4368C27.7479 26.4368 28.1013 26.3898 28.2427 26.1541C28.3841 25.9185 28.6905 25.3294 29.3031 25.1174L29.468 24.7168C29.468 24.7168 28.9968 24.5047 29.091 24.3634C29.1853 24.222 29.2324 23.8449 29.1617 23.5387C29.091 23.2324 29.0673 22.8082 29.0673 22.8082C29.0673 22.8082 28.8994 22.7372 28.8639 22.8349C28.8285 22.9325 28.7929 22.9857 28.7042 22.968C28.6156 22.9502 28.4825 22.9413 28.447 22.8616C28.4116 22.7817 28.3139 22.7019 28.2252 22.7462C28.1366 22.7907 27.9857 23.3849 27.7729 23.447C27.7729 23.447 27.7551 23.1898 27.6221 23.243C27.4891 23.2962 27.4979 23.4203 27.4802 23.6421C27.4626 23.8639 25.9721 25.363 24.6681 24.9639C24.6681 24.9639 24.5262 24.6801 24.2335 24.7067C23.9407 24.7333 23.6568 24.7244 23.4883 24.5203C23.3197 24.3162 23.0512 23.7154 22.7996 23.6565Z" fill="#73AF00"/>
<path d="M32.3955 26.1214C32.7885 26.539 37.1064 27.7149 41.4709 25.4286C45.8354 23.1424 48.4333 22.4844 48.4333 22.4844C48.4333 22.4844 48.4679 21.8955 49.0049 21.809C49.5417 21.7224 49.282 21.4973 49.1434 21.3242C49.0049 21.151 48.3295 20.6833 47.4114 21.0817C47.4114 21.0817 46.3435 21.1221 46.1818 19.6442C46.0202 18.1662 45.9509 16.6652 45.5814 16.0187C45.2119 15.3721 42.1638 12.1392 41.7942 12.3932C41.4247 12.6472 42.718 15.8571 43.9188 16.9887C43.9188 16.9887 44.196 18.9747 43.8495 19.067C43.503 19.1594 41.5865 17.4043 38.1688 16.9887C38.1688 16.9887 39.6236 18.9747 41.4018 19.8061C43.1799 20.6374 43.6647 21.3995 43.6186 21.7228C43.5725 22.046 42.9721 23.5933 41.9791 24.3092C40.9861 25.025 38.4922 26.9648 32.8344 25.9488C32.8343 25.9483 32.2109 25.9252 32.3955 26.1214Z" fill="#FFE15A"/>
</g>
<defs>
<clipPath id="clip0_9_4068">
<rect width="50" height="50" fill="white" transform="translate(0.869141 0.881348)"/>
</clipPath>
</defs>
</svg>
