<svg width="51" height="51" viewBox="0 0 51 51" fill="none" xmlns="http://www.w3.org/2000/svg">
    <g clip-path="url(#clip0_9_4056)">
        <path
            d="M49.3005 42.2607H1.02477C0.548693 42.2607 0.162659 41.8747 0.162659 41.3986V10.3643C0.162659 9.88823 0.548693 9.5022 1.02477 9.5022H49.3006C49.7766 9.5022 50.1627 9.88823 50.1627 10.3643V41.3986C50.1626 41.8748 49.7765 42.2607 49.3005 42.2607Z"
            fill="#73AF00" />
        <path
            d="M27.86 30.9249C25.0746 30.9249 22.8165 28.6669 22.8165 25.8815C22.8165 23.096 25.0745 20.838 27.86 20.838C28.2296 20.838 28.5877 20.8824 28.9329 20.9616C29.0705 20.9931 29.1435 20.8084 29.0235 20.7341C27.9672 20.0792 26.6952 19.7396 25.3375 19.8501C22.3822 20.0905 20.0062 22.4998 19.805 25.4582C19.5646 28.9923 22.3601 31.9336 25.8427 31.9336C27.0102 31.9336 28.0994 31.602 29.0238 31.0288C29.1438 30.9544 29.0712 30.7697 28.9334 30.8014C28.588 30.8806 28.2297 30.9249 27.86 30.9249Z"
            fill="#FFE15A" />
        <path
            d="M32.2559 21.6112L32.6347 22.5705L33.6209 22.2685C33.6757 22.2517 33.7228 22.3108 33.6942 22.3604L33.1803 23.2547L34.0314 23.8374C34.0786 23.8697 34.0618 23.9434 34.0052 23.952L32.9856 24.1078L33.0606 25.1364C33.0648 25.1936 32.9968 25.2263 32.9547 25.1874L32.1973 24.4874L31.4399 25.1874C31.3978 25.2263 31.3298 25.1936 31.334 25.1364L31.409 24.1078L30.3894 23.952C30.3327 23.9434 30.316 23.8697 30.3632 23.8374L31.2143 23.2547L30.7004 22.3604C30.6719 22.3107 30.7189 22.2518 30.7736 22.2685L31.7599 22.5705L32.1387 21.6112C32.1595 21.5578 32.2349 21.5578 32.2559 21.6112Z"
            fill="#FFE15A" />
        <path
            d="M46.049 19.0249L46.4278 19.9843L47.4141 19.6822C47.4688 19.6654 47.5159 19.7245 47.4873 19.7741L46.9734 20.6685L47.8245 21.2512C47.8718 21.2835 47.855 21.3571 47.7983 21.3657L46.7787 21.5216L46.8537 22.5503C46.8579 22.6074 46.7899 22.6401 46.7478 22.6013L45.9904 21.9013L45.233 22.6013C45.1909 22.6401 45.1229 22.6074 45.1271 22.5503L45.2021 21.5216L44.1825 21.3657C44.1259 21.3571 44.1092 21.2835 44.1564 21.2512L45.0074 20.6685L44.4936 19.7741C44.465 19.7244 44.512 19.6655 44.5668 19.6822L45.553 19.9843L45.9318 19.0249C45.9526 18.9717 46.028 18.9717 46.049 19.0249Z"
            fill="#FFE15A" />
        <path
            d="M39.1525 12.8056L39.5314 13.765L40.5176 13.4629C40.5724 13.4461 40.6194 13.5052 40.5908 13.5548L40.077 14.4492L40.928 15.0319C40.9753 15.0642 40.9585 15.1378 40.9019 15.1464L39.8822 15.3023L39.9572 16.3309C39.9614 16.388 39.8935 16.4207 39.8514 16.3819L39.0939 15.6819L38.3365 16.3819C38.2944 16.4207 38.2265 16.388 38.2307 16.3309L38.3057 15.3023L37.286 15.1464C37.2294 15.1378 37.2127 15.0642 37.2599 15.0319L38.1109 14.4492L37.5971 13.5548C37.5686 13.5051 37.6156 13.4462 37.6703 13.4629L38.6565 13.765L39.0354 12.8056C39.0561 12.7523 39.1315 12.7523 39.1525 12.8056Z"
            fill="#FFE15A" />
        <path
            d="M39.1525 35.4042L39.5314 36.3635L40.5176 36.0615C40.5724 36.0447 40.6194 36.1038 40.5908 36.1534L40.077 37.0477L40.928 37.6304C40.9753 37.6628 40.9585 37.7364 40.9019 37.745L39.8822 37.9009L39.9572 38.9295C39.9614 38.9866 39.8935 39.0193 39.8514 38.9804L39.0939 38.2804L38.3365 38.9804C38.2944 39.0193 38.2265 38.9866 38.2307 38.9295L38.3057 37.9009L37.286 37.745C37.2294 37.7364 37.2127 37.6628 37.2599 37.6304L38.1109 37.0477L37.5971 36.1534C37.5686 36.1037 37.6156 36.0448 37.6703 36.0615L38.6565 36.3635L39.0354 35.4042C39.0561 35.351 39.1315 35.351 39.1525 35.4042Z"
            fill="#FFE15A" />
        <path
            d="M41.9755 22.4793L42.24 23.2721L43.0756 23.2785C43.1404 23.2791 43.1672 23.3616 43.1152 23.4001L42.4429 23.8966L42.6949 24.6934C42.7145 24.7551 42.6442 24.8061 42.5915 24.7685L41.9115 24.2824L41.2316 24.7685C41.1788 24.8061 41.1086 24.7551 41.1281 24.6934L41.3802 23.8966L40.7079 23.4001C40.6559 23.3616 40.6827 23.279 40.7475 23.2785L41.5831 23.2721L41.8476 22.4793C41.8681 22.4179 41.9549 22.4179 41.9755 22.4793Z"
            fill="#FFE15A" />
        <path
            d="M9.21505 24.1578C12.3098 24.1578 14.8186 21.649 14.8186 18.5543C14.8186 15.4596 12.3098 12.9508 9.21505 12.9508C6.12032 12.9508 3.61154 15.4596 3.61154 18.5543C3.61154 21.649 6.12032 24.1578 9.21505 24.1578Z"
            fill="#FFE15A" />
        <path
            d="M8.63818 22.9195H10.1515C10.1515 22.9195 11.0112 19.0676 10.2202 17.6919L9.73877 18.0014C9.73877 18.0014 10.5298 20.6495 8.63818 22.9195Z"
            fill="#964B50" />
        <path
            d="M8.69524 17.8638C8.69524 17.8638 7.82405 18.4599 8.09915 20.2254C8.09915 20.2254 8.76399 19.6751 9.13088 18.4599C9.13088 18.4599 8.60354 19.4686 9.33723 20.2712C9.33723 20.2712 10.1167 19.1706 10.0021 18.2076C10.0021 18.2076 12.5938 20.9141 12.0427 20.2253C11.951 20.1106 12.1803 18.9642 11.2861 18.0242C11.2861 18.0242 12.7535 18.391 13.3037 18.2535C13.3037 18.2535 13.3496 17.0841 11.9509 16.8777L12.2719 15.9606C12.2719 15.9606 11.1944 15.8919 10.621 16.4421C10.621 16.4421 10.4834 15.0205 11.0567 14.3327C11.0567 14.3327 9.35998 14.0805 9.29114 16.3046C9.29114 16.3046 8.67209 14.883 6.76907 15.2271C6.76907 15.2271 7.84661 16.0065 8.0302 16.3506C8.0302 16.3506 6.51692 15.3189 5.80618 16.7633C5.80618 16.7633 7.02141 16.4423 7.45706 17.0155C7.45706 17.0155 5.50814 16.8092 5.34769 18.483C5.34778 18.4829 7.15911 17.6345 8.69524 17.8638Z"
            fill="#73AF00" />
    </g>
    <defs>
        <clipPath id="clip0_9_4056">
            <rect width="50" height="50" fill="white" transform="translate(0.162109 0.881348)" />
        </clipPath>
    </defs>
</svg>
