<svg width="51" height="51" viewBox="0 0 51 51" fill="none" xmlns="http://www.w3.org/2000/svg">
<g clip-path="url(#clip0_9_4040)">
<path d="M1.74565 9.5022H50.0214C50.4975 9.5022 50.8835 9.88823 50.8835 10.3643V17.6918H0.883545V10.3643C0.883545 9.88823 1.26958 9.5022 1.74565 9.5022Z" fill="#FFE15A"/>
<path d="M50.8834 17.692H0.883545V25.8815H50.8834V17.692Z" fill="#F5F5F5"/>
<path d="M50.8834 25.8813H0.883545V34.0708H50.8834V25.8813Z" fill="#FF4B55"/>
<path d="M0.883545 34.071H50.8834V41.3986C50.8834 41.8746 50.4974 42.2607 50.0213 42.2607H1.74565C1.26958 42.2607 0.883545 41.8746 0.883545 41.3986V34.071Z" fill="#4173CD"/>
<path d="M1.20151 42.0524L25.36 26.2244C25.607 26.0625 25.607 25.7004 25.36 25.5384L1.20151 9.71057C1.01157 9.86858 0.883545 10.0978 0.883545 10.3643V41.3986C0.883545 41.6651 1.01157 41.8943 1.20151 42.0524Z" fill="#73AF00"/>
<path d="M5.65231 25.8815C5.65231 22.7644 7.6899 20.1269 10.5047 19.2185C10.6527 19.1707 10.6321 18.9547 10.4779 18.9345C10.1881 18.8966 9.89292 18.8761 9.59273 18.8761C5.72379 18.8761 2.58737 22.0125 2.58737 25.8815C2.58737 29.7504 5.72379 32.8868 9.59273 32.8868C9.89292 32.8868 10.1881 32.8663 10.4779 32.8284C10.6321 32.8082 10.6527 32.5922 10.5047 32.5444C7.6899 31.6361 5.65231 28.9987 5.65231 25.8815Z" fill="#F5F5F5"/>
<path d="M10.5408 20.5307L10.7337 21.1089L11.3431 21.1137C11.4221 21.1144 11.4548 21.2149 11.3913 21.2618L10.901 21.6239L11.0847 22.2051C11.1086 22.2803 11.0229 22.3426 10.9587 22.2967L10.4628 21.9423L9.96688 22.2967C9.90262 22.3426 9.81698 22.2803 9.8408 22.2051L10.0246 21.6239L9.53426 21.2618C9.47079 21.2149 9.5036 21.1142 9.58241 21.1137L10.1919 21.1089L10.3847 20.5307C10.4098 20.4558 10.5158 20.4558 10.5408 20.5307Z" fill="#F5F5F5"/>
<path d="M10.5408 23.4609L10.7337 24.0391L11.3431 24.0439C11.4221 24.0446 11.4548 24.1452 11.3913 24.192L10.901 24.5541L11.0847 25.1353C11.1086 25.2105 11.0229 25.2728 10.9587 25.2269L10.4628 24.8725L9.96688 25.2269C9.90262 25.2728 9.81698 25.2105 9.8408 25.1353L10.0246 24.5541L9.53426 24.192C9.47079 24.1452 9.5036 24.0444 9.58241 24.0439L10.1919 24.0391L10.3847 23.4609C10.4098 23.3861 10.5158 23.3861 10.5408 23.4609Z" fill="#F5F5F5"/>
<path d="M10.5408 26.3911L10.7337 26.9694L11.3431 26.9741C11.4221 26.9748 11.4548 27.0754 11.3913 27.1223L10.901 27.4844L11.0847 28.0655C11.1086 28.1407 11.0229 28.203 10.9587 28.1571L10.4628 27.8028L9.96688 28.1571C9.90262 28.203 9.81698 28.1407 9.8408 28.0655L10.0246 27.4844L9.53426 27.1223C9.47079 27.0754 9.5036 26.9746 9.58241 26.9741L10.1919 26.9694L10.3847 26.3911C10.4098 26.3162 10.5158 26.3162 10.5408 26.3911Z" fill="#F5F5F5"/>
<path d="M10.5408 29.3216L10.7337 29.8998L11.3431 29.9046C11.4221 29.9052 11.4548 30.0058 11.3913 30.0527L10.901 30.4148L11.0847 30.996C11.1086 31.0712 11.0229 31.1335 10.9587 31.0876L10.4628 30.7332L9.96688 31.0876C9.90262 31.1335 9.81698 31.0712 9.8408 30.996L10.0246 30.4148L9.53426 30.0527C9.47079 30.0058 9.5036 29.9051 9.58241 29.9046L10.1919 29.8998L10.3847 29.3216C10.4098 29.2467 10.5158 29.2467 10.5408 29.3216Z" fill="#F5F5F5"/>
</g>
<defs>
<clipPath id="clip0_9_4040">
<rect width="50" height="50" fill="white" transform="translate(0.882812 0.881348)"/>
</clipPath>
</defs>
</svg>
