<svg width="51" height="51" viewBox="0 0 51 51" fill="none" xmlns="http://www.w3.org/2000/svg">
<g clip-path="url(#clip0_9_4014)">
<path d="M49.4482 41.3955H1.17252C0.696444 41.3955 0.31041 41.0095 0.31041 40.5334V9.49907C0.31041 9.023 0.696444 8.63696 1.17252 8.63696H49.4483C49.9244 8.63696 50.3104 9.023 50.3104 9.49907V40.5334C50.3103 41.0096 49.9243 41.3955 49.4482 41.3955Z" fill="#41479B"/>
<path d="M24.4483 8.63696H22.9509L14.9656 13.8687V8.63696H10.6552V13.8687L2.66988 8.63696H1.17252C0.696444 8.63696 0.31041 9.023 0.31041 9.49907V10.1829L7.16147 14.6714H0.31041V18.9818H7.16147L0.31041 23.4704V24.1541C0.31041 24.6302 0.696444 25.0162 1.17252 25.0162H2.66988L10.6552 19.7845V25.0162H14.9656V19.7845L22.9508 25.0162H24.4482C24.9242 25.0162 25.3103 24.6302 25.3103 24.1541V23.4703L18.4593 18.9818H25.3103V14.6714H18.4592L25.3103 10.1829V9.49907C25.3103 9.023 24.9244 8.63696 24.4483 8.63696Z" fill="#F5F5F5"/>
<path d="M25.3102 15.5335H14.1034V8.63696H11.5172V15.5335H0.310394V18.1197H11.5172V25.0162H14.1034V18.1197H25.3102V15.5335Z" fill="#FF4B55"/>
<path d="M9.79295 14.6715L0.721096 8.78271C0.47969 8.93555 0.310257 9.19219 0.310257 9.49912V9.54385L8.20956 14.6715H9.79295Z" fill="#FF4B55"/>
<path d="M16.5489 14.6714L25.1791 9.06929C25.0291 8.81548 24.7645 8.63696 24.4482 8.63696H24.2617L14.9655 14.6714H16.5489Z" fill="#FF4B55"/>
<path d="M9.04755 18.9818L0.433792 24.5732C0.582327 24.8332 0.851076 25.0163 1.17197 25.0163H1.33457L10.6309 18.9818H9.04755Z" fill="#FF4B55"/>
<path d="M25.2964 24.2221L17.2236 18.9819H15.6403L24.8075 24.9325C25.0822 24.8051 25.2705 24.538 25.2964 24.2221Z" fill="#FF4B55"/>
<path d="M37.1389 14.6757L37.4551 15.6237L38.4544 15.6314C38.5317 15.6321 38.5638 15.7308 38.5015 15.7769L37.6976 16.3705L37.999 17.3233C38.0223 17.3972 37.9384 17.4583 37.8753 17.4132L37.0622 16.832L36.2491 17.4132C36.186 17.4582 36.1021 17.3972 36.1254 17.3233L36.4267 16.3705L35.6228 15.7769C35.5605 15.7309 35.5926 15.632 35.67 15.6314L36.6693 15.6237L36.9854 14.6757C37.0106 14.6022 37.1145 14.6022 37.1389 14.6757Z" fill="#F5F5F5"/>
<path d="M32.8898 15.8418L33.5642 16.5793L34.4802 16.18C34.5512 16.149 34.6207 16.2262 34.5825 16.2935L34.0895 17.1628L34.7524 17.9106C34.8037 17.9686 34.7518 18.0586 34.676 18.0431L33.6969 17.8429L33.1906 18.7044C33.1513 18.7711 33.0497 18.7495 33.041 18.6725L32.9287 17.6796L31.9529 17.4643C31.8772 17.4476 31.8664 17.3442 31.937 17.3122L32.8467 16.8986L32.7499 15.904C32.7426 15.8269 32.8375 15.7846 32.8898 15.8418Z" fill="#F5F5F5"/>
<path d="M29.4823 18.6352L30.3983 19.0346L31.0727 18.2971C31.1249 18.2399 31.2198 18.2822 31.2123 18.3593L31.1155 19.3539L32.0253 19.7675C32.0958 19.7995 32.0849 19.9028 32.0094 19.9195L31.0335 20.1348L30.9213 21.1278C30.9126 21.2048 30.811 21.2263 30.7717 21.1596L30.2654 20.2981L29.2863 20.4983C29.2104 20.5138 29.1584 20.4239 29.2099 20.3659L29.8728 19.618L29.3798 18.7488C29.3417 18.6815 29.4112 18.6044 29.4823 18.6352Z" fill="#F5F5F5"/>
<path d="M27.5048 22.5733L28.5041 22.5656L28.8203 21.6175C28.8447 21.544 28.9486 21.544 28.9732 21.6175L29.2894 22.5656L30.2887 22.5733C30.366 22.574 30.3981 22.6726 30.3358 22.7187L29.5319 23.3124L29.8333 24.2652C29.8566 24.339 29.7727 24.4001 29.7096 24.355L28.8965 23.7739L28.0834 24.355C28.0203 24.4 27.9364 24.339 27.9597 24.2652L28.261 23.3124L27.4571 22.7187C27.3953 22.6726 27.4274 22.5738 27.5048 22.5733Z" fill="#F5F5F5"/>
<path d="M27.3013 26.9748L28.211 26.5612L28.1142 25.5666C28.1067 25.4896 28.2016 25.4474 28.2539 25.5044L28.9283 26.2419L29.8443 25.8426C29.9153 25.8116 29.9848 25.8888 29.9466 25.9562L29.4536 26.8255L30.1165 27.5733C30.1679 27.6314 30.1159 27.7213 30.0401 27.7058L29.061 27.5056L28.5547 28.3671C28.5154 28.4338 28.4139 28.4122 28.4051 28.3353L28.2929 27.3423L27.317 27.127C27.2416 27.1102 27.2307 27.0068 27.3013 26.9748Z" fill="#F5F5F5"/>
<path d="M28.905 31.0789L29.5679 30.3311L29.0749 29.4618C29.0367 29.3944 29.1063 29.3173 29.1772 29.3482L30.0932 29.7476L30.7676 29.0101C30.8199 28.9529 30.9148 28.9952 30.9073 29.0723L30.8105 30.0669L31.7202 30.4805C31.7907 30.5125 31.7798 30.6158 31.7043 30.6325L30.7284 30.8479L30.6162 31.8408C30.6075 31.9178 30.5059 31.9394 30.4666 31.8727L29.9603 31.0111L28.9812 31.2113C28.9056 31.2268 28.8536 31.1369 28.905 31.0789Z" fill="#F5F5F5"/>
<path d="M32.0394 34.176L32.3408 33.2231L31.5369 32.6295C31.4746 32.5835 31.5067 32.4846 31.584 32.4841L32.5834 32.4763L32.8996 31.5283C32.924 31.4548 33.0279 31.4548 33.0525 31.5283L33.3686 32.4763L34.3679 32.4841C34.4453 32.4847 34.4774 32.5834 34.4151 32.6295L33.6112 33.2231L33.9126 34.176C33.9359 34.2498 33.8519 34.3109 33.7888 34.2658L32.9757 33.6846L32.1627 34.2658C32.1003 34.3108 32.0162 34.2498 32.0394 34.176Z" fill="#F5F5F5"/>
<path d="M36.1627 35.7302L36.0505 34.7373L35.0746 34.5219C34.9989 34.5052 34.9881 34.4019 35.0587 34.3699L35.9684 33.9563L35.8716 32.9617C35.8641 32.8846 35.959 32.8423 36.0113 32.8995L36.6857 33.637L37.6017 33.2377C37.6727 33.2067 37.7422 33.2838 37.704 33.3512L37.211 34.2205L37.8739 34.9683C37.9253 35.0263 37.8733 35.1163 37.7975 35.1007L36.8184 34.9005L36.3121 35.7621C36.2728 35.8288 36.1712 35.8072 36.1627 35.7302Z" fill="#F5F5F5"/>
<path d="M40.5612 35.4732L40.0549 34.6117L39.0758 34.8119C38.9999 34.8274 38.948 34.7375 38.9994 34.6795L39.6623 33.9316L39.1694 33.0624C39.1312 32.995 39.2007 32.9179 39.2716 32.9488L40.1876 33.3481L40.862 32.6107C40.9143 32.5535 41.0092 32.5958 41.0017 32.6729L40.9049 33.6675L41.8147 34.0811C41.8852 34.1131 41.8742 34.2164 41.7987 34.2331L40.8229 34.4484L40.7107 35.4414C40.7022 35.5184 40.6005 35.5399 40.5612 35.4732Z" fill="#F5F5F5"/>
<path d="M44.4754 33.4493L43.6623 32.8681L42.8492 33.4493C42.7861 33.4943 42.7022 33.4332 42.7255 33.3594L43.0269 32.4066L42.223 31.8129C42.1606 31.7669 42.1928 31.6681 42.2701 31.6675L43.2694 31.6598L43.5856 30.7118C43.6101 30.6382 43.714 30.6382 43.7386 30.7118L44.0547 31.6598L45.054 31.6675C45.1313 31.6682 45.1635 31.7668 45.1012 31.8129L44.2973 32.4066L44.5986 33.3594C44.6224 33.4332 44.5383 33.4943 44.4754 33.4493Z" fill="#F5F5F5"/>
<path d="M47.2278 30.0082L46.2487 29.808L45.7423 30.6695C45.7031 30.7362 45.6015 30.7146 45.5927 30.6377L45.4805 29.6447L44.5047 29.4294C44.429 29.4127 44.4182 29.3093 44.4887 29.2773L45.3985 28.8637L45.3017 27.8691C45.2942 27.7921 45.3891 27.7499 45.4414 27.8069L46.1158 28.5444L47.0318 28.1451C47.1028 28.1141 47.1723 28.1913 47.134 28.2587L46.6411 29.1279L47.304 29.8757C47.3556 29.9337 47.3037 30.0237 47.2278 30.0082Z" fill="#F5F5F5"/>
<path d="M48.3427 25.7453L47.3668 25.9606L47.2546 26.9536C47.2459 27.0305 47.1442 27.0521 47.105 26.9854L46.5986 26.1239L45.6195 26.3241C45.5436 26.3396 45.4917 26.2497 45.5432 26.1917L46.206 25.4438L45.7131 24.5745C45.6749 24.5071 45.7444 24.43 45.8153 24.4609L46.7313 24.8602L47.4057 24.1227C47.458 24.0656 47.5529 24.1079 47.5454 24.1849L47.4486 25.1796L48.3584 25.5931C48.4291 25.6253 48.4182 25.7287 48.3427 25.7453Z" fill="#F5F5F5"/>
<path d="M47.6269 21.3974L46.823 21.9911L47.1244 22.9439C47.1477 23.0177 47.0637 23.0789 47.0006 23.0337L46.1875 22.4526L45.3745 23.0337C45.3114 23.0788 45.2275 23.0177 45.2507 22.9439L45.5521 21.9911L44.7482 21.3974C44.6859 21.3514 44.718 21.2526 44.7954 21.252L45.7947 21.2443L46.1109 20.2962C46.1353 20.2227 46.2392 20.2227 46.2638 20.2962L46.5799 21.2443L47.5792 21.252C47.6571 21.2526 47.6892 21.3514 47.6269 21.3974Z" fill="#F5F5F5"/>
<path d="M45.205 17.7164L44.712 18.5857L45.3749 19.3335C45.4263 19.3916 45.3743 19.4815 45.2986 19.466L44.3195 19.2658L43.8131 20.1273C43.7739 20.194 43.6723 20.1724 43.6635 20.0955L43.5513 19.1025L42.5754 18.8872C42.4997 18.8705 42.489 18.7671 42.5595 18.7351L43.4693 18.3215L43.3725 17.3269C43.365 17.2499 43.4599 17.2076 43.5121 17.2647L44.1866 18.0022L45.1026 17.6029C45.1737 17.5719 45.2432 17.6491 45.205 17.7164Z" fill="#F5F5F5"/>
<path d="M41.4951 15.3389L41.3983 16.3335L42.3081 16.7471C42.3786 16.7791 42.3677 16.8825 42.2922 16.8992L41.3163 17.1145L41.2041 18.1075C41.1954 18.1844 41.0937 18.206 41.0545 18.1393L40.5481 17.2778L39.569 17.478C39.4932 17.4935 39.4412 17.4035 39.4927 17.3455L40.1556 16.5977L39.6626 15.7284C39.6244 15.661 39.6939 15.5838 39.7648 15.6148L40.6808 16.0141L41.3553 15.2766C41.4077 15.2196 41.5026 15.2619 41.4951 15.3389Z" fill="#F5F5F5"/>
<path d="M37.1389 14.6757L37.4551 15.6237L38.4544 15.6314C38.5317 15.6321 38.5638 15.7308 38.5015 15.7769L37.6976 16.3705L37.999 17.3233C38.0223 17.3972 37.9384 17.4583 37.8753 17.4132L37.0622 16.832L36.2491 17.4132C36.186 17.4582 36.1021 17.3972 36.1254 17.3233L36.4267 16.3705L35.6228 15.7769C35.5605 15.7309 35.5926 15.632 35.67 15.6314L36.6693 15.6237L36.9854 14.6757C37.0106 14.6022 37.1145 14.6022 37.1389 14.6757Z" fill="#F5F5F5"/>
</g>
<defs>
<clipPath id="clip0_9_4014">
<rect width="50" height="50" fill="white" transform="translate(0.310547 0.0161133)"/>
</clipPath>
</defs>
</svg>
