<svg width="50" height="51" viewBox="0 0 50 51" fill="none" xmlns="http://www.w3.org/2000/svg">
<g clip-path="url(#clip0_9_4011)">
<path d="M49.1378 41.5537H0.862108C0.386034 41.5537 0 41.1677 0 40.6916V9.65727C0 9.1812 0.386034 8.79517 0.862108 8.79517H49.1379C49.614 8.79517 50 9.1812 50 9.65727V40.6916C49.9999 41.1678 49.6139 41.5537 49.1378 41.5537Z" fill="#F5F5F5"/>
<path d="M13.8911 26.8681C13.8911 26.8681 13.915 27.3253 13.5299 27.7344C13.1449 28.1437 13.3374 28.6731 13.8428 28.9138C13.8428 28.9138 13.494 29.7441 14.0114 30.093C14.338 30.3135 14.7815 30.2856 14.7815 30.2856C14.7815 30.2856 15.0222 31.2724 14.8296 31.898C14.6371 32.5238 14.9018 34.3286 19.306 33.2939C19.306 33.2939 19.3459 34.449 21.111 35.3475C22.8757 36.246 22.5301 38.3743 22.5301 38.3743C22.5301 38.3743 24.9594 39.7808 27.6444 36.4565C30.3294 33.1322 30.5211 32.6847 32.439 31.9176C32.439 31.9176 29.4344 28.8491 30.5212 26.1641C30.6643 25.8102 30.8261 25.4389 30.9947 25.0571C31.3059 26.0676 31.9205 27.5433 33.0185 28.4016C33.3601 28.6673 33.7817 28.7512 34.1892 28.833C34.6267 28.9209 35.0042 28.9968 35.182 29.2665C35.3384 29.5068 35.3526 29.9305 35.2318 30.5168C33.9263 31.9409 32.6647 32.3204 32.647 32.325L32.3434 32.407L32.9817 34.5121L31.0768 36.2646L31.1108 36.4344C31.3465 37.6091 32.0716 37.7649 32.3713 37.7789C32.3893 37.7789 32.4073 37.781 32.4253 37.781C33.1185 37.781 33.8237 37.1977 34.0475 36.4285C34.4351 35.1001 35.6996 34.9483 35.7136 34.9483L35.9054 34.9263L35.9692 34.7445C35.9973 34.6645 36.6545 32.7706 36.978 30.8409C37.1081 30.0604 37.1329 29.439 37.1064 28.8953C37.1164 28.8766 37.1278 28.8661 37.1378 28.8472L37.1048 28.8299C36.9827 26.7723 35.8666 26.2246 34.7644 25.7166C33.8247 25.2804 33.4559 24.8569 33.2734 24.5209C33.3112 24.5219 33.3435 24.532 33.382 24.532C33.6817 24.532 33.9973 24.498 34.3168 24.4081C35.2077 24.1604 35.929 23.5511 36.4604 22.5983C36.784 22.015 39.1913 15.4104 39.4649 14.6593L39.6547 14.1379L36.5472 14.8011L36.7839 12.9113L32.7565 14.3317L32.8524 14.6194C32.8663 14.6573 34.1489 18.509 34.025 20.8603C33.991 21.4777 33.7973 21.925 33.4437 22.1887C32.9991 22.517 32.3966 22.4996 32.082 22.4657C32.7829 20.6033 33.2349 18.6465 32.5666 16.8947C31.4596 13.9922 26.5574 11.333 22.8496 11.7166C19.1419 12.1002 16.0689 12.9961 15.0461 16.704C14.0232 20.4118 14.3084 21.3915 14.4363 22.0307C14.5641 22.67 12.1559 25.4918 12.5914 26.3628C12.8802 26.9402 13.8911 26.8681 13.8911 26.8681ZM31.6642 23.5149C31.7286 23.3628 31.7931 23.2115 31.8557 23.0575C31.9693 23.0777 32.1376 23.1016 32.3851 23.1016C32.8046 23.1016 33.3539 23.0216 33.8114 22.68C34.3168 22.3025 34.5945 21.7011 34.6365 20.8921C34.7504 18.7826 33.8315 15.672 33.5278 14.7111L36.0529 13.8221L35.4397 18.7206L36.047 18.7964L36.4668 15.4447L38.7 14.9687C37.6353 17.8854 36.1389 21.9148 35.9251 22.2984C35.4757 23.1035 34.8783 23.6149 34.1511 23.8167C33.0591 24.1264 32.0189 23.6889 31.6642 23.5149ZM33.179 35.1644L33.4906 36.1927C33.4826 36.2177 33.4674 36.231 33.46 36.2566C33.3142 36.756 32.8446 37.1655 32.4271 37.1655C32.417 37.1655 32.4071 37.1655 32.399 37.1655C32.0196 37.1496 31.8376 36.78 31.7518 36.4783L33.179 35.1644ZM36.4785 29.8583C36.4538 30.134 36.4272 30.4132 36.3726 30.7408C36.1129 32.2931 35.6134 33.8673 35.4456 34.3728C35.102 34.4531 34.3928 34.6961 33.8866 35.3831L33.1063 32.8145C33.7284 32.5673 35.1858 31.7507 36.4785 29.8583ZM31.3925 24.1554C31.4042 24.1287 31.4157 24.1042 31.4272 24.0775C31.6578 24.1869 32.0472 24.3476 32.5666 24.4491C32.711 24.8786 33.049 25.5972 34.5067 26.272C35.5175 26.7387 36.3678 27.1345 36.5031 28.6968C36.3123 29.0477 36.1033 29.2914 35.8996 29.5795C35.8698 29.3314 35.8122 29.1085 35.6953 28.931C35.3757 28.4455 34.8103 28.3317 34.3089 28.2318C33.9554 28.1599 33.6217 28.094 33.396 27.9181C32.106 26.9108 31.553 24.8633 31.3925 24.1554ZM15.4314 19.6237C15.4314 19.6237 15.5275 17.4579 16.4905 15.6287L31.2193 22.4636L29.9677 25.1591L15.4314 19.6237Z" fill="#464655"/>
</g>
<defs>
<clipPath id="clip0_9_4011">
<rect width="50" height="50" fill="white" transform="translate(0 0.174561)"/>
</clipPath>
</defs>
</svg>
