<svg width="51" height="51" viewBox="0 0 51 51" fill="none" xmlns="http://www.w3.org/2000/svg">
<g clip-path="url(#clip0_9_3941)">
<path d="M50.4268 20.0016H0.42688V30.3463H50.4268V20.0016Z" fill="#FF4B55"/>
<path d="M1.28899 8.79517H49.5648C50.0408 8.79517 50.4269 9.1812 50.4269 9.65727V14.3987H0.42688V9.65727C0.42688 9.1812 0.812914 8.79517 1.28899 8.79517Z" fill="#41479B"/>
<path d="M50.4268 14.399H0.42688V20.0026H50.4268V14.399Z" fill="#F5F5F5"/>
<path d="M49.5647 41.5537H1.28899C0.812914 41.5537 0.42688 41.1677 0.42688 40.6916V35.9502H50.4268V40.6916C50.4268 41.1678 50.0407 41.5537 49.5647 41.5537Z" fill="#41479B"/>
<path d="M50.426 30.3463H0.426086V35.9498H50.426V30.3463Z" fill="#F5F5F5"/>
<path d="M13.9407 29.485C16.1677 29.485 17.9729 27.5551 17.9729 25.1744C17.9729 22.7938 16.1677 20.8639 13.9407 20.8639C11.7138 20.8639 9.90851 22.7938 9.90851 25.1744C9.90851 27.5551 11.7138 29.485 13.9407 29.485Z" fill="#F5F5F5"/>
<path d="M16.027 23.5065H11.8557V25.5921H16.027V23.5065Z" fill="#3CC8FF"/>
<path d="M12.4125 24.6919L12.4602 25.152L12.6475 24.7292L12.5506 25.1814L12.8596 24.8371L12.6275 25.2374L13.0278 25.0055L12.6836 25.3145L13.1358 25.2175L12.713 25.4049L13.1731 25.4525L12.713 25.5002L13.1358 25.6876L12.6836 25.5907L13.0278 25.8996L12.6275 25.6676L12.8596 26.0679L12.5506 25.7236L12.6475 26.1759L12.4602 25.7531L12.4125 26.2131L12.3648 25.7531L12.1774 26.1759L12.2743 25.7236L11.9654 26.0679L12.1973 25.6676L11.7971 25.8996L12.1414 25.5907L11.6891 25.6876L12.1119 25.5002L11.6519 25.4525L12.1119 25.4049L11.6891 25.2175L12.1414 25.3145L11.7971 25.0055L12.1973 25.2374L11.9654 24.8371L12.2743 25.1814L12.1774 24.7292L12.3648 25.152L12.4125 24.6919Z" fill="#FFE15A"/>
<path d="M14.776 28.5116H13.1076L11.5781 27.2602V25.4526H16.4446V27.2602L14.776 28.5116Z" fill="#41479B"/>
<path d="M15.6104 24.8965H15.6103C15.6099 24.8584 15.579 24.8277 15.5409 24.8277C15.5027 24.8277 15.472 24.8584 15.4714 24.8965H15.4712C15.4712 25.1378 15.3314 25.4716 15.1599 25.7107C14.9204 25.4083 14.8304 25.0577 14.7964 24.8369C14.7802 24.7316 14.6664 24.6732 14.5711 24.7209C14.5252 24.7439 14.4943 24.7887 14.4865 24.8394C14.38 25.5213 14.0585 25.811 13.8503 25.9302C13.5387 25.6289 13.436 25.1413 13.4022 24.853C13.389 24.7409 13.2691 24.6767 13.1681 24.7271C13.1292 24.7465 13.1004 24.7816 13.0869 24.8229C12.6507 26.1523 11.4389 26.287 11.4389 26.287V26.7041H16.3054V26.5651V26.4262V26.2872V26.1482V26.0093C15.7494 25.8697 15.6104 24.8965 15.6104 24.8965Z" fill="#73AF00"/>
<path d="M16.3062 23.6451C15.75 23.367 15.75 23.089 15.75 23.089C15.75 23.089 15.0548 22.8108 14.4987 22.8108C14.4987 22.8108 14.6376 22.5327 14.3597 22.5327C14.0816 22.5327 13.9426 22.5327 13.9426 22.5327C13.9426 22.5327 13.8036 22.5327 13.5255 22.5327C13.2474 22.5327 13.3866 22.8108 13.3866 22.8108C12.8304 22.8108 12.1352 23.089 12.1352 23.089C12.1352 23.089 12.1352 23.3671 11.579 23.6451C11.0229 23.9232 11.0229 24.5489 11.0229 24.5489C11.0229 24.6642 11.1163 24.7574 11.2314 24.7574C11.3466 24.7574 11.4399 24.664 11.4399 24.5489C11.4399 24.5251 11.435 24.5027 11.4277 24.4814L11.4399 24.4794L12.8303 23.5062H13.9427H15.0551L16.4455 24.4794L16.4577 24.4814C16.4504 24.5026 16.4455 24.5252 16.4455 24.5489C16.4455 24.6642 16.539 24.7574 16.654 24.7574C16.7691 24.7574 16.8625 24.664 16.8625 24.5489C16.8623 24.5488 16.8623 23.9231 16.3062 23.6451Z" fill="#F0AA00"/>
<path d="M16.7233 25.3137C16.5843 25.3137 16.1671 25.3137 16.1671 24.8966C16.1671 24.4795 16.7233 24.4795 16.7233 24.4795L15.889 24.2014C15.6109 25.1747 16.1671 25.1747 16.1671 26.4261C16.1671 27.5471 14.9158 28.2336 14.4986 28.2336C14.0815 28.2336 13.9424 28.5118 13.9424 28.5118C13.9424 28.5118 13.8035 28.2336 13.3863 28.2336C12.9692 28.2336 11.7177 27.5471 11.7177 26.4261C11.7177 25.1748 12.2739 25.1748 11.9959 24.2014L11.1616 24.4795C11.1616 24.4795 11.7177 24.4795 11.7177 24.8966C11.7177 25.3137 11.3006 25.3137 11.1616 25.3137C11.0225 25.3137 10.4664 25.3137 10.4664 26.0089C10.4664 26.7041 11.1616 27.5384 12.1349 28.0946C13.1082 28.6507 12.6911 29.207 13.9424 29.207C15.1938 29.207 14.7767 28.6508 15.75 28.0946C16.7232 27.5384 17.4185 26.7041 17.4185 26.0089C17.4185 25.3137 16.8623 25.3137 16.7233 25.3137Z" fill="#F0AA00"/>
<path d="M13.664 23.1373L13.3276 22.9861C13.2718 22.961 13.2099 22.9551 13.1503 22.969C12.9335 23.0191 12.3957 23.1838 11.9954 23.6451L12.4125 23.784L13.664 23.1373Z" fill="#73AF00"/>
<path d="M14.2202 23.1373L14.5565 22.9861C14.6123 22.961 14.6743 22.9551 14.7338 22.969C14.9506 23.0191 15.4884 23.1838 15.8887 23.6451L15.4716 23.784L14.2202 23.1373Z" fill="#73AF00"/>
<path d="M13.9913 23.228L14.2448 22.9745C14.2584 22.9609 14.2584 22.9389 14.2448 22.9253C14.2313 22.9118 14.2093 22.9118 14.1957 22.9253L13.9422 23.1789L13.6887 22.9253C13.6751 22.9118 13.6531 22.9118 13.6396 22.9253C13.626 22.9389 13.626 22.9609 13.6396 22.9745L13.8931 23.228L13.6396 23.4815C13.626 23.4951 13.626 23.517 13.6396 23.5306C13.6464 23.5374 13.6553 23.5409 13.6642 23.5409C13.673 23.5409 13.682 23.5374 13.6888 23.5306L13.9423 23.2771L14.1958 23.5306C14.2027 23.5374 14.2115 23.5409 14.2204 23.5409C14.2294 23.5409 14.2382 23.5374 14.245 23.5306C14.2586 23.517 14.2586 23.4951 14.245 23.4815L13.9913 23.228Z" fill="#73AF00"/>
<path d="M16.7227 24.4794C16.7227 24.2429 16.4991 24.1406 16.3056 24.0962V23.9861C16.0439 23.9614 15.8977 23.8632 15.644 23.6903C15.5462 23.6236 15.4354 23.5482 15.3015 23.4667C14.8126 23.1697 14.4368 23.1269 14.22 23.1372V23.367H13.6638V23.1372C13.4469 23.1269 13.0711 23.1697 12.5823 23.4667C12.4485 23.5481 12.3375 23.6236 12.2398 23.6903C11.986 23.8631 11.84 23.9614 11.5782 23.9861V24.0962C11.3845 24.1405 11.1611 24.2428 11.1611 24.4794L11.5782 24.3404V24.4038C11.9728 24.3747 12.1984 24.2234 12.4746 24.0352C12.5683 23.9714 12.6744 23.899 12.7988 23.8236C13.1163 23.6306 13.3631 23.5708 13.5247 23.5568V23.7843H14.359V23.5568C14.5206 23.5709 14.7674 23.6306 15.085 23.8236C15.2096 23.8992 15.3156 23.9714 15.4091 24.0352C15.6853 24.2234 15.911 24.3748 16.3056 24.4038V24.3404L16.7227 24.4794Z" fill="#F5F5F5"/>
<path d="M15.6105 22.2877V22.1156H15.2232C15.2908 22.0575 15.3324 21.9892 15.3324 21.9072C15.3324 21.523 14.4584 21.4205 13.942 21.4205C13.4256 21.4205 12.5516 21.523 12.5516 21.9072C12.5516 21.9892 12.5932 22.0575 12.6609 22.1156H12.2736V22.2877C11.9331 22.3637 11.6549 22.5463 11.6403 22.5562L11.7945 22.7875C11.7983 22.785 12.1809 22.5327 12.5516 22.5327V22.3938H15.3324V22.5327C15.7032 22.5327 16.0858 22.7849 16.0896 22.7875L16.2438 22.5562C16.2292 22.5463 15.9509 22.3637 15.6105 22.2877ZM14.4982 22.0772V21.9716C14.4982 21.9035 14.4342 21.8536 14.3682 21.8701L13.942 21.9767L13.5158 21.8701C13.4498 21.8536 13.3859 21.9035 13.3859 21.9716V22.0772C13.0735 22.0313 12.8888 21.9549 12.8384 21.9072C12.9136 21.8357 13.2821 21.6987 13.9419 21.6987C14.6018 21.6987 14.9702 21.8359 15.0454 21.9072C14.9952 21.9548 14.8105 22.0312 14.4982 22.0772Z" fill="#3CC8FF"/>
<path d="M13.9594 23.8365L13.9946 23.9421L14.1056 23.9429C14.12 23.943 14.126 23.9615 14.1144 23.97L14.0251 24.0362L14.0586 24.1424C14.0629 24.1561 14.0473 24.1675 14.0356 24.1591L13.9452 24.0943L13.8548 24.1591C13.8431 24.1675 13.8275 24.156 13.8318 24.1424L13.8653 24.0362L13.776 23.97C13.7644 23.9615 13.7704 23.943 13.7848 23.9429L13.8958 23.9421L13.931 23.8365C13.9355 23.8227 13.9547 23.8227 13.9594 23.8365Z" fill="#F5F5F5"/>
<path d="M13.4143 23.8721L13.4603 23.9735L13.5709 23.9627C13.5852 23.9614 13.593 23.979 13.5825 23.9887L13.5005 24.0639L13.545 24.1659C13.5508 24.1792 13.5364 24.1921 13.5239 24.185L13.4273 24.1301L13.3442 24.204C13.3335 24.2136 13.3167 24.2039 13.3196 24.1898L13.3418 24.0806L13.246 24.0242C13.2337 24.0169 13.2377 23.9981 13.252 23.9964L13.3623 23.9839L13.3862 23.8752C13.3891 23.861 13.4084 23.8589 13.4143 23.8721Z" fill="#F5F5F5"/>
<path d="M12.8547 24.0211L12.9215 24.1101L13.0271 24.0755C13.0407 24.071 13.0522 24.0867 13.0439 24.0984L12.9802 24.1896L13.0457 24.2795C13.0541 24.2911 13.0429 24.3069 13.0292 24.3027L12.923 24.27L12.8579 24.3603C12.8495 24.3719 12.831 24.3661 12.8308 24.3518L12.8288 24.2405L12.7232 24.2062C12.7095 24.2018 12.7093 24.1824 12.723 24.1778L12.828 24.1415L12.8278 24.0302C12.8277 24.0158 12.8461 24.0096 12.8547 24.0211Z" fill="#F5F5F5"/>
<path d="M12.2939 24.2577L12.3718 24.337L12.4718 24.2887C12.4849 24.2825 12.4982 24.2964 12.4916 24.3093L12.4404 24.4081L12.5172 24.4886C12.5271 24.499 12.5182 24.516 12.504 24.5137L12.3943 24.4956L12.3416 24.5936C12.3348 24.6063 12.3158 24.603 12.3136 24.5887L12.2971 24.4786L12.1878 24.4587C12.1736 24.4561 12.1709 24.4369 12.1838 24.4304L12.2831 24.3806L12.2683 24.2703C12.2664 24.2559 12.2837 24.2474 12.2939 24.2577Z" fill="#F5F5F5"/>
<path d="M14.4763 23.8721L14.4303 23.9735L14.3197 23.9627C14.3054 23.9614 14.2976 23.979 14.3081 23.9887L14.3901 24.0639L14.3456 24.1659C14.3398 24.1792 14.3542 24.1921 14.3667 24.185L14.4633 24.1301L14.5464 24.204C14.5571 24.2136 14.5739 24.2039 14.571 24.1898L14.5488 24.0806L14.6446 24.0242C14.657 24.0169 14.653 23.9981 14.6386 23.9964L14.5283 23.9839L14.5044 23.8752C14.5014 23.861 14.4821 23.8589 14.4763 23.8721Z" fill="#F5F5F5"/>
<path d="M15.0358 24.0211L14.969 24.1101L14.8634 24.0755C14.8498 24.071 14.8383 24.0867 14.8465 24.0984L14.9103 24.1896L14.8448 24.2795C14.8363 24.2911 14.8475 24.3069 14.8613 24.3027L14.9674 24.27L15.0326 24.3603C15.041 24.3719 15.0595 24.3661 15.0597 24.3518L15.0616 24.2405L15.1673 24.2062C15.1809 24.2018 15.1811 24.1824 15.1675 24.1778L15.0625 24.1415L15.0627 24.0302C15.0628 24.0158 15.0444 24.0096 15.0358 24.0211Z" fill="#F5F5F5"/>
<path d="M15.5968 24.2577L15.5188 24.337L15.4188 24.2887C15.4057 24.2825 15.3924 24.2964 15.399 24.3093L15.4502 24.4081L15.3734 24.4886C15.3635 24.499 15.3724 24.516 15.3867 24.5137L15.4963 24.4956L15.549 24.5936C15.5559 24.6063 15.5748 24.603 15.577 24.5887L15.5935 24.4786L15.7028 24.4587C15.7171 24.4561 15.7197 24.4369 15.7068 24.4304L15.6075 24.3806L15.6223 24.2703C15.6241 24.2559 15.6068 24.2474 15.5968 24.2577Z" fill="#F5F5F5"/>
<path d="M12.9816 27.1733L13.6899 27.6469H14.5458L14.9413 27.308L14.6371 27.4297H13.629L12.9816 27.1733Z" fill="#8C5A28"/>
<path d="M13.463 26.5621L13.3948 27.2516L13.0845 27.1328C13.0845 27.1326 13.2273 26.8004 13.463 26.5621Z" fill="#F5F5F5"/>
<path d="M14.1229 26.2887H14.0769V27.4625H14.1229V26.2887Z" fill="#8C5A28"/>
<path d="M14.5488 26.3883H14.5028V27.4635H14.5488V26.3883Z" fill="#8C5A28"/>
<path d="M13.7 26.3883H13.6541V27.4635H13.7V26.3883Z" fill="#8C5A28"/>
<path d="M14.2407 27.3515H13.9605C13.9314 27.3515 13.9077 27.3278 13.9077 27.2986V27.1567C13.9077 27.1275 13.9314 27.1038 13.9605 27.1038H14.2407C14.2699 27.1038 14.2935 27.1275 14.2935 27.1567V27.2986C14.2935 27.3278 14.2699 27.3515 14.2407 27.3515Z" fill="#F5F5F5"/>
<path d="M14.2407 27.0212H13.9605C13.9314 27.0212 13.9077 26.9975 13.9077 26.9683V26.8264C13.9077 26.7972 13.9314 26.7734 13.9605 26.7734H14.2407C14.2699 26.7734 14.2935 26.7972 14.2935 26.8264V26.9683C14.2935 26.9976 14.2699 27.0212 14.2407 27.0212Z" fill="#F5F5F5"/>
<path d="M14.2407 26.7171H13.9605C13.9314 26.7171 13.9077 26.6934 13.9077 26.6642V26.5223C13.9077 26.4931 13.9314 26.4694 13.9605 26.4694H14.2407C14.2699 26.4694 14.2935 26.4931 14.2935 26.5223V26.6642C14.2935 26.6934 14.2699 26.7171 14.2407 26.7171Z" fill="#F5F5F5"/>
<path d="M14.6402 27.3515H14.412C14.3829 27.3515 14.3592 27.3278 14.3592 27.2986V27.1567C14.3592 27.1275 14.3829 27.1038 14.412 27.1038H14.6402C14.6693 27.1038 14.693 27.1275 14.693 27.1567V27.2986C14.693 27.3278 14.6693 27.3515 14.6402 27.3515Z" fill="#F5F5F5"/>
<path d="M14.6402 27.0475H14.412C14.3829 27.0475 14.3592 27.0238 14.3592 26.9946V26.8916C14.3592 26.8624 14.3829 26.8386 14.412 26.8386H14.6402C14.6693 26.8386 14.693 26.8624 14.693 26.8916V26.9946C14.693 27.0238 14.6693 27.0475 14.6402 27.0475Z" fill="#F5F5F5"/>
<path d="M14.6402 26.7461H14.412C14.3829 26.7461 14.3592 26.7223 14.3592 26.6931V26.6236C14.3592 26.5944 14.3829 26.5707 14.412 26.5707H14.6402C14.6693 26.5707 14.693 26.5944 14.693 26.6236V26.6931C14.693 26.7223 14.6693 26.7461 14.6402 26.7461Z" fill="#F5F5F5"/>
<path d="M13.7908 27.3515H13.5626C13.5334 27.3515 13.5098 27.3278 13.5098 27.2986V27.1567C13.5098 27.1275 13.5334 27.1038 13.5626 27.1038H13.7908C13.8199 27.1038 13.8436 27.1275 13.8436 27.1567V27.2986C13.8435 27.3278 13.8199 27.3515 13.7908 27.3515Z" fill="#F5F5F5"/>
<path d="M13.7908 27.0475H13.5626C13.5334 27.0475 13.5098 27.0238 13.5098 26.9946V26.8916C13.5098 26.8624 13.5334 26.8386 13.5626 26.8386H13.7908C13.8199 26.8386 13.8436 26.8624 13.8436 26.8916V26.9946C13.8435 27.0238 13.8199 27.0475 13.7908 27.0475Z" fill="#F5F5F5"/>
<path d="M13.7908 26.7461H13.5626C13.5334 26.7461 13.5098 26.7223 13.5098 26.6931V26.6236C13.5098 26.5944 13.5334 26.5707 13.5626 26.5707H13.7908C13.8199 26.5707 13.8436 26.5944 13.8436 26.6236V26.6931C13.8435 26.7223 13.8199 26.7461 13.7908 26.7461Z" fill="#F5F5F5"/>
<path d="M13.6995 26.3884V26.5274L13.9034 26.4566L13.6995 26.3884Z" fill="#F5F5F5"/>
<path d="M14.5491 26.3884V26.5274L14.7529 26.4566L14.5491 26.3884Z" fill="#F5F5F5"/>
<path d="M14.1236 26.2887V26.4276L14.3276 26.3568L14.1236 26.2887Z" fill="#F5F5F5"/>
<path d="M13.5806 25.3503L13.8266 25.5149H14.124L14.2614 25.3971L14.1557 25.4393H13.8055L13.5806 25.3503Z" fill="#8C5A28"/>
<path d="M13.7478 25.1379L13.7241 25.3775L13.6163 25.3362C13.6162 25.3362 13.6659 25.2208 13.7478 25.1379Z" fill="#F5F5F5"/>
<path d="M13.9764 25.0426H13.9605V25.4505H13.9764V25.0426Z" fill="#8C5A28"/>
<path d="M14.1236 25.0778H14.1077V25.4511H14.1236V25.0778Z" fill="#8C5A28"/>
<path d="M13.8293 25.0778H13.8134V25.4511H13.8293V25.0778Z" fill="#8C5A28"/>
<path d="M14.0175 25.4121H13.9201C13.91 25.4121 13.9017 25.4039 13.9017 25.3936V25.3444C13.9017 25.3342 13.9099 25.3259 13.9201 25.3259H14.0175C14.0276 25.3259 14.0359 25.3341 14.0359 25.3444V25.3936C14.0359 25.4039 14.0277 25.4121 14.0175 25.4121Z" fill="#F5F5F5"/>
<path d="M14.0175 25.2974H13.9201C13.91 25.2974 13.9017 25.2892 13.9017 25.279V25.2298C13.9017 25.2196 13.9099 25.2113 13.9201 25.2113H14.0175C14.0276 25.2113 14.0359 25.2195 14.0359 25.2298V25.279C14.0359 25.2891 14.0277 25.2974 14.0175 25.2974Z" fill="#F5F5F5"/>
<path d="M14.0175 25.1918H13.9201C13.91 25.1918 13.9017 25.1836 13.9017 25.1734V25.1242C13.9017 25.114 13.9099 25.1057 13.9201 25.1057H14.0175C14.0276 25.1057 14.0359 25.1139 14.0359 25.1242V25.1734C14.0359 25.1836 14.0277 25.1918 14.0175 25.1918Z" fill="#F5F5F5"/>
<path d="M14.1565 25.4121H14.0772C14.0671 25.4121 14.0588 25.4039 14.0588 25.3936V25.3444C14.0588 25.3342 14.067 25.3259 14.0772 25.3259H14.1565C14.1666 25.3259 14.1749 25.3341 14.1749 25.3444V25.3936C14.1748 25.4039 14.1665 25.4121 14.1565 25.4121Z" fill="#F5F5F5"/>
<path d="M14.1565 25.3065H14.0772C14.0671 25.3065 14.0588 25.2983 14.0588 25.2881V25.2523C14.0588 25.2422 14.067 25.2339 14.0772 25.2339H14.1565C14.1666 25.2339 14.1749 25.2421 14.1749 25.2523V25.2881C14.1748 25.2984 14.1665 25.3065 14.1565 25.3065Z" fill="#F5F5F5"/>
<path d="M14.1565 25.2018H14.0772C14.0671 25.2018 14.0588 25.1936 14.0588 25.1833V25.1592C14.0588 25.149 14.067 25.1407 14.0772 25.1407H14.1565C14.1666 25.1407 14.1749 25.1489 14.1749 25.1592V25.1833C14.1748 25.1937 14.1665 25.2018 14.1565 25.2018Z" fill="#F5F5F5"/>
<path d="M13.8612 25.4121H13.7819C13.7718 25.4121 13.7635 25.4039 13.7635 25.3936V25.3444C13.7635 25.3342 13.7717 25.3259 13.7819 25.3259H13.8612C13.8713 25.3259 13.8796 25.3341 13.8796 25.3444V25.3936C13.8795 25.4039 13.8713 25.4121 13.8612 25.4121Z" fill="#F5F5F5"/>
<path d="M13.8612 25.3065H13.7819C13.7718 25.3065 13.7635 25.2983 13.7635 25.2881V25.2523C13.7635 25.2422 13.7717 25.2339 13.7819 25.2339H13.8612C13.8713 25.2339 13.8796 25.2421 13.8796 25.2523V25.2881C13.8795 25.2984 13.8713 25.3065 13.8612 25.3065Z" fill="#F5F5F5"/>
<path d="M13.8612 25.2018H13.7819C13.7718 25.2018 13.7635 25.1936 13.7635 25.1833V25.1592C13.7635 25.149 13.7717 25.1407 13.7819 25.1407H13.8612C13.8713 25.1407 13.8796 25.1489 13.8796 25.1592V25.1833C13.8795 25.1937 13.8713 25.2018 13.8612 25.2018Z" fill="#F5F5F5"/>
<path d="M13.8297 25.0775V25.1258L13.9005 25.1012L13.8297 25.0775Z" fill="#F5F5F5"/>
<path d="M14.1246 25.0775V25.1258L14.1954 25.1012L14.1246 25.0775Z" fill="#F5F5F5"/>
<path d="M13.9769 25.043V25.0911L14.0477 25.0665L13.9769 25.043Z" fill="#F5F5F5"/>
<path d="M13.4064 24.6183H13.226C13.1609 24.6183 13.1076 24.5651 13.1076 24.5C13.1076 24.4349 13.1608 24.3816 13.226 24.3816H13.4064C13.4715 24.3816 13.5248 24.4348 13.5248 24.5C13.5249 24.5651 13.4716 24.6183 13.4064 24.6183Z" fill="#F5F5F5"/>
<path d="M14.778 24.6183H14.6593C14.5941 24.6183 14.5412 24.5653 14.5412 24.5C14.5412 24.4346 14.5941 24.3816 14.6593 24.3816H14.778C14.8432 24.3816 14.896 24.4346 14.896 24.5C14.8959 24.5653 14.8431 24.6183 14.778 24.6183Z" fill="#F5F5F5"/>
<path d="M15.6237 24.7964H15.5191C15.4818 24.7964 15.4516 24.7661 15.4516 24.7287V24.7175C15.4516 24.6801 15.4818 24.6498 15.5191 24.6498H15.6237C15.661 24.6498 15.6912 24.6801 15.6912 24.7175V24.7287C15.6912 24.7661 15.661 24.7964 15.6237 24.7964Z" fill="#F5F5F5"/>
</g>
<defs>
<clipPath id="clip0_9_3941">
<rect width="50" height="50" fill="white" transform="translate(0.427734 0.174561)"/>
</clipPath>
</defs>
</svg>
