<svg width="51" height="51" viewBox="0 0 51 51" fill="none" xmlns="http://www.w3.org/2000/svg">
<g clip-path="url(#clip0_9_3885)">
<path d="M0.720886 30.6343H50.7208V40.6917C50.7208 41.1678 50.3348 41.5538 49.8587 41.5538H1.58299C1.10692 41.5538 0.720886 41.1678 0.720886 40.6917V30.6343Z" fill="#41479B"/>
<path d="M1.58299 8.79517H49.8588C50.3349 8.79517 50.7209 9.1812 50.7209 9.65727V19.7147H0.720886V9.65727C0.720886 9.1812 1.10692 8.79517 1.58299 8.79517Z" fill="#FF4B55"/>
<path d="M50.7208 19.7145H0.720886V30.6334H50.7208V19.7145Z" fill="#F5F5F5"/>
<path d="M22.1003 20.0017H19.6865V22.7605H22.1003V20.0017Z" fill="#FF4B55"/>
<path d="M26.9274 20.0017H24.5137V22.7605H26.9274V20.0017Z" fill="#FF4B55"/>
<path d="M24.5134 22.7605H22.0996V25.5193H24.5134V22.7605Z" fill="#FF4B55"/>
<path d="M31.7548 20.0017H29.341V22.7605H31.7548V20.0017Z" fill="#FF4B55"/>
<path d="M29.3414 22.7605H26.9277V25.5193H29.3414V22.7605Z" fill="#FF4B55"/>
<path d="M24.5134 20.0017H22.0996V22.7605H24.5134V20.0017Z" fill="#F5F5F5"/>
<path d="M29.3414 20.0017H26.9277V22.7605H29.3414V20.0017Z" fill="#F5F5F5"/>
<path d="M22.1003 22.7605H19.6866V25.5193H22.1003V22.7605Z" fill="#F5F5F5"/>
<path d="M26.9274 22.7605H24.5137V25.5193H26.9274V22.7605Z" fill="#F5F5F5"/>
<path d="M31.7548 22.7605H29.341V25.5193H31.7548V22.7605Z" fill="#F5F5F5"/>
<path d="M26.927 25.5192H24.5132V28.2779H26.927V25.5192Z" fill="#FF4B55"/>
<path d="M24.5129 28.278H22.0992V31.0367H24.5129V28.278Z" fill="#FF4B55"/>
<path d="M29.341 28.278H26.9272V31.0367H29.341V28.278Z" fill="#FF4B55"/>
<path d="M24.5136 25.5192H22.0998V28.2779H24.5136V25.5192Z" fill="#F5F5F5"/>
<path d="M29.341 25.5192H26.9272V28.2779H29.341V25.5192Z" fill="#F5F5F5"/>
<path d="M26.9269 28.278H24.5131V31.0367H26.9269V28.278Z" fill="#F5F5F5"/>
<path d="M31.7552 20.0021V27.7607C31.7552 31.0934 29.0535 33.7951 25.7208 33.7951C22.3881 33.7951 19.6863 31.0934 19.6863 27.7607V20.0021H31.7552ZM32.1863 19.571H31.7552H19.6863H19.2552V20.0021V27.7607C19.2552 31.3257 22.1556 34.2262 25.7208 34.2262C29.2859 34.2262 32.1863 31.3258 32.1863 27.7607V20.0021V19.571Z" fill="#FF4B55"/>
<path d="M22.1013 28.2779V25.5193H19.6875V27.7607C19.6875 27.9354 19.699 28.107 19.7136 28.278H22.1013V28.2779Z" fill="#FF4B55"/>
<path d="M31.7291 28.2778H29.3414V31.0364H30.7841C31.3078 30.2289 31.643 29.2897 31.7291 28.2778Z" fill="#F5F5F5"/>
<path d="M20.6573 31.0366H22.1001V28.2781H19.7124C19.7984 29.2899 20.1338 30.229 20.6573 31.0366Z" fill="#F5F5F5"/>
<path d="M29.3419 28.2778H31.7296C31.7442 28.107 31.7557 27.9353 31.7557 27.7606V25.5192H29.3419V28.2778Z" fill="#FF4B55"/>
<path d="M22.1005 32.5799V31.0364H20.6578C21.0444 31.6328 21.534 32.1537 22.1005 32.5799Z" fill="#FF4B55"/>
<path d="M30.7847 31.0364H29.3419V32.5799C29.9085 32.1537 30.3982 31.6328 30.7847 31.0364Z" fill="#FF4B55"/>
<path d="M22.1 32.5801C22.8026 33.1089 23.6202 33.4926 24.5138 33.674V31.0365H22.1V32.5801Z" fill="#F5F5F5"/>
<path d="M26.9272 33.674C27.8207 33.4926 28.6384 33.1088 29.341 32.58V31.0365H26.9272V33.674Z" fill="#F5F5F5"/>
<path d="M26.9276 31.0365H24.5139V33.674C24.9038 33.7532 25.3074 33.7952 25.7208 33.7952C26.1342 33.7952 26.5377 33.7532 26.9277 33.674V31.0365H26.9276Z" fill="#FF4B55"/>
<path d="M21.3529 15.4374C20.8277 15.3562 20.2904 15.2976 19.7426 15.2637C19.319 15.6124 18.9152 15.976 18.5319 16.3525C18.9168 17.2817 19.3017 18.2109 19.6864 19.1401C20.4592 18.8201 21.251 18.564 22.0543 18.372C21.8205 17.3937 21.5867 16.4155 21.3529 15.4374Z" fill="#4173CD"/>
<path d="M27.1862 14.9797C26.7143 14.741 26.2256 14.5202 25.7212 14.3191C25.2168 14.5203 24.728 14.7411 24.2562 14.9797C24.3346 15.9823 24.4131 16.985 24.4915 17.9878C25.3101 17.9237 26.1325 17.9237 26.9511 17.9878C27.0293 16.9851 27.1078 15.9825 27.1862 14.9797Z" fill="#4173CD"/>
<path d="M32.91 16.3525C32.5267 15.9761 32.1228 15.6125 31.6992 15.2637C31.1515 15.2975 30.6142 15.3562 30.089 15.4374C29.8552 16.4156 29.6213 17.3937 29.3875 18.3719C30.1908 18.564 30.9826 18.82 31.7554 19.14C32.1402 18.2108 32.5251 17.2816 32.91 16.3525Z" fill="#4173CD"/>
<path d="M24.2556 14.9797C23.7523 14.8173 23.2345 14.6752 22.7034 14.5553C22.2349 14.8327 21.7844 15.1274 21.3527 15.4374C21.5864 16.4156 21.8203 17.3938 22.0543 18.3719C22.8576 18.1798 23.6724 18.0519 24.491 17.9878C24.4125 16.9851 24.334 15.9824 24.2556 14.9797Z" fill="#41479B"/>
<path d="M30.0879 15.4373C29.6561 15.1272 29.2055 14.8325 28.7371 14.5552C28.206 14.6751 27.6882 14.8174 27.1849 14.9796C27.1065 15.9821 27.028 16.9849 26.9496 17.9877C27.7682 18.0517 28.583 18.1797 29.3863 18.3718C29.6202 17.3936 29.8541 16.4154 30.0879 15.4373Z" fill="#41479B"/>
<path d="M24.3499 16.1829C23.4373 16.2541 22.529 16.3968 21.6334 16.6111C21.5866 16.4155 21.5398 16.2198 21.493 16.0242C22.4193 15.8029 23.3588 15.6552 24.3027 15.5813C24.3185 15.7819 24.3342 15.9824 24.3499 16.1829Z" fill="#FF4B55"/>
<path d="M24.4438 17.386C23.5939 17.4525 22.7479 17.5854 21.9138 17.7848C21.867 17.5892 21.8203 17.3935 21.7735 17.198C22.6382 16.9912 23.5155 16.8534 24.3967 16.7845C24.4125 16.9848 24.4281 17.1855 24.4438 17.386Z" fill="#FF4B55"/>
<path d="M28.5847 17.5886C28.3743 17.5512 28.1632 17.5179 27.9517 17.4888C27.6039 17.4408 27.3448 17.1454 27.3749 16.8135C27.405 16.4817 27.7375 16.241 28.1162 16.2933C28.3432 16.3245 28.5698 16.3602 28.7957 16.4004C29.1726 16.467 29.4165 16.7991 29.343 17.1237C29.2697 17.449 28.9312 17.6496 28.5847 17.5886Z" fill="#FFE15A"/>
<path d="M31.9863 18.5825C31.184 18.2501 30.3617 17.9843 29.5278 17.7848C29.5746 17.5892 29.6213 17.3935 29.6681 17.198C30.5328 17.4046 31.3854 17.6804 32.2172 18.025C32.1403 18.2108 32.0633 18.3966 31.9863 18.5825Z" fill="#FF4B55"/>
<path d="M31.7715 16.7721C31.6862 17.0071 31.3987 17.119 31.1271 17.0306C30.8555 16.9421 30.6893 16.6839 30.758 16.4435C30.8268 16.203 31.118 16.0758 31.4061 16.1694C31.6944 16.2629 31.8567 16.537 31.7715 16.7721Z" fill="#FFE15A"/>
<path d="M20.6851 16.4437C20.7537 16.6843 20.5874 16.9426 20.316 17.0308C20.0444 17.1187 19.7569 17.0068 19.6716 16.7723C19.5862 16.5371 19.7487 16.2631 20.037 16.1697C20.325 16.0763 20.6165 16.2033 20.6851 16.4437Z" fill="#FFE15A"/>
<path d="M25.5839 16.0484C25.5845 16.2483 25.4048 16.4111 25.1821 16.4179C24.9596 16.425 24.7698 16.2733 24.7581 16.0741C24.7465 15.8749 24.926 15.7025 25.1596 15.6949C25.3932 15.6876 25.5829 15.8485 25.5839 16.0484Z" fill="#FFE15A"/>
<path d="M26.685 16.0742C26.6732 16.2738 26.4833 16.425 26.2609 16.4179C26.0384 16.4111 25.8587 16.2483 25.8592 16.0484C25.8601 15.8487 26.0499 15.6873 26.2834 15.695C26.5171 15.702 26.6965 15.8748 26.685 16.0742Z" fill="#FFE15A"/>
<path d="M26.113 16.9792C26.1074 17.1791 25.9323 17.3363 25.7215 17.3363C25.511 17.3362 25.3359 17.1792 25.3301 16.9792C25.3247 16.7798 25.4998 16.6125 25.7215 16.613C25.9433 16.6126 26.1184 16.7797 26.113 16.9792Z" fill="#FFE15A"/>
</g>
<defs>
<clipPath id="clip0_9_3885">
<rect width="50" height="50" fill="white" transform="translate(0.720703 0.174561)"/>
</clipPath>
</defs>
</svg>
