<svg width="51" height="51" viewBox="0 0 51 51" fill="none" xmlns="http://www.w3.org/2000/svg">
    <g clip-path="url(#clip0_9_3876)">
        <path
            d="M50.1477 15.3469H0.147827V9.65727C0.147827 9.1812 0.533862 8.79517 1.00993 8.79517H49.2857C49.7618 8.79517 50.1478 9.1812 50.1478 9.65727L50.1477 15.3469Z"
            fill="#41479B" />
        <path
            d="M49.285 41.5537H1.00926C0.53319 41.5537 0.147156 41.1677 0.147156 40.6916V35.002H50.1471V40.6916C50.1471 41.1678 49.761 41.5537 49.285 41.5537Z"
            fill="#41479B" />
        <path d="M50.1477 15.3473H0.147766V21.899H50.1477V15.3473Z" fill="#F5F5F5" />
        <path d="M50.1477 21.899H0.147766V28.4508H50.1477V21.899Z" fill="#41479B" />
        <path d="M50.1477 28.4508H0.147766V35.0026H50.1477V28.4508Z" fill="#F5F5F5" />
        <path
            d="M0.471008 41.3491L25.4126 25.5528C25.69 25.377 25.69 24.9722 25.4126 24.7965L0.471008 9C0.278137 9.15811 0.147766 9.38848 0.147766 9.65732V40.6916C0.147766 40.9605 0.278235 41.1909 0.471008 41.3491Z"
            fill="#FF4B55" />
        <path
            d="M8.79299 21.0183L9.67815 23.6722L12.4757 23.6939C12.6924 23.6956 12.7822 23.9721 12.6079 24.1009L10.3574 25.7628L11.2013 28.4301C11.2667 28.6367 11.0314 28.8076 10.8551 28.6816L8.57913 27.0548L6.30315 28.6817C6.12688 28.8077 5.89153 28.6367 5.95696 28.4302L6.80081 25.763L4.55023 24.1011C4.37591 23.9723 4.46575 23.6957 4.68245 23.6941L7.48001 23.6724L8.36516 21.0185C8.43362 20.8127 8.72444 20.8127 8.79299 21.0183Z"
            fill="#F5F5F5" />
    </g>
    <defs>
        <clipPath id="clip0_9_3876">
            <rect width="50" height="50" fill="white" transform="translate(0.148438 0.174561)" />
        </clipPath>
    </defs>
</svg>
