<svg width="51" height="51" viewBox="0 0 51 51" fill="none" xmlns="http://www.w3.org/2000/svg">
<g clip-path="url(#clip0_9_3870)">
<path d="M49.5796 41.5538H1.30388C0.827807 41.5538 0.441772 41.1678 0.441772 40.6917V9.65727C0.441772 9.1812 0.827807 8.79517 1.30388 8.79517H49.5797C50.0557 8.79517 50.4418 9.1812 50.4418 9.65727V40.6917C50.4417 41.1679 50.0556 41.5538 49.5796 41.5538Z" fill="#41479B"/>
<path d="M50.4417 31.2087H0.441772V35.5193H50.4417V31.2087Z" fill="#FFE15A"/>
<path d="M12.0572 16.8609L11.2093 19.4032L8.52929 19.424C8.27226 19.426 8.16571 19.754 8.37245 19.9067L10.5284 21.4986L9.72001 24.0538C9.64257 24.2988 9.92147 24.5016 10.1306 24.3521L12.3109 22.7937L14.4913 24.3521C14.7004 24.5015 14.9794 24.2988 14.9018 24.0538L14.0934 21.4986L16.2494 19.9067C16.4562 19.7539 16.3496 19.4261 16.0926 19.424L13.4126 19.4032L12.5646 16.8609C12.4834 16.617 12.1386 16.617 12.0572 16.8609Z" fill="#F5F5F5"/>
<path d="M5.94884 12.1692L5.45812 13.6408L3.90695 13.6529C3.75822 13.654 3.6965 13.8438 3.81623 13.9322L5.06407 14.8537L4.5962 16.3327C4.55138 16.4745 4.71281 16.5918 4.8338 16.5053L6.09571 15.6033L7.35762 16.5053C7.47862 16.5918 7.64014 16.4745 7.59522 16.3327L7.12735 14.8537L8.3752 13.9322C8.49483 13.8438 8.43321 13.654 8.28448 13.6529L6.73331 13.6408L6.24259 12.1692C6.19552 12.0281 5.99591 12.0281 5.94884 12.1692Z" fill="#F5F5F5"/>
</g>
<defs>
<clipPath id="clip0_9_3870">
<rect width="50" height="50" fill="white" transform="translate(0.441406 0.174561)"/>
</clipPath>
</defs>
</svg>
