<svg width="51" height="51" viewBox="0 0 51 51" fill="none" xmlns="http://www.w3.org/2000/svg">
<g clip-path="url(#clip0_9_3866)">
<path d="M1.18662 41.3455L25.8687 25.1746L1.18662 9.00366C0.99668 9.16177 0.868652 9.39087 0.868652 9.65727V40.6917C0.868652 40.9582 0.99668 41.1874 1.18662 41.3455Z" fill="#41479B"/>
<path d="M1.18573 41.3455C1.33514 41.4699 1.5202 41.5539 1.72977 41.5539H50.0057C50.4817 41.5539 50.8678 41.1678 50.8678 40.6917V25.1746H25.8678L1.18573 41.3455Z" fill="#FF4B55"/>
<path d="M1.18573 9.00369C1.33514 8.87927 1.5202 8.79529 1.72977 8.79529H50.0057C50.4817 8.79529 50.8678 9.18132 50.8678 9.6574V25.1746H25.8678L1.18573 9.00369Z" fill="#F5F5F5"/>
</g>
<defs>
<clipPath id="clip0_9_3866">
<rect width="50" height="50" fill="white" transform="translate(0.869141 0.174561)"/>
</clipPath>
</defs>
</svg>
