<svg width="51" height="51" viewBox="0 0 51 51" fill="none" xmlns="http://www.w3.org/2000/svg">
<g clip-path="url(#clip0_9_3859)">
<path d="M49.3005 41.5538H1.02477C0.548693 41.5538 0.162659 41.1678 0.162659 40.6917V9.65727C0.162659 9.1812 0.548693 8.79517 1.02477 8.79517H49.3006C49.7766 8.79517 50.1627 9.1812 50.1627 9.65727V40.6917C50.1626 41.1679 49.7765 41.5538 49.3005 41.5538Z" fill="#82AFFF"/>
<path d="M49.3005 8.79529H46.8293L0.162659 32.9331V34.6573L49.8078 8.97878C49.6638 8.87107 49.4941 8.79529 49.3005 8.79529Z" fill="#FFE15A"/>
<path d="M1.02521 41.5539H3.49639L50.163 17.416V15.6919L0.517883 41.3704C0.661828 41.4781 0.831555 41.5539 1.02521 41.5539Z" fill="#FFE15A"/>
<path d="M49.8078 8.97876L0.162659 34.6572V40.6917C0.162659 40.9742 0.307483 41.2131 0.517443 41.3702L50.1626 15.6918V9.65727C50.1626 9.37475 50.0177 9.13599 49.8078 8.97876Z" fill="#FF4B55"/>
<path d="M9.20747 12.1842L10.4495 15.9083L14.3751 15.9387C14.5947 15.9405 14.6857 16.2205 14.5091 16.351L11.351 18.6831L12.5352 22.4261C12.6014 22.6354 12.3631 22.8085 12.1845 22.6809L8.99067 20.398L5.79683 22.6809C5.61832 22.8086 5.37994 22.6354 5.44615 22.4261L6.63032 18.6831L3.47223 16.351C3.29557 16.2206 3.38668 15.9405 3.60621 15.9387L7.53189 15.9083L8.77388 12.1842C8.8435 11.976 9.13794 11.976 9.20747 12.1842Z" fill="#FFE15A"/>
</g>
<defs>
<clipPath id="clip0_9_3859">
<rect width="50" height="50" fill="white" transform="translate(0.162109 0.174561)"/>
</clipPath>
</defs>
</svg>
