<svg width="51" height="51" viewBox="0 0 51 51" fill="none" xmlns="http://www.w3.org/2000/svg">
    <g clip-path="url(#clip0_9_3851)">
        <path
            d="M1.20151 41.3455L25.8835 25.1746L1.20151 9.00366C1.01157 9.16177 0.883545 9.39087 0.883545 9.65727V40.6917C0.883545 40.9582 1.01157 41.1874 1.20151 41.3455Z"
            fill="#F5F5F5" />
        <path
            d="M1.2016 41.3455C1.35101 41.4699 1.53607 41.5539 1.74564 41.5539H50.0215C50.4976 41.5539 50.8836 41.1678 50.8836 40.6917V25.1746H25.8836L1.2016 41.3455Z"
            fill="#73AF00" />
        <path
            d="M1.2016 9.00369C1.35101 8.87927 1.53607 8.79529 1.74564 8.79529H50.0215C50.4976 8.79529 50.8836 9.18132 50.8836 9.6574V25.1746H25.8836L1.2016 9.00369Z"
            fill="#82AFFF" />
        <path
            d="M9.8451 21.2815L8.97205 23.8993L6.21258 23.9208C6.06131 23.9219 5.99861 24.1151 6.1202 24.2049L8.34012 25.8443L7.50779 28.4754C7.46219 28.6197 7.62645 28.7389 7.74949 28.6509L9.99451 27.0464L12.2395 28.6509C12.3626 28.7388 12.5268 28.6196 12.4812 28.4754L11.6489 25.8443L13.8685 24.2048C13.9902 24.115 13.9275 23.9218 13.7762 23.9207L11.0167 23.8992L10.1436 21.2814C10.096 21.138 9.89295 21.138 9.8451 21.2815Z"
            fill="#FF4B55" />
    </g>
    <defs>
        <clipPath id="clip0_9_3851">
            <rect width="50" height="50" fill="white" transform="translate(0.882812 0.174561)" />
        </clipPath>
    </defs>
</svg>
