<svg width="51" height="51" viewBox="0 0 51 51" fill="none" xmlns="http://www.w3.org/2000/svg">
    <g clip-path="url(#clip0_9_3819)">
        <path
            d="M49.4482 41.823H1.17252C0.696444 41.823 0.31041 41.437 0.31041 40.9609V9.92656C0.31041 9.45049 0.696444 9.06445 1.17252 9.06445H49.4483C49.9244 9.06445 50.3104 9.45049 50.3104 9.92656V40.9609C50.3103 41.4371 49.9243 41.823 49.4482 41.823Z"
            fill="#73AF00" />
        <path d="M50.3103 21.9955H0.31041V24.2943H50.3103V21.9955Z" fill="#FFE15A" />
        <path d="M50.3103 24.2943H0.31041V26.5931H50.3103V24.2943Z" fill="#464655" />
        <path d="M50.3103 26.5931H0.31041V28.892H50.3103V26.5931Z" fill="#F5F5F5" />
        <path d="M24.161 9.06482H21.8622V41.8235H24.161V9.06482Z" fill="#FFE15A" />
        <path d="M26.4598 9.06482H24.161V41.8235H26.4598V9.06482Z" fill="#464655" />
        <path d="M28.7587 9.06482H26.4598V41.8235H28.7587V9.06482Z" fill="#F5F5F5" />
        <path
            d="M25.3103 34.0648C30.0716 34.0648 33.9314 30.205 33.9314 25.4437C33.9314 20.6824 30.0716 16.8226 25.3103 16.8226C20.5491 16.8226 16.6893 20.6824 16.6893 25.4437C16.6893 30.205 20.5491 34.0648 25.3103 34.0648Z"
            fill="#FF4B55" />
        <path
            d="M24.5703 26.9266C24.5703 26.9266 24.4697 27.6314 25.1543 28.6784H26.4832L26.1812 27.4099L24.5703 26.9266Z"
            fill="#73AF00" />
        <path
            d="M24.4764 22.2085C24.4764 22.2085 22.302 25.7656 25.4966 27.8864L25.8321 25.8729L26.0468 23.2688L25.7113 22.1547L24.4764 22.2085Z"
            fill="#A561CD" />
        <path
            d="M24.4761 22.2084C24.4761 22.2084 24.2276 22.6221 24.0217 23.2447C24.3016 23.5373 25.0668 23.8998 26.0076 23.7408L26.0465 23.2687L25.7109 22.1545L24.4761 22.2084Z"
            fill="#73AF00" />
        <path
            d="M24.06 21.6984C24.06 21.6984 24.0868 20.9869 24.7849 20.9869C25.6575 20.9869 26.3689 21.1882 27.4964 23.5238C27.4964 23.5238 26.4935 24.5082 25.8588 23.148C25.6709 22.7452 25.6037 22.2621 25.6037 22.2621C25.6037 22.2621 24.8252 22.5306 24.2883 22.2218L24.06 21.6984Z"
            fill="#A561CD" />
        <path
            d="M24.4091 22.034L24.2479 21.6045C24.2479 21.6045 23.3486 21.4569 23.7244 22.5442C23.7244 22.5442 23.7513 22.3294 23.9795 22.3563C24.2078 22.383 24.4493 22.2085 24.4091 22.034Z"
            fill="#FFE15A" />
        <path
            d="M25.9122 26.1146C25.9122 26.1146 24.966 26.8561 25.4962 28.5978C25.7781 29.524 26.9056 30.5408 26.9056 30.5408C26.9056 30.5408 27.7411 28.3562 27.4693 27.5106C27.3094 27.0129 25.9122 26.1146 25.9122 26.1146Z"
            fill="#73AF00" />
        <path
            d="M27.7112 28.92C27.7112 28.92 25.2682 26.5911 25.1071 24.7589C24.946 22.9267 26.0025 23.2175 26.1944 23.3361C26.6508 23.6179 27.8051 24.7992 27.7112 28.92Z"
            fill="#73AF00" />
        <path
            d="M27.4079 29.4535H23.3632C23.2791 29.4535 23.211 29.3854 23.211 29.3013V29.0015C23.211 28.9174 23.2791 28.8494 23.3632 28.8494H27.4079C27.492 28.8494 27.56 28.9174 27.56 29.0015V29.3013C27.5599 29.3853 27.4919 29.4535 27.4079 29.4535Z"
            fill="#B34900" />
        <path
            d="M26.4226 28.8797C26.2818 28.9382 25.9998 29.0106 26.0703 29.2622C26.1243 29.455 26.4931 29.4333 26.4226 29.6549C26.3749 29.8046 25.6258 29.8183 25.3353 29.7757C25.1574 29.7495 24.7715 29.6447 24.8252 29.2018C24.879 28.7589 25.04 28.6907 25.2415 28.6112C25.4412 28.5323 26.3147 28.5498 26.4428 28.6582C26.5081 28.7135 26.5292 28.8354 26.4226 28.8797Z"
            fill="#FFE15A" />
        <path
            d="M25.3897 17.7422L25.5859 18.3306L26.206 18.3354C26.2863 18.3361 26.3196 18.4386 26.255 18.4862L25.7561 18.8547L25.9432 19.446C25.9674 19.5225 25.8803 19.5858 25.815 19.5392L25.3104 19.1785L24.8059 19.5392C24.7406 19.5858 24.6535 19.5226 24.6777 19.446L24.8648 18.8547L24.3659 18.4862C24.3013 18.4385 24.3346 18.336 24.4149 18.3354L25.035 18.3306L25.2312 17.7422C25.2565 17.666 25.3642 17.666 25.3897 17.7422Z"
            fill="#73AF00" />
        <path
            d="M25.3897 31.4973L25.5859 32.0857L26.206 32.0906C26.2863 32.0913 26.3196 32.1937 26.255 32.2414L25.7561 32.6098L25.9432 33.2011C25.9674 33.2776 25.8803 33.341 25.815 33.2943L25.3104 32.9336L24.8059 33.2943C24.7406 33.341 24.6535 33.2777 24.6777 33.2011L24.8648 32.6098L24.3659 32.2414C24.3013 32.1936 24.3346 32.0912 24.4149 32.0906L25.035 32.0857L25.2312 31.4973C25.2565 31.4211 25.3642 31.4211 25.3897 31.4973Z"
            fill="#73AF00" />
        <path
            d="M25.3897 17.7422L25.5859 18.3306L26.206 18.3354C26.2863 18.3361 26.3196 18.4386 26.255 18.4862L25.7561 18.8547L25.9432 19.446C25.9674 19.5225 25.8803 19.5858 25.815 19.5392L25.3104 19.1785L24.8059 19.5392C24.7406 19.5858 24.6535 19.5226 24.6777 19.446L24.8648 18.8547L24.3659 18.4862C24.3013 18.4385 24.3346 18.336 24.4149 18.3354L25.035 18.3306L25.2312 17.7422C25.2565 17.666 25.3642 17.666 25.3897 17.7422Z"
            fill="#73AF00" />
        <path
            d="M25.3897 31.4973L25.5859 32.0857L26.206 32.0906C26.2863 32.0913 26.3196 32.1937 26.255 32.2414L25.7561 32.6098L25.9432 33.2011C25.9674 33.2776 25.8803 33.341 25.815 33.2943L25.3104 32.9336L24.8059 33.2943C24.7406 33.341 24.6535 33.2777 24.6777 33.2011L24.8648 32.6098L24.3659 32.2414C24.3013 32.1936 24.3346 32.0912 24.4149 32.0906L25.035 32.0857L25.2312 31.4973C25.2565 31.4211 25.3642 31.4211 25.3897 31.4973Z"
            fill="#73AF00" />
        <path
            d="M20.5971 19.1538L20.769 19.7497L20.2608 20.1052C20.195 20.1512 20.2256 20.2545 20.3059 20.2572L20.9257 20.2779L21.1069 20.871C21.1304 20.9479 21.238 20.9505 21.2654 20.8751L21.4766 20.292L22.0967 20.3032C22.177 20.3045 22.2129 20.2031 22.1495 20.1537L21.6602 19.7727L21.8622 19.1862C21.8884 19.1103 21.8029 19.0447 21.7364 19.0897L21.2228 19.4373L20.7277 19.064C20.6635 19.0156 20.5747 19.0767 20.5971 19.1538Z"
            fill="#73AF00" />
        <path
            d="M28.3948 30.485L28.5667 31.0809L28.0585 31.4364C27.9926 31.4824 28.0233 31.5857 28.1036 31.5883L28.7234 31.609L28.9046 32.2022C28.9281 32.279 29.0357 32.2817 29.063 32.2063L29.2743 31.6232L29.8944 31.6343C29.9747 31.6357 30.0106 31.5342 29.9472 31.4849L29.4579 31.1039L29.66 30.5175C29.6862 30.4416 29.6006 30.376 29.5341 30.421L29.0206 30.7687L28.5255 30.3954C28.4614 30.3468 28.3726 30.408 28.3948 30.485Z"
            fill="#73AF00" />
        <path
            d="M17.6821 23.1026L18.1772 23.476L17.9842 24.0654C17.9592 24.1417 18.0457 24.206 18.1116 24.16L18.6198 23.8044L19.1207 24.17C19.1856 24.2173 19.2735 24.155 19.2499 24.0781L19.0688 23.4851L19.5713 23.1217C19.6364 23.0746 19.604 22.9718 19.5238 22.9704L18.9037 22.9594L18.7133 22.369C18.6886 22.2927 18.581 22.2916 18.5548 22.3674L18.3528 22.9537L17.7327 22.9523C17.6523 22.9521 17.618 23.0542 17.6821 23.1026Z"
            fill="#73AF00" />
        <path
            d="M30.7207 27.4836L31.2158 27.857L31.0228 28.4464C30.9978 28.5227 31.0843 28.5869 31.1502 28.5409L31.6584 28.1854L32.1593 28.551C32.2242 28.5983 32.3121 28.5359 32.2885 28.4591L32.1074 27.866L32.6099 27.5027C32.675 27.4556 32.6426 27.3528 32.5624 27.3514L31.9422 27.3404L31.7519 26.75C31.7272 26.6737 31.6196 26.6726 31.5934 26.7484L31.3914 27.3347L30.7713 27.3333C30.691 27.3331 30.6566 27.4353 30.7207 27.4836Z"
            fill="#73AF00" />
        <path
            d="M29.6963 19.1538L29.5244 19.7497L30.0326 20.1051C30.0984 20.1511 30.0678 20.2544 29.9875 20.2571L29.3677 20.2778L29.1865 20.8709C29.163 20.9478 29.0554 20.9504 29.028 20.875L28.8168 20.2919L28.1967 20.3031C28.1164 20.3044 28.0805 20.203 28.1439 20.1537L28.6332 19.7726L28.4311 19.1863C28.4049 19.1104 28.4904 19.0448 28.5569 19.0898L29.0705 19.4375L29.5656 19.0641C29.6298 19.0155 29.7186 19.0766 29.6963 19.1538Z"
            fill="#73AF00" />
        <path
            d="M21.8987 30.485L21.7268 31.0809L22.235 31.4364C22.3009 31.4824 22.2702 31.5857 22.1899 31.5883L21.5701 31.609L21.3889 32.2022C21.3654 32.279 21.2578 32.2817 21.2304 32.2063L21.0192 31.6232L20.3991 31.6343C20.3188 31.6357 20.2829 31.5342 20.3463 31.4849L20.8356 31.1039L20.6335 30.5175C20.6073 30.4416 20.6928 30.376 20.7594 30.421L21.2729 30.7687L21.768 30.3954C21.8322 30.3468 21.921 30.408 21.8987 30.485Z"
            fill="#73AF00" />
        <path
            d="M32.6113 23.1026L32.1161 23.476L32.3091 24.0654C32.3341 24.1417 32.2476 24.206 32.1818 24.16L31.6736 23.8044L31.1726 24.17C31.1078 24.2173 31.0199 24.155 31.0434 24.0781L31.2245 23.4851L30.722 23.1217C30.657 23.0746 30.6893 22.9718 30.7696 22.9704L31.3897 22.9594L31.58 22.369C31.6047 22.2927 31.7123 22.2916 31.7385 22.3674L31.9406 22.9537L32.5607 22.9523C32.6411 22.9521 32.6754 23.0542 32.6113 23.1026Z"
            fill="#73AF00" />
        <path
            d="M19.5726 27.4836L19.0775 27.857L19.2705 28.4464C19.2955 28.5227 19.209 28.5869 19.1432 28.5409L18.635 28.1854L18.134 28.551C18.0691 28.5983 17.9812 28.5359 18.0048 28.4591L18.1859 27.866L17.6834 27.5027C17.6184 27.4556 17.6507 27.3528 17.7309 27.3514L18.3511 27.3404L18.5414 26.75C18.5661 26.6737 18.6737 26.6726 18.6999 26.7484L18.9019 27.3347L19.5221 27.3333C19.6025 27.3331 19.6368 27.4353 19.5726 27.4836Z"
            fill="#73AF00" />
    </g>
    <defs>
        <clipPath id="clip0_9_3819">
            <rect width="50" height="50" fill="white" transform="translate(0.310547 0.444092)" />
        </clipPath>
    </defs>
</svg>
