<svg width="50" height="51" viewBox="0 0 50 51" fill="none" xmlns="http://www.w3.org/2000/svg">
<g clip-path="url(#clip0_9_3756)">
<path d="M49.1378 41.9819H0.862108C0.386034 41.9819 0 41.5959 0 41.1198V10.0854C0 9.6093 0.386034 9.22327 0.862108 9.22327H49.1379C49.614 9.22327 50 9.6093 50 10.0854V41.1198C49.9999 41.596 49.6139 41.9819 49.1378 41.9819Z" fill="#F5F5F5"/>
<path d="M20.6896 22.1544H0.862108C0.386034 22.1544 0 21.7684 0 21.2923V10.0854C0 9.6093 0.386034 9.22327 0.862108 9.22327H20.6896C21.1657 9.22327 21.5517 9.6093 21.5517 10.0854V21.2923C21.5517 21.7684 21.1657 22.1544 20.6896 22.1544Z" fill="#41479B"/>
<path d="M49.1377 41.9819H29.3102C28.8341 41.9819 28.4481 41.5959 28.4481 41.1198V29.913C28.4481 29.4369 28.8341 29.0509 29.3102 29.0509H49.1377C49.6137 29.0509 49.9998 29.4369 49.9998 29.913V41.1199C49.9998 41.596 49.6137 41.9819 49.1377 41.9819Z" fill="#41479B"/>
<path d="M49.1377 22.1544H29.3102C28.8341 22.1544 28.4481 21.7684 28.4481 21.2923V10.0854C28.4481 9.6093 28.8341 9.22327 29.3102 9.22327H49.1377C49.6137 9.22327 49.9998 9.6093 49.9998 10.0854V21.2923C49.9998 21.7684 49.6137 22.1544 49.1377 22.1544Z" fill="#FF4B55"/>
<path d="M20.6896 41.9819H0.862108C0.386034 41.9819 0 41.5959 0 41.1198V29.913C0 29.4369 0.386034 29.0509 0.862108 29.0509H20.6896C21.1657 29.0509 21.5517 29.4369 21.5517 29.913V41.1199C21.5517 41.596 21.1657 41.9819 20.6896 41.9819Z" fill="#FF4B55"/>
<path d="M24.5057 28.0607C24.5057 28.0607 25.0208 28.2493 24.9536 28.8959L25.1618 28.892C25.1618 28.892 25.0304 28.1448 24.9218 28.0553C24.8133 27.9657 24.5057 28.0607 24.5057 28.0607Z" fill="#64B496"/>
<path d="M25.0214 27.9609C24.8029 27.9609 24.4211 27.9606 24.0195 27.8522C24.109 27.759 24.2328 27.5714 24.2328 27.2441C24.2328 26.7316 23.8797 27.0586 23.8797 27.0586C23.8797 27.0586 23.6474 27.254 23.7879 27.7763C23.6509 27.7241 23.5151 27.6567 23.3856 27.5704C23.4662 27.4692 23.6269 27.2335 23.7203 26.8596C23.7203 26.8596 23.1318 26.7433 22.9709 27.1865C22.8722 27.0614 22.7879 26.9207 22.7175 26.7649C22.8687 26.7668 23.0798 26.667 23.0798 26.091C23.0798 26.091 22.6955 26.0917 22.5928 26.425C22.5524 26.2856 22.5217 26.1363 22.499 25.9785C22.6524 26.023 23.0491 26.055 23.0491 25.1941C23.0491 25.1941 22.5728 25.195 22.4626 25.6169C22.4565 25.509 22.4542 25.3974 22.4552 25.2824C22.6865 25.1615 23.0056 24.8952 22.9725 24.3488C22.9725 24.3488 22.7529 24.3986 22.5515 24.5675C22.5912 24.3603 22.5748 24.0571 22.2571 23.8041C22.2571 23.8041 21.9652 24.3207 22.3916 24.7401C22.3545 24.7923 22.3221 24.8516 22.2955 24.9176C22.1997 24.7717 22.0461 24.636 21.7986 24.5536C21.7986 24.5536 21.6847 25.2455 22.3307 25.5349C22.3461 25.939 22.4092 26.2961 22.5178 26.6065C22.3328 26.4435 22.1831 26.2191 22.1831 26.2191C22.1831 25.4504 21.5529 25.4309 21.5529 25.4309C21.4352 26.3084 22.0841 26.3438 22.0841 26.3438L22.4393 26.7315C21.6706 26.6034 21.6706 27.244 21.6706 27.244C22.1831 27.3721 22.4393 27.1159 22.4393 27.1159L22.7165 27.2584C22.2249 27.2727 22.055 27.7565 22.055 27.7565C22.6728 27.8595 23.1246 27.7142 23.2782 27.6533C23.9005 28.0883 24.6674 28.0889 25.0215 28.0889V27.9609H25.0214Z" fill="#64B496"/>
<path d="M24.9781 27.961C25.1966 27.961 25.5784 27.9607 25.98 27.8523C25.8905 27.7592 25.7667 27.5715 25.7667 27.2442C25.7667 26.7317 26.1198 27.0587 26.1198 27.0587C26.1198 27.0587 26.3521 27.2541 26.2116 27.7765C26.3486 27.7242 26.4844 27.6568 26.6139 27.5705C26.5333 27.4693 26.3726 27.2336 26.2792 26.8598C26.2792 26.8598 26.8677 26.7435 27.0286 27.1866C27.1273 27.0615 27.2116 26.9208 27.2821 26.765C27.1308 26.7669 26.9197 26.6671 26.9197 26.0911C26.9197 26.0911 27.304 26.0918 27.4069 26.4251C27.4473 26.2857 27.478 26.1364 27.5007 25.9786C27.3473 26.0231 26.9506 26.0551 26.9506 25.1942C26.9506 25.1942 27.4269 25.1951 27.5371 25.617C27.5432 25.5091 27.5455 25.3976 27.5445 25.2825C27.3132 25.1616 26.9941 24.8953 27.0272 24.3489C27.0272 24.3489 27.2468 24.3987 27.4482 24.5676C27.4085 24.3604 27.4249 24.0572 27.7426 23.8042C27.7426 23.8042 28.0345 24.3208 27.6081 24.7402C27.6452 24.7924 27.6776 24.8518 27.7042 24.9177C27.8 24.7718 27.9536 24.6361 28.2011 24.5537C28.2011 24.5537 28.315 25.2456 27.669 25.5351C27.6536 25.9392 27.5904 26.2962 27.4819 26.6066C27.6669 26.4436 27.8166 26.2192 27.8166 26.2192C27.8166 25.4505 28.4468 25.4311 28.4468 25.4311C28.5645 26.3085 27.9156 26.3439 27.9156 26.3439L27.5604 26.7316C28.3291 26.6035 28.3291 27.2441 28.3291 27.2441C27.8166 27.3723 27.5604 27.116 27.5604 27.116L27.2832 27.2585C27.7748 27.2728 27.9447 27.7566 27.9447 27.7566C27.3269 27.8597 26.8751 27.7143 26.7215 27.6534C26.0992 28.0885 25.3323 28.0891 24.9781 28.0891V27.961Z" fill="#64B496"/>
<path d="M22.8382 22.3756C22.3876 22.6644 21.9904 23.0321 21.6704 23.4661C21.8079 23.5675 21.9454 23.669 22.0829 23.7703C22.3653 23.3872 22.7158 23.0628 23.1133 22.8078L22.8382 22.3756Z" fill="#41479B"/>
<path d="M25.0014 25.7068H26.795V26.7318C26.795 27.0149 26.5656 27.2443 26.2825 27.2443H25.5138C25.3032 27.2443 25.1181 27.3472 25.0013 27.5041L25.0014 25.7068Z" fill="#FF6B71"/>
<path d="M25.3856 24.5537V23.1443H27.3074L26.7949 23.6568V25.0662H25.3856V24.5537Z" fill="#5F64B9"/>
<path d="M26.7949 25.0656H26.1543V25.7062H26.7949V25.0656Z" fill="#F5F5F5"/>
<path d="M25.0015 25.7068H23.2078V26.7318C23.2078 27.0149 23.4372 27.2443 23.7203 27.2443H24.4891C24.6996 27.2443 24.8848 27.3472 25.0016 27.5041L25.0015 25.7068Z" fill="#FF6B71"/>
<path d="M24.6812 27.2751C24.809 27.3159 24.9194 27.3955 24.9986 27.5004H25.0046C25.0838 27.3954 25.1941 27.316 25.3219 27.2751V26.2191H24.6813L24.6812 27.2751Z" fill="#F5F5F5"/>
<path d="M24.6171 24.5537V23.1443H22.6952L23.2077 23.6568V25.0662H24.6171V24.5537Z" fill="#5F64B9"/>
<path d="M23.8486 25.0656H23.208V25.7062H23.8486V25.0656Z" fill="#F5F5F5"/>
<path d="M23.8482 23.7849V24.1693L24.2336 24.4255V24.1693L23.8482 23.7849Z" fill="#41479B"/>
<path d="M24.2328 24.1692V24.5536L24.7453 24.8098V24.6817L24.2328 24.1692Z" fill="#F5F5F5"/>
<path d="M26.1553 23.7849V24.1693L25.77 24.4255V24.1693L26.1553 23.7849Z" fill="#41479B"/>
<path d="M25.7701 24.1692V24.5536L25.2576 24.8098V24.6817L25.7701 24.1692Z" fill="#F5F5F5"/>
<path d="M25.7747 26.6035H24.2289C23.8775 26.6035 23.5927 26.3167 23.5927 25.9629V23.9813L25.0111 24.9379L26.4108 23.9813V25.9629C26.4108 26.3168 26.126 26.6035 25.7747 26.6035Z" fill="#FF4B55"/>
<path d="M24.1046 24.2975L23.5921 23.9131V25.3225L24.1046 25.5787V24.2975Z" fill="#41479B"/>
<path d="M25.8977 24.2972L26.4102 23.9128V25.3222L25.8977 25.5785V24.2972Z" fill="#41479B"/>
<path d="M25.7695 25.5791H24.232V26.2197H25.7695V25.5791Z" fill="#41479B"/>
<path d="M24.2328 24.4255L25.0014 24.8099L25.7702 24.4255V25.5787H24.2328V24.4255Z" fill="#FF4B55"/>
<path d="M25.578 24.5465V25.8348C25.578 25.9407 25.4918 26.0268 25.3859 26.0268H24.6172C24.5112 26.0268 24.4251 25.9406 24.4251 25.8348V24.5518L24.0407 24.2943V25.8348C24.0407 26.1526 24.2993 26.4112 24.6172 26.4112H25.3859C25.7038 26.4112 25.9624 26.1526 25.9624 25.8348V24.2856L25.578 24.5465Z" fill="#F5F5F5"/>
<path d="M25.7122 25.4414C25.4964 25.4608 25.2535 25.4826 25.0014 25.5703C24.7495 25.4826 24.5065 25.4608 24.2907 25.4414C23.9296 25.409 23.7153 25.3774 23.5927 25.1596V25.5294C23.781 25.6519 24.0196 25.6743 24.2677 25.6967C24.4905 25.7167 24.7208 25.7373 24.9561 25.8265L25.0015 25.8436L25.0469 25.8265C25.2822 25.7373 25.5125 25.7168 25.7353 25.6967C25.9837 25.6744 26.2226 25.6522 26.411 25.5296V25.1587C26.2882 25.3774 26.0738 25.409 25.7122 25.4414Z" fill="#F5F5F5"/>
<path d="M25.2576 24.2333H25.0655V24.0411H24.9374V24.2333H24.7452V24.3614H24.9374V24.938H25.0655V24.3614H25.2576V24.2333Z" fill="#FFE15A"/>
<path d="M23.8086 23.652L23.7383 23.7223L24.8641 24.8481L24.9344 24.7778L23.8086 23.652Z" fill="#464655"/>
<path d="M23.5623 23.4757L23.7033 23.7572L23.8444 23.6164L23.5623 23.4757Z" fill="#FFE15A"/>
<path d="M24.0672 23.4695L23.9868 23.5281L24.9243 24.8151L25.0047 24.7565L24.0672 23.4695Z" fill="#464655"/>
<path d="M23.8502 23.2572L23.9459 23.5571L24.1071 23.4399L23.8502 23.2572Z" fill="#FFE15A"/>
<path d="M23.5851 23.887L23.5281 23.9685L24.8336 24.88L24.8905 24.7985L23.5851 23.887Z" fill="#464655"/>
<path d="M23.3115 23.7577L23.4997 24.0101L23.614 23.847L23.3115 23.7577Z" fill="#FFE15A"/>
<path d="M25.068 24.777L25.1383 24.8473L26.2641 23.7215L26.1938 23.6512L25.068 24.777Z" fill="#464655"/>
<path d="M26.4405 23.4757L26.2994 23.7572L26.1583 23.6164L26.4405 23.4757Z" fill="#FFE15A"/>
<path d="M24.9984 24.7555L25.0788 24.8141L26.0163 23.527L25.9359 23.4685L24.9984 24.7555Z" fill="#464655"/>
<path d="M26.1526 23.2572L26.0569 23.5571L25.8958 23.4399L26.1526 23.2572Z" fill="#FFE15A"/>
<path d="M25.1136 24.8L25.1705 24.8815L26.4759 23.9699L26.419 23.8884L25.1136 24.8Z" fill="#464655"/>
<path d="M26.6916 23.7577L26.5033 24.0101L26.389 23.847L26.6916 23.7577Z" fill="#FFE15A"/>
<path d="M24.9365 27.2077C24.9365 27.2077 24.441 26.6756 24.5372 26.1871C24.6144 25.7942 24.8489 25.3611 25.0324 25.2557C25.0324 25.2557 25.2919 25.2397 25.2268 25.4651C25.1618 25.6905 25.0825 25.7486 25.1057 25.9708C25.1457 26.3553 25.2077 26.811 24.9365 27.2077Z" fill="#F5F5F5"/>
<path d="M25.0866 25.2586C25.0556 25.2545 25.0321 25.2558 25.0321 25.2558C24.8486 25.3612 24.6141 25.7943 24.5369 26.1872C24.4931 26.4093 24.5721 26.6401 24.671 26.8261C24.6084 26.0207 24.8435 25.7349 25.0866 25.2586Z" fill="#41479B"/>
<path d="M25.106 25.971C25.0828 25.7488 25.1622 25.6907 25.2274 25.4653C25.2731 25.3076 25.1595 25.2681 25.0872 25.2587C25.0872 25.2587 24.9213 25.6387 24.9107 25.8937C24.9013 26.118 24.9588 27.0308 24.9365 27.208C25.2084 26.811 25.1462 26.3553 25.106 25.971Z" fill="#FF4B55"/>
<path d="M24.7693 25.4487C24.8726 25.348 25.0177 25.303 25.1599 25.3274C25.0925 25.1105 25.0251 24.8936 24.9577 24.6766C24.8157 24.6523 24.6705 24.6973 24.5672 24.7979C24.6345 25.0149 24.702 25.2318 24.7693 25.4487Z" fill="#F5F0F0"/>
<path d="M25.16 25.3274C25.2632 25.2267 25.4083 25.1817 25.5505 25.2061C25.4831 24.9892 25.4157 24.7723 25.3484 24.5553C25.2064 24.531 25.0611 24.576 24.9578 24.6766C25.0251 24.8935 25.0925 25.1104 25.16 25.3274Z" fill="#F5F5F5"/>
<path d="M24.4161 22.5122C23.7206 22.4962 23.0337 22.6672 22.4269 23.0073C22.3434 22.8583 22.2598 22.7093 22.1762 22.5604C22.863 22.1752 23.6407 21.9817 24.428 21.9998C24.424 22.1706 24.42 22.3414 24.4161 22.5122Z" fill="#5F64B9"/>
<path d="M27.1647 22.3756C27.6153 22.6644 28.0124 23.0321 28.3325 23.4661C28.195 23.5675 28.0575 23.669 27.92 23.7703C27.6375 23.3872 27.287 23.0628 26.8896 22.8078L27.1647 22.3756Z" fill="#41479B"/>
<path d="M25.5867 22.5122C26.2822 22.4962 26.9691 22.6672 27.576 23.0073C27.6595 22.8583 27.7431 22.7093 27.8266 22.5604C27.1398 22.1752 26.3622 21.9817 25.5749 21.9998C25.5789 22.1706 25.5829 22.3414 25.5867 22.5122Z" fill="#5F64B9"/>
<path d="M26.0263 22.3756C25.3553 22.192 24.6473 22.192 23.9764 22.3756C23.9314 22.2108 23.8862 22.0461 23.8412 21.8812C24.6007 21.6735 25.402 21.6735 26.1616 21.8812C26.1166 22.046 26.0715 22.2107 26.0263 22.3756Z" fill="#41479B"/>
<path d="M23.2843 28.118C22.7313 28.2625 22.1907 28.4573 21.6702 28.7025C21.743 28.857 21.8159 29.0116 21.8886 29.1661C22.3909 28.9294 22.9129 28.7426 23.4472 28.6053L23.2843 28.118Z" fill="#FF6B71"/>
<path d="M26.7181 28.1182C27.2712 28.2626 27.8118 28.4574 28.3323 28.7026C28.2594 28.8571 28.1866 29.0117 28.1138 29.1662C27.6116 28.9295 27.0895 28.7427 26.5552 28.6055L26.7181 28.1182Z" fill="#FF6B71"/>
<path d="M27.0624 28.5143C25.7148 28.1908 24.31 28.1908 22.9625 28.5143C22.9226 28.3481 22.8827 28.1821 22.8428 28.0161C24.2689 27.6737 25.7559 27.6737 27.182 28.0161C27.1422 28.1821 27.1023 28.3483 27.0624 28.5143Z" fill="#FF4B55"/>
<path d="M25.0022 28.6537L24.6489 28.7421C24.5681 28.7623 24.4897 28.7011 24.4897 28.6178V28.4336C24.4897 28.3503 24.5681 28.289 24.6489 28.3093L25.0022 28.3977V28.6537Z" fill="#FF4B55"/>
<path d="M25.0021 28.3974L25.3555 28.3091C25.4363 28.2889 25.5146 28.35 25.5146 28.4333V28.6176C25.5146 28.7009 25.4363 28.7621 25.3555 28.7418L25.0021 28.6534V28.3974Z" fill="#FF4B55"/>
<path d="M25.0292 28.6536H24.9741C24.9184 28.6536 24.8732 28.6085 24.8732 28.5529V28.4979C24.8732 28.4423 24.9183 28.3972 24.9741 28.3972H25.0292C25.0849 28.3972 25.1302 28.4422 25.1302 28.4979V28.5529C25.1301 28.6085 25.0849 28.6536 25.0292 28.6536Z" fill="#FF6B71"/>
</g>
<defs>
<clipPath id="clip0_9_3756">
<rect width="50" height="50" fill="white" transform="translate(0 0.602539)"/>
</clipPath>
</defs>
</svg>
