<svg width="51" height="51" viewBox="0 0 51 51" fill="none" xmlns="http://www.w3.org/2000/svg">
    <g clip-path="url(#clip0_9_3751)">
        <path
            d="M49.5647 9.22327H1.28899C0.812914 9.22327 0.42688 9.6092 0.42688 10.0853V41.1197C0.42688 41.5958 0.812914 41.9818 1.28899 41.9818H49.5648C50.0408 41.9818 50.4269 41.5958 50.4269 41.1197V10.0853C50.4268 9.6092 50.0407 9.22327 49.5647 9.22327Z"
            fill="#FF4B55" />
        <path
            d="M0.768188 41.7891L28.4896 26.1379C28.9064 25.9026 28.9064 25.3024 28.4896 25.0671L0.768188 9.41589C0.565551 9.57361 0.42688 9.80867 0.42688 10.0852V41.1196C0.42688 41.3963 0.565649 41.6314 0.768188 41.7891Z"
            fill="#FFE15A" />
        <path
            d="M0.694555 41.7396L19.5355 26.1956C19.9083 25.8881 19.9083 25.3171 19.5355 25.0095L0.694555 9.46545C0.530884 9.62249 0.42688 9.84065 0.42688 10.0853V41.1197C0.42688 41.3644 0.530884 41.5827 0.694555 41.7396Z"
            fill="#464655" />
        <path
            d="M5.81098 21.5542L5.8931 24.6569L2.98403 25.739C2.70502 25.8429 2.7187 26.242 3.00414 26.3264L5.98041 27.2071L6.11068 30.3082C6.12318 30.6056 6.50697 30.7159 6.67552 30.4706L8.43285 27.9121L11.4224 28.7465C11.709 28.8265 11.9326 28.4955 11.7514 28.2595L9.86107 25.7975L11.5784 23.2122C11.7431 22.9642 11.4975 22.6494 11.2169 22.7488L8.29154 23.7857L6.36342 21.3535C6.17836 21.1202 5.80307 21.2566 5.81098 21.5542Z"
            fill="#F5F5F5" />
    </g>
    <defs>
        <clipPath id="clip0_9_3751">
            <rect width="50" height="50" fill="white" transform="translate(0.427734 0.602539)" />
        </clipPath>
    </defs>
</svg>
