<svg width="51" height="51" viewBox="0 0 51 51" fill="none" xmlns="http://www.w3.org/2000/svg">
    <g clip-path="url(#clip0_9_3702)">
        <path
            d="M50.7208 33.7922H0.720886V41.1198C0.720886 41.5958 1.10692 41.9819 1.58299 41.9819H49.8588C50.3349 41.9819 50.7209 41.5958 50.7209 41.1198L50.7208 33.7922Z"
            fill="#FF4B55" />
        <path
            d="M50.7208 25.6026H0.720886V10.0854C0.720886 9.6093 1.10692 9.22327 1.58299 9.22327H49.8588C50.3349 9.22327 50.7209 9.6093 50.7209 10.0854L50.7208 25.6026Z"
            fill="#FFE15A" />
        <path d="M50.7208 25.6027H0.720886V33.7921H50.7208V25.6027Z" fill="#41479B" />
        <path
            d="M24.8211 26.0863L31.118 20.6891V28.5003C31.118 29.8168 30.0507 30.8839 28.7344 30.8839C28.1455 30.8839 27.5775 30.6659 27.1398 30.2721L24.8211 28.1854V26.0863Z"
            fill="#FFE15A" />
        <path
            d="M28.1429 29.1577L26.3206 27.5177V24.8014L29.6189 21.9742V23.9489V28.5004C29.6189 28.988 29.2222 29.3848 28.7346 29.3848C28.5157 29.3848 28.3056 29.3041 28.1429 29.1577Z"
            fill="#FF4B55" />
        <path
            d="M27.2201 24.0304V27.118L28.7193 28.4717V23.9302V22.7455L29.6189 21.9744V23.9491V28.5005C29.6189 28.9881 29.2222 29.3849 28.7346 29.3849C28.5157 29.3849 28.3056 29.3043 28.1429 29.1578L26.3206 27.5178V24.8015L27.2201 24.0304Z"
            fill="#41479B" />
        <path
            d="M26.6205 26.0863L20.3237 20.6891V28.5003C20.3237 29.8168 21.391 30.8839 22.7073 30.8839C23.2961 30.8839 23.8642 30.6659 24.3019 30.2721L26.6205 28.1854V26.0863Z"
            fill="#FFE15A" />
        <path
            d="M23.299 29.1577L25.1213 27.5177V24.8014L21.8229 21.9742V23.9489V28.5004C21.8229 28.988 22.2197 29.3848 22.7073 29.3848C22.9262 29.3848 23.1363 29.3041 23.299 29.1577Z"
            fill="#FF4B55" />
        <path
            d="M24.2205 24.0304V27.118L22.7213 28.4717V23.9302V22.7455L21.8217 21.9744V23.9491V28.5005C21.8217 28.9881 22.2185 29.3849 22.7061 29.3849C22.9249 29.3849 23.1351 29.3043 23.2978 29.1579L25.1201 27.5178V24.8015L24.2205 24.0304Z"
            fill="#41479B" />
        <path d="M31.3306 20.7159H30.8995V23.2988H31.3306V20.7159Z" fill="#41479B" />
        <path d="M20.5376 20.7159H20.1065V23.2988H20.5376V20.7159Z" fill="#41479B" />
        <path
            d="M24.8212 19.4897C24.8212 19.4897 25.4209 16.6411 23.322 17.0159C21.223 17.3907 21.223 17.9903 18.8242 19.1898C18.8242 19.1898 21.5228 19.7895 22.7223 19.4897C22.7223 19.4897 23.6219 20.6891 24.5214 20.989H25.421L24.8212 19.4897Z"
            fill="#5A4646" />
        <path
            d="M26.6206 19.4897C26.6206 19.4897 26.0208 16.6411 28.1198 17.0159C30.2187 17.3907 30.2187 17.9903 32.6175 19.1898C32.6175 19.1898 29.9189 19.7895 28.7195 19.4897C28.7195 19.4897 27.8199 20.6891 26.9204 20.989H26.0208L26.6206 19.4897Z"
            fill="#5A4646" />
        <path
            d="M26.6204 20.9889H24.8213V19.4786C24.8213 18.9878 25.219 18.5901 25.7098 18.5901H25.7319C26.2227 18.5901 26.6204 18.9878 26.6204 19.4786V20.9889Z"
            fill="#5A4646" />
        <path
            d="M25.7208 20.0891C26.052 20.0891 26.3205 19.8206 26.3205 19.4894C26.3205 19.1581 26.052 18.8896 25.7208 18.8896C25.3896 18.8896 25.1211 19.1581 25.1211 19.4894C25.1211 19.8206 25.3896 20.0891 25.7208 20.0891Z"
            fill="#E6E1CD" />
        <path
            d="M24.434 19.1025L25.5616 19.7047C25.6562 19.7552 25.7727 19.7379 25.8484 19.662C25.9435 19.5669 25.9435 19.4128 25.8484 19.3176L25.121 18.5902H24.9461C24.6633 18.5902 24.434 18.8195 24.434 19.1025Z"
            fill="#FFD0AF" />
        <path
            d="M24.8251 19.1898H23.9219L24.3171 18.7271C24.3913 18.6403 24.4998 18.5902 24.6142 18.5902H25.1212V18.8937C25.1212 19.0572 24.9886 19.1898 24.8251 19.1898Z"
            fill="#FFAF94" />
        <path
            d="M28.278 20.9899C28.0757 20.7499 28.0325 20.4316 28.1311 20.1558C28.4196 20.1054 28.726 20.2018 28.9282 20.442C29.1011 20.6472 29.1511 20.9081 29.1024 21.1522C29.1624 21.254 29.2356 21.3848 29.3162 21.5393C29.3202 21.5173 29.3193 21.4956 29.3256 21.4736C29.3963 21.2249 29.5934 21.049 29.827 20.9894C29.9943 21.163 30.0695 21.4165 29.9988 21.665C29.9381 21.8789 29.7812 22.0338 29.5906 22.1123C29.6659 22.2851 29.7404 22.4714 29.81 22.668C29.814 22.6565 29.8143 22.6448 29.819 22.6333C29.9167 22.394 30.1321 22.2409 30.3708 22.2074C30.5178 22.3983 30.5647 22.6584 30.4672 22.8978C30.3817 23.1072 30.2045 23.2453 30.0019 23.3002C30.1062 23.7117 30.1753 24.1482 30.1753 24.5876H29.8754C29.8754 24.2046 29.8166 23.821 29.7278 23.454C29.5428 23.5138 29.336 23.501 29.157 23.3914C28.9386 23.2577 28.8234 23.0225 28.8288 22.7837C29.0391 22.6705 29.301 22.6663 29.5193 22.8001C29.5272 22.8049 29.5325 22.812 29.5401 22.817C29.4759 22.6325 29.4075 22.4574 29.3373 22.2931C29.1573 22.3782 28.9455 22.3913 28.7511 22.3C28.5193 22.1911 28.379 21.9701 28.358 21.7322C28.5539 21.5968 28.8128 21.5641 29.0438 21.6716C28.9613 21.5129 28.8868 21.38 28.8284 21.2808C28.6219 21.257 28.4229 21.1619 28.278 20.9899Z"
            fill="#8CB400" />
        <path
            d="M23.1636 20.9899C23.3659 20.7499 23.4091 20.4316 23.3104 20.1558C23.022 20.1054 22.7156 20.2018 22.5134 20.442C22.3405 20.6472 22.2904 20.9081 22.3391 21.1522C22.2792 21.254 22.2059 21.3848 22.1254 21.5393C22.1214 21.5173 22.1223 21.4956 22.116 21.4736C22.0453 21.225 21.8481 21.049 21.6145 20.9894C21.4473 21.163 21.3721 21.4165 21.4428 21.665C21.5035 21.8789 21.6603 22.0338 21.851 22.1124C21.7757 22.2851 21.7012 22.4714 21.6315 22.668C21.6275 22.6565 21.6272 22.6448 21.6225 22.6333C21.5249 22.394 21.3095 22.2409 21.0708 22.2074C20.9237 22.3983 20.8768 22.6584 20.9745 22.8978C21.06 23.1072 21.2372 23.2453 21.4397 23.3002C21.3354 23.7117 21.2664 24.1482 21.2664 24.5876H21.5663C21.5663 24.2046 21.6251 23.821 21.7139 23.454C21.8989 23.5138 22.1057 23.501 22.2847 23.3914C22.5031 23.2577 22.6183 23.0225 22.6129 22.7837C22.4025 22.6705 22.1407 22.6663 21.9224 22.8001C21.9144 22.8049 21.9092 22.812 21.9016 22.817C21.9658 22.6325 22.0342 22.4574 22.1044 22.2931C22.2844 22.3782 22.4962 22.3913 22.6905 22.3C22.9224 22.1911 23.0627 21.9701 23.0837 21.7322C22.8878 21.5968 22.6289 21.5641 22.3978 21.6716C22.4804 21.5129 22.5549 21.38 22.6133 21.2808C22.8197 21.257 23.0186 21.1619 23.1636 20.9899Z"
            fill="#8CB400" />
        <path
            d="M25.7208 27.5856L19.424 22.1884V29.9996C19.424 31.3161 20.4912 32.3832 21.8075 32.3832C22.3964 32.3832 22.9645 32.1652 23.4022 31.7713L25.7208 29.6846V27.5856Z"
            fill="#FFE15A" />
        <path
            d="M22.3992 30.6569L24.2215 29.0168V26.3005L20.9232 23.4734V25.4481V29.9995C20.9232 30.4871 21.3199 30.8839 21.8075 30.8839C22.0265 30.8839 22.2365 30.8034 22.3992 30.6569Z"
            fill="#FF4B55" />
        <path
            d="M23.322 25.5296V28.6172L21.8228 29.9709V25.4294V24.2446L20.9232 23.4735V25.4482V29.9997C20.9232 30.4873 21.3199 30.884 21.8075 30.884C22.0264 30.884 22.2365 30.8035 22.3992 30.657L24.2215 29.017V26.3007L23.322 25.5296Z"
            fill="#41479B" />
        <path
            d="M25.7208 27.5856L32.0177 22.1884V29.9996C32.0177 31.3161 30.9504 32.3832 29.6341 32.3832C29.0452 32.3832 28.4772 32.1652 28.0395 31.7713L25.7208 29.6846V27.5856Z"
            fill="#FFE15A" />
        <path
            d="M29.0424 30.6569L27.2201 29.0168V26.3005L30.5184 23.4734V25.4481V29.9995C30.5184 30.4871 30.1217 30.8839 29.6341 30.8839C29.415 30.8839 29.2051 30.8034 29.0424 30.6569Z"
            fill="#FF4B55" />
        <path
            d="M28.1196 25.5296V28.6172L29.6188 29.9709V25.4294V24.2446L30.5184 23.4735V25.4482V29.9997C30.5184 30.4873 30.1217 30.884 29.6341 30.884C29.4152 30.884 29.2051 30.8035 29.0424 30.657L27.2201 29.017V26.3007L28.1196 25.5296Z"
            fill="#41479B" />
        <path
            d="M25.7209 29.9845C27.377 29.9845 28.7195 27.9706 28.7195 25.4864C28.7195 23.0022 27.377 20.9884 25.7209 20.9884C24.0649 20.9884 22.7224 23.0022 22.7224 25.4864C22.7224 27.9706 24.0649 29.9845 25.7209 29.9845Z"
            fill="#69C3FF" />
        <path
            d="M23.0222 26.6862H28.4194L28.7193 25.4869L27.3528 25.7147C27.0787 25.7604 26.7983 25.6823 26.5873 25.5014L25.0361 24.1719C24.8975 24.053 24.7209 23.9877 24.5384 23.9877C24.3355 23.9877 24.1409 24.0682 23.9975 24.2117L23.0222 25.1871V26.6862Z"
            fill="#009B64" />
        <path
            d="M25.4365 25.2853L25.9515 24.9562L25.0361 24.1716C24.8975 24.0528 24.7209 23.9874 24.5384 23.9874C24.3355 23.9874 24.1409 24.068 23.9975 24.2115L23.0222 25.1868V25.4867L24.5214 25.1868L24.7864 25.3194C24.9942 25.4233 25.241 25.4102 25.4365 25.2853Z"
            fill="#F5F5F5" />
        <path
            d="M23.0222 26.6862L23.322 28.4852L24.8212 29.9845H25.7208L26.9201 29.6847L28.1196 28.4852L28.4194 26.6862H23.0222Z"
            fill="#5AA0E6" />
        <path
            d="M25.7207 30.2843C23.902 30.2843 22.4224 28.132 22.4224 25.4866C22.4224 22.8412 23.902 20.689 25.7207 20.689C27.5394 20.689 29.019 22.8412 29.019 25.4866C29.019 28.132 27.5394 30.2843 25.7207 30.2843ZM25.7207 21.2889C24.2328 21.2889 23.0221 23.1721 23.0221 25.4868C23.0221 27.8016 24.2327 29.6848 25.7207 29.6848C27.2087 29.6848 28.4193 27.8016 28.4193 25.4868C28.4193 23.1721 27.2086 21.2889 25.7207 21.2889Z"
            fill="#FFC88C" />
        <path
            d="M23.6054 29.9575C23.354 29.6104 22.9798 29.3848 22.556 29.3848C22.1322 29.3848 21.758 29.6104 21.5066 29.9575C21.9353 30.0764 22.2861 30.4244 22.4522 30.8832C22.5191 31.068 22.5561 31.2707 22.5561 31.4838C22.556 30.742 23.0041 30.1242 23.6054 29.9575Z"
            fill="#E1E1E1" />
        <path
            d="M22.7945 30.9035C22.7945 30.9035 22.7711 31.3033 22.5661 31.4907L22.5575 31.4837C22.3525 31.2963 22.329 30.8965 22.329 30.8965L22.7945 30.9035Z"
            fill="#E1E1E1" />
        <path
            d="M29.471 31.0339H21.971C21.8891 31.0339 21.8229 30.9676 21.8229 30.8859V30.8822C21.8229 30.8003 21.8892 30.7341 21.971 30.7341H29.471C29.5528 30.7341 29.619 30.8004 29.619 30.8822V30.8859C29.619 30.9676 29.5528 31.0339 29.471 31.0339Z"
            fill="#966446" />
        <path
            d="M27.2275 31.4837H24.2143C23.8871 31.4837 23.6219 31.2185 23.6219 30.8913V30.8766C23.6219 30.5494 23.8871 30.2842 24.2143 30.2842H27.2275C27.5547 30.2842 27.8199 30.5494 27.8199 30.8766V30.8913C27.8198 31.2185 27.5546 31.4837 27.2275 31.4837Z"
            fill="#BE915A" />
        <path
            d="M23.0223 30.7341H21.9728C21.8901 30.7341 21.8229 30.8012 21.8229 30.884C21.8229 30.9668 21.89 31.0339 21.9728 31.0339H23.0223V30.7341Z"
            fill="#B9B9B9" />
        <path d="M25.7209 31.4836V34.2233L24.5216 33.8825L25.1212 31.4836H25.7209Z"
            fill="#FF4B55" />
        <path d="M25.4209 31.4836L24.8212 33.5827L23.6219 33.2828L24.5215 31.4836H25.4209Z"
            fill="#41479B" />
        <path d="M24.2215 31.4836L23.3219 32.6831L24.2215 32.9829L24.8211 31.4836H24.2215Z"
            fill="#FFE15A" />
        <path d="M25.7208 31.4836V34.2233L26.9201 33.8825L26.3205 31.4836H25.7208Z"
            fill="#FF4B55" />
        <path d="M26.0209 31.4836L26.6206 33.5827L27.8199 33.2828L26.9203 31.4836H26.0209Z"
            fill="#41479B" />
        <path d="M27.22 31.4836L28.1196 32.6831L27.22 32.9829L26.6204 31.4836H27.22Z"
            fill="#FFE15A" />
        <path d="M19.6396 24.7708L19.2086 24.3364V22.1881H19.6396V24.7708Z" fill="#41479B" />
        <path d="M32.2301 24.3366L31.799 24.7709V22.1882H32.2301V24.3366Z" fill="#41479B" />
    </g>
    <defs>
        <clipPath id="clip0_9_3702">
            <rect width="50" height="50" fill="white" transform="translate(0.720703 0.602539)" />
        </clipPath>
    </defs>
</svg>
