<svg width="51" height="51" viewBox="0 0 51 51" fill="none" xmlns="http://www.w3.org/2000/svg">
    <g clip-path="url(#clip0_9_3621)">
        <path
            d="M50.4423 20.1429H0.442444V10.0854C0.442444 9.6093 0.828478 9.22327 1.30455 9.22327H49.5803C50.0564 9.22327 50.4424 9.6093 50.4424 10.0854L50.4423 20.1429Z"
            fill="#41479B" />
        <path
            d="M49.5799 41.9819H1.30425C0.828173 41.9819 0.442139 41.5959 0.442139 41.1198V31.0624H50.442V41.1198C50.442 41.596 50.056 41.9819 49.5799 41.9819Z"
            fill="#41479B" />
        <path d="M50.4417 20.1427H0.441772V31.0616H50.4417V20.1427Z" fill="#F5F5F5" />
        <path
            d="M25.4209 29.2709C23.3413 29.2709 21.6493 27.579 21.6493 25.4993C21.6493 24.611 21.9641 23.7483 22.536 23.0699L22.7008 23.2088C22.1616 23.8483 21.8647 24.6616 21.8647 25.4993C21.8647 27.46 23.4599 29.0554 25.4208 29.0554L25.4209 29.2709Z"
            fill="#50AF69" />
        <path
            d="M24.0412 28.1573C23.9942 28.2377 23.9708 28.3481 23.9607 28.4601C23.9181 28.4294 23.873 28.4009 23.824 28.377C23.824 28.377 23.7498 28.6381 23.8078 28.8261C23.8078 28.8261 23.6112 28.8504 23.4307 29.0315C23.4307 29.0315 23.4929 29.0754 23.5996 29.1212C23.4204 29.2611 23.3652 29.3993 23.3652 29.3993C24.4228 29.9281 24.9296 29.1905 24.9517 29.1574C24.6926 28.4183 24.0412 28.1573 24.0412 28.1573Z"
            fill="#50AF69" />
        <path
            d="M24.9518 29.1578C24.9525 29.1598 24.9533 29.1614 24.954 29.1634V29.1545C24.954 29.1545 24.9523 29.157 24.9518 29.1578Z"
            fill="#50AF69" />
        <path
            d="M23.0645 27.4525C22.9955 27.5031 22.9355 27.5876 22.8858 27.6783C22.8611 27.6369 22.8336 27.5964 22.8009 27.5583C22.8009 27.5583 22.6428 27.7512 22.623 27.931C22.623 27.931 22.4484 27.8798 22.2302 27.9664C22.2302 27.9664 22.2665 28.0261 22.3397 28.1039C22.1376 28.1562 22.0404 28.2526 22.0404 28.2526C22.7385 29.0851 23.4356 28.6486 23.4663 28.6288C23.5184 27.9105 23.0645 27.4525 23.0645 27.4525Z"
            fill="#50AF69" />
        <path
            d="M23.4662 28.6287C23.4661 28.6306 23.4662 28.6322 23.466 28.6342L23.4693 28.6267C23.4693 28.6267 23.467 28.6281 23.4662 28.6287Z"
            fill="#50AF69" />
        <path
            d="M22.4591 26.5308C22.3837 26.5468 22.303 26.594 22.2287 26.65C22.2237 26.6068 22.2161 26.5634 22.2034 26.5199C22.2034 26.5199 22.0021 26.6199 21.9192 26.7602C21.9192 26.7602 21.7948 26.6533 21.5835 26.6436C21.5835 26.6436 21.5911 26.7062 21.6226 26.7971C21.4372 26.7652 21.3217 26.8084 21.3217 26.8084C21.5866 27.7509 22.3209 27.6507 22.3536 27.6457C22.662 27.0754 22.4591 26.5308 22.4591 26.5308Z"
            fill="#50AF69" />
        <path
            d="M22.3529 27.6459C22.3521 27.6473 22.3516 27.6489 22.3506 27.6504L22.3561 27.6454C22.3562 27.6455 22.3537 27.6458 22.3529 27.6459Z"
            fill="#50AF69" />
        <path
            d="M22.2186 25.4806C22.147 25.4852 22.0637 25.5165 21.9839 25.5562C21.9894 25.5181 21.9924 25.4795 21.9911 25.4403C21.9911 25.4403 21.787 25.5027 21.6802 25.6143C21.6802 25.6143 21.5927 25.5066 21.4046 25.4725C21.4046 25.4725 21.3972 25.5278 21.4046 25.6104C21.2451 25.5603 21.1311 25.5837 21.1311 25.5837C21.1534 26.4335 21.8373 26.4353 21.8677 26.4349C22.2764 25.9775 22.2186 25.4806 22.2186 25.4806Z"
            fill="#50AF69" />
        <path
            d="M21.8677 26.4351C21.8666 26.4363 21.8658 26.4375 21.8646 26.4387L21.8706 26.4351C21.8707 26.4351 21.8684 26.435 21.8677 26.4351Z"
            fill="#50AF69" />
        <path
            d="M22.2986 24.6108C22.2374 24.5962 22.1594 24.6008 22.0821 24.6136C22.0966 24.5831 22.1092 24.5514 22.118 24.5182C22.118 24.5182 21.9306 24.5178 21.8121 24.5838C21.8121 24.5838 21.7666 24.4707 21.6177 24.3936C21.6177 24.3936 21.5971 24.438 21.5819 24.5093C21.461 24.426 21.3594 24.4162 21.3594 24.4162C21.1582 25.1348 21.7313 25.3133 21.757 25.3208C22.2185 25.0426 22.2986 24.6108 22.2986 24.6108Z"
            fill="#50AF69" />
        <path
            d="M21.757 25.3207C21.7557 25.3215 21.7547 25.3222 21.7535 25.3229L21.7594 25.3215C21.7594 25.3215 21.7575 25.3208 21.757 25.3207Z"
            fill="#50AF69" />
        <path
            d="M21.8445 23.553C21.8445 23.553 21.6491 24.0648 21.9522 24.3612C21.9522 24.3612 22.3473 24.2445 22.5427 23.8337L22.3764 23.8022L22.2911 23.5463L22.0082 23.672L21.8445 23.553Z"
            fill="#50AF69" />
        <path
            d="M22.3947 22.7302C22.3947 22.7302 22.0886 23.1845 22.3166 23.5418C22.3166 23.5418 22.7279 23.5176 23.0112 23.1617L22.8564 23.0935L22.8313 22.8249L22.5273 22.8833L22.3947 22.7302Z"
            fill="#50AF69" />
        <path
            d="M25.4619 29.2709V29.0554C27.4226 29.0554 29.0179 27.46 29.0179 25.4993C29.0179 24.6617 28.721 23.8483 28.1819 23.2088L28.3466 23.0699C28.9185 23.7483 29.2333 24.611 29.2333 25.4993C29.2333 27.579 27.5414 29.2709 25.4619 29.2709Z"
            fill="#50AF69" />
        <path
            d="M26.8416 28.1573C26.8887 28.2377 26.912 28.3481 26.9222 28.4601C26.9648 28.4294 27.0099 28.4009 27.0589 28.377C27.0589 28.377 27.133 28.6381 27.075 28.8261C27.075 28.8261 27.2716 28.8504 27.4521 29.0315C27.4521 29.0315 27.3899 29.0754 27.2831 29.1212C27.4623 29.2611 27.5176 29.3993 27.5176 29.3993C26.46 29.9281 25.9532 29.1905 25.9311 29.1574C26.1903 28.4183 26.8416 28.1573 26.8416 28.1573Z"
            fill="#50AF69" />
        <path
            d="M25.931 29.1578C25.9303 29.1598 25.9295 29.1614 25.9288 29.1634V29.1545C25.9288 29.1545 25.9305 29.157 25.931 29.1578Z"
            fill="#50AF69" />
        <path
            d="M27.8182 27.4525C27.8873 27.5031 27.9472 27.5876 27.9969 27.6783C28.0216 27.6369 28.0491 27.5964 28.0818 27.5583C28.0818 27.5583 28.2398 27.7512 28.2596 27.931C28.2596 27.931 28.4343 27.8798 28.6525 27.9664C28.6525 27.9664 28.6162 28.0261 28.5429 28.1039C28.7451 28.1562 28.8423 28.2526 28.8423 28.2526C28.1441 29.0851 27.4471 28.6486 27.4164 28.6288C27.3643 27.9105 27.8182 27.4525 27.8182 27.4525Z"
            fill="#50AF69" />
        <path
            d="M27.4165 28.6287C27.4166 28.6306 27.4165 28.6322 27.4167 28.6342L27.4135 28.6267C27.4135 28.6267 27.4157 28.6281 27.4165 28.6287Z"
            fill="#50AF69" />
        <path
            d="M28.4242 26.5308C28.4996 26.5468 28.5803 26.594 28.6546 26.65C28.6596 26.6068 28.6672 26.5634 28.6799 26.5199C28.6799 26.5199 28.8812 26.6199 28.9641 26.7602C28.9641 26.7602 29.0885 26.6533 29.2998 26.6436C29.2998 26.6436 29.2922 26.7062 29.2606 26.7971C29.4461 26.7652 29.5616 26.8084 29.5616 26.8084C29.2967 27.7509 28.5624 27.6507 28.5297 27.6457C28.2213 27.0754 28.4242 26.5308 28.4242 26.5308Z"
            fill="#50AF69" />
        <path
            d="M28.53 27.6459C28.5309 27.6473 28.5314 27.6489 28.5323 27.6504L28.5269 27.6454C28.5268 27.6455 28.5292 27.6458 28.53 27.6459Z"
            fill="#50AF69" />
        <path
            d="M28.6639 25.4806C28.7355 25.4852 28.8188 25.5165 28.8986 25.5562C28.8931 25.5181 28.8901 25.4795 28.8915 25.4403C28.8915 25.4403 29.0956 25.5027 29.2023 25.6143C29.2023 25.6143 29.2898 25.5066 29.4779 25.4725C29.4779 25.4725 29.4853 25.5278 29.4779 25.6104C29.6375 25.5603 29.7514 25.5837 29.7514 25.5837C29.7292 26.4335 29.0453 26.4353 29.0148 26.4349C28.6061 25.9775 28.6639 25.4806 28.6639 25.4806Z"
            fill="#50AF69" />
        <path
            d="M29.0151 26.4351C29.0162 26.4363 29.0171 26.4375 29.0182 26.4387L29.0121 26.4351C29.0121 26.4351 29.0144 26.435 29.0151 26.4351Z"
            fill="#50AF69" />
        <path
            d="M28.5846 24.6108C28.6458 24.5962 28.7239 24.6008 28.8011 24.6136C28.7866 24.5831 28.774 24.5514 28.7653 24.5182C28.7653 24.5182 28.9527 24.5178 29.0711 24.5838C29.0711 24.5838 29.1166 24.4707 29.2655 24.3936C29.2655 24.3936 29.2862 24.438 29.3013 24.5093C29.4222 24.426 29.5238 24.4162 29.5238 24.4162C29.725 25.1348 29.1519 25.3133 29.1262 25.3208C28.6648 25.0426 28.5846 24.6108 28.5846 24.6108Z"
            fill="#50AF69" />
        <path
            d="M29.1261 25.3207C29.1273 25.3215 29.1283 25.3222 29.1295 25.3229L29.1236 25.3215C29.1236 25.3215 29.1255 25.3208 29.1261 25.3207Z"
            fill="#50AF69" />
        <path
            d="M29.0382 23.553C29.0382 23.553 29.2336 24.0648 28.9305 24.3612C28.9305 24.3612 28.5354 24.2445 28.3401 23.8337L28.5063 23.8022L28.5916 23.5463L28.8746 23.672L29.0382 23.553Z"
            fill="#50AF69" />
        <path
            d="M28.4881 22.7302C28.4881 22.7302 28.7943 23.1845 28.5663 23.5418C28.5663 23.5418 28.1549 23.5176 27.8716 23.1617L28.0264 23.0935L28.0515 22.8249L28.3555 22.8833L28.4881 22.7302Z"
            fill="#50AF69" />
        <path
            d="M25.4419 27.0035L25.1087 27.5033C25.0517 27.5887 25.063 27.7024 25.1356 27.7749L25.4419 28.0812L25.7481 27.7749C25.8207 27.7024 25.8319 27.5887 25.7751 27.5033L25.4419 27.0035Z"
            fill="#41479B" />
        <path
            d="M25.5845 27.5033L25.4421 27.0035L25.2998 27.5033C25.2755 27.5887 25.2803 27.7024 25.3112 27.7749L25.4421 28.0812L25.573 27.7749C25.604 27.7023 25.6089 27.5887 25.5845 27.5033Z"
            fill="#F5F5F5" />
        <path d="M25.442 22.5315V21.1846C25.442 21.1846 24.9302 21.9209 25.011 22.9984"
            fill="#41479B" />
        <path
            d="M23.1466 22.5361C22.4062 24.1432 23.1657 25.4654 23.325 25.7143C23.3292 25.721 24.3824 24.0175 24.3824 24.0175L23.1466 22.5361Z"
            fill="#41479B" />
        <path
            d="M23.9258 24.7544C23.809 24.3906 23.7921 23.9658 23.9323 23.4784L23.4741 22.9292C23.0977 23.9437 23.2534 24.6927 23.6303 25.2302C23.7228 25.0814 23.8255 24.916 23.9258 24.7544Z"
            fill="#F5F5F5" />
        <path
            d="M24.3641 24.1072C24.332 24.1072 24.3003 24.0928 24.279 24.0655L22.9277 22.3281C22.8911 22.2811 22.8996 22.2134 22.9466 22.177C22.9937 22.1404 23.0612 22.149 23.0977 22.196L24.449 23.9334C24.4856 23.9803 24.4771 24.048 24.4302 24.0844C24.4105 24.0999 24.3872 24.1072 24.3641 24.1072Z"
            fill="#FFE15A" />
        <path
            d="M22.2089 24.2059C21.7779 28.5163 25.2262 27.4386 25.4416 27.0077L23.2865 25.9301L23.7175 25.068L22.2089 24.2059Z"
            fill="#41479B" />
        <path
            d="M23.2511 24.702L22.6504 24.3417C22.5152 26.903 23.883 27.3296 24.8919 27.2024C24.074 27.0926 23.2568 26.4887 23.2511 24.702Z"
            fill="#F5F5F5" />
        <path
            d="M23.7173 25.1756C23.6978 25.1756 23.6781 25.1703 23.6603 25.1592L21.9363 24.0819C21.8859 24.0503 21.8705 23.9838 21.9021 23.9335C21.9335 23.8827 21.9999 23.8675 22.0506 23.8992L23.7746 24.9766C23.825 25.0081 23.8404 25.0746 23.8088 25.1249C23.7883 25.1577 23.7532 25.1756 23.7173 25.1756Z"
            fill="#FFE15A" />
        <path
            d="M27.7371 22.5319C28.4776 24.1389 27.7181 25.4612 27.5587 25.7101C27.5545 25.7167 26.5014 24.0132 26.5014 24.0132L27.7371 22.5319Z"
            fill="#41479B" />
        <path
            d="M26.9576 24.7501C27.0744 24.3864 27.0913 23.9615 26.951 23.4741L27.4093 22.9249C27.7857 23.9394 27.63 24.6884 27.2531 25.2259C27.1606 25.0773 27.0579 24.9117 26.9576 24.7501Z"
            fill="#F5F5F5" />
        <path
            d="M26.5192 24.1031C26.4961 24.1031 26.4727 24.0958 26.4532 24.0803C26.4062 24.0439 26.3977 23.9761 26.4343 23.9293L27.7856 22.1919C27.8222 22.1449 27.8898 22.1365 27.9368 22.1729C27.9837 22.2093 27.9922 22.2771 27.9556 22.324L26.6043 24.0614C26.5831 24.0888 26.5513 24.1031 26.5192 24.1031Z"
            fill="#FFE15A" />
        <path
            d="M28.6744 24.2018C29.1055 28.5121 25.6571 27.4345 25.4417 27.0035L27.5969 25.926L27.1658 25.0639L28.6744 24.2018Z"
            fill="#41479B" />
        <path
            d="M27.6323 24.6976L28.233 24.3373C28.3682 26.8986 27.0004 27.3252 25.9915 27.198C26.8094 27.0883 27.6266 26.4844 27.6323 24.6976Z"
            fill="#F5F5F5" />
        <path
            d="M27.166 25.1715C27.1302 25.1715 27.0951 25.1536 27.0745 25.1207C27.043 25.0704 27.0584 25.0039 27.1087 24.9723L28.8327 23.895C28.8834 23.8632 28.9497 23.8786 28.9813 23.9293C29.0128 23.9796 28.9975 24.0461 28.9471 24.0776L27.2231 25.1549C27.2053 25.1662 27.1856 25.1715 27.166 25.1715Z"
            fill="#FFE15A" />
        <path
            d="M25.4418 25.2791C25.9179 25.2791 26.3039 24.8932 26.3039 24.417C26.3039 23.9409 25.9179 23.5549 25.4418 23.5549C24.9656 23.5549 24.5797 23.9409 24.5797 24.417C24.5797 24.8932 24.9656 25.2791 25.4418 25.2791Z"
            fill="#FFE6E6" />
        <path
            d="M25.4418 24.8482C25.6799 24.8482 25.8729 24.6552 25.8729 24.4171C25.8729 24.1791 25.6799 23.9861 25.4418 23.9861C25.2037 23.9861 25.0107 24.1791 25.0107 24.4171C25.0107 24.6552 25.2037 24.8482 25.4418 24.8482Z"
            fill="#F5F5F5" />
        <path
            d="M25.442 25.8182C25.3823 25.8182 25.334 25.77 25.334 25.7105V24.4174C25.334 24.3578 25.3823 24.3097 25.442 24.3097C25.5018 24.3097 25.55 24.3578 25.55 24.4174V25.7105C25.55 25.77 25.5018 25.8182 25.442 25.8182Z"
            fill="#FFE15A" />
        <path d="M28.3871 26.9855H22.613L23.2865 25.7039H27.6148L28.3871 26.9855Z" fill="#5AA0E6" />
        <path
            d="M25.6169 25.9439H27.1186L26.6515 25.4768C26.6295 25.4548 26.6027 25.4382 26.5733 25.4285L26.4107 25.3743C26.3521 25.3547 26.2877 25.3634 26.2364 25.3976L25.7172 25.7437L25.6169 25.9439Z"
            fill="#FFB750" />
        <path
            d="M25.1063 26.0248H26.8986L26.3411 25.4672C26.3149 25.4411 26.2829 25.4212 26.2476 25.4095L26.0536 25.3449C25.9837 25.3216 25.9068 25.3318 25.8455 25.3728L25.2259 25.786L25.1063 26.0248Z"
            fill="#FFC455" />
        <path
            d="M24.483 26.1145H26.6474L25.9741 25.4412C25.9425 25.4096 25.9039 25.3857 25.8613 25.3715L25.627 25.2934C25.5425 25.2652 25.4497 25.2776 25.3757 25.327L24.6275 25.8258L24.483 26.1145Z"
            fill="#FFCD55" />
        <path
            d="M23.8659 26.1953H26.344L25.5731 25.4244C25.5368 25.3881 25.4927 25.3609 25.4439 25.3445L25.1756 25.2551C25.0788 25.2229 24.9726 25.2371 24.8878 25.2937L24.0309 25.8649L23.8659 26.1953Z"
            fill="#FFD25A" />
        <path
            d="M22.8555 26.357H26.0882L25.0827 25.3514C25.0354 25.3041 24.9777 25.2684 24.9141 25.2473L24.5641 25.1306C24.4379 25.0886 24.2994 25.1071 24.1887 25.1809L23.0711 25.9259L22.8555 26.357Z"
            fill="#FFE15A" />
        <path
            d="M25.6754 24.6107H25.2095L25.3168 24.1608H25.4787C25.5312 24.1608 25.5768 24.1968 25.589 24.2479L25.6754 24.6107Z"
            fill="#FF4B55" />
        <path
            d="M25.6485 24.683H25.2301C25.1958 24.683 25.1682 24.6553 25.1682 24.6211V24.6004C25.1682 24.5661 25.196 24.5385 25.2301 24.5385H25.6485C25.6828 24.5385 25.7104 24.5663 25.7104 24.6004V24.6211C25.7104 24.6552 25.6826 24.683 25.6485 24.683Z"
            fill="#FF4B55" />
        <path
            d="M25.3725 24.3656L25.2677 24.3391C25.236 24.3311 25.2223 24.294 25.2412 24.2674L25.3171 24.1608L25.3725 24.3656Z"
            fill="#FF4B55" />
        <path
            d="M24.904 23.3103C24.8989 23.3499 24.8938 23.3895 24.8887 23.4291C25.0562 23.3274 25.2409 23.2665 25.4416 23.2665C25.6421 23.2667 25.827 23.3272 25.9945 23.4291C25.9895 23.3894 25.9843 23.3499 25.9792 23.3103C25.8126 23.2234 25.6333 23.1734 25.4416 23.1736C25.25 23.1734 25.0707 23.2233 24.904 23.3103Z"
            fill="#41479B" />
        <path
            d="M24.9108 23.2588C24.9058 23.2983 24.9006 23.338 24.8955 23.3775C25.0611 23.2757 25.2437 23.2146 25.4417 23.2143C25.6397 23.2145 25.8223 23.2756 25.9879 23.3775C25.9828 23.3379 25.9776 23.2983 25.9726 23.2588C25.8078 23.1712 25.6309 23.1216 25.4416 23.1215C25.2525 23.1215 25.0756 23.1714 24.9108 23.2588Z"
            fill="#5AA0E6" />
        <path
            d="M24.9168 23.2109C24.9117 23.2505 24.9066 23.2901 24.9015 23.3297C25.0655 23.2275 25.2459 23.166 25.4415 23.1661C25.6372 23.1661 25.8176 23.2275 25.9816 23.3297C25.9765 23.2901 25.9713 23.2505 25.9662 23.2109C25.8033 23.1234 25.6284 23.0732 25.4414 23.0731C25.2548 23.073 25.0799 23.1233 24.9168 23.2109Z"
            fill="#9BC800" />
        <path
            d="M24.9241 23.1563C24.919 23.196 24.9138 23.2355 24.9088 23.2751C25.0709 23.1726 25.2488 23.1109 25.4419 23.1109C25.6348 23.1111 25.8128 23.1724 25.975 23.2751C25.9699 23.2355 25.9647 23.1959 25.9596 23.1563C25.7986 23.0684 25.6262 23.018 25.442 23.0179C25.2575 23.0181 25.0851 23.0684 24.9241 23.1563Z"
            fill="#FFE14E" />
        <path
            d="M24.9309 23.1027C24.9258 23.1423 24.9207 23.1819 24.9156 23.2215C25.0758 23.1187 25.2512 23.0569 25.4417 23.0568C25.6321 23.057 25.8076 23.1186 25.9677 23.2215C25.9627 23.1819 25.9575 23.1423 25.9524 23.1027C25.7933 23.0146 25.6233 22.964 25.4417 22.9639C25.26 22.9641 25.0899 23.0145 24.9309 23.1027Z"
            fill="#FFB14E" />
        <path
            d="M24.9337 23.08C24.9302 23.1077 24.9266 23.1354 24.9231 23.1632C25.0812 23.0602 25.2542 22.9978 25.4417 22.9978C25.6292 22.9977 25.8022 23.06 25.9604 23.1632C25.9569 23.1354 25.9533 23.1077 25.9498 23.08C25.7916 22.9917 25.6225 22.941 25.4418 22.9408C25.2611 22.9406 25.0919 22.9916 24.9337 23.08Z"
            fill="#FF4B55" />
        <path
            d="M28.4591 27.1112H22.4246C22.3849 27.1112 22.3484 27.0893 22.3296 27.0544C22.3109 27.0192 22.313 26.9767 22.335 26.9437L25.3523 22.4179C25.3922 22.3581 25.4916 22.3581 25.5316 22.4179L28.5488 26.9437C28.5708 26.9768 28.573 27.0193 28.5542 27.0544C28.5354 27.0893 28.4988 27.1112 28.4591 27.1112ZM22.6259 26.8957H28.2578L25.4418 22.672L22.6259 26.8957Z"
            fill="#FFE15A" />
        <path
            d="M25.4422 21.5078C25.3824 21.5078 25.3342 21.4597 25.3342 21.4001V20.969C25.3342 20.9095 25.3824 20.8613 25.4422 20.8613C25.5019 20.8613 25.5502 20.9095 25.5502 20.969V21.4001C25.5502 21.4597 25.5019 21.5078 25.4422 21.5078Z"
            fill="#FFE15A" />
        <path
            d="M25.6573 21.5078H25.2262C25.1667 21.5078 25.1185 21.4596 25.1185 21.4001C25.1185 21.3405 25.1667 21.2924 25.2262 21.2924H25.6573C25.7169 21.2924 25.765 21.3405 25.765 21.4001C25.765 21.4596 25.7169 21.5078 25.6573 21.5078Z"
            fill="#FFE15A" />
        <path
            d="M25.4416 29.2668C25.4339 29.2668 25.4259 29.266 25.4183 29.2644C25.3128 29.2408 24.9609 29.1564 24.8571 29.0536C24.7252 28.9226 24.7245 28.709 24.8552 28.5771C24.9187 28.5133 25.0031 28.478 25.093 28.4778H25.0942C25.1837 28.4778 25.2679 28.5125 25.3315 28.5756C25.4353 28.6788 25.5223 29.0298 25.5465 29.135C25.5548 29.171 25.5441 29.2089 25.518 29.2352C25.4977 29.2556 25.47 29.2668 25.4416 29.2668ZM25.0942 28.6931C25.0655 28.7026 25.031 28.7059 25.008 28.7289C24.961 28.7761 24.9613 28.8532 25.0088 28.9004C25.0349 28.9258 25.1514 28.97 25.291 29.0097C25.2502 28.8706 25.2054 28.7544 25.1796 28.7284L25.2555 28.652L25.1795 28.7284C25.1567 28.7055 25.1264 28.6931 25.0942 28.6931Z"
            fill="#41479B" />
        <path
            d="M25.4424 29.2664C25.414 29.2664 25.3864 29.2552 25.366 29.2346C25.34 29.2083 25.3292 29.1703 25.3375 29.1344C25.3617 29.0291 25.4488 28.6781 25.5525 28.575C25.6164 28.5116 25.6924 28.4829 25.791 28.4772C25.8809 28.4774 25.9653 28.5127 26.0287 28.5765C26.1596 28.7085 26.1587 28.9221 26.027 29.0528C25.9231 29.1559 25.5712 29.2403 25.4657 29.2639C25.4582 29.2656 25.4502 29.2664 25.4424 29.2664ZM25.6286 28.6515L25.7045 28.7279C25.6787 28.7539 25.6338 28.8701 25.593 29.0092C25.7327 28.9695 25.8492 28.9255 25.8754 28.8997C25.9226 28.8528 25.923 28.7758 25.8759 28.7284C25.8532 28.7055 25.8228 28.6927 25.7904 28.6927H25.79C25.7578 28.6927 25.7275 28.7051 25.7046 28.7279L25.6286 28.6515ZM25.6286 28.6515H25.6307H25.6286Z"
            fill="#41479B" />
        <path
            d="M25.0118 29.913C24.9523 29.913 24.9041 29.8649 24.9041 29.8053C24.9041 29.3133 25.3747 29.0724 25.3947 29.0623C25.4483 29.0356 25.5124 29.0575 25.5391 29.1103C25.5658 29.1633 25.5444 29.228 25.4915 29.2549C25.4877 29.2569 25.1197 29.4479 25.1197 29.8052C25.1196 29.8649 25.0714 29.913 25.0118 29.913Z"
            fill="#41479B" />
        <path
            d="M25.8736 29.9131C25.814 29.9131 25.7659 29.8649 25.7659 29.8053C25.7659 29.448 25.3979 29.2568 25.3941 29.255C25.3411 29.2281 25.3199 29.1634 25.3465 29.1104C25.3734 29.0576 25.4374 29.0357 25.4909 29.0625C25.5109 29.0726 25.9815 29.3133 25.9815 29.8054C25.9813 29.8649 25.9331 29.9131 25.8736 29.9131Z"
            fill="#41479B" />
    </g>
    <defs>
        <clipPath id="clip0_9_3621">
            <rect width="50" height="50" fill="white" transform="translate(0.441406 0.602539)" />
        </clipPath>
    </defs>
</svg>
