<svg width="51" height="51" viewBox="0 0 51 51" fill="none" xmlns="http://www.w3.org/2000/svg">
    <g clip-path="url(#clip0_9_3602)">
        <path
            d="M50.1626 20.1429H0.162659V10.0854C0.162659 9.6093 0.548693 9.22327 1.02477 9.22327H49.3006C49.7766 9.22327 50.1627 9.6093 50.1627 10.0854L50.1626 20.1429Z"
            fill="#73AF00" />
        <path
            d="M49.3005 41.9819H1.02477C0.548693 41.9819 0.162659 41.5959 0.162659 41.1198V31.0624H50.1626V41.1198C50.1626 41.5959 49.7765 41.9819 49.3005 41.9819Z"
            fill="#FF4B55" />
        <path d="M50.1626 20.1427H0.162659V31.0616H50.1626V20.1427Z" fill="#F5F5F5" />
        <path
            d="M12.6719 26.1369C12.9192 25.8237 12.9192 25.3817 12.6719 25.0685L0.390686 9.51221C0.252502 9.66514 0.162659 9.86318 0.162659 10.0854V41.1199C0.162659 41.3421 0.252502 41.5403 0.390686 41.6931L12.6719 26.1369Z"
            fill="#4173CD" />
        <path
            d="M24.9556 26.3738C24.9556 26.3948 24.9487 28.4214 24.4304 29.4184H25.8868C25.3684 28.4215 25.3616 26.3948 25.3616 26.3738C25.3616 25.6755 26.0853 25.1206 26.0926 25.1152L25.8488 24.7907C25.8298 24.805 25.5886 24.9899 25.3617 25.2902V24.7501H24.9557V25.2902C24.7288 24.9899 24.4877 24.8049 24.4686 24.7907L24.2248 25.1152C24.2321 25.1206 24.9556 25.6754 24.9556 26.3738Z"
            fill="#B46446" />
        <path
            d="M27.1886 23.9381C27.1762 23.9381 27.1648 23.9413 27.1525 23.9421C27.0697 23.704 26.8458 23.5321 26.5796 23.5321C26.4836 23.5321 26.3941 23.5563 26.3133 23.5959C26.2273 23.4378 26.0618 23.3292 25.8693 23.3292C25.8139 23.3292 25.7616 23.3403 25.7117 23.3566C25.6037 23.1018 25.3515 22.9232 25.0574 22.9232C24.696 22.9232 24.401 23.1941 24.3562 23.5432C24.3198 23.5376 24.2834 23.5321 24.2456 23.5321C23.8532 23.5321 23.5352 23.8502 23.5352 24.2426C23.5352 24.2886 23.5404 24.3335 23.5488 24.3771C23.369 24.4363 23.2276 24.5753 23.1655 24.7536C23.1533 24.7525 23.1416 24.7499 23.1292 24.7499C22.905 24.7499 22.7233 24.9317 22.7233 25.1558C22.7233 25.38 22.9051 25.5618 23.1292 25.5618C23.2327 25.5618 23.3263 25.5218 23.398 25.4579C23.495 25.5234 23.6121 25.5618 23.7382 25.5618C23.8497 25.5618 23.9528 25.5297 24.0426 25.4773C24.1324 25.5296 24.2356 25.5618 24.347 25.5618C24.6833 25.5618 24.956 25.2891 24.956 24.9528C24.956 24.927 24.9515 24.9026 24.9485 24.8777C25.043 24.9243 25.1479 24.9528 25.2606 24.9528C25.4018 24.9528 25.5324 24.9104 25.643 24.8394C25.7468 25.0271 25.9443 25.1557 26.1739 25.1557C26.2233 25.1557 26.2707 25.1483 26.3166 25.1372C26.4283 25.2715 26.5945 25.3588 26.7828 25.3588C26.9648 25.3588 27.1263 25.2774 27.2378 25.1508C27.5507 25.1256 27.7978 24.8664 27.7978 24.5468C27.7975 24.2107 27.5249 23.9381 27.1886 23.9381Z"
            fill="#73AF00" />
        <path
            d="M26.5794 24.4455C26.5794 24.4244 26.5838 24.4045 26.5856 24.3839C26.4771 24.4843 26.3331 24.5471 26.1734 24.5471C25.9613 24.5471 25.7751 24.4385 25.666 24.274C25.5569 24.4385 25.3706 24.5471 25.1586 24.5471C24.9955 24.5471 24.8483 24.4822 24.739 24.3778C24.6757 24.7053 24.3882 24.953 24.0422 24.953C24.007 24.953 23.9734 24.9476 23.9398 24.9426C23.9398 24.9461 23.9408 24.9494 23.9408 24.953C23.9408 25.2184 23.77 25.4417 23.5331 25.5251C23.5973 25.5481 23.6657 25.5618 23.7379 25.5618C23.8494 25.5618 23.9524 25.5297 24.0423 25.4774C24.1321 25.5296 24.2353 25.5618 24.3467 25.5618C24.683 25.5618 24.9557 25.2892 24.9557 24.9529C24.9557 24.9271 24.9512 24.9027 24.9481 24.8778C25.0427 24.9243 25.1476 24.9529 25.2603 24.9529C25.4015 24.9529 25.5321 24.9105 25.6427 24.8395C25.7465 25.0272 25.9439 25.1558 26.1736 25.1558C26.223 25.1558 26.2704 25.1484 26.3163 25.1372C26.428 25.2715 26.5942 25.3588 26.7824 25.3588C26.9644 25.3588 27.1259 25.2775 27.2374 25.1509L27.2387 25.1507C26.8706 25.1239 26.5794 24.8203 26.5794 24.4455Z"
            fill="#5FA000" />
        <path
            d="M25.1588 30.7121C25.1262 30.7121 25.0973 30.6913 25.0866 30.6607C25.0789 30.6378 24.8878 30.1034 24.1439 30.1034H23.1291C22.5274 30.1034 22.0382 29.614 22.0382 29.0125V22.3145C22.0382 22.2725 22.0723 22.2384 22.1143 22.2384H28.4063C28.4483 22.2384 28.4824 22.2725 28.4824 22.3145V29.0125C28.4824 29.6142 27.9929 30.1034 27.3915 30.1034H26.1736C25.4253 30.1034 25.2328 30.6546 25.231 30.6603C25.2206 30.6914 25.1917 30.7122 25.159 30.7122L25.1588 30.7121ZM22.1902 22.3904V29.0123C22.1902 29.5299 22.6113 29.9511 23.129 29.9511H24.1438C24.7463 29.9511 25.0379 30.2746 25.1587 30.469C25.2795 30.2744 25.5711 29.9511 26.1735 29.9511H27.3914C27.9091 29.9511 28.3302 29.5299 28.3302 29.0123V22.3904H22.1902Z"
            fill="#464655" />
        <path
            d="M24.3789 20.5046L24.5719 20.8133L24.9357 20.8259L24.7647 21.1473L24.9357 21.4687L24.5719 21.4813L24.3789 21.7901L24.1862 21.4813L23.8224 21.4687L23.9933 21.1473L23.8224 20.8259L24.1862 20.8133L24.3789 20.5046Z"
            fill="#FFE15A" />
        <path
            d="M22.6643 20.7847L22.9239 21.0397L23.2806 20.9671L23.1894 21.3194L23.4307 21.5921L23.0799 21.6893L22.9646 22.0345L22.7049 21.7793L22.3482 21.8521L22.4394 21.4996L22.1982 21.2271L22.5489 21.1299L22.6643 20.7847Z"
            fill="#FFE15A" />
        <path
            d="M21.0192 21.2714L21.3277 21.4645L21.6603 21.3165L21.6474 21.6803L21.9418 21.8943L21.6203 22.065L21.5821 22.427L21.2735 22.2339L20.941 22.3819L20.9539 22.0181L20.6595 21.8041L20.981 21.6334L21.0192 21.2714Z"
            fill="#FFE15A" />
        <path
            d="M25.9449 20.5046L25.7519 20.8133L25.3881 20.8259L25.5591 21.1473L25.3881 21.4687L25.7519 21.4813L25.9449 21.7901L26.1376 21.4813L26.5014 21.4687L26.3305 21.1473L26.5014 20.8259L26.1376 20.8133L25.9449 20.5046Z"
            fill="#FFE15A" />
        <path
            d="M27.6595 20.7847L27.3999 21.0397L27.0432 20.9671L27.1344 21.3194L26.8931 21.5921L27.2439 21.6893L27.3592 22.0345L27.6189 21.7793L27.9756 21.8521L27.8844 21.4996L28.1257 21.2271L27.7749 21.1299L27.6595 20.7847Z"
            fill="#FFE15A" />
        <path
            d="M29.3048 21.2714L28.9962 21.4645L28.6637 21.3165L28.6765 21.6803L28.3821 21.8943L28.7036 22.065L28.7418 22.427L29.0504 22.2339L29.3829 22.3819L29.37 22.0181L29.6644 21.8041L29.3429 21.6334L29.3048 21.2714Z"
            fill="#FFE15A" />
    </g>
    <defs>
        <clipPath id="clip0_9_3602">
            <rect width="50" height="50" fill="white" transform="translate(0.162109 0.602539)" />
        </clipPath>
    </defs>
</svg>
