<svg width="51" height="51" viewBox="0 0 51 51" fill="none" xmlns="http://www.w3.org/2000/svg">
<g clip-path="url(#clip0_9_3597)">
<path d="M50.5894 25.6025H0.589508V10.0853C0.589508 9.60918 0.975542 9.22314 1.45162 9.22314H49.7274C50.2035 9.22314 50.5895 9.60918 50.5895 10.0853L50.5894 25.6025Z" fill="#73AF00"/>
<path d="M0.589508 25.6025H50.5894V41.1198C50.5894 41.5959 50.2034 41.9819 49.7273 41.9819H1.45162C0.975542 41.9819 0.589508 41.5959 0.589508 41.1198V25.6025Z" fill="#4173CD"/>
<path d="M0.589508 10.0853V41.1197C0.589508 41.4314 0.763726 41.6923 1.01148 41.8435L50.5894 25.6026L1.01148 9.36157C0.763629 9.51294 0.589508 9.77358 0.589508 10.0853Z" fill="#FF4B55"/>
<path d="M19.0278 30.5235C19.0278 30.5235 21.4557 29.638 22.1412 26.9816C22.1412 26.9816 21.0843 28.3527 20.3416 28.7526C20.3416 28.7526 21.9697 26.5817 21.627 24.468C21.627 24.468 21.427 25.325 21.0271 25.6677C21.0271 25.6677 21.7412 22.6114 20.8271 21.326C20.8271 21.326 20.8556 22.4115 20.4558 23.4969C20.4558 23.4969 20.6081 20.0596 19.0466 19.1838C19.0466 19.1838 19.656 20.2692 19.3989 21.1832C19.3989 21.1832 18.9704 19.2408 16.9804 18.4696C16.9804 18.4696 16.8566 18.6124 16.8852 19.0409C16.8852 19.0409 16.3425 18.3839 14.9999 18.4125C14.9999 18.4125 15.0285 18.898 15.3712 19.3551C15.3712 19.3551 14.8286 19.6407 14.4858 19.5551C14.4858 19.5551 15.0285 20.155 16.9422 20.0977C16.9422 20.0977 16.6851 20.3262 16.171 20.3834C16.171 20.3834 16.9529 20.7424 17.723 20.8118C18.7799 20.9069 19.1989 21.5259 19.3988 22.2971C19.3988 22.2971 18.5704 21.8116 18.2562 21.3259C18.2562 21.3259 18.1991 22.1543 19.77 23.7539L18.9702 23.4111C18.9702 23.4111 19.4844 24.8964 20.1128 26.5817L19.4558 25.8675C19.4558 25.8675 19.313 27.0672 19.1987 29.2953L18.7416 28.2383C18.7416 28.2383 17.9418 30.8663 16.7136 31.2947C15.7521 31.6301 14.6886 31.8597 14.2707 31.944C14.2316 30.4738 14.857 30.1521 14.857 30.1521C15.9709 30.2092 16.2281 28.981 16.2281 28.981C15.9995 29.2095 15.571 29.2095 15.571 29.2095C16.2281 28.524 16.2281 27.5529 16.2281 27.5529C15.8282 28.3241 15.1997 28.4383 15.1997 28.4383L15.2569 27.6671C14.0951 28.5121 14.178 29.5016 14.1972 29.6466C14.171 29.4617 13.9641 28.0145 13.8573 27.6671C13.743 27.2959 14 26.5532 14.3999 26.6673C15.6944 27.0372 15.9995 26.0962 15.9995 26.0962C15.314 26.4104 14.9141 26.1818 14.9141 26.1818C15.7995 25.3249 15.4283 24.5252 15.4283 24.5252C15.1426 25.3535 14.3428 25.4963 14.3428 25.4963L14.3143 24.5824C13.943 24.7824 13.6001 25.6678 13.6001 25.6678C13.6001 25.6678 13.5145 24.9537 13.7714 24.3253C14.0286 23.6968 14.6854 24.011 14.6854 24.011C15.8565 24.2395 16.2279 23.1256 16.2279 23.1256L15.4567 23.2398C16.3136 22.6114 16.0566 21.8401 16.0566 21.8401C15.8566 22.3257 15.1426 22.4114 15.1426 22.4114L15.4854 21.4974C14.7427 21.4974 14.3143 22.4686 14.3143 22.4686L14.2572 21.526C14.5999 20.2978 13.8001 19.755 13.8001 19.755C13.6288 19.9836 13.7145 20.4692 13.7145 20.4692C13.0003 19.8408 12.4577 20.5835 12.4577 20.5835C13.0003 21.1548 13.5146 21.0976 13.5146 21.0976C13.3433 21.2119 12.7148 21.2689 12.7148 21.2689C13.4289 21.8688 13.8288 21.7545 13.8288 21.7545C14.1715 23.2113 13.2575 23.8682 13.2575 23.8682C13.0862 22.7828 12.4291 22.2686 12.4291 22.2686L12.4577 22.9828C12.0292 22.7256 11.6865 21.9545 11.6865 21.9545C11.4008 23.0399 12.172 23.9825 12.172 23.9825L11.4579 23.9254C12.0863 25.3822 13.086 24.9252 13.086 24.9252C13.0003 25.9535 13.3431 27.6387 13.3431 27.6387C13.2003 27.4674 11.6865 26.0391 11.6865 26.0391C11.6293 26.6103 12.172 27.353 12.172 27.353C11.8864 27.2959 11.0581 26.6674 11.0581 26.6674C11.1437 27.5814 12.3434 28.1813 12.3434 28.1813C11.8864 28.2384 11.0008 27.7243 11.0008 27.7243C11.515 29.9237 13.4001 28.9525 13.4001 28.9525L13.5448 31.9275C13.1465 31.8319 12.2757 31.6099 11.3721 31.2948C10.1439 30.8664 9.34409 28.2384 9.34409 28.2384L8.88706 29.2954C8.7728 27.0673 8.62993 25.8676 8.62993 25.8676L7.9729 26.5818C8.60132 24.8965 9.11548 23.4112 9.11548 23.4112L8.31567 23.754C9.88725 22.1542 9.83003 21.3258 9.83003 21.3258C9.51577 21.8114 8.68745 22.297 8.68745 22.297C8.88745 21.5258 9.51577 20.726 10.2871 20.6689C11.0583 20.6118 11.9152 20.3833 11.9152 20.3833C11.401 20.3261 11.144 20.0976 11.144 20.0976C13.372 19.8976 13.6004 19.2978 13.6004 19.2978C13.2577 19.3835 12.2007 19.2693 12.2007 19.2693C13.0862 18.7838 14.543 18.3267 14.543 18.3267C12.7434 18.0125 11.201 19.0409 11.201 19.0409C11.4581 18.5553 11.9152 18.0126 11.9152 18.0126C9.71577 18.9838 8.68735 21.1832 8.68735 21.1832C8.43023 20.2692 9.0396 19.1837 9.0396 19.1837C7.47808 20.0596 7.63042 23.4968 7.63042 23.4968C7.23052 22.4114 7.25913 21.3259 7.25913 21.3259C6.34517 22.6113 7.05913 25.6676 7.05913 25.6676C6.65923 25.3249 6.45923 24.4679 6.45923 24.4679C6.11646 26.5817 7.74458 28.7525 7.74458 28.7525C7.00191 28.3526 5.94498 26.9815 5.94498 26.9815C6.63052 29.6379 9.05845 30.5234 9.05845 30.5234C7.71587 30.0092 7.14468 30.4377 7.14468 30.4377C8.08726 30.6377 9.00132 31.2089 9.74399 31.7516C10.4867 32.2943 11.4865 32.4086 12.3719 32.5228C12.7377 32.57 13.0409 32.6315 13.2756 32.6877C12.7916 32.9246 12.4577 33.4204 12.4577 33.9955H15.3712C15.3712 33.442 15.0626 32.9607 14.608 32.7141C14.9006 32.6515 15.2904 32.5774 15.714 32.5227C16.5994 32.4084 17.5245 32.1734 18.3419 31.7515C19.2274 31.2945 19.9986 30.6375 20.9412 30.4376C20.9415 30.4378 20.3701 30.0095 19.0278 30.5235Z" fill="#FFE15A"/>
</g>
<defs>
<clipPath id="clip0_9_3597">
<rect width="50" height="50" fill="white" transform="translate(0.589844 0.602539)"/>
</clipPath>
</defs>
</svg>
