<svg width="51" height="51" viewBox="0 0 51 51" fill="none" xmlns="http://www.w3.org/2000/svg">
    <g clip-path="url(#clip0_9_3585)">
        <path
            d="M50.3103 20.4124H0.31041V10.3549C0.31041 9.87883 0.696444 9.4928 1.17252 9.4928H49.4483C49.9244 9.4928 50.3104 9.87883 50.3104 10.3549L50.3103 20.4124Z"
            fill="#73AF00" />
        <path
            d="M49.4482 42.2514H1.17252C0.696444 42.2514 0.31041 41.8654 0.31041 41.3893V31.3319H50.3103V41.3893C50.3103 41.8655 49.9243 42.2514 49.4482 42.2514Z"
            fill="#FF4B55" />
        <path d="M50.3103 20.4122H0.31041V31.3312H50.3103V20.4122Z" fill="#FFE15A" />
        <path
            d="M35.6565 25.8818C35.6565 31.5875 31.0241 36.228 25.3103 36.228C19.5964 36.228 14.9641 31.5875 14.9641 25.8818C14.9641 20.1598 19.5964 15.5275 25.3103 15.5275C31.0241 15.5275 35.6565 20.1598 35.6565 25.8818Z"
            fill="#4173CD" />
        <path
            d="M17.4417 23.2806H23.453L24.8133 19.0944L25.1745 20.2173L23.1991 26.3028L22.6106 25.8735L23.226 23.9827H18.3914L17.4417 23.2806ZM20.4452 32.537L22.3031 26.8231L18.7424 24.2302H19.9168L25.0921 27.9874L24.5038 28.4167L22.8916 27.2441L21.395 31.8516L20.4452 32.537ZM30.1763 32.537L25.3108 29.0031L21.7521 31.5874L22.1154 30.4811L27.2865 26.7157L27.5074 27.4092L25.8992 28.5736L29.811 31.4224L30.1763 32.537ZM33.1798 23.2806L28.3184 26.823L29.6788 31.0094L28.7292 30.3157L26.7557 24.2301H27.4782L28.0933 26.1294L32.0072 23.2805H33.1797V23.2806H33.1798ZM25.3108 17.5668L27.1687 23.2806H31.5719L30.6202 23.9827H24.225L24.4501 23.2806H26.444L24.9475 18.6814L25.3108 17.5668Z"
            fill="#F2DD30" />
        <path
            d="M25.4841 34.1556H25.1394V29.672H25.4841V34.1556ZM33.1282 28.59L28.8654 27.2111L28.9729 26.8892L33.2377 28.2681L33.1282 28.59ZM17.4912 28.59L17.3838 28.2681L21.6506 26.8892L21.7561 27.2111L17.4912 28.59ZM27.6827 22.9091L27.4018 22.7111L30.038 19.0861L30.3126 19.2843L27.6827 22.9091ZM22.9451 22.9091L20.3047 19.2843L20.5835 19.0861L23.2176 22.7111L22.9451 22.9091Z"
            fill="#F2DD30" />
    </g>
    <defs>
        <clipPath id="clip0_9_3585">
            <rect width="50" height="50" fill="white" transform="translate(0.310547 0.87207)" />
        </clipPath>
    </defs>
</svg>
