<svg width="50" height="51" viewBox="0 0 50 51" fill="none" xmlns="http://www.w3.org/2000/svg">
<g clip-path="url(#clip0_9_3570)">
<path d="M49.1378 42.275H0.862108C0.386034 42.275 0 41.889 0 41.4129V10.3785C0 9.90239 0.386034 9.51636 0.862108 9.51636H49.1379C49.614 9.51636 50 9.90239 50 10.3785V41.4129C49.9999 41.8891 49.6139 42.275 49.1378 42.275Z" fill="#41479B"/>
<path d="M25.3502 13.2673L25.6959 14.3037L26.7884 14.3122C26.9299 14.3133 26.9885 14.4937 26.8747 14.5778L25.9958 15.2268L26.3253 16.2684C26.368 16.4032 26.2145 16.5149 26.0994 16.4326L25.2106 15.7972L24.3218 16.4326C24.2068 16.5148 24.0532 16.4033 24.0958 16.2684L24.4253 15.2268L23.5464 14.5778C23.4327 14.4937 23.4913 14.3133 23.6328 14.3122L24.7252 14.3037L25.0709 13.2673C25.1156 13.1331 25.3055 13.1331 25.3502 13.2673Z" fill="#FFE15A"/>
<path d="M25.3502 35.5193L25.6959 36.5558L26.7884 36.5643C26.9299 36.5653 26.9885 36.7458 26.8747 36.8299L25.9958 37.4789L26.3253 38.5205C26.368 38.6553 26.2145 38.767 26.0994 38.6847L25.2106 38.0493L24.3218 38.6847C24.2068 38.7669 24.0532 38.6554 24.0958 38.5205L24.4253 37.4789L23.5464 36.8299C23.4327 36.7458 23.4913 36.5653 23.6328 36.5643L24.7252 36.5558L25.0709 35.5193C25.1156 35.3852 25.3055 35.3852 25.3502 35.5193Z" fill="#FFE15A"/>
<path d="M36.4763 24.3932L36.822 25.4297L37.9145 25.4382C38.056 25.4392 38.1146 25.6197 38.0008 25.7038L37.1219 26.3528L37.4514 27.3944C37.4941 27.5292 37.3406 27.6409 37.2254 27.5586L36.3367 26.9232L35.4479 27.5586C35.3329 27.6408 35.1793 27.5293 35.2219 27.3944L35.5514 26.3528L34.6725 25.7038C34.5588 25.6197 34.6174 25.4392 34.7589 25.4382L35.8513 25.4297L36.197 24.3932C36.2417 24.2591 36.4316 24.2591 36.4763 24.3932Z" fill="#FFE15A"/>
<path d="M14.224 24.3932L14.5697 25.4297L15.6621 25.4382C15.8036 25.4392 15.8622 25.6197 15.7485 25.7038L14.8696 26.3528L15.199 27.3944C15.2417 27.5292 15.0882 27.6409 14.9731 27.5586L14.0843 26.9232L13.1955 27.5586C13.0805 27.6408 12.9269 27.5293 12.9696 27.3944L13.2991 26.3528L12.4201 25.7038C12.3064 25.6197 12.365 25.4392 12.5065 25.4382L13.599 25.4297L13.9447 24.3932C13.9894 24.2591 14.1793 24.2591 14.224 24.3932Z" fill="#FFE15A"/>
<path d="M15.8944 18.5832L16.2401 19.6196L17.3325 19.6281C17.474 19.6292 17.5326 19.8096 17.4189 19.8937L16.54 20.5427L16.8695 21.5843C16.9121 21.7191 16.7586 21.8308 16.6435 21.7485L15.7547 21.1132L14.8659 21.7485C14.7509 21.8307 14.5973 21.7192 14.64 21.5843L14.9695 20.5427L14.0906 19.8937C13.9768 19.8096 14.0354 19.6292 14.1769 19.6281L15.2694 19.6196L15.6151 18.5832C15.6598 18.449 15.8495 18.449 15.8944 18.5832Z" fill="#FFE15A"/>
<path d="M35.165 29.7093L35.5107 30.7457L36.6032 30.7542C36.7447 30.7553 36.8033 30.9357 36.6895 31.0198L35.8106 31.6688L36.1401 32.7104C36.1828 32.8452 36.0292 32.9569 35.9141 32.8746L35.0253 32.2393L34.1366 32.8746C34.0215 32.9568 33.8679 32.8453 33.9106 32.7104L34.2401 31.6688L33.3612 31.0198C33.2474 30.9357 33.306 30.7553 33.4475 30.7542L34.54 30.7457L34.8857 29.7093C34.9304 29.5751 35.1203 29.5751 35.165 29.7093Z" fill="#FFE15A"/>
<path d="M31.0929 14.5108L31.4386 15.5472L32.5311 15.5557C32.6726 15.5568 32.7312 15.7373 32.6174 15.8213L31.7385 16.4704L32.068 17.512C32.1107 17.6467 31.9572 17.7584 31.842 17.6761L30.9533 17.0408L30.0645 17.6761C29.9495 17.7583 29.7958 17.6468 29.8385 17.512L30.168 16.4704L29.2891 15.8213C29.1753 15.7373 29.2339 15.5568 29.3754 15.5557L30.4679 15.5472L30.8136 14.5108C30.8582 14.3766 31.048 14.3766 31.0929 14.5108Z" fill="#FFE15A"/>
<path d="M19.9666 33.7817L20.3123 34.8181L21.4047 34.8266C21.5462 34.8277 21.6048 35.0081 21.4911 35.0922L20.6122 35.7412L20.9417 36.7828C20.9843 36.9176 20.8308 37.0293 20.7157 36.947L19.8269 36.3116L18.9381 36.947C18.8231 37.0292 18.6695 36.9177 18.7122 36.7828L19.0417 35.7412L18.1628 35.0922C18.049 35.0081 18.1076 34.8277 18.2491 34.8266L19.3416 34.8181L19.6873 33.7817C19.732 33.6475 19.9217 33.6475 19.9666 33.7817Z" fill="#FFE15A"/>
<path d="M34.8857 18.5832L34.54 19.6196L33.4475 19.6281C33.306 19.6292 33.2474 19.8096 33.3612 19.8937L34.2401 20.5427L33.9106 21.5843C33.8679 21.7191 34.0214 21.8308 34.1366 21.7485L35.0253 21.1132L35.9141 21.7485C36.0291 21.8307 36.1828 21.7192 36.1401 21.5843L35.8106 20.5427L36.6895 19.8937C36.8033 19.8096 36.7447 19.6292 36.6032 19.6281L35.5107 19.6196L35.165 18.5832C35.1203 18.449 34.9304 18.449 34.8857 18.5832Z" fill="#FFE15A"/>
<path d="M15.6151 29.7093L15.2694 30.7457L14.1769 30.7542C14.0354 30.7553 13.9768 30.9357 14.0906 31.0198L14.9695 31.6688L14.64 32.7104C14.5973 32.8452 14.7508 32.9569 14.8659 32.8746L15.7547 32.2393L16.6435 32.8746C16.7585 32.9568 16.9121 32.8453 16.8695 32.7104L16.54 31.6688L17.4189 31.0198C17.5326 30.9357 17.474 30.7553 17.3325 30.7542L16.2401 30.7457L15.8944 29.7093C15.8495 29.5751 15.6598 29.5751 15.6151 29.7093Z" fill="#FFE15A"/>
<path d="M19.6873 14.5108L19.3416 15.5472L18.2491 15.5557C18.1076 15.5568 18.049 15.7373 18.1628 15.8213L19.0417 16.4704L18.7122 17.512C18.6695 17.6467 18.823 17.7584 18.9381 17.6761L19.8269 17.0408L20.7157 17.6761C20.8307 17.7583 20.9843 17.6468 20.9417 17.512L20.6122 16.4704L21.4911 15.8213C21.6048 15.7373 21.5462 15.5568 21.4047 15.5557L20.3123 15.5472L19.9666 14.5108C19.9217 14.3766 19.732 14.3766 19.6873 14.5108Z" fill="#FFE15A"/>
<path d="M30.8134 33.7817L30.4677 34.8181L29.3752 34.8266C29.2337 34.8277 29.1751 35.0081 29.2889 35.0922L30.1678 35.7412L29.8383 36.7828C29.7956 36.9176 29.9491 37.0293 30.0642 36.947L30.953 36.3116L31.8418 36.947C31.9568 37.0292 32.1104 36.9177 32.0678 36.7828L31.7383 35.7412L32.6172 35.0922C32.7309 35.0081 32.6723 34.8277 32.5308 34.8266L31.4384 34.8181L31.0927 33.7817C31.0478 33.6475 30.8581 33.6475 30.8134 33.7817Z" fill="#FFE15A"/>
</g>
<defs>
<clipPath id="clip0_9_3570">
<rect width="50" height="50" fill="white" transform="translate(0 0.895752)"/>
</clipPath>
</defs>
</svg>
