<svg width="51" height="51" viewBox="0 0 51 51" fill="none" xmlns="http://www.w3.org/2000/svg">
    <g clip-path="url(#clip0_9_3528)">
        <path
            d="M49.5647 42.2749H1.28899C0.812914 42.2749 0.42688 41.8889 0.42688 41.4128V10.3785C0.42688 9.90239 0.812914 9.51636 1.28899 9.51636H49.5648C50.0408 9.51636 50.4269 9.90239 50.4269 10.3785V41.4128C50.4268 41.889 50.0407 42.2749 49.5647 42.2749Z"
            fill="#41479B" />
        <path
            d="M24.5647 9.51636H23.0674L15.082 14.7481V9.51636H10.7717V14.7481L2.78635 9.51636H1.28899C0.812914 9.51636 0.42688 9.90239 0.42688 10.3785V11.0623L7.27794 15.5508H0.42688V19.8612H7.27794L0.42688 24.3498V25.0335C0.42688 25.5096 0.812914 25.8956 1.28899 25.8956H2.78635L10.7717 20.6639V25.8956H15.082V20.6639L23.0673 25.8956H24.5646C25.0407 25.8956 25.4267 25.5096 25.4267 25.0335V24.3497L18.5758 19.8612H25.4267V15.5508H18.5757L25.4267 11.0623V10.3785C25.4267 9.90239 25.0409 9.51636 24.5647 9.51636Z"
            fill="#F5F5F5" />
        <path
            d="M25.4259 16.4128H14.2191V9.51624H11.6329V16.4128H0.426086V18.9989H11.6329V25.8955H14.2191V18.9989H25.4259V16.4128Z"
            fill="#FF4B55" />
        <path
            d="M9.90878 15.5506L0.836925 9.66187C0.59552 9.8147 0.426086 10.0713 0.426086 10.3783V10.423L8.32539 15.5506H9.90878Z"
            fill="#FF4B55" />
        <path
            d="M16.6647 15.5507L25.2949 9.94856C25.1449 9.69475 24.8803 9.51624 24.564 9.51624H24.3776L15.0813 15.5507H16.6647Z"
            fill="#FF4B55" />
        <path
            d="M9.16338 19.861L0.549622 25.4524C0.698156 25.7123 0.966906 25.8954 1.2878 25.8954H1.4504L10.7468 19.861H9.16338Z"
            fill="#FF4B55" />
        <path
            d="M25.4122 25.1013L17.3394 19.8612H15.7561L24.9234 25.8118C25.1981 25.6843 25.3864 25.4173 25.4122 25.1013Z"
            fill="#FF4B55" />
        <path
            d="M32.7224 35.3088L32.3178 34.3646L32.5201 34.8368L32.3155 34.3658C32.4007 34.3282 34.4034 33.4145 34.4034 30.7278H35.4306C35.4306 34.1092 32.8331 35.2613 32.7224 35.3088Z"
            fill="#E67346" />
        <path
            d="M33.124 33.0115L32.3978 32.2852C33.7863 30.8966 34.5079 30.5158 34.5857 30.4768L35.0451 31.3957L34.8153 30.9362L35.049 31.3936C35.0425 31.3971 34.3921 31.7434 33.124 33.0115Z"
            fill="#EB7D4B" />
        <path
            d="M43.2779 35.3088L43.6825 34.3646L43.4802 34.8368L43.6848 34.3658C43.5996 34.3282 41.5969 33.4145 41.5969 30.7278H40.5697C40.5697 34.1092 43.1673 35.2613 43.2779 35.3088Z"
            fill="#E67346" />
        <path
            d="M42.8762 33.0115L43.6024 32.2852C42.2139 30.8966 41.4923 30.5158 41.4145 30.4768L40.9551 31.3957L41.1849 30.9362L40.9512 31.3936C40.9576 31.3971 41.608 31.7434 42.8762 33.0115Z"
            fill="#EB7D4B" />
        <path
            d="M37.9986 17.3735H32.52C32.52 17.3735 32.52 23.8795 32.52 25.5915C32.52 27.3035 32.8625 31.755 37.9986 33.467C43.1348 31.7549 43.4772 27.3035 43.4772 25.5915C43.4772 23.8795 43.4772 17.3735 43.4772 17.3735H37.9986Z"
            fill="#4173CD" />
        <path
            d="M40.3954 19.4281H37.4517C37.1406 19.4281 36.839 19.3222 36.5961 19.128L35.4468 18.2084C35.3253 18.1114 35.1745 18.0583 35.019 18.0583H34.9168C34.5386 18.0583 34.232 18.3649 34.232 18.7431H33.7185C33.4349 18.7431 33.2049 18.9731 33.2049 19.2567C33.2049 19.5403 33.4349 19.7703 33.7185 19.7703H34.232C34.4212 19.7703 34.5745 19.9236 34.5745 20.1127V21.8248C34.5745 22.4623 35.012 22.9934 35.6018 23.146V24.2217H36.2865L36.5434 23.1945H39.7107L40.0532 23.537V24.2217H40.3957V23.1945H40.7382V24.2217H41.0807V23.0996C41.2846 22.9809 41.4231 22.7626 41.4231 22.5097V20.4552C41.4227 19.888 40.9628 19.4281 40.3954 19.4281Z"
            fill="#C8C8C8" />
        <path d="M34.2321 23.8795L34.917 25.9339H41.0805L41.7652 23.8795H34.2321Z" fill="#73AF00" />
        <path
            d="M41.6465 25.249C40.7337 25.249 40.7337 25.9338 39.8208 25.9338C38.9082 25.9338 38.9082 25.249 37.9955 25.249C37.083 25.249 37.083 25.9338 36.1704 25.9338C35.2576 25.9338 35.2576 25.249 34.3447 25.249C33.4339 25.249 33.4315 25.9307 32.5246 25.9336C32.5356 26.315 32.5682 26.7815 32.6525 27.2972C33.433 27.2334 33.4793 26.6187 34.3448 26.6187C35.2576 26.6187 35.2576 27.3035 36.1705 27.3035C37.083 27.3035 37.083 26.6187 37.9956 26.6187C38.9082 26.6187 38.9082 27.3035 39.8209 27.3035C40.7338 27.3035 40.7338 26.6187 41.6466 26.6187C42.5145 26.6187 42.5601 27.2347 43.3444 27.2973C43.4286 26.7817 43.4613 26.3151 43.4723 25.9337C42.5611 25.9321 42.5599 25.249 41.6465 25.249Z"
            fill="#F5F5F5" />
        <path
            d="M41.6466 26.6188C40.7337 26.6188 40.7337 27.3035 39.8208 27.3035C38.9082 27.3035 38.9082 26.6188 37.9955 26.6188C37.083 26.6188 37.083 27.3035 36.1704 27.3035C35.2576 27.3035 35.2576 26.6188 34.3447 26.6188C33.4792 26.6188 33.433 27.2334 32.6525 27.2972C32.7195 27.7075 32.8201 28.1489 32.9674 28.6026C33.4668 28.4281 33.6126 27.9883 34.3447 27.9883C35.2574 27.9883 35.2574 28.6731 36.1703 28.6731C37.0828 28.6731 37.0828 27.9883 37.9954 27.9883C38.908 27.9883 38.908 28.6731 39.8207 28.6731C40.7336 28.6731 40.7336 27.9883 41.6465 27.9883C42.3812 27.9883 42.5264 28.4299 43.0289 28.6036C43.1764 28.1496 43.2771 27.7079 43.3442 27.2973C42.5602 27.2346 42.5146 26.6188 41.6466 26.6188Z"
            fill="#4173CD" />
        <path
            d="M41.6466 27.9884C40.7337 27.9884 40.7337 28.6732 39.8208 28.6732C38.9082 28.6732 38.9082 27.9884 37.9955 27.9884C37.083 27.9884 37.083 28.6732 36.1705 28.6732C35.2577 28.6732 35.2577 27.9884 34.3448 27.9884C33.6127 27.9884 33.4669 28.4281 32.9675 28.6027C33.0856 28.9663 33.2351 29.3377 33.4221 29.7078C33.6537 29.5342 33.8818 29.358 34.3448 29.358C35.2576 29.358 35.2576 30.0428 36.1705 30.0428C37.083 30.0428 37.083 29.358 37.9955 29.358C38.9081 29.358 38.9081 30.0428 39.8208 30.0428C40.7337 30.0428 40.7337 29.358 41.6466 29.358C42.1122 29.358 42.3408 29.5356 42.5738 29.71C42.7612 29.3395 42.9109 28.9677 43.029 28.6037C42.5265 28.43 42.3814 27.9884 41.6466 27.9884Z"
            fill="#F5F5F5" />
        <path
            d="M41.6466 29.3582C40.7337 29.3582 40.7337 30.0429 39.8208 30.0429C38.9082 30.0429 38.9082 29.3582 37.9956 29.3582C37.0831 29.3582 37.0831 30.0429 36.1705 30.0429C35.2577 30.0429 35.2577 29.3582 34.3448 29.3582C33.8819 29.3582 33.6536 29.5342 33.4221 29.708C33.6003 30.0607 33.8134 30.4117 34.0679 30.7534C34.1506 30.7377 34.2412 30.728 34.3448 30.728C35.2576 30.728 35.2576 31.4127 36.1705 31.4127C37.083 31.4127 37.083 30.728 37.9956 30.728C38.9081 30.728 38.9081 31.4127 39.8208 31.4127C40.7337 31.4127 40.7337 30.728 41.6466 30.728C41.7522 30.728 41.8445 30.7379 41.9286 30.754C42.1828 30.4129 42.3956 30.0624 42.5738 29.7102C42.341 29.5357 42.1123 29.3582 41.6466 29.3582Z"
            fill="#4173CD" />
        <path
            d="M41.9286 30.7539C41.8446 30.7377 41.7523 30.7278 41.6466 30.7278C40.7337 30.7278 40.7337 31.4126 39.8209 31.4126C38.9083 31.4126 38.9083 30.7278 37.9956 30.7278C37.0831 30.7278 37.0831 31.4126 36.1705 31.4126C35.2577 31.4126 35.2577 30.7278 34.3448 30.7278C34.2413 30.7278 34.1507 30.7375 34.0679 30.7532C34.6229 31.4981 35.3756 32.1966 36.3944 32.7649C37.0881 32.6625 37.1653 32.0974 37.9954 32.0974C38.8274 32.0974 38.903 32.665 39.601 32.7655C40.6204 32.1974 41.3734 31.499 41.9286 30.7539Z"
            fill="#F5F5F5" />
        <path d="M38.1691 25.2493H37.8275V31.0705H38.1691V25.2493Z" fill="#FF965A" />
        <path d="M39.0257 26.1049H36.971V26.4473H39.0257V26.1049Z" fill="#FF965A" />
        <path d="M39.0257 28.1594H36.971V28.5019H39.0257V28.1594Z" fill="#FF965A" />
        <path d="M39.0254 26.4465H36.9707V27.801H39.0254V26.4465Z" fill="#FFE15A" />
        <path d="M37.8273 25.249V25.9339L36.8 25.5915L37.8273 25.249Z" fill="#FF4B55" />
        <path d="M40.4517 25.2493H40.1101V29.2727H40.4517V25.2493Z" fill="#FF965A" />
        <path d="M41.3083 26.1049H39.2537V26.4473H41.3083V26.1049Z" fill="#FF965A" />
        <path d="M41.3083 28.1594H39.2537V28.5019H41.3083V28.1594Z" fill="#FF965A" />
        <path d="M41.3087 26.4465H39.254V27.801H41.3087V26.4465Z" fill="#FFE15A" />
        <path d="M40.1102 25.249V25.9339L39.0829 25.5915L40.1102 25.249Z" fill="#FF4B55" />
        <path d="M35.8714 25.2493H35.5298V29.2439H35.8714V25.2493Z" fill="#FF965A" />
        <path d="M36.7289 26.1049H34.6743V26.4473H36.7289V26.1049Z" fill="#FF965A" />
        <path d="M36.7289 28.1594H34.6743V28.5019H36.7289V28.1594Z" fill="#FF965A" />
        <path d="M36.7294 26.4465H34.6747V27.801H36.7294V26.4465Z" fill="#FFE15A" />
        <path d="M35.5304 25.249V25.9339L34.5031 25.5915L35.5304 25.249Z" fill="#FF4B55" />
        <path
            d="M39.7108 29.0157C39.7108 29.9596 38.9428 30.7278 37.9987 30.7278C37.0547 30.7278 36.2866 29.9597 36.2866 29.0157H35.9441H35.6045L33.2855 28.4919L33.21 28.826L34.2321 29.0569V29.3581L34.9857 29.6594C35.2828 31.0504 36.5203 32.0972 37.9986 32.0972C39.4622 32.0972 40.6884 31.0706 41.001 29.7003H42.1075V28.6731L39.7108 29.0157Z"
            fill="#FF965A" />
        <path
            d="M43.4774 17.3735C43.4774 17.3735 43.4774 23.8795 43.4774 25.5915C43.4774 27.3035 43.1349 31.7549 37.9987 33.4669C32.8625 31.7548 32.5201 27.3035 32.5201 25.5915C32.5201 23.8795 32.5201 17.3735 32.5201 17.3735H37.9987H43.4774ZM43.8197 17.0311H43.4772H37.9986H32.52H32.1776V17.3736V25.5916C32.1776 29.6517 34.2065 32.5639 37.8903 33.7919L37.9986 33.8281L38.1069 33.7919C41.7909 32.5639 43.8197 29.6516 43.8197 25.5916V17.3736V17.0311Z"
            fill="#F5F5F5" />
        <path
            d="M37.9986 35.1791C35.4784 35.1791 33.1411 34.3348 31.7466 32.9206L32.7217 31.9589C33.8645 33.1175 35.8372 33.8093 37.9987 33.8093C40.1602 33.8093 42.133 33.1176 43.2758 31.9589L44.2509 32.9206C42.8561 34.3347 40.5189 35.1791 37.9986 35.1791Z"
            fill="#FF965A" />
    </g>
    <defs>
        <clipPath id="clip0_9_3528">
            <rect width="50" height="50" fill="white" transform="translate(0.427734 0.895752)" />
        </clipPath>
    </defs>
</svg>
