<svg width="51" height="51" viewBox="0 0 51 51" fill="none" xmlns="http://www.w3.org/2000/svg">
    <g clip-path="url(#clip0_9_3482)">
        <path
            d="M49.8587 42.275H1.58299C1.10692 42.275 0.720886 41.889 0.720886 41.4129V10.3785C0.720886 9.90239 1.10692 9.51636 1.58299 9.51636H49.8588C50.3349 9.51636 50.7209 9.90239 50.7209 10.3785V41.4129C50.7208 41.8891 50.3348 42.275 49.8587 42.275Z"
            fill="#82AFFF" />
        <path
            d="M24.8587 25.8957H1.58299C1.10692 25.8957 0.720886 25.5097 0.720886 25.0336V10.3785C0.720886 9.90239 1.10692 9.51636 1.58299 9.51636H24.8588C25.3349 9.51636 25.7209 9.90239 25.7209 10.3785V25.0336C25.7208 25.5097 25.3348 25.8957 24.8587 25.8957Z"
            fill="#41479B" />
        <path
            d="M24.8587 9.51648H23.3613L15.3759 14.7483V9.51648H11.0656V14.7483L3.08026 9.51648H1.58299C1.10692 9.51648 0.720886 9.90242 0.720886 10.3785V11.0623L7.57195 15.5508H0.720886V19.8612H7.57195L0.720886 24.3499V25.0336C0.720886 25.5097 1.10692 25.8957 1.58299 25.8957H3.08045L11.0658 20.6639V25.8957H15.3761V20.6639L23.3614 25.8957H24.8588C25.3349 25.8957 25.7209 25.5097 25.7209 25.0336V24.3499L18.8699 19.8613H25.7208V15.5509H18.8698L25.7208 11.0624V10.3786C25.7208 9.90242 25.3348 9.51648 24.8587 9.51648Z"
            fill="#F5F5F5" />
        <path
            d="M25.7208 16.413H14.5139V9.51648H11.9278V16.413H0.720886V18.9992H11.9278V25.8957H14.5139V18.9992H25.7208V16.413Z"
            fill="#FF4B55" />
        <path
            d="M10.2038 15.5509L1.13191 9.66211C0.890503 9.81484 0.721069 10.0716 0.721069 10.3784V10.4231L8.62037 15.5509H10.2038Z"
            fill="#FF4B55" />
        <path
            d="M16.9597 15.5509L25.5899 9.9488C25.4399 9.69499 25.1753 9.51648 24.859 9.51648H24.6726L15.3763 15.5509H16.9597Z"
            fill="#FF4B55" />
        <path
            d="M9.45879 19.8613L0.845032 25.4527C0.993567 25.7127 1.26232 25.8958 1.58321 25.8958H1.74581L11.0423 19.8613H9.45879Z"
            fill="#FF4B55" />
        <path
            d="M25.7073 25.1014L17.6345 19.8613H16.0511L25.2185 25.812C25.4931 25.6846 25.6814 25.4175 25.7073 25.1014Z"
            fill="#FF4B55" />
        <path
            d="M32.1694 18.9247V28.3835C32.1694 32.2195 37.5579 34.191 38.2145 34.4168C38.8705 34.191 44.2596 32.2163 44.2596 28.3835V18.9247H32.1694Z"
            fill="#F5F5F5" />
        <path
            d="M44.4729 23.263V18.7113H31.9561V23.263H37.3611V27.53H31.9561V29.237H37.3611V34.3574L38.2145 34.6418L39.0679 34.3574V29.237H44.4729V27.53H39.0679V23.263H44.4729Z"
            fill="#FF4B55" />
        <path
            d="M33.3594 22.1997C33.7528 22.1997 34.0716 21.8808 34.0716 21.4875C34.0716 21.0941 33.7528 20.7753 33.3594 20.7753C32.9661 20.7753 32.6472 21.0941 32.6472 21.4875C32.6472 21.8808 32.9661 22.1997 33.3594 22.1997Z"
            fill="#F5F5F5" />
        <path
            d="M34.7282 20.5245C34.5002 20.3992 34.09 20.0629 33.9249 20.12C33.7596 20.177 33.7227 20.2938 33.4916 20.3116C33.2664 20.329 32.9107 20.5487 33.0589 20.7922C33.2516 21.1092 33.8547 20.8628 33.8946 20.7145C33.8946 20.7145 34.0427 20.7382 34.1672 20.7086C34.1672 20.7086 34.415 21.0543 34.7226 21.0315C35.0302 21.0086 35.1727 20.627 35.1044 20.627C35.0362 20.627 34.7282 20.5245 34.7282 20.5245Z"
            fill="#FFE15A" />
        <path
            d="M35.6739 22.0342C35.6226 22.1281 35.2323 22.4619 34.5799 22.6154C34.4347 22.6495 34.4603 22.8204 34.315 22.735C34.1698 22.6495 33.768 22.5811 33.409 22.5641C33.0501 22.547 33.0144 22.2144 33.0757 22.0941C33.1536 21.9412 33.7266 21.8481 33.8292 22.0361C33.9317 22.2241 34.0086 22.1849 34.2637 22.2393C34.4218 22.2731 34.4261 22.3504 34.4261 22.3504C34.4261 22.3504 34.7168 22.0598 34.9646 21.9743C35.2125 21.8889 35.4261 21.7008 35.4688 21.7008C35.5116 21.7008 35.7337 21.7606 35.7337 21.7606L35.6739 22.0342Z"
            fill="#FFE15A" />
        <path
            d="M36.6226 21.0257C36.9986 21.1624 38.1097 21.1197 39.2976 20.7351C40.4855 20.3505 40.8274 20.2822 41.4086 20.4957C41.9898 20.7093 42.2413 20.0343 41.8597 19.9202C41.2603 19.7408 39.4062 20.818 38.0637 20.2135C38.0637 20.2135 38.0241 20.3761 38.0668 20.453C38.0668 20.453 37.0926 20.4872 37.3233 19.4788C37.3233 19.4788 37.3897 19.8469 37.8503 19.8046C38.7215 19.7247 38.846 20.338 40.6906 19.7693C41.7147 19.4536 42.5105 19.6085 42.5175 20.1068C42.526 20.7067 41.699 20.8461 41.699 20.8461C41.699 20.8461 42.0209 21.5042 42.6705 21.2136C43.3201 20.923 43.3542 21.4244 43.4112 21.5955C43.4683 21.7664 43.5765 21.9317 43.7188 21.9487C43.7188 21.9487 43.8214 22.2563 43.7815 22.2962C43.7417 22.3361 43.4739 22.6723 43.2062 22.6723C42.9384 22.6723 42.3572 22.6723 42.3572 22.6723C42.3572 22.6723 42.2033 22.2905 42.4997 22.2849C42.7959 22.2792 43.155 22.2565 43.1094 22.0968C43.0638 21.9373 42.8302 21.8632 42.8358 21.6866C42.8358 21.6866 42.1464 22.1879 41.7191 21.5954L41.7077 21.8746C41.7077 21.8746 41.1892 21.7777 41.0013 21.3618C41.0013 21.3618 41.0525 21.829 40.6082 21.7606C40.6082 21.7606 40.6994 21.8973 40.8532 21.9942C41.0071 22.0911 40.8475 22.3018 40.5513 22.4785C40.2551 22.6551 39.3434 23.1679 38.9275 22.6437C38.5115 22.1196 39.0187 21.8175 39.144 21.8517C39.2692 21.8859 39.6282 22.4385 39.8732 22.3645C40.1183 22.2905 40.2379 22.0397 40.0327 21.886C39.8275 21.7323 39.674 21.5868 39.8033 21.4315C39.9812 21.2181 40.6367 21.2821 40.6139 21.1397C40.5911 20.9972 39.9815 21.0372 39.5826 21.4359C39.1838 21.8347 37.4517 22.7521 36.7622 22.1709C36.0729 21.5898 36.6226 21.0257 36.6226 21.0257Z"
            fill="#FFE15A" />
        <path
            d="M36.4 20.7694C36.4 20.7694 36.9213 21.2822 37.8016 21.4446C37.8016 21.4446 37.6392 21.6925 37.1692 21.6241C37.1692 21.6241 37.3573 21.7865 37.4855 22.06C37.4855 22.06 37.1864 22.1283 36.9213 21.983C36.9213 21.983 36.9555 22.2052 37.0837 22.3848C37.0837 22.3848 36.7334 22.3848 36.4341 22.1198L36.3145 22.4616C36.3145 22.4616 36.1094 22.3249 35.9812 22.0599C35.9812 22.0599 35.7419 22.2479 35.5027 22.2479C35.5027 22.2479 35.5881 21.9916 35.5881 21.8462C35.5881 21.8462 35.2464 22.0513 34.9642 21.9744C34.9642 21.9744 34.9727 21.6154 35.0668 21.5129C35.0668 21.5129 34.8446 21.5386 34.6993 21.4616C34.6993 21.4616 34.7847 21.265 34.8275 21.1368C34.8275 21.1368 34.5881 21.1453 34.4429 21.0086C34.4429 21.0086 34.9045 20.8291 35.0071 20.6582L36.4 20.7694Z"
            fill="#FFD25A" />
        <path
            d="M35.5596 19.3336C35.6621 19.3906 35.8274 19.5159 35.8958 19.7267C35.8958 19.7267 36.0839 19.4531 36.4086 19.4019C36.4086 19.4019 36.5511 19.5614 36.5111 19.9773C36.5111 19.9773 36.8701 19.8747 37.0639 20.0627C37.0639 20.0627 36.682 20.1482 36.5055 20.4672C36.5055 20.4672 36.4369 20.7932 36.5567 20.9869C36.5567 20.9869 36.4233 21.0047 36.289 20.9459C36.289 20.9459 36.2206 21.2707 36.289 21.3733C36.289 21.3733 36.1009 21.3504 35.9984 21.1511C35.9984 21.1511 35.8444 21.3847 35.8559 21.5272C35.8559 21.5272 35.6508 21.4075 35.6394 21.231C35.6394 21.231 35.4969 21.4988 35.3432 21.5216C35.3432 21.5216 35.3261 21.1455 35.2577 21.003C35.2577 21.003 35.1267 21.1455 34.9558 21.1398C34.9558 21.1398 34.9558 20.8491 35.0983 20.7124C35.0983 20.7124 34.8589 20.7864 34.7278 20.5243C34.7278 20.5243 35.1209 20.6382 35.2178 20.399C35.3147 20.1597 35.3431 20.0857 35.4799 19.9546C35.6166 19.8237 35.5596 19.3336 35.5596 19.3336Z"
            fill="#FFBE5A" />
        <path
            d="M36.4002 20.4362C36.4002 20.4362 35.9129 21.3677 35.4686 21.0858C34.9818 20.7767 35.5882 20.0516 35.6652 19.9747C35.6651 19.9746 36.0241 20.0687 36.4002 20.4362Z"
            fill="#FFE15A" />
        <path
            d="M34.643 25.2075C34.643 25.2075 34.5919 24.5384 34.2292 24.3454C33.8882 24.1639 33.6867 24.0732 33.6476 23.8406C33.6476 23.8406 33.9439 23.9767 34.2571 24.0618C34.5401 24.1386 34.8163 24.6176 34.7324 25.1564L34.643 25.2075Z"
            fill="#5ABEA0" />
        <path
            d="M33.498 25.7575L33.5441 25.8426L33.5776 26.0255L33.5105 26.2424C33.5105 26.2424 33.777 26.3483 33.8376 26.7103C33.8792 26.9586 33.9886 27.0123 34.0557 26.9612C34.1228 26.9102 34.1634 26.8498 34.0934 26.5783C34.0039 26.2317 33.762 25.9021 33.762 25.9021L33.5734 25.6128L33.498 25.7575Z"
            fill="#B46446" />
        <path
            d="M33.7625 25.9021C33.5193 25.5873 32.8565 24.9323 32.7308 25.8254C32.7308 25.8254 32.471 25.0729 32.9573 25.1023C33.5192 25.1365 33.7625 25.9021 33.7625 25.9021Z"
            fill="#5ABEA0" />
        <path
            d="M33.5444 25.8426C33.3347 25.6128 33.2675 25.4427 33.1585 25.0174C33.0494 24.5921 33.0159 24.4644 32.8901 24.4729C32.7642 24.4814 32.6888 24.6175 32.6888 24.8897C32.6888 24.8897 32.3197 24.5578 32.5713 24.2942C32.823 24.0305 33.3849 24.1751 33.4185 24.643C33.452 25.1109 33.4437 25.4256 33.6113 25.817L33.5444 25.8426Z"
            fill="#5ABEA0" />
        <path
            d="M33.6032 25.6384C33.6032 25.6384 33.1586 24.6601 34.4084 24.1325C34.4084 24.1325 33.3012 23.8348 33.4355 25.4086L33.6032 25.6384Z"
            fill="#5ABEA0" />
        <path
            d="M33.7458 25.9872C33.7458 25.9872 32.8063 25.6299 32.8902 26.4976C32.8902 26.4976 33.0496 26.0892 33.5109 26.2425L33.7458 25.9872Z"
            fill="#5ABEA0" />
        <path
            d="M34.8107 25.6441C34.8107 25.8979 34.9105 26.6343 34.7688 26.7274C34.6975 26.7742 34.4962 26.7359 34.513 26.5573C34.5298 26.3786 34.6094 25.5108 34.6094 25.2982C34.6094 25.0855 34.8107 25.6441 34.8107 25.6441Z"
            fill="#B46446" />
        <path
            d="M34.2131 26.2339C34.3754 26.0695 34.4256 25.6952 34.3697 25.1961C34.3697 25.1961 34.7052 25.4286 34.8115 25.6441C34.8115 25.6441 34.9177 25.1506 34.5711 25.0202C34.2244 24.8897 34.0398 24.9635 33.9783 25.1222C33.9168 25.281 34.0842 25.4587 34.1573 25.7177C34.2243 25.956 34.2131 26.2339 34.2131 26.2339Z"
            fill="#5ABEA0" />
        <path
            d="M34.789 25.5136C34.789 25.5136 34.8449 25.2528 35.0294 25.1449C35.0294 25.1449 35.4097 25.4115 35.3816 25.7689C35.3816 25.7689 35.4823 25.2812 35.2754 25.0883C35.0685 24.8955 34.8336 24.8445 34.7162 25.0146C34.5987 25.1846 34.789 25.5136 34.789 25.5136Z"
            fill="#5ABEA0" />
        <path
            d="M34.8786 25.0145C34.8786 25.0145 34.9961 24.3168 35.2923 24.1637C35.5886 24.0106 36.1368 23.8688 36.1703 23.8347C36.1703 23.8347 35.5161 23.8688 35.4098 23.8688C35.3036 23.8688 34.7164 24.2941 34.7164 24.9238C34.7164 25.5533 34.7723 25.1223 34.7891 25.1165C34.8058 25.111 34.8786 25.0145 34.8786 25.0145Z"
            fill="#5ABEA0" />
        <path
            d="M35.1506 26.8593C35.2177 26.9997 35.3771 27.0336 35.4107 26.9613C35.4442 26.8891 35.5952 26.3361 35.5952 26.3361L35.3813 26.234L35.1506 26.8593Z"
            fill="#B46446" />
        <path
            d="M36.4045 24.5381C36.6673 24.385 36.8407 24.8388 36.8407 24.8388C36.8407 24.3045 36.673 24.1356 36.2535 24.3397C36.1273 24.4012 36.0348 24.53 35.9668 24.6794C35.7545 24.0694 35.2862 24.0787 35.2862 24.0787L35.18 24.1525C35.5634 24.2262 35.783 24.6857 35.8759 24.9363C35.8258 25.1192 35.8016 25.2965 35.7912 25.398C35.54 25.6584 35.3813 26.2338 35.3813 26.2338C35.3813 26.2338 35.5616 26.3402 35.5951 26.3359C35.5951 26.3359 35.7126 25.9744 35.8594 25.9828C36.0062 25.9913 36.1781 26.2253 36.1823 26.3743C36.1823 26.3743 36.4004 25.9319 36.1404 25.7618C36.0428 25.6979 35.9647 25.6736 35.9016 25.6724L36.0943 25.4555C36.4089 25.5151 36.627 25.8128 36.627 25.8128C36.6333 25.2812 36.3985 25.1774 36.151 25.2219C36.1952 25.0078 36.2926 24.6034 36.4045 24.5381Z"
            fill="#5ABEA0" />
        <path
            d="M41.5821 25.2744C41.5821 25.7203 41.5821 26.7092 41.5821 26.7821C41.5821 26.8551 41.2628 27.1388 41.2628 27.1388H42.1117C42.1117 27.1388 41.839 26.8226 41.839 26.7821C41.839 26.7417 41.9013 25.3878 41.9013 25.3878L41.5821 25.2744Z"
            fill="#B46446" />
        <path
            d="M41.6367 25.4284C41.4343 25.4122 40.8734 25.8743 40.7099 26.5795C40.7099 26.5795 40.2113 25.7689 41.4576 25.096C41.4576 25.096 40.9046 24.9338 40.0635 25.8094C40.0181 25.8567 39.9778 24.4881 41.4888 24.8529C41.4888 24.8529 40.9124 24.0178 39.7285 24.6745C39.7285 24.6745 40.5151 23.264 41.6757 24.5286C41.6757 24.5286 41.6834 23.4342 41.6913 23.5477C41.6992 23.6612 41.7848 24.1637 41.7848 24.1637L42.0106 23.7665L41.8315 24.5772C41.8315 24.5772 42.8674 23.199 43.7476 24.634C43.7476 24.634 42.6103 24.1639 42.0652 24.6907C42.0652 24.6907 43.2336 24.3745 43.14 25.7283C43.14 25.7283 42.6806 24.9258 41.9328 25.0312C41.9328 25.0312 42.813 25.4364 42.5325 26.5309C42.5324 26.531 42.002 25.4576 41.6367 25.4284Z"
            fill="#5ABEA0" />
        <path
            d="M34.1989 30.3002C34.1556 30.2415 34.0948 30.2133 34.0353 30.2058C34.0582 30.1267 34.0735 30.0906 34.0674 30.033C34.0855 30.0375 34.1029 30.0457 34.1216 30.0479L34.1296 29.9829C34.0605 29.9746 33.9851 29.9435 33.9076 29.8963C33.9554 29.8553 33.9899 29.7925 33.9899 29.7154C33.9899 29.6317 33.9516 29.5616 33.897 29.5219C33.8425 29.5617 33.804 29.6318 33.804 29.7154C33.804 29.7782 33.8298 29.8286 33.8636 29.8689C33.8348 29.849 33.8057 29.826 33.7765 29.8011C33.7689 29.7497 33.7492 29.6978 33.7035 29.6562C33.6417 29.5999 33.5641 29.581 33.4978 29.5945C33.4905 29.6616 33.5165 29.7372 33.5783 29.7936C33.6261 29.8372 33.6823 29.852 33.7363 29.8532C33.7486 29.8636 33.7615 29.8741 33.7751 29.8847C33.738 29.8802 33.698 29.8841 33.6581 29.8986C33.5794 29.9273 33.5268 29.9873 33.508 30.0521C33.5642 30.0897 33.6431 30.1019 33.7217 30.0732C33.7903 30.0482 33.8345 29.9979 33.8583 29.9428C33.9043 29.9722 33.9548 29.9968 34.007 30.0164L33.9987 30.0175C33.997 30.0646 34.0001 30.0841 33.9767 30.1718C33.9238 30.1375 33.8539 30.122 33.78 30.1438C33.6997 30.1675 33.6434 30.2241 33.6205 30.2877C33.6742 30.3287 33.7521 30.3459 33.8325 30.3221C33.8929 30.3044 33.9338 30.2656 33.963 30.2216C33.952 30.2549 33.9381 30.2892 33.9226 30.3243C33.8754 30.3461 33.8312 30.3797 33.8041 30.4353C33.7675 30.5105 33.7714 30.5904 33.803 30.6501C33.8695 30.6382 33.9347 30.5919 33.9714 30.5167C33.9996 30.4586 33.9981 30.4005 33.9839 30.3483C33.9904 30.3336 33.9968 30.3182 34.0032 30.3022C34.0094 30.339 34.0243 30.3763 34.0495 30.4105C34.0992 30.4779 34.1716 30.5115 34.2392 30.5112C34.2593 30.4468 34.2486 30.3676 34.1989 30.3002Z"
            fill="#5ABEA0" />
        <path
            d="M33.814 30.0901C34.0983 30.0901 34.4702 30.0792 34.4591 30.3634C34.4483 30.6477 34.1311 31.6101 34.8637 31.9053C35.5963 32.2005 35.6838 32.1568 35.6838 32.1568L36.0119 32.9112L36.8101 32.627L36.0446 32.0146C36.0446 32.0146 35.979 31.599 35.7931 31.3147C35.7931 31.3147 36.2633 31.074 36.4274 30.8663L36.0994 30.8445C36.0994 30.8445 36.5258 30.5711 36.7226 30.265L36.493 30.2868C36.493 30.2868 36.7554 30.0243 36.821 29.7182C36.821 29.7182 36.3946 30.1447 35.9572 30.1993C35.9572 30.1993 36.143 29.7182 36.1868 29.5323C36.1868 29.5323 35.8587 29.7401 35.6292 29.8276C35.3996 29.9151 35.0386 29.9259 35.2027 30.6696C35.2027 30.6696 35.0058 30.5056 34.8856 30.1556C34.7654 29.8057 34.7216 29.6744 34.5576 29.6744C34.2897 29.6744 34.1858 29.9151 34.1858 29.9151L33.814 30.0901Z"
            fill="#FFECDE" />
        <path
            d="M41.8848 30.2308C41.9831 30.0996 42.1799 29.6897 42.3521 29.7963C42.5243 29.9028 42.7538 30.1651 42.8931 30.0422C43.0324 29.9192 43.0407 29.7635 42.8275 29.6897C42.6143 29.616 42.3766 29.493 42.2291 29.5422C42.0816 29.5913 41.6308 30.0587 41.6308 30.0587L41.8848 30.2308Z"
            fill="#B46446" />
        <path
            d="M40.6142 30.5832C40.606 30.3946 40.7332 29.5761 41.2454 29.6814C41.5242 29.7389 41.6613 30.0343 42.0243 30.1732C42.4095 30.3208 42.6555 30.4109 42.5817 30.665C42.5078 30.9191 42.3685 31.2225 42.0488 31.2963C41.729 31.3702 40.6142 30.5832 40.6142 30.5832Z"
            fill="#FFE15A" />
        <path
            d="M40.2775 31.2581C40.1683 31.2799 39.7639 31.8702 40.2448 32.4713C40.2448 32.4713 40.8351 32.7118 41.3051 32.3402C41.7751 31.9686 41.4253 31.7828 41.4253 31.7828L40.2775 31.2581Z"
            fill="#5ABEA0" />
        <path
            d="M40.3185 31.3864C40.2694 31.3126 40.2776 31.258 40.2776 31.258C40.2776 31.258 40.253 30.4109 40.6055 30.3945C40.9581 30.3781 42.2286 31.2142 42.2286 31.3536C42.2286 31.493 41.8186 31.8946 41.4744 31.9766C41.1302 32.0586 40.3185 31.3864 40.3185 31.3864Z"
            fill="#5ABEA0" />
        <path
            d="M39.4503 33.436C39.4503 33.436 40.57 32.9329 40.3595 32.5237C40.2077 32.2284 39.8664 32.4176 39.8124 32.6431C39.7449 32.9244 39.526 33.3165 39.4503 33.436Z"
            fill="#B46446" />
        <path
            d="M38.2145 34.8658L38.1497 34.8452C38.0848 34.8244 36.539 34.3265 34.9678 33.2909C32.8579 31.9004 31.7426 30.2033 31.7426 28.3835V18.4979H44.6862V28.3835C44.6862 30.2034 43.5709 31.9004 41.4611 33.2909C39.89 34.3265 38.3442 34.8244 38.2791 34.8452L38.2145 34.8658ZM32.1694 18.9247V28.3835C32.1694 32.2195 37.5578 34.191 38.2145 34.4168C38.8704 34.191 44.2596 32.2163 44.2596 28.3835V18.9247H32.1694Z"
            fill="#464655" />
    </g>
    <defs>
        <clipPath id="clip0_9_3482">
            <rect width="50" height="50" fill="white" transform="translate(0.720703 0.895752)" />
        </clipPath>
    </defs>
</svg>
