<svg width="51" height="51" viewBox="0 0 51 51" fill="none" xmlns="http://www.w3.org/2000/svg">
<g clip-path="url(#clip0_9_3449)">
<path d="M0.868225 33.6541H50.8681V41.4126C50.8681 41.8887 50.4821 42.2747 50.006 42.2747H1.73033C1.25426 42.2747 0.868225 41.8887 0.868225 41.4126V33.6541Z" fill="#FF4B55"/>
<path d="M1.73082 9.51636H50.0066C50.4827 9.51636 50.8687 9.90239 50.8687 10.3785V18.137H0.868713V10.3784C0.868713 9.90229 1.25475 9.51636 1.73082 9.51636Z" fill="#FF4B55"/>
<path d="M50.8686 18.1368H0.868652V33.6544H50.8686V18.1368Z" fill="#F5F5F5"/>
<path d="M31.5518 23.6943L26.0796 25.928C26.0774 25.9224 26.0748 25.9174 26.0723 25.9121L31.3572 23.2654C31.1482 22.8483 30.8944 22.4577 30.5999 22.1014L26.0435 25.8695C26.039 25.8638 26.0364 25.8566 26.0312 25.8513L30.208 21.6704C29.91 21.3723 29.5806 21.106 29.2267 20.8742L25.9931 25.824C25.9857 25.819 25.9792 25.8133 25.9712 25.8092L28.6133 20.521C28.1889 20.3084 27.7366 20.144 27.2632 20.0339L25.9205 25.7923C25.9035 25.7882 25.8872 25.7819 25.8687 25.7819C25.8503 25.7819 25.8342 25.7882 25.817 25.7923L24.4743 20.0339C24.0008 20.144 23.5485 20.3083 23.1242 20.521L25.7663 25.8092C25.7584 25.8133 25.7517 25.819 25.7444 25.824L22.5107 20.8742C22.1567 21.1061 21.8274 21.3724 21.5295 21.6704L25.7062 25.8513C25.7012 25.8566 25.6986 25.8637 25.6939 25.8695L21.1376 22.1014C20.8431 22.4576 20.5893 22.8483 20.3803 23.2654L25.6652 25.9121C25.6627 25.9175 25.66 25.9225 25.6579 25.928L20.1856 23.6943C20.0207 24.0988 19.898 24.5248 19.8223 24.9672L25.6482 25.9759C25.6474 25.981 25.6457 25.9856 25.6452 25.9908L19.7646 25.3782C19.7434 25.5857 19.7324 25.7961 19.7324 26.0093C19.7324 26.3779 19.7667 26.7381 19.829 27.0886L25.8686 26.4638L31.9084 27.0886C31.9707 26.7379 32.005 26.3778 32.005 26.0093C32.005 25.7961 31.9939 25.5857 31.9728 25.3782L26.0921 25.9908C26.0917 25.9856 26.0898 25.981 26.089 25.9759L31.9149 24.9672C31.8394 24.5249 31.7167 24.0989 31.5518 23.6943Z" fill="#FFB955"/>
<path d="M19.938 27.5865C19.9801 27.7452 20.0288 27.9013 20.083 28.0546H31.6546C31.7088 27.9013 31.7575 27.7452 31.7995 27.5865C31.2327 27.5133 31.1622 27.1456 30.4716 27.1456C29.7049 27.1456 29.7049 27.6001 28.9381 27.6001C28.1714 27.6001 28.1714 27.1456 27.4046 27.1456C26.6377 27.1456 26.6377 27.6001 25.8707 27.6001C25.1042 27.6001 25.1042 27.1456 24.3376 27.1456C23.5703 27.1456 23.5703 27.6001 22.8032 27.6001C22.0355 27.6001 22.0355 27.1456 21.2677 27.1456C20.5762 27.1456 20.5059 27.5134 19.938 27.5865Z" fill="#4173CD"/>
<path d="M30.2904 28.7364C29.5523 28.7363 29.5522 28.2819 28.814 28.2819C28.0756 28.2819 28.0756 28.7364 27.3373 28.7364C26.5989 28.7364 26.5989 28.2819 25.8605 28.2819C25.1219 28.2819 25.1219 28.7364 24.3835 28.7364C23.6453 28.7364 23.6453 28.2819 22.9072 28.2819C22.1684 28.2819 22.1684 28.7364 21.4297 28.7364C20.7742 28.7364 20.6988 28.3797 20.1752 28.2987C20.3002 28.6092 20.4483 28.9079 20.6203 29.1909H30.2901H30.2907H31.1165C31.2887 28.9073 31.4373 28.6078 31.5625 28.2964C31.0231 28.3723 30.9527 28.7364 30.2904 28.7364Z" fill="#4173CD"/>
<path d="M30.8778 29.5518C30.7349 29.4769 30.5657 29.4183 30.3014 29.4183C29.563 29.4183 29.563 29.8728 28.8246 29.8728C28.0862 29.8728 28.0862 29.4183 27.3478 29.4183C26.6093 29.4183 26.6093 29.8728 25.8708 29.8728C25.1326 29.8728 25.1326 29.4183 24.3945 29.4183C23.6558 29.4183 23.6558 29.8728 22.917 29.8728C22.1776 29.8728 22.1776 29.4183 21.4385 29.4183C21.1731 29.4183 21.0035 29.4771 20.8604 29.5523C21.056 29.8282 21.2727 30.0879 21.5101 30.3275H30.2279C30.4653 30.0877 30.6822 29.8279 30.8778 29.5518Z" fill="#4173CD"/>
<path d="M29.6503 30.8401C29.4272 30.7108 29.2478 30.5546 28.8146 30.5546C28.0763 30.5546 28.0763 31.0091 27.3379 31.0091C26.5995 31.0091 26.5995 30.5546 25.8611 30.5546C25.1226 30.5546 25.1226 31.0091 24.3841 31.0091C23.6459 31.0091 23.6459 30.5546 22.9078 30.5546C22.4804 30.5546 22.2999 30.7065 22.0809 30.8348C22.3851 31.074 22.7122 31.2847 23.0588 31.4637H28.679C29.0231 31.286 29.3479 31.077 29.6503 30.8401Z" fill="#4173CD"/>
<path d="M24.3946 31.691C24.1526 31.691 23.9904 31.7401 23.855 31.8057C24.4861 32.0248 25.1632 32.1455 25.8689 32.1455H25.8701C25.1327 32.1452 25.1325 31.691 24.3946 31.691Z" fill="#4173CD"/>
<path d="M25.8743 32.1454C26.5791 32.1447 27.2552 32.0241 27.8854 31.8048C27.7504 31.7398 27.5886 31.691 27.3479 31.691C26.6105 31.691 26.6091 32.1438 25.8743 32.1454Z" fill="#4173CD"/>
<path d="M26.675 25.2321L24.7305 24.6702C24.6214 24.6387 24.5458 24.5402 24.5444 24.4267C24.5354 23.7066 24.5042 21.1712 24.5042 20.7818C24.5042 20.3273 24.9586 19.6455 25.8678 19.6455H26.5846C26.6525 19.6455 26.673 19.7379 26.6106 19.7645C26.2823 19.9053 25.8679 20.1985 25.8679 20.7818C25.8679 21.4744 26.5274 21.7713 26.8416 21.8734C26.9387 21.905 27.0043 21.9941 27.0043 22.0963V24.9848C27.0041 25.1561 26.8398 25.2798 26.675 25.2321Z" fill="#FF4B55"/>
<path d="M24.9599 27.7759C25.0312 27.7327 25.1158 27.8048 25.0836 27.8817C24.8933 28.3387 24.4268 29.191 23.5951 29.191C22.4587 29.191 22.2314 28.2819 22.2314 27.6001V22.7793C22.2314 22.6803 22.3117 22.6001 22.4106 22.6001H22.7339C22.8329 22.6001 22.9131 22.6804 22.9131 22.7793V27.3728C22.9134 27.9874 24.2056 28.2326 24.9599 27.7759Z" fill="#FF4B55"/>
<path d="M26.6804 27.7759C26.6091 27.7327 26.5246 27.8048 26.5567 27.8817C26.747 28.3387 27.2135 29.191 28.0453 29.191C29.1816 29.191 29.4089 28.2819 29.4089 27.6001V22.7793C29.4089 22.6803 29.3287 22.6001 29.2297 22.6001H28.9064C28.8074 22.6001 28.7272 22.6804 28.7272 22.7793V27.3728C28.727 27.9874 27.4347 28.2326 26.6804 27.7759Z" fill="#FF4B55"/>
<path d="M28.2595 27.0318H23.479C23.4184 27.0318 23.3693 26.9827 23.3693 26.9221V26.9142C23.3693 26.8537 23.4184 26.8046 23.479 26.8046H28.2595C28.3201 26.8046 28.3692 26.8537 28.3692 26.9142V26.9221C28.3692 26.9828 28.3201 27.0318 28.2595 27.0318Z" fill="#AA4650"/>
<path d="M23.8514 26.1744L24.0975 25.8463C24.1352 25.7962 24.125 25.7248 24.0748 25.6871C24.0247 25.6496 23.9533 25.6601 23.9157 25.71L23.8199 25.8377V25.7494C23.8199 25.6866 23.769 25.6357 23.7062 25.6357C23.6434 25.6357 23.5926 25.6866 23.5926 25.7494V25.8294L23.503 25.71C23.4654 25.6599 23.3942 25.6494 23.3439 25.6871C23.2936 25.7248 23.2835 25.7961 23.3212 25.8463L23.5673 26.1744L23.3212 26.5025C23.2835 26.5526 23.2937 26.624 23.3439 26.6617C23.3643 26.677 23.3883 26.6844 23.4119 26.6844C23.4465 26.6844 23.4805 26.6686 23.5028 26.6389L23.7091 26.3638L23.9153 26.6389C23.9376 26.6686 23.9717 26.6844 24.0062 26.6844C24.03 26.6844 24.0539 26.677 24.0742 26.6617C24.1245 26.624 24.1346 26.5527 24.0969 26.5025L23.8514 26.1744Z" fill="#AA4650"/>
<path d="M25.9736 26.174L26.2197 25.8459C26.2574 25.7958 26.2471 25.7244 26.1969 25.6867C26.1468 25.6492 26.0754 25.6597 26.0378 25.7096L25.942 25.8373V25.749C25.942 25.6863 25.8911 25.6354 25.8284 25.6354C25.7656 25.6354 25.7147 25.6863 25.7147 25.749V25.829L25.6251 25.7096C25.5875 25.6595 25.5163 25.649 25.4661 25.6867C25.4158 25.7244 25.4056 25.7957 25.4433 25.8459L25.6894 26.174L25.4433 26.5022C25.4056 26.5523 25.4159 26.6237 25.4661 26.6613C25.4865 26.6767 25.5104 26.684 25.534 26.684C25.5686 26.684 25.6027 26.6683 25.6249 26.6385L25.8312 26.3634L26.0374 26.6385C26.0597 26.6683 26.0938 26.684 26.1284 26.684C26.1521 26.684 26.176 26.6767 26.1963 26.6613C26.2466 26.6237 26.2568 26.5524 26.2191 26.5022L25.9736 26.174Z" fill="#AA4650"/>
<path d="M24.913 26.174L25.1591 25.8459C25.1968 25.7958 25.1865 25.7244 25.1363 25.6867C25.0862 25.6492 25.0148 25.6597 24.9772 25.7096L24.8814 25.8373V25.749C24.8814 25.6863 24.8305 25.6354 24.7677 25.6354C24.705 25.6354 24.6541 25.6863 24.6541 25.749V25.829L24.5645 25.7096C24.5269 25.6595 24.4557 25.649 24.4054 25.6867C24.3552 25.7244 24.345 25.7957 24.3827 25.8459L24.6288 26.174L24.3827 26.5022C24.345 26.5523 24.3552 26.6237 24.4054 26.6613C24.4259 26.6767 24.4498 26.684 24.4734 26.684C24.508 26.684 24.5421 26.6683 24.5643 26.6385L24.7706 26.3634L24.9768 26.6385C24.9991 26.6683 25.0332 26.684 25.0677 26.684C25.0915 26.684 25.1154 26.6767 25.1357 26.6613C25.186 26.6237 25.1962 26.5524 25.1585 26.5022L24.913 26.174Z" fill="#AA4650"/>
<path d="M27.0342 26.174L27.2803 25.8459C27.318 25.7958 27.3078 25.7244 27.2576 25.6867C27.2075 25.6492 27.1361 25.6597 27.0985 25.7096L27.0027 25.8373V25.749C27.0027 25.6863 26.9518 25.6354 26.889 25.6354C26.8262 25.6354 26.7754 25.6863 26.7754 25.749V25.829L26.6858 25.7096C26.6482 25.6595 26.577 25.649 26.5267 25.6867C26.4764 25.7244 26.4663 25.7957 26.504 25.8459L26.7501 26.174L26.504 26.5022C26.4663 26.5523 26.4765 26.6237 26.5267 26.6613C26.5471 26.6767 26.5711 26.684 26.5947 26.684C26.6293 26.684 26.6633 26.6683 26.6856 26.6385L26.8919 26.3634L27.0981 26.6385C27.1204 26.6683 27.1545 26.684 27.189 26.684C27.2128 26.684 27.2367 26.6767 27.257 26.6613C27.3073 26.6237 27.3174 26.5524 27.2797 26.5022L27.0342 26.174Z" fill="#AA4650"/>
<path d="M28.0948 26.174L28.3409 25.8459C28.3786 25.7958 28.3684 25.7244 28.3182 25.6867C28.2681 25.6492 28.1967 25.6597 28.1591 25.7096L28.0633 25.8373V25.749C28.0633 25.6863 28.0124 25.6354 27.9496 25.6354C27.8868 25.6354 27.836 25.6863 27.836 25.749V25.829L27.7464 25.7096C27.7088 25.6595 27.6376 25.649 27.5873 25.6867C27.537 25.7244 27.5269 25.7957 27.5646 25.8459L27.8107 26.174L27.5646 26.5022C27.5269 26.5523 27.5371 26.6237 27.5873 26.6613C27.6077 26.6767 27.6317 26.684 27.6553 26.684C27.6899 26.684 27.724 26.6683 27.7462 26.6385L27.9525 26.3634L28.1587 26.6385C28.181 26.6683 28.2151 26.684 28.2496 26.684C28.2734 26.684 28.2973 26.6767 28.3176 26.6613C28.3679 26.6237 28.378 26.5524 28.3403 26.5022L28.0948 26.174Z" fill="#AA4650"/>
<path d="M23.6417 27.7338C23.8098 27.8073 24.7972 27.8178 25.0492 27.5553C25.3013 27.2927 25.2488 27.1771 25.2488 27.1771L24.0513 27.1876L23.6417 27.7338Z" fill="#AA4650"/>
<path d="M28.0483 27.7338C27.8802 27.8073 26.8928 27.8178 26.6408 27.5553C26.3887 27.2927 26.4412 27.1771 26.4412 27.1771L27.6387 27.1876L28.0483 27.7338Z" fill="#AA4650"/>
</g>
<defs>
<clipPath id="clip0_9_3449">
<rect width="50" height="50" fill="white" transform="translate(0.869141 0.895752)"/>
</clipPath>
</defs>
</svg>
