<svg width="51" height="51" viewBox="0 0 51 51" fill="none" xmlns="http://www.w3.org/2000/svg">
    <g clip-path="url(#clip0_9_3434)">
        <path
            d="M0.883545 31.068H50.8834V41.4128C50.8834 41.8889 50.4974 42.2749 50.0213 42.2749H1.74565C1.26958 42.2749 0.883545 41.8889 0.883545 41.4128V31.068Z"
            fill="#73AF00" />
        <path
            d="M1.74565 9.51636H50.0214C50.4975 9.51636 50.8835 9.90239 50.8835 10.3785V20.7233H0.883545V10.3784C0.883545 9.90229 1.26958 9.51636 1.74565 9.51636Z"
            fill="#FF4B55" />
        <path d="M50.8834 20.7228H0.883545V31.0675H50.8834V20.7228Z" fill="#41479B" />
        <path d="M50.8834 20.7228H0.883545V22.4469H50.8834V20.7228Z" fill="#F5F5F5" />
        <path d="M50.8842 29.3439H0.884277V31.068H50.8842V29.3439Z" fill="#F5F5F5" />
    </g>
    <defs>
        <clipPath id="clip0_9_3434">
            <rect width="50" height="50" fill="white" transform="translate(0.882812 0.895752)" />
        </clipPath>
    </defs>
</svg>
