<svg width="51" height="51" viewBox="0 0 51 51" fill="none" xmlns="http://www.w3.org/2000/svg">
    <g clip-path="url(#clip0_9_3426)">
        <path
            d="M49.4482 41.5445H1.17252C0.696444 41.5445 0.31041 41.1585 0.31041 40.6824V9.648C0.31041 9.17192 0.696444 8.78589 1.17252 8.78589H49.4483C49.9244 8.78589 50.3104 9.17192 50.3104 9.648V40.6824C50.3103 41.1586 49.9243 41.5445 49.4482 41.5445Z"
            fill="#F5F5F5" />
        <path
            d="M50.3103 22.5791H27.8966V8.78601H22.7241V22.5791H0.31041V27.7515H22.7241V41.5445H27.8966V27.7515H50.3103V22.5791Z"
            fill="#FF4B55" />
        <path
            d="M14.9655 14.5045C14.1116 14.5903 13.2751 14.6764 12.4374 14.7625C12.5235 13.9247 12.6095 13.0882 12.6955 12.2344C11.9124 12.3356 11.1223 12.3356 10.3392 12.2344C10.425 13.0882 10.511 13.9248 10.5973 14.7625C9.75947 14.6765 8.92285 14.5904 8.06914 14.5045C8.17041 15.2875 8.17041 16.0777 8.06914 16.8607C8.92304 16.7749 9.75956 16.6889 10.5973 16.6027C10.5111 17.4405 10.4251 18.277 10.3392 19.1308C11.1223 19.0296 11.9124 19.0296 12.6955 19.1308C12.6097 18.277 12.5235 17.4404 12.4374 16.6027C13.2752 16.6888 14.1117 16.7748 14.9655 16.8607C14.8643 16.0777 14.8643 15.2874 14.9655 14.5045Z"
            fill="#FF4B55" />
        <path
            d="M42.5516 14.5045C41.6977 14.5903 40.8612 14.6764 40.0235 14.7625C40.1096 13.9247 40.1956 13.0882 40.2816 12.2344C39.4985 12.3356 38.7084 12.3356 37.9253 12.2344C38.0111 13.0882 38.0971 13.9248 38.1834 14.7625C37.3456 14.6765 36.509 14.5904 35.6552 14.5045C35.7565 15.2875 35.7565 16.0777 35.6552 16.8607C36.5091 16.7749 37.3457 16.6889 38.1834 16.6027C38.0972 17.4405 38.0112 18.277 37.9253 19.1308C38.7084 19.0296 39.4985 19.0296 40.2816 19.1308C40.1958 18.277 40.1096 17.4404 40.0235 16.6027C40.8613 16.6888 41.6978 16.7748 42.5516 16.8607C42.4504 16.0777 42.4504 15.2874 42.5516 14.5045Z"
            fill="#FF4B55" />
        <path
            d="M14.9655 33.4699C14.1116 33.5558 13.2751 33.6418 12.4374 33.728C12.5235 32.8902 12.6095 32.0536 12.6955 31.1998C11.9124 31.3011 11.1223 31.3011 10.3392 31.1998C10.425 32.0536 10.511 32.8903 10.5973 33.728C9.75947 33.6419 8.92285 33.5559 8.06914 33.4699C8.17041 34.253 8.17041 35.0432 8.06914 35.8262C8.92304 35.7404 9.75956 35.6543 10.5973 35.5682C10.5111 36.406 10.4251 37.2425 10.3392 38.0963C11.1223 37.995 11.9124 37.995 12.6955 38.0963C12.6097 37.2425 12.5235 36.4059 12.4374 35.5682C13.2752 35.6542 14.1117 35.7403 14.9655 35.8262C14.8643 35.0433 14.8643 34.253 14.9655 33.4699Z"
            fill="#FF4B55" />
        <path
            d="M42.5516 33.4699C41.6977 33.5558 40.8612 33.6418 40.0235 33.728C40.1096 32.8902 40.1956 32.0536 40.2816 31.1998C39.4985 31.3011 38.7084 31.3011 37.9253 31.1998C38.0111 32.0536 38.0971 32.8903 38.1834 33.728C37.3456 33.6419 36.509 33.5559 35.6552 33.4699C35.7565 34.253 35.7565 35.0432 35.6552 35.8262C36.5091 35.7404 37.3457 35.6543 38.1834 35.5682C38.0972 36.406 38.0112 37.2425 37.9253 38.0963C38.7084 37.995 39.4985 37.995 40.2816 38.0963C40.1958 37.2425 40.1096 36.4059 40.0235 35.5682C40.8613 35.6542 41.6978 35.7403 42.5516 35.8262C42.4504 35.0433 42.4504 34.253 42.5516 33.4699Z"
            fill="#FF4B55" />
    </g>
    <defs>
        <clipPath id="clip0_9_3426">
            <rect width="50" height="50" fill="white" transform="translate(0.310547 0.165283)" />
        </clipPath>
    </defs>
</svg>
