<svg width="51" height="51" viewBox="0 0 51 51" fill="none" xmlns="http://www.w3.org/2000/svg">
<g clip-path="url(#clip0_9_3417)">
<path d="M50.0312 19.9792H0.0312881V9.92174C0.0312881 9.44567 0.417323 9.05963 0.893396 9.05963H49.1692C49.6453 9.05963 50.0313 9.44567 50.0313 9.92174L50.0312 19.9792Z" fill="#FF4B55"/>
<path d="M49.1691 41.8183H0.893396C0.417323 41.8183 0.0312881 41.4323 0.0312881 40.9562V30.8988H50.0312V40.9562C50.0312 41.4324 49.6452 41.8183 49.1691 41.8183Z" fill="#73AF00"/>
<path d="M50.0312 19.9791H0.0312881V30.898H50.0312V19.9791Z" fill="#FFE15A"/>
<path d="M25.3948 21.3286L26.2945 24.0261L29.138 24.0482C29.5061 24.051 29.6588 24.5209 29.3627 24.7396L27.0753 26.4289L27.933 29.1401C28.0441 29.4911 27.6444 29.7815 27.3448 29.5673L25.0313 27.9136L22.7178 29.5671C22.4184 29.7813 22.0187 29.4909 22.1297 29.1399L22.9874 26.4287L20.6999 24.7394C20.4038 24.5207 20.5563 24.0509 20.9246 24.048L23.7681 24.0259L24.6678 21.3284C24.7843 20.9794 25.2783 20.9794 25.3948 21.3286Z" fill="#464655"/>
</g>
<defs>
<clipPath id="clip0_9_3417">
<rect width="50" height="50" fill="white" transform="translate(0.03125 0.438965)"/>
</clipPath>
</defs>
</svg>
