<svg width="51" height="51" viewBox="0 0 51 51" fill="none" xmlns="http://www.w3.org/2000/svg">
    <g clip-path="url(#clip0_9_3393)">
        <path d="M50.7521 12.6998H0.752174V16.3394H50.7521V12.6998Z" fill="#F5F5F5" />
        <path d="M50.7523 19.9789H0.752396V23.6186H50.7523V19.9789Z" fill="#F5F5F5" />
        <path d="M50.7523 27.2592H0.752396V30.8989H50.7523V27.2592Z" fill="#F5F5F5" />
        <path d="M50.7521 30.899H0.752174V34.5386H50.7521V30.899Z" fill="#41479B" />
        <path d="M50.7521 34.5386H0.752174V38.1783H50.7521V34.5386Z" fill="#F5F5F5" />
        <path
            d="M1.6145 41.8182H49.8903C50.3664 41.8182 50.7524 41.4322 50.7524 40.9561V38.1783H0.752396V40.9561C0.752396 41.4323 1.13843 41.8182 1.6145 41.8182Z"
            fill="#41479B" />
        <path
            d="M50.7521 12.6996V9.92174C50.7521 9.44567 50.366 9.05963 49.89 9.05963H1.61428C1.13821 9.05973 0.752174 9.44567 0.752174 9.92174V16.3394V19.9791V27.2589H50.7521V23.6191H17.9935V19.9792H50.7521V16.3394H17.9935V12.6996H50.7521Z"
            fill="#41479B" />
        <path
            d="M17.9935 16.3394H11.1928V9.05975H7.55294V16.3394H0.752174V19.9793H7.55294V27.2589H11.1928V19.9793H17.9935V16.3394Z"
            fill="#F5F5F5" />
    </g>
    <defs>
        <clipPath id="clip0_9_3393">
            <rect width="50" height="50" fill="white" transform="translate(0.751953 0.438965)" />
        </clipPath>
    </defs>
</svg>
