<svg width="51" height="51" viewBox="0 0 51 51" fill="none" xmlns="http://www.w3.org/2000/svg">
    <g clip-path="url(#clip0_9_3387)">
        <path
            d="M50.1789 25.4389H0.179016V9.92168C0.179016 9.4456 0.565051 9.05957 1.04112 9.05957H49.3169C49.793 9.05957 50.179 9.4456 50.179 9.92168L50.1789 25.4389Z"
            fill="#F5F5F5" />
        <path
            d="M0.17836 25.439H50.1783V40.9563C50.1783 41.4324 49.7922 41.8184 49.3162 41.8184H1.04047C0.564394 41.8184 0.17836 41.4324 0.17836 40.9563V25.439Z"
            fill="#FF4B55" />
        <path
            d="M17.4196 14.2321C11.2301 14.2321 6.21268 19.2497 6.21268 25.439H28.6264C28.6264 19.2497 23.609 14.2321 17.4196 14.2321Z"
            fill="#FF4B55" />
        <path
            d="M17.4202 36.6458C23.6097 36.6458 28.6272 31.6282 28.6272 25.4389H6.21333C6.21333 31.6283 11.2309 36.6458 17.4202 36.6458Z"
            fill="#F5F5F5" />
    </g>
    <defs>
        <clipPath id="clip0_9_3387">
            <rect width="50" height="50" fill="white" transform="translate(0.179688 0.438965)" />
        </clipPath>
    </defs>
</svg>
