<svg width="51" height="51" viewBox="0 0 51 51" fill="none" xmlns="http://www.w3.org/2000/svg">
<g clip-path="url(#clip0_9_3370)">
<path d="M49.7476 41.8182H1.47189C0.995821 41.8182 0.609787 41.4321 0.609787 40.9561V9.92174C0.609787 9.44567 0.995821 9.05963 1.47189 9.05963H49.7477C50.2238 9.05963 50.6098 9.44567 50.6098 9.92174V40.9561C50.6097 41.4322 50.2237 41.8182 49.7476 41.8182Z" fill="#FF4B55"/>
<path d="M45.4372 14.2321V36.6458H5.78221V14.2321H45.4372Z" fill="#FFE15A"/>
<path d="M5.78221 14.2321L25.6097 25.4389L5.78221 36.6457V14.2321Z" fill="#73AF00"/>
<path d="M45.4375 14.2321L25.61 25.4389L45.4375 36.6457V14.2321Z" fill="#73AF00"/>
<path d="M25.6097 28.8871C27.5141 28.8871 29.0579 27.3433 29.0579 25.4389C29.0579 23.5345 27.5141 21.9907 25.6097 21.9907C23.7053 21.9907 22.1615 23.5345 22.1615 25.4389C22.1615 27.3433 23.7053 28.8871 25.6097 28.8871Z" fill="#FF4B55"/>
<path d="M25.8284 22.9125L26.3677 24.5295L28.0722 24.5427C28.2929 24.5445 28.3844 24.826 28.2069 24.9572L26.8357 25.9698L27.3499 27.595C27.4166 27.8054 27.177 27.9794 26.9973 27.8511L25.6105 26.8598L24.2238 27.8511C24.0443 27.9794 23.8047 27.8054 23.8712 27.595L24.3855 25.9698L23.0143 24.9572C22.8368 24.826 22.9283 24.5445 23.149 24.5427L24.8535 24.5295L25.3928 22.9125C25.4624 22.7031 25.7585 22.7031 25.8284 22.9125Z" fill="#FFE15A"/>
<path d="M25.7388 10.2039L26.0575 11.1593L27.0646 11.167C27.195 11.168 27.2491 11.3345 27.1441 11.4118L26.3339 12.0101L26.6377 12.9703C26.677 13.0946 26.5354 13.1975 26.4294 13.1216L25.6101 12.5362L24.7907 13.1219C24.6846 13.1977 24.543 13.0948 24.5824 12.9706L24.8862 12.0103L24.076 11.4121C23.9711 11.3347 24.0251 11.1683 24.1554 11.1673L25.1626 11.1596L25.4812 10.2042C25.5225 10.0802 25.6975 10.0802 25.7388 10.2039Z" fill="#FFE15A"/>
<path d="M37.0803 10.2039L37.3989 11.1593L38.406 11.167C38.5364 11.1679 38.5905 11.3344 38.4855 11.4118L37.6753 12.01L37.9791 12.9703C38.0184 13.0946 37.8768 13.1974 37.7708 13.1216L36.9514 12.5359L36.1319 13.1216C36.0259 13.1974 35.8843 13.0945 35.9236 12.9703L36.2274 12.01L35.4172 11.4118C35.3123 11.3343 35.3663 11.1679 35.4967 11.167L36.5038 11.1593L36.8224 10.2039C36.864 10.0802 37.0389 10.0802 37.0803 10.2039Z" fill="#FFE15A"/>
<path d="M14.3975 10.2039L14.7161 11.1593L15.7232 11.167C15.8536 11.1679 15.9077 11.3344 15.8027 11.4118L14.9925 12.01L15.2963 12.9703C15.3356 13.0946 15.194 13.1974 15.088 13.1216L14.2685 12.5359L13.4491 13.1216C13.3431 13.1974 13.2015 13.0945 13.2408 12.9703L13.5446 12.01L12.7344 11.4118C12.6295 11.3343 12.6835 11.1679 12.8139 11.167L13.821 11.1593L14.1396 10.2039C14.1812 10.0802 14.3562 10.0802 14.3975 10.2039Z" fill="#FFE15A"/>
<path d="M25.7388 37.7429L26.0575 38.6983L27.0646 38.706C27.195 38.707 27.2491 38.8735 27.1441 38.9508L26.3339 39.549L26.6377 40.5093C26.677 40.6336 26.5354 40.7364 26.4294 40.6606L25.6101 40.0752L24.7907 40.6609C24.6846 40.7367 24.543 40.6338 24.5824 40.5096L24.8862 39.5493L24.076 38.9511C23.9711 38.8737 24.0251 38.7072 24.1554 38.7063L25.1626 38.6986L25.4812 37.7432C25.5225 37.6193 25.6975 37.6193 25.7388 37.7429Z" fill="#FFE15A"/>
<path d="M37.0803 37.7429L37.3989 38.6982L38.406 38.706C38.5364 38.7069 38.5905 38.8734 38.4855 38.9508L37.6753 39.549L37.9791 40.5093C38.0184 40.6336 37.8768 40.7364 37.7708 40.6605L36.9514 40.0749L36.1319 40.6605C36.0259 40.7364 35.8843 40.6335 35.9236 40.5093L36.2274 39.549L35.4172 38.9508C35.3123 38.8733 35.3663 38.7069 35.4967 38.706L36.5038 38.6982L36.8224 37.7429C36.864 37.6192 37.0389 37.6192 37.0803 37.7429Z" fill="#FFE15A"/>
<path d="M14.3975 37.7429L14.7161 38.6982L15.7232 38.706C15.8536 38.7069 15.9077 38.8734 15.8027 38.9508L14.9925 39.549L15.2963 40.5093C15.3356 40.6336 15.194 40.7364 15.088 40.6605L14.2685 40.0749L13.4491 40.6605C13.3431 40.7364 13.2015 40.6335 13.2408 40.5093L13.5446 39.549L12.7344 38.9508C12.6295 38.8733 12.6835 38.7069 12.8139 38.706L13.821 38.6982L14.1396 37.7429C14.1812 37.6192 14.3562 37.6192 14.3975 37.7429Z" fill="#FFE15A"/>
<path d="M12.1405 23.2838H9.98529V25.4389C9.98529 26.6293 10.9501 27.5941 12.1405 27.5941C13.3308 27.5941 14.2956 26.6293 14.2956 25.4389C14.2956 24.2486 13.3307 23.2838 12.1405 23.2838Z" fill="#FFE15A"/>
<path d="M14.2949 27.5941L13.1102 27.3644L12.1398 25.4389L14.0652 26.4095L14.2949 27.5941Z" fill="#FF4B55"/>
</g>
<defs>
<clipPath id="clip0_9_3370">
<rect width="50" height="50" fill="white" transform="translate(0.609375 0.438965)"/>
</clipPath>
</defs>
</svg>
