<svg width="51" height="51" viewBox="0 0 51 51" fill="none" xmlns="http://www.w3.org/2000/svg">
<g clip-path="url(#clip0_9_3356)">
<path d="M49.1764 41.8182H0.900682C0.424609 41.8182 0.0385742 41.4321 0.0385742 40.9561V9.92174C0.0385742 9.44567 0.424609 9.05963 0.900682 9.05963H49.1765C49.6525 9.05963 50.0386 9.44567 50.0386 9.92174V40.9561C50.0385 41.4322 49.6524 41.8182 49.1764 41.8182Z" fill="#41479B"/>
<path d="M25.0386 16.8182C21.7624 18.542 19.5528 22.6473 19.5528 25.4389C19.5528 28.2305 21.7624 32.336 25.0386 34.0596C28.3149 32.3359 30.5245 28.2305 30.5245 25.4389C30.5245 22.6473 28.315 18.542 25.0386 16.8182Z" fill="#3CC8FF"/>
<path d="M25.7459 22.4871C26.2752 22.2081 27.1789 21.901 28.2057 22.2779C28.2057 22.2779 27.2168 21.1762 25.8443 22.0738C26.2136 21.626 26.7681 21.0718 27.3685 20.9174C27.3685 20.9174 26.1735 20.4711 25.4505 22.0647C25.5905 21.2609 25.565 19.9953 24.2694 19.2606C24.2694 19.2606 24.9938 20.8152 25.065 22.1052C25.0229 21.8763 24.9387 21.6371 24.7162 21.405C24.0311 20.6903 23.4355 20.6307 23.4355 20.6307C23.4355 20.6307 24.3853 21.6833 24.852 22.6791C24.5832 22.3574 24.1094 21.9455 23.3462 21.9709C21.5591 22.0304 21.172 23.1026 21.172 23.1026C21.9128 22.7907 23.0885 22.6353 23.9999 22.7124C22.8232 22.9197 22.4052 24.3856 22.4052 24.3856C23.35 23.2075 24.3812 23.0161 24.793 22.9881C24.0408 23.6102 24.0866 24.756 24.0866 24.756C24.2614 24.111 24.9386 23.3758 25.2685 23.0464C26.157 24.0076 26.2622 25.0881 26.2622 25.0881C26.2622 25.0881 26.4566 24.763 26.367 24.1013C26.2822 23.4767 25.8902 23.0667 25.5911 22.8258C27.1598 23.042 28.1835 24.1798 28.1835 24.1798C27.6703 22.6826 26.3858 22.4876 25.7459 22.4871Z" fill="#73AF00"/>
<path d="M48.3143 10.7837V40.094H1.76269V10.7837H48.3143ZM49.1764 9.05963H0.900682C0.424609 9.05963 0.0385742 9.44567 0.0385742 9.92174V40.9561C0.0385742 41.4321 0.424609 41.8182 0.900682 41.8182H49.1765C49.6525 41.8182 50.0386 41.4321 50.0386 40.9561V9.92174C50.0385 9.44567 49.6524 9.05963 49.1764 9.05963Z" fill="#FF4B55"/>
<path d="M23.2872 27.5224L24.0776 26.1574L30.57 26.0137L30.139 27.8096L23.2872 27.5224Z" fill="#FF965A"/>
<path d="M19.7892 27.163C20.44 29.717 22.3899 32.6662 25.0382 34.0596C27.6865 32.6662 29.6364 29.717 30.2872 27.163H19.7892Z" fill="#4173CD"/>
<path d="M20.7285 29.7493C20.7285 29.7493 22.6089 29.6563 23.7386 30.1201C24.0208 30.236 24.0573 30.6172 23.8024 30.7849C23.2521 31.147 22.4526 31.7702 22.4526 32.3356L20.7285 29.7493Z" fill="#FFE15A"/>
<path d="M24.0332 33.1975C23.9613 32.4791 24.597 31.9566 25.4699 31.6171C26.6014 31.1771 25.9817 30.4766 25.416 30.0187C24.7413 29.4726 25.6136 29.3183 29.2773 29.2465L27.4814 32.0482L25.0389 34.0597L24.0332 33.1975Z" fill="#FFE15A"/>
<path d="M25.0386 34.5471L24.8378 34.4411C21.4187 32.6428 19.1215 28.3342 19.1215 25.439C19.1215 22.5439 21.4185 18.2351 24.8378 16.437L25.0386 16.3309L25.2394 16.437C28.6586 18.2352 30.9556 22.5438 30.9556 25.439C30.9556 28.3341 28.6586 32.6429 25.2394 34.4411L25.0386 34.5471ZM25.0386 17.3092C22.0058 19.0216 19.9836 22.852 19.9836 25.4389C19.9836 28.0258 22.0058 31.8565 25.0386 33.5687C28.0714 31.8563 30.0936 28.0258 30.0936 25.4389C30.0936 22.852 28.0715 19.0215 25.0386 17.3092Z" fill="#FF4B55"/>
<path d="M26.8704 30.3597C26.8309 30.3597 26.7913 30.3491 26.7559 30.3267C25.5844 29.5905 24.9127 28.3719 24.9127 26.9833V23.0144C24.9127 22.8953 25.0092 22.7988 25.1282 22.7988C25.2473 22.7988 25.3437 22.8953 25.3437 23.0144V26.9833C25.3437 28.2204 25.9419 29.306 26.9849 29.9614C27.0859 30.025 27.1162 30.158 27.053 30.2586C27.0119 30.3239 26.942 30.3597 26.8704 30.3597Z" fill="#A54B37"/>
<path d="M25.1275 23.4992C25.3879 23.4992 25.599 23.2881 25.599 23.0277C25.599 22.7673 25.3879 22.5562 25.1275 22.5562C24.8671 22.5562 24.656 22.7673 24.656 23.0277C24.656 23.2881 24.8671 23.4992 25.1275 23.4992Z" fill="#A54B37"/>
</g>
<defs>
<clipPath id="clip0_9_3356">
<rect width="50" height="50" fill="white" transform="translate(0.0390625 0.438965)"/>
</clipPath>
</defs>
</svg>
