<svg width="51" height="51" viewBox="0 0 51 51" fill="none" xmlns="http://www.w3.org/2000/svg">
<g clip-path="url(#clip0_9_3283)">
<path d="M17.136 41.818H1.33144C0.855365 41.818 0.46933 41.4319 0.46933 40.9558V9.92137C0.46933 9.4453 0.855365 9.05927 1.33144 9.05927H17.136V41.818Z" fill="#82AFFF"/>
<path d="M33.8032 9.05975H17.1362V41.8185H33.8032V9.05975Z" fill="#F5F5F5"/>
<path d="M49.607 41.818H33.8025V9.05939H49.607C50.0831 9.05939 50.4692 9.44542 50.4692 9.9215V40.956C50.4692 41.4321 50.0831 41.818 49.607 41.818Z" fill="#82AFFF"/>
<path d="M25.2517 21.1525L24.7573 21.3998L25.2121 21.5875L25.2517 21.1525Z" fill="#FFC855"/>
<path d="M25.4693 30.2876C22.7218 30.2876 20.4866 28.0523 20.4866 25.3049C20.4866 23.5981 21.3457 22.0287 22.7846 21.1068L22.9125 21.3066C21.542 22.1848 20.7239 23.6795 20.7239 25.3049C20.7239 27.9216 22.8528 30.0504 25.4694 30.0504L25.4693 30.2876Z" fill="#73AF00"/>
<path d="M22.6175 30.5985C22.8073 30.6371 23.1002 30.5871 23.401 30.447C23.7018 30.3068 23.9285 30.1148 24.021 29.9446C23.8311 29.9059 23.5383 29.956 23.2375 30.096C22.9368 30.2364 22.71 30.4283 22.6175 30.5985Z" fill="#73AF00"/>
<path d="M24.0215 29.9447C24.0602 29.7548 24.0101 29.4619 23.8701 29.1612C23.7298 28.8603 23.5378 28.6336 23.3676 28.5411C23.329 28.731 23.3791 29.0239 23.5191 29.3246C23.6592 29.6252 23.8512 29.852 24.0215 29.9447Z" fill="#73AF00"/>
<path d="M21.6248 29.9892C21.8069 30.0554 22.104 30.0488 22.422 29.9544C22.7401 29.86 22.9926 29.7032 23.1091 29.5485C22.927 29.4823 22.6299 29.4889 22.3119 29.5832C21.9938 29.6777 21.7413 29.8343 21.6248 29.9892Z" fill="#73AF00"/>
<path d="M23.1095 29.5483C23.1758 29.3662 23.1691 29.0691 23.0748 28.751C22.9803 28.4329 22.8236 28.1804 22.6688 28.0639C22.6026 28.246 22.6093 28.5431 22.7036 28.8612C22.798 29.1793 22.9548 29.4319 23.1095 29.5483Z" fill="#73AF00"/>
<path d="M20.7065 29.1583C20.8738 29.2561 21.1672 29.3031 21.4971 29.2673C21.8271 29.2316 22.1036 29.1227 22.246 28.9913C22.0787 28.8936 21.7853 28.8466 21.4553 28.8823C21.1254 28.9181 20.8489 29.027 20.7065 29.1583Z" fill="#73AF00"/>
<path d="M22.2461 28.9912C22.3439 28.824 22.3908 28.5306 22.3551 28.2006C22.3194 27.8706 22.2105 27.5942 22.0791 27.4518C21.9814 27.6191 21.9344 27.9124 21.9701 28.2424C22.0059 28.5724 22.1148 28.849 22.2461 28.9912Z" fill="#73AF00"/>
<path d="M19.9478 28.0108C20.095 28.1367 20.3755 28.2349 20.7065 28.258C21.0376 28.2812 21.3291 28.223 21.4924 28.119C21.3451 27.9932 21.0646 27.895 20.7336 27.8719C20.4025 27.8487 20.1111 27.9068 19.9478 28.0108Z" fill="#73AF00"/>
<path d="M21.4921 28.119C21.618 27.9718 21.7161 27.6913 21.7393 27.3602C21.7624 27.0292 21.7043 26.7377 21.6003 26.5744C21.4744 26.7217 21.3763 27.0021 21.3531 27.3332C21.3299 27.6643 21.388 27.9557 21.4921 28.119Z" fill="#73AF00"/>
<path d="M19.5034 26.7471C19.6209 26.9011 19.8744 27.0561 20.1932 27.1483C20.512 27.2406 20.809 27.2451 20.9908 27.1777C20.8732 27.0237 20.6198 26.8687 20.3009 26.7765C19.9821 26.6842 19.685 26.6796 19.5034 26.7471Z" fill="#73AF00"/>
<path d="M20.9908 27.1777C21.1448 27.0601 21.2998 26.8067 21.3921 26.4879C21.4845 26.169 21.4889 25.872 21.4215 25.6903C21.2675 25.8079 21.1125 26.0613 21.0202 26.3802C20.9279 26.6991 20.9235 26.996 20.9908 27.1777Z" fill="#73AF00"/>
<path d="M19.3152 25.2713C19.3892 25.4504 19.5943 25.6652 19.8786 25.8365C20.163 26.0077 20.4488 26.0885 20.6418 26.07C20.5678 25.8909 20.3627 25.6761 20.0783 25.5048C19.7941 25.3336 19.508 25.253 19.3152 25.2713Z" fill="#73AF00"/>
<path d="M20.6418 26.07C20.8209 25.996 21.0357 25.7909 21.207 25.5065C21.3782 25.2222 21.459 24.9363 21.4405 24.7433C21.2614 24.8174 21.0466 25.0224 20.8753 25.3068C20.7042 25.5913 20.6233 25.8771 20.6418 26.07Z" fill="#73AF00"/>
<path d="M19.4933 23.8781C19.5281 24.0687 19.6837 24.3218 19.9258 24.5489C20.1679 24.7759 20.4307 24.9147 20.6229 24.9372C20.5882 24.7466 20.4326 24.4935 20.1905 24.2664C19.9484 24.0395 19.6858 23.9005 19.4933 23.8781Z" fill="#73AF00"/>
<path d="M20.6231 24.9373C20.8137 24.9026 21.0669 24.747 21.2939 24.5049C21.521 24.2628 21.6597 24 21.6823 23.8077C21.4917 23.8425 21.2385 23.9981 21.0115 24.2402C20.7844 24.4822 20.6455 24.7448 20.6231 24.9373Z" fill="#73AF00"/>
<path d="M20.1933 22.3705C20.1534 22.56 20.2016 22.8532 20.3398 23.155C20.4781 23.4567 20.6687 23.6845 20.8384 23.7782C20.8782 23.5886 20.8301 23.2955 20.6918 22.9937C20.5535 22.6919 20.3629 22.4639 20.1933 22.3705Z" fill="#73AF00"/>
<path d="M20.8385 23.7783C21.028 23.8181 21.3212 23.77 21.6229 23.6317C21.9247 23.4934 22.1525 23.3028 22.2462 23.1331C22.0566 23.0933 21.7635 23.1414 21.4617 23.2797C21.16 23.418 20.932 23.6086 20.8385 23.7783Z" fill="#73AF00"/>
<path d="M21.0305 21.254C20.9412 21.4259 20.9088 21.7213 20.9608 22.049C21.0129 22.3769 21.1351 22.6477 21.2734 22.7833C21.3628 22.6115 21.3952 22.316 21.3431 21.9883C21.2911 21.6606 21.1687 21.3898 21.0305 21.254Z" fill="#73AF00"/>
<path d="M21.2732 22.7834C21.4451 22.8728 21.7405 22.9052 22.0682 22.8532C22.3961 22.8011 22.6669 22.6789 22.8025 22.5406C22.6306 22.4512 22.3352 22.4188 22.0075 22.4709C21.6797 22.5229 21.4089 22.6452 21.2732 22.7834Z" fill="#73AF00"/>
<path d="M21.851 20.477C21.7373 20.6339 21.6618 20.9211 21.665 21.2531C21.6682 21.585 21.7494 21.8707 21.8661 22.0253C21.9797 21.8684 22.0553 21.5812 22.0521 21.2493C22.0489 20.9174 21.9678 20.6315 21.851 20.477Z" fill="#73AF00"/>
<path d="M21.8662 22.0253C22.0231 22.139 22.3104 22.2146 22.6423 22.2114C22.9742 22.2081 23.26 22.127 23.4146 22.0103C23.2576 21.8966 22.9704 21.821 22.6385 21.8243C22.3066 21.8275 22.0209 21.9087 21.8662 22.0253Z" fill="#73AF00"/>
<path d="M22.2643 21.6183C22.4574 21.6339 22.7423 21.5492 23.0241 21.374C23.306 21.1988 23.5081 20.981 23.5796 20.8009C23.3865 20.7853 23.1016 20.8699 22.8198 21.0452C22.538 21.2203 22.3359 21.4381 22.2643 21.6183Z" fill="#73AF00"/>
<path d="M25.4692 30.2876V30.0503C28.0858 30.0503 30.2147 27.9215 30.2147 25.3048C30.2147 23.6794 29.3966 22.1846 28.0262 21.3064L28.1541 21.1066C29.593 22.0286 30.4521 23.598 30.4521 25.3048C30.452 28.0521 28.2168 30.2876 25.4692 30.2876Z" fill="#73AF00"/>
<path d="M28.3207 30.5985C28.1309 30.6371 27.838 30.5871 27.5372 30.447C27.2363 30.3068 27.0097 30.1148 26.9172 29.9446C27.107 29.9059 27.3999 29.956 27.7007 30.096C28.0014 30.2364 28.2281 30.4283 28.3207 30.5985Z" fill="#73AF00"/>
<path d="M26.9174 29.9447C26.8787 29.7548 26.9288 29.4619 27.0688 29.1612C27.2091 28.8603 27.4011 28.6336 27.5713 28.5411C27.61 28.731 27.5599 29.0239 27.4198 29.3246C27.2797 29.6252 27.0877 29.852 26.9174 29.9447Z" fill="#73AF00"/>
<path d="M29.3138 29.9892C29.1317 30.0554 28.8346 30.0488 28.5166 29.9544C28.1985 29.86 27.946 29.7032 27.8295 29.5485C28.0116 29.4823 28.3087 29.4889 28.6267 29.5832C28.9448 29.6777 29.1973 29.8343 29.3138 29.9892Z" fill="#73AF00"/>
<path d="M27.8291 29.5483C27.763 29.3662 27.7695 29.0691 27.8639 28.751C27.9584 28.4329 28.115 28.1804 28.2698 28.0639C28.336 28.246 28.3294 28.5431 28.2351 28.8612C28.1407 29.1793 27.984 29.4319 27.8291 29.5483Z" fill="#73AF00"/>
<path d="M30.2316 29.1583C30.0643 29.2561 29.771 29.3031 29.441 29.2673C29.111 29.2316 28.8346 29.1227 28.6922 28.9913C28.8595 28.8936 29.1528 28.8466 29.4828 28.8823C29.8128 28.9181 30.0892 29.027 30.2316 29.1583Z" fill="#73AF00"/>
<path d="M28.6925 28.9912C28.5948 28.824 28.5478 28.5306 28.5835 28.2006C28.6193 27.8706 28.7281 27.5942 28.8595 27.4518C28.9573 27.6191 29.0042 27.9124 28.9685 28.2424C28.9327 28.5724 28.8239 28.849 28.6925 28.9912Z" fill="#73AF00"/>
<path d="M30.991 28.0108C30.8437 28.1367 30.5633 28.2349 30.2322 28.258C29.9012 28.2812 29.6098 28.223 29.4464 28.119C29.5936 27.9932 29.8741 27.895 30.2052 27.8719C30.5362 27.8487 30.8276 27.9068 30.991 28.0108Z" fill="#73AF00"/>
<path d="M29.4459 28.119C29.32 27.9718 29.2219 27.6913 29.1987 27.3602C29.1756 27.0292 29.2337 26.7377 29.3377 26.5744C29.4636 26.7217 29.5617 27.0021 29.5849 27.3332C29.6081 27.6643 29.55 27.9557 29.4459 28.119Z" fill="#73AF00"/>
<path d="M31.4353 26.7471C31.3177 26.9011 31.0643 27.0561 30.7455 27.1483C30.4267 27.2407 30.1296 27.2451 29.9479 27.1777C30.0655 27.0237 30.3189 26.8687 30.6378 26.7765C30.9566 26.6842 31.2537 26.6796 31.4353 26.7471Z" fill="#73AF00"/>
<path d="M29.948 27.1777C29.794 27.0601 29.639 26.8067 29.5467 26.4879C29.4543 26.169 29.4499 25.872 29.5173 25.6903C29.6713 25.8079 29.8263 26.0613 29.9186 26.3802C30.0109 26.6991 30.0153 26.996 29.948 27.1777Z" fill="#73AF00"/>
<path d="M31.6234 25.2713C31.5494 25.4504 31.3443 25.6652 31.06 25.8365C30.7756 26.0077 30.4898 26.0885 30.2968 26.07C30.3708 25.8909 30.5759 25.6761 30.8603 25.5048C31.1445 25.3336 31.4306 25.253 31.6234 25.2713Z" fill="#73AF00"/>
<path d="M30.2968 26.07C30.1177 25.996 29.9028 25.7909 29.7315 25.5065C29.5603 25.2222 29.4796 24.9363 29.498 24.7433C29.6771 24.8174 29.892 25.0224 30.0633 25.3068C30.2346 25.5913 30.3152 25.8771 30.2968 26.07Z" fill="#73AF00"/>
<path d="M31.445 23.8781C31.4102 24.0687 31.2546 24.3218 31.0125 24.5489C30.7704 24.7759 30.5077 24.9147 30.3154 24.9372C30.3501 24.7466 30.5057 24.4935 30.7478 24.2664C30.9899 24.0394 31.2525 23.9005 31.445 23.8781Z" fill="#73AF00"/>
<path d="M30.3152 24.9373C30.1246 24.9026 29.8715 24.747 29.6445 24.5049C29.4174 24.2628 29.2786 24 29.2561 23.8077C29.4467 23.8425 29.6998 23.9981 29.9269 24.2402C30.1539 24.4822 30.2929 24.7448 30.3152 24.9373Z" fill="#73AF00"/>
<path d="M30.7451 22.3705C30.785 22.56 30.7368 22.8532 30.5986 23.155C30.4603 23.4567 30.2697 23.6845 30.1 23.7782C30.0602 23.5886 30.1083 23.2955 30.2466 22.9937C30.3849 22.6919 30.5755 22.4639 30.7451 22.3705Z" fill="#73AF00"/>
<path d="M30.0999 23.7783C29.9103 23.8181 29.6172 23.77 29.3154 23.6317C29.0137 23.4934 28.7858 23.3028 28.6922 23.1331C28.8817 23.0933 29.1749 23.1414 29.4766 23.2797C29.7784 23.418 30.0063 23.6086 30.0999 23.7783Z" fill="#73AF00"/>
<path d="M29.9083 21.254C29.9977 21.4259 30.0301 21.7213 29.9781 22.049C29.926 22.3769 29.8037 22.6477 29.6655 22.7833C29.5761 22.6115 29.5437 22.316 29.5957 21.9883C29.6478 21.6606 29.7701 21.3898 29.9083 21.254Z" fill="#73AF00"/>
<path d="M29.6651 22.7834C29.4932 22.8728 29.1978 22.9052 28.8701 22.8532C28.5422 22.8011 28.2714 22.6789 28.1358 22.5406C28.3077 22.4512 28.6031 22.4188 28.9308 22.4709C29.2587 22.5229 29.5295 22.6452 29.6651 22.7834Z" fill="#73AF00"/>
<path d="M29.0872 20.477C29.2008 20.6339 29.2764 20.9211 29.2732 21.2531C29.27 21.585 29.1888 21.8707 29.0721 22.0253C28.9584 21.8684 28.8829 21.5812 28.8861 21.2493C28.8893 20.9174 28.9704 20.6315 29.0872 20.477Z" fill="#73AF00"/>
<path d="M29.0722 22.0253C28.9153 22.139 28.6281 22.2146 28.2961 22.2114C27.9642 22.2081 27.6785 22.127 27.5239 22.0103C27.6808 21.8966 27.968 21.821 28.2999 21.8243C28.6319 21.8275 28.9175 21.9087 29.0722 22.0253Z" fill="#73AF00"/>
<path d="M28.6738 21.6183C28.4808 21.6339 28.1959 21.5492 27.9141 21.374C27.6321 21.1988 27.4301 20.981 27.3586 20.8009C27.5517 20.7853 27.8365 20.8699 28.1184 21.0452C28.4002 21.2203 28.6023 21.4381 28.6738 21.6183Z" fill="#73AF00"/>
<path d="M22.7491 29.184L21.8854 30.0476L21.4596 29.1958L22.7373 27.918L23.1632 28.3439L23.0401 28.713C22.981 28.8905 22.8813 29.0517 22.7491 29.184Z" fill="#966446"/>
<path d="M27.422 22.8074L22.7372 27.4922C22.6197 27.6098 22.6197 27.8005 22.7372 27.9181L22.9501 28.131L23.802 27.2791L27.2091 23.446L27.635 23.0201L27.422 22.8074Z" fill="#B9B9B9"/>
<path d="M23.8902 26.7652C23.8338 26.8217 23.8019 26.8983 23.8019 26.9781V27.2793L27.2091 23.4462L23.8902 26.7652Z" fill="#966446"/>
<path d="M27.6349 23.0203L27.422 22.8074L27.209 23.0203L27.422 23.2334L27.6349 23.4464L29.9774 20.6781L27.6349 23.0203Z" fill="#A0A0A0"/>
<path d="M28.4269 29.184L29.2906 30.0476L29.7165 29.1958L28.4387 27.918L28.0128 28.3439L28.1359 28.713C28.1951 28.8905 28.2947 29.0517 28.4269 29.184Z" fill="#966446"/>
<path d="M23.7538 22.8074L28.4386 27.4922C28.5562 27.6098 28.5562 27.8005 28.4386 27.9181L28.2257 28.131L27.3738 27.2791L23.9667 23.446L23.5408 23.0201L23.7538 22.8074Z" fill="#B9B9B9"/>
<path d="M27.2859 26.7652C27.3423 26.8217 27.3741 26.8983 27.3741 26.9781V27.2793L23.967 23.4462L27.2859 26.7652Z" fill="#966446"/>
<path d="M23.5409 23.0203L23.7538 22.8074L23.9668 23.0203L23.7538 23.2334L23.5409 23.4464L21.1985 20.6781L23.5409 23.0203Z" fill="#A0A0A0"/>
<path d="M23.84 29.0068L24.0516 29.1997C24.8237 28.3532 26.1747 26.8719 28.3165 24.9489C28.3166 24.949 26.5422 26.0443 23.84 29.0068Z" fill="#B9B9B9"/>
<path d="M23.2411 29.8756C23.1651 29.8062 23.1597 29.6885 23.229 29.6125L23.6825 29.1152C23.7518 29.0392 23.8696 29.0339 23.9456 29.1031C24.0216 29.1724 24.0269 29.2902 23.9577 29.3662L23.5042 29.8635C23.4348 29.9395 23.3171 29.945 23.2411 29.8756Z" fill="#FFE15A"/>
<path d="M23.6679 28.8502L23.5451 28.9049C23.4358 28.9593 23.1483 29.1219 23.0988 29.3537C23.0751 29.4634 23.1084 29.5704 23.1937 29.6715C23.2018 29.6506 23.2128 29.6303 23.2289 29.6129L23.2861 29.5503C23.2475 29.4942 23.227 29.4391 23.2386 29.3839C23.2697 29.2389 23.463 29.1095 23.5845 29.0454L24.1279 29.541L24.263 29.3928L23.6679 28.8502Z" fill="#FFC855"/>
<path d="M27.334 29.2411L27.1224 29.434C26.3503 28.5876 24.9992 27.1062 22.8574 25.1832C22.8573 25.1833 24.6317 26.2784 27.334 29.2411Z" fill="#B9B9B9"/>
<path d="M27.9325 30.1101C28.0085 30.0407 28.0139 29.923 27.9446 29.847L27.4911 29.3497C27.4218 29.2737 27.304 29.2684 27.228 29.3376C27.1521 29.4069 27.1467 29.5247 27.2159 29.6007L27.6694 30.098C27.7388 30.174 27.8566 30.1794 27.9325 30.1101Z" fill="#FFE15A"/>
<path d="M27.5054 29.0844L27.6282 29.1391C27.7375 29.1935 28.025 29.3561 28.0745 29.5879C28.0982 29.6976 28.0649 29.8046 27.9796 29.9057C27.9715 29.8848 27.9605 29.8646 27.9444 29.847L27.8872 29.7844C27.9258 29.7284 27.9463 29.6733 27.9347 29.618C27.9036 29.4731 27.7103 29.3437 27.5888 29.2796L27.0454 29.7752L26.9103 29.627L27.5054 29.0844Z" fill="#FFC855"/>
<path d="M25.6804 21.4042C25.697 21.363 25.7067 21.3183 25.7067 21.2712C25.7067 21.0746 25.5473 20.9152 25.3507 20.9152C25.1541 20.9152 24.9948 21.0746 24.9948 21.2712C24.9948 21.3883 25.0521 21.4913 25.1395 21.5562C25.0108 22.5899 26.03 22.6689 26.4184 22.8135C27.0076 23.0326 27.7468 23.4763 27.7003 24.7162C27.6552 25.9215 26.893 27.0845 26.893 27.0845L27.5257 26.2243C27.2944 27.2028 26.7541 28.4493 25.4694 29.9316C25.4694 29.9316 26.3478 29.0724 27.0808 27.9642C26.5414 29.2331 25.9439 30.4061 25.9439 30.4061C25.9439 30.4061 27.0018 29.0319 27.857 26.6543C28.8937 23.7717 26.7128 22.0398 25.6804 21.4042Z" fill="#69B469"/>
<path d="M24.7586 25.6603H23.8095V26.1349H24.7586V25.6603Z" fill="#F4E08F"/>
<path d="M23.8085 26.6097C24.0706 26.6097 24.2831 26.3972 24.2831 26.1351C24.2831 25.873 24.0706 25.6605 23.8085 25.6605C23.5464 25.6605 23.3339 25.873 23.3339 26.1351C23.3339 26.3972 23.5464 26.6097 23.8085 26.6097Z" fill="#ECD077"/>
<path d="M23.809 23.5257C24.0711 23.5257 24.2836 23.3132 24.2836 23.0511C24.2836 22.789 24.0711 22.5765 23.809 22.5765C23.5469 22.5765 23.3344 22.789 23.3344 23.0511C23.3344 23.3132 23.5469 23.5257 23.809 23.5257Z" fill="#ECD077"/>
<path d="M26.6558 23.5253C26.9179 23.5253 27.1304 23.3128 27.1304 23.0507C27.1304 22.7885 26.9179 22.576 26.6558 22.576H23.8085C24.0706 22.576 24.2831 22.7885 24.2831 23.0507C24.2831 23.3128 24.0706 23.5253 23.8085 23.5253C23.5464 23.5253 23.3339 23.3128 23.3339 23.0507C23.3339 23.8472 24.0005 24.8103 24.2154 25.6607C24.2154 25.6607 24.283 25.8732 24.283 26.1353C24.283 26.3974 24.0705 26.6099 23.8084 26.6099H26.6557C26.9178 26.6099 27.1303 26.3974 27.1303 26.1353C27.1303 25.3387 26.4637 24.3757 26.2487 23.5253H26.6558Z" fill="#FCF0A8"/>
<path d="M24.2838 23.0508C24.2838 23.313 24.0713 23.5255 23.8092 23.5255H26.6565C26.9186 23.5255 27.1311 23.313 27.1311 23.0508H24.2838Z" fill="#F4E08F"/>
<path d="M24.2834 26.1352C24.2834 26.3973 24.0709 26.6098 23.8088 26.6098H26.656C26.9182 26.6098 27.1306 26.3973 27.1306 26.1352H24.2834Z" fill="#F4E08F"/>
</g>
<defs>
<clipPath id="clip0_9_3283">
<rect width="50" height="50" fill="white" transform="translate(0.46875 0.438965)"/>
</clipPath>
</defs>
</svg>
