<svg width="51" height="51" viewBox="0 0 51 51" fill="none" xmlns="http://www.w3.org/2000/svg">
<g clip-path="url(#clip0_9_3277)">
<path d="M50.036 41.8182H1.76027C1.2842 41.8182 0.898163 41.4321 0.898163 40.9561V9.92174C0.898163 9.44567 1.2842 9.05963 1.76027 9.05963H50.0361C50.5121 9.05963 50.8982 9.44567 50.8982 9.92174V40.9561C50.8981 41.4322 50.512 41.8182 50.036 41.8182Z" fill="#F5F5F5"/>
<path d="M50.8981 21.9907H29.3463V9.05963H22.4498V21.9907H0.898163V28.8871H22.4498V41.8182H29.3463V28.8871H50.8981V21.9907Z" fill="#FF4B55"/>
<path d="M36.2415 28.0251V22.8526L34.9484 24.1458H16.845L15.552 22.8526V28.0251L16.845 26.7319H34.9484L36.2415 28.0251Z" fill="#FFE15A"/>
<path d="M23.3107 35.7837H28.483L27.19 34.4905V16.3872L28.483 15.0941H23.3107L24.6037 16.3872V34.4905L23.3107 35.7837Z" fill="#FFE15A"/>
</g>
<defs>
<clipPath id="clip0_9_3277">
<rect width="50" height="50" fill="white" transform="translate(0.898438 0.438965)"/>
</clipPath>
</defs>
</svg>
