<svg width="51" height="51" viewBox="0 0 51 51" fill="none" xmlns="http://www.w3.org/2000/svg">
<g clip-path="url(#clip0_9_3247)">
<path d="M50.3233 13.4479H0.323368V10.2151C0.323368 9.739 0.709403 9.35297 1.18548 9.35297H49.4613C49.9373 9.35297 50.3234 9.739 50.3234 10.2151L50.3233 13.4479Z" fill="#F5F5F5"/>
<path d="M50.3233 13.4482H0.323368V17.543H50.3233V13.4482Z" fill="#FF4B55"/>
<path d="M50.3233 17.5429H0.323368V21.6377H50.3233V17.5429Z" fill="#41479B"/>
<path d="M50.3233 21.6376H0.323368V25.7324H50.3233V21.6376Z" fill="#F5F5F5"/>
<path d="M50.3233 29.8271H0.323368V24.8702H1.40091V25.7323H50.3233V29.8271Z" fill="#FF4B55"/>
<path d="M50.3233 33.9218H0.323368V38.0166H50.3233V33.9218Z" fill="#F5F5F5"/>
<path d="M49.4612 42.1116H1.18548C0.709403 42.1116 0.323368 41.7256 0.323368 41.2495V38.0168H50.3233V41.2495C50.3233 41.7257 49.9372 42.1116 49.4612 42.1116Z" fill="#FF4B55"/>
<path d="M50.3225 29.8271H0.322608V33.9219H50.3225V29.8271Z" fill="#41479B"/>
<path d="M24.4605 25.7324H1.18472C0.708642 25.7324 0.322608 25.3464 0.322608 24.8703V10.2151C0.322608 9.73906 0.708642 9.35303 1.18472 9.35303H24.4605C24.9366 9.35303 25.3227 9.73906 25.3227 10.2151V24.8703C25.3226 25.3464 24.9365 25.7324 24.4605 25.7324Z" fill="#41479B"/>
<path d="M24.4612 9.35303H22.9638L14.9784 14.5849V9.35303H10.6681V14.5849L2.68274 9.35303H1.18548C0.709403 9.35303 0.323368 9.73896 0.323368 10.215V10.8988L7.17443 15.3874H0.323368V19.6977H7.17443L0.323368 24.1864V24.8702C0.323368 25.3463 0.709403 25.7323 1.18548 25.7323H2.68293L10.6683 20.5005V25.7323H14.9786V20.5005L22.9639 25.7323H24.4613C24.9374 25.7323 25.3234 25.3463 25.3234 24.8702V24.1864L18.4724 19.6978H25.3233V15.3875H18.4723L25.3233 10.8989V10.2151C25.3233 9.73896 24.9373 9.35303 24.4612 9.35303Z" fill="#F5F5F5"/>
<path d="M25.3226 16.2495H14.1156V9.35297H11.5295V16.2495H0.322608V18.8357H11.5295V25.7322H14.1156V18.8357H25.3226V16.2495Z" fill="#FF4B55"/>
<path d="M9.8053 15.3874L0.733447 9.49866C0.492041 9.65139 0.322608 9.90813 0.322608 10.215V10.2597L8.22191 15.3874H9.8053Z" fill="#FF4B55"/>
<path d="M16.5612 15.3874L25.1915 9.78529C25.0415 9.53148 24.7768 9.35297 24.4605 9.35297H24.2741L14.9778 15.3874H16.5612Z" fill="#FF4B55"/>
<path d="M9.06034 19.6978L0.446586 25.2892C0.595121 25.5491 0.86387 25.7322 1.18477 25.7322H1.34737L10.6438 19.6978H9.06034Z" fill="#FF4B55"/>
<path d="M25.3089 24.9378L17.236 19.6978H15.6526L24.82 25.6484C25.0946 25.521 25.283 25.2539 25.3089 24.9378Z" fill="#FF4B55"/>
</g>
<defs>
<clipPath id="clip0_9_3247">
<rect width="50" height="50" fill="white" transform="translate(0.324219 0.732178)"/>
</clipPath>
</defs>
</svg>
