<svg width="51" height="51" viewBox="0 0 51 51" fill="none" xmlns="http://www.w3.org/2000/svg">
    <g clip-path="url(#clip0_9_3236)">
        <path
            d="M50.7521 20.2726H0.752174V10.2151C0.752174 9.739 1.13821 9.35297 1.61428 9.35297H49.8901C50.3661 9.35297 50.7522 9.739 50.7522 10.2151L50.7521 20.2726Z"
            fill="#4173CD" />
        <path
            d="M49.8902 42.1116H1.6145C1.13843 42.1116 0.752396 41.7256 0.752396 41.2495V31.1921H50.7523V41.2495C50.7523 41.7257 50.3663 42.1116 49.8902 42.1116Z"
            fill="#4173CD" />
        <path d="M50.7521 20.2723H0.752174V31.1913H50.7521V20.2723Z" fill="#F5F5F5" />
        <path
            d="M25.8766 24.3241L26.1851 25.2492L27.1602 25.2567C27.2865 25.2577 27.3388 25.4188 27.2373 25.4938L26.4528 26.0731L26.747 27.0029C26.7849 27.1233 26.648 27.2228 26.5452 27.1494L25.7519 26.5824L24.9586 27.1493C24.8559 27.2227 24.7188 27.1232 24.7568 27.0028L25.051 26.073L24.2665 25.4937C24.165 25.4187 24.2173 25.2576 24.3435 25.2566L25.3186 25.2491L25.6271 24.324C25.6673 24.2043 25.8366 24.2043 25.8766 24.3241Z"
            fill="#4173CD" />
        <path
            d="M17.0706 26.8067L17.3791 27.7318L18.3542 27.7393C18.4805 27.7403 18.5327 27.9014 18.4313 27.9764L17.6468 28.5557L17.941 29.4855C17.979 29.6059 17.842 29.7054 17.7392 29.6321L16.9458 29.0651L16.1525 29.6321C16.0497 29.7054 15.9127 29.6059 15.9507 29.4855L16.2449 28.5557L15.4604 27.9764C15.3589 27.9014 15.4112 27.7403 15.5374 27.7393L16.5125 27.7318L16.821 26.8067C16.8613 26.687 17.0307 26.687 17.0706 26.8067Z"
            fill="#4173CD" />
        <path
            d="M17.071 21.8411L17.3795 22.7662L18.3546 22.7737C18.4809 22.7747 18.5331 22.9358 18.4316 23.0108L17.6472 23.5901L17.9413 24.5199C17.9794 24.6403 17.8424 24.7399 17.7396 24.6665L16.9462 24.0995L16.1528 24.6665C16.0501 24.7399 15.9131 24.6403 15.9511 24.5199L16.2452 23.5901L15.4607 23.0108C15.3593 22.9358 15.4115 22.7747 15.5378 22.7737L16.5129 22.7662L16.8214 21.8411C16.8616 21.7215 17.0311 21.7215 17.071 21.8411Z"
            fill="#4173CD" />
        <path
            d="M34.6824 26.8067L34.9909 27.7318L35.966 27.7393C36.0923 27.7403 36.1445 27.9014 36.0431 27.9764L35.2586 28.5557L35.5527 29.4855C35.5908 29.6059 35.4538 29.7054 35.351 29.6321L34.5576 29.0651L33.7643 29.6321C33.6615 29.7054 33.5245 29.6059 33.5625 29.4855L33.8566 28.5557L33.0722 27.9764C32.9705 27.9014 33.0229 27.7403 33.1492 27.7393L34.1243 27.7318L34.4328 26.8067C34.473 26.687 34.6425 26.687 34.6824 26.8067Z"
            fill="#4173CD" />
        <path
            d="M34.6824 21.8412L34.9909 22.7663L35.966 22.7739C36.0923 22.7748 36.1445 22.936 36.0431 23.011L35.2586 23.5903L35.5527 24.5201C35.5908 24.6405 35.4538 24.74 35.351 24.6666L34.5576 24.0996L33.7643 24.6666C33.6615 24.74 33.5245 24.6405 33.5625 24.5201L33.8566 23.5903L33.0722 23.011C32.9705 22.936 33.0229 22.7748 33.1492 22.7739L34.1243 22.7663L34.4328 21.8412C34.473 21.7216 34.6425 21.7216 34.6824 21.8412Z"
            fill="#4173CD" />
    </g>
    <defs>
        <clipPath id="clip0_9_3236">
            <rect width="50" height="50" fill="white" transform="translate(0.751953 0.732178)" />
        </clipPath>
    </defs>
</svg>
