<svg width="51" height="51" viewBox="0 0 51 51" fill="none" xmlns="http://www.w3.org/2000/svg">
    <g clip-path="url(#clip0_9_3228)">
        <path
            d="M49.3168 42.1116H1.04112C0.565051 42.1116 0.179016 41.7256 0.179016 41.2495V10.2151C0.179016 9.739 0.565051 9.35297 1.04112 9.35297H49.3169C49.793 9.35297 50.179 9.739 50.179 10.2151V41.2495C50.1789 41.7257 49.7929 42.1116 49.3168 42.1116Z"
            fill="#FF4B55" />
        <path
            d="M22.0999 26.9943C21.0132 27.0055 19.7929 26.6574 18.7237 25.4788C18.65 25.3976 18.6603 25.2696 18.7441 25.1986L18.7444 25.1983C18.8256 25.1294 18.9458 25.1401 19.0175 25.2189C20.6474 27.0086 22.6675 26.6952 23.8745 26.2628C23.4286 26.2826 22.8683 26.2491 22.508 26.0123C21.0026 25.0228 21.6844 23.9701 20.6846 22.6975C19.6912 21.433 18.7972 21.464 17.3896 21.6774C15.9961 21.8885 15.5521 20.8663 15.4139 20.2991C15.3892 20.1974 15.2474 20.1911 15.2111 20.289C13.4742 24.9818 18.6968 30.7884 24.0588 26.6133C23.5297 26.8081 22.8483 26.9866 22.0999 26.9943ZM18.1872 25.4018C18.1567 25.4856 18.0371 25.4823 18.0112 25.3969L17.8112 24.7378L17.1228 24.7137C17.0336 24.7106 16.9999 24.5958 17.073 24.5449L17.638 24.151L17.4483 23.4888C17.4237 23.4032 17.5224 23.3355 17.5935 23.3892L18.1427 23.8048L18.7138 23.4197C18.7877 23.3698 18.8827 23.4427 18.8534 23.527L18.6278 24.1778L19.1706 24.6019C19.2408 24.6569 19.2007 24.7696 19.1116 24.7678L18.4229 24.7543L18.1872 25.4018Z"
            fill="#F5F5F5" />
        <path
            d="M25.9467 23.8764C26.8096 23.2158 27.9948 22.7625 29.5573 23.0642C29.665 23.085 29.7335 23.1936 29.7091 23.3007L29.709 23.301C29.6853 23.4049 29.5828 23.4684 29.4781 23.4483C27.1005 22.9935 25.6718 24.4558 24.9655 25.5256C25.3104 25.2423 25.7789 24.9332 26.2092 24.9067C28.0073 24.7957 28.0929 26.0471 29.6563 26.4658C31.2095 26.8817 31.9063 26.321 32.9049 25.306C33.8934 24.3012 34.8618 24.853 35.3124 25.2241C35.3931 25.2906 35.5104 25.2107 35.4807 25.1105C34.0563 20.3136 26.3946 18.7993 24.6078 25.3559C24.9141 24.883 25.3525 24.3314 25.9467 23.8764ZM30.0329 22.8043C30.007 22.7189 30.1047 22.6498 30.1766 22.7025L30.7319 23.1099L31.2972 22.7164C31.3704 22.6654 31.4663 22.737 31.4384 22.8216L31.2225 23.4757L31.7714 23.8918C31.8425 23.9457 31.804 24.059 31.715 24.0586L31.0262 24.0553L30.8002 24.706C30.7709 24.7903 30.6513 24.7887 30.6242 24.7039L30.4144 24.0478L29.7257 24.0339C29.6366 24.0321 29.601 23.9179 29.6735 23.8659L30.2327 23.4636L30.0329 22.8043Z"
            fill="#F5F5F5" />
        <path
            d="M23.0689 24.3287C22.6451 23.3279 22.5025 22.067 23.1856 20.6297C23.2327 20.5306 23.355 20.4915 23.4525 20.5419L23.4529 20.5421C23.5475 20.5911 23.5832 20.7063 23.5378 20.8026C22.5028 22.9909 23.5614 24.7399 24.4204 25.6913C24.2324 25.2865 24.0503 24.7557 24.1322 24.3323C24.4745 22.5636 25.7075 22.7936 26.5038 21.3846C27.2952 19.9847 26.9264 19.1699 26.1935 17.9493C25.4679 16.7409 26.2444 15.9414 26.7164 15.5978C26.8009 15.5363 26.753 15.4028 26.6486 15.4065C21.6479 15.5859 18.2653 22.6252 24.1665 25.9952C23.7852 25.5801 23.3608 25.0178 23.0689 24.3287ZM23.0528 20.1043C22.9636 20.108 22.9212 19.996 22.9903 19.9397L23.5237 19.504L23.284 18.8582C23.253 18.7746 23.3463 18.6996 23.4212 18.7478L24.0005 19.1205L24.5406 18.693C24.6105 18.6377 24.7106 18.7032 24.6878 18.7895L24.5124 19.4555L25.0858 19.8371C25.16 19.8865 25.1287 20.0019 25.0397 20.007L24.352 20.046L24.1663 20.7092C24.1423 20.7951 24.0228 20.8009 23.9905 20.7178L23.7409 20.0759L23.0528 20.1043Z"
            fill="#F5F5F5" />
        <path
            d="M26.9653 26.5994C27.8635 27.2112 28.6663 28.194 28.8704 29.7722C28.8845 29.8811 28.8028 29.9802 28.6935 29.9906H28.6929C28.5869 30.0008 28.4944 29.9233 28.4805 29.8177C28.1656 27.4176 26.3285 26.5205 25.0909 26.1859C25.4681 26.4243 25.9088 26.772 26.0692 27.1723C26.7393 28.8444 25.5782 29.319 25.6717 30.9347C25.7645 32.54 26.516 33.0253 27.7931 33.6546C29.0575 34.2775 28.8379 35.37 28.6269 35.9147C28.5892 36.0122 28.7018 36.0983 28.7876 36.0387C32.8942 33.1797 31.9256 25.4302 25.1396 25.7931C25.6856 25.9354 26.3469 26.1782 26.9653 26.5994ZM29.2668 30.142C29.3397 30.0906 29.4359 30.1617 29.4085 30.2465L29.1961 30.9017L29.7472 31.3149C29.8185 31.3683 29.7808 31.4818 29.6917 31.4819L29.0029 31.4823L28.7803 32.1342C28.7515 32.2186 28.6318 32.2177 28.6043 32.1329L28.391 31.4779L27.7023 31.4677C27.6131 31.4664 27.577 31.3523 27.6491 31.2998L28.2061 30.8945L28.003 30.2363C27.9767 30.1511 28.074 30.0815 28.1462 30.1339L28.7037 30.5384L29.2668 30.142Z"
            fill="#F5F5F5" />
        <path
            d="M24.7187 28.547C24.4093 29.5888 23.7173 30.6525 22.276 31.3272C22.1766 31.3737 22.0573 31.3261 22.0142 31.2252L22.014 31.2248C21.9721 31.1269 22.0178 31.0153 22.1141 30.9698C24.3045 29.9395 24.6001 27.9166 24.5423 26.6359C24.4299 27.0679 24.2328 27.5933 23.9004 27.868C22.5114 29.0152 21.7061 28.0534 20.1954 28.6342C18.6945 29.2112 18.4608 30.0746 18.2499 31.4827C18.0413 32.8767 16.9336 32.9998 16.3508 32.9648C16.2465 32.9585 16.1986 33.092 16.2815 33.1556C20.2545 36.1976 27.3418 32.9169 24.9313 26.5631C24.9619 27.1258 24.9318 27.8295 24.7187 28.547ZM22.0443 31.8171C22.1154 31.871 22.077 31.9842 21.9878 31.9839L21.2991 31.9809L21.0734 32.6317C21.0442 32.7159 20.9244 32.7144 20.8973 32.6295L20.6872 31.9735L19.9986 31.9598C19.9094 31.958 19.8738 31.8438 19.9462 31.7917L20.5052 31.3893L20.3054 30.7301C20.2795 30.6447 20.3772 30.5756 20.449 30.6283L21.0045 31.0356L21.5697 30.6418C21.6429 30.5908 21.7388 30.6624 21.711 30.7471L21.4953 31.4012L22.0443 31.8171Z"
            fill="#F5F5F5" />
    </g>
    <defs>
        <clipPath id="clip0_9_3228">
            <rect width="50" height="50" fill="white" transform="translate(0.179688 0.732178)" />
        </clipPath>
    </defs>
</svg>
