<svg width="51" height="51" viewBox="0 0 51 51" fill="none" xmlns="http://www.w3.org/2000/svg">
    <g clip-path="url(#clip0_9_3220)">
        <path
            d="M49.1764 42.1116H0.900682C0.424609 42.1116 0.0385742 41.7256 0.0385742 41.2495V10.2151C0.0385742 9.739 0.424609 9.35297 0.900682 9.35297H49.1765C49.6525 9.35297 50.0386 9.739 50.0386 10.2151V41.2495C50.0385 41.7257 49.6524 42.1116 49.1764 42.1116Z"
            fill="#41479B" />
        <path
            d="M50.0385 21.422H22.4523V9.35303H13.8316V21.422H0.0385742V30.0426H13.8316V42.1116H22.4523V30.0426H50.0385V21.422Z"
            fill="#F5F5F5" />
        <path
            d="M50.0385 23.1461H20.7282V9.35303H15.5558V23.1461H0.0385742V28.3185H15.5558V42.1116H20.7282V28.3185H50.0385V23.1461Z"
            fill="#FF4B55" />
    </g>
    <defs>
        <clipPath id="clip0_9_3220">
            <rect width="50" height="50" fill="white" transform="translate(0.0390625 0.732178)" />
        </clipPath>
    </defs>
</svg>
