<svg width="51" height="51" viewBox="0 0 51 51" fill="none" xmlns="http://www.w3.org/2000/svg">
    <g clip-path="url(#clip0_9_3195)">
        <path
            d="M50.4692 20.4073H0.46933V10.3498C0.46933 9.87377 0.855364 9.48773 1.33144 9.48773H49.6072C50.0833 9.48773 50.4693 9.87377 50.4693 10.3498L50.4692 20.4073Z"
            fill="#FAB446" />
        <path
            d="M49.6071 42.2463H1.33144C0.855364 42.2463 0.46933 41.8603 0.46933 41.3842V31.3268H50.4692V41.3842C50.4692 41.8604 50.0832 42.2463 49.6071 42.2463Z"
            fill="#73AF00" />
        <path d="M50.4692 20.4071H0.46933V31.326H50.4692V20.4071Z" fill="#F5F5F5" />
        <path
            d="M25.4691 30.5007C22.9141 30.5007 20.8355 28.4222 20.8355 25.8671C20.8355 23.312 22.9141 21.2335 25.4691 21.2335C28.0242 21.2335 30.1027 23.312 30.1027 25.8671C30.1027 28.4222 28.0242 30.5007 25.4691 30.5007ZM25.4691 22.0955C23.3892 22.0955 21.6976 23.7872 21.6976 25.8671C21.6976 27.947 23.3892 29.6387 25.4691 29.6387C27.549 29.6387 29.2407 27.947 29.2407 25.8671C29.2407 23.7872 27.549 22.0955 25.4691 22.0955Z"
            fill="#41479B" />
        <path
            d="M25.4692 26.3925C25.7593 26.3925 25.9945 26.1573 25.9945 25.8672C25.9945 25.5771 25.7593 25.3419 25.4692 25.3419C25.1791 25.3419 24.9439 25.5771 24.9439 25.8672C24.9439 26.1573 25.1791 26.3925 25.4692 26.3925Z"
            fill="#41479B" />
        <path
            d="M25.4697 25.946L24.1347 26.0808L21.2671 25.946V25.7884L24.1347 25.6536L25.4697 25.7884V25.946Z"
            fill="#41479B" />
        <path
            d="M25.4696 25.946L26.8046 26.0808L29.6722 25.946V25.7884L26.8046 25.6536L25.4696 25.7884V25.946Z"
            fill="#41479B" />
        <path
            d="M25.3904 25.8672L25.2557 24.5322L25.3904 21.6647H25.5481L25.6828 24.5322L25.5481 25.8672H25.3904Z"
            fill="#41479B" />
        <path
            d="M25.3904 25.8672L25.2557 27.2021L25.3904 30.0697H25.5481L25.6828 27.2021L25.5481 25.8672H25.3904Z"
            fill="#41479B" />
        <path
            d="M25.4137 25.9228L24.3745 25.0743L22.4421 22.9513L22.5535 22.8398L24.6765 24.7723L25.5251 25.8115L25.4137 25.9228Z"
            fill="#41479B" />
        <path
            d="M25.4139 25.9229L26.2624 26.9621L28.3855 28.8945L28.4969 28.7831L26.5645 26.6601L25.5252 25.8115L25.4139 25.9229Z"
            fill="#41479B" />
        <path
            d="M25.4139 25.8115L26.2624 24.7723L28.3855 22.8398L28.4969 22.9513L26.5645 25.0743L25.5252 25.9228L25.4139 25.8115Z"
            fill="#41479B" />
        <path
            d="M25.4137 25.8115L24.3745 26.6601L22.4421 28.7831L22.5535 28.8945L24.6765 26.9621L25.5251 25.9229L25.4137 25.8115Z"
            fill="#41479B" />
        <path
            d="M25.4994 25.9401L24.3176 26.5754L21.6168 27.5483L21.5564 27.4027L24.1542 26.1808L25.439 25.7944L25.4994 25.9401Z"
            fill="#41479B" />
        <path
            d="M25.4993 25.9401L26.7841 25.5536L29.3819 24.3318L29.3215 24.1862L26.6208 25.159L25.4389 25.7944L25.4993 25.9401Z"
            fill="#41479B" />
        <path
            d="M25.3963 25.8974L24.7609 24.7155L23.7881 22.0148L23.9337 21.9544L25.1555 24.5522L25.542 25.837L25.3963 25.8974Z"
            fill="#41479B" />
        <path
            d="M25.3964 25.8974L25.7828 27.1822L27.0047 29.78L27.1503 29.7196L26.1774 27.0189L25.5421 25.837L25.3964 25.8974Z"
            fill="#41479B" />
        <path
            d="M25.439 25.9401L24.1542 25.5536L21.5564 24.3318L21.6168 24.1862L24.3176 25.159L25.4994 25.7944L25.439 25.9401Z"
            fill="#41479B" />
        <path
            d="M25.4389 25.9401L26.6208 26.5754L29.3215 27.5483L29.3819 27.4027L26.7841 26.1808L25.4993 25.7944L25.4389 25.9401Z"
            fill="#41479B" />
        <path
            d="M25.3964 25.837L25.7828 24.5522L27.0047 21.9544L27.1503 22.0148L26.1774 24.7155L25.5421 25.8974L25.3964 25.837Z"
            fill="#41479B" />
        <path
            d="M25.3963 25.837L24.7609 27.0189L23.7881 29.7196L23.9337 29.78L25.1555 27.1822L25.542 25.8974L25.3963 25.837Z"
            fill="#41479B" />
        <path
            d="M25.4694 26.5757C25.8608 26.5757 26.178 26.2584 26.178 25.8671C26.178 25.4758 25.8608 25.1585 25.4694 25.1585C25.0781 25.1585 24.7608 25.4758 24.7608 25.8671C24.7608 26.2584 25.0781 26.5757 25.4694 26.5757Z"
            fill="#F5F5F5" />
        <path
            d="M25.4694 26.292C25.7041 26.292 25.8943 26.1018 25.8943 25.8671C25.8943 25.6324 25.7041 25.4422 25.4694 25.4422C25.2348 25.4422 25.0445 25.6324 25.0445 25.8671C25.0445 26.1018 25.2348 26.292 25.4694 26.292Z"
            fill="#41479B" />
    </g>
    <defs>
        <clipPath id="clip0_9_3195">
            <rect width="50" height="50" fill="white" transform="translate(0.46875 0.866943)" />
        </clipPath>
    </defs>
</svg>
