<svg width="51" height="51" viewBox="0 0 51 51" fill="none" xmlns="http://www.w3.org/2000/svg">
<g clip-path="url(#clip0_9_3146)">
<path d="M50.1921 20.4072H0.1922V10.3498C0.1922 9.87377 0.578234 9.48773 1.05431 9.48773H49.3301C49.8062 9.48773 50.1922 9.87377 50.1922 10.3498L50.1921 20.4072Z" fill="#73AF00"/>
<path d="M49.33 42.2463H1.05431C0.578234 42.2463 0.1922 41.8603 0.1922 41.3842V31.3268H50.1921V41.3842C50.1921 41.8603 49.8061 42.2463 49.33 42.2463Z" fill="#FF4B55"/>
<path d="M50.1928 20.4067H0.192932V31.3257H50.1928V20.4067Z" fill="#F5F5F5"/>
<path d="M0.327844 19.8296H0.335364C0.410266 19.8296 0.471008 19.769 0.471008 19.694V19.4003C0.471008 19.3254 0.531652 19.2646 0.606652 19.2646H1.17569C1.2506 19.2646 1.31134 19.3253 1.31134 19.4003V19.694C1.31134 19.7689 1.37198 19.8296 1.44698 19.8296H2.57022C2.64512 19.8296 2.70587 19.769 2.70587 19.694V19.1141C2.70587 19.0392 2.64522 18.9785 2.57022 18.9785H2.00479C1.92989 18.9785 1.86915 19.0391 1.86915 19.1141V19.129C1.86915 19.2039 1.92979 19.2646 2.00479 19.2646H2.29141C2.36632 19.2646 2.42706 19.3253 2.42706 19.4003V19.415C2.42706 19.4899 2.36641 19.5506 2.29141 19.5506H1.72579C1.65089 19.5506 1.59015 19.49 1.59015 19.415V19.1141C1.59015 19.0392 1.5295 18.9785 1.4545 18.9785H0.327844C0.252942 18.9785 0.1922 19.0391 0.1922 19.1141V19.694C0.1922 19.7688 0.252844 19.8296 0.327844 19.8296ZM0.889171 19.8296H0.896886C0.971788 19.8296 1.03253 19.769 1.03253 19.694V19.6863C1.03253 19.6114 0.971886 19.5506 0.896886 19.5506H0.889171C0.814269 19.5506 0.753527 19.6113 0.753527 19.6863V19.694C0.753527 19.7688 0.814269 19.8296 0.889171 19.8296ZM0.327844 18.6924H3.68946C3.76436 18.6924 3.8251 18.6318 3.8251 18.5568V18.542C3.8251 18.4671 3.76446 18.4063 3.68946 18.4063H0.327844C0.252942 18.4063 0.1922 18.467 0.1922 18.542V18.5568C0.1922 18.6318 0.252844 18.6924 0.327844 18.6924ZM3.68936 19.8296H3.12393C3.04903 19.8296 2.98829 19.769 2.98829 19.694V19.1141C2.98829 19.0392 3.04893 18.9785 3.12393 18.9785H3.96846C4.04336 18.9785 4.10411 18.9178 4.10411 18.8428V18.542C4.10411 18.4671 4.16475 18.4063 4.23975 18.4063H4.24727C4.32217 18.4063 4.38291 18.467 4.38291 18.542V19.415C4.38291 19.4899 4.44356 19.5506 4.51856 19.5506H4.52627C4.60118 19.5506 4.66192 19.49 4.66192 19.415V18.542C4.66192 18.4671 4.72256 18.4063 4.79756 18.4063H4.80508C4.87998 18.4063 4.94073 18.467 4.94073 18.542V19.415C4.94073 19.4899 5.00137 19.5506 5.07637 19.5506H5.0876C5.1625 19.5506 5.22325 19.49 5.22325 19.415V18.542C5.22325 18.4671 5.28389 18.4063 5.35889 18.4063H5.36299C5.43789 18.4063 5.49864 18.467 5.49864 18.542V19.694C5.49864 19.7689 5.43799 19.8296 5.36299 19.8296H4.23975C4.16485 19.8296 4.10411 19.769 4.10411 19.694V19.4003C4.10411 19.3254 4.04346 19.2646 3.96846 19.2646H3.40303C3.32813 19.2646 3.26739 19.3253 3.26739 19.4003V19.415C3.26739 19.4899 3.32803 19.5506 3.40303 19.5506H3.68946C3.76436 19.5506 3.8251 19.6113 3.8251 19.6863V19.694C3.8251 19.7688 3.76426 19.8296 3.68936 19.8296Z" fill="#F5F5F5"/>
<path d="M5.91738 19.8294H5.92861C6.00352 19.8294 6.06426 19.7688 6.06426 19.6938V19.4C6.06426 19.3251 6.1249 19.2644 6.1999 19.2644H6.76181C6.83672 19.2644 6.89746 19.325 6.89746 19.4V19.6938C6.89746 19.7687 6.9581 19.8294 7.0331 19.8294H8.15634C8.23124 19.8294 8.29199 19.7688 8.29199 19.6938V19.1139C8.29199 19.039 8.23134 18.9782 8.15634 18.9782H7.59091C7.51601 18.9782 7.45527 19.0389 7.45527 19.1139V19.1287C7.45527 19.2036 7.51591 19.2644 7.59091 19.2644H7.87753C7.95244 19.2644 8.01318 19.325 8.01318 19.4V19.4148C8.01318 19.4897 7.95253 19.5504 7.87753 19.5504H7.31211C7.2372 19.5504 7.17646 19.4898 7.17646 19.4148V19.1139C7.17646 19.039 7.11582 18.9782 7.04082 18.9782H5.91738C5.84248 18.9782 5.78174 19.0389 5.78174 19.1139V19.6938C5.78184 19.7686 5.84258 19.8294 5.91738 19.8294ZM6.47529 19.8294H6.48281C6.55771 19.8294 6.61845 19.7688 6.61845 19.6938V19.686C6.61845 19.6111 6.55781 19.5504 6.48281 19.5504H6.47529C6.40039 19.5504 6.33965 19.611 6.33965 19.686V19.6938C6.33975 19.7686 6.40039 19.8294 6.47529 19.8294ZM5.91738 18.6922H9.27558C9.35048 18.6922 9.41122 18.6316 9.41122 18.5566V18.5417C9.41122 18.4668 9.35058 18.4061 9.27558 18.4061H5.91738C5.84248 18.4061 5.78174 18.4667 5.78174 18.5417V18.5566C5.78184 18.6316 5.84258 18.6922 5.91738 18.6922ZM9.27558 19.8294H8.70654C8.63163 19.8294 8.57089 19.7688 8.57089 19.6938V19.1139C8.57089 19.039 8.63154 18.9782 8.70654 18.9782H9.55107C9.62597 18.9782 9.68671 18.9176 9.68671 18.8426V18.5417C9.68671 18.4668 9.74736 18.4061 9.82236 18.4061H9.83359C9.90849 18.4061 9.96923 18.4667 9.96923 18.5417V19.4148C9.96923 19.4897 10.0299 19.5504 10.1049 19.5504H10.1161C10.191 19.5504 10.2517 19.4898 10.2517 19.4148V18.5417C10.2517 18.4668 10.3124 18.4061 10.3874 18.4061H10.3915C10.4664 18.4061 10.5271 18.4667 10.5271 18.5417V19.4148C10.5271 19.4897 10.5878 19.5504 10.6628 19.5504H10.674C10.7489 19.5504 10.8097 19.4898 10.8097 19.4148V18.5417C10.8097 18.4668 10.8703 18.4061 10.9453 18.4061H10.9528C11.0277 18.4061 11.0885 18.4667 11.0885 18.5417V19.6938C11.0885 19.7687 11.0278 19.8294 10.9528 19.8294H9.82255C9.74765 19.8294 9.68691 19.7688 9.68691 19.6938V19.4C9.68691 19.3251 9.62626 19.2644 9.55126 19.2644H8.98935C8.91445 19.2644 8.8537 19.325 8.8537 19.4V19.4148C8.8537 19.4897 8.91435 19.5504 8.98935 19.5504H9.27597C9.35087 19.5504 9.41161 19.611 9.41161 19.686V19.6938C9.41113 19.7686 9.35048 19.8294 9.27558 19.8294Z" fill="#F5F5F5"/>
<path d="M11.503 19.8294H11.5105C11.5854 19.8294 11.6462 19.7688 11.6462 19.6938V19.4C11.6462 19.3251 11.7068 19.2644 11.7818 19.2644H12.3474C12.4223 19.2644 12.4831 19.325 12.4831 19.4V19.6938C12.4831 19.7687 12.5437 19.8294 12.6187 19.8294H13.7455C13.8204 19.8294 13.8811 19.7688 13.8811 19.6938V19.1139C13.8811 19.039 13.8205 18.9782 13.7455 18.9782H13.1801C13.1052 18.9782 13.0444 19.0389 13.0444 19.1139V19.1287C13.0444 19.2036 13.1051 19.2644 13.1801 19.2644H13.4667C13.5416 19.2644 13.6023 19.325 13.6023 19.4V19.4148C13.6023 19.4897 13.5417 19.5504 13.4667 19.5504H12.8976C12.8227 19.5504 12.762 19.4898 12.762 19.4148V19.1139C12.762 19.039 12.7014 18.9782 12.6264 18.9782H11.5031C11.4282 18.9782 11.3675 19.0389 11.3675 19.1139V19.6938C11.3673 19.7686 11.4281 19.8294 11.503 19.8294ZM12.0608 19.8294H12.0683C12.1432 19.8294 12.204 19.7688 12.204 19.6938V19.686C12.204 19.6111 12.1433 19.5504 12.0683 19.5504H12.0608C11.9859 19.5504 11.9252 19.611 11.9252 19.686V19.6938C11.9252 19.7686 11.9859 19.8294 12.0608 19.8294ZM11.503 18.6922H14.8647C14.9396 18.6922 15.0004 18.6316 15.0004 18.5566V18.5417C15.0004 18.4668 14.9397 18.4061 14.8647 18.4061H11.503C11.4281 18.4061 11.3674 18.4667 11.3674 18.5417V18.5566C11.3673 18.6316 11.4281 18.6922 11.503 18.6922ZM14.8647 19.8294H14.2957C14.2208 19.8294 14.16 19.7688 14.16 19.6938V19.1139C14.16 19.039 14.2207 18.9782 14.2957 18.9782H15.14C15.2149 18.9782 15.2757 18.9176 15.2757 18.8426V18.5417C15.2757 18.4668 15.3363 18.4061 15.4113 18.4061H15.419C15.4939 18.4061 15.5547 18.4667 15.5547 18.5417V19.4148C15.5547 19.4897 15.6153 19.5504 15.6903 19.5504H15.7015C15.7764 19.5504 15.8372 19.4898 15.8372 19.4148V18.5417C15.8372 18.4668 15.8978 18.4061 15.9728 18.4061H15.9841C16.059 18.4061 16.1197 18.4667 16.1197 18.5417V19.4148C16.1197 19.4897 16.1803 19.5504 16.2553 19.5504H16.2595C16.3344 19.5504 16.3951 19.4898 16.3951 19.4148V18.5417C16.3951 18.4668 16.4557 18.4061 16.5307 18.4061H16.5383C16.6132 18.4061 16.6739 18.4667 16.6739 18.5417V19.6938C16.6739 19.7687 16.6133 19.8294 16.5383 19.8294H15.4113C15.3364 19.8294 15.2757 19.7688 15.2757 19.6938V19.4C15.2757 19.3251 15.215 19.2644 15.14 19.2644H14.5746C14.4997 19.2644 14.4389 19.325 14.4389 19.4V19.4148C14.4389 19.4897 14.4996 19.5504 14.5746 19.5504H14.8649C14.9398 19.5504 15.0006 19.611 15.0006 19.686V19.6938C15.0004 19.7686 14.9396 19.8294 14.8647 19.8294Z" fill="#F5F5F5"/>
<path d="M17.0883 19.8294H17.0958C17.1707 19.8294 17.2314 19.7688 17.2314 19.6938V19.4C17.2314 19.3251 17.2921 19.2644 17.3671 19.2644H17.9325C18.0074 19.2644 18.0682 19.325 18.0682 19.4V19.6938C18.0682 19.7687 18.1288 19.8294 18.2038 19.8294H19.3308C19.4057 19.8294 19.4664 19.7688 19.4664 19.6938V19.1139C19.4664 19.039 19.4058 18.9782 19.3308 18.9782H18.7617C18.6868 18.9782 18.6261 19.0389 18.6261 19.1139V19.1287C18.6261 19.2036 18.6867 19.2644 18.7617 19.2644H19.0483C19.1232 19.2644 19.184 19.325 19.184 19.4V19.4148C19.184 19.4897 19.1233 19.5504 19.0483 19.5504H18.4829C18.408 19.5504 18.3473 19.4898 18.3473 19.4148V19.1139C18.3473 19.039 18.2866 18.9782 18.2116 18.9782H17.0884C17.0135 18.9782 16.9527 19.0389 16.9527 19.1139V19.6938C16.9527 19.7686 17.0135 19.8294 17.0883 19.8294ZM17.6462 19.8294H17.6537C17.7286 19.8294 17.7894 19.7688 17.7894 19.6938V19.686C17.7894 19.6111 17.7287 19.5504 17.6537 19.5504H17.6462C17.5713 19.5504 17.5105 19.611 17.5105 19.686V19.6938C17.5106 19.7686 17.5713 19.8294 17.6462 19.8294ZM17.0883 18.6922H20.4465C20.5214 18.6922 20.5821 18.6316 20.5821 18.5566V18.5417C20.5821 18.4668 20.5215 18.4061 20.4465 18.4061H17.0883C17.0134 18.4061 16.9526 18.4667 16.9526 18.5417V18.5566C16.9527 18.6316 17.0135 18.6922 17.0883 18.6922ZM20.4465 19.8294H19.8774C19.8025 19.8294 19.7418 19.7688 19.7418 19.6938V19.1139C19.7418 19.039 19.8024 18.9782 19.8774 18.9782H20.7291C20.804 18.9782 20.8647 18.9176 20.8647 18.8426V18.5417C20.8647 18.4668 20.9254 18.4061 21.0004 18.4061H21.0079C21.0828 18.4061 21.1435 18.4667 21.1435 18.5417V19.4148C21.1435 19.4897 21.2042 19.5504 21.2792 19.5504H21.2833C21.3582 19.5504 21.4189 19.4898 21.4189 19.4148V18.5417C21.4189 18.4668 21.4796 18.4061 21.5546 18.4061H21.5658C21.6407 18.4061 21.7015 18.4667 21.7015 18.5417V19.4148C21.7015 19.4897 21.7621 19.5504 21.8371 19.5504H21.8448C21.9197 19.5504 21.9805 19.4898 21.9805 19.4148V18.5417C21.9805 18.4668 22.0411 18.4061 22.1161 18.4061H22.1236C22.1985 18.4061 22.2593 18.4667 22.2593 18.5417V19.6938C22.2593 19.7687 22.1986 19.8294 22.1236 19.8294H20.9999C20.925 19.8294 20.8643 19.7688 20.8643 19.6938V19.4C20.8643 19.3251 20.8036 19.2644 20.7286 19.2644H20.1596C20.0847 19.2644 20.0239 19.325 20.0239 19.4V19.4148C20.0239 19.4897 20.0846 19.5504 20.1596 19.5504H20.4462C20.5211 19.5504 20.5818 19.611 20.5818 19.686V19.6938C20.582 19.7686 20.5214 19.8294 20.4465 19.8294Z" fill="#F5F5F5"/>
<path d="M22.6735 19.8294H22.6813C22.7562 19.8294 22.8169 19.7688 22.8169 19.6938V19.4C22.8169 19.3251 22.8776 19.2644 22.9526 19.2644H23.518C23.5929 19.2644 23.6536 19.325 23.6536 19.4V19.6938C23.6536 19.7687 23.7143 19.8294 23.7893 19.8294H24.9162C24.9911 19.8294 25.0519 19.7688 25.0519 19.6938V19.1139C25.0519 19.039 24.9912 18.9782 24.9162 18.9782H24.3472C24.2723 18.9782 24.2115 19.0389 24.2115 19.1139V19.1287C24.2115 19.2036 24.2722 19.2644 24.3472 19.2644H24.6372C24.7121 19.2644 24.7729 19.325 24.7729 19.4V19.4148C24.7729 19.4897 24.7122 19.5504 24.6372 19.5504H24.0718C23.9969 19.5504 23.9361 19.4898 23.9361 19.4148V19.1139C23.9361 19.039 23.8755 18.9782 23.8005 18.9782H22.6735C22.5986 18.9782 22.5379 19.0389 22.5379 19.1139V19.6938C22.538 19.7686 22.5986 19.8294 22.6735 19.8294ZM23.2351 19.8294H23.2392C23.3141 19.8294 23.3748 19.7688 23.3748 19.6938V19.686C23.3748 19.6111 23.3142 19.5504 23.2392 19.5504H23.2351C23.1602 19.5504 23.0994 19.611 23.0994 19.686V19.6938C23.0994 19.7686 23.1602 19.8294 23.2351 19.8294ZM22.6735 18.6922H26.0354C26.1103 18.6922 26.171 18.6316 26.171 18.5566V18.5417C26.171 18.4668 26.1104 18.4061 26.0354 18.4061H22.6735C22.5986 18.4061 22.5379 18.4667 22.5379 18.5417V18.5566C22.538 18.6316 22.5986 18.6922 22.6735 18.6922ZM26.0355 19.8294H25.4664C25.3915 19.8294 25.3308 19.7688 25.3308 19.6938V19.1139C25.3308 19.039 25.3914 18.9782 25.4664 18.9782H26.3145C26.3894 18.9782 26.4501 18.9176 26.4501 18.8426V18.5417C26.4501 18.4668 26.5107 18.4061 26.5857 18.4061H26.5933C26.6682 18.4061 26.7289 18.4667 26.7289 18.5417V19.4148C26.7289 19.4897 26.7896 19.5504 26.8646 19.5504H26.8723C26.9472 19.5504 27.0079 19.4898 27.0079 19.4148V18.5417C27.0079 18.4668 27.0686 18.4061 27.1436 18.4061H27.1511C27.226 18.4061 27.2867 18.4667 27.2867 18.5417V19.4148C27.2867 19.4897 27.3474 19.5504 27.4224 19.5504H27.4299C27.5048 19.5504 27.5655 19.4898 27.5655 19.4148V18.5417C27.5655 18.4668 27.6262 18.4061 27.7012 18.4061H27.7089C27.7838 18.4061 27.8445 18.4667 27.8445 18.5417V19.6938C27.8445 19.7687 27.7839 19.8294 27.7089 19.8294H26.5856C26.5107 19.8294 26.45 19.7688 26.45 19.6938V19.4C26.45 19.3251 26.3894 19.2644 26.3144 19.2644H25.7453C25.6704 19.2644 25.6097 19.325 25.6097 19.4V19.4148C25.6097 19.4897 25.6703 19.5504 25.7453 19.5504H26.0354C26.1103 19.5504 26.171 19.611 26.171 19.686V19.6938C26.171 19.7686 26.1104 19.8294 26.0355 19.8294Z" fill="#F5F5F5"/>
<path d="M28.2587 19.8294H28.2664C28.3413 19.8294 28.402 19.7688 28.402 19.6938V19.4C28.402 19.3251 28.4627 19.2644 28.5377 19.2644H29.1031C29.178 19.2644 29.2388 19.325 29.2388 19.4V19.6938C29.2388 19.7687 29.2994 19.8294 29.3744 19.8294H30.5014C30.5763 19.8294 30.637 19.7688 30.637 19.6938V19.1139C30.637 19.039 30.5764 18.9782 30.5014 18.9782H29.9357C29.8608 18.9782 29.8001 19.0389 29.8001 19.1139V19.1287C29.8001 19.2036 29.8607 19.2644 29.9357 19.2644H30.2188C30.2937 19.2644 30.3545 19.325 30.3545 19.4V19.4148C30.3545 19.4897 30.2938 19.5504 30.2188 19.5504H29.6569C29.582 19.5504 29.5213 19.4898 29.5213 19.4148V19.1139C29.5213 19.039 29.4606 18.9782 29.3856 18.9782H28.2587C28.1838 18.9782 28.123 19.0389 28.123 19.1139V19.6938C28.123 19.7686 28.1838 19.8294 28.2587 19.8294ZM28.8201 19.8294H28.8242C28.8991 19.8294 28.9599 19.7688 28.9599 19.6938V19.686C28.9599 19.6111 28.8992 19.5504 28.8242 19.5504H28.8201C28.7452 19.5504 28.6845 19.611 28.6845 19.686V19.6938C28.6846 19.7686 28.7452 19.8294 28.8201 19.8294ZM28.2587 18.6922H31.6204C31.6953 18.6922 31.756 18.6316 31.756 18.5566V18.5417C31.756 18.4668 31.6954 18.4061 31.6204 18.4061H28.2587C28.1838 18.4061 28.123 18.4667 28.123 18.5417V18.5566C28.123 18.6316 28.1838 18.6922 28.2587 18.6922ZM31.6205 19.8294H31.0551C30.9802 19.8294 30.9194 19.7688 30.9194 19.6938V19.1139C30.9194 19.039 30.9801 18.9782 31.0551 18.9782H31.8994C31.9743 18.9782 32.0351 18.9176 32.0351 18.8426V18.5417C32.0351 18.4668 32.0957 18.4061 32.1707 18.4061H32.1784C32.2533 18.4061 32.3141 18.4667 32.3141 18.5417V19.4148C32.3141 19.4897 32.3747 19.5504 32.4497 19.5504H32.4572C32.5321 19.5504 32.5929 19.4898 32.5929 19.4148V18.5417C32.5929 18.4668 32.6535 18.4061 32.7285 18.4061H32.7362C32.8111 18.4061 32.8719 18.4667 32.8719 18.5417V19.4148C32.8719 19.4897 32.9325 19.5504 33.0075 19.5504H33.015C33.0899 19.5504 33.1507 19.4898 33.1507 19.4148V18.5417C33.1507 18.4668 33.2113 18.4061 33.2863 18.4061H33.294C33.3689 18.4061 33.4297 18.4667 33.4297 18.5417V19.6938C33.4297 19.7687 33.369 19.8294 33.294 19.8294H32.1705C32.0956 19.8294 32.0349 19.7688 32.0349 19.6938V19.4C32.0349 19.3251 31.9742 19.2644 31.8992 19.2644H31.3303C31.2554 19.2644 31.1946 19.325 31.1946 19.4V19.4148C31.1946 19.4897 31.2553 19.5504 31.3303 19.5504H31.6203C31.6952 19.5504 31.7559 19.611 31.7559 19.686V19.6938C31.7561 19.7686 31.6953 19.8294 31.6205 19.8294Z" fill="#F5F5F5"/>
<path d="M33.844 19.8294H33.8517C33.9266 19.8294 33.9873 19.7688 33.9873 19.6938V19.4C33.9873 19.3251 34.048 19.2644 34.123 19.2644H34.6919C34.7668 19.2644 34.8275 19.325 34.8275 19.4V19.6938C34.8275 19.7687 34.8882 19.8294 34.9632 19.8294H36.0867C36.1616 19.8294 36.2224 19.7688 36.2224 19.6938V19.1139C36.2224 19.039 36.1617 18.9782 36.0867 18.9782H35.5211C35.4462 18.9782 35.3855 19.0389 35.3855 19.1139V19.1287C35.3855 19.2036 35.4461 19.2644 35.5211 19.2644H35.8114C35.8863 19.2644 35.9471 19.325 35.9471 19.4V19.4148C35.9471 19.4897 35.8864 19.5504 35.8114 19.5504H35.2387C35.1638 19.5504 35.103 19.4898 35.103 19.4148V19.1139C35.103 19.039 35.0424 18.9782 34.9674 18.9782H33.8442C33.7692 18.9782 33.7085 19.0389 33.7085 19.1139V19.6938C33.7084 19.7686 33.7691 19.8294 33.844 19.8294ZM34.4019 19.8294H34.4131C34.488 19.8294 34.5487 19.7688 34.5487 19.6938V19.686C34.5487 19.6111 34.4881 19.5504 34.4131 19.5504H34.4019C34.327 19.5504 34.2662 19.611 34.2662 19.686V19.6938C34.2662 19.7686 34.327 19.8294 34.4019 19.8294ZM33.844 18.6922H37.2057C37.2806 18.6922 37.3413 18.6316 37.3413 18.5566V18.5417C37.3413 18.4668 37.2807 18.4061 37.2057 18.4061H33.844C33.7691 18.4061 33.7083 18.4667 33.7083 18.5417V18.5566C33.7084 18.6316 33.7691 18.6922 33.844 18.6922ZM37.2059 19.8294H36.6404C36.5655 19.8294 36.5048 19.7688 36.5048 19.6938V19.1139C36.5048 19.039 36.5654 18.9782 36.6404 18.9782H37.4848C37.5597 18.9782 37.6204 18.9176 37.6204 18.8426V18.5417C37.6204 18.4668 37.6811 18.4061 37.7561 18.4061H37.7638C37.8387 18.4061 37.8994 18.4667 37.8994 18.5417V19.4148C37.8994 19.4897 37.9601 19.5504 38.0351 19.5504H38.0426C38.1175 19.5504 38.1782 19.4898 38.1782 19.4148V18.5417C38.1782 18.4668 38.2389 18.4061 38.3139 18.4061H38.3216C38.3965 18.4061 38.4572 18.4667 38.4572 18.5417V19.4148C38.4572 19.4897 38.5179 19.5504 38.5929 19.5504H38.6041C38.679 19.5504 38.7397 19.4898 38.7397 19.4148V18.5417C38.7397 18.4668 38.8004 18.4061 38.8754 18.4061H38.8793C38.9542 18.4061 39.0149 18.4667 39.0149 18.5417V19.6938C39.0149 19.7687 38.9543 19.8294 38.8793 19.8294H37.7561C37.6811 19.8294 37.6204 19.7688 37.6204 19.6938V19.4C37.6204 19.3251 37.5598 19.2644 37.4848 19.2644H36.9229C36.8479 19.2644 36.7872 19.325 36.7872 19.4V19.4148C36.7872 19.4897 36.8479 19.5504 36.9229 19.5504H37.206C37.2809 19.5504 37.3416 19.611 37.3416 19.686V19.6938C37.3414 19.7686 37.2808 19.8294 37.2059 19.8294Z" fill="#F5F5F5"/>
<path d="M39.4333 19.8294H39.4374C39.5123 19.8294 39.573 19.7688 39.573 19.6938V19.4C39.573 19.3251 39.6336 19.2644 39.7086 19.2644H40.2743C40.3492 19.2644 40.4099 19.325 40.4099 19.4V19.6938C40.4099 19.7687 40.4706 19.8294 40.5456 19.8294H41.6723C41.7472 19.8294 41.808 19.7688 41.808 19.6938V19.1139C41.808 19.039 41.7473 18.9782 41.6723 18.9782H41.1106C41.0357 18.9782 40.9749 19.0389 40.9749 19.1139V19.1287C40.9749 19.2036 41.0356 19.2644 41.1106 19.2644H41.397C41.4719 19.2644 41.5327 19.325 41.5327 19.4V19.4148C41.5327 19.4897 41.472 19.5504 41.397 19.5504H40.8281C40.7532 19.5504 40.6924 19.4898 40.6924 19.4148V19.1139C40.6924 19.039 40.6318 18.9782 40.5568 18.9782H39.4333C39.3584 18.9782 39.2976 19.0389 39.2976 19.1139V19.6938C39.2975 19.7686 39.3584 19.8294 39.4333 19.8294ZM39.9911 19.8294H39.9988C40.0737 19.8294 40.1344 19.7688 40.1344 19.6938V19.686C40.1344 19.6111 40.0738 19.5504 39.9988 19.5504H39.9911C39.9162 19.5504 39.8554 19.611 39.8554 19.686V19.6938C39.8554 19.7686 39.9162 19.8294 39.9911 19.8294ZM39.4333 18.6922H42.7987C42.8736 18.6922 42.9343 18.6316 42.9343 18.5566V18.5417C42.9343 18.4668 42.8737 18.4061 42.7987 18.4061H39.4333C39.3584 18.4061 39.2976 18.4667 39.2976 18.5417V18.5566C39.2975 18.6316 39.3584 18.6922 39.4333 18.6922ZM42.7986 19.8294H42.2258C42.1509 19.8294 42.0902 19.7688 42.0902 19.6938V19.1139C42.0902 19.039 42.1508 18.9782 42.2258 18.9782H43.0704C43.1453 18.9782 43.206 18.9176 43.206 18.8426V18.5417C43.206 18.4668 43.2666 18.4061 43.3416 18.4061H43.3529C43.4278 18.4061 43.4885 18.4667 43.4885 18.5417V19.4148C43.4885 19.4897 43.5492 19.5504 43.6242 19.5504H43.6317C43.7066 19.5504 43.7673 19.4898 43.7673 19.4148V18.5417C43.7673 18.4668 43.828 18.4061 43.903 18.4061H43.9071C43.982 18.4061 44.0427 18.4667 44.0427 18.5417V19.4148C44.0427 19.4897 44.1034 19.5504 44.1784 19.5504H44.1896C44.2645 19.5504 44.3252 19.4898 44.3252 19.4148V18.5417C44.3252 18.4668 44.3859 18.4061 44.4609 18.4061H44.4686C44.5435 18.4061 44.6042 18.4667 44.6042 18.5417V19.6938C44.6042 19.7687 44.5436 19.8294 44.4686 19.8294H43.3416C43.2667 19.8294 43.206 19.7688 43.206 19.6938V19.4C43.206 19.3251 43.1454 19.2644 43.0704 19.2644H42.5049C42.43 19.2644 42.3693 19.325 42.3693 19.4V19.4148C42.3693 19.4897 42.4299 19.5504 42.5049 19.5504H42.7987C42.8736 19.5504 42.9343 19.611 42.9343 19.686V19.6938C42.9343 19.7686 42.8735 19.8294 42.7986 19.8294Z" fill="#F5F5F5"/>
<path d="M45.0185 19.8294H45.0262C45.1011 19.8294 45.1619 19.7688 45.1619 19.6938V19.4C45.1619 19.3251 45.2225 19.2644 45.2975 19.2644H45.863C45.9379 19.2644 45.9986 19.325 45.9986 19.4V19.6938C45.9986 19.7687 46.0592 19.8294 46.1342 19.8294H47.2612C47.3361 19.8294 47.3968 19.7688 47.3968 19.6938V19.1139C47.3968 19.039 47.3362 18.9782 47.2612 18.9782H46.6993C46.6244 18.9782 46.5636 19.0389 46.5636 19.1139V19.1287C46.5636 19.2036 46.6243 19.2644 46.6993 19.2644H46.9859C47.0608 19.2644 47.1215 19.325 47.1215 19.4V19.4148C47.1215 19.4897 47.0609 19.5504 46.9859 19.5504H46.4131C46.3382 19.5504 46.2775 19.4898 46.2775 19.4148V19.1139C46.2775 19.039 46.2169 18.9782 46.1419 18.9782H45.0186C44.9437 18.9782 44.883 19.0389 44.883 19.1139V19.6938C44.883 19.7686 44.9437 19.8294 45.0185 19.8294ZM45.5764 19.8294H45.5841C45.659 19.8294 45.7198 19.7688 45.7198 19.6938V19.686C45.7198 19.6111 45.6591 19.5504 45.5841 19.5504H45.5764C45.5015 19.5504 45.4408 19.611 45.4408 19.686V19.6938C45.4409 19.7686 45.5015 19.8294 45.5764 19.8294ZM45.0185 18.6922H48.3767C48.4516 18.6922 48.5124 18.6316 48.5124 18.5566V18.5417C48.5124 18.4668 48.4517 18.4061 48.3767 18.4061H45.0185C44.9436 18.4061 44.8829 18.4667 44.8829 18.5417V18.5566C44.883 18.6316 44.9437 18.6922 45.0185 18.6922ZM48.3767 19.8294H47.8113C47.7364 19.8294 47.6756 19.7688 47.6756 19.6938V19.1139C47.6756 19.039 47.7363 18.9782 47.8113 18.9782H48.6629C48.7378 18.9782 48.7986 18.9176 48.7986 18.8426V18.5417C48.7986 18.4668 48.8592 18.4061 48.9342 18.4061H48.9346C49.0095 18.4061 49.0703 18.4667 49.0703 18.5417V19.4148C49.0703 19.4897 49.1309 19.5504 49.2059 19.5504H49.2208C49.2957 19.5504 49.3564 19.4898 49.3564 19.4148V18.5417C49.3564 18.4668 49.417 18.4061 49.492 18.4061H49.4924C49.5673 18.4061 49.6281 18.4667 49.6281 18.5417V19.4148C49.6281 19.4897 49.6887 19.5504 49.7637 19.5504H49.7714C49.8463 19.5504 49.9071 19.4898 49.9071 19.4148V18.5417C49.9071 18.4668 49.9677 18.4061 50.0427 18.4061H50.0575C50.1324 18.4061 50.1931 18.4667 50.1931 18.5417V19.6938C50.1931 19.7687 50.1325 19.8294 50.0575 19.8294H48.9342C48.8593 19.8294 48.7986 19.7688 48.7986 19.6938V19.4C48.7986 19.3251 48.7379 19.2644 48.6629 19.2644H48.0903C48.0154 19.2644 47.9546 19.325 47.9546 19.4V19.4148C47.9546 19.4897 48.0153 19.5504 48.0903 19.5504H48.3767C48.4516 19.5504 48.5124 19.611 48.5124 19.686V19.6938C48.5124 19.7686 48.4516 19.8294 48.3767 19.8294Z" fill="#F5F5F5"/>
<path d="M0.328576 20.6945H2.57105C2.64595 20.6945 2.7067 20.6339 2.7067 20.5589V20.258C2.7067 20.1831 2.64605 20.1224 2.57105 20.1224H0.328576C0.253674 20.1224 0.192932 20.183 0.192932 20.258V20.5589C0.192932 20.6339 0.253577 20.6945 0.328576 20.6945ZM3.12476 20.6945H5.36372C5.43863 20.6945 5.49937 20.6339 5.49937 20.5589V20.258C5.49937 20.1831 5.43872 20.1224 5.36372 20.1224H3.12476C3.04986 20.1224 2.98912 20.183 2.98912 20.258V20.5589C2.98912 20.6339 3.04986 20.6945 3.12476 20.6945Z" fill="#F5F5F5"/>
<path d="M5.91738 20.6945H8.15634C8.23124 20.6945 8.29199 20.6339 8.29199 20.5589V20.258C8.29199 20.1831 8.23134 20.1224 8.15634 20.1224H5.91738C5.84248 20.1224 5.78174 20.183 5.78174 20.258V20.5589C5.78184 20.6339 5.84258 20.6945 5.91738 20.6945ZM8.70654 20.6945H10.9526C11.0275 20.6945 11.0883 20.6339 11.0883 20.5589V20.258C11.0883 20.1831 11.0276 20.1224 10.9526 20.1224H8.70654C8.63163 20.1224 8.57089 20.183 8.57089 20.258V20.5589C8.57089 20.6339 8.63163 20.6945 8.70654 20.6945Z" fill="#F5F5F5"/>
<path d="M11.503 20.6945H13.7455C13.8204 20.6945 13.8811 20.6339 13.8811 20.5589V20.258C13.8811 20.1831 13.8205 20.1224 13.7455 20.1224H11.503C11.4281 20.1224 11.3674 20.183 11.3674 20.258V20.5589C11.3673 20.6339 11.4281 20.6945 11.503 20.6945ZM14.2956 20.6945H16.5381C16.613 20.6945 16.6737 20.6339 16.6737 20.5589V20.258C16.6737 20.1831 16.6131 20.1224 16.5381 20.1224H14.2956C14.2207 20.1224 14.1599 20.183 14.1599 20.258V20.5589C14.16 20.6339 14.2208 20.6945 14.2956 20.6945Z" fill="#F5F5F5"/>
<path d="M17.0883 20.6945H19.3308C19.4057 20.6945 19.4664 20.6339 19.4664 20.5589V20.258C19.4664 20.1831 19.4058 20.1224 19.3308 20.1224H17.0883C17.0134 20.1224 16.9526 20.183 16.9526 20.258V20.5589C16.9527 20.6339 17.0135 20.6945 17.0883 20.6945ZM19.8774 20.6945H22.1235C22.1984 20.6945 22.2592 20.6339 22.2592 20.5589V20.258C22.2592 20.1831 22.1985 20.1224 22.1235 20.1224H19.8774C19.8025 20.1224 19.7418 20.183 19.7418 20.258V20.5589C19.7418 20.6339 19.8024 20.6945 19.8774 20.6945Z" fill="#F5F5F5"/>
<path d="M22.6735 20.6945H24.9162C24.9911 20.6945 25.0519 20.6339 25.0519 20.5589V20.258C25.0519 20.1831 24.9912 20.1224 24.9162 20.1224H22.6735C22.5986 20.1224 22.5379 20.183 22.5379 20.258V20.5589C22.538 20.6339 22.5986 20.6945 22.6735 20.6945ZM25.4662 20.6945H27.7089C27.7838 20.6945 27.8445 20.6339 27.8445 20.5589V20.258C27.8445 20.1831 27.7839 20.1224 27.7089 20.1224H25.4662C25.3913 20.1224 25.3306 20.183 25.3306 20.258V20.5589C25.3307 20.6339 25.3913 20.6945 25.4662 20.6945Z" fill="#F5F5F5"/>
<path d="M28.2587 20.6945H30.5014C30.5763 20.6945 30.637 20.6339 30.637 20.5589V20.258C30.637 20.1831 30.5764 20.1224 30.5014 20.1224H28.2587C28.1838 20.1224 28.123 20.183 28.123 20.258V20.5589C28.123 20.6339 28.1838 20.6945 28.2587 20.6945ZM31.0551 20.6945H33.294C33.3689 20.6945 33.4297 20.6339 33.4297 20.5589V20.258C33.4297 20.1831 33.369 20.1224 33.294 20.1224H31.0551C30.9802 20.1224 30.9194 20.183 30.9194 20.258V20.5589C30.9194 20.6339 30.9802 20.6945 31.0551 20.6945Z" fill="#F5F5F5"/>
<path d="M33.844 20.6945H36.0866C36.1615 20.6945 36.2223 20.6339 36.2223 20.5589V20.258C36.2223 20.1831 36.1616 20.1224 36.0866 20.1224H33.844C33.7691 20.1224 33.7083 20.183 33.7083 20.258V20.5589C33.7084 20.6339 33.7691 20.6945 33.844 20.6945ZM36.6403 20.6945H38.8791C38.954 20.6945 39.0147 20.6339 39.0147 20.5589V20.258C39.0147 20.1831 38.9541 20.1224 38.8791 20.1224H36.6403C36.5654 20.1224 36.5047 20.183 36.5047 20.258V20.5589C36.5048 20.6339 36.5654 20.6945 36.6403 20.6945Z" fill="#F5F5F5"/>
<path d="M39.4333 20.6945H41.6722C41.7471 20.6945 41.8079 20.6339 41.8079 20.5589V20.258C41.8079 20.1831 41.7472 20.1224 41.6722 20.1224H39.4333C39.3584 20.1224 39.2976 20.183 39.2976 20.258V20.5589C39.2975 20.6339 39.3584 20.6945 39.4333 20.6945ZM42.2259 20.6945H44.4686C44.5435 20.6945 44.6042 20.6339 44.6042 20.5589V20.258C44.6042 20.1831 44.5436 20.1224 44.4686 20.1224H42.2259C42.151 20.1224 42.0903 20.183 42.0903 20.258V20.5589C42.0903 20.6339 42.151 20.6945 42.2259 20.6945Z" fill="#F5F5F5"/>
<path d="M45.0185 20.6945H47.2612C47.3361 20.6945 47.3968 20.6339 47.3968 20.5589V20.258C47.3968 20.1831 47.3362 20.1224 47.2612 20.1224H45.0185C44.9436 20.1224 44.8829 20.183 44.8829 20.258V20.5589C44.883 20.6339 44.9437 20.6945 45.0185 20.6945ZM47.8114 20.6945H50.0575C50.1324 20.6945 50.1931 20.6339 50.1931 20.5589V20.258C50.1931 20.1831 50.1325 20.1224 50.0575 20.1224H47.8114C47.7365 20.1224 47.6757 20.183 47.6757 20.258V20.5589C47.6756 20.6339 47.7364 20.6945 47.8114 20.6945Z" fill="#F5F5F5"/>
<path d="M50.0572 31.9045H50.0497C49.9748 31.9045 49.914 31.9652 49.914 32.0402V32.3339C49.914 32.4088 49.8534 32.4696 49.7784 32.4696H49.2094C49.1345 32.4696 49.0737 32.4089 49.0737 32.3339V32.0402C49.0737 31.9653 49.0131 31.9045 48.9381 31.9045H47.8148C47.7399 31.9045 47.6792 31.9652 47.6792 32.0402V32.6202C47.6792 32.6951 47.7398 32.7558 47.8148 32.7558H48.3803C48.4552 32.7558 48.5159 32.6952 48.5159 32.6202V32.6053C48.5159 32.5304 48.4553 32.4697 48.3803 32.4697H48.0936C48.0187 32.4697 47.958 32.409 47.958 32.334V32.3193C47.958 32.2444 48.0186 32.1836 48.0936 32.1836H48.6593C48.7342 32.1836 48.7949 32.2443 48.7949 32.3193V32.6202C48.7949 32.6951 48.8555 32.7558 48.9305 32.7558H50.0573C50.1322 32.7558 50.1929 32.6952 50.1929 32.6202V32.0402C50.1928 31.9653 50.1322 31.9045 50.0572 31.9045ZM49.4959 31.9045H49.4882C49.4133 31.9045 49.3525 31.9652 49.3525 32.0402V32.0479C49.3525 32.1228 49.4132 32.1835 49.4882 32.1835H49.4959C49.5708 32.1835 49.6315 32.1229 49.6315 32.0479V32.0402C49.6315 31.9653 49.5708 31.9045 49.4959 31.9045ZM50.0572 33.0417H46.6956C46.6207 33.0417 46.5599 33.1024 46.5599 33.1774V33.1922C46.5599 33.2671 46.6206 33.3279 46.6956 33.3279H50.0572C50.1321 33.3279 50.1928 33.2672 50.1928 33.1922V33.1774C50.1928 33.1024 50.1322 33.0417 50.0572 33.0417ZM46.6957 31.9045H47.2611C47.336 31.9045 47.3968 31.9652 47.3968 32.0402V32.6202C47.3968 32.6951 47.3361 32.7558 47.2611 32.7558H46.4166C46.3417 32.7558 46.2809 32.8165 46.2809 32.8915V33.1923C46.2809 33.2672 46.2203 33.328 46.1453 33.328H46.1378C46.0629 33.328 46.0021 33.2673 46.0021 33.1923V32.3193C46.0021 32.2444 45.9415 32.1836 45.8665 32.1836H45.8588C45.7839 32.1836 45.7231 32.2443 45.7231 32.3193V33.1923C45.7231 33.2672 45.6625 33.328 45.5875 33.328H45.58C45.5051 33.328 45.4443 33.2673 45.4443 33.1923V32.3193C45.4443 32.2444 45.3837 32.1836 45.3087 32.1836H45.2974C45.2225 32.1836 45.1618 32.2443 45.1618 32.3193V33.1923C45.1618 33.2672 45.1012 33.328 45.0262 33.328H45.0221C44.9472 33.328 44.8864 33.2673 44.8864 33.1923V32.0403C44.8864 31.9654 44.9471 31.9046 45.0221 31.9046H46.1453C46.2202 31.9046 46.2809 31.9653 46.2809 32.0403V32.334C46.2809 32.4089 46.3416 32.4697 46.4166 32.4697H46.982C47.0569 32.4697 47.1177 32.409 47.1177 32.334V32.3193C47.1177 32.2444 47.057 32.1836 46.982 32.1836H46.6956C46.6207 32.1836 46.5599 32.123 46.5599 32.048V32.0403C46.5599 31.9653 46.6208 31.9045 46.6957 31.9045Z" fill="#F5F5F5"/>
<path d="M44.4687 31.9045H44.4575C44.3826 31.9045 44.3218 31.9652 44.3218 32.0402V32.3339C44.3218 32.4088 44.2612 32.4696 44.1862 32.4696H43.6243C43.5494 32.4696 43.4886 32.4089 43.4886 32.3339V32.0402C43.4886 31.9653 43.428 31.9045 43.353 31.9045H42.2297C42.1548 31.9045 42.0941 31.9652 42.0941 32.0402V32.6202C42.0941 32.6951 42.1547 32.7558 42.2297 32.7558H42.7952C42.8701 32.7558 42.9308 32.6952 42.9308 32.6202V32.6053C42.9308 32.5304 42.8702 32.4697 42.7952 32.4697H42.5085C42.4336 32.4697 42.3729 32.409 42.3729 32.334V32.3193C42.3729 32.2444 42.4335 32.1836 42.5085 32.1836H43.0742C43.1491 32.1836 43.2098 32.2443 43.2098 32.3193V32.6202C43.2098 32.6951 43.2705 32.7558 43.3455 32.7558H44.4687C44.5436 32.7558 44.6043 32.6952 44.6043 32.6202V32.0402C44.6042 31.9653 44.5435 31.9045 44.4687 31.9045ZM43.9108 31.9045H43.9033C43.8284 31.9045 43.7676 31.9652 43.7676 32.0402V32.0479C43.7676 32.1228 43.8283 32.1835 43.9033 32.1835H43.9108C43.9857 32.1835 44.0464 32.1229 44.0464 32.0479V32.0402C44.0463 31.9653 43.9857 31.9045 43.9108 31.9045ZM44.4687 33.0417H41.1105C41.0356 33.0417 40.9749 33.1024 40.9749 33.1774V33.1922C40.9749 33.2671 41.0355 33.3279 41.1105 33.3279H44.4687C44.5436 33.3279 44.6043 33.2672 44.6043 33.1922V33.1774C44.6042 33.1024 44.5435 33.0417 44.4687 33.0417ZM41.1105 31.9045H41.6795C41.7544 31.9045 41.8152 31.9652 41.8152 32.0402V32.6202C41.8152 32.6951 41.7545 32.7558 41.6795 32.7558H40.835C40.7601 32.7558 40.6994 32.8165 40.6994 32.8915V33.1923C40.6994 33.2672 40.6387 33.328 40.5637 33.328H40.5525C40.4776 33.328 40.4168 33.2673 40.4168 33.1923V32.3193C40.4168 32.2444 40.3562 32.1836 40.2812 32.1836H40.27C40.1951 32.1836 40.1343 32.2443 40.1343 32.3193V33.1923C40.1343 33.2672 40.0737 33.328 39.9987 33.328H39.9946C39.9197 33.328 39.8589 33.2673 39.8589 33.1923V32.3193C39.8589 32.2444 39.7983 32.1836 39.7233 32.1836H39.7121C39.6372 32.1836 39.5764 32.2443 39.5764 32.3193V33.1923C39.5764 33.2672 39.5158 33.328 39.4408 33.328H39.4333C39.3584 33.328 39.2976 33.2673 39.2976 33.1923V32.0403C39.2976 31.9654 39.3583 31.9046 39.4333 31.9046H40.5636C40.6385 31.9046 40.6993 31.9653 40.6993 32.0403V32.334C40.6993 32.4089 40.7599 32.4697 40.8349 32.4697H41.3968C41.4717 32.4697 41.5325 32.409 41.5325 32.334V32.3193C41.5325 32.2444 41.4718 32.1836 41.3968 32.1836H41.1102C41.0353 32.1836 40.9746 32.123 40.9746 32.048V32.0403C40.9749 31.9653 41.0356 31.9045 41.1105 31.9045Z" fill="#F5F5F5"/>
<path d="M38.8827 31.9045H38.8752C38.8003 31.9045 38.7395 31.9652 38.7395 32.0402V32.3339C38.7395 32.4088 38.6789 32.4696 38.6039 32.4696H38.0383C37.9633 32.4696 37.9026 32.4089 37.9026 32.3339V32.0402C37.9026 31.9653 37.842 31.9045 37.767 31.9045H36.6402C36.5653 31.9045 36.5046 31.9652 36.5046 32.0402V32.6202C36.5046 32.6951 36.5652 32.7558 36.6402 32.7558H37.2056C37.2805 32.7558 37.3413 32.6952 37.3413 32.6202V32.6053C37.3413 32.5304 37.2806 32.4697 37.2056 32.4697H36.919C36.8441 32.4697 36.7834 32.409 36.7834 32.334V32.3193C36.7834 32.2444 36.844 32.1836 36.919 32.1836H37.4881C37.563 32.1836 37.6237 32.2443 37.6237 32.3193V32.6202C37.6237 32.6951 37.6843 32.7558 37.7593 32.7558H38.8826C38.9575 32.7558 39.0182 32.6952 39.0182 32.6202V32.0402C39.0184 31.9653 38.9576 31.9045 38.8827 31.9045ZM38.3249 31.9045H38.3174C38.2425 31.9045 38.1817 31.9652 38.1817 32.0402V32.0479C38.1817 32.1228 38.2424 32.1835 38.3174 32.1835H38.3249C38.3998 32.1835 38.4605 32.1229 38.4605 32.0479V32.0402C38.4605 31.9653 38.3998 31.9045 38.3249 31.9045ZM38.8827 33.0417H35.5209C35.446 33.0417 35.3852 33.1024 35.3852 33.1774V33.1922C35.3852 33.2671 35.4459 33.3279 35.5209 33.3279H38.8827C38.9576 33.3279 39.0183 33.2672 39.0183 33.1922V33.1774C39.0184 33.1024 38.9576 33.0417 38.8827 33.0417ZM35.521 31.9045H36.09C36.1649 31.9045 36.2257 31.9652 36.2257 32.0402V32.6202C36.2257 32.6951 36.165 32.7558 36.09 32.7558H35.2457C35.1708 32.7558 35.11 32.8165 35.11 32.8915V33.1923C35.11 33.2672 35.0494 33.328 34.9744 33.328H34.9667C34.8918 33.328 34.831 33.2673 34.831 33.1923V32.3193C34.831 32.2444 34.7704 32.1836 34.6954 32.1836H34.6842C34.6093 32.1836 34.5485 32.2443 34.5485 32.3193V33.1923C34.5485 33.2672 34.4879 33.328 34.4129 33.328H34.4016C34.3267 33.328 34.266 33.2673 34.266 33.1923V32.3193C34.266 32.2444 34.2053 32.1836 34.1303 32.1836H34.1262C34.0513 32.1836 33.9906 32.2443 33.9906 32.3193V33.1923C33.9906 33.2672 33.93 33.328 33.855 33.328H33.8474C33.7725 33.328 33.7118 33.2673 33.7118 33.1923V32.0403C33.7118 31.9654 33.7724 31.9046 33.8474 31.9046H34.9744C35.0493 31.9046 35.11 31.9653 35.11 32.0403V32.334C35.11 32.4089 35.1707 32.4697 35.2457 32.4697H35.8111C35.886 32.4697 35.9468 32.409 35.9468 32.334V32.3193C35.9468 32.2444 35.8861 32.1836 35.8111 32.1836H35.5208C35.4459 32.1836 35.3851 32.123 35.3851 32.048V32.0403C35.3853 31.9653 35.4461 31.9045 35.521 31.9045Z" fill="#F5F5F5"/>
<path d="M33.2977 31.9045H33.2902C33.2153 31.9045 33.1545 31.9652 33.1545 32.0402V32.3339C33.1545 32.4088 33.0939 32.4696 33.0189 32.4696H32.4535C32.3786 32.4696 32.3178 32.4089 32.3178 32.3339V32.0402C32.3178 31.9653 32.2572 31.9045 32.1822 31.9045H31.0552C30.9803 31.9045 30.9196 31.9652 30.9196 32.0402V32.6202C30.9196 32.6951 30.9802 32.7558 31.0552 32.7558H31.6243C31.6992 32.7558 31.7599 32.6952 31.7599 32.6202V32.6053C31.7599 32.5304 31.6993 32.4697 31.6243 32.4697H31.3376C31.2627 32.4697 31.202 32.409 31.202 32.334V32.3193C31.202 32.2444 31.2626 32.1836 31.3376 32.1836H31.9031C31.978 32.1836 32.0387 32.2443 32.0387 32.3193V32.6202C32.0387 32.6951 32.0994 32.7558 32.1744 32.7558H33.2976C33.3725 32.7558 33.4332 32.6952 33.4332 32.6202V32.0402C33.4332 31.9653 33.3725 31.9045 33.2977 31.9045ZM32.7398 31.9045H32.7323C32.6574 31.9045 32.5966 31.9652 32.5966 32.0402V32.0479C32.5966 32.1228 32.6573 32.1835 32.7323 32.1835H32.7398C32.8147 32.1835 32.8754 32.1229 32.8754 32.0479V32.0402C32.8753 31.9653 32.8147 31.9045 32.7398 31.9045ZM33.2977 33.0417H29.9395C29.8646 33.0417 29.8039 33.1024 29.8039 33.1774V33.1922C29.8039 33.2671 29.8645 33.3279 29.9395 33.3279H33.2977C33.3726 33.3279 33.4333 33.2672 33.4333 33.1922V33.1774C33.4332 33.1024 33.3725 33.0417 33.2977 33.0417ZM29.9395 31.9045H30.5085C30.5834 31.9045 30.6442 31.9652 30.6442 32.0402V32.6202C30.6442 32.6951 30.5835 32.7558 30.5085 32.7558H29.6569C29.582 32.7558 29.5212 32.8165 29.5212 32.8915V33.1923C29.5212 33.2672 29.4606 33.328 29.3856 33.328H29.3781C29.3032 33.328 29.2424 33.2673 29.2424 33.1923V32.3193C29.2424 32.2444 29.1818 32.1836 29.1068 32.1836H29.1027C29.0278 32.1836 28.967 32.2443 28.967 32.3193V33.1923C28.967 33.2672 28.9064 33.328 28.8314 33.328H28.8202C28.7453 33.328 28.6845 33.2673 28.6845 33.1923V32.3193C28.6845 32.2444 28.6239 32.1836 28.5489 32.1836H28.5412C28.4663 32.1836 28.4055 32.2443 28.4055 32.3193V33.1923C28.4055 33.2672 28.3449 33.328 28.2699 33.328H28.2624C28.1875 33.328 28.1267 33.2673 28.1267 33.1923V32.0403C28.1267 31.9654 28.1874 31.9046 28.2624 31.9046H29.3856C29.4605 31.9046 29.5212 31.9653 29.5212 32.0403V32.334C29.5212 32.4089 29.5819 32.4697 29.6569 32.4697H30.2259C30.3008 32.4697 30.3616 32.409 30.3616 32.334V32.3193C30.3616 32.2444 30.3009 32.1836 30.2259 32.1836H29.9393C29.8644 32.1836 29.8037 32.123 29.8037 32.048V32.0403C29.804 31.9653 29.8646 31.9045 29.9395 31.9045Z" fill="#F5F5F5"/>
<path d="M27.7124 31.9045H27.7047C27.6298 31.9045 27.5691 31.9652 27.5691 32.0402V32.3339C27.5691 32.4088 27.5084 32.4696 27.4334 32.4696H26.868C26.7931 32.4696 26.7324 32.4089 26.7324 32.3339V32.0402C26.7324 31.9653 26.6717 31.9045 26.5967 31.9045H25.4698C25.3949 31.9045 25.3341 31.9652 25.3341 32.0402V32.6202C25.3341 32.6951 25.3948 32.7558 25.4698 32.7558H26.0388C26.1137 32.7558 26.1744 32.6952 26.1744 32.6202V32.6053C26.1744 32.5304 26.1138 32.4697 26.0388 32.4697H25.7488C25.6739 32.4697 25.6131 32.409 25.6131 32.334V32.3193C25.6131 32.2444 25.6738 32.1836 25.7488 32.1836H26.3142C26.3891 32.1836 26.4498 32.2443 26.4498 32.3193V32.6202C26.4498 32.6951 26.5105 32.7558 26.5855 32.7558H27.7124C27.7873 32.7558 27.8481 32.6952 27.8481 32.6202V32.0402C27.848 31.9653 27.7873 31.9045 27.7124 31.9045ZM27.1509 31.9045H27.1468C27.0719 31.9045 27.0112 31.9652 27.0112 32.0402V32.0479C27.0112 32.1228 27.0718 32.1835 27.1468 32.1835H27.1509C27.2258 32.1835 27.2866 32.1229 27.2866 32.0479V32.0402C27.2866 31.9653 27.2258 31.9045 27.1509 31.9045ZM27.7124 33.0417H24.3506C24.2757 33.0417 24.215 33.1024 24.215 33.1774V33.1922C24.215 33.2671 24.2756 33.3279 24.3506 33.3279H27.7124C27.7873 33.3279 27.8481 33.2672 27.8481 33.1922V33.1774C27.848 33.1024 27.7873 33.0417 27.7124 33.0417ZM24.3505 31.9045H24.9196C24.9945 31.9045 25.0552 31.9652 25.0552 32.0402V32.6202C25.0552 32.6951 24.9946 32.7558 24.9196 32.7558H24.0715C23.9966 32.7558 23.9359 32.8165 23.9359 32.8915V33.1923C23.9359 33.2672 23.8752 33.328 23.8002 33.328H23.7927C23.7178 33.328 23.6571 33.2673 23.6571 33.1923V32.3193C23.6571 32.2444 23.5964 32.1836 23.5214 32.1836H23.5137C23.4388 32.1836 23.3781 32.2443 23.3781 32.3193V33.1923C23.3781 33.2672 23.3174 33.328 23.2424 33.328H23.2349C23.16 33.328 23.0993 33.2673 23.0993 33.1923V32.3193C23.0993 32.2444 23.0386 32.1836 22.9636 32.1836H22.9561C22.8812 32.1836 22.8204 32.2443 22.8204 32.3193V33.1923C22.8204 33.2672 22.7598 33.328 22.6848 33.328H22.6771C22.6022 33.328 22.5414 33.2673 22.5414 33.1923V32.0403C22.5414 31.9654 22.6021 31.9046 22.6771 31.9046H23.8003C23.8752 31.9046 23.936 31.9653 23.936 32.0403V32.334C23.936 32.4089 23.9966 32.4697 24.0716 32.4697H24.6407C24.7156 32.4697 24.7763 32.409 24.7763 32.334V32.3193C24.7763 32.2444 24.7157 32.1836 24.6407 32.1836H24.3506C24.2757 32.1836 24.215 32.123 24.215 32.048V32.0403C24.215 31.9653 24.2756 31.9045 24.3505 31.9045Z" fill="#F5F5F5"/>
<path d="M22.1272 31.9045H22.1194C22.0445 31.9045 21.9838 31.9652 21.9838 32.0402V32.3339C21.9838 32.4088 21.9232 32.4696 21.8482 32.4696H21.2827C21.2078 32.4696 21.1471 32.4089 21.1471 32.3339V32.0402C21.1471 31.9653 21.0864 31.9045 21.0114 31.9045H19.8845C19.8096 31.9045 19.7488 31.9652 19.7488 32.0402V32.6202C19.7488 32.6951 19.8095 32.7558 19.8845 32.7558H20.4501C20.525 32.7558 20.5858 32.6952 20.5858 32.6202V32.6053C20.5858 32.5304 20.5251 32.4697 20.4501 32.4697H20.167C20.0921 32.4697 20.0314 32.409 20.0314 32.334V32.3193C20.0314 32.2444 20.092 32.1836 20.167 32.1836H20.7289C20.8038 32.1836 20.8646 32.2443 20.8646 32.3193V32.6202C20.8646 32.6951 20.9252 32.7558 21.0002 32.7558H22.1272C22.2021 32.7558 22.2628 32.6952 22.2628 32.6202V32.0402C22.2628 31.9653 22.2021 31.9045 22.1272 31.9045ZM21.5657 31.9045H21.5616C21.4867 31.9045 21.426 31.9652 21.426 32.0402V32.0479C21.426 32.1228 21.4866 32.1835 21.5616 32.1835H21.5657C21.6406 32.1835 21.7014 32.1229 21.7014 32.0479V32.0402C21.7013 31.9653 21.6406 31.9045 21.5657 31.9045ZM22.1272 33.0417H18.7654C18.6904 33.0417 18.6297 33.1024 18.6297 33.1774V33.1922C18.6297 33.2671 18.6904 33.3279 18.7654 33.3279H22.1271C22.202 33.3279 22.2627 33.2672 22.2627 33.1922V33.1774C22.2628 33.1024 22.2021 33.0417 22.1272 33.0417ZM18.7654 31.9045H19.3308C19.4057 31.9045 19.4664 31.9652 19.4664 32.0402V32.6202C19.4664 32.6951 19.4058 32.7558 19.3308 32.7558H18.4864C18.4115 32.7558 18.3508 32.8165 18.3508 32.8915V33.1923C18.3508 33.2672 18.2902 33.328 18.2152 33.328H18.2074C18.1325 33.328 18.0718 33.2673 18.0718 33.1923V32.3193C18.0718 32.2444 18.0112 32.1836 17.9362 32.1836H17.9286C17.8537 32.1836 17.793 32.2443 17.793 32.3193V33.1923C17.793 33.2672 17.7323 33.328 17.6573 33.328H17.6496C17.5747 33.328 17.514 33.2673 17.514 33.1923V32.3193C17.514 32.2444 17.4533 32.1836 17.3783 32.1836H17.3708C17.2959 32.1836 17.2352 32.2443 17.2352 32.3193V33.1923C17.2352 33.2672 17.1745 33.328 17.0995 33.328H17.0918C17.0169 33.328 16.9562 33.2673 16.9562 33.1923V32.0403C16.9562 31.9654 17.0168 31.9046 17.0918 31.9046H18.2154C18.2903 31.9046 18.351 31.9653 18.351 32.0403V32.334C18.351 32.4089 18.4116 32.4697 18.4866 32.4697H19.0556C19.1305 32.4697 19.1912 32.409 19.1912 32.334V32.3193C19.1912 32.2444 19.1306 32.1836 19.0556 32.1836H18.7655C18.6906 32.1836 18.6299 32.123 18.6299 32.048V32.0403C18.6297 31.9653 18.6905 31.9045 18.7654 31.9045Z" fill="#F5F5F5"/>
<path d="M16.5414 31.9045H16.5337C16.4588 31.9045 16.3981 31.9652 16.3981 32.0402V32.3339C16.3981 32.4088 16.3374 32.4696 16.2624 32.4696H15.6935C15.6186 32.4696 15.5579 32.4089 15.5579 32.3339V32.0402C15.5579 31.9653 15.4972 31.9045 15.4222 31.9045H14.2987C14.2238 31.9045 14.163 31.9652 14.163 32.0402V32.6202C14.163 32.6951 14.2237 32.7558 14.2987 32.7558H14.8643C14.9392 32.7558 14.9999 32.6952 14.9999 32.6202V32.6053C14.9999 32.5304 14.9393 32.4697 14.8643 32.4697H14.574C14.4991 32.4697 14.4383 32.409 14.4383 32.334V32.3193C14.4383 32.2444 14.499 32.1836 14.574 32.1836H15.1467C15.2216 32.1836 15.2824 32.2443 15.2824 32.3193V32.6202C15.2824 32.6951 15.343 32.7558 15.418 32.7558H16.5413C16.6162 32.7558 16.6769 32.6952 16.6769 32.6202V32.0402C16.677 31.9653 16.6163 31.9045 16.5414 31.9045ZM15.9835 31.9045H15.9723C15.8974 31.9045 15.8367 31.9652 15.8367 32.0402V32.0479C15.8367 32.1228 15.8973 32.1835 15.9723 32.1835H15.9835C16.0584 32.1835 16.1192 32.1229 16.1192 32.0479V32.0402C16.1192 31.9653 16.0584 31.9045 15.9835 31.9045ZM16.5414 33.0417H13.1797C13.1048 33.0417 13.0441 33.1024 13.0441 33.1774V33.1922C13.0441 33.2671 13.1047 33.3279 13.1797 33.3279H16.5414C16.6163 33.3279 16.6771 33.2672 16.6771 33.1922V33.1774C16.677 33.1024 16.6163 33.0417 16.5414 33.0417ZM13.1795 31.9045H13.745C13.8199 31.9045 13.8806 31.9652 13.8806 32.0402V32.6202C13.8806 32.6951 13.82 32.7558 13.745 32.7558H12.9006C12.8257 32.7558 12.765 32.8165 12.765 32.8915V33.1923C12.765 33.2672 12.7043 33.328 12.6293 33.328H12.6216C12.5467 33.328 12.486 33.2673 12.486 33.1923V32.3193C12.486 32.2444 12.4253 32.1836 12.3503 32.1836H12.3428C12.2679 32.1836 12.2072 32.2443 12.2072 32.3193V33.1923C12.2072 33.2672 12.1465 33.328 12.0715 33.328H12.0638C11.9889 33.328 11.9282 33.2673 11.9282 33.1923V32.3193C11.9282 32.2444 11.8675 32.1836 11.7925 32.1836H11.7813C11.7064 32.1836 11.6457 32.2443 11.6457 32.3193V33.1923C11.6457 33.2672 11.585 33.328 11.51 33.328H11.506C11.4311 33.328 11.3704 33.2673 11.3704 33.1923V32.0403C11.3704 31.9654 11.431 31.9046 11.506 31.9046H12.6292C12.7041 31.9046 12.7649 31.9653 12.7649 32.0403V32.334C12.7649 32.4089 12.8255 32.4697 12.9005 32.4697H13.4624C13.5374 32.4697 13.5981 32.409 13.5981 32.334V32.3193C13.5981 32.2444 13.5374 32.1836 13.4624 32.1836H13.1793C13.1044 32.1836 13.0437 32.123 13.0437 32.048V32.0403C13.044 31.9653 13.1046 31.9045 13.1795 31.9045Z" fill="#F5F5F5"/>
<path d="M10.9527 31.9045H10.9486C10.8737 31.9045 10.813 31.9652 10.813 32.0402V32.3339C10.813 32.4088 10.7523 32.4696 10.6773 32.4696H10.1117C10.0368 32.4696 9.97607 32.4089 9.97607 32.3339V32.0402C9.97607 31.9653 9.91542 31.9045 9.84042 31.9045H8.71386C8.63896 31.9045 8.57822 31.9652 8.57822 32.0402V32.6202C8.57822 32.6951 8.63886 32.7558 8.71386 32.7558H9.27558C9.35048 32.7558 9.41122 32.6952 9.41122 32.6202V32.6053C9.41122 32.5304 9.35058 32.4697 9.27558 32.4697H8.98915C8.91425 32.4697 8.85351 32.409 8.85351 32.334V32.3193C8.85351 32.2444 8.91415 32.1836 8.98915 32.1836H9.5582C9.6331 32.1836 9.69384 32.2443 9.69384 32.3193V32.6202C9.69384 32.6951 9.75448 32.7558 9.82948 32.7558H10.953C11.0279 32.7558 11.0887 32.6952 11.0887 32.6202V32.0402C11.0885 31.9653 11.0276 31.9045 10.9527 31.9045ZM10.3949 31.9045H10.3872C10.3123 31.9045 10.2516 31.9652 10.2516 32.0402V32.0479C10.2516 32.1228 10.3122 32.1835 10.3872 32.1835H10.3949C10.4698 32.1835 10.5306 32.1229 10.5306 32.0479V32.0402C10.5306 31.9653 10.4698 31.9045 10.3949 31.9045ZM10.9527 33.0417H7.5874C7.5125 33.0417 7.45175 33.1024 7.45175 33.1774V33.1922C7.45175 33.2671 7.5124 33.3279 7.5874 33.3279H10.9528C11.0277 33.3279 11.0885 33.2672 11.0885 33.1922V33.1774C11.0885 33.1024 11.0276 33.0417 10.9527 33.0417ZM7.5874 31.9045H8.16015C8.23505 31.9045 8.2958 31.9652 8.2958 32.0402V32.6202C8.2958 32.6951 8.23515 32.7558 8.16015 32.7558H7.31562C7.24072 32.7558 7.17998 32.8165 7.17998 32.8915V33.1923C7.17998 33.2672 7.11933 33.328 7.04433 33.328H7.0331C6.9582 33.328 6.89746 33.2673 6.89746 33.1923V32.3193C6.89746 32.2444 6.83681 32.1836 6.76181 32.1836H6.7543C6.67939 32.1836 6.61865 32.2443 6.61865 32.3193V33.1923C6.61865 33.2672 6.55801 33.328 6.48301 33.328H6.4789C6.404 33.328 6.34326 33.2673 6.34326 33.1923V32.3193C6.34326 32.2444 6.28262 32.1836 6.20762 32.1836H6.19639C6.12148 32.1836 6.06074 32.2443 6.06074 32.3193V33.1923C6.06074 33.2672 6.0001 33.328 5.9251 33.328H5.91738C5.84248 33.328 5.78174 33.2673 5.78174 33.1923V32.0403C5.78174 31.9654 5.84238 31.9046 5.91738 31.9046H7.04433C7.11924 31.9046 7.17998 31.9653 7.17998 32.0403V32.334C7.17998 32.4089 7.24062 32.4697 7.31562 32.4697H7.88105C7.95595 32.4697 8.01669 32.409 8.01669 32.334V32.3193C8.01669 32.2444 7.95605 32.1836 7.88105 32.1836H7.58759C7.51269 32.1836 7.45195 32.123 7.45195 32.048V32.0403C7.45166 31.9653 7.5125 31.9045 7.5874 31.9045Z" fill="#F5F5F5"/>
<path d="M5.36734 31.9045H5.35962C5.28472 31.9045 5.22398 31.9652 5.22398 32.0402V32.3339C5.22398 32.4088 5.16333 32.4696 5.08833 32.4696H4.5229C4.448 32.4696 4.38726 32.4089 4.38726 32.3339V32.0402C4.38726 31.9653 4.32662 31.9045 4.25162 31.9045H3.12476C3.04986 31.9045 2.98912 31.9652 2.98912 32.0402V32.6202C2.98912 32.6951 3.04976 32.7558 3.12476 32.7558H3.68668C3.76158 32.7558 3.82232 32.6952 3.82232 32.6202V32.6053C3.82232 32.5304 3.76168 32.4697 3.68668 32.4697H3.40006C3.32515 32.4697 3.26441 32.409 3.26441 32.334V32.3193C3.26441 32.2444 3.32506 32.1836 3.40006 32.1836H3.97281C4.04771 32.1836 4.10845 32.2443 4.10845 32.3193V32.6202C4.10845 32.6951 4.1691 32.7558 4.2441 32.7558H5.36734C5.44224 32.7558 5.50298 32.6952 5.50298 32.6202V32.0402C5.50298 31.9653 5.44224 31.9045 5.36734 31.9045ZM4.80953 31.9045H4.80181C4.72691 31.9045 4.66617 31.9652 4.66617 32.0402V32.0479C4.66617 32.1228 4.72681 32.1835 4.80181 32.1835H4.80953C4.88443 32.1835 4.94517 32.1229 4.94517 32.0479V32.0402C4.94507 31.9653 4.88443 31.9045 4.80953 31.9045ZM5.36734 33.0417H2.00924C1.93434 33.0417 1.87359 33.1024 1.87359 33.1774V33.1922C1.87359 33.2671 1.93424 33.3279 2.00924 33.3279H5.36743C5.44234 33.3279 5.50308 33.2672 5.50308 33.1922V33.1774C5.50298 33.1024 5.44224 33.0417 5.36734 33.0417ZM2.00924 31.9045H2.57467C2.64957 31.9045 2.71031 31.9652 2.71031 32.0402V32.6202C2.71031 32.6951 2.64967 32.7558 2.57467 32.7558H1.7232C1.6483 32.7558 1.58756 32.8165 1.58756 32.8915V33.1923C1.58756 33.2672 1.52691 33.328 1.45191 33.328H1.45152C1.37662 33.328 1.31588 33.2673 1.31588 33.1923V32.3193C1.31588 32.2444 1.25523 32.1836 1.18023 32.1836H1.1652C1.09029 32.1836 1.02955 32.2443 1.02955 32.3193V33.1923C1.02955 33.2672 0.968907 33.328 0.893907 33.328H0.893614C0.818712 33.328 0.75797 33.2673 0.75797 33.1923V32.3193C0.75797 32.2444 0.697326 32.1836 0.622326 32.1836H0.614513C0.539611 32.1836 0.478869 32.2443 0.478869 32.3193V33.1923C0.478869 33.2672 0.418225 33.328 0.343225 33.328H0.328576C0.253674 33.328 0.192932 33.2673 0.192932 33.1923V32.0403C0.192932 31.9654 0.253577 31.9046 0.328576 31.9046H1.45182C1.52672 31.9046 1.58746 31.9653 1.58746 32.0403V32.334C1.58746 32.4089 1.64811 32.4697 1.72311 32.4697H2.29576C2.37066 32.4697 2.4314 32.409 2.4314 32.334V32.3193C2.4314 32.2444 2.37076 32.1836 2.29576 32.1836H2.00934C1.93443 32.1836 1.87369 32.123 1.87369 32.048V32.0403C1.87359 31.9653 1.93434 31.9045 2.00924 31.9045Z" fill="#F5F5F5"/>
<path d="M50.0572 31.0394H47.8147C47.7398 31.0394 47.6791 31.1 47.6791 31.175V31.4759C47.6791 31.5508 47.7397 31.6115 47.8147 31.6115H50.0572C50.1321 31.6115 50.1929 31.5509 50.1929 31.4759V31.175C50.1929 31.1 50.1322 31.0394 50.0572 31.0394ZM47.261 31.0394H45.0221C44.9472 31.0394 44.8864 31.1 44.8864 31.175V31.4759C44.8864 31.5508 44.9471 31.6115 45.0221 31.6115H47.261C47.3359 31.6115 47.3967 31.5509 47.3967 31.4759V31.175C47.3967 31.1 47.3359 31.0394 47.261 31.0394Z" fill="#F5F5F5"/>
<path d="M44.4685 31.0394H42.2295C42.1546 31.0394 42.0939 31.1 42.0939 31.175V31.4759C42.0939 31.5508 42.1545 31.6115 42.2295 31.6115H44.4685C44.5434 31.6115 44.6041 31.5509 44.6041 31.4759V31.175C44.604 31.1 44.5433 31.0394 44.4685 31.0394ZM41.6793 31.0394H39.4333C39.3584 31.0394 39.2976 31.1 39.2976 31.175V31.4759C39.2976 31.5508 39.3583 31.6115 39.4333 31.6115H41.6793C41.7542 31.6115 41.815 31.5509 41.815 31.4759V31.175C41.815 31.1 41.7543 31.0394 41.6793 31.0394Z" fill="#F5F5F5"/>
<path d="M38.883 31.0394H36.6406C36.5657 31.0394 36.5049 31.1 36.5049 31.175V31.4759C36.5049 31.5508 36.5656 31.6115 36.6406 31.6115H38.883C38.9579 31.6115 39.0187 31.5509 39.0187 31.4759V31.175C39.0188 31.1 38.9579 31.0394 38.883 31.0394ZM36.0905 31.0394H33.848C33.7731 31.0394 33.7123 31.1 33.7123 31.175V31.4759C33.7123 31.5508 33.773 31.6115 33.848 31.6115H36.0905C36.1654 31.6115 36.2261 31.5509 36.2261 31.4759V31.175C36.2261 31.1 36.1653 31.0394 36.0905 31.0394Z" fill="#F5F5F5"/>
<path d="M33.2976 31.0394H31.0551C30.9802 31.0394 30.9195 31.1 30.9195 31.175V31.4759C30.9195 31.5508 30.9801 31.6115 31.0551 31.6115H33.2976C33.3725 31.6115 33.4332 31.5509 33.4332 31.4759V31.175C33.4331 31.1 33.3724 31.0394 33.2976 31.0394ZM30.5084 31.0394H28.2624C28.1875 31.0394 28.1267 31.1 28.1267 31.175V31.4759C28.1267 31.5508 28.1874 31.6115 28.2624 31.6115H30.5084C30.5833 31.6115 30.6441 31.5509 30.6441 31.4759V31.175C30.6441 31.1 30.5834 31.0394 30.5084 31.0394Z" fill="#F5F5F5"/>
<path d="M27.7124 31.0394H25.4698C25.3949 31.0394 25.3341 31.1 25.3341 31.175V31.4759C25.3341 31.5508 25.3948 31.6115 25.4698 31.6115H27.7124C27.7873 31.6115 27.8481 31.5509 27.8481 31.4759V31.175C27.848 31.1 27.7873 31.0394 27.7124 31.0394ZM24.9198 31.0394H22.6771C22.6022 31.0394 22.5414 31.1 22.5414 31.175V31.4759C22.5414 31.5508 22.6021 31.6115 22.6771 31.6115H24.9198C24.9947 31.6115 25.0554 31.5509 25.0554 31.4759V31.175C25.0553 31.1 24.9947 31.0394 24.9198 31.0394Z" fill="#F5F5F5"/>
<path d="M22.1272 31.0394H19.8845C19.8096 31.0394 19.7488 31.1 19.7488 31.175V31.4759C19.7488 31.5508 19.8095 31.6115 19.8845 31.6115H22.1272C22.2021 31.6115 22.2628 31.5509 22.2628 31.4759V31.175C22.2628 31.1 22.2021 31.0394 22.1272 31.0394ZM19.3308 31.0394H17.0918C17.0169 31.0394 16.9562 31.1 16.9562 31.175V31.4759C16.9562 31.5508 17.0168 31.6115 17.0918 31.6115H19.3308C19.4057 31.6115 19.4664 31.5509 19.4664 31.4759V31.175C19.4664 31.1 19.4057 31.0394 19.3308 31.0394Z" fill="#F5F5F5"/>
<path d="M16.5416 31.0394H14.299C14.2241 31.0394 14.1633 31.1 14.1633 31.175V31.4759C14.1633 31.5508 14.224 31.6115 14.299 31.6115H16.5416C16.6165 31.6115 16.6773 31.5509 16.6773 31.4759V31.175C16.6772 31.1 16.6165 31.0394 16.5416 31.0394ZM13.7453 31.0394H11.5065C11.4316 31.0394 11.3708 31.1 11.3708 31.175V31.4759C11.3708 31.5508 11.4315 31.6115 11.5065 31.6115H13.7453C13.8202 31.6115 13.8809 31.5509 13.8809 31.4759V31.175C13.8808 31.1 13.8202 31.0394 13.7453 31.0394Z" fill="#F5F5F5"/>
<path d="M10.9527 31.0394H8.71386C8.63896 31.0394 8.57822 31.1 8.57822 31.175V31.4759C8.57822 31.5508 8.63886 31.6115 8.71386 31.6115H10.9528C11.0277 31.6115 11.0885 31.5509 11.0885 31.4759V31.175C11.0885 31.1 11.0276 31.0394 10.9527 31.0394ZM8.16005 31.0394H5.91738C5.84248 31.0394 5.78174 31.1 5.78174 31.175V31.4759C5.78174 31.5508 5.84238 31.6115 5.91738 31.6115H8.16005C8.23496 31.6115 8.2957 31.5509 8.2957 31.4759V31.175C8.2957 31.1 8.23496 31.0394 8.16005 31.0394Z" fill="#F5F5F5"/>
<path d="M5.36734 31.0394H3.12476C3.04986 31.0394 2.98912 31.1 2.98912 31.175V31.4759C2.98912 31.5508 3.04976 31.6115 3.12476 31.6115H5.36743C5.44234 31.6115 5.50308 31.5509 5.50308 31.4759V31.175C5.50298 31.1 5.44224 31.0394 5.36734 31.0394ZM2.57457 31.0394H0.328576C0.253577 31.0394 0.192932 31.1 0.192932 31.175V31.4759C0.192932 31.5508 0.253577 31.6115 0.328576 31.6115H2.57467C2.64957 31.6115 2.71031 31.5509 2.71031 31.4759V31.175C2.71031 31.1 2.64957 31.0394 2.57457 31.0394Z" fill="#F5F5F5"/>
<path d="M24.4779 21.7922C24.7336 21.8604 25.0066 21.7853 25.1941 21.5944C25.4771 21.8809 25.9409 21.8877 26.2343 21.6081C26.4253 21.4239 26.5037 21.1443 26.4354 20.8919C26.1866 21.2943 25.6615 21.4239 25.2591 21.1715C25.2386 21.1577 25.2113 21.1442 25.1943 21.1305C24.8159 21.4101 24.2806 21.3351 23.994 20.9601C23.9837 20.9395 23.9634 20.9122 23.9496 20.8919C23.8472 21.2877 24.0858 21.6967 24.4779 21.7922Z" fill="#FF4B55"/>
<path d="M26.0666 29.7591C26.9832 29.2559 27.7482 28.463 28.1676 27.4187C28.8818 25.6286 28.432 23.6081 27.0657 22.2976C27.0188 22.2526 26.9474 22.3128 26.9815 22.3683C28.329 24.5659 27.7981 27.4536 25.7129 29.0361L25.8126 22.6526C25.814 22.566 25.7753 22.4834 25.708 22.4288L25.3689 22.1547C25.265 22.0707 25.1165 22.0712 25.0132 22.1557L24.679 22.4288C24.6123 22.4833 24.5742 22.5654 24.5756 22.6515L24.6725 29.0395C22.5869 27.4578 22.0549 24.5674 23.4004 22.3684C23.4344 22.3129 23.363 22.2527 23.3161 22.2978C21.9525 23.6083 21.4998 25.6287 22.214 27.4187C22.6334 28.4628 23.3983 29.2558 24.3151 29.759C23.7317 29.959 23.1184 30.0651 22.4983 30.0473C22.4327 30.0454 22.4195 30.1376 22.4823 30.1566C23.2702 30.3957 24.0806 30.4121 24.8425 30.2413L25.1416 30.8217C25.1623 30.8617 25.2196 30.8619 25.2404 30.8218L25.5416 30.2416C26.3035 30.4121 27.1142 30.3954 27.9026 30.1563C27.9653 30.1373 27.9523 30.0451 27.8867 30.047C27.2658 30.0651 26.6511 29.959 26.0666 29.7591Z" fill="#FF4B55"/>
<path d="M29.7975 23.8246C29.3284 22.9481 28.5493 22.2838 27.6218 21.9583C27.5637 21.9379 27.5184 22.0146 27.5659 22.0538C29.6133 23.7404 30.0238 26.7444 28.4405 28.9192C28.3585 29.0284 28.2699 29.1443 28.1846 29.2396C30.1285 28.1962 30.8479 25.7683 29.7975 23.8246Z" fill="#FF4B55"/>
<path d="M21.9444 28.9192C20.361 26.7444 20.7682 23.7405 22.8153 22.0539C22.8628 22.0146 22.8174 21.9381 22.7593 21.9584C21.8331 22.284 21.0593 22.9481 20.5872 23.8246C19.5301 25.7683 20.2565 28.1962 22.2036 29.2395C22.1116 29.1442 22.0229 29.0284 21.9444 28.9192Z" fill="#FF4B55"/>
</g>
<defs>
<clipPath id="clip0_9_3146">
<rect width="50" height="50" fill="white" transform="translate(0.191406 0.866943)"/>
</clipPath>
</defs>
</svg>
