<svg width="51" height="51" viewBox="0 0 51 51" fill="none" xmlns="http://www.w3.org/2000/svg">
    <g clip-path="url(#clip0_9_3134)">
        <path
            d="M50.6043 19.7004H0.604431V9.64287C0.604431 9.1668 0.990466 8.78076 1.46654 8.78076H49.7423C50.2184 8.78076 50.6044 9.1668 50.6044 9.64287L50.6043 19.7004Z"
            fill="#FF4B55" />
        <path
            d="M49.7422 41.5394H1.46654C0.990466 41.5394 0.604431 41.1534 0.604431 40.6773V30.6199H50.6043V40.6773C50.6043 41.1535 50.2183 41.5394 49.7422 41.5394Z"
            fill="#464655" />
        <path d="M50.6043 19.7002H0.604431V30.6191H50.6043V19.7002Z" fill="#F5F5F5" />
        <path
            d="M30.6888 22.9653C30.5982 22.9182 30.4909 22.7494 30.5244 22.6756C30.5596 22.5981 30.5047 22.6048 30.69 22.6599C31.025 22.7466 31.2417 22.707 31.4545 22.5259L31.6437 22.3762L31.8645 22.4865C31.9866 22.5416 32.1126 22.5809 32.1482 22.573C32.2506 22.5494 32.4479 22.2972 32.4438 22.2104C32.4398 22.0925 32.5265 22.1239 32.5699 22.25C32.6605 22.4865 32.4938 22.8944 32.2653 22.9496C32.1551 22.981 32.0526 22.9732 31.8791 22.9182C31.6742 22.8392 31.6425 22.8392 31.5324 22.9182C31.3037 23.0994 30.9765 23.1153 30.6888 22.9653Z"
            fill="#73AF00" />
        <path
            d="M31.5518 22.0529C31.4413 21.8979 31.3083 21.3557 31.3472 21.2229C31.3858 21.1011 31.4246 21.079 31.5296 21.1122C31.7178 21.1785 31.7622 21.3004 31.7399 21.7432C31.7068 22.075 31.6626 22.1858 31.5518 22.0529Z"
            fill="#73AF00" />
        <path
            d="M24.1401 24.4502C23.6859 24.7085 23.0103 24.753 23.0103 25.4691C22.021 25.5059 20.8544 25.5502 19.8023 25.5281C20.0874 25.1597 21.8922 23.4917 22.6427 22.8305C22.7669 22.7211 22.8091 22.5094 22.7368 22.3605L22.7174 22.3205C22.6092 22.0973 22.3149 22.0442 22.1356 22.2156C21.3877 22.931 20.6466 23.5976 20.5259 23.7119C19.5577 24.6904 19.2738 24.9755 19.1216 25.1287C19.0133 25.2377 18.9531 25.3851 18.9538 25.5388V25.5489C18.9556 25.8682 19.2149 26.1261 19.5341 26.1261H23.7705C24.0106 26.1261 23.7154 25.2918 24.0253 25.2918C24.2408 25.2918 24.2607 25.5912 24.2512 25.9083C24.244 26.1495 24.0452 26.3403 23.804 26.3406C21.9725 26.3431 20.0658 26.3606 18.2717 26.3623C18.1236 26.3624 18.0046 26.2421 18.0046 26.0939V25.7711C18.0046 25.4975 17.7007 25.3384 17.472 25.4886C17.4636 25.4941 17.4554 25.4994 17.4472 25.5044C17.3277 25.5792 17.2665 25.7254 17.3132 25.8584C17.3435 25.9447 17.3567 26.0498 17.3595 26.1596C17.3634 26.3048 17.2452 26.4246 17.0999 26.4291C16.5066 26.4472 15.8618 26.4526 15.6787 26.1027C15.5753 25.9054 15.3555 25.8123 15.1562 25.9119L15.1297 25.9251C14.92 26.03 14.836 26.2895 14.9508 26.4939C15.1694 26.8825 15.3688 27.3333 15.2653 27.9646C15.1809 28.1635 15.0219 28.2881 14.8496 28.4002C14.6582 28.5249 14.7784 28.8165 15.0029 28.7749C15.5472 28.6744 15.9223 28.2435 16.037 27.7357H24.4765C24.786 27.7357 25.0369 27.4847 25.0369 27.1752V25.3437C24.9596 24.7972 24.3726 24.8194 24.1401 24.4502Z"
            fill="#73AF00" />
        <path
            d="M34.8447 22.0299C34.9692 22.11 35.0939 22.1902 35.2329 22.2564C35.3849 22.329 35.443 22.5145 35.3541 22.6575C35.3306 22.6953 35.311 22.7376 35.2998 22.7889V26.4214C35.548 26.4731 35.6905 26.4242 35.8037 26.3461C35.9314 26.2581 36.1041 26.3221 36.1444 26.4719C36.2301 26.7906 36.3703 27.1018 36.4451 27.3852C36.4919 27.5623 36.3589 27.7356 36.1757 27.7356H34.7526C34.6267 27.7356 34.5245 27.6334 34.5245 27.5075V22.2047C34.5244 22.0404 34.7064 21.941 34.8447 22.0299Z"
            fill="#73AF00" />
        <path
            d="M33.1216 22.9145C33.1227 23.9176 33.1344 24.998 33.1361 26.0732C33.1362 26.2126 33.0233 26.3255 32.8839 26.3255H32.8676C32.7284 26.3255 32.6156 26.2127 32.6156 26.0735V23.5257C32.6156 23.387 32.4527 23.3129 32.3484 23.4041L32.0144 23.6927C31.946 23.7516 31.9068 23.8365 31.9065 23.9267C31.9054 24.3412 31.9017 25.5478 31.9002 26.0746C31.8998 26.2134 31.7871 26.3255 31.6483 26.3255H31.6254C31.4869 26.3255 31.3744 26.2142 31.3735 26.0758C31.371 25.7251 31.3667 25.0752 31.365 24.5877C31.3644 24.4474 31.1986 24.3742 31.0931 24.4666C30.7471 24.7698 30.6672 24.8384 30.4857 25.026C30.5004 25.122 30.5743 25.026 30.6186 25.0997V25.5871C29.358 25.3498 29.264 26.3568 29.3112 27.4373C29.3183 27.5997 29.4516 27.7281 29.6141 27.7281H33.5717C33.7185 27.7281 33.8374 27.6092 33.8374 27.4624V22.5424C33.8374 22.378 33.6424 22.2936 33.5211 22.4047C33.4244 22.4932 33.3212 22.5817 33.2325 22.6619C33.1614 22.7268 33.1215 22.8181 33.1216 22.9145ZM30.209 26.2887C30.1316 26.0671 30.5672 25.9858 30.6188 26.1853C30.6372 26.4289 30.3051 26.4363 30.209 26.2887Z"
            fill="#73AF00" />
        <path
            d="M17.1371 28.127C17.2885 28.127 17.4103 28.2525 17.4103 28.4001C17.4103 28.5553 17.2885 28.6733 17.1371 28.6733C16.9822 28.6733 16.8565 28.5553 16.8565 28.4001C16.8566 28.2525 16.9823 28.127 17.1371 28.127Z"
            fill="#73AF00" />
        <path
            d="M26.1357 22.1413C26.2096 22.1857 26.2856 22.2282 26.3665 22.2664C26.5126 22.3354 26.5702 22.517 26.4809 22.6516C26.454 22.6922 26.4311 22.7381 26.4176 22.7964V26.4214C26.6807 26.4799 26.8245 26.4226 26.9393 26.3378C27.0535 26.2533 27.218 26.3117 27.2546 26.4489C27.3203 26.695 27.4191 26.9383 27.4954 27.1694C27.5888 27.4519 27.3792 27.743 27.0816 27.743H25.9716C25.7918 27.743 25.6461 27.5973 25.6461 27.4174V22.422C25.6461 22.1709 25.9202 22.0119 26.1357 22.1413Z"
            fill="#73AF00" />
    </g>
    <defs>
        <clipPath id="clip0_9_3134">
            <rect width="50" height="50" fill="white" transform="translate(0.603516 0.160156)" />
        </clipPath>
    </defs>
</svg>
