<svg width="51" height="51" viewBox="0 0 51 51" fill="none" xmlns="http://www.w3.org/2000/svg">
    <g clip-path="url(#clip0_9_3070)">
        <path
            d="M49.4612 41.5394H1.18548C0.709403 41.5394 0.323368 41.1534 0.323368 40.6773V9.64287C0.323368 9.1668 0.709403 8.78076 1.18548 8.78076H49.4613C49.9373 8.78076 50.3234 9.1668 50.3234 9.64287V40.6773C50.3233 41.1535 49.9372 41.5394 49.4612 41.5394Z"
            fill="#FF4B55" />
        <path
            d="M25.4469 25.1973L25.2081 25.3352C24.7944 24.7395 24.8171 23.2825 24.8171 23.2659C24.8214 23.2227 24.7955 23.1838 24.7567 23.1666L22.9669 22.3833L22.9772 22.1996C23.9105 22.3072 24.9895 22.7414 25.0044 22.7488C25.0411 22.7719 25.0875 22.7662 25.1203 22.7391L26.6055 21.5009L26.9251 21.7865C26.462 22.3552 25.3354 23.1409 25.3208 23.149C25.281 23.1663 25.2595 23.2077 25.2633 23.2501L25.4469 25.1973Z"
            fill="#FFE15A" />
        <path
            d="M31.9411 16.375C31.9775 16.3937 32.0214 16.3901 32.0544 16.3657L32.4425 16.0784L32.3192 16.4366C32.3054 16.4773 32.3174 16.5228 32.3494 16.5523L32.5321 16.7156C32.4778 16.8073 32.4563 16.9201 32.4542 17.0377L32.1834 17.1752C32.1604 17.187 32.1424 17.2065 32.1324 17.2303L31.9305 17.7193L31.8198 17.3138C31.8055 17.2604 31.7548 17.2278 31.7011 17.2351L31.2137 17.3017L31.6094 16.8537C31.6305 16.8296 31.6398 16.7976 31.6351 16.7663L31.547 16.1746L31.9411 16.375Z"
            fill="#FFE15A" />
        <path
            d="M27.5266 32.3422C27.4926 32.3649 27.4745 32.405 27.4797 32.4457L27.5425 32.9243L27.2892 32.6427C27.2603 32.6107 27.2148 32.5992 27.1734 32.6129L26.9419 32.6934C26.8881 32.6015 26.7999 32.5278 26.6981 32.4689L26.7093 32.1655C26.7102 32.1397 26.7019 32.1145 26.686 32.0942L26.3565 31.6804L26.7647 31.7804C26.8182 31.7938 26.8715 31.7651 26.8911 31.7147L27.0693 31.2563L27.2691 31.8196C27.2798 31.8498 27.3033 31.8734 27.333 31.8846L27.8931 32.0947L27.5266 32.3422Z"
            fill="#FFE15A" />
        <path
            d="M15.6738 21.1171C15.6686 21.0766 15.6407 21.0424 15.602 21.0289L15.1456 20.8713L15.5109 20.7705C15.5523 20.7589 15.583 20.7233 15.5892 20.6802L15.6205 20.4372C15.7268 20.4302 15.8321 20.3841 15.9303 20.3193L16.1968 20.465C16.2195 20.4773 16.2457 20.4812 16.271 20.4759L16.7886 20.3661L16.5167 20.6866C16.4807 20.7285 16.4825 20.7889 16.519 20.829L16.8494 21.1934L16.2563 21.1204C16.2244 21.1165 16.1929 21.127 16.1696 21.1485L15.7313 21.5558L15.6738 21.1171Z"
            fill="#FFE15A" />
        <path
            d="M25.1665 35.7695C24.9029 36.301 24.3327 36.7416 24.19 36.7676C24.1641 36.7719 24.1425 36.7633 24.121 36.7416C24.0561 36.6681 24.026 36.4694 24.1124 36.2059C24.121 36.1799 24.1298 36.1454 24.1427 36.1065L25.1665 35.7695Z"
            fill="#F5F5F5" />
        <path
            d="M25.357 35.2208C25.3224 35.3245 25.2922 35.4282 25.2706 35.506L24.2164 35.856C24.2467 35.761 24.2768 35.6573 24.3071 35.5449L25.357 35.2208Z"
            fill="#F5F5F5" />
        <path
            d="M25.5903 34.6291C25.5385 34.7458 25.491 34.8581 25.4478 34.9661L24.3762 35.2944C24.4065 35.1778 24.441 35.0568 24.4712 34.9358L25.5903 34.6291Z"
            fill="#FFE15A" />
        <path
            d="M25.8026 34.2014C25.7724 34.2575 25.7422 34.3138 25.7119 34.3742L24.5324 34.6939C24.5843 34.4909 24.6274 34.2921 24.662 34.1193L25.8026 34.2014Z"
            fill="#F5F5F5" />
        <path
            d="M26.135 33.7519C26.066 33.8168 26.001 33.8988 25.9363 33.9938L24.6964 33.9031C24.7136 33.7907 24.7265 33.6914 24.7265 33.6179C24.7265 33.5618 24.7222 33.5099 24.7179 33.4537C24.7655 33.458 24.8173 33.458 24.8605 33.458C25.1717 33.458 25.392 33.4018 25.5518 33.3197C25.7289 33.5791 25.9579 33.6958 26.135 33.7519Z"
            fill="#F5F5F5" />
        <path
            d="M26.3857 33.5748C26.3079 33.5662 25.9624 33.5316 25.7289 33.1946C25.8456 33.0953 25.9017 32.9873 25.9276 32.9138C26.0572 32.5509 25.1543 31.9849 24.6012 31.6824C24.342 31.5399 24.1389 31.2591 23.9575 30.935C23.9791 30.9393 23.9964 30.9393 24.0179 30.9393C24.2944 30.9393 24.5148 30.8097 24.6314 30.7103C24.7351 30.8831 24.8301 31.0429 24.9166 31.1812C25.3097 31.8466 25.4913 32.1489 25.9103 32.4428C25.9232 32.4514 25.9405 32.4601 25.9579 32.4601C26.1609 32.486 26.7485 32.6155 26.7831 32.8748C26.8307 33.2291 26.701 33.4538 26.3857 33.5748Z"
            fill="#F5F5F5" />
        <path
            d="M25.7247 32.8404C25.6772 32.9787 25.4785 33.2897 24.6921 33.2379C24.623 32.7886 24.4242 32.4689 24.1088 32.322C23.6984 32.1276 22.1645 31.0302 21.4647 30.3777C21.6029 29.937 21.9658 29.5785 22.48 29.3882C22.5535 29.358 22.6183 29.3321 22.6744 29.3018C22.8127 29.4142 22.938 29.5394 23.0417 29.682C23.2017 29.9067 23.3399 30.1918 23.4867 30.4943C23.7589 31.0473 24.0398 31.622 24.4978 31.8725C25.3445 32.3392 25.7636 32.7411 25.7247 32.8404Z"
            fill="#F5F5F5" />
        <path
            d="M24.5149 30.5246C24.4328 30.6067 24.1606 30.7924 23.8323 30.6974C23.7805 30.5981 23.733 30.4987 23.6811 30.3994C23.53 30.0882 23.3874 29.7945 23.2145 29.5568C23.1152 29.4142 22.9898 29.2889 22.856 29.1766C23.0504 29.0081 23.0807 28.8266 23.0893 28.6711C23.4306 28.9649 23.7504 29.3322 24.0441 29.7858C24.2297 30.0665 24.381 30.3084 24.5149 30.5246Z"
            fill="#F5F5F5" />
        <path
            d="M22.8861 28.5112C22.8818 28.5457 22.8775 28.5847 22.8775 28.6236C22.8689 28.7704 22.856 28.9131 22.6831 29.0426C22.3202 28.7833 21.9011 28.6062 21.5425 28.4896C21.7067 28.321 21.8146 28.1526 21.8665 27.9884C21.8665 27.9884 21.8665 27.9884 21.8708 27.9884C22.225 28.0876 22.5664 28.2649 22.8861 28.5112Z"
            fill="#F5F5F5" />
        <path
            d="M22.4714 29.1549C22.4498 29.1635 22.4325 29.1765 22.4065 29.1851C21.8665 29.3838 21.4689 29.7511 21.2919 30.2048C21.0802 29.9931 20.929 29.8029 20.8079 29.6518C20.6739 29.4789 20.5617 29.3449 20.4233 29.2499C20.8121 29.0512 21.1232 28.8524 21.3609 28.658C21.3652 28.658 21.3652 28.658 21.3695 28.658C21.7066 28.7617 22.1171 28.9172 22.4714 29.1549Z"
            fill="#F5F5F5" />
        <path
            d="M21.1579 28.5413C20.9332 28.7184 20.6179 28.9172 20.1727 29.1332C20.069 29.1072 19.9654 29.0856 19.879 29.0684C19.6673 29.0296 19.529 28.9993 19.421 28.8783C19.3561 28.8092 19.2309 28.6147 19.1099 28.3685C19.1272 28.3771 19.1444 28.3858 19.1617 28.3901C19.287 28.4204 19.4641 28.3642 19.6845 28.2864C19.9566 28.1957 20.2893 28.0833 20.5918 28.1222C20.864 28.1567 20.9375 28.2647 21.0238 28.3857C21.0629 28.4376 21.1017 28.4937 21.1579 28.5413Z"
            fill="#F5F5F5" />
        <path
            d="M21.6717 27.8934C21.6372 28.0273 21.5421 28.1958 21.326 28.3988C21.2742 28.3643 21.2396 28.3167 21.2007 28.2605C21.1057 28.1266 20.9847 27.9581 20.6217 27.9105C20.2717 27.863 19.9088 27.9841 19.6151 28.0834C19.4508 28.1395 19.278 28.2001 19.2089 28.1827C19.1354 28.1653 19.0404 28.0487 19.0361 27.932C19.0318 27.798 19.1528 27.7376 19.2521 27.7073C19.4768 27.6383 19.749 27.69 20.0168 27.7376C20.289 27.7895 20.5483 27.8369 20.7556 27.7549C20.8982 27.6987 21.0624 27.5216 21.2611 27.2666C21.3994 27.2968 21.516 27.3444 21.5851 27.4437C21.6847 27.5865 21.7107 27.7379 21.6717 27.8934Z"
            fill="#FFE15A" />
        <path
            d="M21.0104 27.2366C20.8764 27.4009 20.7597 27.5218 20.6734 27.5564C20.5266 27.6168 20.2976 27.5736 20.0556 27.5261C19.7791 27.4742 19.4637 27.4181 19.1914 27.5001C19.0272 27.5477 18.9365 27.6297 18.8846 27.7074C18.837 27.4698 18.837 27.2408 18.945 27.0594C19.053 26.8693 19.1956 26.7094 19.3426 26.5496C19.537 26.5756 19.6795 26.6145 20.1721 27.0465C20.3406 27.1934 20.6128 27.2108 20.8764 27.2236C20.9195 27.2279 20.9671 27.2323 21.0104 27.2366Z"
            fill="#F5F5F5" />
        <path
            d="M25.0242 25.4522C24.5402 25.7719 22.3844 27.189 21.935 27.3748C21.9134 27.3834 21.8961 27.4008 21.8831 27.418C21.8702 27.4396 21.8615 27.4569 21.8485 27.4785C21.827 27.4223 21.7967 27.3704 21.7621 27.3187C21.6757 27.1934 21.5461 27.1243 21.4035 27.0811C21.4684 26.999 21.5331 26.9125 21.6023 26.8175C21.9134 26.3898 22.272 25.9102 22.6824 25.4825C23.3867 24.748 24.3285 24.264 24.6439 24.1171C24.6916 24.5751 24.7952 25.1153 25.0242 25.4522Z"
            fill="#F5F5F5" />
        <path
            d="M24.6223 23.8882C24.3976 23.9875 23.3305 24.4931 22.5268 25.3312C22.1035 25.772 21.7275 26.2774 21.4293 26.6879C21.3386 26.8089 21.2522 26.9255 21.1701 27.0336C21.075 27.025 20.98 27.0163 20.8892 27.012C20.6516 26.9947 20.4269 26.9817 20.3145 26.8824C19.8998 26.5195 19.7052 26.4115 19.5195 26.364C19.5369 26.3467 19.5498 26.3294 19.567 26.3121C19.8392 26.0356 20.1244 25.7462 20.3491 25.3443C20.7378 24.6487 22.0384 23.1321 22.8853 22.5835L24.6006 23.3354C24.6006 23.4389 24.6051 23.642 24.6223 23.8882Z"
            fill="#F5F5F5" />
        <path
            d="M13.6619 17.4743C13.3043 17.0011 13.165 16.294 13.2055 16.1548C13.2132 16.1297 13.2306 16.1142 13.2596 16.1046C13.3543 16.0795 13.5456 16.1412 13.7428 16.3363C13.7621 16.3556 13.7891 16.3787 13.8181 16.4077L13.6619 17.4743Z"
            fill="#F5F5F5" />
        <path
            d="M14.0676 17.8896C13.9904 17.8123 13.9111 17.7389 13.8511 17.6848L14.0092 16.5854C14.0808 16.6549 14.16 16.7283 14.2469 16.8055L14.0676 17.8896Z"
            fill="#F5F5F5" />
        <path
            d="M14.4931 18.3629C14.4118 18.2644 14.3326 18.1717 14.2554 18.0848L14.4405 16.9795C14.5313 17.0587 14.6241 17.1437 14.7189 17.2247L14.4931 18.3629Z"
            fill="#FFE15A" />
        <path
            d="M14.7813 18.7433C14.7446 18.6911 14.7078 18.639 14.6674 18.5849L14.9084 17.3868C15.0669 17.5239 15.2254 17.6514 15.3645 17.7596L14.7813 18.7433Z"
            fill="#F5F5F5" />
        <path
            d="M15.0354 19.2416C15.0084 19.1508 14.9639 19.0562 14.9077 18.9558L15.543 17.887C15.6357 17.9526 15.7188 18.0087 15.7846 18.0415C15.8348 18.0666 15.8832 18.086 15.9353 18.1071C15.9102 18.1478 15.8871 18.1941 15.8678 18.2328C15.7288 18.5111 15.6805 18.7334 15.6825 18.9131C15.3715 18.9556 15.1648 19.1083 15.0354 19.2416Z"
            fill="#F5F5F5" />
        <path
            d="M15.0811 19.545C15.1236 19.4793 15.3089 19.1856 15.7147 19.1275C15.7514 19.2763 15.823 19.3747 15.8771 19.4308C16.1438 19.7089 17.0537 19.154 17.5714 18.7944C17.8149 18.6263 18.1568 18.5701 18.5278 18.5526C18.5143 18.5699 18.5066 18.5855 18.4968 18.6047C18.3732 18.852 18.3908 19.107 18.4275 19.2559C18.2265 19.2714 18.0411 19.285 17.8787 19.3005C17.1079 19.3549 16.7561 19.382 16.306 19.6257C16.2924 19.6334 16.277 19.645 16.2694 19.6605C16.1555 19.8305 15.7769 20.2983 15.5295 20.2134C15.1914 20.0976 15.0484 19.8813 15.0811 19.545Z"
            fill="#F5F5F5" />
        <path
            d="M16.0339 19.2818C15.9314 19.1775 15.742 18.8607 16.1397 18.1805C16.5726 18.3193 16.9473 18.2845 17.2198 18.068C17.5771 17.7877 19.2444 16.9059 20.1407 16.5713C20.4731 16.8919 20.6317 17.3769 20.572 17.9217C20.5664 18.0009 20.5605 18.0705 20.5625 18.1342C20.4002 18.2077 20.2321 18.2638 20.0582 18.2928C19.7857 18.3353 19.4688 18.3316 19.1326 18.3279C18.5162 18.3242 17.8766 18.3187 17.4478 18.6165C16.652 19.1657 16.1053 19.361 16.0339 19.2818Z"
            fill="#F5F5F5" />
        <path
            d="M18.646 19.2345C18.6093 19.1243 18.5647 18.7978 18.7964 18.5466C18.9085 18.5445 19.0186 18.5465 19.1307 18.5445C19.4766 18.5483 19.8031 18.5519 20.093 18.5036C20.265 18.4784 20.4329 18.4224 20.5934 18.3527C20.6572 18.6019 20.8061 18.71 20.9413 18.7873C20.5259 18.9613 20.0546 19.0833 19.5174 19.1433C19.1831 19.1841 18.8991 19.2112 18.646 19.2345Z"
            fill="#F5F5F5" />
        <path
            d="M21.1751 18.6771C21.1461 18.6578 21.1133 18.6366 21.0784 18.6191C20.9509 18.5457 20.8291 18.4704 20.7904 18.2579C21.1844 18.0491 21.5302 17.7533 21.7948 17.4846C21.8722 17.7068 21.9747 17.8787 22.0984 17.9985C22.0984 17.9985 22.0984 17.9985 22.0964 18.0024C21.8494 18.2749 21.5383 18.5011 21.1751 18.6771Z"
            fill="#F5F5F5" />
        <path
            d="M20.7845 18.0184C20.7865 17.9953 20.7826 17.974 20.7865 17.9469C20.8501 17.3749 20.6991 16.8552 20.3723 16.494C20.6564 16.3992 20.894 16.3489 21.0834 16.3083C21.2978 16.2657 21.4678 16.225 21.6146 16.1438C21.6187 16.5804 21.6574 16.9476 21.7252 17.247C21.7232 17.2509 21.7232 17.2509 21.7213 17.2547C21.4779 17.51 21.1554 17.8077 20.7845 18.0184Z"
            fill="#F5F5F5" />
        <path
            d="M21.9203 17.1175C21.8622 16.8373 21.8254 16.4664 21.8309 15.9717C21.9005 15.8905 21.9662 15.8073 22.0202 15.7379C22.1496 15.5659 22.2384 15.4557 22.3949 15.4131C22.4857 15.386 22.7156 15.3609 22.99 15.3627C22.9746 15.3743 22.9591 15.3859 22.9475 15.3994C22.8644 15.4981 22.8356 15.6816 22.8067 15.9134C22.7663 16.1975 22.718 16.5453 22.5481 16.7984C22.3956 17.0265 22.2661 17.044 22.1192 17.0672C22.0555 17.0788 21.988 17.0885 21.9203 17.1175Z"
            fill="#F5F5F5" />
        <path
            d="M22.2702 17.8671C22.1658 17.7764 22.0576 17.6161 21.9725 17.332C22.0266 17.301 22.0846 17.2914 22.1521 17.2817C22.3144 17.2565 22.5192 17.2236 22.7238 16.9202C22.9228 16.6284 22.9768 16.2496 23.0191 15.9423C23.0422 15.7704 23.0653 15.5886 23.1116 15.5346C23.1599 15.4766 23.3068 15.4437 23.413 15.492C23.5348 15.548 23.5348 15.6833 23.5174 15.7856C23.4788 16.0175 23.3109 16.2379 23.1486 16.4562C22.9806 16.6766 22.8222 16.8873 22.8029 17.1094C22.7895 17.2622 22.8746 17.4881 23.0138 17.7798C22.925 17.89 22.8303 17.9732 22.7106 17.9906C22.5389 18.0158 22.392 17.9714 22.2702 17.8671Z"
            fill="#FFE15A" />
        <path
            d="M23.1525 17.5694C23.0654 17.3762 23.0094 17.2177 23.017 17.1249C23.0286 16.9664 23.1696 16.781 23.3202 16.5857C23.4901 16.3615 23.6813 16.1044 23.7295 15.8242C23.7604 15.6562 23.7275 15.5382 23.681 15.4572C23.9148 15.5208 24.1197 15.6232 24.2337 15.8009C24.3555 15.9824 24.4348 16.1815 24.5122 16.3843C24.402 16.5467 24.3036 16.6569 23.6969 16.9043C23.4903 16.9895 23.3531 17.2252 23.2238 17.4552C23.2007 17.492 23.1756 17.5326 23.1525 17.5694Z"
            fill="#F5F5F5" />
        <path
            d="M22.9549 21.9575C22.8852 21.3817 22.5808 18.8197 22.6154 18.3347C22.6173 18.3116 22.6095 18.2884 22.5998 18.269C22.5863 18.2478 22.5747 18.2324 22.5612 18.211C22.6211 18.2168 22.681 18.2129 22.7428 18.2051C22.8936 18.1838 23.0133 18.0988 23.1157 17.9905C23.1602 18.0852 23.2084 18.1818 23.2626 18.2861C23.5063 18.7555 23.775 19.2906 23.9743 19.849C24.3166 20.8073 24.3286 21.8661 24.3191 22.2138C23.8959 22.1209 23.4058 22.0163 22.9549 21.9575Z"
            fill="#F5F5F5" />
        <path
            d="M24.5336 22.2969C24.5452 22.0515 24.5699 20.8709 24.1792 19.7774C23.9741 19.2016 23.6899 18.6395 23.4559 18.1893C23.3882 18.054 23.3225 17.9246 23.2626 17.8029C23.3128 17.7217 23.3629 17.6405 23.4074 17.5613C23.5291 17.3564 23.641 17.1612 23.7801 17.1051C24.2902 16.8963 24.4737 16.7705 24.5992 16.6256C24.6069 16.6488 24.6167 16.6681 24.6243 16.6913C24.7501 17.0583 24.8815 17.4428 25.1406 17.8235C25.5892 18.4822 26.3646 20.3233 26.4771 21.326L25.0381 22.5245C24.9453 22.4783 24.7617 22.3915 24.5336 22.2969Z"
            fill="#F5F5F5" />
        <path
            d="M36.0824 16.7747C36.675 16.7473 37.337 17.0321 37.429 17.1442C37.4454 17.1648 37.4483 17.1878 37.4398 17.2172C37.4071 17.3096 37.248 17.4325 36.9756 17.4848C36.9487 17.4899 36.9143 17.4991 36.8741 17.5066L36.0824 16.7747Z"
            fill="#F5F5F5" />
        <path
            d="M35.5103 16.8748C35.6177 16.8548 35.7231 16.8309 35.8016 16.812L36.6193 17.564C36.5215 17.5837 36.4161 17.6075 36.3032 17.6356L35.5103 16.8748Z"
            fill="#F5F5F5" />
        <path
            d="M34.8804 16.9581C35.0076 16.9468 35.1287 16.9339 35.2442 16.9193L36.0513 17.6967C35.9346 17.7269 35.812 17.7553 35.6916 17.7876L34.8804 16.9581Z"
            fill="#FFE15A" />
        <path
            d="M34.4042 16.9806C34.4679 16.9797 34.5317 16.9789 34.5993 16.9761L35.4512 17.8521C35.2485 17.9054 35.0538 17.9641 34.8859 18.0177L34.4042 16.9806Z"
            fill="#F5F5F5" />
        <path
            d="M33.85 16.9078C33.9402 16.9368 34.0434 16.9536 34.158 16.9641L34.6805 18.0923C34.574 18.1318 34.4807 18.1686 34.4166 18.2043C34.3674 18.2315 34.3242 18.2604 34.2772 18.2915C34.2579 18.2478 34.2328 18.2025 34.2118 18.1647C34.0608 17.8927 33.9048 17.7273 33.7554 17.6274C33.896 17.3467 33.8868 17.0899 33.85 16.9078Z"
            fill="#F5F5F5" />
        <path
            d="M33.5734 16.7746C33.6036 16.8468 33.7411 17.1659 33.5597 17.5333C33.4162 17.4795 33.2945 17.4829 33.2177 17.4958C32.8376 17.5586 32.7809 18.6229 32.7848 19.2532C32.786 19.549 32.639 19.8628 32.4438 20.1788C32.4372 20.1578 32.4288 20.1427 32.4182 20.1239C32.284 19.8822 32.0637 19.7523 31.9203 19.6986C32.0211 19.524 32.1147 19.3633 32.1936 19.2206C32.5845 18.5539 32.761 18.2486 32.8144 17.7395C32.8157 17.724 32.8148 17.7047 32.8064 17.6896C32.7305 17.4995 32.5587 16.9228 32.7686 16.7667C33.0552 16.5532 33.3146 16.5577 33.5734 16.7746Z"
            fill="#F5F5F5" />
        <path
            d="M33.2519 17.709C33.3958 17.6834 33.7643 17.7062 34.1006 18.419C33.7414 18.6975 33.5581 19.0264 33.5829 19.3735C33.6121 19.8267 33.397 21.7004 33.1662 22.6289C32.7138 22.7219 32.2241 22.5786 31.8082 22.2214C31.7461 22.1718 31.692 22.1278 31.6383 22.0934C31.6695 21.918 31.7182 21.7476 31.7925 21.5878C31.9114 21.339 32.0936 21.0797 32.2867 20.8045C32.638 20.2982 33.0042 19.7737 33.0011 19.2516C32.9982 18.2847 33.1461 17.7233 33.2519 17.709Z"
            fill="#F5F5F5" />
        <path
            d="M31.8145 19.8906C31.9261 19.9226 32.2207 20.0704 32.2969 20.4035C32.2352 20.4971 32.1713 20.5868 32.1096 20.6805C31.911 20.9637 31.7233 21.2309 31.5995 21.4974C31.5231 21.6534 31.4743 21.8237 31.4411 21.9954C31.1994 21.9071 31.0261 21.9687 30.8859 22.0368C30.9772 21.5958 31.143 21.138 31.3971 20.6609C31.5524 20.3622 31.6906 20.1126 31.8145 19.8906Z"
            fill="#F5F5F5" />
        <path
            d="M30.8444 22.292C30.8768 22.2789 30.9129 22.2639 30.9468 22.2451C31.0794 22.1814 31.2103 22.1234 31.4075 22.2117C31.3569 22.6547 31.4055 23.1073 31.4775 23.4774C31.2505 23.4157 31.0508 23.403 30.882 23.4373C30.882 23.4373 30.882 23.4373 30.88 23.4335C30.795 23.0755 30.7843 22.6912 30.8444 22.292Z"
            fill="#F5F5F5" />
        <path
            d="M31.6085 22.3422C31.6265 22.3569 31.6462 22.3658 31.6664 22.3842C32.1023 22.76 32.6163 22.9292 33.0989 22.864C33.0166 23.1518 32.9238 23.3764 32.8502 23.5555C32.7641 23.7565 32.7015 23.9198 32.6856 24.0868C32.3231 23.8432 31.9984 23.6677 31.713 23.5543C31.711 23.5505 31.711 23.5505 31.7088 23.5468C31.636 23.2017 31.5727 22.7673 31.6085 22.3422Z"
            fill="#F5F5F5" />
        <path
            d="M31.7096 23.7884C31.9735 23.8988 32.3003 24.0781 32.7052 24.3624C32.733 24.4656 32.7643 24.5668 32.7911 24.6508C32.8598 24.8548 32.9004 24.9903 32.8471 25.1435C32.8181 25.2337 32.7089 25.4375 32.5523 25.6629C32.5514 25.6436 32.5505 25.6243 32.546 25.607C32.5117 25.4828 32.3766 25.3552 32.2016 25.2003C31.9902 25.0064 31.7305 24.77 31.6176 24.4866C31.5158 24.2318 31.5746 24.1151 31.6384 23.981C31.6652 23.9218 31.6953 23.8605 31.7096 23.7884Z"
            fill="#F5F5F5" />
        <path
            d="M30.893 23.6535C31.0269 23.6188 31.2204 23.6201 31.5028 23.7105C31.4977 23.7726 31.4729 23.8259 31.4426 23.8871C31.3716 24.0352 31.2831 24.2228 31.4176 24.5632C31.5459 24.8923 31.8279 25.1508 32.0573 25.3595C32.1861 25.4758 32.3228 25.5976 32.3414 25.6664C32.362 25.7391 32.306 25.8787 32.2061 25.9392C32.0912 26.0079 31.9795 25.9316 31.9048 25.8593C31.7353 25.6964 31.6486 25.4332 31.5601 25.176C31.4734 24.9128 31.3891 24.6632 31.2167 24.5217C31.0983 24.4242 30.8637 24.3667 30.5445 24.3166C30.5038 24.1811 30.4888 24.0561 30.5421 23.9473C30.6185 23.791 30.7381 23.6949 30.893 23.6535Z"
            fill="#FFE15A" />
        <path
            d="M30.6399 24.5502C30.8484 24.5876 31.0108 24.6308 31.083 24.6896C31.2071 24.7887 31.2805 25.0098 31.3563 25.2445C31.4452 25.5114 31.5491 25.8144 31.753 26.0126C31.8742 26.1331 31.9901 26.1725 32.0832 26.1801C31.8985 26.3371 31.6983 26.4481 31.4872 26.4418C31.2685 26.4396 31.0596 26.3926 30.8485 26.3417C30.7768 26.1592 30.7416 26.0156 30.8804 25.3752C30.9271 25.1565 30.81 24.9102 30.6935 24.6734C30.6762 24.6338 30.657 24.5901 30.6399 24.5502Z"
            fill="#F5F5F5" />
        <path
            d="M27.1318 21.9068C27.6462 22.1747 29.9316 23.372 30.3121 23.6747C30.33 23.6893 30.3536 23.6962 30.375 23.699C30.4002 23.6999 30.4195 23.699 30.4447 23.6999C30.4061 23.746 30.3753 23.7976 30.3468 23.853C30.2792 23.9894 30.2816 24.1363 30.3131 24.2819C30.2099 24.2651 30.1029 24.2503 29.9862 24.236C29.4612 24.1715 28.8678 24.0909 28.2947 23.9395C27.3107 23.6802 26.4304 23.0916 26.149 22.8871C26.4596 22.6094 26.8705 22.2495 27.1318 21.9068Z"
            fill="#F5F5F5" />
        <path
            d="M25.9592 23.0173C26.1551 23.1654 27.1151 23.8533 28.2378 24.1491C28.8287 24.3055 29.4531 24.3888 29.9566 24.4502C30.1064 24.4708 30.2503 24.4897 30.3846 24.5092C30.4232 24.5965 30.4618 24.6838 30.5021 24.7652C30.6023 24.9814 30.7 25.1841 30.6676 25.3305C30.5516 25.8693 30.5516 26.0918 30.6001 26.2773C30.5766 26.2705 30.5552 26.2677 30.5317 26.2609C30.1578 26.1571 29.7662 26.0483 29.3059 26.0468C28.5089 26.0444 26.5519 25.6433 25.6611 25.1692L25.486 23.3047C25.5769 23.2542 25.7523 23.1518 25.9592 23.0173Z"
            fill="#F5F5F5" />
        <path
            d="M37.6269 17.0543C37.6164 17.0355 37.608 17.0203 37.5958 17.0073C37.4285 16.8038 36.4492 16.4282 35.7545 16.6013C35.0045 16.7903 33.9835 16.8381 33.7305 16.6228C33.4064 16.3361 33.0463 16.3247 32.6905 16.5674L32.5467 16.4391L32.7599 15.8197C32.77 15.79 32.7665 15.7583 32.752 15.7321C32.7446 15.7189 32.7344 15.707 32.7214 15.6975C32.6832 15.6695 32.6314 15.6696 32.5932 15.6977L31.9792 16.1521L31.4581 15.8872C31.422 15.8689 31.3788 15.8722 31.3461 15.8958C31.3134 15.9194 31.2964 15.9594 31.3025 15.9992L31.414 16.7483L30.8595 17.3764C30.8296 17.4104 30.824 17.4591 30.8453 17.4989C30.8667 17.5249 30.9103 17.5611 30.955 17.555L31.6363 17.4618L31.8052 18.0814C31.8178 18.1272 31.8566 18.158 31.9027 18.1608C31.9487 18.1637 31.9915 18.137 32.0093 18.0943L32.3169 17.3497L32.473 17.2705C32.5049 17.478 32.5697 17.667 32.5973 17.7409C32.5452 18.19 32.3721 18.4836 32.0106 19.1142C31.7999 19.4734 31.5424 19.9176 31.2064 20.5588C30.647 21.6253 30.467 22.6098 30.671 23.4849C30.6094 23.4895 30.5167 23.4914 30.4197 23.486C29.9041 23.1002 27.2415 21.7219 27.1287 21.661C27.1224 21.6578 26.6893 21.2859 26.6893 21.2859C26.5693 20.2359 25.7862 18.3909 25.3231 17.7016C25.0776 17.3422 24.9519 16.9752 24.83 16.6196C24.714 16.2912 24.6094 15.9782 24.4181 15.6846C23.9928 15.0278 22.6616 15.121 22.3408 15.2024C22.1128 15.2624 21.9891 15.4228 21.8482 15.6083C21.7922 15.6819 21.7285 15.7611 21.6493 15.8519C21.5179 15.9988 21.3344 16.0375 21.0387 16.0976C20.8069 16.1459 20.5151 16.2079 20.1345 16.3413C19.242 16.6584 17.4647 17.606 17.086 17.8998C16.7132 18.1917 16.1702 17.9929 15.8803 17.8481C15.4707 17.6435 14.2336 16.5135 13.8972 16.1814C13.6633 15.9534 13.3986 15.8453 13.2035 15.8977C13.1204 15.9189 13.0547 15.9731 13.02 16.0426C13.0103 16.0619 13.0026 16.0774 12.9988 16.0947C12.9255 16.3479 13.1693 17.368 13.7048 17.8431C14.2846 18.3549 14.9013 19.17 14.8666 19.5005C14.8133 19.9299 15.0075 20.2334 15.409 20.3899L15.3844 20.5809L14.7531 20.7551C14.7229 20.7636 14.6987 20.7843 14.6853 20.811C14.6785 20.8246 14.6745 20.8399 14.674 20.8559C14.6725 20.9033 14.7019 20.9459 14.7468 20.9614L15.4686 21.211L15.5448 21.7908C15.55 21.8309 15.5772 21.8648 15.6152 21.8783C15.6531 21.8921 15.6957 21.8834 15.7253 21.8559L16.2802 21.3404L17.1117 21.4427C17.1566 21.4482 17.2001 21.4252 17.2209 21.3853C17.2302 21.3528 17.2353 21.2965 17.2051 21.263L16.7429 20.7537L17.1585 20.2642C17.1891 20.2278 17.1927 20.1784 17.1689 20.139C17.1453 20.0993 17.0991 20.079 17.0539 20.0886L16.2657 20.2557L16.1123 20.1717C16.2655 20.028 16.3845 19.8679 16.4301 19.8032C16.83 19.5925 17.17 19.5692 17.8946 19.5109C18.31 19.4818 18.822 19.4429 19.5408 19.3576C20.7368 19.2161 21.6506 18.808 22.2571 18.1451C22.2958 18.1934 22.3499 18.2688 22.4001 18.3518C22.3732 18.9952 22.7416 21.9706 22.7551 22.0982C22.756 22.1049 22.7488 22.4197 22.7488 22.4197C21.8633 22.9989 20.5687 24.5151 20.1598 25.2359C19.9481 25.6161 19.6758 25.8926 19.4123 26.1605C19.1704 26.4112 18.9371 26.6445 18.7599 26.9469C18.3624 27.6209 19.0408 28.7701 19.2568 29.0208C19.4123 29.1979 19.6111 29.2368 19.8401 29.2801C19.9308 29.2974 20.0302 29.3189 20.1469 29.3491C20.337 29.401 20.4538 29.5478 20.6395 29.7855C20.7864 29.9713 20.9721 30.2046 21.2617 30.4854C21.9443 31.1423 23.5861 32.3087 24.0182 32.5161C24.446 32.7192 24.5108 33.2938 24.5108 33.6179C24.5108 34.0759 24.0528 35.6875 23.9059 36.1367C23.8066 36.4478 23.8281 36.7329 23.9621 36.8842C24.0182 36.949 24.0961 36.9835 24.1738 36.9835C24.1954 36.9835 24.2127 36.9835 24.2299 36.9792C24.4892 36.9316 25.2927 36.2576 25.4787 35.5664C25.6774 34.8189 26.131 33.903 26.4421 33.7863C26.8502 33.6422 27.0348 33.3328 26.9954 32.9038L27.1773 32.8404L27.6152 33.3274C27.6363 33.3506 27.6656 33.3631 27.6956 33.3631C27.7108 33.3631 27.7261 33.3599 27.7407 33.3531C27.7836 33.3333 27.8087 33.2879 27.8028 33.2408L27.7035 32.4835L28.188 32.1563C28.2215 32.1338 28.2398 32.0942 28.2349 32.0542C28.2303 32.0141 28.2035 31.98 28.1658 31.9658L27.4567 31.6998L27.1765 30.9101C27.1613 30.8676 27.1214 30.8389 27.0763 30.8382C27.0432 30.8443 26.9905 30.865 26.974 30.9069L26.7247 31.5481L26.101 31.3952C26.0548 31.384 26.009 31.4029 25.9843 31.4419C25.9594 31.4807 25.962 31.5311 25.9907 31.5675L26.4924 32.1978L26.486 32.3726C26.289 32.2998 26.0924 32.2647 26.0143 32.253C25.647 31.9894 25.4743 31.6957 25.0984 31.0735C24.8867 30.7149 24.6231 30.2742 24.2256 29.6693C23.5645 28.6627 22.7912 28.0275 21.927 27.7811C21.953 27.725 21.9962 27.6429 22.048 27.5607C22.6356 27.2972 25.133 25.6381 25.2409 25.5689C25.2423 25.568 25.2421 25.5655 25.2436 25.5645L25.5814 25.3693C26.5178 25.8623 28.4753 26.2576 29.304 26.2653C29.7391 26.266 30.113 26.3697 30.475 26.4702C30.8116 26.5601 31.1289 26.6509 31.4792 26.659C32.2615 26.6794 32.9372 25.5285 33.0514 25.2181C33.1308 24.9961 33.0683 24.8034 32.995 24.5823C32.9661 24.4946 32.9367 24.3972 32.9065 24.2805C32.8595 24.0891 32.9314 23.9158 33.049 23.638C33.1402 23.4194 33.254 23.1437 33.359 22.7544C33.6019 21.8388 33.825 19.8371 33.7967 19.3587C33.7666 18.8861 34.2376 18.5506 34.5209 18.3934C34.9213 18.1711 36.5528 17.7894 37.0168 17.6997C37.337 17.6356 37.5759 17.4784 37.6431 17.2879C37.6722 17.2071 37.6648 17.1224 37.6269 17.0543ZM32.4541 17.0379L32.1832 17.1754C32.1603 17.1871 32.1422 17.2067 32.1323 17.2305L31.9303 17.7194L31.8197 17.314C31.8054 17.2606 31.7546 17.2279 31.701 17.2353L31.2136 17.3019L31.6092 16.8538C31.6304 16.8298 31.6397 16.7978 31.635 16.7664L31.5468 16.1747L31.941 16.375C31.9774 16.3937 32.0212 16.3901 32.0542 16.3657L32.4423 16.0784L32.3191 16.4366C32.3053 16.4774 32.3172 16.5229 32.3493 16.5524L32.532 16.7156C32.4777 16.8073 32.4563 16.9202 32.4541 17.0379ZM32.193 19.2207C32.5839 18.554 32.7604 18.2486 32.8138 17.7396C32.8151 17.724 32.8142 17.7048 32.8058 17.6896C32.7299 17.4994 32.5581 16.9228 32.768 16.7667C33.0547 16.5531 33.314 16.5575 33.5729 16.7746C33.6031 16.8468 33.7406 17.1658 33.5592 17.5333C33.4157 17.4795 33.294 17.4829 33.2172 17.4958C32.8371 17.5586 32.7804 18.6229 32.7843 19.2531C32.7855 19.549 32.6385 19.8628 32.4433 20.1788C32.4367 20.1578 32.4283 20.1427 32.4177 20.1238C32.2835 19.8821 32.0632 19.7523 31.9198 19.6985C32.0204 19.524 32.114 19.3634 32.193 19.2207ZM31.3963 20.6611C31.5517 20.3624 31.6899 20.1128 31.8138 19.8907C31.9254 19.9227 32.22 20.0705 32.2962 20.4038C32.2345 20.4974 32.1707 20.5872 32.1089 20.6808C31.9103 20.964 31.7226 21.2312 31.5987 21.4977C31.5223 21.6537 31.4735 21.824 31.4403 21.9957C31.1986 21.9074 31.0253 21.9691 30.8851 22.0371C30.9763 21.5959 31.1422 21.1382 31.3963 20.6611ZM30.8439 22.2921C30.8762 22.2792 30.9124 22.264 30.9462 22.2451C31.0789 22.1815 31.2098 22.1234 31.407 22.2117C31.3564 22.6548 31.4049 23.1073 31.477 23.4774C31.25 23.4157 31.0502 23.403 30.8815 23.4374C30.8815 23.4374 30.8815 23.4374 30.8793 23.4336C30.7945 23.0756 30.7837 22.6912 30.8439 22.2921ZM30.3746 23.6989C30.3998 23.6998 30.4191 23.6989 30.4443 23.6998C30.4056 23.7459 30.375 23.7976 30.3464 23.8529C30.2789 23.9893 30.2812 24.1362 30.3127 24.2818C30.2095 24.265 30.1025 24.2503 29.9858 24.2359C29.4608 24.1715 28.8674 24.0908 28.2943 23.9395C27.3102 23.6802 26.43 23.0915 26.1486 22.887C26.4192 22.6291 26.8108 22.3254 27.1313 21.9066C27.6458 22.1745 29.9311 23.3719 30.3116 23.6745C30.3297 23.6894 30.3533 23.696 30.3746 23.6989ZM25.447 25.1974L25.2083 25.3353C24.7946 24.7396 24.8172 23.2825 24.8172 23.2659C24.8215 23.2228 24.7957 23.1838 24.7568 23.1666L22.9671 22.3833L22.9773 22.1996C23.9106 22.3072 24.9896 22.7414 25.0046 22.7488C25.0413 22.772 25.0877 22.7662 25.1205 22.7392L26.6056 21.5009L26.9253 21.7865C26.4622 22.3553 25.3355 23.1409 25.321 23.149C25.2811 23.1663 25.2596 23.2077 25.2634 23.2501L25.447 25.1974ZM24.6001 16.6258C24.6078 16.6489 24.6175 16.6684 24.6252 16.6914C24.7509 17.0585 24.8824 17.4431 25.1415 17.8235C25.59 18.4822 26.3655 20.3234 26.4779 21.3261L25.0389 22.5246C24.9462 22.4783 24.7626 22.3914 24.5345 22.2968C24.5461 22.0514 24.5708 20.8708 24.18 19.7773C23.975 19.2015 23.6907 18.6394 23.4568 18.1892C23.3891 18.0539 23.3234 17.9245 23.2634 17.8027C23.3136 17.7216 23.3638 17.6403 23.4083 17.5611C23.5299 17.3563 23.6419 17.1611 23.781 17.105C24.291 16.8965 24.4745 16.7707 24.6001 16.6258ZM24.2345 15.8009C24.3563 15.9824 24.4356 16.1815 24.513 16.3843C24.4029 16.5467 24.3045 16.6569 23.6977 16.9043C23.4911 16.9895 23.3539 17.2252 23.2246 17.4552C23.2014 17.4919 23.1763 17.5325 23.1531 17.5692C23.066 17.376 23.01 17.2175 23.0176 17.1247C23.0292 16.9662 23.1702 16.7808 23.3209 16.5855C23.4908 16.3613 23.682 16.1042 23.7302 15.824C23.7612 15.656 23.7282 15.538 23.6817 15.457C23.9155 15.5208 24.1204 15.6233 24.2345 15.8009ZM22.0202 15.738C22.1496 15.566 22.2383 15.4558 22.3949 15.4132C22.4857 15.3862 22.7156 15.361 22.99 15.3628C22.9746 15.3744 22.959 15.386 22.9475 15.3995C22.8644 15.4982 22.8356 15.6817 22.8067 15.9135C22.7662 16.1976 22.718 16.5454 22.5481 16.7987C22.3956 17.0267 22.2661 17.0442 22.1192 17.0674C22.0554 17.079 21.9879 17.0886 21.9202 17.1177C21.8621 16.8375 21.8253 16.4666 21.8308 15.9719C21.9004 15.8906 21.9661 15.8076 22.0202 15.738ZM21.0832 16.3083C21.2976 16.2657 21.4676 16.225 21.6145 16.1439C21.6185 16.5805 21.6573 16.9477 21.7251 17.2471C21.7231 17.251 21.7231 17.251 21.7212 17.2548C21.4778 17.51 21.1552 17.8076 20.7843 18.0184C20.7863 17.9952 20.7824 17.9738 20.7863 17.9469C20.8499 17.3749 20.6989 16.8552 20.3723 16.494C20.6561 16.3993 20.8939 16.3489 21.0832 16.3083ZM17.2194 18.0681C17.5767 17.7878 19.244 16.906 20.1403 16.5714C20.4727 16.892 20.6313 17.3769 20.5716 17.9218C20.566 18.001 20.5601 18.0706 20.5621 18.1343C20.3998 18.2078 20.2317 18.2639 20.0578 18.2929C19.7853 18.3355 19.4684 18.3318 19.1322 18.328C18.5158 18.3243 17.8762 18.3189 17.4474 18.6165C16.6515 19.1655 16.1049 19.3609 16.0333 19.2818C15.9308 19.1775 15.7414 18.8607 16.1392 18.1804C16.5722 18.3195 16.9471 18.2846 17.2194 18.0681ZM13.662 17.4743C13.3044 17.0011 13.165 16.294 13.2055 16.1548C13.2133 16.1297 13.2306 16.1143 13.2596 16.1046C13.3544 16.0795 13.5457 16.1412 13.7429 16.3362C13.7622 16.3556 13.7891 16.3787 13.8181 16.4077L13.662 17.4743ZM14.0679 17.8896C13.9906 17.8123 13.9114 17.7389 13.8514 17.6848L14.0096 16.5854C14.081 16.6549 14.1603 16.7282 14.2472 16.8055L14.0679 17.8896ZM14.2554 18.0846L14.4406 16.9793C14.5314 17.0585 14.6242 17.1436 14.7189 17.2245L14.4932 18.3627C14.412 18.2643 14.3328 18.1716 14.2554 18.0846ZM14.7811 18.7434C14.7444 18.6912 14.7076 18.6391 14.6672 18.585L14.9082 17.3869C15.0667 17.5241 15.2252 17.6515 15.3643 17.7597L14.7811 18.7434ZM14.9069 18.9559L15.5423 17.8871C15.635 17.9527 15.7181 18.0088 15.7839 18.0416C15.8341 18.0667 15.8825 18.0861 15.9346 18.1072C15.9095 18.1478 15.8864 18.1942 15.8671 18.2329C15.7281 18.5112 15.6798 18.7335 15.6818 18.9131C15.3707 18.9557 15.164 19.1085 15.0346 19.2418C15.0075 19.151 14.963 19.0563 14.9069 18.9559ZM16.197 20.4648C16.2197 20.4771 16.2461 20.4811 16.2713 20.4756L16.7888 20.3658L16.517 20.6863C16.4809 20.7282 16.4828 20.7886 16.5192 20.8287L16.8497 21.1931L16.2565 21.1201C16.2247 21.1162 16.1931 21.1267 16.1699 21.1483L15.7316 21.5555L15.674 21.1171C15.6688 21.0766 15.641 21.0424 15.6022 21.0289L15.1459 20.8713L15.5111 20.7704C15.5525 20.7588 15.5833 20.7233 15.5894 20.6801L15.6208 20.4371C15.727 20.4301 15.8323 20.384 15.9305 20.3192L16.197 20.4648ZM18.4968 18.6048C18.3731 18.8521 18.3907 19.1071 18.4274 19.256C18.2264 19.2715 18.041 19.2851 17.8787 19.3006C17.1078 19.355 16.756 19.3821 16.3059 19.6258C16.2924 19.6334 16.2769 19.6451 16.2693 19.6606C16.1554 19.8306 15.7768 20.2984 15.5295 20.2135C15.1912 20.0977 15.0482 19.8813 15.0809 19.545C15.1234 19.4793 15.3088 19.1856 15.7145 19.1275C15.7512 19.2763 15.8228 19.3747 15.8769 19.4308C16.1436 19.7089 17.0536 19.154 17.5713 18.7944C17.8147 18.6263 18.1566 18.5701 18.5276 18.5526C18.5142 18.5699 18.5065 18.5854 18.4968 18.6048ZM19.5173 19.1435C19.183 19.1842 18.8989 19.2113 18.6458 19.2347C18.6091 19.1245 18.5645 18.7981 18.7962 18.5468C18.9083 18.5447 19.0183 18.5467 19.1304 18.5447C19.4763 18.5485 19.8029 18.5523 20.0927 18.5038C20.2647 18.4787 20.4328 18.4226 20.5931 18.3529C20.657 18.6022 20.8058 18.7103 20.9411 18.7875C20.5258 18.9614 20.0544 19.0833 19.5173 19.1435ZM22.0964 18.0026C21.8492 18.2751 21.5382 18.5013 21.1749 18.6773C21.1459 18.6579 21.1131 18.6367 21.0782 18.6193C20.9507 18.5459 20.8289 18.4705 20.7901 18.258C21.1841 18.0492 21.5299 17.7535 21.7945 17.4848C21.8718 17.7069 21.9744 17.8788 22.098 17.9986C22.0983 17.9986 22.0983 17.9986 22.0964 18.0026ZM22.2702 17.8672C22.1659 17.7764 22.0576 17.6161 21.9724 17.332C22.0265 17.3011 22.0845 17.2914 22.152 17.2818C22.3143 17.2566 22.5191 17.2236 22.7238 16.9202C22.9227 16.6284 22.9767 16.2496 23.019 15.9424C23.0422 15.7704 23.0652 15.5887 23.1116 15.5347C23.1598 15.4767 23.3067 15.4438 23.413 15.492C23.5347 15.5481 23.5347 15.6833 23.5173 15.7857C23.4788 16.0176 23.3108 16.2379 23.1486 16.4563C22.9806 16.6767 22.8222 16.8873 22.803 17.1095C22.7895 17.2622 22.8747 17.4882 23.0138 17.78C22.9251 17.8902 22.8303 17.9734 22.7106 17.9907C22.5388 18.0158 22.392 17.9715 22.2702 17.8672ZM22.6162 18.3346C22.6181 18.3114 22.6103 18.2883 22.6006 18.2689C22.5871 18.2477 22.5756 18.2322 22.562 18.2109C22.6219 18.2167 22.6818 18.2128 22.7435 18.205C22.8943 18.1837 23.014 18.0986 23.1164 17.9903C23.1609 18.0851 23.2091 18.1817 23.2633 18.286C23.507 18.7555 23.7757 19.2904 23.975 19.8488C24.3173 20.8071 24.3293 21.8659 24.3198 22.2138C23.9009 22.1229 23.4756 22.0283 22.9555 21.9573C22.886 21.3816 22.5817 18.8196 22.6162 18.3346ZM19.5675 26.312C19.8397 26.0355 20.1249 25.7461 20.3496 25.3442C20.7383 24.6486 22.0389 23.132 22.8858 22.5834L24.6011 23.3353C24.6011 23.439 24.6054 23.6421 24.6227 23.8883C24.398 23.9876 23.3309 24.4932 22.5272 25.3313C22.1039 25.7721 21.7279 26.2775 21.4298 26.688C21.339 26.809 21.2526 26.9256 21.1705 27.0337C21.0755 27.0251 20.9804 27.0164 20.8896 27.0121C20.652 26.9948 20.4273 26.9818 20.3149 26.8825C19.9002 26.5196 19.7056 26.4116 19.5199 26.3641C19.5373 26.3466 19.5503 26.3293 19.5675 26.312ZM18.8849 27.7076C18.8374 27.47 18.8374 27.241 18.9454 27.0596C19.0534 26.8695 19.196 26.7096 19.3429 26.5498C19.5374 26.5758 19.6799 26.6146 20.1724 27.0467C20.341 27.1936 20.6132 27.2109 20.8767 27.2238C20.9199 27.2281 20.9674 27.2324 21.0107 27.2367C20.8767 27.401 20.76 27.5219 20.6738 27.5564C20.5269 27.6169 20.2979 27.5737 20.0559 27.5262C19.7795 27.4743 19.464 27.4182 19.1918 27.5002C19.0275 27.5477 18.9368 27.6298 18.8849 27.7076ZM19.2522 27.7076C19.4769 27.6386 19.7491 27.6903 20.017 27.7379C20.2891 27.7897 20.5484 27.8372 20.7557 27.7552C20.8983 27.699 21.0626 27.5219 21.2612 27.2669C21.3995 27.2971 21.5161 27.3447 21.5852 27.444C21.6845 27.5866 21.7105 27.7378 21.6716 27.8934C21.6371 28.0273 21.5421 28.1958 21.3259 28.3988C21.2741 28.3643 21.2395 28.3167 21.2007 28.2605C21.1056 28.1266 20.9846 27.9581 20.6216 27.9105C20.2716 27.863 19.9088 27.9841 19.615 28.0834C19.4508 28.1395 19.2779 28.2001 19.2089 28.1827C19.1353 28.1653 19.0403 28.0487 19.036 27.932C19.0318 27.7983 19.1528 27.7379 19.2522 27.7076ZM20.1724 29.1333C20.0687 29.1073 19.9651 29.0857 19.8787 29.0686C19.667 29.0297 19.5287 28.9994 19.4207 28.8784C19.3558 28.8093 19.2305 28.6148 19.1095 28.3686C19.1269 28.3772 19.1441 28.3859 19.1614 28.3902C19.2867 28.4205 19.4637 28.3643 19.6842 28.2865C19.9563 28.1958 20.289 28.0834 20.5915 28.1223C20.8636 28.1568 20.9372 28.2648 21.0235 28.3858C21.0624 28.4377 21.1013 28.4938 21.1575 28.5413C20.9329 28.7185 20.6174 28.9173 20.1724 29.1333ZM20.8076 29.6518C20.6736 29.479 20.5614 29.345 20.423 29.25C20.8118 29.0513 21.1229 28.8524 21.3606 28.6581C21.3649 28.6581 21.3649 28.6581 21.3692 28.6581C21.7061 28.7618 22.1167 28.9174 22.471 29.155C22.4494 29.1636 22.4321 29.1766 22.4061 29.1852C21.8661 29.3839 21.4685 29.7512 21.2915 30.2049C21.0798 29.9932 20.9286 29.803 20.8076 29.6518ZM24.1086 32.3219C23.6981 32.1274 22.1642 31.0301 21.4644 30.3775C21.6027 29.9368 21.9656 29.5783 22.4798 29.3881C22.5533 29.3578 22.618 29.3319 22.6742 29.3017C22.8125 29.4141 22.9378 29.5393 23.0415 29.6818C23.2014 29.9065 23.3396 30.1916 23.4865 30.4941C23.7587 31.0472 24.0395 31.6219 24.4975 31.8724C25.3444 32.339 25.7634 32.7408 25.7246 32.8401C25.677 32.9784 25.4784 33.2894 24.692 33.2377C24.6226 32.7886 24.424 32.4688 24.1086 32.3219ZM24.1905 36.7678C24.1645 36.7721 24.1429 36.7635 24.1214 36.7418C24.0566 36.6682 24.0264 36.4696 24.1129 36.206C24.1214 36.1801 24.1302 36.1456 24.1431 36.1067L25.1671 35.7697C24.9035 36.3012 24.3332 36.742 24.1905 36.7678ZM25.2707 35.5061L24.2165 35.8561C24.2467 35.7611 24.2769 35.6574 24.3072 35.545L25.3571 35.221C25.3225 35.3247 25.2923 35.4285 25.2707 35.5061ZM25.4478 34.9661L24.3762 35.2944C24.4065 35.1778 24.4411 35.0568 24.4713 34.9358L25.5902 34.629C25.5386 34.7458 25.4911 34.8581 25.4478 34.9661ZM25.7115 34.3741L24.532 34.6938C24.5838 34.4908 24.627 34.292 24.6616 34.1192L25.8022 34.2014C25.7719 34.2576 25.7418 34.3137 25.7115 34.3741ZM25.9361 33.9939L24.6962 33.9032C24.7134 33.7908 24.7263 33.6915 24.7263 33.618C24.7263 33.5619 24.722 33.51 24.7177 33.4538C24.7653 33.4581 24.8171 33.4581 24.8603 33.4581C25.1714 33.4581 25.3918 33.4019 25.5516 33.3198C25.7288 33.5791 25.9578 33.6957 26.1349 33.7518C26.0658 33.8168 26.0008 33.8989 25.9361 33.9939ZM26.3566 31.6803L26.7648 31.7803C26.8183 31.7937 26.8716 31.765 26.8912 31.7146L27.0694 31.2562L27.2692 31.8195C27.2799 31.8497 27.3034 31.8733 27.3331 31.8845L27.8932 32.0946L27.5267 32.3421C27.4927 32.3648 27.4746 32.4049 27.4798 32.4456L27.5426 32.9243L27.2893 32.6427C27.2604 32.6107 27.2149 32.5992 27.1735 32.6129L26.942 32.6933C26.8882 32.6015 26.8001 32.5278 26.6982 32.4689L26.7094 32.1655C26.7103 32.1397 26.702 32.1144 26.6861 32.0942L26.3566 31.6803ZM24.9164 31.1812C25.3095 31.8467 25.4911 32.149 25.9101 32.4429C25.923 32.4515 25.9403 32.4601 25.9577 32.4601C26.1607 32.4861 26.7483 32.6156 26.7829 32.8749C26.8304 33.2292 26.7007 33.4539 26.3853 33.5748C26.3075 33.5662 25.962 33.5316 25.7286 33.1946C25.8453 33.0953 25.9014 32.9873 25.9273 32.9138C26.0569 32.5509 25.154 31.9849 24.6009 31.6824C24.3417 31.5398 24.1386 31.2591 23.9572 30.935C23.9788 30.9392 23.9961 30.9392 24.0176 30.9392C24.2941 30.9392 24.5145 30.8097 24.6311 30.7102C24.7349 30.8832 24.83 31.0431 24.9164 31.1812ZM24.0436 29.7858C24.2294 30.0667 24.3805 30.3087 24.5145 30.5246C24.4324 30.6067 24.1602 30.7925 23.8319 30.6975C23.78 30.5981 23.7326 30.4987 23.6807 30.3994C23.5296 30.0883 23.387 29.7945 23.2141 29.5568C23.1148 29.4143 22.9894 29.289 22.8555 29.1767C23.05 29.0081 23.0802 28.8267 23.0888 28.6712C23.4302 28.9649 23.7499 29.3321 24.0436 29.7858ZM22.8858 28.5112C22.8815 28.5458 22.8772 28.5848 22.8772 28.6236C22.8686 28.7705 22.8556 28.9132 22.6828 29.0427C22.3199 28.7834 21.9007 28.6062 21.5422 28.4896C21.7064 28.3211 21.8143 28.1526 21.8662 27.9885C21.8662 27.9885 21.8662 27.9885 21.8705 27.9885C22.2247 28.0877 22.5661 28.2649 22.8858 28.5112ZM21.9352 27.3749C21.9136 27.3835 21.8964 27.4009 21.8834 27.4181C21.8705 27.4396 21.8618 27.4569 21.8488 27.4785C21.8272 27.4224 21.7969 27.3705 21.7624 27.3187C21.6759 27.1935 21.5464 27.1243 21.4038 27.0812C21.4686 26.999 21.5334 26.9126 21.6025 26.8176C21.9136 26.3898 22.2722 25.9103 22.6827 25.4825C23.387 24.748 24.3288 24.2641 24.6442 24.1172C24.6918 24.5752 24.7954 25.1152 25.0244 25.4522C24.5405 25.7719 22.3846 27.1891 21.9352 27.3749ZM30.6673 25.3303C30.5513 25.869 30.5511 26.0915 30.5999 26.277C30.5763 26.2703 30.5549 26.2673 30.5314 26.2605C30.1575 26.1567 29.766 26.0479 29.3056 26.0464C28.5087 26.044 26.5516 25.643 25.6608 25.1688L25.4857 23.3043C25.5763 23.254 25.7517 23.1516 25.9587 23.017C26.1546 23.1651 27.1146 23.853 28.2375 24.1488C28.8283 24.3052 29.4527 24.3885 29.9562 24.4499C30.106 24.4706 30.25 24.4895 30.3842 24.5089C30.4228 24.5962 30.4614 24.6835 30.5017 24.7649C30.602 24.9811 30.6997 25.1839 30.6673 25.3303ZM31.487 26.4418C31.2683 26.4396 31.0594 26.3926 30.8483 26.3417C30.7766 26.1592 30.7414 26.0156 30.8802 25.3752C30.9269 25.1565 30.8098 24.9103 30.6933 24.6734C30.676 24.6336 30.6568 24.5899 30.6397 24.5501C30.8482 24.5876 31.0106 24.6308 31.0828 24.6897C31.207 24.7887 31.2803 25.0099 31.3561 25.2445C31.445 25.5114 31.549 25.8145 31.7529 26.0126C31.8741 26.1331 31.99 26.1726 32.0831 26.1802C31.8983 26.3371 31.698 26.4482 31.487 26.4418ZM32.2059 25.939C32.091 26.0077 31.9792 25.9313 31.9046 25.8591C31.7351 25.6962 31.6484 25.433 31.5599 25.1758C31.4732 24.9126 31.3889 24.6629 31.2165 24.5215C31.0981 24.424 30.8635 24.3665 30.5443 24.3164C30.5036 24.1809 30.4886 24.0558 30.5419 23.9471C30.6183 23.791 30.7379 23.6949 30.8928 23.6534C31.0266 23.6187 31.2202 23.62 31.5026 23.7104C31.4975 23.7725 31.4727 23.8258 31.4425 23.887C31.3715 24.0351 31.283 24.2227 31.4175 24.5631C31.5458 24.8922 31.8278 25.1507 32.0572 25.3594C32.186 25.4757 32.3227 25.5975 32.3412 25.6663C32.3618 25.7389 32.3059 25.8786 32.2059 25.939ZM32.8466 25.1435C32.8176 25.2337 32.7084 25.4376 32.5519 25.663C32.551 25.6437 32.5502 25.6243 32.5457 25.6071C32.5113 25.4829 32.3762 25.3553 32.2012 25.2004C31.9898 25.0064 31.7301 24.7701 31.6172 24.4867C31.5154 24.2319 31.5742 24.1152 31.6379 23.9811C31.6644 23.9219 31.6946 23.8606 31.7089 23.7885C31.9728 23.8989 32.2997 24.0782 32.7045 24.3625C32.7323 24.4657 32.7636 24.5669 32.7906 24.6509C32.8594 24.8548 32.9 24.9903 32.8466 25.1435ZM32.8498 23.5556C32.7636 23.7565 32.701 23.9198 32.685 24.0868C32.3225 23.8433 31.9978 23.6678 31.7125 23.5544C31.7104 23.5506 31.7104 23.5506 31.7083 23.5469C31.6354 23.202 31.5721 22.7676 31.6081 22.3425C31.626 22.3571 31.6458 22.366 31.666 22.3845C32.1018 22.7603 32.6159 22.9295 33.0985 22.8643C33.0161 23.1519 32.9233 23.3765 32.8498 23.5556ZM33.5824 19.3736C33.6116 19.8269 33.3965 21.7006 33.1657 22.6291C32.7133 22.7221 32.2236 22.5788 31.8078 22.2216C31.7457 22.172 31.6916 22.1279 31.6378 22.0936C31.669 21.9182 31.7177 21.7478 31.792 21.588C31.9109 21.3392 32.0931 21.0799 32.2862 20.8047C32.6375 20.2984 33.0038 19.7738 33.0006 19.2518C32.9976 18.2849 33.1456 17.7235 33.2513 17.7092C33.3953 17.6836 33.7637 17.7064 34.1 18.4192C33.7409 18.6976 33.5578 19.0266 33.5824 19.3736ZM34.4159 18.2043C34.3667 18.2316 34.3235 18.2605 34.2765 18.2915C34.2572 18.2479 34.2321 18.2026 34.2111 18.1648C34.0601 17.8928 33.904 17.7274 33.7547 17.6275C33.8955 17.3468 33.8863 17.09 33.8495 16.9078C33.9397 16.9368 34.0429 16.9536 34.1575 16.9642L34.68 18.0924C34.5732 18.1318 34.48 18.1687 34.4159 18.2043ZM34.8855 18.0177L34.4037 16.9805C34.4674 16.9796 34.5312 16.9788 34.5988 16.976L35.4507 17.8521C35.2481 17.9054 35.0534 17.9642 34.8855 18.0177ZM35.6917 17.7876L34.8804 16.9581C35.0076 16.9468 35.1289 16.9339 35.2442 16.9193L36.0513 17.6967C35.9347 17.7269 35.8121 17.7554 35.6917 17.7876ZM36.3039 17.6356L35.5111 16.8749C35.6185 16.8549 35.7239 16.831 35.8024 16.8121L36.6201 17.5641C36.5223 17.5835 36.4169 17.6074 36.3039 17.6356ZM36.9763 17.4848C36.9494 17.4898 36.9151 17.499 36.8748 17.5066L36.0832 16.7747C36.6758 16.7473 37.3378 17.032 37.4298 17.1442C37.4462 17.1648 37.4492 17.1878 37.4407 17.2172C37.4078 17.3095 37.2487 17.4323 36.9763 17.4848Z"
            fill="#464655" />
    </g>
    <defs>
        <clipPath id="clip0_9_3070">
            <rect width="50" height="50" fill="white" transform="translate(0.324219 0.160156)" />
        </clipPath>
    </defs>
</svg>
