<svg width="51" height="51" viewBox="0 0 51 51" fill="none" xmlns="http://www.w3.org/2000/svg">
<g clip-path="url(#clip0_9_3066)">
<path d="M49.89 41.5394H1.61428C1.13821 41.5394 0.752174 41.1534 0.752174 40.6773V9.64287C0.752174 9.1668 1.13821 8.78076 1.61428 8.78076H49.8901C50.3661 8.78076 50.7522 9.1668 50.7522 9.64287V40.6773C50.7521 41.1535 50.366 41.5394 49.89 41.5394Z" fill="#41479B"/>
<path d="M50.7521 14.8154H0.752174V35.5048H50.7521V14.8154Z" fill="#F5F5F5"/>
<path d="M30.2314 25.1601L32.4709 21.2811H27.9919L25.752 17.4016L23.5122 21.2811H19.0332L21.2727 25.1601L19.0332 29.0391H23.5122L25.752 32.9187L27.9918 29.0391H32.4708L30.2314 25.1601ZM30.2737 22.5498L29.499 23.8916L28.7243 22.5498H30.2737ZM28.7666 25.1601L27.2594 27.7705H24.2445L22.7375 25.1601L24.2446 22.5498H27.2595L28.7666 25.1601ZM25.752 19.9389L26.527 21.2812H24.977L25.752 19.9389ZM21.2303 22.5498H22.7796L22.0049 23.8916L21.2303 22.5498ZM21.2303 27.7705L22.005 26.4287L22.7797 27.7705H21.2303ZM25.752 30.3814L24.977 29.039H26.527L25.752 30.3814ZM29.499 26.4287L30.2737 27.7705H28.7244L29.499 26.4287Z" fill="#41479B"/>
</g>
<defs>
<clipPath id="clip0_9_3066">
<rect width="50" height="50" fill="white" transform="translate(0.751953 0.160156)"/>
</clipPath>
</defs>
</svg>
