<svg width="51" height="51" viewBox="0 0 51 51" fill="none" xmlns="http://www.w3.org/2000/svg">
<g clip-path="url(#clip0_9_3052)">
<path d="M49.1764 8.78076H0.900682C0.424609 8.78076 0.0385742 9.1667 0.0385742 9.64277V40.6772C0.0385742 41.1533 0.424609 41.5393 0.900682 41.5393H49.1765C49.6525 41.5393 50.0386 41.1533 50.0386 40.6772V9.64277C50.0385 9.1667 49.6524 8.78076 49.1764 8.78076Z" fill="#73AF00"/>
<path d="M50.0385 9.64281C50.0385 9.16673 49.6524 8.7807 49.1764 8.7807H45.3189L25.0385 22.068L4.75819 8.7808H0.900682C0.424609 8.7808 0.0385742 9.16673 0.0385742 9.64281V11.8729L20.3189 25.1601L0.0385742 38.4472V40.6773C0.0385742 41.1534 0.424609 41.5394 0.900682 41.5394H4.75819L25.0385 28.2521L45.3189 41.5393H49.1764C49.6524 41.5393 50.0385 41.1533 50.0385 40.6772V38.4471L29.7581 25.1601L50.0385 11.8729V9.64281Z" fill="#FFE15A"/>
<path d="M50.038 11.8727V38.4471L29.7577 25.1599L50.038 11.8727Z" fill="#464655"/>
<path d="M0.0385742 38.4472V11.8729L20.3189 25.16L0.0385742 38.4472Z" fill="#464655"/>
</g>
<defs>
<clipPath id="clip0_9_3052">
<rect width="50" height="50" fill="white" transform="translate(0.0390625 0.160156)"/>
</clipPath>
</defs>
</svg>
