<svg width="51" height="51" viewBox="0 0 51 51" fill="none" xmlns="http://www.w3.org/2000/svg">
    <g clip-path="url(#clip0_9_3049)">
        <path
            d="M49.6071 41.5394H1.33144C0.855364 41.5394 0.46933 41.1534 0.46933 40.6773V9.64287C0.46933 9.1668 0.855364 8.78076 1.33144 8.78076H49.6072C50.0833 8.78076 50.4693 9.1668 50.4693 9.64287V40.6773C50.4692 41.1535 50.0832 41.5394 49.6071 41.5394Z"
            fill="#F5F5F5" />
        <path
            d="M25.4692 34.6425C30.7062 34.6425 34.9516 30.3971 34.9516 25.1601C34.9516 19.9232 30.7062 15.6777 25.4692 15.6777C20.2322 15.6777 15.9868 19.9232 15.9868 25.1601C15.9868 30.3971 20.2322 34.6425 25.4692 34.6425Z"
            fill="#FF4B55" />
    </g>
    <defs>
        <clipPath id="clip0_9_3049">
            <rect width="50" height="50" fill="white" transform="translate(0.46875 0.160156)" />
        </clipPath>
    </defs>
</svg>
