<svg width="51" height="51" viewBox="0 0 51 51" fill="none" xmlns="http://www.w3.org/2000/svg">
<g clip-path="url(#clip0_9_2996)">
<path d="M50.036 41.5394H1.76027C1.2842 41.5394 0.898163 41.1534 0.898163 40.6773V9.64287C0.898163 9.1668 1.2842 8.78076 1.76027 8.78076H50.0361C50.5121 8.78076 50.8982 9.1668 50.8982 9.64287V40.6773C50.8981 41.1535 50.512 41.5394 50.036 41.5394Z" fill="#F5F5F5"/>
<path d="M50.8981 9.64287C50.8981 9.1668 50.512 8.78076 50.036 8.78076H47.7519L25.8981 23.0989L4.04425 8.78086H1.76027C1.2842 8.78086 0.898163 9.1668 0.898163 9.64287V10.842L22.752 25.1601L0.898163 39.4782V40.6773C0.898163 41.1534 1.2842 41.5394 1.76027 41.5394H4.04435L25.8981 27.2214L47.752 41.5394H50.0361C50.5121 41.5394 50.8982 41.1534 50.8982 40.6773V39.4782L29.0442 25.1601L50.8981 10.8421V9.64287Z" fill="#FF4B55"/>
<path d="M28.4917 12.5489C28.4917 12.5489 28.2187 12.1394 27.8093 12.4123C27.8093 12.4123 28.2828 12.7536 27.9628 13.1119C27.6242 13.4911 27.1588 13.1202 27.1296 12.8485C27.2537 12.839 27.3518 12.7364 27.3518 12.6098C27.3518 12.4769 27.2442 12.3693 27.1113 12.3693C26.9784 12.3693 26.8708 12.4769 26.8708 12.6098C26.8708 12.7135 26.9368 12.8011 27.0288 12.8349C26.9701 13.0675 26.3599 13.2455 26.1841 12.8603C25.986 12.4266 26.2993 12.0583 26.7216 12.1095C26.7216 12.1095 26.6405 11.5721 26.069 11.7981C26.069 11.7981 26.3079 11.1838 25.8984 10.7744C25.4889 11.1838 25.7278 11.7981 25.7278 11.7981C25.1562 11.572 25.0753 12.1095 25.0753 12.1095C25.4975 12.0583 25.8107 12.4264 25.6128 12.8603C25.4369 13.2455 24.8267 13.0675 24.7681 12.8349C24.86 12.8012 24.9261 12.7136 24.9261 12.6098C24.9261 12.4769 24.8184 12.3693 24.6855 12.3693C24.5526 12.3693 24.445 12.4769 24.445 12.6098C24.445 12.7365 24.5431 12.839 24.6673 12.8485C24.6381 13.1202 24.1725 13.4911 23.8341 13.1119C23.5141 12.7536 23.9876 12.4123 23.9876 12.4123C23.5781 12.1394 23.3052 12.5489 23.3052 12.5489C23.1686 12.0029 22.6227 12.1394 22.6227 12.1394C23.1687 12.8218 23.5702 14.2296 23.5702 14.2296H28.2271C28.2271 14.2296 28.6285 12.8219 29.1746 12.1394C29.1741 12.1394 28.6281 12.0029 28.4917 12.5489Z" fill="#FFE15A"/>
<path d="M28.2263 14.2296C27.473 13.9641 26.6854 13.8314 25.8979 13.8314C25.1104 13.8314 24.3228 13.9641 23.5695 14.2296C22.3481 19.5811 25.8979 21.0114 25.8979 21.0114C25.8979 21.0114 29.4477 19.5811 28.2263 14.2296Z" fill="#FF4B55"/>
<path d="M24.194 16.1336C24.194 16.1336 24.0821 16.1125 23.9847 16.1904C23.9847 16.1904 23.9506 16.0559 24.1257 16.0235C24.301 15.9908 24.194 16.1336 24.194 16.1336Z" fill="#82AFFF"/>
<path d="M24.0594 15.9634C24.0594 15.9634 23.9707 15.8919 23.8482 15.9146C23.8482 15.9146 23.8818 15.7799 24.0515 15.8341C24.2212 15.8882 24.0594 15.9634 24.0594 15.9634Z" fill="#82AFFF"/>
<path d="M24.1327 16.0331C24.1327 16.0331 24.0104 16.012 23.904 16.09C23.904 16.09 23.8668 15.9554 24.0582 15.923C24.2496 15.8905 24.1327 16.0331 24.1327 16.0331Z" fill="#82AFFF"/>
<path d="M26.2509 16.3906C26.2509 16.3906 26.1371 16.396 26.0604 16.4943C26.0604 16.4943 25.9962 16.3713 26.1591 16.2992C26.3219 16.227 26.2509 16.3906 26.2509 16.3906Z" fill="#82AFFF"/>
<path d="M26.084 16.244C26.084 16.244 25.9811 16.1949 25.8672 16.2453C25.8672 16.2453 25.8686 16.1065 26.0463 16.1199C26.2239 16.1334 26.084 16.244 26.084 16.244Z" fill="#82AFFF"/>
<path d="M26.168 16.3071C26.168 16.3071 26.0441 16.3148 25.9587 16.4152C25.9587 16.4152 25.8913 16.2929 26.0701 16.217C26.2489 16.1411 26.168 16.3071 26.168 16.3071Z" fill="#82AFFF"/>
<path d="M27.5505 16.4609C27.5505 16.4609 27.5079 16.4609 27.4316 16.5327C27.4316 16.5327 27.377 16.4106 27.5378 16.3507C27.6987 16.2907 27.5505 16.4609 27.5505 16.4609Z" fill="#82AFFF"/>
<path d="M27.469 16.2933C27.469 16.2933 27.373 16.2402 27.2605 16.282C27.2605 16.282 27.27 16.1486 27.44 16.1717C27.61 16.195 27.469 16.2933 27.469 16.2933Z" fill="#82AFFF"/>
<path d="M27.5461 16.3588C27.5461 16.3588 27.4265 16.3591 27.3386 16.4506C27.3386 16.4506 27.281 16.329 27.4572 16.2664C27.6335 16.2039 27.5461 16.3588 27.5461 16.3588Z" fill="#82AFFF"/>
<path d="M24.0073 15.2891C24.0073 15.2891 23.9045 15.2207 23.7742 15.257C23.7742 15.257 23.7974 15.1086 23.9861 15.1504C24.1749 15.1922 24.0073 15.2891 24.0073 15.2891Z" fill="#82AFFF"/>
<path d="M23.9985 15.033C23.9985 15.033 23.9321 14.9286 23.7904 14.9194C23.7904 14.9194 23.8821 14.7787 24.0431 14.8867C24.2042 14.9945 23.9985 15.033 23.9985 15.033Z" fill="#82AFFF"/>
<path d="M23.9992 15.169C23.9992 15.169 23.8908 15.0889 23.7475 15.1184C23.7475 15.1184 23.7797 14.9618 23.9827 15.0197C24.1857 15.0777 23.9992 15.169 23.9992 15.169Z" fill="#82AFFF"/>
<path d="M27.223 15.6372C27.4031 15.6421 27.6171 15.5707 27.6512 15.3842C27.6903 15.1698 27.5067 15.0614 27.2604 15.0711C27.0805 15.0782 26.6249 15.1816 26.2986 15.17C25.9759 15.1587 25.9671 14.8394 26.456 14.8733C27.181 14.9236 27.2961 14.8295 27.2961 14.8295C26.9068 14.9025 26.7512 14.7662 26.3376 14.7662C25.924 14.7662 25.8446 15.0527 26.0116 15.209C26.1987 15.3842 26.8776 15.2674 27.0577 15.2333C27.2378 15.1992 27.4661 15.1975 27.4842 15.3241C27.5003 15.4377 27.1987 15.4316 26.9851 15.4234C26.645 15.4103 26.1501 15.5026 25.7099 15.5253C25.3431 15.5443 25.292 15.4408 25.2085 15.3349C25.228 15.2996 25.2392 15.2603 25.2392 15.2187C25.2392 15.1977 25.2358 15.1774 25.2306 15.1576C25.2583 15.1273 25.2874 15.0786 25.3007 14.9996C25.3007 14.9996 25.2068 14.9831 25.1359 15.019C25.0791 14.9741 25.0038 14.9461 24.9205 14.9461C24.8371 14.9461 24.7619 14.9741 24.7051 15.019C24.6342 14.9832 24.5403 14.9996 24.5403 14.9996C24.5537 15.0787 24.5828 15.1272 24.6105 15.1576C24.6052 15.1773 24.6019 15.1975 24.6019 15.2187C24.6019 15.295 24.6386 15.3641 24.6979 15.4136C24.7264 15.4375 24.7477 15.469 24.7549 15.5055L24.7651 15.5573C24.7696 15.5801 24.7843 15.5979 24.8033 15.6087C24.501 15.5776 24.3578 15.3875 24.2844 15.2819C24.2015 15.1627 24.1498 14.8991 24.0232 14.8699L23.9486 15.2674C23.9486 15.2674 24.1085 15.6371 24.406 15.788C24.7417 15.9582 24.805 15.9632 24.9152 16.0118C24.9281 16.0702 24.7076 16.1059 24.4838 16.0606C24.3275 16.0289 24.117 15.802 23.9971 15.8182L24.1368 16.1286C24.5163 16.3687 24.8481 16.3738 25.1326 16.3233C25.3337 16.2876 25.4102 16.1239 25.4234 16.0537C25.5056 16.0385 25.595 16.0215 25.8722 15.9534C25.9882 15.9249 26.1219 15.9099 26.2549 15.9036C26.2924 15.9892 26.3781 16.0988 26.6733 16.1091C26.6733 16.1091 26.7446 16.2227 26.5015 16.1999C26.2581 16.1772 26.1958 16.1014 26.0529 16.1176L26.1803 16.4205C26.1803 16.4205 26.4917 16.3135 26.8744 16.3525C26.8744 16.3525 26.9457 16.372 26.988 16.3104C27.0301 16.2488 27.0107 16.2131 26.9717 16.1579C26.9498 16.1269 26.9371 16.0263 26.9303 15.944C27.0705 15.9792 27.5007 15.8919 27.6562 15.905C27.8118 15.9179 27.8346 16.0996 27.7988 16.1613C27.7632 16.2229 27.4372 16.1702 27.4372 16.1702L27.5467 16.4695C27.5467 16.4695 27.5796 16.4536 27.6626 16.3754C27.7302 16.3118 28.0064 16.3333 28.0064 16.2846V15.7303C28.0064 15.704 27.9836 15.6835 27.9574 15.6858C27.3479 15.7389 27.223 15.6372 27.223 15.6372Z" fill="#FFE15A"/>
<path d="M24.7928 15.4402C24.802 15.4581 24.8087 15.4776 24.8124 15.4982L24.8216 15.55C24.8248 15.5682 24.8392 15.5814 24.8558 15.5814H24.9972C25.0138 15.5814 25.0282 15.5682 25.0314 15.55L25.0406 15.4982C25.0443 15.4776 25.051 15.4582 25.0602 15.4402H24.7928Z" fill="#FF4B55"/>
<path d="M24.9259 15.5426C24.8933 15.5426 24.8678 15.5466 24.8713 15.5919L24.8845 15.7858C24.8868 15.8154 24.9046 15.8379 24.9259 15.8379C24.9471 15.8379 24.9652 15.8154 24.9673 15.7858L24.9805 15.5919C24.9839 15.5466 24.9584 15.5426 24.9259 15.5426Z" fill="#82AFFF"/>
<path d="M24.5049 18.0479C24.5049 18.0479 24.4136 18.0306 24.3342 18.0942C24.3342 18.0942 24.3063 17.9844 24.4492 17.9578C24.5923 17.9316 24.5049 18.0479 24.5049 18.0479Z" fill="#82AFFF"/>
<path d="M24.395 17.9091C24.395 17.9091 24.3227 17.8508 24.2227 17.8692C24.2227 17.8692 24.2501 17.7593 24.3885 17.8035C24.527 17.8477 24.395 17.9091 24.395 17.9091Z" fill="#82AFFF"/>
<path d="M24.4548 17.9659C24.4548 17.9659 24.355 17.9487 24.2683 18.0122C24.2683 18.0122 24.2379 17.9025 24.3941 17.8759C24.5502 17.8495 24.4548 17.9659 24.4548 17.9659Z" fill="#82AFFF"/>
<path d="M26.1828 18.2577C26.1828 18.2577 26.09 18.2621 26.0275 18.3421C26.0275 18.3421 25.9751 18.2417 26.108 18.1829C26.241 18.1243 26.1828 18.2577 26.1828 18.2577Z" fill="#82AFFF"/>
<path d="M26.0466 18.138C26.0466 18.138 25.9628 18.0981 25.8698 18.1391C25.8698 18.1391 25.871 18.0258 26.0159 18.0368C26.1608 18.0478 26.0466 18.138 26.0466 18.138Z" fill="#82AFFF"/>
<path d="M26.1152 18.1894C26.1152 18.1894 26.0141 18.1957 25.9444 18.2776C25.9444 18.2776 25.8894 18.1778 26.0352 18.1159C26.1812 18.054 26.1152 18.1894 26.1152 18.1894Z" fill="#82AFFF"/>
<path d="M27.2425 18.3148C27.2425 18.3148 27.2079 18.3148 27.1456 18.3733C27.1456 18.3733 27.1009 18.2737 27.2322 18.225C27.3634 18.1761 27.2425 18.3148 27.2425 18.3148Z" fill="#82AFFF"/>
<path d="M27.176 18.1781C27.176 18.1781 27.0977 18.1348 27.0059 18.169C27.0059 18.169 27.0136 18.0602 27.1524 18.0791C27.2911 18.098 27.176 18.1781 27.176 18.1781Z" fill="#82AFFF"/>
<path d="M27.239 18.2316C27.239 18.2316 27.1415 18.2318 27.0697 18.3065C27.0697 18.3065 27.0226 18.2073 27.1665 18.1563C27.3103 18.1052 27.239 18.2316 27.239 18.2316Z" fill="#82AFFF"/>
<path d="M24.3524 17.359C24.3524 17.359 24.2686 17.3034 24.1623 17.3329C24.1623 17.3329 24.1812 17.2118 24.3352 17.2459C24.4891 17.2801 24.3524 17.359 24.3524 17.359Z" fill="#82AFFF"/>
<path d="M24.3457 17.1501C24.3457 17.1501 24.2915 17.0649 24.176 17.0575C24.176 17.0575 24.2508 16.9427 24.3821 17.0307C24.5135 17.1188 24.3457 17.1501 24.3457 17.1501Z" fill="#82AFFF"/>
<path d="M24.3459 17.2611C24.3459 17.2611 24.2575 17.1957 24.1407 17.2199C24.1407 17.2199 24.1669 17.0921 24.3325 17.1394C24.4981 17.1866 24.3459 17.2611 24.3459 17.2611Z" fill="#82AFFF"/>
<path d="M26.9753 17.6433C27.1222 17.6473 27.2968 17.5891 27.3245 17.4369C27.3564 17.2621 27.2067 17.1736 27.0056 17.1817C26.8589 17.1875 26.4873 17.2717 26.2212 17.2623C25.9579 17.253 25.9507 16.9926 26.3495 17.0202C26.9409 17.0612 27.0347 16.9846 27.0347 16.9846C26.7173 17.0441 26.5902 16.9329 26.2528 16.9329C25.9154 16.9329 25.8508 17.1665 25.9869 17.2942C26.1395 17.437 26.6933 17.3418 26.8402 17.314C26.9871 17.2861 27.1734 17.2847 27.1882 17.3881C27.2015 17.4807 26.9553 17.4757 26.781 17.4691C26.5036 17.4584 26.1 17.5337 25.7408 17.5522C25.4416 17.5676 25.4 17.4832 25.3318 17.3969C25.3477 17.3681 25.3568 17.3361 25.3568 17.3022C25.3568 17.2851 25.354 17.2686 25.3497 17.2525C25.3724 17.2276 25.396 17.188 25.4069 17.1235C25.4069 17.1235 25.3303 17.1101 25.2725 17.1393C25.2263 17.1027 25.1648 17.0799 25.0968 17.0799C25.0287 17.0799 24.9674 17.1027 24.921 17.1393C24.8633 17.1101 24.7866 17.1235 24.7866 17.1235C24.7974 17.188 24.8212 17.2276 24.8438 17.2525C24.8395 17.2685 24.8367 17.285 24.8367 17.3022C24.8367 17.3645 24.8668 17.4208 24.915 17.4611C24.9383 17.4807 24.9557 17.5063 24.9615 17.5361L24.9699 17.5785C24.9736 17.5971 24.9855 17.6115 25.0011 17.6204C24.7544 17.595 24.6377 17.4401 24.5778 17.3538C24.5102 17.2567 24.4681 17.0416 24.3647 17.0178L24.3039 17.3419C24.3039 17.3419 24.4344 17.6436 24.6769 17.7666C24.9508 17.9055 25.0023 17.9095 25.0924 17.9491C25.1029 17.9968 24.923 18.0259 24.7404 17.9888C24.613 17.9629 24.4413 17.7779 24.3433 17.791L24.4573 18.0442C24.7669 18.2401 25.0375 18.2442 25.2696 18.2029C25.4336 18.1738 25.496 18.0403 25.5068 17.9831C25.5737 17.9707 25.6467 17.9568 25.8728 17.9013C25.9676 17.878 26.0765 17.8657 26.1851 17.8607C26.2157 17.9305 26.2857 18.0199 26.5265 18.0282C26.5265 18.0282 26.5847 18.1208 26.3862 18.1023C26.1877 18.0837 26.1369 18.0219 26.0204 18.0352L26.1243 18.2822C26.1243 18.2822 26.3783 18.1949 26.6906 18.2267C26.6906 18.2267 26.7488 18.2425 26.7832 18.1923C26.8176 18.142 26.8017 18.1129 26.7699 18.068C26.752 18.0427 26.7418 17.9606 26.7361 17.8934C26.8505 17.9222 27.2014 17.8509 27.3281 17.8614C27.4552 17.872 27.4736 18.0201 27.4445 18.0705C27.4154 18.1208 27.1495 18.0778 27.1495 18.0778L27.2389 18.3219C27.2389 18.3219 27.2657 18.309 27.3335 18.2451C27.3886 18.1933 27.6139 18.2108 27.6139 18.1711V17.719C27.6139 17.6975 27.5953 17.6808 27.574 17.6826C27.0771 17.7261 26.9753 17.6433 26.9753 17.6433Z" fill="#FFE15A"/>
<path d="M24.9926 17.4824C25 17.4971 25.0057 17.5129 25.0085 17.5296L25.0159 17.572C25.0185 17.5868 25.0303 17.5976 25.0438 17.5976H25.1591C25.1726 17.5976 25.1843 17.5868 25.1869 17.572L25.1943 17.5296C25.1974 17.5129 25.2028 17.497 25.2103 17.4824H24.9926Z" fill="#FF4B55"/>
<path d="M25.1002 17.566C25.0735 17.566 25.0529 17.5693 25.0557 17.6064L25.0664 17.7645C25.0683 17.7887 25.0828 17.8071 25.1002 17.8071C25.1177 17.8071 25.1322 17.7887 25.134 17.7645L25.1447 17.6064C25.1476 17.5693 25.1269 17.566 25.1002 17.566Z" fill="#82AFFF"/>
<path d="M24.8486 19.5695C24.8486 19.5695 24.7802 19.5566 24.7208 19.6042C24.7208 19.6042 24.7 19.522 24.807 19.5021C24.914 19.4823 24.8486 19.5695 24.8486 19.5695Z" fill="#82AFFF"/>
<path d="M24.7661 19.4656C24.7661 19.4656 24.7119 19.4219 24.6371 19.4357C24.6371 19.4357 24.6576 19.3533 24.7612 19.3865C24.8649 19.4197 24.7661 19.4656 24.7661 19.4656Z" fill="#82AFFF"/>
<path d="M24.8112 19.5081C24.8112 19.5081 24.7365 19.4952 24.6716 19.5428C24.6716 19.5428 24.6488 19.4606 24.7657 19.4407C24.8826 19.4209 24.8112 19.5081 24.8112 19.5081Z" fill="#82AFFF"/>
<path d="M26.1045 19.7266C26.1045 19.7266 26.035 19.7298 25.9882 19.7899C25.9882 19.7899 25.949 19.7147 26.0485 19.6708C26.148 19.6267 26.1045 19.7266 26.1045 19.7266Z" fill="#82AFFF"/>
<path d="M26.0027 19.637C26.0027 19.637 25.9399 19.607 25.8703 19.6379C25.8703 19.6379 25.8712 19.5531 25.9796 19.5612C26.0882 19.5694 26.0027 19.637 26.0027 19.637Z" fill="#82AFFF"/>
<path d="M26.054 19.6755C26.054 19.6755 25.9784 19.6803 25.9262 19.7415C25.9262 19.7415 25.885 19.6668 25.9942 19.6205C26.1034 19.5742 26.054 19.6755 26.054 19.6755Z" fill="#82AFFF"/>
<path d="M26.8983 19.7694C26.8983 19.7694 26.8723 19.7694 26.8257 19.8133C26.8257 19.8133 26.7923 19.7387 26.8905 19.7022C26.9887 19.6655 26.8983 19.7694 26.8983 19.7694Z" fill="#82AFFF"/>
<path d="M26.8488 19.6671C26.8488 19.6671 26.7902 19.6347 26.7215 19.6601C26.7215 19.6601 26.7273 19.5787 26.8311 19.5928C26.935 19.6069 26.8488 19.6671 26.8488 19.6671Z" fill="#82AFFF"/>
<path d="M26.8956 19.7071C26.8956 19.7071 26.8226 19.7073 26.7688 19.7632C26.7688 19.7632 26.7335 19.689 26.8413 19.6507C26.949 19.6124 26.8956 19.7071 26.8956 19.7071Z" fill="#82AFFF"/>
<path d="M24.7342 19.0538C24.7342 19.0538 24.6714 19.0121 24.5918 19.0342C24.5918 19.0342 24.6061 18.9436 24.7213 18.9692C24.8365 18.9946 24.7342 19.0538 24.7342 19.0538Z" fill="#82AFFF"/>
<path d="M24.7289 18.8974C24.7289 18.8974 24.6883 18.8336 24.6018 18.8279C24.6018 18.8279 24.6579 18.7421 24.7561 18.8079C24.8545 18.8738 24.7289 18.8974 24.7289 18.8974Z" fill="#82AFFF"/>
<path d="M24.7293 18.9805C24.7293 18.9805 24.663 18.9316 24.5756 18.9496C24.5756 18.9496 24.5953 18.854 24.7193 18.8894C24.8433 18.9246 24.7293 18.9805 24.7293 18.9805Z" fill="#82AFFF"/>
<path d="M26.6993 19.2665C26.8092 19.2695 26.94 19.2259 26.9608 19.112C26.9847 18.981 26.8726 18.9149 26.7221 18.9208C26.6122 18.9251 26.334 18.9883 26.1347 18.9812C25.9377 18.9743 25.9323 18.7793 26.2308 18.8C26.6736 18.8307 26.744 18.7732 26.744 18.7732C26.5063 18.8179 26.4111 18.7346 26.1586 18.7346C25.906 18.7346 25.8575 18.9095 25.9594 19.0051C26.0737 19.1121 26.4884 19.0407 26.5983 19.0199C26.7083 18.9991 26.8477 18.998 26.8589 19.0754C26.8688 19.1447 26.6845 19.141 26.554 19.1359C26.3463 19.1279 26.0441 19.1843 25.7751 19.1982C25.551 19.2098 25.5198 19.1466 25.4688 19.0819C25.4807 19.0603 25.4876 19.0364 25.4876 19.011C25.4876 18.9982 25.4855 18.9858 25.4823 18.9738C25.4992 18.9552 25.517 18.9256 25.5252 18.8772C25.5252 18.8772 25.4678 18.8672 25.4245 18.889C25.3898 18.8616 25.3439 18.8444 25.2929 18.8444C25.242 18.8444 25.1961 18.8615 25.1614 18.889C25.118 18.8671 25.0607 18.8772 25.0607 18.8772C25.0689 18.9255 25.0867 18.9552 25.1036 18.9738C25.1004 18.9857 25.0983 18.9981 25.0983 19.011C25.0983 19.0577 25.1209 19.0998 25.1569 19.1301C25.1744 19.1446 25.1873 19.1639 25.1917 19.1862L25.1979 19.2179C25.2007 19.2317 25.2096 19.2426 25.2212 19.2492C25.0365 19.2302 24.9491 19.114 24.9043 19.0496C24.8536 18.9768 24.822 18.8159 24.7448 18.7979L24.6992 19.0406C24.6992 19.0406 24.7969 19.2665 24.9785 19.3586C25.1836 19.4626 25.2221 19.4656 25.2895 19.4953C25.2975 19.5309 25.1627 19.5527 25.026 19.5251C24.9305 19.5056 24.802 19.3671 24.7288 19.377L24.8141 19.5667C25.046 19.7133 25.2485 19.7164 25.4223 19.6855C25.5452 19.6638 25.5919 19.5638 25.5999 19.521C25.65 19.5117 25.7047 19.5013 25.8739 19.4597C25.9448 19.4422 26.0263 19.433 26.1077 19.4293C26.1306 19.4815 26.183 19.5484 26.3631 19.5547C26.3631 19.5547 26.4067 19.624 26.2582 19.6101C26.1095 19.5963 26.0714 19.55 25.9842 19.5598L26.0621 19.7449C26.0621 19.7449 26.2523 19.6795 26.486 19.7033C26.486 19.7033 26.5296 19.7151 26.5553 19.6775C26.5811 19.6399 26.5692 19.6181 26.5454 19.5845C26.532 19.5655 26.5243 19.504 26.5201 19.4538C26.6057 19.4754 26.8684 19.422 26.9634 19.43C27.0585 19.438 27.0724 19.5488 27.0506 19.5864C27.0289 19.624 26.8298 19.5919 26.8298 19.5919L26.8965 19.7746C26.8965 19.7746 26.9166 19.7649 26.9673 19.7172C27.0087 19.6784 27.1774 19.6914 27.1774 19.6617V19.3231C27.1774 19.3071 27.1635 19.2946 27.1474 19.296C26.7755 19.3287 26.6993 19.2665 26.6993 19.2665Z" fill="#FFE15A"/>
<path d="M25.2146 19.1463C25.2202 19.1573 25.2243 19.1692 25.2265 19.1817L25.2321 19.2133C25.2341 19.2244 25.2429 19.2324 25.2529 19.2324H25.3392C25.3494 19.2324 25.3581 19.2243 25.36 19.2133L25.3656 19.1817C25.3679 19.1692 25.372 19.1572 25.3775 19.1463H25.2146Z" fill="#FF4B55"/>
<path d="M25.2965 19.2089C25.2766 19.2089 25.2611 19.2112 25.2631 19.239L25.2712 19.3574C25.2726 19.3755 25.2835 19.3893 25.2965 19.3893C25.3096 19.3893 25.3204 19.3756 25.3218 19.3574L25.3299 19.239C25.332 19.2112 25.3164 19.2089 25.2965 19.2089Z" fill="#82AFFF"/>
</g>
<defs>
<clipPath id="clip0_9_2996">
<rect width="50" height="50" fill="white" transform="translate(0.898438 0.160156)"/>
</clipPath>
</defs>
</svg>
