<svg width="51" height="51" viewBox="0 0 51 51" fill="none" xmlns="http://www.w3.org/2000/svg">
    <g clip-path="url(#clip0_9_2990)">
        <path
            d="M50.1921 19.7004H0.1922V9.64287C0.1922 9.1668 0.578234 8.78076 1.05431 8.78076H49.3301C49.8062 8.78076 50.1922 9.1668 50.1922 9.64287L50.1921 19.7004Z"
            fill="#464655" />
        <path
            d="M49.33 41.5394H1.05431C0.578234 41.5394 0.1922 41.1533 0.1922 40.6773V30.6199H50.1921V40.6773C50.1921 41.1534 49.8061 41.5394 49.33 41.5394Z"
            fill="#73AF00" />
        <path d="M50.1921 19.7002H0.1922V30.6191H50.1921V19.7002Z" fill="#F5F5F5" />
        <path
            d="M0.510168 41.331L29.7203 25.5091C29.9974 25.359 29.9974 24.9612 29.7203 24.8111L0.510168 8.98926C0.320227 9.14736 0.1922 9.37646 0.1922 9.64287V40.6773C0.1922 40.9438 0.320227 41.1729 0.510168 41.331Z"
            fill="#FF4B55" />
        <path
            d="M9.5086 22.9301L10.021 24.0415L11.2094 23.7491C11.2836 23.7309 11.345 23.8079 11.3107 23.8762L10.7613 24.9698L11.7309 25.7167C11.7914 25.7634 11.7694 25.8594 11.6946 25.8752L10.4971 26.1274L10.5177 27.3511C10.5189 27.4275 10.4301 27.4703 10.3712 27.4217L9.42735 26.6427L8.4835 27.4217C8.42452 27.4704 8.33575 27.4276 8.33702 27.3511L8.35762 26.1274L7.16007 25.8752C7.08526 25.8594 7.06339 25.7634 7.12384 25.7167L8.09337 24.9698L7.54395 23.8762C7.50968 23.8079 7.5711 23.7308 7.64532 23.7491L8.8337 24.0415L9.3461 22.9301C9.37794 22.8607 9.47657 22.8607 9.5086 22.9301Z"
            fill="#F5F5F5" />
    </g>
    <defs>
        <clipPath id="clip0_9_2990">
            <rect width="50" height="50" fill="white" transform="translate(0.191406 0.160156)" />
        </clipPath>
    </defs>
</svg>
