<svg width="51" height="51" viewBox="0 0 51 51" fill="none" xmlns="http://www.w3.org/2000/svg">
    <g clip-path="url(#clip0_9_2952)">
        <path
            d="M49.7422 9.0741H1.46654C0.990466 9.0741 0.604431 9.46003 0.604431 9.93611V40.9705C0.604431 41.4466 0.990466 41.8326 1.46654 41.8326H49.7423C50.2184 41.8326 50.6044 41.4466 50.6044 40.9705V9.93611C50.6043 9.46003 50.2183 9.0741 49.7422 9.0741Z"
            fill="#82C3D2" />
        <path
            d="M6.41645 12.9971C6.33842 12.6667 6.31899 12.5449 6.46723 12.3968C6.5395 12.3245 6.5395 12.2074 6.46723 12.1352C6.39497 12.0629 6.27788 12.0629 6.20561 12.1352C5.90561 12.4353 5.9772 12.7467 6.05483 13.0765C5.81831 12.9992 5.573 13.0565 5.44155 13.2224C5.37632 13.3051 5.25015 13.5371 5.48657 13.9076C5.54155 13.9936 5.65522 14.0189 5.74204 13.9645C5.82827 13.9095 5.85337 13.7949 5.79839 13.709C5.70972 13.5694 5.70708 13.4834 5.73188 13.452C5.76118 13.4147 5.852 13.3951 5.94712 13.4288C6.00854 13.4501 6.15132 13.5238 6.15132 13.7465C6.15132 13.9243 6.06909 14.0873 5.92573 14.1932C5.78208 14.2994 5.59614 14.3294 5.41694 14.2737C5.19565 14.2061 5.04106 13.973 5.04106 13.7067C5.04106 13.5162 5.08188 13.3236 5.15688 13.1549C5.1688 13.13 5.45161 12.5441 5.52446 12.3258C5.6685 11.8938 5.52212 11.6767 5.42222 11.5859C5.28852 11.4642 5.09311 11.4338 4.92495 11.5075C4.89937 11.5188 4.87827 11.5353 4.8561 11.5505C4.83394 11.5352 4.81274 11.5188 4.78726 11.5075C4.61919 11.4338 4.42388 11.4642 4.28999 11.5859C4.19009 11.6767 4.0437 11.8939 4.18775 12.3258C4.2606 12.5441 4.54331 13.13 4.55269 13.1495C4.63013 13.3237 4.67105 13.5163 4.67105 13.7068C4.67105 13.9732 4.51655 14.2062 4.29517 14.2738C4.11528 14.3294 3.92993 14.2998 3.78638 14.1933C3.64302 14.0873 3.56079 13.9244 3.56079 13.7466C3.56079 13.5239 3.70357 13.4503 3.76499 13.4289C3.8604 13.3953 3.95073 13.4147 3.98023 13.452C4.00503 13.4835 4.00239 13.5695 3.91372 13.7091C3.85874 13.7951 3.88384 13.9097 3.97007 13.9645C4.05698 14.0195 4.17105 13.9938 4.22554 13.9077C4.46187 13.5372 4.33579 13.3053 4.27056 13.2225C4.13901 13.0566 3.8938 12.9993 3.65728 13.0766C3.73501 12.747 3.8065 12.4354 3.5065 12.1353C3.43423 12.063 3.31714 12.063 3.24488 12.1353C3.17261 12.2075 3.17261 12.3246 3.24488 12.3969C3.39302 12.545 3.37378 12.6668 3.29566 12.9972C3.24878 13.1951 3.19058 13.442 3.19058 13.7463C3.19058 13.9487 3.26177 14.1424 3.3815 14.3015H3.37554C3.27329 14.3015 3.19048 14.3842 3.19048 14.4865C3.19048 14.5888 3.2732 14.6716 3.37554 14.6716H3.3815C3.26177 14.8307 3.19058 15.0242 3.19058 15.2267C3.19058 15.531 3.24878 15.7778 3.29556 15.9759C3.37359 16.3062 3.39302 16.428 3.24478 16.5762C3.17251 16.6484 3.17251 16.7655 3.24478 16.8378C3.28091 16.8739 3.32827 16.892 3.37564 16.892C3.4229 16.892 3.47036 16.8739 3.5065 16.8378C3.8065 16.5377 3.73491 16.2262 3.65728 15.8965C3.8938 15.9734 4.13911 15.9164 4.27056 15.7506C4.33579 15.6679 4.46196 15.4358 4.22554 15.0653C4.17075 14.9793 4.0564 14.9537 3.97007 15.0085C3.88384 15.0635 3.85874 15.178 3.91372 15.264C4.00239 15.4035 4.00503 15.4895 3.98023 15.521C3.95083 15.5578 3.8604 15.5773 3.76499 15.5441C3.70357 15.5228 3.56079 15.4491 3.56079 15.2265C3.56079 15.0486 3.64302 14.8856 3.78638 14.7798C3.93003 14.6735 4.11577 14.6432 4.29517 14.6992C4.51646 14.7668 4.67105 14.9999 4.67105 15.2662C4.67105 15.4567 4.63022 15.6493 4.55269 15.8235L3.34068 18.5502C3.24107 18.7742 3.19048 19.0125 3.19048 19.2578C3.19048 19.5735 3.33404 19.8618 3.56001 20.0378C3.33413 20.2138 3.19048 20.502 3.19048 20.8178C3.19048 21.0632 3.24117 21.3014 3.34068 21.5254L4.55249 24.2518C4.62993 24.4261 4.67085 24.6186 4.67085 24.8092C4.67085 25.0756 4.51636 25.3086 4.29497 25.3761C4.11509 25.4322 3.92974 25.4021 3.78618 25.2956C3.64282 25.1896 3.5606 25.0267 3.5606 24.8489C3.5606 24.6262 3.70337 24.5526 3.7648 24.5312C3.86021 24.4979 3.95054 24.5171 3.98003 24.5544C4.00484 24.5858 4.0022 24.6719 3.91353 24.8114C3.85855 24.8974 3.88364 25.012 3.96987 25.0669C4.05679 25.1219 4.17085 25.0965 4.22534 25.01C4.46167 24.6395 4.3356 24.4076 4.27036 24.3248C4.13882 24.159 3.89361 24.1018 3.65708 24.1789C3.73482 23.8493 3.8063 23.5377 3.5063 23.2376C3.43404 23.1653 3.31695 23.1653 3.24468 23.2376C3.17242 23.3098 3.17242 23.4269 3.24468 23.4992C3.39282 23.6473 3.37359 23.7691 3.29546 24.0995C3.24868 24.2975 3.19048 24.5444 3.19048 24.8487C3.19048 25.0511 3.26167 25.2448 3.3814 25.4039H3.37544C3.2732 25.4039 3.19038 25.4866 3.19038 25.5889C3.19038 25.6913 3.2731 25.774 3.37544 25.774H3.3814C3.26158 25.9331 3.19048 26.1266 3.19048 26.3292C3.19048 26.6335 3.24868 26.8803 3.29546 27.0784C3.37349 27.4088 3.39292 27.5305 3.24468 27.6787C3.17242 27.7509 3.17242 27.868 3.24468 27.9403C3.28081 27.9764 3.32818 27.9945 3.37554 27.9945C3.42281 27.9945 3.47027 27.9764 3.5064 27.9403C3.8064 27.6402 3.73482 27.3287 3.65718 26.999C3.8937 27.0759 4.13901 27.0189 4.27046 26.8531C4.33569 26.7704 4.46187 26.5384 4.22544 26.1678C4.17066 26.0818 4.0563 26.0562 3.96997 26.111C3.88374 26.166 3.85864 26.2805 3.91362 26.3665C4.0023 26.506 4.00493 26.5921 3.98013 26.6235C3.95073 26.6607 3.8603 26.6803 3.76489 26.6467C3.70347 26.6254 3.5607 26.5516 3.5607 26.329C3.5607 26.1511 3.64292 25.9882 3.78628 25.8823C3.92993 25.776 4.11568 25.7457 4.29507 25.8017C4.51636 25.8693 4.67095 26.1024 4.67095 26.3687C4.67095 26.5592 4.63013 26.7518 4.55259 26.926L3.34068 29.653C3.24107 29.877 3.19048 30.1153 3.19048 30.3606C3.19048 30.6763 3.33404 30.9646 3.56001 31.1406C3.33413 31.3166 3.19048 31.6048 3.19048 31.9206C3.19048 32.166 3.24117 32.4042 3.34068 32.6282L4.55249 35.3546C4.62993 35.5289 4.67085 35.7214 4.67085 35.912C4.67085 36.1784 4.51636 36.4114 4.29497 36.479C4.11509 36.535 3.92974 36.5046 3.78618 36.3984C3.64282 36.2924 3.5606 36.1295 3.5606 35.9517C3.5606 35.7291 3.70337 35.6554 3.7648 35.634C3.86021 35.6007 3.95054 35.6199 3.98003 35.6572C4.00484 35.6886 4.0022 35.7747 3.91353 35.9142C3.85855 36.0002 3.88364 36.1147 3.96987 36.1697C4.05679 36.2247 4.17085 36.1993 4.22534 36.1128C4.46167 35.7423 4.3356 35.5104 4.27036 35.4276C4.13882 35.2613 3.89361 35.2045 3.65708 35.2817C3.73482 34.9521 3.8063 34.6405 3.5063 34.3404C3.43404 34.2681 3.31695 34.2681 3.24468 34.3404C3.17242 34.4127 3.17242 34.5297 3.24468 34.602C3.39282 34.7502 3.37359 34.8719 3.29546 35.2023C3.24868 35.4003 3.19048 35.6471 3.19048 35.9514C3.19048 36.2415 3.32945 36.5176 3.56177 36.6917C3.32945 36.8657 3.19048 37.1418 3.19048 37.4319C3.19048 37.7362 3.24868 37.9831 3.29546 38.1811C3.37349 38.5114 3.39292 38.6333 3.24468 38.7814C3.17242 38.8537 3.17242 38.9708 3.24468 39.043C3.28081 39.0791 3.32818 39.0972 3.37554 39.0972C3.42281 39.0972 3.47027 39.0791 3.5064 39.043C3.8064 38.7429 3.73482 38.4314 3.65718 38.1017C3.8937 38.1787 4.13901 38.1216 4.27046 37.9558C4.33569 37.8731 4.46187 37.6411 4.22544 37.2706C4.17066 37.1845 4.0563 37.1592 3.96997 37.2137C3.88374 37.2687 3.85864 37.3833 3.91362 37.4692C4.0023 37.6087 4.00493 37.6948 3.98013 37.7262C3.95073 37.7634 3.8603 37.7826 3.76489 37.7494C3.70347 37.7281 3.5607 37.6543 3.5607 37.4317C3.5607 37.2539 3.64292 37.0909 3.78628 36.985C3.92993 36.8788 4.11568 36.8488 4.29507 36.9044C4.51636 36.972 4.67095 37.2051 4.67095 37.4714C4.67095 37.662 4.63013 37.8545 4.55513 38.0233C4.54321 38.0482 4.2604 38.634 4.18755 38.8524C4.04351 39.2843 4.18989 39.5015 4.2898 39.5922C4.37524 39.67 4.4853 39.7108 4.5978 39.7108C4.66157 39.7108 4.72622 39.6974 4.78716 39.6707C4.81274 39.6594 4.83384 39.643 4.85601 39.6278C4.87817 39.6431 4.89937 39.6594 4.92485 39.6707C4.98569 39.6975 5.05044 39.7108 5.11421 39.7108C5.22642 39.7108 5.33667 39.67 5.42222 39.5922C5.52212 39.5015 5.6685 39.2842 5.52446 38.8524C5.45161 38.634 5.1689 38.0482 5.15952 38.0287C5.08208 37.8544 5.04116 37.6619 5.04116 37.4713C5.04116 37.2049 5.19565 36.9718 5.41704 36.9043C5.59702 36.8487 5.78227 36.8787 5.92583 36.9849C6.06919 37.0909 6.15141 37.2538 6.15141 37.4316C6.15141 37.6543 6.00864 37.7279 5.94721 37.7493C5.8522 37.7826 5.76118 37.7634 5.73198 37.7261C5.70718 37.6947 5.70981 37.6086 5.79848 37.4691C5.85346 37.3831 5.82837 37.2686 5.74214 37.2136C5.65571 37.1594 5.54175 37.1847 5.48667 37.2705C5.25034 37.641 5.37642 37.8729 5.44165 37.9557C5.57319 38.1215 5.81841 38.1787 6.05493 38.1016C5.9772 38.4312 5.90571 38.7428 6.20571 39.0429C6.24184 39.0791 6.28921 39.0971 6.33657 39.0971C6.38393 39.0971 6.4313 39.0791 6.46743 39.0429C6.53969 38.9707 6.53969 38.8536 6.46743 38.7813C6.31928 38.6332 6.33852 38.5114 6.41665 38.181C6.46343 37.983 6.52163 37.7361 6.52163 37.4318C6.52163 37.1418 6.38266 36.8656 6.15034 36.6916C6.38266 36.5175 6.52163 36.2415 6.52163 35.9513C6.52163 35.647 6.46343 35.4002 6.41665 35.2021C6.33862 34.8718 6.31919 34.75 6.46743 34.6018C6.53969 34.5295 6.53969 34.4125 6.46743 34.3402C6.39516 34.2679 6.27807 34.2679 6.20581 34.3402C5.90581 34.6403 5.97739 34.9517 6.05503 35.2815C5.8185 35.2043 5.57319 35.2611 5.44175 35.4274C5.37651 35.5101 5.25034 35.7421 5.48677 36.1127C5.54175 36.1987 5.65542 36.224 5.74223 36.1695C5.82846 36.1145 5.85356 36 5.79858 35.914C5.70991 35.7745 5.70727 35.6884 5.73208 35.657C5.76138 35.6198 5.8522 35.6006 5.94731 35.6338C6.00874 35.6551 6.15151 35.7289 6.15151 35.9515C6.15151 36.1294 6.06928 36.2923 5.92593 36.3982C5.78227 36.5044 5.59634 36.5348 5.41714 36.4788C5.19585 36.4112 5.04126 36.1781 5.04126 35.9118C5.04126 35.7212 5.08208 35.5287 5.15962 35.3544L6.37143 32.628C6.47104 32.404 6.52163 32.1657 6.52163 31.9204C6.52163 31.6047 6.37807 31.3164 6.1521 31.1404C6.37798 30.9644 6.52163 30.6761 6.52163 30.3604C6.52163 30.115 6.47094 29.8768 6.37143 29.6528L5.15972 26.9265C5.08227 26.7523 5.04136 26.5597 5.04136 26.3692C5.04136 26.1028 5.19585 25.8698 5.41724 25.8022C5.59722 25.7466 5.78247 25.7765 5.92602 25.8828C6.06938 25.9887 6.15161 26.1516 6.15161 26.3295C6.15161 26.5521 6.00884 26.6258 5.94741 26.6471C5.85239 26.6807 5.76138 26.6613 5.73218 26.624C5.70737 26.5926 5.71001 26.5065 5.79868 26.367C5.85366 26.2809 5.82856 26.1665 5.74233 26.1115C5.65591 26.0573 5.54194 26.0826 5.48686 26.1683C5.25054 26.5388 5.37661 26.7708 5.44184 26.8536C5.57339 27.0194 5.8186 27.0765 6.05512 26.9995C5.97739 27.3291 5.90591 27.6407 6.20591 27.9408C6.24204 27.9769 6.2894 27.995 6.33677 27.995C6.38413 27.995 6.43149 27.9769 6.46762 27.9408C6.53989 27.8685 6.53989 27.7514 6.46762 27.6792C6.31948 27.531 6.33872 27.4092 6.41684 27.0789C6.46362 26.8808 6.52182 26.634 6.52182 26.3297C6.52182 26.1272 6.45063 25.9336 6.33091 25.7745H6.33686C6.43911 25.7745 6.52192 25.6918 6.52192 25.5894C6.52192 25.4872 6.43921 25.4044 6.33686 25.4044H6.33091C6.45073 25.2453 6.52182 25.0518 6.52182 24.8492C6.52182 24.5449 6.46362 24.298 6.41684 24.1C6.33882 23.7696 6.31938 23.6478 6.46762 23.4997C6.53989 23.4274 6.53989 23.3103 6.46762 23.2381C6.39536 23.1658 6.27827 23.1658 6.206 23.2381C5.906 23.5382 5.97759 23.8497 6.05522 24.1794C5.8187 24.1024 5.57339 24.1595 5.44194 24.3253C5.37671 24.408 5.25054 24.64 5.48696 25.0105C5.54194 25.0966 5.65561 25.1216 5.74243 25.0674C5.82866 25.0124 5.85376 24.8978 5.79878 24.8119C5.71011 24.6723 5.70747 24.5863 5.73227 24.5549C5.76157 24.5177 5.85239 24.4985 5.94751 24.5317C6.00893 24.553 6.15171 24.6267 6.15171 24.8494C6.15171 25.0272 6.06948 25.1902 5.92612 25.2961C5.78247 25.4023 5.59653 25.4323 5.41733 25.3766C5.19604 25.3091 5.04145 25.076 5.04145 24.8096C5.04145 24.6191 5.08227 24.4265 5.15981 24.2523L6.37163 21.5259C6.47124 21.3018 6.52182 21.0636 6.52182 20.8182C6.52182 20.5025 6.37827 20.2142 6.15229 20.0383C6.37817 19.8623 6.52182 19.574 6.52182 19.2583C6.52182 19.0129 6.47114 18.7747 6.37163 18.5507L5.15981 15.8242C5.08237 15.65 5.04145 15.4574 5.04145 15.2669C5.04145 15.0005 5.19595 14.7675 5.41733 14.6999C5.59731 14.6442 5.78257 14.6742 5.92612 14.7805C6.06948 14.8864 6.15171 15.0493 6.15171 15.2271C6.15171 15.4498 6.00893 15.5234 5.94751 15.5448C5.85249 15.5781 5.76147 15.5585 5.73227 15.5217C5.70747 15.4902 5.71011 15.4042 5.79878 15.2646C5.85376 15.1786 5.82866 15.0641 5.74243 15.0092C5.656 14.955 5.54204 14.9799 5.48696 15.0659C5.25063 15.4364 5.37671 15.6684 5.44194 15.7512C5.57348 15.917 5.8187 15.9741 6.05522 15.8971C5.97749 16.2267 5.906 16.5383 6.206 16.8384C6.24214 16.8745 6.2895 16.8926 6.33686 16.8926C6.38423 16.8926 6.43159 16.8745 6.46772 16.8384C6.53999 16.7661 6.53999 16.649 6.46772 16.5767C6.31958 16.4286 6.33882 16.3068 6.41694 15.9765C6.46372 15.7784 6.52192 15.5315 6.52192 15.2272C6.52192 15.0248 6.45073 14.8311 6.331 14.6721H6.33696C6.43921 14.6721 6.52202 14.5894 6.52202 14.487C6.52202 14.3848 6.4393 14.302 6.33696 14.302H6.331C6.45083 14.1429 6.52192 13.9494 6.52192 13.7468C6.52133 13.442 6.46313 13.1951 6.41645 12.9971ZM4.53853 12.2085C4.4728 12.0112 4.49575 11.8988 4.53911 11.8594C4.56743 11.8326 4.6104 11.8337 4.63765 11.846C4.67105 11.8608 4.67105 11.8844 4.67105 11.8959C4.67105 11.9981 4.75376 12.081 4.8561 12.081C4.95835 12.081 5.04116 11.9982 5.04116 11.8959C5.04116 11.8844 5.04116 11.8608 5.07456 11.846C5.10132 11.8337 5.14399 11.8326 5.1731 11.8594C5.21645 11.8988 5.2394 12.0112 5.17368 12.2085C5.12583 12.3516 4.95269 12.724 4.8562 12.9262C4.76167 12.7287 4.58667 12.3525 4.53853 12.2085ZM4.85601 19.8437C4.90913 19.9159 4.96919 19.9831 5.04224 20.0378C4.96919 20.0926 4.90913 20.1597 4.85601 20.2318C4.80288 20.1597 4.74282 20.0925 4.66978 20.0378C4.74282 19.983 4.80288 19.916 4.85601 19.8437ZM4.85601 30.9464C4.90913 31.0186 4.96919 31.0858 5.04224 31.1405C4.96919 31.1953 4.90913 31.2624 4.85601 31.3345C4.80288 31.2624 4.74282 31.1952 4.66978 31.1405C4.74282 31.0857 4.80288 31.0188 4.85601 30.9464ZM5.17339 38.9699C5.23911 39.1671 5.21616 39.2795 5.1728 39.319C5.1437 39.3454 5.10102 39.3443 5.07427 39.3324C5.04087 39.3175 5.04087 39.2941 5.04087 39.2825C5.04087 39.1802 4.95815 39.0974 4.85581 39.0974C4.75347 39.0974 4.67075 39.1801 4.67075 39.2825C4.67075 39.294 4.67075 39.3175 4.63735 39.3324C4.61021 39.3443 4.56724 39.3455 4.53882 39.319C4.49546 39.2795 4.47251 39.1671 4.53823 38.9699C4.58608 38.8268 4.75923 38.4543 4.85571 38.2522C4.95024 38.4496 5.12524 38.8258 5.17339 38.9699ZM5.04048 36.6918C4.97046 36.7463 4.90835 36.8116 4.85601 36.8853C4.80376 36.8116 4.74155 36.7464 4.67153 36.6918C4.74155 36.6374 4.80366 36.5721 4.85601 36.4984C4.90825 36.5721 4.97036 36.6374 5.04048 36.6918ZM6.03286 32.4777L4.85591 35.1257L3.67896 32.4777C3.60152 32.3035 3.5606 32.1109 3.5606 31.9204C3.5606 31.654 3.71509 31.4209 3.93648 31.3534C4.11636 31.2977 4.30191 31.3277 4.44526 31.4339C4.58862 31.5399 4.67085 31.7028 4.67085 31.8806C4.67085 32.1033 4.52808 32.1769 4.46665 32.1983C4.37124 32.2316 4.28052 32.2125 4.25142 32.1752C4.22661 32.1437 4.22925 32.0577 4.31792 31.9181C4.3729 31.8321 4.3478 31.7175 4.26157 31.6627C4.17515 31.6085 4.06118 31.6338 4.0061 31.7195C3.76978 32.09 3.89585 32.3219 3.96109 32.4047C4.09507 32.5739 4.34712 32.6321 4.58814 32.5478C4.61558 32.5383 4.64341 32.5265 4.67085 32.5126V32.9805C4.67085 32.9804 4.67056 32.9802 4.67056 32.9802C4.66499 32.8828 4.58433 32.8059 4.48589 32.8059C4.38364 32.8059 4.30083 32.8886 4.30083 32.991C4.30083 33.1117 4.38521 33.3211 4.67085 33.3859V33.7311C4.67085 33.8334 4.75356 33.9162 4.85591 33.9162C4.95825 33.9162 5.04097 33.8335 5.04097 33.7311V33.3859C5.32661 33.3211 5.41099 33.1117 5.41099 32.991C5.41099 32.8887 5.32847 32.7999 5.22632 32.7999C5.12407 32.7999 5.04165 32.8765 5.04165 32.9788C5.04155 32.9791 5.04097 32.9796 5.04087 32.9798V32.5128C5.06831 32.5267 5.09614 32.5385 5.12358 32.548C5.3646 32.6322 5.61655 32.574 5.75063 32.4049C5.81587 32.3222 5.94204 32.0902 5.70561 31.7197C5.65063 31.6337 5.53647 31.6084 5.45015 31.6629C5.36391 31.7178 5.33882 31.8324 5.3938 31.9183C5.48247 32.0579 5.48511 32.1439 5.4603 32.1754C5.431 32.2126 5.34028 32.2317 5.24507 32.1985C5.18364 32.1772 5.04087 32.1035 5.04087 31.8808C5.04087 31.703 5.1231 31.54 5.26645 31.4341C5.41011 31.3279 5.59604 31.2975 5.77524 31.3536C5.99653 31.4212 6.15112 31.6543 6.15112 31.9206C6.15132 32.1109 6.1105 32.3036 6.03286 32.4777ZM6.03286 29.8033C6.1103 29.9775 6.15122 30.1701 6.15122 30.3606C6.15122 30.627 5.99673 30.86 5.77534 30.9276C5.59575 30.9837 5.40991 30.9533 5.26655 30.847C5.12319 30.7411 5.04097 30.5782 5.04097 30.4004C5.04097 30.1777 5.18374 30.1041 5.24517 30.0827C5.34038 30.0494 5.4312 30.0685 5.4604 30.1058C5.4852 30.1373 5.48257 30.2233 5.3939 30.3629C5.33891 30.4489 5.36401 30.5633 5.45024 30.6183C5.53716 30.6733 5.65122 30.6479 5.70571 30.5615C5.94204 30.191 5.81597 29.9591 5.75073 29.8762C5.61665 29.7071 5.3647 29.6496 5.12368 29.7332C5.09624 29.7426 5.06841 29.7546 5.04097 29.7684V29.3004L5.04126 29.3009C5.04683 29.3981 5.12749 29.4752 5.22593 29.4752C5.32817 29.4752 5.41099 29.3924 5.41099 29.2901C5.41099 29.1694 5.32661 28.96 5.04097 28.8952V28.55C5.04097 28.4477 4.95825 28.3649 4.85591 28.3649C4.75356 28.3649 4.67085 28.4476 4.67085 28.55V28.8952C4.38521 28.96 4.30083 29.1694 4.30083 29.2901C4.30083 29.3924 4.38335 29.4812 4.4855 29.4812C4.58774 29.4812 4.67017 29.4046 4.67017 29.3023C4.67026 29.302 4.67085 29.3015 4.67085 29.3015L4.67095 29.7683C4.64351 29.7544 4.61567 29.7425 4.58823 29.7331C4.34722 29.6496 4.09517 29.7071 3.96118 29.8761C3.89595 29.9589 3.76978 30.1909 4.0062 30.5614C4.06118 30.6474 4.17534 30.6724 4.26167 30.6182C4.3479 30.5632 4.373 30.4487 4.31802 30.3628C4.22935 30.2232 4.22671 30.1372 4.25151 30.1057C4.28062 30.0685 4.37134 30.0494 4.46675 30.0826C4.52817 30.1039 4.67095 30.1776 4.67095 30.4003C4.67095 30.5781 4.58872 30.7411 4.44536 30.8469C4.30171 30.9532 4.11616 30.9836 3.93657 30.9275C3.71529 30.8599 3.5607 30.6268 3.5607 30.3605C3.5607 30.17 3.60152 29.9774 3.67905 29.8032L4.85601 27.1551L6.03286 29.8033ZM5.04048 25.5892C4.97046 25.6437 4.90835 25.709 4.85601 25.7827C4.80376 25.709 4.74155 25.6438 4.67153 25.5892C4.74155 25.5347 4.80366 25.4695 4.85601 25.3958C4.90825 25.4694 4.97036 25.5346 5.04048 25.5892ZM6.03286 21.3751L4.85591 24.0231L3.67896 21.3751C3.60152 21.2009 3.5606 21.0083 3.5606 20.8178C3.5606 20.5514 3.71509 20.3183 3.93648 20.2508C4.11636 20.1951 4.30191 20.2251 4.44526 20.3313C4.58862 20.4373 4.67085 20.6002 4.67085 20.778C4.67085 21.0007 4.52808 21.0743 4.46665 21.0957C4.37124 21.1293 4.28052 21.1098 4.25142 21.0725C4.22661 21.0411 4.22925 20.9551 4.31792 20.8155C4.3729 20.7295 4.3478 20.6149 4.26157 20.56C4.17515 20.5056 4.06118 20.5307 4.0061 20.6169C3.76978 20.9874 3.89585 21.2193 3.96109 21.3021C4.09507 21.4713 4.34712 21.5291 4.58814 21.4452C4.61558 21.4357 4.64341 21.4239 4.67085 21.4099V21.8779L4.67056 21.8773C4.66499 21.7802 4.58433 21.7031 4.48589 21.7031C4.38364 21.7031 4.30083 21.7858 4.30083 21.8882C4.30083 22.0089 4.38521 22.2182 4.67085 22.2831V22.6283C4.67085 22.7305 4.75356 22.8134 4.85591 22.8134C4.95825 22.8134 5.04097 22.7306 5.04097 22.6283V22.2831C5.32661 22.2182 5.41099 22.0089 5.41099 21.8882C5.41099 21.7859 5.32847 21.697 5.22632 21.697C5.12407 21.697 5.04165 21.7736 5.04165 21.8759C5.04155 21.8762 5.04097 21.8766 5.04097 21.8766L5.04087 21.4098C5.06831 21.4238 5.09614 21.4356 5.12358 21.4451C5.3646 21.5289 5.61655 21.4711 5.75063 21.302C5.81587 21.2193 5.94204 20.9873 5.70561 20.6168C5.65063 20.5304 5.53647 20.5052 5.45015 20.5599C5.36391 20.6149 5.33882 20.7295 5.3938 20.8154C5.48247 20.955 5.48511 21.041 5.4603 21.0724C5.431 21.1097 5.34028 21.1293 5.24507 21.0956C5.18364 21.0743 5.04087 21.0006 5.04087 20.7779C5.04087 20.6001 5.1231 20.4371 5.26645 20.3312C5.41011 20.225 5.59604 20.195 5.77524 20.2507C5.99653 20.3182 6.15112 20.5514 6.15112 20.8177C6.15132 21.0083 6.1105 21.2009 6.03286 21.3751ZM6.03286 18.7006C6.1103 18.8748 6.15122 19.0674 6.15122 19.2579C6.15122 19.5243 5.99673 19.7573 5.77534 19.8249C5.59575 19.8809 5.40991 19.8506 5.26655 19.7443C5.12319 19.6384 5.04097 19.4755 5.04097 19.2976C5.04097 19.075 5.18374 19.0014 5.24517 18.98C5.34038 18.9467 5.4312 18.9658 5.4604 19.0031C5.4852 19.0346 5.48257 19.1206 5.3939 19.2601C5.33891 19.3462 5.36401 19.4606 5.45024 19.5156C5.53716 19.5701 5.65122 19.5452 5.70571 19.4588C5.94204 19.0883 5.81597 18.8563 5.75073 18.7735C5.61665 18.6044 5.3647 18.5466 5.12368 18.6305C5.09624 18.6399 5.06841 18.6517 5.04097 18.6657V18.1977C5.04097 18.1978 5.04126 18.198 5.04126 18.198C5.04683 18.2955 5.12749 18.3724 5.22593 18.3724C5.32817 18.3724 5.41099 18.2896 5.41099 18.1873C5.41099 18.0666 5.32661 17.8572 5.04097 17.7924V17.4472C5.04097 17.3449 4.95825 17.2621 4.85591 17.2621C4.75356 17.2621 4.67085 17.3448 4.67085 17.4472V17.7924C4.38521 17.8572 4.30083 18.0666 4.30083 18.1873C4.30083 18.2895 4.38335 18.3785 4.4855 18.3785C4.58774 18.3785 4.67017 18.3018 4.67017 18.1996C4.67026 18.1993 4.67085 18.1988 4.67095 18.1985V18.6656C4.64351 18.6516 4.61567 18.6398 4.58823 18.6304C4.34722 18.5466 4.09517 18.6044 3.96118 18.7734C3.89595 18.8561 3.76978 19.0882 4.0062 19.4587C4.06118 19.5447 4.17534 19.5697 4.26167 19.5155C4.3479 19.4605 4.373 19.346 4.31802 19.26C4.22935 19.1205 4.22671 19.0345 4.25151 19.003C4.28062 18.9658 4.37134 18.9467 4.46675 18.9799C4.52817 19.0012 4.67095 19.0749 4.67095 19.2975C4.67095 19.4754 4.58872 19.6384 4.44536 19.7442C4.30171 19.8505 4.11616 19.8808 3.93657 19.8248C3.71529 19.7572 3.5607 19.5241 3.5607 19.2578C3.5607 19.0673 3.60152 18.8747 3.67905 18.7005L4.85601 16.0524L6.03286 18.7006ZM4.67144 14.4865C4.74146 14.432 4.80356 14.3668 4.85591 14.2931C4.90815 14.3668 4.97036 14.4319 5.04038 14.4865C4.97036 14.541 4.90825 14.6062 4.85591 14.68C4.80366 14.6062 4.74155 14.541 4.67144 14.4865Z"
            fill="#FFE15A" />
        <path
            d="M27.0434 27.8592C29.5031 27.8592 31.4971 25.8652 31.4971 23.4055C31.4971 20.9458 29.5031 18.9518 27.0434 18.9518C24.5837 18.9518 22.5897 20.9458 22.5897 23.4055C22.5897 25.8652 24.5837 27.8592 27.0434 27.8592Z"
            fill="#FFE15A" />
        <path
            d="M27.378 17.727C27.378 17.9115 27.2284 18.0611 27.0439 18.0611C26.8594 18.0611 26.7098 17.9115 26.7098 17.727C26.7098 17.5425 27.0439 16.7249 27.0439 16.7249C27.0439 16.7249 27.378 17.5425 27.378 17.727Z"
            fill="#FFE15A" />
        <path
            d="M26.7098 29.0848C26.7098 28.9003 26.8594 28.7507 27.0439 28.7507C27.2284 28.7507 27.378 28.9003 27.378 29.0848C27.378 29.2693 27.0439 30.087 27.0439 30.087C27.0439 30.087 26.7098 29.2694 26.7098 29.0848Z"
            fill="#FFE15A" />
        <path
            d="M32.7228 23.7399C32.5383 23.7399 32.3887 23.5903 32.3887 23.4059C32.3887 23.2214 32.5383 23.0718 32.7228 23.0718C32.9072 23.0718 33.7249 23.4059 33.7249 23.4059C33.7249 23.4059 32.9072 23.7399 32.7228 23.7399Z"
            fill="#FFE15A" />
        <path
            d="M21.3651 23.0719C21.5496 23.0719 21.6992 23.2215 21.6992 23.406C21.6992 23.5905 21.5496 23.7401 21.3651 23.7401C21.1807 23.7401 20.363 23.406 20.363 23.406C20.363 23.406 21.1807 23.0719 21.3651 23.0719Z"
            fill="#FFE15A" />
        <path
            d="M31.2959 19.6266C31.1654 19.757 30.954 19.757 30.8234 19.6266C30.6928 19.4961 30.6929 19.2847 30.8234 19.1541C30.9539 19.0235 31.7682 18.6816 31.7682 18.6816C31.7682 18.6816 31.4264 19.4961 31.2959 19.6266Z"
            fill="#FFE15A" />
        <path
            d="M22.7922 27.1853C22.9227 27.0548 23.1341 27.0548 23.2647 27.1853C23.3952 27.3157 23.3951 27.5271 23.2647 27.6577C23.1342 27.7883 22.3198 28.1301 22.3198 28.1301C22.3198 28.1301 22.6617 27.3158 22.7922 27.1853Z"
            fill="#FFE15A" />
        <path
            d="M30.8234 27.6578C30.6929 27.5273 30.6929 27.3159 30.8234 27.1853C30.9538 27.0547 31.1653 27.0548 31.2958 27.1853C31.4264 27.3158 31.7683 28.1301 31.7683 28.1301C31.7683 28.1301 30.9538 27.7881 30.8234 27.6578Z"
            fill="#FFE15A" />
        <path
            d="M23.2648 19.1541C23.3952 19.2846 23.3952 19.496 23.2648 19.6266C23.1343 19.7572 22.9229 19.7571 22.7923 19.6266C22.6617 19.4961 22.3198 18.6818 22.3198 18.6818C22.3198 18.6818 23.1343 19.0238 23.2648 19.1541Z"
            fill="#FFE15A" />
        <path
            d="M25.1795 18.0314C25.2501 18.2019 25.1692 18.3972 24.9986 18.4678C24.8281 18.5385 24.6328 18.4575 24.5622 18.287C24.4916 18.1165 24.4873 17.2333 24.4873 17.2333C24.4873 17.2333 25.1089 17.8609 25.1795 18.0314Z"
            fill="#FFE15A" />
        <path
            d="M28.9087 28.7803C28.8381 28.6098 28.9191 28.4145 29.0896 28.3439C29.2601 28.2733 29.4554 28.3542 29.526 28.5247C29.5966 28.6952 29.6009 29.5784 29.6009 29.5784C29.6009 29.5784 28.9792 28.9508 28.9087 28.7803Z"
            fill="#FFE15A" />
        <path
            d="M32.4184 21.5414C32.2479 21.612 32.0526 21.5311 31.982 21.3606C31.9114 21.1901 31.9923 20.9947 32.1628 20.9241C32.3333 20.8535 33.2164 20.8492 33.2164 20.8492C33.2164 20.8492 32.5889 21.4707 32.4184 21.5414Z"
            fill="#FFE15A" />
        <path
            d="M21.6697 25.2704C21.8402 25.1998 22.0356 25.2807 22.1062 25.4512C22.1768 25.6218 22.0958 25.8171 21.9253 25.8877C21.7548 25.9583 20.8716 25.9626 20.8716 25.9626C20.8716 25.9626 21.4992 25.3411 21.6697 25.2704Z"
            fill="#FFE15A" />
        <path
            d="M29.5259 18.2871C29.4553 18.4576 29.2599 18.5385 29.0895 18.468C28.919 18.3974 28.8382 18.202 28.9087 18.0316C28.9793 17.8612 29.6008 17.2335 29.6008 17.2335C29.6008 17.2335 29.5966 18.1167 29.5259 18.2871Z"
            fill="#FFE15A" />
        <path
            d="M24.5621 28.5247C24.6327 28.3542 24.8281 28.2733 24.9986 28.3438C25.1691 28.4144 25.2499 28.6098 25.1794 28.7803C25.1088 28.9508 24.4873 29.5783 24.4873 29.5783C24.4873 29.5783 24.4915 28.6952 24.5621 28.5247Z"
            fill="#FFE15A" />
        <path
            d="M32.163 25.8878C31.9925 25.8171 31.9116 25.6217 31.9821 25.4513C32.0527 25.2808 32.2481 25.2 32.4185 25.2705C32.589 25.341 33.2166 25.9626 33.2166 25.9626C33.2166 25.9626 32.3333 25.9585 32.163 25.8878Z"
            fill="#FFE15A" />
        <path
            d="M21.9252 20.9242C22.0957 20.9948 22.1766 21.1902 22.1061 21.3606C22.0355 21.531 21.8401 21.612 21.6696 21.5415C21.4992 21.4708 20.8716 20.8494 20.8716 20.8494C20.8716 20.8494 21.7549 20.8535 21.9252 20.9242Z"
            fill="#FFE15A" />
        <path
            d="M26.2638 17.771C26.2999 17.952 26.1824 18.1279 26.0013 18.1638C25.8204 18.1998 25.6445 18.0824 25.6085 17.9013C25.5725 17.7204 25.7407 16.8533 25.7407 16.8533C25.7407 16.8533 26.2278 17.5901 26.2638 17.771Z"
            fill="#FFE15A" />
        <path
            d="M27.8244 29.0407C27.7884 28.8598 27.9059 28.6839 28.0869 28.648C28.268 28.6119 28.4438 28.7294 28.4797 28.9105C28.5157 29.0914 28.3476 29.9585 28.3476 29.9585C28.3476 29.9585 27.8604 29.2217 27.8244 29.0407Z"
            fill="#FFE15A" />
        <path
            d="M32.6791 22.6255C32.4981 22.6616 32.3222 22.5441 32.2863 22.363C32.2502 22.182 32.3677 22.0062 32.5488 21.9703C32.7297 21.9342 33.5968 22.1024 33.5968 22.1024C33.5968 22.1024 32.86 22.5896 32.6791 22.6255Z"
            fill="#FFE15A" />
        <path
            d="M21.409 24.1862C21.59 24.1501 21.7659 24.2676 21.8018 24.4487C21.8378 24.6297 21.7204 24.8055 21.5393 24.8415C21.3583 24.8775 20.4913 24.7093 20.4913 24.7093C20.4913 24.7093 21.2281 24.2221 21.409 24.1862Z"
            fill="#FFE15A" />
        <path
            d="M30.4768 18.8698C30.3743 19.0232 30.1668 19.0644 30.0134 18.9619C29.86 18.8593 29.8188 18.6519 29.9213 18.4985C30.0238 18.3451 30.7558 17.8508 30.7558 17.8508C30.7558 17.8508 30.5792 18.7163 30.4768 18.8698Z"
            fill="#FFE15A" />
        <path
            d="M23.6114 27.942C23.7138 27.7886 23.9213 27.7474 24.0747 27.85C24.2281 27.9524 24.2694 28.1599 24.1668 28.3133C24.0644 28.4668 23.3324 28.961 23.3324 28.961C23.3324 28.961 23.5089 28.0956 23.6114 27.942Z"
            fill="#FFE15A" />
        <path
            d="M31.5802 26.8387C31.4268 26.7362 31.3856 26.5287 31.4881 26.3753C31.5907 26.2219 31.7981 26.1806 31.9515 26.2832C32.1049 26.3856 32.5991 27.1177 32.5991 27.1177C32.5991 27.1177 31.7336 26.9411 31.5802 26.8387Z"
            fill="#FFE15A" />
        <path
            d="M22.5078 19.9731C22.6612 20.0755 22.7024 20.2831 22.5999 20.4365C22.4975 20.5899 22.2899 20.6311 22.1365 20.5286C21.9831 20.426 21.4889 19.6941 21.4889 19.6941C21.4889 19.6941 22.3545 19.8707 22.5078 19.9731Z"
            fill="#FFE15A" />
        <path
            d="M24.1668 18.4984C24.2693 18.6518 24.2281 18.8592 24.0747 18.9618C23.9214 19.0643 23.7139 19.023 23.6114 18.8697C23.5089 18.7163 23.3324 17.8508 23.3324 17.8508C23.3324 17.8508 24.0644 18.3451 24.1668 18.4984Z"
            fill="#FFE15A" />
        <path
            d="M29.9213 28.3134C29.8188 28.16 29.86 27.9526 30.0133 27.85C30.1667 27.7476 30.3742 27.7888 30.4767 27.9421C30.5792 28.0955 30.7557 28.9609 30.7557 28.9609C30.7557 28.9609 30.0238 28.4667 29.9213 28.3134Z"
            fill="#FFE15A" />
        <path
            d="M31.9514 20.5286C31.798 20.631 31.5906 20.5898 31.488 20.4365C31.3856 20.2831 31.4268 20.0756 31.5801 19.9731C31.7336 19.8707 32.599 19.6941 32.599 19.6941C32.599 19.6941 32.1048 20.4261 31.9514 20.5286Z"
            fill="#FFE15A" />
        <path
            d="M22.1367 26.2831C22.2901 26.1807 22.4975 26.2219 22.6001 26.3752C22.7025 26.5286 22.6613 26.736 22.508 26.8386C22.3546 26.941 21.4891 27.1176 21.4891 27.1176C21.4891 27.1176 21.9833 26.3856 22.1367 26.2831Z"
            fill="#FFE15A" />
        <path
            d="M28.4797 17.9013C28.4437 18.0823 28.2679 18.1998 28.0869 18.1638C27.906 18.1278 27.7884 17.952 27.8244 17.771C27.8605 17.5901 28.3476 16.8533 28.3476 16.8533C28.3476 16.8533 28.5156 17.7204 28.4797 17.9013Z"
            fill="#FFE15A" />
        <path
            d="M25.6085 28.9105C25.6446 28.7295 25.8203 28.6119 26.0013 28.648C26.1823 28.684 26.2998 28.8598 26.2638 29.0407C26.2278 29.2217 25.7407 29.9585 25.7407 29.9585C25.7407 29.9585 25.5726 29.0914 25.6085 28.9105Z"
            fill="#FFE15A" />
        <path
            d="M32.5485 24.8415C32.3675 24.8054 32.25 24.6296 32.286 24.4487C32.322 24.2677 32.4978 24.1501 32.6788 24.1862C32.8597 24.2222 33.5965 24.7093 33.5965 24.7093C33.5965 24.7093 32.7295 24.8774 32.5485 24.8415Z"
            fill="#FFE15A" />
        <path
            d="M21.5396 21.9702C21.7205 22.0063 21.8381 22.1821 21.8021 22.363C21.766 22.544 21.5902 22.6616 21.4093 22.6255C21.2283 22.5895 20.4915 22.1024 20.4915 22.1024C20.4915 22.1024 21.3586 21.9343 21.5396 21.9702Z"
            fill="#FFE15A" />
        <path
            d="M37.5206 24.5777C37.3901 24.5228 37.241 24.5857 37.1866 24.7154C37.1866 24.716 37.1866 24.716 37.1866 24.716C37.1856 24.7184 37.1805 24.7305 37.1718 24.751C36.9788 25.2019 36.5794 25.861 36.176 26.481C36.5517 25.2718 36.8952 23.9802 36.9191 23.8893C36.9549 23.7537 36.8747 23.6144 36.7392 23.5776C36.6036 23.5412 36.4641 23.6201 36.4261 23.7552C36.2508 24.3833 35.8923 25.2099 35.5616 25.9098C35.6222 25.1295 35.6337 24.4066 35.6344 24.3543C35.6365 24.2161 35.5282 24.1018 35.39 24.0953C35.26 24.0993 35.1346 24.1941 35.1244 24.3322C34.7973 28.831 30.4683 30.8435 30.0468 31.0287C29.8263 31.0507 28.7991 31.1664 27.8668 31.4901C27.7611 31.5268 27.6711 31.5636 27.5814 31.6002C27.5481 31.5877 27.5124 31.5806 27.4748 31.5829C24.6133 31.7899 22.3316 30.6161 20.6918 28.1013C19.4528 26.2011 19.0643 24.2065 19.0604 24.1866C19.0343 24.0479 18.9015 23.9586 18.7622 23.9831C18.6235 24.0095 18.5324 24.1427 18.5587 24.2813C18.569 24.3364 18.7395 25.207 19.2091 26.3528C18.5809 25.3611 18.1431 24.1598 17.989 23.5341C17.9858 23.5216 17.9778 23.5121 17.9731 23.5006C17.9659 23.4829 17.9599 23.4651 17.9492 23.4498C17.9417 23.439 17.9318 23.431 17.9229 23.4216C17.909 23.4068 17.8956 23.3924 17.8785 23.3813C17.8687 23.375 17.8578 23.3719 17.8472 23.3669C17.8283 23.3581 17.8099 23.3494 17.7889 23.3454C17.7743 23.3426 17.7595 23.3444 17.7443 23.3441C17.729 23.3439 17.7145 23.34 17.6988 23.3428C17.6954 23.3434 17.6928 23.3457 17.6894 23.3465C17.686 23.3472 17.6829 23.3461 17.6796 23.3468C17.6659 23.3501 17.6555 23.3587 17.643 23.3641C17.627 23.371 17.6107 23.3762 17.5968 23.3858C17.583 23.3953 17.5728 23.4076 17.5613 23.4194C17.5499 23.4311 17.538 23.4415 17.529 23.4551C17.5199 23.4688 17.515 23.4844 17.5086 23.4997C17.5024 23.5146 17.4953 23.5287 17.4921 23.5448C17.4888 23.5613 17.4902 23.5783 17.4903 23.5956C17.4903 23.6094 17.4865 23.6225 17.489 23.6366C17.4899 23.6427 17.4919 23.6487 17.493 23.6546V23.6556C17.4933 23.6566 17.4936 23.6581 17.4939 23.6593C17.652 24.5902 18.0285 25.5553 18.369 26.2912C17.8283 25.6776 17.3765 24.9707 17.2163 24.552C17.2117 24.5398 17.2024 24.5313 17.1962 24.5204C17.1867 24.5035 17.1784 24.4862 17.1656 24.4723C17.1565 24.4623 17.1455 24.4558 17.1352 24.4475C17.1196 24.435 17.1049 24.4225 17.0869 24.4139C17.0754 24.4084 17.0629 24.4066 17.0507 24.4028C17.0318 24.3972 17.0136 24.3909 16.9936 24.3896C16.9778 24.3886 16.9622 24.3926 16.9463 24.3946C16.9315 24.3965 16.917 24.3946 16.9023 24.3992C16.8995 24.4001 16.8976 24.4023 16.8949 24.4033C16.8922 24.4042 16.8895 24.4036 16.8867 24.4047C16.8728 24.4099 16.863 24.4202 16.8506 24.4275C16.836 24.4361 16.8205 24.4433 16.8081 24.4544C16.7954 24.4658 16.7866 24.48 16.7767 24.4935C16.7672 24.5063 16.7566 24.5178 16.7496 24.532C16.7423 24.547 16.7396 24.5632 16.7354 24.5793C16.7312 24.595 16.7256 24.6097 16.7245 24.6262C16.7233 24.6427 16.7274 24.6592 16.7296 24.6759C16.7314 24.6903 16.7295 24.7047 16.734 24.7189C17.0119 25.6154 17.6803 26.682 18.2039 27.4334C17.7676 27.0972 17.4469 26.7335 17.3538 26.6237C17.3437 26.6118 17.3339 26.5998 17.3238 26.5879C17.2338 26.4796 17.0747 26.4641 16.9656 26.5524C16.8569 26.6412 16.8398 26.801 16.9277 26.91C16.9325 26.9161 16.9517 26.94 16.9837 26.9774C17.3669 27.4334 17.7844 27.8589 18.1626 28.2181L17.6452 27.9976C17.5272 27.9468 17.3886 27.9927 17.324 28.1049C17.2594 28.2172 17.2886 28.3593 17.3921 28.4371C17.4425 28.4745 18.3587 29.159 19.1518 29.5636C19.077 29.568 18.9893 29.5626 18.891 29.5551C18.7711 29.5435 18.6531 29.6294 18.6239 29.7511C18.5952 29.8732 18.6591 29.998 18.7751 30.0459C18.7946 30.0539 19.0363 30.1536 19.3348 30.2598C19.2651 30.2883 19.2098 30.3467 19.1868 30.4224C19.1524 30.5357 19.2008 30.6585 19.3035 30.7173C19.3303 30.7328 19.6913 30.9398 20.1381 31.1233C20.1262 31.1418 20.1164 31.1617 20.1091 31.1837C20.0741 31.2909 20.1141 31.4087 20.2071 31.473C20.2847 31.5263 22.0195 32.7037 24.0457 32.7037C24.1787 32.7037 24.3131 32.6987 24.4482 32.6878C24.5887 32.6767 24.6937 32.5536 24.6825 32.4129C24.6713 32.2721 24.5493 32.1659 24.4074 32.1789C23.1346 32.2827 21.9083 31.8048 21.179 31.4395C21.2753 31.416 21.3307 31.3946 21.3444 31.3891C21.4569 31.3432 21.5218 31.225 21.4998 31.1057C21.4778 30.9866 21.3751 30.8992 21.2536 30.8967C20.9575 30.8906 20.5475 30.7465 20.1942 30.5918C20.3276 30.525 20.4056 30.461 20.4124 30.4555C20.4892 30.3912 20.5217 30.2885 20.4955 30.1917C20.4691 30.0954 20.3887 30.023 20.29 30.0071C20.1815 29.9891 20.0463 29.9542 19.9047 29.9113C20.0424 29.832 20.101 29.7447 20.1234 29.7003C20.1589 29.6295 20.1597 29.5466 20.1257 29.4753C20.0915 29.404 20.0265 29.3525 19.949 29.336C19.8822 29.3216 19.8065 29.2971 19.7248 29.2652C19.7397 29.2503 19.7535 29.2333 19.7646 29.2138C19.8297 29.1036 19.8028 28.9619 19.7018 28.8826C19.6966 28.8786 19.4983 28.723 19.1981 28.464C19.2458 28.4466 19.2879 28.4141 19.3184 28.3703C19.3827 28.2775 19.3783 28.1533 19.3076 28.0654C19.3019 28.0584 19.1034 27.8088 18.8298 27.4297C18.9201 27.4998 19.0103 27.5715 19.1006 27.6295C19.1431 27.6564 19.1911 27.6699 19.2388 27.6699C19.3034 27.6699 19.3672 27.6455 19.4163 27.598C19.4365 27.5785 19.4523 27.556 19.4648 27.5321C19.6198 27.6976 19.7826 27.8479 19.9536 27.9762C19.9759 27.9929 20.0029 27.9926 20.0279 28.001C20.1004 28.1224 20.1758 28.2441 20.2549 28.3658C21.8059 30.7523 23.993 32.0306 26.616 32.1074C26.3745 32.2541 26.1123 32.4056 25.6971 32.5674C25.6065 32.6027 25.5264 32.6381 25.446 32.6735C25.4071 32.6811 25.3707 32.6952 25.3403 32.7193C24.6157 33.0548 24.3157 33.3862 24.194 33.618C24.0725 33.8485 24.1773 34.0849 24.3257 34.2077C24.3718 34.2456 24.4305 34.265 24.4892 34.265C24.5297 34.265 24.5701 34.256 24.6067 34.2376C24.6971 34.1926 24.7574 34.0973 24.7534 33.9971C24.7639 33.9857 24.8083 33.9488 24.9474 33.9442C25.0489 33.9357 25.2625 33.9587 25.5117 33.9786C25.7488 33.9981 26.0332 34.0203 26.3355 34.0358C26.1464 34.2563 25.9265 34.5119 25.9265 34.5119C25.8605 34.5887 25.846 34.6974 25.8899 34.7887C25.9341 34.8805 26.0292 34.9375 26.1289 34.9339C26.3307 34.9268 26.4679 34.9228 26.5579 34.921C26.6364 35.0238 26.7328 35.0646 26.7949 35.0805C26.9706 35.1255 27.1457 35.0551 27.2775 34.9718C27.3773 35.0437 27.4771 35.0741 27.5562 35.0856C27.7345 35.11 27.8997 35.0582 28.0191 34.9993C28.1428 35.0792 28.264 35.0996 28.3564 35.0996C28.3577 35.0996 28.3592 35.0996 28.3606 35.0996C28.5599 35.0986 28.7344 35.0023 28.8577 34.908C28.9668 34.9728 29.071 34.9937 29.1515 34.9973C29.3344 35.0038 29.486 34.9335 29.5868 34.8675C29.9468 34.9398 30.257 34.7703 30.4621 34.5832C30.5556 34.6376 30.6446 34.651 30.7155 34.6475C30.8978 34.6411 31.0367 34.5302 31.1259 34.431C31.534 34.4803 31.8268 34.405 31.9961 34.2041C32.0883 34.0948 32.1258 33.9717 32.136 33.8593C33.2682 33.8529 33.3707 33.2347 33.379 33.1584C33.3864 33.0889 33.3653 33.0197 33.3202 32.9664C33.2753 32.9131 33.2101 32.8801 33.1406 32.876L30.1722 32.6975C30.048 32.6885 29.9372 32.7718 29.9084 32.8931C29.9078 32.8951 29.8572 33.0837 29.6989 33.2344C29.4858 33.4379 29.1427 33.5453 28.7696 33.6022C28.771 33.568 28.7662 33.5333 28.7531 33.4993C28.7022 33.3676 28.5541 33.3037 28.4228 33.3532C27.81 33.591 26.8179 33.5611 26.0417 33.5071C26.1607 33.4098 26.3041 33.3134 26.4186 33.2506C26.5154 33.1972 26.5674 33.088 26.5469 32.9793C26.532 32.9003 26.4749 32.8453 26.4059 32.8099C26.6218 32.7009 26.7987 32.5957 26.9666 32.4933C27.258 32.3148 27.5333 32.1466 28.0346 31.9725C29.0024 31.6363 30.1224 31.5341 30.1337 31.533C30.1591 31.5309 30.1841 31.5245 30.2077 31.515C30.2475 31.4985 33.4067 30.1751 34.8951 27.1214C34.8755 27.2137 34.8547 27.298 34.8319 27.3718C34.793 27.4975 34.8558 27.6317 34.977 27.6825C35.0708 27.722 35.1773 27.7014 35.2495 27.6347C35.1554 27.8826 35.0704 28.0776 35.0009 28.1929C34.9301 28.3101 34.9643 28.4623 35.0783 28.5381C35.105 28.5555 35.1337 28.5675 35.163 28.5745C35.0478 28.7431 34.931 28.9027 34.8145 29.0489C34.737 29.1462 34.7415 29.2849 34.8225 29.3767C34.6225 29.5862 34.4452 29.7589 34.3104 29.8686C34.2224 29.9399 34.1937 30.0592 34.2341 30.161C34.1042 30.2353 33.9974 30.2878 33.9234 30.3101C33.7992 30.3475 33.7229 30.4727 33.7464 30.6005C33.7586 30.6678 33.7965 30.7247 33.8488 30.7621C33.6926 30.804 33.5217 30.8444 33.3362 30.8812C33.2317 30.9021 33.151 30.9855 33.134 31.0907C33.1171 31.196 33.167 31.3008 33.2593 31.3536C33.2673 31.3581 33.3546 31.4075 33.4881 31.4643C32.994 31.6634 32.1118 31.9233 30.664 32.066C30.5238 32.08 30.4211 32.2052 30.435 32.3454C30.4487 32.4856 30.57 32.5829 30.7144 32.5749C33.4627 32.303 34.3113 31.6151 34.346 31.5856C34.4253 31.5192 34.4567 31.411 34.4253 31.3123C34.4044 31.2469 34.3585 31.1941 34.2995 31.1635C35.1775 30.8872 35.5545 30.5813 35.5742 30.5649C35.6705 30.485 35.6947 30.347 35.6313 30.2387C35.5674 30.1304 35.4345 30.0835 35.3185 30.1303C35.2859 30.1428 35.2338 30.1557 35.1678 30.1687C35.7571 29.7652 36.3826 29.2846 36.6577 29.0702C36.706 29.0344 36.75 28.9998 36.7886 28.9674C36.8955 28.8776 36.9104 28.7188 36.8222 28.6107C36.7347 28.503 36.5753 28.4849 36.466 28.5713C36.4261 28.6027 36.3846 28.6351 36.3418 28.6685C36.2148 28.7629 36.0524 28.8696 35.8753 28.9793C36.544 28.22 37.2172 27.3969 37.4095 27.1604C37.427 27.1389 37.4442 27.1176 37.4617 27.0961C37.55 26.9863 37.5328 26.8257 37.423 26.7374C37.3129 26.6476 37.1521 26.6661 37.064 26.7753L37.0634 26.7759L37.0632 26.7765C37.0585 26.7819 37.0369 26.8089 37.0004 26.8538C36.799 27.0997 36.5869 27.3378 36.3776 27.5601C37.0588 26.3255 37.5747 25.1101 37.6503 24.9301C37.653 24.9236 37.6555 24.9172 37.6583 24.9105C37.7124 24.7813 37.6508 24.6316 37.5206 24.5777ZM25.5489 33.1878L25.6186 33.1968C25.5331 33.2768 25.4635 33.3665 25.4082 33.4591C25.2869 33.4493 25.1768 33.4407 25.0906 33.4369C25.2095 33.3593 25.3624 33.275 25.5489 33.1878Z"
            fill="#FFE15A" />
    </g>
    <defs>
        <clipPath id="clip0_9_2952">
            <rect width="50" height="50" fill="white" transform="translate(0.603516 0.453369)" />
        </clipPath>
    </defs>
</svg>
