<svg width="51" height="51" viewBox="0 0 51 51" fill="none" xmlns="http://www.w3.org/2000/svg">
<g clip-path="url(#clip0_9_2933)">
<path d="M0.0312881 30.9131H50.0312V40.9705C50.0312 41.4466 49.6452 41.8326 49.1691 41.8326H0.893396C0.417323 41.8326 0.0312881 41.4466 0.0312881 40.9705V30.9131Z" fill="#73AF00"/>
<path d="M0.893396 9.0741H49.1692C49.6453 9.0741 50.0313 9.46013 50.0313 9.9362V19.9936H0.0312881V9.93611C0.0312881 9.46003 0.417323 9.0741 0.893396 9.0741Z" fill="#464655"/>
<path d="M50.0312 19.9934H0.0312881V30.9123H50.0312V19.9934Z" fill="#C8414B"/>
<path d="M50.0312 19.4191H0.0313263V21.1432H50.0312V19.4191Z" fill="#F5F5F5"/>
<path d="M50.0312 29.7639H0.0313263V31.488H50.0312V29.7639Z" fill="#F5F5F5"/>
<path d="M29.6473 18.1893C30.3415 16.758 31.0658 13.4423 31.0658 13.4423C31.0658 13.4423 28.9103 16.0638 28.216 17.4951C28.0705 17.7951 28.1322 18.1401 28.3424 18.3735L20.4354 34.6756L20.9722 34.936L28.8791 18.6339C29.1928 18.6545 29.5019 18.4893 29.6473 18.1893Z" fill="#F5F5F5"/>
<path d="M20.4152 18.1893C19.7211 16.758 18.9967 13.4423 18.9967 13.4423C18.9967 13.4423 21.1522 16.0638 21.8465 17.4951C21.992 17.7951 21.9303 18.1401 21.7202 18.3735L29.6271 34.6756L29.0904 34.936L21.1835 18.6339C20.8698 18.6545 20.5606 18.4893 20.4152 18.1893Z" fill="#F5F5F5"/>
<path d="M29.3415 25.4533C29.3415 30.2144 25.8247 34.074 25.0312 34.074C24.2376 34.074 20.7208 30.2144 20.7208 25.4533C20.7208 20.6922 24.2376 16.8326 25.0312 16.8326C25.8247 16.8326 29.3415 20.6922 29.3415 25.4533Z" fill="#C8414B"/>
<path d="M28.4793 29.6126C28.987 28.3791 29.3414 26.9622 29.3414 25.4533C29.3414 23.9445 28.9871 22.5277 28.4793 21.2941C27.9716 22.5276 27.6172 23.9445 27.6172 25.4533C27.6172 26.9622 27.9716 28.3791 28.4793 29.6126Z" fill="#464655"/>
<path d="M21.5829 21.2941C21.0752 22.5276 20.7208 23.9445 20.7208 25.4533C20.7208 26.9622 21.0751 28.379 21.5829 29.6126C22.0906 28.3791 22.445 26.9622 22.445 25.4533C22.445 23.9445 22.0906 22.5277 21.5829 21.2941Z" fill="#464655"/>
<path d="M25.0322 26.7465C25.5084 26.7465 25.8943 26.1676 25.8943 25.4535C25.8943 24.7393 25.5084 24.1604 25.0322 24.1604C24.5561 24.1604 24.1701 24.7393 24.1701 25.4535C24.1701 26.1676 24.5561 26.7465 25.0322 26.7465Z" fill="#F5F5F5"/>
<path d="M25.1615 16.8328V24.1603C25.3966 23.671 25.8135 22.2252 25.8135 20.4965C25.8135 18.7677 25.3966 17.322 25.1615 16.8328Z" fill="#F5F5F5"/>
<path d="M24.9027 16.8328C24.6676 17.322 24.2507 18.7677 24.2507 20.4965C24.2507 22.2253 24.6676 23.6711 24.9027 24.1603V16.8328Z" fill="#F5F5F5"/>
<path d="M25.1615 26.7465V34.074C25.3966 33.5847 25.8135 32.1389 25.8135 30.4102C25.8135 28.6814 25.3966 27.2357 25.1615 26.7465Z" fill="#F5F5F5"/>
<path d="M24.9027 26.7465C24.6676 27.2357 24.2507 28.6814 24.2507 30.4102C24.2507 32.139 24.6676 33.5848 24.9027 34.074V26.7465Z" fill="#F5F5F5"/>
</g>
<defs>
<clipPath id="clip0_9_2933">
<rect width="50" height="50" fill="white" transform="translate(0.03125 0.453369)"/>
</clipPath>
</defs>
</svg>
