<svg width="51" height="51" viewBox="0 0 51 51" fill="none" xmlns="http://www.w3.org/2000/svg">
    <g clip-path="url(#clip0_9_2919)">
        <path
            d="M49.4611 41.8326H1.18547C0.709402 41.8326 0.323368 41.4465 0.323368 40.9705V9.9362C0.323368 9.46013 0.709402 9.0741 1.18547 9.0741H49.4612C49.9372 9.0741 50.3233 9.46013 50.3233 9.9362V40.9705C50.3232 41.4467 49.9371 41.8326 49.4611 41.8326Z"
            fill="#FF4B55" />
        <path
            d="M30.154 25.7248C29.9354 25.5367 29.6873 25.3998 29.4384 25.2997C30.8455 25.0222 31.9772 23.8333 31.9772 23.8333C31.2931 24.1334 30.9751 24.1941 29.8864 23.8363C29.6124 23.7462 29.3309 23.7146 29.0626 23.7174C30.2564 22.9225 30.847 21.3913 30.847 21.3913C30.3299 21.9302 30.0593 22.1082 28.9166 22.1942C28.629 22.2159 28.3568 22.2944 28.1099 22.3997C28.9087 21.2086 28.8683 19.5676 28.8683 19.5676C28.5968 20.2634 28.415 20.5313 27.392 21.048C27.1346 21.1781 26.9131 21.3549 26.7254 21.5465C27.0075 20.1404 26.3422 18.64 26.3422 18.64C26.3578 19.3868 26.2922 19.7039 25.545 20.5728C25.3569 20.7915 25.22 21.0395 25.1199 21.2884C24.8424 19.8813 23.6535 18.7497 23.6535 18.7497C23.9536 19.4338 24.0143 19.7517 23.6565 20.8405C23.5665 21.1144 23.5348 21.396 23.5377 21.6642C22.7427 20.4705 21.2115 19.8799 21.2115 19.8799C21.7505 20.3969 21.9284 20.6675 22.0144 21.8103C22.0361 22.0979 22.1146 22.3701 22.2198 22.6169C21.0285 21.8181 19.3878 21.8586 19.3878 21.8586C20.0837 22.13 20.3515 22.3119 20.8682 23.3348C20.9983 23.5922 21.1752 23.8136 21.3669 24.0014C19.9606 23.7193 18.4601 24.3846 18.4601 24.3846C19.207 24.3691 19.524 24.4347 20.3931 25.1819C20.6117 25.37 20.8597 25.5068 21.1087 25.607C19.7016 25.8844 18.5699 27.0734 18.5699 27.0734C19.254 26.7733 19.572 26.7125 20.6607 27.0704C20.9347 27.1604 21.2163 27.192 21.4846 27.1892C20.2908 27.984 19.7001 29.5155 19.7001 29.5155C20.2172 28.9765 20.4878 28.7986 21.6305 28.7125C21.9181 28.6909 22.1903 28.6123 22.4371 28.5072C21.6384 29.6985 21.6788 31.3392 21.6788 31.3392C21.9503 30.6432 22.1321 30.3754 23.1551 29.8586C23.4125 29.7285 23.6339 29.5517 23.8217 29.3601C23.5395 30.7663 24.2049 32.2667 24.2049 32.2667C24.1893 31.5198 24.255 31.2029 25.0021 30.3338C25.1902 30.1152 25.3271 29.8671 25.4272 29.6182C25.7046 31.0252 26.8936 32.157 26.8936 32.157C26.5935 31.4729 26.5328 31.1548 26.8906 30.0661C26.9806 29.7922 27.0123 29.5107 27.0094 29.2424C27.8044 30.4362 29.3356 31.0268 29.3356 31.0268C28.7966 30.5097 28.6187 30.2391 28.5327 29.0963C28.511 28.8088 28.4325 28.5366 28.3273 28.2898C29.5184 29.0885 31.1593 29.0481 31.1593 29.0481C30.4634 28.7765 30.1955 28.5948 29.6788 27.5718C29.5487 27.3144 29.3718 27.0929 29.1802 26.9052C30.5865 27.1872 32.0869 26.522 32.0869 26.522C31.3401 26.5375 31.023 26.4722 30.154 25.7248Z"
            fill="#FFE15A" />
        <path
            d="M28.7807 26.1412L32.2196 25.4534L28.7807 24.7656L31.6947 22.8142L28.2544 23.4947L30.1998 20.5767L27.2818 22.5221L27.9624 19.0818L26.011 21.9957L25.3231 18.557L24.6354 21.9959L22.6841 19.082L23.3646 22.5223L20.4467 20.5769L22.3921 23.4949L18.9518 22.8144L21.8657 24.7658L18.4267 25.4535L21.8655 26.1413L18.9516 28.0926L22.3919 27.4121L20.4465 30.33L23.3644 28.3846L22.6839 31.8249L24.6352 28.9111L25.3231 32.3498L26.0109 28.911L27.9623 31.8248L27.2817 28.3845L30.1997 30.3299L28.2543 27.412L31.6946 28.0925L28.7807 26.1412Z"
            fill="#FFD25A" />
        <path
            d="M25.3233 28.9016C27.2277 28.9016 28.7715 27.3578 28.7715 25.4534C28.7715 23.549 27.2277 22.0051 25.3233 22.0051C23.4189 22.0051 21.875 23.549 21.875 25.4534C21.875 27.3578 23.4189 28.9016 25.3233 28.9016Z"
            fill="#FFE15A" />
        <path
            d="M10.3094 35.7981C12.8104 35.7981 12.8104 36.6602 15.3114 36.6602C17.8142 36.6602 17.8142 35.7981 20.3169 35.7981C22.8195 35.7981 22.8197 36.6602 25.3223 36.6602C27.8195 36.6602 27.8195 35.7981 30.3167 35.7981C32.8153 35.7981 32.8153 36.6602 35.3137 36.6602C37.8133 36.6602 37.8133 35.7981 40.3128 35.7981C42.8123 35.7981 42.8123 36.6602 45.3118 36.6602C47.8114 36.6602 47.8114 35.7981 50.311 35.7981C50.315 35.7981 50.3183 35.7983 50.3223 35.7983V33.2121C50.3183 33.2121 50.315 33.2119 50.311 33.2119C47.8114 33.2119 47.8114 34.074 45.3118 34.074C42.8124 34.074 42.8124 33.2119 40.3128 33.2119C37.8132 33.2119 37.8132 34.074 35.3137 34.074C32.8152 34.074 32.8152 33.2119 30.3167 33.2119C27.8196 33.2119 27.8196 34.074 25.3223 34.074C22.8195 34.074 22.8195 33.2119 20.3169 33.2119C17.8142 33.2119 17.814 34.074 15.3114 34.074C12.8104 34.074 12.8104 33.2119 10.3094 33.2119C7.81057 33.2119 7.81057 34.074 5.31165 34.074C2.81547 34.074 2.81078 33.2149 0.322608 33.2122V35.7984C2.81088 35.8013 2.81547 36.6602 5.31165 36.6602C7.81057 36.6602 7.81057 35.7981 10.3094 35.7981Z"
            fill="#41479B" />
        <path
            d="M0.322608 30.6262C2.81088 30.6289 2.81547 31.4879 5.31165 31.4879C7.81057 31.4879 7.81057 30.6258 10.3094 30.6258C12.8104 30.6258 12.8104 31.4879 15.3114 31.4879C17.8142 31.4879 17.8142 30.6258 20.3169 30.6258C22.8195 30.6258 22.8197 31.4879 25.3223 31.4879C27.8195 31.4879 27.8195 30.6258 30.3167 30.6258C32.8153 30.6258 32.8153 31.4879 35.3137 31.4879C37.8133 31.4879 37.8133 30.6258 40.3128 30.6258C42.8123 30.6258 42.8123 31.4879 45.3118 31.4879C47.8114 31.4879 47.8114 30.6258 50.311 30.6258C50.315 30.6258 50.3183 30.626 50.3223 30.626V28.0397C50.3183 28.0397 50.315 28.0396 50.311 28.0396C47.8114 28.0396 47.8114 28.9017 45.3118 28.9017C42.8124 28.9017 42.8124 28.0396 40.3128 28.0396C37.8132 28.0396 37.8132 28.9017 35.3137 28.9017C32.8152 28.9017 32.8152 28.0396 30.3167 28.0396C27.8196 28.0396 27.8196 28.9017 25.3223 28.9017C22.8195 28.9017 22.8195 28.0396 20.3169 28.0396C17.8142 28.0396 17.814 28.9017 15.3114 28.9017C12.8104 28.9017 12.8104 28.0396 10.3094 28.0396C7.81057 28.0396 7.81057 28.9017 5.31165 28.9017C2.81547 28.9017 2.81078 28.0426 0.322608 28.0398L0.322608 30.6262Z"
            fill="#41479B" />
        <path
            d="M0.322608 38.3847C2.81088 38.3874 2.81547 39.2464 5.31165 39.2464C7.81057 39.2464 7.81057 38.3843 10.3094 38.3843C12.8104 38.3843 12.8104 39.2464 15.3114 39.2464C17.8142 39.2464 17.8142 38.3843 20.3169 38.3843C22.8195 38.3843 22.8197 39.2464 25.3223 39.2464C27.8195 39.2464 27.8195 38.3843 30.3167 38.3843C32.8153 38.3843 32.8153 39.2464 35.3137 39.2464C37.8133 39.2464 37.8133 38.3843 40.3128 38.3843C42.8123 38.3843 42.8123 39.2464 45.3118 39.2464C47.8114 39.2464 47.8114 38.3843 50.311 38.3843C50.315 38.3843 50.3183 38.3845 50.3223 38.3845V35.7983C50.3183 35.7983 50.315 35.7981 50.311 35.7981C47.8114 35.7981 47.8114 36.6602 45.3118 36.6602C42.8124 36.6602 42.8124 35.7981 40.3128 35.7981C37.8132 35.7981 37.8132 36.6602 35.3137 36.6602C32.8152 36.6602 32.8152 35.7981 30.3167 35.7981C27.8196 35.7981 27.8196 36.6602 25.3223 36.6602C22.8195 36.6602 22.8195 35.7981 20.3169 35.7981C17.8142 35.7981 17.814 36.6602 15.3114 36.6602C12.8104 36.6602 12.8104 35.7981 10.3094 35.7981C7.81057 35.7981 7.81057 36.6602 5.31165 36.6602C2.81547 36.6602 2.81078 35.8011 0.322608 35.7984L0.322608 38.3847Z"
            fill="#F5F5F5" />
        <path
            d="M0.322608 33.2123C2.81088 33.2151 2.81547 34.0741 5.31165 34.0741C7.81057 34.0741 7.81057 33.212 10.3094 33.212C12.8104 33.212 12.8104 34.0741 15.3114 34.0741C17.8142 34.0741 17.8142 33.212 20.3169 33.212C22.8195 33.212 22.8197 34.0741 25.3223 34.0741C27.8195 34.0741 27.8195 33.212 30.3167 33.212C32.8153 33.212 32.8153 34.0741 35.3137 34.0741C37.8133 34.0741 37.8133 33.212 40.3128 33.212C42.8123 33.212 42.8123 34.0741 45.3118 34.0741C47.8114 34.0741 47.8114 33.212 50.311 33.212C50.315 33.212 50.3183 33.2121 50.3223 33.2121V30.6259C50.3183 30.6259 50.315 30.6257 50.311 30.6257C47.8114 30.6257 47.8114 31.4878 45.3118 31.4878C42.8124 31.4878 42.8124 30.6257 40.3128 30.6257C37.8132 30.6257 37.8132 31.4878 35.3137 31.4878C32.8152 31.4878 32.8152 30.6257 30.3167 30.6257C27.8196 30.6257 27.8196 31.4878 25.3223 31.4878C22.8195 31.4878 22.8195 30.6257 20.3169 30.6257C17.8142 30.6257 17.814 31.4878 15.3114 31.4878C12.8104 31.4878 12.8104 30.6257 10.3094 30.6257C7.81057 30.6257 7.81057 31.4878 5.31165 31.4878C2.81547 31.4878 2.81078 30.6288 0.322608 30.626L0.322608 33.2123Z"
            fill="#F5F5F5" />
        <path
            d="M0.322608 28.04C2.81088 28.0427 2.81547 28.9017 5.31165 28.9017C7.81057 28.9017 7.81057 28.0396 10.3094 28.0396C12.8104 28.0396 12.8104 28.9017 15.3114 28.9017C17.8142 28.9017 17.8142 28.0396 20.3169 28.0396C22.8195 28.0396 22.8197 28.9017 25.3223 28.9017C27.8195 28.9017 27.8195 28.0396 30.3167 28.0396C32.8153 28.0396 32.8153 28.9017 35.3137 28.9017C37.8133 28.9017 37.8133 28.0396 40.3128 28.0396C42.8123 28.0396 42.8123 28.9017 45.3118 28.9017C47.8114 28.9017 47.8114 28.0396 50.311 28.0396C50.315 28.0396 50.3183 28.0398 50.3223 28.0398V25.4536C50.3183 25.4536 50.315 25.4534 50.311 25.4534C47.8114 25.4534 47.8114 26.3155 45.3118 26.3155C42.8124 26.3155 42.8124 25.4534 40.3128 25.4534C37.8132 25.4534 37.8132 26.3155 35.3137 26.3155C32.8152 26.3155 32.8152 25.4534 30.3167 25.4534C27.8196 25.4534 27.8196 26.3155 25.3223 26.3155C22.8195 26.3155 22.8195 25.4534 20.3169 25.4534C17.8142 25.4534 17.814 26.3155 15.3114 26.3155C12.8104 26.3155 12.8104 25.4534 10.3094 25.4534C7.81057 25.4534 7.81057 26.3155 5.31165 26.3155C2.81547 26.3155 2.81078 25.4564 0.322608 25.4537L0.322608 28.04Z"
            fill="#F5F5F5" />
        <path
            d="M45.3127 39.2464C42.8133 39.2464 42.8133 38.3843 40.3137 38.3843C37.8141 38.3843 37.8141 39.2464 35.3146 39.2464C32.8161 39.2464 32.8161 38.3843 30.3177 38.3843C27.8205 38.3843 27.8205 39.2464 25.3233 39.2464C22.8205 39.2464 22.8205 38.3843 20.3179 38.3843C17.8153 38.3843 17.8151 39.2464 15.3124 39.2464C12.8114 39.2464 12.8114 38.3843 10.3104 38.3843C7.81159 38.3843 7.81159 39.2464 5.31267 39.2464C2.81649 39.2464 2.81181 38.3873 0.323631 38.3846V40.9705C0.323631 41.4466 0.709665 41.8326 1.18574 41.8326H49.4614C49.9314 41.8326 50.3103 41.4554 50.32 40.9877C50.3211 39.4709 50.3223 38.3847 50.3234 38.3847C50.3194 38.3847 50.3161 38.3845 50.3121 38.3845C47.8123 38.3843 47.8123 39.2464 45.3127 39.2464Z"
            fill="#41479B" />
        <path
            d="M27.1183 13.653C31.3104 13.4909 33.4411 11.6613 33.4411 11.6613C33.14 11.777 28.4385 12.1707 27.0951 12.2865C26.2468 12.3596 25.1885 13.3269 24.522 14.0312C24.3425 13.5435 23.9916 13.0376 23.2968 12.9351C21.884 12.7267 18.132 12.4951 17.2056 12.0549C17.2056 12.0549 17.8036 12.9792 20.894 13.3983C22.3747 13.599 23.1911 14.1069 23.5798 14.4526L23.2274 14.4404C23.2274 14.4404 23.2274 14.4404 22.6252 14.1393C22.0231 13.8382 21.4209 14.3477 21.4209 14.3477H20.4617C20.3416 14.3477 20.273 14.4849 20.3451 14.5809L20.4374 14.7039C20.5315 14.8296 20.6795 14.9035 20.8365 14.9035H21.8145C22.162 15.5057 23.4821 16.1311 24.5706 16.1311C25.6591 16.1311 28.9944 14.6488 29.3186 14.6488L26.3016 14.5456L27.1183 13.653Z"
            fill="#FFE15A" />
    </g>
    <defs>
        <clipPath id="clip0_9_2919">
            <rect width="50" height="50" fill="white" transform="translate(0.324219 0.453369)" />
        </clipPath>
    </defs>
</svg>
