<svg width="51" height="51" viewBox="0 0 51 51" fill="none" xmlns="http://www.w3.org/2000/svg">
<g clip-path="url(#clip0_9_2909)">
<path d="M49.89 41.8327H1.61428C1.13821 41.8327 0.752174 41.4467 0.752174 40.9706V9.9362C0.752174 9.46013 1.13821 9.0741 1.61428 9.0741H49.8901C50.3661 9.0741 50.7522 9.46013 50.7522 9.9362V40.9706C50.7521 41.4468 50.366 41.8327 49.89 41.8327Z" fill="#41479B"/>
<path d="M26.8567 20.2271C26.3584 20.1328 25.7523 19.4998 25.9678 19.1496C26.1833 18.7994 25.7792 18.0181 25.2943 18.2875C24.8093 18.5569 24.486 18.8802 24.028 18.9879C23.57 19.0956 23.1929 19.4459 23.5431 19.7691C23.8933 20.0924 24.432 20.7389 23.9202 21.4125C23.4084 22.086 23.57 21.628 22.9504 21.9243C22.3308 22.2206 21.8997 22.8133 22.0883 23.1636C22.2769 23.5137 22.4385 23.6485 21.8997 23.8909C21.361 24.1333 21.1185 23.9718 20.6874 24.0795C20.2564 24.1872 19.2058 24.726 18.8824 25.184C18.5592 25.642 17.8587 25.2109 17.5624 25.157C17.2661 25.1031 16.6735 25.3186 16.5387 25.6688C16.404 26.019 16.6464 26.3424 17.1583 26.504C17.6701 26.6656 17.8857 26.6925 17.6433 27.1236C17.4009 27.5547 17.5624 28.3898 17.9665 28.6322C18.3706 28.8747 19.1519 29.629 19.1519 30.1408C19.1519 30.6526 19.0442 31.407 19.7985 31.5147C20.5528 31.6224 21.7112 31.9458 22.1153 32.6462C22.5194 33.3465 22.6271 33.7506 22.7079 34.1817C22.7888 34.6128 22.8695 34.9629 23.112 35.4479C23.3545 35.9329 23.5161 36.7679 23.2737 36.9565C23.0312 37.1451 22.8426 37.2797 23.0312 37.6434C23.2197 38.0071 23.2602 38.1418 23.6104 37.9397C23.9606 37.7376 23.9606 37.9532 24.1491 37.9127C24.3377 37.8723 25.1998 37.5626 25.0381 37.145C24.8765 36.7274 24.5263 35.7711 25.0246 35.2727C25.523 34.7744 26.1965 34.6935 26.6276 34.3568C27.0586 34.0201 27.7725 33.9662 28.3247 33.4274C28.877 32.8886 29.4696 33.2119 29.564 33.589C29.6583 33.9662 29.8064 34.6935 30.2375 34.68C30.6686 34.6666 30.7628 34.6666 30.8437 34.1413C30.9245 33.616 31.5979 32.4441 31.8674 32.5922C32.1368 32.7404 32.3792 32.6192 32.3927 32.3902C32.4062 32.1612 32.918 31.9591 33.1335 32.2825C33.349 32.6057 33.8204 32.8617 33.807 32.4576C33.7936 32.0535 33.2413 32.1074 33.2278 31.6629C33.2144 31.2183 33.6724 30.9355 34.0765 30.7469C34.4806 30.5584 34.2381 30.0734 34.3594 29.8041C34.4806 29.5346 35.1406 29.1979 35.1676 28.9285C35.1945 28.659 35.006 28.5513 35.2888 28.484C35.5717 28.4166 35.9219 28.2954 35.7198 27.9856C35.5178 27.6758 35.5851 27.4468 35.8007 27.2987C36.0162 27.1506 36.1173 26.4473 35.8029 26.3559C35.4885 26.2646 34.9206 26.5284 34.7786 26.7008C34.6366 26.8732 34.0586 26.1328 33.7847 25.9502C33.5108 25.7676 31.7461 25.8792 31.7867 25.575C31.8273 25.2708 32.568 24.1602 32.2447 23.9851C31.9215 23.81 31.4096 23.5541 30.992 23.4194C30.5744 23.2847 30.6688 23.7427 30.4397 23.379C30.2107 23.0153 30.13 21.7221 29.874 21.7221C29.6181 21.7221 29.4295 22.2609 29.3218 22.0589C29.2141 21.8568 29.3622 20.4559 28.7695 20.429C28.1769 20.402 28.1634 20.7522 27.8267 20.4964C27.4899 20.2406 27.5381 20.3559 26.8567 20.2271Z" fill="#FF9B55"/>
<path d="M23.1964 12.5641L22.7488 13.9059L21.3343 13.9169C21.2568 13.9176 21.2247 14.0166 21.2871 14.0625L22.4249 14.9028L21.9982 16.2514C21.9749 16.3253 22.059 16.3866 22.1221 16.3414L23.2728 15.5188L24.4236 16.3414C24.4867 16.3864 24.5709 16.3253 24.5475 16.2514L24.1209 14.9028L25.2587 14.0625C25.3211 14.0166 25.2889 13.9175 25.2114 13.9169L23.7969 13.9059L23.3494 12.5641C23.325 12.4907 23.2209 12.4907 23.1964 12.5641Z" fill="#F5F5F5"/>
<path d="M28.1803 12.5641L27.7328 13.9059L26.3183 13.9169C26.2408 13.9176 26.2086 14.0166 26.271 14.0625L27.4088 14.9028L26.9822 16.2514C26.9588 16.3253 27.0429 16.3866 27.1061 16.3414L28.2569 15.5188L29.4076 16.3414C29.4707 16.3864 29.5549 16.3253 29.5316 16.2514L29.1049 14.9028L30.2427 14.0625C30.3051 14.0166 30.2729 13.9175 30.1954 13.9169L28.781 13.9059L28.3334 12.5641C28.3088 12.4907 28.2047 12.4907 28.1803 12.5641Z" fill="#F5F5F5"/>
<path d="M18.2798 13.3858L17.8322 14.7276L16.4178 14.7387C16.3402 14.7394 16.3081 14.8383 16.3705 14.8843L17.5083 15.7245L17.0816 17.0731C17.0583 17.1471 17.1424 17.2083 17.2056 17.1631L18.3563 16.3405L19.5071 17.1631C19.5702 17.2081 19.6544 17.1471 19.631 17.0731L19.2044 15.7245L20.3422 14.8843C20.4046 14.8383 20.3724 14.7393 20.2949 14.7387L18.8805 14.7276L18.4329 13.3858C18.4084 13.3123 18.3043 13.3123 18.2798 13.3858Z" fill="#F5F5F5"/>
<path d="M13.6282 15.0766L13.1807 16.4184L11.7662 16.4294C11.6887 16.4301 11.6566 16.529 11.719 16.575L12.8567 17.4152L12.4301 18.7639C12.4067 18.8378 12.4908 18.899 12.554 18.8538L13.7048 18.0312L14.8556 18.8538C14.9187 18.8988 15.0028 18.8378 14.9795 18.7639L14.5528 17.4152L15.6906 16.575C15.753 16.529 15.7209 16.43 15.6434 16.4294L14.2289 16.4184L13.7814 15.0766C13.7568 15.0031 13.6527 15.0031 13.6282 15.0766Z" fill="#F5F5F5"/>
<path d="M33.2363 13.3858L33.6839 14.7276L35.0983 14.7387C35.1759 14.7394 35.208 14.8383 35.1456 14.8843L34.0078 15.7245L34.4345 17.0731C34.4578 17.1471 34.3737 17.2083 34.3106 17.1631L33.1598 16.3405L32.009 17.1631C31.9459 17.2081 31.8617 17.1471 31.8851 17.0731L32.3117 15.7245L31.1739 14.8843C31.1115 14.8383 31.1437 14.7393 31.2212 14.7387L32.6356 14.7276L33.0831 13.3858C33.1077 13.3123 33.2118 13.3123 33.2363 13.3858Z" fill="#F5F5F5"/>
<path d="M37.8881 15.0766L38.3357 16.4184L39.7501 16.4294C39.8277 16.4301 39.8598 16.529 39.7974 16.575L38.6596 17.4152L39.0863 18.7639C39.1096 18.8378 39.0255 18.899 38.9623 18.8538L37.8116 18.0312L36.6608 18.8538C36.5977 18.8988 36.5135 18.8378 36.5369 18.7639L36.9635 17.4152L35.8257 16.575C35.7633 16.529 35.7955 16.43 35.873 16.4294L37.2874 16.4184L37.735 15.0766C37.7595 15.0031 37.8636 15.0031 37.8881 15.0766Z" fill="#F5F5F5"/>
</g>
<defs>
<clipPath id="clip0_9_2909">
<rect width="50" height="50" fill="white" transform="translate(0.751953 0.453369)"/>
</clipPath>
</defs>
</svg>
