<svg width="51" height="51" viewBox="0 0 51 51" fill="none" xmlns="http://www.w3.org/2000/svg">
    <g clip-path="url(#clip0_9_2904)">
        <path
            d="M50.1789 19.9937H0.179016V9.9362C0.179016 9.46013 0.565051 9.0741 1.04112 9.0741H49.3169C49.793 9.0741 50.179 9.46013 50.179 9.9362L50.1789 19.9937Z"
            fill="#73AF00" />
        <path
            d="M49.3168 41.8327H1.04112C0.565051 41.8327 0.179016 41.4467 0.179016 40.9706V30.9132H50.1789V40.9706C50.1789 41.4468 49.7929 41.8327 49.3168 41.8327Z"
            fill="#FF4B55" />
        <path d="M50.1789 19.9935H0.179016V30.9125H50.1789V19.9935Z" fill="#F5F5F5" />
        <path
            d="M0.496984 41.6243L13.9721 30.9279L13.9718 19.9787L0.496984 9.28259C0.307043 9.4407 0.179016 9.6698 0.179016 9.9362V40.9706C0.179016 41.2371 0.307043 41.4662 0.496984 41.6243Z"
            fill="#464655" />
    </g>
    <defs>
        <clipPath id="clip0_9_2904">
            <rect width="50" height="50" fill="white" transform="translate(0.179688 0.453369)" />
        </clipPath>
    </defs>
</svg>
