<svg width="51" height="51" viewBox="0 0 51 51" fill="none" xmlns="http://www.w3.org/2000/svg">
    <g clip-path="url(#clip0_9_2884)">
        <path
            d="M49.7476 41.8327H1.47189C0.995821 41.8327 0.609787 41.4467 0.609787 40.9706V9.9362C0.609787 9.46013 0.995821 9.0741 1.47189 9.0741H49.7477C50.2238 9.0741 50.6098 9.46013 50.6098 9.9362V40.9706C50.6097 41.4468 50.2237 41.8327 49.7476 41.8327Z"
            fill="#FF4B55" />
        <path
            d="M34.7281 28.0244C34.7281 28.0244 33.0108 27.7381 31.7386 26.6831C31.3633 26.3719 30.8187 26.1341 30.2882 25.9583C30.7147 25.9394 31.167 25.9513 31.5945 26.0377C33.3652 26.3957 35.0821 25.5362 35.0821 25.5362C35.0821 25.5362 33.3497 25.711 31.8452 25.0272C31.4383 24.8422 30.9106 24.7551 30.3954 24.7184C30.7659 24.6118 31.1591 24.5284 31.5473 24.5069C33.3511 24.4069 34.7958 23.1424 34.7958 23.1424C34.7958 23.1424 33.1636 23.7482 31.5353 23.4657C31.0611 23.3834 30.4789 23.445 29.9372 23.5539C30.2936 23.3301 30.686 23.1209 31.0931 22.9862C32.8081 22.4188 33.8726 20.8208 33.8726 20.8208C33.8726 20.8208 32.4551 21.8318 30.8095 21.9843C30.3208 22.0295 29.7643 22.2489 29.262 22.5016C29.5518 22.1839 29.8825 21.8694 30.2488 21.6265C31.7539 20.6276 32.3603 18.8058 32.3603 18.8058C32.3603 18.8058 31.259 20.1543 29.7115 20.7346C29.2896 20.8928 28.8524 21.2096 28.4597 21.551C28.6474 21.2098 28.868 20.8685 29.1301 20.5753C30.3341 19.2285 30.4604 17.3127 30.4604 17.3127C30.4604 17.3127 29.7355 18.8957 28.3849 19.8482C27.9911 20.1259 27.6232 20.5818 27.3171 21.0425C27.4107 20.6318 27.5399 20.2058 27.7326 19.8219C28.543 18.2073 28.1646 16.325 28.1646 16.325C28.1646 16.325 27.8783 18.0424 26.8233 19.3146C26.512 19.6899 26.2743 20.2345 26.0985 20.7652C26.0795 20.3387 26.0914 19.8863 26.1779 19.4589C26.5359 17.6882 25.6764 15.9713 25.6764 15.9713C25.6764 15.9713 25.8512 17.7036 25.1672 19.2081C24.9823 19.6151 24.8952 20.1428 24.8584 20.6579C24.7519 20.2874 24.6685 19.8943 24.647 19.5061C24.547 17.7023 23.2825 16.2575 23.2825 16.2575C23.2825 16.2575 23.8883 17.8898 23.6058 19.5181C23.5235 19.9923 23.5851 20.5744 23.694 21.1162C23.4702 20.7599 23.261 20.3675 23.1263 19.9603C22.5588 18.2452 20.9609 17.1808 20.9609 17.1808C20.9609 17.1808 21.9719 18.5983 22.1244 20.2439C22.1696 20.7325 22.389 21.2893 22.6417 21.7914C22.3241 21.5017 22.0096 21.1709 21.7665 20.8046C20.7676 19.2994 18.9458 18.6932 18.9458 18.6932C18.9458 18.6932 20.2944 19.7944 20.8747 21.342C21.0329 21.7639 21.3497 22.2012 21.6911 22.5938C21.3498 22.4061 21.0085 22.1855 20.7154 21.9234C19.3686 20.7193 17.4528 20.5931 17.4528 20.5931C17.4528 20.5931 19.0358 21.318 19.9882 22.6687C20.2658 23.0623 20.7217 23.4304 21.1823 23.7364C20.7716 23.6429 20.3457 23.5137 19.9619 23.321C18.3473 22.5106 16.465 22.889 16.465 22.889C16.465 22.889 18.1824 23.1753 19.4545 24.2303C19.8298 24.5415 20.3745 24.7793 20.9051 24.9551C20.4787 24.974 20.0263 24.9621 19.5989 24.8757C17.8282 24.5177 16.1113 25.3772 16.1113 25.3772C16.1113 25.3772 17.8436 25.2023 19.3481 25.8863C19.755 26.0713 20.2828 26.1584 20.7979 26.1951C20.4274 26.3017 20.0342 26.3851 19.646 26.4065C17.8422 26.5065 16.3975 27.7711 16.3975 27.7711C16.3975 27.7711 18.0297 27.1652 19.6581 27.4478C20.1323 27.5301 20.7144 27.4685 21.2562 27.3596C20.8998 27.5834 20.5075 27.7926 20.1002 27.9272C18.3852 28.4947 17.3208 30.0927 17.3208 30.0927C17.3208 30.0927 18.7382 29.0816 20.3838 28.9292C20.8725 28.884 21.4292 28.6645 21.9314 28.4118C21.6416 28.7295 21.3109 29.0439 20.9446 29.287C19.4394 30.2859 18.8331 32.1077 18.8331 32.1077C18.8331 32.1077 19.9343 30.7592 21.4819 30.1789C21.9037 30.0207 22.341 29.7039 22.7335 29.3625C22.5459 29.7036 22.3252 30.045 22.0633 30.3381C20.8593 31.6849 20.7331 33.6007 20.7331 33.6007C20.7331 33.6007 21.458 32.0177 22.8086 31.0652C23.2024 30.7875 23.5704 30.3316 23.8764 29.8711C23.7829 30.2818 23.6537 30.7077 23.461 31.0916C22.6505 32.7061 23.0289 34.5885 23.0289 34.5885C23.0289 34.5885 23.3153 32.8711 24.3703 31.5989C24.6815 31.2236 24.9193 30.679 25.0951 30.1483C25.114 30.575 25.1021 31.0272 25.0157 31.4547C24.6577 33.2254 25.5171 34.9422 25.5171 34.9422C25.5171 34.9422 25.3423 33.2099 26.0263 31.7055C26.2113 31.2985 26.2984 30.7707 26.3351 30.2557C26.4416 30.6262 26.525 31.0193 26.5465 31.4075C26.6465 33.2113 27.9111 34.656 27.9111 34.656C27.9111 34.656 27.3052 33.0237 27.5877 31.3955C27.6701 30.9213 27.6084 30.3392 27.4995 29.7975C27.7234 30.1538 27.9326 30.5461 28.0672 30.9533C28.6347 32.6683 30.2326 33.7328 30.2326 33.7328C30.2326 33.7328 29.2216 32.3153 29.0692 30.6696C29.024 30.181 28.8045 29.6242 28.5518 29.1221C28.8695 29.4118 29.1839 29.7426 29.427 30.1089C30.4259 31.6141 32.2477 32.2204 32.2477 32.2204C32.2477 32.2204 30.8991 31.1191 30.3189 29.5716C30.1607 29.1498 29.8439 28.7125 29.5025 28.3199C29.8436 28.5075 30.1849 28.7282 30.4781 28.9901C31.8248 30.1941 33.7406 30.3204 33.7406 30.3204C33.7406 30.3204 32.1576 29.5955 31.2052 28.2448C30.9275 27.8511 30.4716 27.483 30.0109 27.1771C30.4216 27.2706 30.8475 27.3998 31.2314 27.5925C32.8458 28.4028 34.7281 28.0244 34.7281 28.0244ZM25.6077 29.8308C23.1904 29.8308 21.2308 27.8712 21.2308 25.4539C21.2308 23.0366 23.1904 21.0771 25.6077 21.0771C28.0249 21.0771 29.9845 23.0366 29.9845 25.4539C29.9845 27.8712 28.0249 29.8308 25.6077 29.8308Z"
            fill="#FFE15A" />
        <path
            d="M24.2206 23.6827C24.3139 23.6098 24.4068 23.5367 24.5011 23.4717C23.881 23.1896 23.3228 23.0542 22.9312 22.9935C22.8689 23.0613 22.8127 23.1341 22.7555 23.2063C23.1401 23.281 23.6568 23.4236 24.2206 23.6827Z"
            fill="#FFE15A" />
        <path
            d="M23.1197 22.8004C23.5405 22.8479 24.1497 22.9732 24.8255 23.2639C24.9388 23.1964 25.0515 23.1366 25.1644 23.0789C24.4346 22.7793 23.7758 22.6677 23.3224 22.6332C23.2543 22.6885 23.1836 22.7404 23.1197 22.8004Z"
            fill="#FFE15A" />
        <path
            d="M25.3107 24.829C25.2234 24.7466 25.135 24.6686 25.0459 24.5948C24.2265 25.3747 23.5096 26.5121 23.1859 28.1624C23.3036 28.2677 23.4204 28.3741 23.551 28.4637C23.7888 26.7853 24.4857 25.6268 25.3107 24.829Z"
            fill="#FFE15A" />
        <path
            d="M24.993 24.1041C25.0859 24.0294 25.1787 23.9544 25.2728 23.8876C25.1582 23.8145 25.0439 23.7502 24.93 23.6876C24.8325 23.7544 24.7348 23.8191 24.6384 23.8942C24.7564 23.9591 24.8744 24.0282 24.993 24.1041Z"
            fill="#FFE15A" />
        <path
            d="M27.2573 23.8927C27.9599 24.5098 28.6021 25.3788 29.059 26.5834C29.1763 26.2257 29.2556 25.8507 29.2556 25.4539C29.2556 24.7003 29.0266 24.0004 28.6351 23.4192C28.2728 23.4913 27.7863 23.6321 27.2573 23.8927Z"
            fill="#FFE15A" />
        <path
            d="M25.3373 24.3386C25.4288 24.4066 25.5184 24.4834 25.6085 24.5589C25.6984 24.4833 25.7881 24.4066 25.8797 24.3386C25.7896 24.2636 25.6998 24.1898 25.6085 24.1224C25.5172 24.1899 25.4274 24.2636 25.3373 24.3386Z"
            fill="#FFE15A" />
        <path
            d="M25.6085 23.2825C25.4939 23.3406 25.3793 23.4061 25.264 23.4743C25.3787 23.5345 25.4931 23.5992 25.6085 23.67C25.7238 23.5993 25.8384 23.5346 25.9529 23.4743C25.8377 23.406 25.723 23.3406 25.6085 23.2825Z"
            fill="#FFE15A" />
        <path
            d="M22.7887 27.7411C23.1746 26.1654 23.9019 25.0859 24.7159 24.3434C24.6021 24.263 24.4887 24.1893 24.3751 24.1211C23.5918 24.8099 22.883 25.8052 22.4463 27.2392C22.5469 27.4171 22.6607 27.5836 22.7887 27.7411Z"
            fill="#FFE15A" />
        <path
            d="M23.9592 23.8928C23.4302 23.6321 22.9438 23.4915 22.5814 23.4192C22.1898 24.0004 21.9608 24.7003 21.9608 25.4539C21.9608 25.8507 22.0401 26.2257 22.1574 26.5834C22.6145 25.3788 23.2565 24.5099 23.9592 23.8928Z"
            fill="#FFE15A" />
        <path
            d="M25.6086 22.8731C26.3846 22.5525 27.1004 22.4386 27.6095 22.4086C27.0346 22.0301 26.3483 21.8065 25.6086 21.8065C24.8688 21.8065 24.1826 22.0302 23.6077 22.4086C24.1168 22.4386 24.8326 22.5524 25.6086 22.8731Z"
            fill="#FFE15A" />
        <path
            d="M25.6082 25.1376C24.8808 25.9437 24.2804 27.1011 24.0856 28.7588C24.5502 28.9734 25.0628 29.1013 25.6082 29.1013C26.1537 29.1013 26.6662 28.9734 27.1309 28.7588C26.9361 27.1012 26.3357 25.9437 25.6082 25.1376Z"
            fill="#FFE15A" />
        <path
            d="M26.842 24.1211C26.7285 24.1895 26.6151 24.263 26.5012 24.3434C27.3151 25.0858 28.0425 26.1654 28.4284 27.7411C28.5564 27.5835 28.6701 27.4171 28.7708 27.2392C28.3342 25.8053 27.6253 24.8099 26.842 24.1211Z"
            fill="#FFE15A" />
        <path
            d="M28.0305 28.1624C27.7069 26.5121 26.99 25.3748 26.1706 24.5948C26.0813 24.6686 25.9931 24.7466 25.9057 24.829C26.7307 25.6268 27.4277 26.7853 27.6654 28.4636C27.7961 28.3741 27.9129 28.2677 28.0305 28.1624Z"
            fill="#FFE15A" />
        <path
            d="M26.0524 23.0787C26.1653 23.1364 26.2781 23.1963 26.3913 23.2638C27.0672 22.9731 27.6763 22.8478 28.0971 22.8002C28.0333 22.7403 27.9626 22.6883 27.8944 22.6329C27.441 22.6676 26.7822 22.7792 26.0524 23.0787Z"
            fill="#FFE15A" />
        <path
            d="M26.2237 24.1041C26.3424 24.0282 26.4604 23.9592 26.5783 23.8942C26.482 23.8191 26.3843 23.7544 26.2867 23.6876C26.1729 23.7503 26.0587 23.8145 25.944 23.8876C26.038 23.9544 26.1309 24.0295 26.2237 24.1041Z"
            fill="#FFE15A" />
        <path
            d="M26.9959 23.6826C27.5597 23.4235 28.0764 23.2809 28.4608 23.2063C28.4036 23.1341 28.3475 23.0612 28.2851 22.9935C27.8935 23.0542 27.3353 23.1895 26.7152 23.4717C26.8097 23.5365 26.9027 23.6097 26.9959 23.6826Z"
            fill="#FFE15A" />
    </g>
    <defs>
        <clipPath id="clip0_9_2884">
            <rect width="50" height="50" fill="white" transform="translate(0.609375 0.453369)" />
        </clipPath>
    </defs>
</svg>
