<svg width="51" height="51" viewBox="0 0 51 51" fill="none" xmlns="http://www.w3.org/2000/svg">
    <g clip-path="url(#clip0_9_2878)">
        <path
            d="M50.0385 15.9708H0.0385742V9.9362C0.0385742 9.46013 0.424609 9.0741 0.900682 9.0741H49.1765C49.6525 9.0741 50.0386 9.46013 50.0386 9.9362L50.0385 15.9708Z"
            fill="#FF4B55" />
        <path
            d="M49.1759 41.8327H0.900194C0.42412 41.8327 0.0380859 41.4467 0.0380859 40.9706V34.9362H50.038V40.9706C50.038 41.4468 49.652 41.8327 49.1759 41.8327Z"
            fill="#FF4B55" />
        <path d="M50.0385 15.9711H0.0385742V34.9369H50.0385V15.9711Z" fill="#41479B" />
        <path
            d="M25.0384 32.35C28.8473 32.35 31.9349 29.2623 31.9349 25.4535C31.9349 21.6447 28.8473 18.557 25.0384 18.557C21.2296 18.557 18.142 21.6447 18.142 25.4535C18.142 29.2623 21.2296 32.35 25.0384 32.35Z"
            fill="#F5F5F5" />
    </g>
    <defs>
        <clipPath id="clip0_9_2878">
            <rect width="50" height="50" fill="white" transform="translate(0.0390625 0.453369)" />
        </clipPath>
    </defs>
</svg>
