<svg width="51" height="51" viewBox="0 0 51 51" fill="none" xmlns="http://www.w3.org/2000/svg">
    <g clip-path="url(#clip0_9_2864)">
        <path
            d="M0.1922 31.0479H50.1921V41.1053C50.1921 41.5813 49.8061 41.9674 49.33 41.9674H1.05431C0.578234 41.9674 0.1922 41.5813 0.1922 41.1053V31.0479Z"
            fill="#73AF00" />
        <path
            d="M1.05431 9.20886H49.3301C49.8062 9.20886 50.1922 9.5949 50.1922 10.071V20.1284H0.1922V10.0709C0.1922 9.5948 0.578234 9.20886 1.05431 9.20886Z"
            fill="#41479B" />
        <path d="M50.1921 20.1282H0.1922V31.0471H50.1921V20.1282Z" fill="#F5F5F5" />
        <path
            d="M28.1687 27.5327L27.9683 27.6348C27.9411 27.6486 27.9117 27.6606 27.8838 27.6741L26.1136 25.438C26.4775 24.6471 26.6931 23.5676 26.6931 23.0769C26.6931 22.2705 26.164 21.5987 25.4678 21.4566C25.4212 21.3515 25.3164 21.2778 25.1939 21.2778C25.0714 21.2778 24.9666 21.3515 24.92 21.4566C24.2239 21.5987 23.6947 22.2706 23.6947 23.0769C23.6947 23.5676 23.9104 24.647 24.2742 25.438L22.5041 27.6741C22.4765 27.6607 22.4471 27.6488 22.42 27.6349L22.2196 27.5329L21.4717 29.003L21.6721 29.105C22.6927 29.6241 23.9105 29.8985 25.1939 29.8985C26.4774 29.8985 27.6956 29.6239 28.7164 29.1049L28.9167 29.0029L28.1687 27.5327ZM26.3932 23.0769C26.3932 23.4416 26.2578 24.2083 26.0068 24.9111C25.9737 25.0037 25.9398 25.0915 25.905 25.1747L25.6436 24.8444V23.6766H26.0934L25.4937 23.0769V21.7719C26.0101 21.9223 26.3932 22.4494 26.3932 23.0769ZM24.3809 24.911C24.1299 24.2082 23.9945 23.4415 23.9945 23.0768C23.9945 22.4494 24.3776 21.9223 24.8941 21.7718V23.0768L24.2944 23.6765H24.7442V24.8443L24.4828 25.1746C24.4479 25.0915 24.414 25.0036 24.3809 24.911ZM22.3645 28.2395L22.4257 28.4914L22.2059 28.5513L22.3645 28.2395ZM22.1029 28.8127L22.479 28.7101L22.548 28.9943C22.3963 28.9383 22.2472 28.8788 22.1029 28.8127ZM22.6731 28.2398C22.8442 28.3075 23.0222 28.3672 23.2052 28.4204L23.2593 28.5862L22.7858 28.703L22.6731 28.2398ZM22.8844 29.109L22.8388 28.9216L23.3293 28.8006L23.4813 29.2665C23.2779 29.2222 23.0789 29.1694 22.8844 29.109ZM23.5501 28.5106C23.7382 28.5545 23.9298 28.5923 24.1254 28.6209L24.2069 28.7666L23.6864 28.9288L23.5501 28.5106ZM23.8178 29.3314L23.7562 29.1427L24.319 28.9673L24.5741 29.4234C24.3175 29.4043 24.0652 29.3738 23.8178 29.3314ZM24.4939 28.6651C24.725 28.687 24.9586 28.6991 25.1938 28.6991C25.2439 28.6991 25.2937 28.6964 25.3437 28.6953L25.4063 28.7913L24.7145 29.0597L24.4939 28.6651ZM25.1938 29.4487C25.1046 29.4487 25.0167 29.4449 24.9283 29.4422L24.8253 29.2579L25.5318 28.9839L25.8182 29.423C25.6123 29.4383 25.4045 29.4487 25.1938 29.4487ZM25.6917 28.6802C25.9293 28.6642 26.1642 28.6372 26.3947 28.599L26.4622 28.6852L25.9145 29.0218L25.6917 28.6802ZM26.1553 29.3911L26.0374 29.2101L26.6016 28.8635L26.9153 29.2645C26.6676 29.3189 26.4139 29.3609 26.1553 29.3911ZM26.7262 28.5362C26.9223 28.4939 27.1143 28.4443 27.3002 28.3862L27.3701 28.4766L26.9719 28.8504L26.7262 28.5362ZM27.236 29.1879L27.111 29.0281L27.5082 28.6554L27.785 29.0138C27.606 29.0783 27.4237 29.1377 27.236 29.1879ZM27.5999 28.2836C27.7261 28.2367 27.8502 28.1874 27.9696 28.1332L28.0282 28.2485L27.8366 28.5903L27.5999 28.2836ZM28.077 28.9014L27.9861 28.7837L28.1509 28.4896L28.3099 28.8021C28.2338 28.8373 28.1551 28.869 28.077 28.9014Z"
            fill="#464655" />
    </g>
    <defs>
        <clipPath id="clip0_9_2864">
            <rect width="50" height="50" fill="white" transform="translate(0.191406 0.588135)" />
        </clipPath>
    </defs>
</svg>
