<svg width="51" height="51" viewBox="0 0 51 51" fill="none" xmlns="http://www.w3.org/2000/svg">
    <g clip-path="url(#clip0_9_2850)">
        <path
            d="M50.6043 12.4803H0.604431V10.3643C0.604431 9.88823 0.990466 9.5022 1.46654 9.5022H49.7423C50.2184 9.5022 50.6044 9.88823 50.6044 10.3643L50.6043 12.4803Z"
            fill="#FF4B55" />
        <path d="M50.6043 12.4812H0.604431V15.4592H50.6043V12.4812Z" fill="#F5F5F5" />
        <path d="M50.6043 15.4576H0.604431V18.4357H50.6043V15.4576Z" fill="#FF4B55" />
        <path d="M50.6043 18.4362H0.604431V21.4142H50.6043V18.4362Z" fill="#F5F5F5" />
        <path
            d="M50.6043 24.3926H1.46654C0.990466 24.3926 0.604431 24.0065 0.604431 23.5305V21.4146H50.6043V24.3926Z"
            fill="#FF4B55" />
        <path d="M50.6043 27.3705H0.604431V23.2953H1.46634L1.46654 24.3926H50.6043V27.3705Z"
            fill="#F5F5F5" />
        <path d="M50.6043 27.3707H0.604431V30.3487H50.6043V27.3707Z" fill="#FF4B55" />
        <path d="M50.6043 30.3483H0.604431V33.3263H50.6043V30.3483Z" fill="#F5F5F5" />
        <path d="M50.6043 33.3268H0.604431V36.3048H50.6043V33.3268Z" fill="#FF4B55" />
        <path d="M50.6043 36.3053H0.604431V39.2833H50.6043V36.3053Z" fill="#F5F5F5" />
        <path
            d="M49.7422 42.2607H1.46654C0.990466 42.2607 0.604431 41.8747 0.604431 41.3986V39.2827H50.6043V41.3986C50.6043 41.8748 50.2183 42.2607 49.7422 42.2607Z"
            fill="#FF4B55" />
        <path
            d="M14.3975 24.3926H1.46654C0.990466 24.3926 0.604431 24.0066 0.604431 23.5305V10.3643C0.604431 9.88823 0.990466 9.5022 1.46654 9.5022H14.3976C14.8736 9.5022 15.2597 9.88823 15.2597 10.3643V23.5305C15.2596 24.0066 14.8735 24.3926 14.3975 24.3926Z"
            fill="#41479B" />
        <path
            d="M7.68556 13.3559L6.86251 15.8237L4.26115 15.8438C4.01173 15.8457 3.90822 16.164 4.1089 16.3122L6.20157 17.8576L5.41691 20.3379C5.34171 20.5757 5.61251 20.7725 5.81544 20.6275L7.93204 19.1148L10.0484 20.6275C10.2514 20.7725 10.5222 20.5757 10.447 20.3379L9.66231 17.8576L11.755 16.3122C11.9557 16.1641 11.8521 15.8456 11.6027 15.8438L9.00137 15.8237L8.17833 13.3559C8.09923 13.1192 7.76456 13.1192 7.68556 13.3559Z"
            fill="#F5F5F5" />
    </g>
    <defs>
        <clipPath id="clip0_9_2850">
            <rect width="50" height="50" fill="white" transform="translate(0.603516 0.881348)" />
        </clipPath>
    </defs>
</svg>
