<svg width="51" height="51" viewBox="0 0 51 51" fill="none" xmlns="http://www.w3.org/2000/svg">
    <g clip-path="url(#clip0_9_2843)">
        <path
            d="M0.0312881 33.64H50.0312V41.3986C50.0312 41.8747 49.6452 42.2607 49.1691 42.2607H0.893396C0.417323 42.2607 0.0312881 41.8747 0.0312881 41.3986V33.64Z"
            fill="#73AF00" />
        <path
            d="M0.893396 9.5022H49.1692C49.6453 9.5022 50.0313 9.88823 50.0313 10.3643V18.1229H0.0312881V10.3642C0.0312881 9.88813 0.417323 9.5022 0.893396 9.5022Z"
            fill="#FF4B55" />
        <path d="M50.0312 18.1227H0.0312881V33.6402H50.0312V18.1227Z" fill="#464655" />
        <path
            d="M29.9205 23.0917L31.218 24.7889L33.2438 24.1107C33.3571 24.0728 33.4534 24.201 33.3856 24.2992L32.1724 26.0576L33.4433 27.7747C33.5143 27.8707 33.4223 28.0019 33.3078 27.9677L31.2606 27.3573L30.0203 29.0967C29.9509 29.1939 29.7977 29.1468 29.7947 29.0275L29.7427 26.8919L27.7052 26.2498C27.5913 26.2139 27.5886 26.0537 27.7013 26.0139L29.7163 25.3046L29.6975 23.1683C29.6964 23.0488 29.848 22.9968 29.9205 23.0917Z"
            fill="#F5F5F5" />
        <path
            d="M26.3986 30.0707C24.0869 30.0707 22.2115 28.1954 22.2115 25.8815C22.2115 23.5719 24.0868 21.6923 26.3986 21.6923C27.2588 21.6923 28.0519 21.9569 28.713 22.4046C28.8141 22.4732 28.9298 22.3402 28.845 22.2521C27.8571 21.225 26.4589 20.5984 24.9086 20.6513C22.2451 20.7421 20.0402 22.8776 19.8701 25.5371C19.6752 28.5834 22.0872 31.1151 25.0903 31.1151C26.5696 31.1151 27.8991 30.4966 28.8486 29.5077C28.9324 29.4203 28.8167 29.2894 28.7164 29.3573C28.0547 29.8058 27.2602 30.0707 26.3986 30.0707Z"
            fill="#F5F5F5" />
    </g>
    <defs>
        <clipPath id="clip0_9_2843">
            <rect width="50" height="50" fill="white" transform="translate(0.03125 0.881348)" />
        </clipPath>
    </defs>
</svg>
