<svg width="51" height="51" viewBox="0 0 51 51" fill="none" xmlns="http://www.w3.org/2000/svg">
<g clip-path="url(#clip0_9_2832)">
<path d="M50.3233 25.8814H0.323368V10.3642C0.323368 9.88811 0.709403 9.50208 1.18548 9.50208H49.4613C49.9373 9.50208 50.3234 9.88811 50.3234 10.3642L50.3233 25.8814Z" fill="#41479B"/>
<path d="M0.323368 25.8813H50.3233V41.3986C50.3233 41.8747 49.9372 42.2607 49.4612 42.2607H1.18548C0.709403 42.2607 0.323368 41.8747 0.323368 41.3986V25.8813Z" fill="#FF4B55"/>
<path d="M16.3418 19.3079C16.3306 19.2748 16.3053 19.2479 16.2726 19.2348C16.2693 19.2335 16.2017 19.2078 16.0931 19.1772C16.1408 19.1125 16.1745 19.0368 16.1745 18.9504C16.1745 18.8764 16.1482 18.8111 16.1122 18.7521C16.2315 18.6854 16.3156 18.5626 16.3156 18.4166C16.3156 18.3009 16.2625 18.1997 16.182 18.1284C16.2785 18.0575 16.3453 17.9486 16.3453 17.8201C16.3453 17.6766 16.2637 17.5562 16.1477 17.4886C16.2086 17.4199 16.2486 17.332 16.2486 17.2331C16.2486 17.0612 16.1347 16.9195 15.9796 16.8681C16.0149 16.8095 16.0408 16.7446 16.0408 16.6712C16.0408 16.4599 15.871 16.2891 15.6607 16.2837C15.6694 16.2513 15.6808 16.2198 15.6808 16.1846C15.6808 15.9699 15.506 15.7952 15.2912 15.7952C15.255 15.7952 15.2224 15.8066 15.1891 15.8159C15.1896 15.8073 15.194 15.7999 15.194 15.7911C15.194 15.5763 15.0193 15.4016 14.8046 15.4016C14.7308 15.4016 14.6657 15.4277 14.6067 15.4634C14.5613 15.2988 14.4166 15.1749 14.2378 15.1749C14.1305 15.1749 14.0332 15.2186 13.9627 15.2891C13.8968 15.1674 13.7723 15.0816 13.6244 15.0816C13.4894 15.0816 13.3763 15.1547 13.3063 15.2591C13.2353 15.1835 13.1361 15.135 13.0244 15.135C12.8803 15.135 12.7592 15.2173 12.6919 15.3339C12.6206 15.254 12.5197 15.2015 12.4044 15.2015C12.2618 15.2015 12.1423 15.2822 12.0744 15.3966C12.0081 15.3445 11.9283 15.3083 11.8377 15.3083C11.674 15.3083 11.5349 15.4105 11.4773 15.5539C11.4072 15.4862 11.3126 15.4434 11.2075 15.4434C11.059 15.4434 10.9339 15.5299 10.8683 15.6525C10.8396 15.6347 10.8103 15.6206 10.7773 15.6108C10.8595 15.4895 10.9074 15.3432 10.9074 15.186C10.9074 14.8808 10.7256 14.6189 10.4655 14.4979L10.5747 14.2794C10.5916 14.2457 10.5916 14.2057 10.5747 14.1719L10.4433 13.909C10.4528 13.9003 10.4619 13.8913 10.4706 13.8817L10.7338 14.0131C10.7507 14.0215 10.7689 14.0256 10.7873 14.0256C10.8057 14.0256 10.824 14.0212 10.8408 14.0128L11.4809 13.6928C11.5217 13.6724 11.5473 13.631 11.5473 13.5856C11.5473 13.5402 11.5216 13.4988 11.4809 13.4784L10.8408 13.1583C10.8071 13.1415 10.7673 13.1415 10.7336 13.1583L10.4707 13.2898C10.4619 13.2801 10.4527 13.2709 10.4432 13.2621L10.5746 12.9992C10.5915 12.9655 10.5915 12.9254 10.5746 12.8916L10.2546 12.2516C10.214 12.1704 10.0805 12.1704 10.0398 12.2516L9.71983 12.8916C9.70293 12.9253 9.70293 12.9655 9.71983 12.9992L9.85127 13.2621C9.8417 13.2707 9.83262 13.2798 9.82393 13.2894L9.56075 13.158C9.52705 13.1411 9.48721 13.1414 9.45352 13.1582L8.81348 13.4783C8.77266 13.4987 8.74708 13.5401 8.74708 13.5855C8.74708 13.6309 8.77276 13.6723 8.81348 13.6927L9.45352 14.0127C9.47041 14.0211 9.48868 14.0255 9.50704 14.0255C9.52549 14.0255 9.54375 14.0211 9.56055 14.0127L9.82344 13.8813C9.83223 13.891 9.84141 13.9001 9.85098 13.909L9.71954 14.1719C9.70264 14.2056 9.70264 14.2457 9.71954 14.2794L9.82871 14.4979C9.56866 14.6188 9.38682 14.8808 9.38682 15.186C9.38682 15.34 9.4336 15.483 9.5126 15.6028C9.46504 15.6119 9.42198 15.6278 9.38213 15.6526C9.31651 15.53 9.19141 15.4435 9.04288 15.4435C8.9379 15.4435 8.84317 15.4862 8.77305 15.554C8.71563 15.4106 8.57647 15.3084 8.4127 15.3084C8.32198 15.3084 8.2421 15.3446 8.17598 15.3967C8.10811 15.2823 7.98848 15.2016 7.846 15.2016C7.73067 15.2016 7.62979 15.2541 7.5585 15.334C7.49112 15.2173 7.37013 15.1351 7.22599 15.1351C7.11436 15.1351 7.01515 15.1837 6.94405 15.2592C6.87413 15.1548 6.76085 15.0817 6.62599 15.0817C6.47814 15.0817 6.35372 15.1675 6.28771 15.2892C6.2172 15.2187 6.11993 15.175 6.01261 15.175C5.8337 15.175 5.68898 15.2989 5.64366 15.4635C5.58488 15.4278 5.51964 15.4017 5.44581 15.4017C5.23107 15.4017 5.05636 15.5764 5.05636 15.7912C5.05636 15.7998 5.06076 15.8074 5.06134 15.816C5.02804 15.8067 4.99542 15.7953 4.95919 15.7953C4.74435 15.7953 4.56964 15.97 4.56964 16.1847C4.56964 16.2199 4.58097 16.2514 4.58966 16.2838C4.37941 16.2892 4.20959 16.46 4.20959 16.6713C4.20959 16.7447 4.23546 16.8096 4.27082 16.8682C4.11574 16.9196 4.00177 17.0612 4.00177 17.2332C4.00177 17.3321 4.04171 17.42 4.10265 17.4887C3.98683 17.5563 3.90509 17.6766 3.90509 17.8202C3.90509 17.9489 3.97189 18.0576 4.06837 18.1285C3.98791 18.1999 3.93478 18.301 3.93478 18.4167C3.93478 18.5627 4.01896 18.6855 4.1382 18.7522C4.10216 18.8113 4.07589 18.8765 4.07589 18.9505C4.07589 19.0414 4.11212 19.1215 4.16447 19.1878C4.07775 19.2135 4.02453 19.2337 4.0216 19.2349C3.98898 19.2481 3.96359 19.2748 3.95246 19.308C3.94123 19.3414 3.94523 19.3781 3.9632 19.4083C3.97267 19.424 4.91632 21.0085 5.22872 22.5702C5.23644 22.6089 5.26447 22.6338 5.29747 22.6494C5.53741 22.9736 7.61641 23.2269 10.1471 23.2269C12.6777 23.2269 14.7566 22.9736 14.9967 22.6494C15.0297 22.6337 15.0578 22.6089 15.0654 22.5702C15.3775 21.0097 16.3214 19.424 16.3309 19.4083C16.349 19.3781 16.353 19.3414 16.3418 19.3079Z" fill="#FFE15A"/>
<path d="M16.3418 19.3079C16.3306 19.2748 16.3053 19.2479 16.2726 19.2348C16.2693 19.2335 16.2017 19.2078 16.0931 19.1772C16.1408 19.1125 16.1745 19.0368 16.1745 18.9504C16.1745 18.8764 16.1482 18.8111 16.1122 18.7521C16.2315 18.6854 16.3156 18.5626 16.3156 18.4166C16.3156 18.3009 16.2625 18.1997 16.182 18.1284C16.2785 18.0575 16.3453 17.9486 16.3453 17.8201C16.3453 17.6766 16.2637 17.5562 16.1477 17.4886C16.2086 17.4199 16.2486 17.332 16.2486 17.2331C16.2486 17.0612 16.1347 16.9195 15.9796 16.8681C16.0149 16.8095 16.0408 16.7446 16.0408 16.6712C16.0408 16.4599 15.871 16.2891 15.6607 16.2837C15.6694 16.2513 15.6808 16.2198 15.6808 16.1846C15.6808 15.9699 15.506 15.7952 15.2912 15.7952C15.255 15.7952 15.2224 15.8066 15.1891 15.8159C15.1896 15.8073 15.194 15.7999 15.194 15.7911C15.194 15.5763 15.0193 15.4016 14.8046 15.4016C14.7308 15.4016 14.6657 15.4277 14.6067 15.4634C14.5613 15.2988 14.4166 15.1749 14.2378 15.1749C14.1305 15.1749 14.0332 15.2186 13.9627 15.2891C13.8968 15.1674 13.7723 15.0816 13.6244 15.0816C13.4894 15.0816 13.3763 15.1547 13.3063 15.2591C13.2353 15.1835 13.1361 15.135 13.0244 15.135C12.8803 15.135 12.7592 15.2173 12.6919 15.3339C12.6206 15.254 12.5197 15.2015 12.4044 15.2015C12.2618 15.2015 12.1423 15.2822 12.0744 15.3966C12.0081 15.3445 11.9283 15.3083 11.8377 15.3083C11.674 15.3083 11.5349 15.4105 11.4773 15.5539C11.4072 15.4862 11.3126 15.4434 11.2075 15.4434C11.059 15.4434 10.9339 15.5299 10.8683 15.6525C10.8396 15.6347 10.8103 15.6206 10.7773 15.6108C10.8595 15.4895 10.9074 15.3432 10.9074 15.186C10.9074 14.8808 10.7256 14.6189 10.4655 14.4979L10.5747 14.2794C10.5916 14.2457 10.5916 14.2057 10.5747 14.1719L10.4433 13.909C10.4528 13.9003 10.4619 13.8913 10.4706 13.8817L10.7338 14.0131C10.7507 14.0215 10.7689 14.0256 10.7873 14.0256C10.8057 14.0256 10.824 14.0212 10.8408 14.0128L11.4809 13.6928C11.5217 13.6724 11.5473 13.631 11.5473 13.5856C11.5473 13.5402 11.5216 13.4988 11.4809 13.4784L10.8408 13.1583C10.8071 13.1415 10.7673 13.1415 10.7336 13.1583L10.4707 13.2898C10.4619 13.2801 10.4527 13.2709 10.4432 13.2621L10.5746 12.9992C10.5915 12.9655 10.5915 12.9254 10.5746 12.8916L10.2546 12.2516C10.214 12.1704 10.0805 12.1704 10.0398 12.2516L9.71983 12.8916C9.70293 12.9253 9.70293 12.9655 9.71983 12.9992L9.85127 13.2621C9.8417 13.2707 9.83262 13.2798 9.82393 13.2894L9.56075 13.158C9.52705 13.1411 9.48721 13.1414 9.45352 13.1582L8.81348 13.4783C8.77266 13.4987 8.74708 13.5401 8.74708 13.5855C8.74708 13.6309 8.77276 13.6723 8.81348 13.6927L9.45352 14.0127C9.47041 14.0211 9.48868 14.0255 9.50704 14.0255C9.52549 14.0255 9.54375 14.0211 9.56055 14.0127L9.82344 13.8813C9.83223 13.891 9.84141 13.9001 9.85098 13.909L9.71954 14.1719C9.70264 14.2056 9.70264 14.2457 9.71954 14.2794L9.82871 14.4979C9.56866 14.6188 9.38682 14.8808 9.38682 15.186C9.38682 15.34 9.4336 15.483 9.5126 15.6028C9.46504 15.6119 9.42198 15.6278 9.38213 15.6526C9.31651 15.53 9.19141 15.4435 9.04288 15.4435C8.9379 15.4435 8.84317 15.4862 8.77305 15.554C8.71563 15.4106 8.57647 15.3084 8.4127 15.3084C8.32198 15.3084 8.2421 15.3446 8.17598 15.3967C8.10811 15.2823 7.98848 15.2016 7.846 15.2016C7.73067 15.2016 7.62979 15.2541 7.5585 15.334C7.49112 15.2173 7.37013 15.1351 7.22599 15.1351C7.11436 15.1351 7.01515 15.1837 6.94405 15.2592C6.87413 15.1548 6.76085 15.0817 6.62599 15.0817C6.47814 15.0817 6.35372 15.1675 6.28771 15.2892C6.2172 15.2187 6.11993 15.175 6.01261 15.175C5.8337 15.175 5.68898 15.2989 5.64366 15.4635C5.58488 15.4278 5.51964 15.4017 5.44581 15.4017C5.23107 15.4017 5.05636 15.5764 5.05636 15.7912C5.05636 15.7998 5.06076 15.8074 5.06134 15.816C5.02804 15.8067 4.99542 15.7953 4.95919 15.7953C4.74435 15.7953 4.56964 15.97 4.56964 16.1847C4.56964 16.2199 4.58097 16.2514 4.58966 16.2838C4.37941 16.2892 4.20959 16.46 4.20959 16.6713C4.20959 16.7447 4.23546 16.8096 4.27082 16.8682C4.11574 16.9196 4.00177 17.0612 4.00177 17.2332C4.00177 17.3321 4.04171 17.42 4.10265 17.4887C3.98683 17.5563 3.90509 17.6766 3.90509 17.8202C3.90509 17.9489 3.97189 18.0576 4.06837 18.1285C3.98791 18.1999 3.93478 18.301 3.93478 18.4167C3.93478 18.5627 4.01896 18.6855 4.1382 18.7522C4.10216 18.8113 4.07589 18.8765 4.07589 18.9505C4.07589 19.0414 4.11212 19.1215 4.16447 19.1878C4.07775 19.2135 4.02453 19.2337 4.0216 19.2349C3.98898 19.2481 3.96359 19.2748 3.95246 19.308C3.94123 19.3414 3.94523 19.3781 3.9632 19.4083C3.97267 19.424 4.91632 21.0085 5.22872 22.5702C5.23644 22.6089 5.26447 22.6338 5.29747 22.6494C5.53741 22.9736 7.61641 23.2269 10.1471 23.2269C12.6777 23.2269 14.7566 22.9736 14.9967 22.6494C15.0297 22.6337 15.0578 22.6089 15.0654 22.5702C15.3775 21.0097 16.3214 19.424 16.3309 19.4083C16.349 19.3781 16.353 19.3414 16.3418 19.3079ZM12.949 18.5349V16.6567C13.1013 16.6435 13.2493 16.6393 13.3917 16.6443V18.5954C13.2593 18.5315 13.1098 18.5128 12.949 18.5349ZM11.5676 15.9767C11.5709 15.9799 11.5756 15.9813 11.579 15.9844C11.5739 15.9855 11.5688 15.9866 11.5637 15.9877C11.5653 15.984 11.5662 15.9803 11.5676 15.9767ZM15.785 18.801C15.8673 18.801 15.9343 18.8679 15.9343 18.9503C15.9343 19.0328 15.8673 19.0996 15.785 19.0996C15.7026 19.0996 15.6356 19.0328 15.6356 18.9503C15.6356 18.8679 15.7026 18.801 15.785 18.801ZM15.9259 18.566C15.8435 18.566 15.7766 18.4991 15.7766 18.4166C15.7766 18.3341 15.8435 18.2673 15.9259 18.2673C16.0084 18.2673 16.0755 18.3342 16.0755 18.4166C16.0755 18.4992 16.0085 18.566 15.9259 18.566ZM15.8064 17.82C15.8064 17.7374 15.8734 17.6706 15.9558 17.6706C16.0381 17.6706 16.1051 17.7375 16.1051 17.82C16.1051 17.9025 16.0381 17.9693 15.9558 17.9693C15.8734 17.9693 15.8064 17.9025 15.8064 17.82ZM11.3435 19.3079C11.2001 18.7629 11.0141 17.9425 10.9355 17.1224C11.0181 17.0935 11.1599 17.0461 11.3435 16.9906V19.3079ZM9.34288 17.1322C9.2584 18.0049 9.05225 18.8791 8.90704 19.4173V16.9904C9.1129 17.0527 9.26729 17.1053 9.34288 17.1322ZM10.2966 16.146C10.2966 16.2286 10.2296 16.2954 10.1473 16.2954C10.0649 16.2954 9.99795 16.2285 9.99795 16.146C9.99795 16.0635 10.0649 15.9967 10.1473 15.9967C10.2296 15.9965 10.2966 16.0635 10.2966 16.146ZM8.68301 15.9775L8.68204 15.9773C8.68204 15.9773 8.68262 15.977 8.68282 15.9767C8.68292 15.977 8.68292 15.9773 8.68301 15.9775ZM4.29464 17.6706C4.37697 17.6706 4.44396 17.7375 4.44396 17.82C4.44396 17.9025 4.37697 17.9693 4.29464 17.9693C4.21232 17.9693 4.14533 17.9024 4.14533 17.82C4.14523 17.7374 4.21232 17.6706 4.29464 17.6706ZM4.47384 18.4166C4.47384 18.4992 4.40685 18.566 4.32453 18.566C4.24201 18.566 4.17492 18.4991 4.17492 18.4166C4.17492 18.3341 4.24191 18.2673 4.32453 18.2673C4.40685 18.2672 4.47384 18.334 4.47384 18.4166ZM4.46544 18.801C4.54777 18.801 4.61476 18.8679 4.61476 18.9503C4.61476 19.0328 4.54777 19.0996 4.46544 19.0996C4.38312 19.0996 4.31613 19.0328 4.31613 18.9503C4.31603 18.8679 4.38312 18.801 4.46544 18.801ZM5.08175 16.7789C5.31671 16.3989 5.7753 15.9459 6.62667 15.9459C7.45792 15.9459 8.63077 16.1999 9.38194 16.3867C9.38223 16.5496 9.37481 16.7165 9.36329 16.8845C8.85079 16.7061 6.81241 16.0537 5.94542 16.647C4.96427 17.3199 5.27433 18.6034 5.45763 19.1349C5.30158 19.0926 5.14376 19.0735 4.99269 19.0704C4.6383 18.3594 4.67384 17.439 5.08175 16.7789ZM5.75782 19.2513C5.67345 19.0551 5.1339 17.6981 5.93595 16.9642V19.3585C5.87833 19.3173 5.81857 19.2825 5.75782 19.2513ZM6.17599 16.7952C6.30275 16.7294 6.45216 16.6869 6.61866 16.6642V18.7999C6.37794 19.044 6.27091 19.3798 6.22374 19.6324C6.20851 19.6132 6.19171 19.5978 6.17589 19.5799V16.7952H6.17599ZM6.8588 16.6441C7.00118 16.6391 7.14923 16.6433 7.30147 16.6565V18.5328C7.2753 18.5304 7.24796 18.5237 7.22237 18.5237C7.1044 18.5237 6.99366 18.5484 6.89308 18.599C6.88067 18.6051 6.87062 18.6135 6.8587 18.6201V16.644H6.8588V16.6441ZM7.54151 16.6823C7.69024 16.702 7.83868 16.7279 7.98419 16.757V18.8114C7.83184 18.7063 7.6836 18.6303 7.54151 18.5839V16.6823ZM8.22432 16.8085C8.38165 16.8448 8.53018 16.8828 8.667 16.9209V19.4612C8.53467 19.2937 8.38223 19.1353 8.22432 18.9975V16.8085ZM9.6209 16.4473C9.80137 16.4942 9.94375 16.5331 10.0272 16.5567V18.5922C9.70196 18.6251 9.45342 18.7912 9.26377 18.9954C9.43272 18.2917 9.61465 17.3314 9.6209 16.4473ZM10.2672 16.5567C10.3485 16.5338 10.4851 16.4963 10.6587 16.4512C10.6653 17.3263 10.8438 18.2751 11.0111 18.9762C10.8238 18.7813 10.5818 18.6242 10.2673 18.5924V16.5568H10.2672V16.5567ZM11.5835 16.9211C11.7204 16.883 11.8688 16.845 12.0262 16.8087V19.0163C12.0262 19.0219 12.0286 19.0268 12.0294 19.0323C11.8678 19.1783 11.7147 19.3457 11.5835 19.5195V16.9211ZM12.2662 16.7572C12.4118 16.7281 12.5602 16.7022 12.7089 16.6825V18.5952C12.5665 18.6474 12.418 18.7303 12.2662 18.84V16.7572ZM13.6317 16.6644C13.7983 16.6871 13.9477 16.7294 14.0744 16.7953V19.6066C14.0744 19.6128 14.0769 19.6183 14.0779 19.6243C14.0756 19.6273 14.0728 19.6295 14.0705 19.6325C14.0207 19.3657 13.9021 19.0077 13.6317 18.7615V16.6644ZM14.3144 16.9644C15.1737 17.7511 14.4893 19.2598 14.4818 19.2758C14.481 19.2775 14.4812 19.2791 14.4807 19.2808C14.4236 19.3132 14.3685 19.3513 14.3144 19.3932V16.9644ZM14.3049 16.647C13.4551 16.065 11.4754 16.6822 10.9153 16.8747C10.9043 16.7114 10.8972 16.5491 10.8975 16.3905C11.6479 16.2033 12.8309 15.9459 13.6676 15.9459C14.5189 15.9459 14.9776 16.3989 15.2125 16.7789C15.6204 17.4391 15.656 18.3594 15.3017 19.0705C15.1347 19.0739 14.9597 19.0974 14.7878 19.1496C14.9703 18.6271 15.2949 17.3259 14.3049 16.647ZM15.8591 17.3825C15.7768 17.3825 15.7098 17.3156 15.7098 17.2331C15.7098 17.1506 15.7768 17.0838 15.8591 17.0838C15.9416 17.0838 16.0087 17.1507 16.0087 17.2331C16.0087 17.3156 15.9415 17.3825 15.8591 17.3825ZM15.8008 16.671C15.8008 16.7536 15.7338 16.8207 15.6512 16.8207C15.5688 16.8207 15.5018 16.7535 15.5018 16.671C15.5018 16.5885 15.5688 16.5217 15.6512 16.5217C15.7338 16.5217 15.8008 16.5885 15.8008 16.671ZM15.4408 16.1844C15.4408 16.2669 15.3738 16.3337 15.2912 16.3337C15.2089 16.3337 15.1419 16.2668 15.1419 16.1844C15.1419 16.1019 15.2089 16.0351 15.2912 16.0351C15.3736 16.035 15.4408 16.102 15.4408 16.1844ZM14.8046 15.6415C14.8869 15.6415 14.9539 15.7084 14.9539 15.7909C14.9539 15.8734 14.8869 15.9406 14.8046 15.9406C14.7221 15.9406 14.655 15.8733 14.655 15.7909C14.655 15.7084 14.7221 15.6415 14.8046 15.6415ZM14.2378 15.4149C14.3201 15.4149 14.3871 15.4818 14.3871 15.5642C14.3871 15.6467 14.3201 15.7135 14.2378 15.7135C14.1555 15.7135 14.0885 15.6466 14.0885 15.5642C14.0884 15.4818 14.1555 15.4149 14.2378 15.4149ZM13.6244 15.3214C13.7067 15.3214 13.7737 15.3883 13.7737 15.4707C13.7737 15.5533 13.7067 15.6205 13.6244 15.6205C13.5419 15.6205 13.4748 15.5532 13.4748 15.4707C13.4748 15.3884 13.5419 15.3214 13.6244 15.3214ZM13.0243 15.3749C13.1066 15.3749 13.1736 15.4418 13.1736 15.5243C13.1736 15.6067 13.1066 15.6736 13.0243 15.6736C12.9418 15.6736 12.8747 15.6067 12.8747 15.5243C12.8747 15.4418 12.9418 15.3749 13.0243 15.3749ZM12.4043 15.4415C12.4866 15.4415 12.5536 15.5084 12.5536 15.5909C12.5536 15.6734 12.4866 15.7406 12.4043 15.7406C12.3218 15.7406 12.2547 15.6733 12.2547 15.5909C12.2547 15.5084 12.3217 15.4415 12.4043 15.4415ZM11.8374 15.5484C11.9197 15.5484 11.9867 15.6153 11.9867 15.6977C11.9867 15.7801 11.9197 15.847 11.8374 15.847C11.7551 15.847 11.6881 15.7801 11.6881 15.6977C11.6881 15.6153 11.7551 15.5484 11.8374 15.5484ZM11.2074 15.6834C11.2897 15.6834 11.3567 15.7503 11.3567 15.8328C11.3567 15.9152 11.2897 15.9821 11.2074 15.9821C11.1251 15.9821 11.0581 15.9152 11.0581 15.8328C11.0581 15.7503 11.1249 15.6834 11.2074 15.6834ZM10.6673 16.1272C10.585 16.1272 10.518 16.0603 10.518 15.9779C10.518 15.8954 10.585 15.8286 10.6673 15.8286C10.7496 15.8286 10.8166 15.8955 10.8166 15.9779C10.8166 16.0604 10.7496 16.1272 10.6673 16.1272ZM9.94717 13.5856C9.94717 13.4752 10.0368 13.3856 10.1472 13.3856C10.2575 13.3856 10.3472 13.4752 10.3472 13.5856C10.3472 13.6959 10.2575 13.7856 10.1472 13.7856C10.0369 13.7857 9.94717 13.6959 9.94717 13.5856ZM10.7872 13.3997L11.159 13.5857L10.7872 13.7717L10.5789 13.6675C10.584 13.6409 10.5872 13.6137 10.5872 13.5857C10.5872 13.5577 10.584 13.5304 10.5789 13.5038L10.7872 13.3997ZM9.96133 12.9455L10.1471 12.5738L10.3328 12.9455L10.2286 13.1538C10.2022 13.1487 10.1749 13.1455 10.147 13.1455C10.1189 13.1455 10.0918 13.1487 10.0653 13.1538L9.96133 12.9455ZM9.50704 13.7715L9.13526 13.5855L9.50704 13.3995L9.71534 13.5037C9.71026 13.5303 9.70703 13.5575 9.70703 13.5855C9.70703 13.6135 9.71026 13.6408 9.71534 13.6674L9.50704 13.7715ZM9.96133 14.2256L10.0655 14.0173C10.092 14.0224 10.1192 14.0256 10.1472 14.0256C10.1751 14.0256 10.2023 14.0224 10.2288 14.0173L10.333 14.2256L10.2289 14.4339C10.2018 14.431 10.1752 14.4256 10.1473 14.4256C10.1192 14.4256 10.0928 14.4309 10.0656 14.4339L9.96133 14.2256ZM10.1472 14.6658C10.4339 14.6658 10.6672 14.899 10.6672 15.1858C10.6672 15.4727 10.4339 15.7058 10.1472 15.7058C9.86045 15.7058 9.62715 15.4726 9.62715 15.1858C9.62715 14.899 9.86036 14.6658 10.1472 14.6658ZM9.58321 15.8285C9.66553 15.8285 9.73252 15.8954 9.73252 15.9778C9.73252 16.0603 9.66553 16.1271 9.58321 16.1271C9.50088 16.1271 9.43389 16.0602 9.43389 15.9778C9.43379 15.8953 9.50079 15.8285 9.58321 15.8285ZM9.04317 15.6834C9.12549 15.6834 9.19249 15.7503 9.19249 15.8328C9.19249 15.9152 9.12549 15.9821 9.04317 15.9821C8.96085 15.9821 8.89385 15.9152 8.89385 15.8328C8.89385 15.7503 8.96075 15.6834 9.04317 15.6834ZM8.41299 15.5484C8.49532 15.5484 8.56231 15.6153 8.56231 15.6977C8.56231 15.7801 8.49532 15.847 8.41299 15.847C8.33067 15.847 8.26368 15.7801 8.26368 15.6977C8.26368 15.6153 8.33067 15.5484 8.41299 15.5484ZM7.8463 15.4415C7.92882 15.4415 7.99591 15.5084 7.99591 15.5909C7.99591 15.6734 7.92891 15.7406 7.8463 15.7406C7.76397 15.7406 7.69698 15.6733 7.69698 15.5909C7.69679 15.5084 7.76387 15.4415 7.8463 15.4415ZM7.22618 15.3749C7.3087 15.3749 7.37579 15.4418 7.37579 15.5243C7.37579 15.6067 7.3088 15.6736 7.22618 15.6736C7.14386 15.6736 7.07686 15.6067 7.07686 15.5243C7.07686 15.4418 7.14386 15.3749 7.22618 15.3749ZM6.62599 15.3214C6.70851 15.3214 6.7756 15.3883 6.7756 15.4707C6.7756 15.5533 6.7086 15.6205 6.62599 15.6205C6.54366 15.6205 6.47667 15.5532 6.47667 15.4707C6.47667 15.3884 6.54366 15.3214 6.62599 15.3214ZM6.01271 15.4149C6.09503 15.4149 6.16202 15.4818 6.16202 15.5642C6.16202 15.6467 6.09503 15.7135 6.01271 15.7135C5.93038 15.7135 5.86339 15.6466 5.86339 15.5642C5.86329 15.4818 5.93038 15.4149 6.01271 15.4149ZM5.44591 15.6415C5.52843 15.6415 5.59552 15.7084 5.59552 15.7909C5.59552 15.8734 5.52853 15.9406 5.44591 15.9406C5.36359 15.9406 5.29659 15.8733 5.29659 15.7909C5.2965 15.7084 5.36349 15.6415 5.44591 15.6415ZM4.95929 16.035C5.04162 16.035 5.10861 16.1019 5.10861 16.1843C5.10861 16.2668 5.04162 16.3336 4.95929 16.3336C4.87677 16.3336 4.80968 16.2667 4.80968 16.1843C4.80978 16.102 4.87677 16.035 4.95929 16.035ZM4.59923 16.5217C4.68156 16.5217 4.74855 16.5886 4.74855 16.671C4.74855 16.7536 4.68156 16.8207 4.59923 16.8207C4.51671 16.8207 4.44962 16.7535 4.44962 16.671C4.44962 16.5885 4.51681 16.5217 4.59923 16.5217ZM4.39132 17.0836C4.47365 17.0836 4.54064 17.1505 4.54064 17.2329C4.54064 17.3155 4.47365 17.3823 4.39132 17.3823C4.3088 17.3823 4.24171 17.3154 4.24171 17.2329C4.24191 17.1504 4.3089 17.0836 4.39132 17.0836ZM14.8524 22.4224C14.299 22.1487 12.4052 21.9467 10.1473 21.9467C7.88936 21.9467 5.99542 22.1487 5.44201 22.4224C5.15578 21.0973 4.4714 19.8153 4.24328 19.4123C4.62335 19.2957 5.71144 19.0645 6.19933 20.0403C6.22433 20.09 6.28048 20.1162 6.33429 20.1035C6.38849 20.0907 6.42687 20.0422 6.42687 19.9866C6.42687 19.9779 6.43341 19.0973 7.0006 18.8136C7.56222 18.5342 8.47081 19.4618 8.75987 20.0404C8.75987 20.0404 8.76016 20.0406 8.76016 20.0408C8.76963 20.0596 8.78545 20.0742 8.80372 20.0859C8.80752 20.0882 8.81104 20.0904 8.81514 20.0922C8.82032 20.0948 8.82442 20.0988 8.83008 20.1006C8.84249 20.1047 8.85499 20.1066 8.86719 20.1066C8.86944 20.1066 8.87129 20.1046 8.87354 20.1045C8.87588 20.1045 8.87774 20.106 8.88018 20.1059C8.89151 20.1046 8.89981 20.0969 8.90997 20.0927C8.92071 20.0884 8.93155 20.0864 8.94063 20.0792C8.95176 20.0705 8.95762 20.0579 8.96524 20.0457C8.97022 20.0376 8.97852 20.0328 8.98165 20.0235C8.98516 20.0124 9.0001 19.9659 9.02217 19.8932C9.12706 19.59 9.45938 18.8265 10.1476 18.8265C10.7316 18.8265 11.0593 19.3766 11.2094 19.7286C11.2583 19.8976 11.2928 20.0059 11.2985 20.0235C11.3151 20.0744 11.3621 20.1066 11.4128 20.1066C11.425 20.1066 11.4375 20.1047 11.4499 20.1006C11.4521 20.0998 11.4536 20.0982 11.4558 20.0974C11.4892 20.0889 11.5193 20.0722 11.5353 20.0404C11.8245 19.4615 12.7339 18.5361 13.2945 18.8136C13.3322 18.8325 13.3671 18.8543 13.3999 18.8781C13.4324 18.9055 13.4544 18.9258 13.4915 18.9556C13.8611 19.3163 13.8683 19.9788 13.8683 19.9866C13.8684 20.0421 13.9067 20.0907 13.9608 20.1035C14.0153 20.116 14.0709 20.09 14.0958 20.0403C14.5827 19.0666 15.671 19.2964 16.0517 19.4127C15.8228 19.816 15.1387 21.0977 14.8524 22.4224Z" fill="#464655"/>
<path d="M10.6214 19.784C10.6059 19.7968 10.5908 19.8104 10.5757 19.8244C10.4593 19.934 10.2678 19.8479 10.2678 19.688V19.6664C10.2678 19.6001 10.214 19.5464 10.1478 19.5464C10.0816 19.5464 10.0278 19.6002 10.0278 19.6664V19.688C10.0278 19.8479 9.83638 19.934 9.71987 19.8244C9.70503 19.8104 9.6897 19.797 9.67417 19.784C9.62319 19.7421 9.54741 19.7483 9.50523 19.7999C9.46284 19.8509 9.46988 19.9266 9.52095 19.9689C9.84888 20.2405 10.0276 20.8828 10.0276 21.1366V21.2667C10.0276 21.333 10.0814 21.3867 10.1476 21.3867C10.2138 21.3867 10.2676 21.3329 10.2676 21.2667V21.1366C10.2676 20.8828 10.4464 20.2406 10.7743 19.9689C10.8253 19.9265 10.8324 19.8509 10.79 19.7999C10.7481 19.7488 10.6724 19.7422 10.6214 19.784Z" fill="#464655"/>
<path d="M13.3427 20.2882C13.3285 20.2871 13.3145 20.2867 13.3004 20.2871C13.188 20.2949 13.0782 20.1353 13.1327 20.0115C13.135 20.0063 13.1373 20.001 13.1396 19.9957C13.1606 19.9479 13.1446 19.8696 13.1046 19.8187C13.0646 19.7679 13.0128 19.7706 12.988 19.8269C12.9854 19.8329 12.9827 19.8388 12.98 19.845C12.9233 19.9737 12.7601 19.9352 12.7345 19.746C12.7312 19.7217 12.7279 19.697 12.7241 19.6724C12.7115 19.5924 12.6655 19.5369 12.6165 19.5591C12.5678 19.5804 12.5349 19.6701 12.5466 19.7514C12.616 20.2879 12.5364 20.8537 12.4455 21.0595C12.4296 21.0958 12.4135 21.1322 12.3976 21.1686C12.3728 21.2246 12.4044 21.268 12.4687 21.2633C12.5332 21.2584 12.6032 21.2142 12.6243 21.1664C12.6383 21.1348 12.6522 21.1031 12.6661 21.0713C12.7522 20.875 13.1131 20.4398 13.4087 20.4623C13.4562 20.462 13.4765 20.4311 13.4575 20.3846C13.4387 20.3385 13.3886 20.2921 13.3427 20.2882Z" fill="#464655"/>
<path d="M15.1232 20.6616C15.1114 20.6616 15.0998 20.6623 15.088 20.6637C14.9937 20.6794 14.9137 20.533 14.9682 20.4092C14.9704 20.404 14.9728 20.3987 14.9751 20.3934C14.9961 20.3456 14.9885 20.2709 14.9588 20.2247C14.9292 20.1785 14.8858 20.1849 14.861 20.2412C14.8584 20.2473 14.8557 20.2531 14.8529 20.2592C14.7963 20.3879 14.663 20.3625 14.6553 20.1813C14.6544 20.158 14.6533 20.1344 14.6521 20.1108C14.6475 20.0344 14.6131 19.984 14.5705 20.0091C14.5282 20.0333 14.4944 20.1225 14.4983 20.2003C14.517 20.7146 14.4094 21.2681 14.3185 21.4738C14.3026 21.5101 14.2864 21.5465 14.2705 21.5829C14.2458 21.6389 14.2691 21.6786 14.3231 21.6694C14.3773 21.6599 14.4389 21.6121 14.4599 21.5642C14.4738 21.5326 14.4878 21.5009 14.5017 21.4691C14.5878 21.2728 14.9206 20.8253 15.1655 20.8256C15.2053 20.8218 15.2243 20.7904 15.212 20.7468C15.1997 20.7033 15.1612 20.6619 15.1232 20.6616Z" fill="#464655"/>
<path d="M7.84853 21.0597C7.75761 20.8541 7.67802 20.2882 7.74746 19.7516C7.75918 19.6705 7.72627 19.5808 7.67754 19.5594C7.62851 19.5372 7.58242 19.5927 7.56992 19.6726C7.56611 19.6972 7.56279 19.7218 7.55957 19.7463C7.53379 19.9354 7.3707 19.9737 7.31406 19.8452C7.31133 19.8391 7.30879 19.8331 7.30605 19.8271C7.28125 19.7708 7.22959 19.7681 7.18945 19.8189C7.14951 19.8698 7.1334 19.948 7.15439 19.996C7.15664 20.0013 7.15898 20.0065 7.16133 20.0117C7.21582 20.1355 7.10596 20.2951 6.99365 20.2874C6.97949 20.287 6.96553 20.2874 6.95137 20.2885C6.90547 20.2924 6.85527 20.3387 6.83633 20.3849C6.81738 20.4314 6.8376 20.4623 6.88515 20.4627C7.18076 20.44 7.5416 20.8753 7.62773 21.0717C7.6416 21.1033 7.65566 21.135 7.66953 21.1668C7.69053 21.2146 7.76054 21.2588 7.82509 21.2637C7.88955 21.2684 7.92099 21.2251 7.89629 21.1689C7.88047 21.1324 7.86455 21.0961 7.84853 21.0597Z" fill="#464655"/>
<path d="M5.97536 21.4737C5.88454 21.268 5.77682 20.7145 5.79557 20.2002C5.79948 20.1224 5.7654 20.0333 5.72331 20.0089C5.68073 19.9838 5.64636 20.0342 5.64177 20.1107C5.6404 20.1342 5.63942 20.1578 5.63854 20.1812C5.63093 20.3624 5.49763 20.3877 5.44089 20.259C5.43815 20.253 5.43561 20.2469 5.43288 20.2411C5.40808 20.1847 5.36472 20.1784 5.33503 20.2246C5.30544 20.2708 5.29763 20.3455 5.31872 20.3933C5.32097 20.3986 5.32331 20.4039 5.32565 20.409C5.38015 20.5329 5.30007 20.6793 5.20583 20.6635C5.19401 20.6622 5.18229 20.6615 5.17067 20.6615C5.13259 20.6618 5.09421 20.7031 5.08171 20.7465C5.06931 20.7901 5.08854 20.8215 5.12819 20.8254C5.37311 20.8251 5.70602 21.2725 5.79206 21.4689C5.80593 21.5005 5.81999 21.5323 5.83386 21.564C5.85485 21.6119 5.91657 21.6597 5.97067 21.6692C6.02477 21.6785 6.04792 21.6388 6.02321 21.5827C6.00739 21.5464 5.99137 21.51 5.97536 21.4737Z" fill="#464655"/>
</g>
<defs>
<clipPath id="clip0_9_2832">
<rect width="50" height="50" fill="white" transform="translate(0.324219 0.881348)"/>
</clipPath>
</defs>
</svg>
