<svg width="51" height="51" viewBox="0 0 51 51" fill="none" xmlns="http://www.w3.org/2000/svg">
<g clip-path="url(#clip0_9_2809)">
<path d="M49.7476 42.2608H1.47189C0.995821 42.2608 0.609787 41.8748 0.609787 41.3987V10.3643C0.609787 9.88823 0.995821 9.5022 1.47189 9.5022H49.7477C50.2238 9.5022 50.6098 9.88823 50.6098 10.3643V41.3987C50.6097 41.8749 50.2237 42.2608 49.7476 42.2608Z" fill="#5AA587"/>
<path d="M27.6728 30.3355C28.6393 30.5665 29.6709 30.5845 30.7026 30.3283C32.5202 29.8771 33.9579 28.692 34.7934 27.1704C33.3432 26.2163 31.5182 25.8414 29.7006 26.2927C28.7234 26.5354 27.8662 27.0006 27.1437 27.6062C27.1505 27.5971 27.1562 27.5882 27.163 27.5791C29.8395 25.1655 32.8274 25.9447 32.8274 25.9447L33.5344 25.3407C33.5344 25.3407 30.5205 24.2994 27.8209 26.5325C29.4917 23.2978 27.6888 20.523 27.6888 20.523L27.273 21.3545C27.273 21.3545 28.7723 24.1039 27.0182 27.3118C27.0161 27.3142 27.0141 27.3167 27.012 27.3191C27.4395 26.4605 27.6888 25.498 27.6888 24.4731C27.6888 22.6003 26.8852 20.9194 25.6097 19.7418C24.3343 20.9194 23.5306 22.6003 23.5306 24.4731C23.5306 25.4981 23.7798 26.4605 24.2073 27.3191C24.2053 27.3167 24.2032 27.3141 24.2012 27.3118C22.4471 24.1039 23.9464 21.3545 23.9464 21.3545L23.5306 20.523C23.5306 20.523 21.7278 23.2978 23.3985 26.5325C20.6989 24.2995 17.685 25.3407 17.685 25.3407L18.3919 25.9447C18.3919 25.9447 21.3798 25.1654 24.0564 27.5791C24.0632 27.5882 24.0689 27.5971 24.0757 27.6062C23.3532 27.0006 22.4959 26.5354 21.5188 26.2927C19.7012 25.8414 17.8762 26.2163 16.426 27.1704C17.2615 28.692 18.6991 29.877 20.5168 30.3283C21.5485 30.5845 22.5802 30.5665 23.5467 30.3355C19.9456 31.3423 17.5904 29.1733 17.5904 29.1733L16.683 29.3764C16.683 29.3764 20.3226 33.2791 25.6097 29.4506C30.8968 33.279 34.5363 29.3764 34.5363 29.3764L33.629 29.1733C33.6292 29.1733 31.2738 31.3422 27.6728 30.3355Z" fill="#F5F5F5"/>
<path d="M20.3561 34.8279C20.7318 35.0612 21.1247 35.2691 21.5315 35.4516H29.6895C30.0965 35.2691 30.4892 35.0612 30.8649 34.8279H20.3561Z" fill="#F5F5F5"/>
<path d="M22.2625 35.7463C23.3092 36.1192 24.4358 36.3237 25.6106 36.3237C26.7854 36.3237 27.912 36.1191 28.9587 35.7463H22.2625Z" fill="#F5F5F5"/>
<path d="M18.1439 32.9625C18.2699 33.1044 18.3987 33.2438 18.5324 33.3783H32.6886C32.8223 33.2438 32.9511 33.1045 33.0771 32.9625H18.1439Z" fill="#F5F5F5"/>
<path d="M19.0567 33.8663C19.265 34.048 19.4799 34.222 19.703 34.3861H31.5186C31.7415 34.2219 31.9567 34.0479 32.1649 33.8663H19.0567Z" fill="#F5F5F5"/>
<path d="M29.7684 31.8539C27.4396 31.8539 25.8463 30.2974 25.8304 30.2816L25.6097 30.0623L25.3897 30.282C25.3739 30.2978 23.7908 31.8539 21.4521 31.8539H17.2903C17.4323 32.068 17.5833 32.2755 17.7411 32.4776H21.4523C23.5443 32.4776 25.0632 31.3833 25.6104 30.922C26.1576 31.3833 27.6764 32.4776 29.7685 32.4776H33.4798C33.6375 32.2755 33.7884 32.068 33.9305 31.8539H29.7684Z" fill="#F5F5F5"/>
<path d="M25.501 15.5182L25.1362 16.6122L23.983 16.6212C23.8724 16.6221 23.8265 16.7632 23.9155 16.8288L24.8433 17.514L24.4955 18.6136C24.4621 18.7191 24.5822 18.8063 24.6722 18.7419L25.6105 18.0713L26.5488 18.7419C26.6387 18.8063 26.7588 18.719 26.7255 18.6136L26.3777 17.514L27.3055 16.8288C27.3945 16.7631 27.3486 16.622 27.238 16.6212L26.0848 16.6122L25.72 15.5182C25.6844 15.4132 25.536 15.4132 25.501 15.5182Z" fill="#FFE15A"/>
<path d="M20.0431 17.7575L20.2543 18.5245L19.597 18.9726C19.5339 19.0156 19.5618 19.1142 19.6382 19.1176L20.433 19.1538L20.6561 19.9175C20.6775 19.9907 20.7798 19.9945 20.8066 19.9231L21.0866 19.1784L21.8818 19.2022C21.9581 19.2045 21.9934 19.1084 21.9338 19.0608L21.312 18.5643L21.5805 17.8154C21.6063 17.7435 21.5257 17.6804 21.462 17.7224L20.7978 18.1602L20.1685 17.6735C20.1078 17.6268 20.0228 17.684 20.0431 17.7575Z" fill="#FFE15A"/>
<path d="M16.8612 21.6209L17.4365 22.1705L17.1028 22.8926C17.0707 22.962 17.1454 23.0321 17.2124 22.9959L17.9128 22.6186L18.4965 23.1592C18.5525 23.2111 18.6422 23.1618 18.6287 23.0868L18.4863 22.3041L19.1808 21.9159C19.2474 21.8787 19.2284 21.7781 19.1527 21.7679L18.3642 21.6615L18.2097 20.881C18.195 20.8061 18.0933 20.7933 18.0603 20.8621L17.7154 21.579L16.9254 21.4846C16.8496 21.4755 16.806 21.5681 16.8612 21.6209Z" fill="#FFE15A"/>
<path d="M31.3581 17.7575L31.1469 18.5245L31.8042 18.9726C31.8673 19.0156 31.8394 19.1142 31.763 19.1176L30.9682 19.1538L30.7451 19.9175C30.7236 19.9907 30.6214 19.9945 30.5945 19.9231L30.3146 19.1784L29.5193 19.2022C29.4431 19.2045 29.4078 19.1084 29.4674 19.0608L30.0892 18.5643L29.8207 17.8154C29.7949 17.7435 29.8755 17.6804 29.9392 17.7224L30.6034 18.1602L31.2327 17.6735C31.2934 17.6268 31.3783 17.684 31.3581 17.7575Z" fill="#FFE15A"/>
<path d="M34.54 21.6209L33.9647 22.1705L34.2984 22.8926C34.3304 22.962 34.2558 23.0321 34.1887 22.9959L33.4883 22.6186L32.9046 23.1592C32.8487 23.2111 32.7589 23.1618 32.7725 23.0868L32.9149 22.3041L32.2204 21.9159C32.1538 21.8787 32.1728 21.7781 32.2485 21.7679L33.037 21.6615L33.1915 20.881C33.2062 20.8061 33.3079 20.7933 33.3409 20.8621L33.6858 21.579L34.4757 21.4846C34.5515 21.4755 34.5952 21.5681 34.54 21.6209Z" fill="#FFE15A"/>
</g>
<defs>
<clipPath id="clip0_9_2809">
<rect width="50" height="50" fill="white" transform="translate(0.609375 0.881348)"/>
</clipPath>
</defs>
</svg>
