<svg width="51" height="51" viewBox="0 0 51 51" fill="none" xmlns="http://www.w3.org/2000/svg">
<g clip-path="url(#clip0_9_2799)">
<path d="M33.8025 8.6366H49.607C50.0831 8.6366 50.4692 9.02263 50.4692 9.49871V40.5332C50.4692 41.0093 50.0831 41.3953 49.607 41.3953H33.8025V8.6366Z" fill="#41479B"/>
<path d="M33.8032 8.63708H17.1362V41.3959H33.8032V8.63708Z" fill="#FFE15A"/>
<path d="M1.33144 8.6366H17.136V41.3952H1.33144C0.855365 41.3952 0.46933 41.0092 0.46933 40.5331V9.49861C0.46933 9.02253 0.855365 8.6366 1.33144 8.6366Z" fill="#41479B"/>
<path d="M29.7796 22.8607H27.6244V20.7056L28.9174 18.9814H27.6244H23.314H22.021L23.314 20.7056V22.8607H21.1588L19.4347 21.5677V22.8607V27.1711V28.4642L21.1588 27.1711H23.314V29.3263L22.021 31.0504H23.314H27.6244H28.9174L27.6244 29.3263V27.1711H29.7796L31.5037 28.4642V27.1711V22.8607V21.5677L29.7796 22.8607Z" fill="#FF4B55"/>
<path d="M29.7796 24.1538H26.3313V20.7056H24.6071V24.1538H21.1589V25.878H24.6071V29.3263H26.3313V25.878H29.7796V24.1538Z" fill="#F5F5F5"/>
</g>
<defs>
<clipPath id="clip0_9_2799">
<rect width="50" height="50" fill="white" transform="translate(0.46875 0.0161133)"/>
</clipPath>
</defs>
</svg>
