<svg width="51" height="51" viewBox="0 0 51 51" fill="none" xmlns="http://www.w3.org/2000/svg">
<g clip-path="url(#clip0_9_2780)">
<path d="M50.8981 11.8421H0.898163V10.3643C0.898163 9.88823 1.2842 9.5022 1.76027 9.5022H50.0361C50.5121 9.5022 50.8982 9.88823 50.8982 10.3643L50.8981 11.8421Z" fill="#FF4B55"/>
<path d="M50.8981 11.8414H0.898163V14.1813H50.8981V11.8414Z" fill="#F5F5F5"/>
<path d="M50.8981 14.1824H0.898163V16.5222H50.8981V14.1824Z" fill="#FF4B55"/>
<path d="M50.8981 16.5212H0.898163V18.8611H50.8981V16.5212Z" fill="#F5F5F5"/>
<path d="M50.8981 18.8619H0.898163V21.2018H50.8981V18.8619Z" fill="#FF4B55"/>
<path d="M50.8981 21.2018H0.898163V23.5416H50.8981V21.2018Z" fill="#F5F5F5"/>
<path d="M50.8981 23.5416H0.898163V25.8815H50.8981V23.5416Z" fill="#FF4B55"/>
<path d="M50.8981 25.8815H0.898163V28.2213H50.8981V25.8815Z" fill="#F5F5F5"/>
<path d="M50.8981 30.5614H0.898163V26.7437H1.76027L1.76047 28.2214H50.8981V30.5614Z" fill="#FF4B55"/>
<path d="M50.8981 30.5612H0.898163V32.901H50.8981V30.5612Z" fill="#F5F5F5"/>
<path d="M50.8981 32.901H0.898163V35.2408H50.8981V32.901Z" fill="#FF4B55"/>
<path d="M50.8981 35.2418H0.898163V37.5817H50.8981V35.2418Z" fill="#F5F5F5"/>
<path d="M50.8981 37.5807H0.898163V39.9205H50.8981V37.5807Z" fill="#FF4B55"/>
<path d="M50.036 42.2607H1.76027C1.2842 42.2607 0.898163 41.8747 0.898163 41.3986V39.9208H50.8981V41.3986C50.8981 41.8748 50.512 42.2607 50.036 42.2607Z" fill="#F5F5F5"/>
<path d="M31.0706 28.2214H1.76027C1.2842 28.2214 0.898163 27.8354 0.898163 27.3593V10.3643C0.898163 9.88823 1.2842 9.5022 1.76027 9.5022H31.0706C31.5466 9.5022 31.9327 9.88823 31.9327 10.3643V27.3593C31.9326 27.8356 31.5466 28.2214 31.0706 28.2214Z" fill="#41479B"/>
<path d="M9.08628 18.8526C9.08628 15.5921 11.7328 12.9473 14.9902 12.9473C15.8098 12.9473 16.5891 13.1151 17.2989 13.4174C17.3909 13.4567 17.4604 13.3285 17.3777 13.272C16.2034 12.4726 14.7672 12.0346 13.2268 12.1147C9.84018 12.2908 7.07095 15.0186 6.852 18.4028C6.59741 22.3391 9.71225 25.5999 13.5863 25.5999C14.9863 25.5999 16.2876 25.1686 17.3684 24.4372C17.4516 24.3809 17.3826 24.2525 17.2902 24.2916C16.5827 24.5916 15.8066 24.758 14.9904 24.758C11.7328 24.7579 9.08628 22.1131 9.08628 18.8526Z" fill="#FFE15A"/>
<path d="M22.5823 18.8525L25.0781 17.8868C25.2015 17.8391 25.1595 17.6548 25.0276 17.6653L22.3608 17.8789L24.1934 15.9199C24.2838 15.8233 24.166 15.6758 24.0518 15.7424L21.7356 17.0935L22.535 14.5373C22.5744 14.4111 22.4043 14.3292 22.3304 14.4388L20.831 16.66L20.4463 14.0088C20.4274 13.8778 20.2383 13.8777 20.2192 14.0087L19.9735 15.6862L19.8715 16.3962L19.8323 16.6601L18.3328 14.4407C18.2588 14.3312 18.0885 14.4132 18.1283 14.5394L18.9306 17.0934L16.6146 15.7423C16.5003 15.6756 16.3826 15.8232 16.473 15.9198L18.3055 17.8788L15.638 17.6652C15.5061 17.6547 15.464 17.839 15.5874 17.8867L18.0856 18.8524L15.5873 19.8183C15.4638 19.8661 15.506 20.0504 15.6379 20.0398L18.3055 19.8263L16.4729 21.7901C16.3826 21.8869 16.5006 22.0343 16.6148 21.9675L18.9307 20.6115L18.1284 23.1656C18.0887 23.2918 18.2588 23.3739 18.3329 23.2642L19.8324 21.0449L19.8716 21.315L19.9736 22.0187L20.2194 23.7008C20.2385 23.8318 20.4276 23.8316 20.4465 23.7007L20.8312 21.0451L22.3306 23.2663C22.4046 23.3759 22.5747 23.2941 22.5352 23.1678L21.7358 20.6115L24.0517 21.9675C24.1658 22.0343 24.2838 21.8869 24.1936 21.7901L22.3609 19.8263L25.0278 20.0398C25.1597 20.0504 25.2018 19.8661 25.0783 19.8183L22.5823 18.8525Z" fill="#FFE15A"/>
</g>
<defs>
<clipPath id="clip0_9_2780">
<rect width="50" height="50" fill="white" transform="translate(0.898438 0.881348)"/>
</clipPath>
</defs>
</svg>
