<svg width="51" height="51" viewBox="0 0 51 51" fill="none" xmlns="http://www.w3.org/2000/svg">
    <g clip-path="url(#clip0_9_2751)">
        <path
            d="M0.1922 30.476H50.1921V40.5334C50.1921 41.0094 49.8061 41.3955 49.33 41.3955H1.05431C0.578234 41.3955 0.1922 41.0094 0.1922 40.5334V30.476Z"
            fill="#73AF00" />
        <path
            d="M1.05431 8.63696H49.3301C49.8062 8.63696 50.1922 9.023 50.1922 9.49907V19.5565H0.1922V9.49897C0.1922 9.0229 0.578234 8.63696 1.05431 8.63696Z"
            fill="#464655" />
        <path d="M50.1928 19.5563H0.192932V30.4752H50.1928V19.5563Z" fill="#FF4B55" />
        <path
            d="M31.8903 18.5268C30.5448 16.2233 28.0529 14.6714 25.1927 14.6714C22.3325 14.6714 19.8406 16.2233 18.4951 18.5268H31.8903Z"
            fill="#FF4B55" />
        <path
            d="M25.6384 11.0076C25.6384 11.3945 25.193 13.8094 25.193 13.8094C25.193 13.8094 24.7476 11.3946 24.7476 11.0076C24.7476 10.6208 24.947 10.3073 25.193 10.3073C25.439 10.3073 25.6384 10.6207 25.6384 11.0076Z"
            fill="#FF4B55" />
        <path
            d="M33.5657 14.6601C33.2922 14.9337 31.2697 16.3264 31.2697 16.3264C31.2697 16.3264 32.6624 14.3038 32.9359 14.0304C33.2095 13.7568 33.5722 13.6761 33.7462 13.8501C33.92 14.0238 33.8392 14.3867 33.5657 14.6601Z"
            fill="#FF4B55" />
        <path
            d="M17.4504 14.0304C17.7239 14.3039 19.1166 16.3263 19.1166 16.3263C19.1166 16.3263 17.094 14.9337 16.8206 14.6601C16.547 14.3866 16.4663 14.0238 16.6403 13.8499C16.814 13.676 17.1768 13.7567 17.4504 14.0304Z"
            fill="#FF4B55" />
        <path
            d="M21.2439 11.7047C21.3919 12.0621 21.9045 14.4636 21.9045 14.4636C21.9045 14.4636 20.5689 12.403 20.4209 12.0457C20.273 11.6883 20.3371 11.3223 20.5644 11.2281C20.7915 11.1339 21.0957 11.3472 21.2439 11.7047Z"
            fill="#FF4B55" />
        <path
            d="M29.9651 12.0455C29.8171 12.4029 28.4815 14.4634 28.4815 14.4634C28.4815 14.4634 28.9941 12.062 29.1422 11.7045C29.2902 11.347 29.5944 11.1337 29.8216 11.2278C30.0489 11.3219 30.1132 11.6881 29.9651 12.0455Z"
            fill="#FF4B55" />
        <path
            d="M23.3644 11.1466C23.4414 11.5257 23.4848 13.9809 23.4848 13.9809C23.4848 13.9809 22.5683 11.7028 22.4914 11.3236C22.4144 10.9445 22.5476 10.5975 22.7886 10.5486C23.0298 10.4997 23.2876 10.7674 23.3644 11.1466Z"
            fill="#FF4B55" />
        <path
            d="M31.8598 13.1504C31.6461 13.4729 29.9407 15.2398 29.9407 15.2398C29.9407 15.2398 30.9035 12.9808 31.1172 12.6583C31.3309 12.3359 31.6703 12.1846 31.8754 12.3205C32.0805 12.4565 32.0734 12.828 31.8598 13.1504Z"
            fill="#FF4B55" />
        <path
            d="M15.94 15.7365C16.2625 15.9501 18.0294 17.6555 18.0294 17.6555C18.0294 17.6555 15.7704 16.6927 15.4479 16.479C15.1255 16.2654 14.9742 15.9259 15.1102 15.7208C15.2461 15.5158 15.6177 15.5228 15.94 15.7365Z"
            fill="#FF4B55" />
        <path
            d="M19.1958 12.7031C19.412 13.0239 20.3917 15.2756 20.3917 15.2756C20.3917 15.2756 18.6732 13.5216 18.457 13.2008C18.2408 12.88 18.2311 12.5084 18.4352 12.371C18.6391 12.2336 18.9797 12.3823 19.1958 12.7031Z"
            fill="#FF4B55" />
        <path
            d="M34.8926 16.4058C34.5718 16.622 32.3201 17.6017 32.3201 17.6017C32.3201 17.6017 34.0741 15.8832 34.3949 15.6671C34.7157 15.4509 35.0872 15.4411 35.2247 15.6452C35.3622 15.8492 35.2134 16.1898 34.8926 16.4058Z"
            fill="#FF4B55" />
        <path
            d="M27.8112 11.3035C27.7371 11.6831 26.8378 13.9681 26.8378 13.9681C26.8378 13.9681 26.8628 11.5127 26.9369 11.133C27.0111 10.7534 27.2667 10.4837 27.5081 10.5307C27.7496 10.5778 27.8852 10.9238 27.8112 11.3035Z"
            fill="#FF4B55" />
        <path
            d="M28.0764 11.3696C27.964 11.7397 27.6888 14.1799 27.6888 14.1799C27.6888 14.1799 28.8163 11.9986 28.9287 11.6283C29.0411 11.2582 28.9413 10.9002 28.706 10.8287C28.4707 10.7572 28.1888 10.9995 28.0764 11.3696Z"
            fill="#FF4B55" />
        <path
            d="M19.4302 12.5622C19.6125 12.9034 21.1434 14.8234 21.1434 14.8234C21.1434 14.8234 20.3983 12.4836 20.2159 12.1424C20.0336 11.8011 19.71 11.6185 19.493 11.7344C19.2759 11.8505 19.2479 12.2209 19.4302 12.5622Z"
            fill="#FF4B55" />
        <path
            d="M35.0338 16.6403C34.6926 16.8226 32.7725 18.3535 32.7725 18.3535C32.7725 18.3535 35.1124 17.6084 35.4536 17.426C35.7947 17.2437 35.9774 16.9201 35.8615 16.7031C35.7457 16.4861 35.3751 16.458 35.0338 16.6403Z"
            fill="#FF4B55" />
        <path
            d="M32.0796 13.313C31.834 13.6121 30.6461 15.7611 30.6461 15.7611C30.6461 15.7611 32.5227 14.1773 32.7681 13.8782C33.0136 13.5792 33.0585 13.2103 32.8683 13.0542C32.6783 12.8981 32.3251 13.014 32.0796 13.313Z"
            fill="#FF4B55" />
        <path
            d="M16.103 15.5165C16.4021 15.762 18.5511 16.95 18.5511 16.95C18.5511 16.95 16.9673 15.0733 16.6682 14.8279C16.3691 14.5825 16.0003 14.5376 15.8442 14.7277C15.6881 14.918 15.8039 15.2711 16.103 15.5165Z"
            fill="#FF4B55" />
        <path
            d="M23.6348 11.1059C23.6726 11.491 24.3522 13.8506 24.3522 13.8506C24.3522 13.8506 24.5592 11.4038 24.5213 11.0187C24.4835 10.6336 24.2543 10.3412 24.0096 10.3653C23.7648 10.3893 23.597 10.7208 23.6348 11.1059Z"
            fill="#FF4B55" />
        <path
            d="M25.8825 11.0198C25.8441 11.4047 26.0472 13.8519 26.0472 13.8519C26.0472 13.8519 26.7304 11.4933 26.7689 11.1083C26.8073 10.7234 26.6401 10.3915 26.3952 10.367C26.1505 10.3426 25.921 10.6349 25.8825 11.0198Z"
            fill="#FF4B55" />
        <path
            d="M17.6311 13.8663C17.8761 14.1656 19.7501 15.7524 19.7501 15.7524C19.7501 15.7524 18.5655 13.6014 18.3205 13.3021C18.0755 13.0028 17.7226 12.8864 17.5323 13.0421C17.3418 13.1978 17.3861 13.5669 17.6311 13.8663Z"
            fill="#FF4B55" />
        <path
            d="M33.7298 14.8414C33.4304 15.0865 31.8436 16.9605 31.8436 16.9605C31.8436 16.9605 33.9946 15.7758 34.2939 15.5309C34.5932 15.286 34.7096 14.9329 34.554 14.7426C34.3982 14.5523 34.0293 14.5964 33.7298 14.8414Z"
            fill="#FF4B55" />
        <path
            d="M30.186 12.1502C30.0031 12.4911 29.2543 14.8297 29.2543 14.8297C29.2543 14.8297 30.7881 12.912 30.971 12.5712C31.1539 12.2303 31.1263 11.8597 30.9096 11.7434C30.6928 11.6271 30.3689 11.8092 30.186 12.1502Z"
            fill="#FF4B55" />
        <path
            d="M14.9398 17.4098C15.2807 17.5927 17.6193 18.3415 17.6193 18.3415C17.6193 18.3415 15.7016 16.8077 15.3608 16.6248C15.0199 16.4419 14.6493 16.4695 14.533 16.6863C14.4168 16.903 14.5989 17.2269 14.9398 17.4098Z"
            fill="#FF4B55" />
        <path
            d="M21.4735 11.6224C21.5852 11.9928 22.7095 14.1759 22.7095 14.1759C22.7095 14.1759 22.4383 11.7353 22.3263 11.3651C22.2146 10.9947 21.933 10.7522 21.6975 10.8233C21.4621 10.8943 21.3617 11.2521 21.4735 11.6224Z"
            fill="#FF4B55" />
    </g>
    <defs>
        <clipPath id="clip0_9_2751">
            <rect width="50" height="50" fill="white" transform="translate(0.191406 0.0161133)" />
        </clipPath>
    </defs>
</svg>
