<svg width="51" height="51" viewBox="0 0 51 51" fill="none" xmlns="http://www.w3.org/2000/svg">
<g clip-path="url(#clip0_9_2747)">
<path d="M49.7422 41.5538H1.46654C0.990466 41.5538 0.604431 41.1678 0.604431 40.6917V9.65727C0.604431 9.1812 0.990466 8.79517 1.46654 8.79517H49.7423C50.2184 8.79517 50.6044 9.1812 50.6044 9.65727V40.6917C50.6043 41.1679 50.2183 41.5538 49.7422 41.5538Z" fill="#FF4B55"/>
<path d="M43.7079 15.6919V34.6574H7.50108V15.6919H43.7079Z" fill="#73AF00"/>
<path d="M23.8834 25.1771C23.8834 21.913 26.1067 19.1794 29.1165 18.3876C29.2167 18.3612 29.2094 18.2163 29.1067 18.2031C28.8337 18.1679 28.5559 18.1478 28.2734 18.1478C24.3882 18.1478 21.243 21.2925 21.243 25.1771C21.243 29.0449 24.3882 32.1982 28.2734 32.1982C28.5564 32.1982 28.8344 32.1778 29.1078 32.1426C29.2105 32.1293 29.2176 31.9845 29.1175 31.9582C26.1072 31.1651 23.8834 28.4275 23.8834 25.1771Z" fill="#F5F5F5"/>
</g>
<defs>
<clipPath id="clip0_9_2747">
<rect width="50" height="50" fill="white" transform="translate(0.603516 0.174561)"/>
</clipPath>
</defs>
</svg>
