<svg width="51" height="51" viewBox="0 0 51 51" fill="none" xmlns="http://www.w3.org/2000/svg">
    <g clip-path="url(#clip0_9_2731)">
        <path
            d="M49.4613 8.79529H25.3234V41.5539H49.4613C49.9374 41.5539 50.3234 41.1679 50.3234 40.6918V9.6573C50.3234 9.18123 49.9374 8.79529 49.4613 8.79529Z"
            fill="#FF4B55" />
        <path
            d="M1.18548 41.5539H25.3234V8.79529H1.18548C0.709403 8.79529 0.323368 9.18123 0.323368 9.6573V40.6918C0.323368 41.1679 0.709403 41.5539 1.18548 41.5539Z"
            fill="#F5F5F5" />
        <path
            d="M7.50746 10.8067V13.1133C7.63451 13.1183 7.77621 13.1759 7.89399 13.2937C8.01176 13.4115 8.06957 13.5532 8.07436 13.6802H10.381V15.9791H8.07426C8.06928 16.1061 8.01166 16.2478 7.89389 16.3656C7.77611 16.4833 7.63442 16.541 7.50736 16.5459V18.8526H5.20854V16.5459C5.08149 16.541 4.93979 16.4833 4.82201 16.3656C4.70424 16.2478 4.64662 16.1061 4.64164 15.9791H2.335V13.6803H4.64164C4.64662 13.5533 4.70424 13.4116 4.82201 13.2938C4.93979 13.176 5.08149 13.1184 5.20854 13.1134V10.8068H7.50746V10.8067ZM7.79467 10.5193H7.50727H5.20844H4.92113V10.8067V12.8871C4.81147 12.932 4.70854 13.0008 4.61879 13.0905C4.52904 13.1802 4.46029 13.2832 4.41527 13.3928H2.335H2.0476V13.6802V15.9791V16.2665H2.335H4.41537C4.46039 16.3761 4.52914 16.4792 4.61889 16.5688C4.70854 16.6584 4.81147 16.7273 4.92113 16.7722V18.8526V19.1399H5.20854H7.50736H7.79477V18.8525V16.7721C7.90443 16.7272 8.00736 16.6583 8.09711 16.5686C8.18676 16.479 8.25561 16.376 8.30053 16.2664H10.3809H10.6682V15.979V13.6801V13.3927H10.3808H8.30063C8.2557 13.2831 8.18686 13.1801 8.09711 13.0904C8.00746 13.0007 7.90453 12.9319 7.79477 12.887V10.8067L7.79467 10.5193Z"
            fill="#FF4B55" />
        <path
            d="M10.3809 13.6802H7.50745V10.8068H5.20852V13.6802H2.33498V15.9791H5.20852V18.8527H7.50745V15.9791H10.3809V13.6802Z"
            fill="#CDCDCD" />
        <path
            d="M6.35862 15.9792C6.99342 15.9792 7.50803 15.4646 7.50803 14.8298C7.50803 14.195 6.99342 13.6804 6.35862 13.6804C5.72381 13.6804 5.2092 14.195 5.2092 14.8298C5.2092 15.4646 5.72381 15.9792 6.35862 15.9792Z"
            fill="#B4A08C" />
        <path
            d="M5.3286 15.8599C5.129 15.6603 4.85394 15.6117 4.71424 15.7514C4.57455 15.8911 4.62312 16.1661 4.82272 16.3658C5.02233 16.5654 5.29739 16.6139 5.43709 16.4742C5.57678 16.3345 5.52821 16.0595 5.3286 15.8599Z"
            fill="#B4A08C" />
        <path
            d="M7.89484 16.3648C8.09444 16.1652 8.14301 15.8901 8.00332 15.7504C7.86362 15.6107 7.58856 15.6593 7.38896 15.8589C7.18935 16.0585 7.14078 16.3336 7.28047 16.4733C7.42017 16.613 7.69523 16.5644 7.89484 16.3648Z"
            fill="#B4A08C" />
        <path
            d="M7.38793 13.8002C7.58754 13.9998 7.8626 14.0483 8.00229 13.9086C8.14199 13.7689 8.09342 13.4939 7.89381 13.2943C7.6942 13.0947 7.41914 13.0461 7.27945 13.1858C7.13975 13.3255 7.18832 13.6006 7.38793 13.8002Z"
            fill="#B4A08C" />
        <path
            d="M4.82213 13.2938C4.62253 13.4934 4.57396 13.7684 4.71365 13.9081C4.85335 14.0478 5.12841 13.9993 5.32801 13.7997C5.52762 13.6 5.57619 13.325 5.4365 13.1853C5.2968 13.0456 5.02174 13.0942 4.82213 13.2938Z"
            fill="#B4A08C" />
        <path
            d="M6.35849 16.4033C5.49082 16.4033 4.78496 15.6976 4.78496 14.8298C4.78496 13.9619 5.49082 13.2562 6.35849 13.2562C7.22617 13.2562 7.93203 13.9621 7.93203 14.8298C7.93203 15.6974 7.22617 16.4033 6.35849 16.4033ZM6.35849 13.4C5.57021 13.4 4.92871 14.0415 4.92871 14.8298C4.92871 15.618 5.57021 16.2595 6.35849 16.2595C7.14678 16.2595 7.78828 15.618 7.78828 14.8298C7.78828 14.0415 7.14678 13.4 6.35849 13.4Z"
            fill="#B4A08C" />
    </g>
    <defs>
        <clipPath id="clip0_9_2731">
            <rect width="50" height="50" fill="white" transform="translate(0.324219 0.174561)" />
        </clipPath>
    </defs>
</svg>
