<svg width="51" height="51" viewBox="0 0 51 51" fill="none" xmlns="http://www.w3.org/2000/svg">
    <g clip-path="url(#clip0_9_2726)">
        <path
            d="M49.89 41.5538H1.61428C1.13821 41.5538 0.752174 41.1678 0.752174 40.6917V9.65727C0.752174 9.1812 1.13821 8.79517 1.61428 8.79517H49.8901C50.3661 8.79517 50.7522 9.1812 50.7522 9.65727V40.6917C50.7521 41.1679 50.366 41.5538 49.89 41.5538Z"
            fill="#41479B" />
        <path
            d="M1.14065 41.393L50.7521 20.8642V14.8297L0.752174 40.6918C0.752174 40.9889 0.911842 41.238 1.14065 41.393Z"
            fill="#F5F5F5" />
        <path
            d="M50.4257 8.99792L0.752174 39.8297V40.6918L50.7521 14.8298V9.6573C50.7521 9.38708 50.6201 9.15603 50.4257 8.99792Z"
            fill="#FF9B55" />
        <path
            d="M15.0005 20.6988L20.5797 20.0021L15.0005 19.3054L17.8281 17.5711L14.3098 18.4314L16.4511 15.5101L13.5299 17.6513L14.39 14.133L12.6558 16.9607L11.9591 11.3815L11.2623 16.9607L9.52802 14.133L10.3883 17.6513L7.46699 15.5101L9.6082 18.4314L6.08994 17.5711L8.91757 19.3054L3.33839 20.0021L8.91757 20.6988L6.08994 22.4331L9.6082 21.5729L7.46699 24.4941L10.3883 22.3529L9.52802 25.8712L11.2623 23.0436L11.9591 28.6227L12.6558 23.0436L14.39 25.8712L13.5299 22.3529L16.4511 24.4941L14.3098 21.5729L17.8281 22.4331L15.0005 20.6988Z"
            fill="#F5F5F5" />
    </g>
    <defs>
        <clipPath id="clip0_9_2726">
            <rect width="50" height="50" fill="white" transform="translate(0.751953 0.174561)" />
        </clipPath>
    </defs>
</svg>
