<svg width="51" height="51" viewBox="0 0 51 51" fill="none" xmlns="http://www.w3.org/2000/svg">
    <g clip-path="url(#clip0_9_2718)">
        <path
            d="M49.3168 41.5537H1.04112C0.565051 41.5537 0.179016 41.1677 0.179016 40.6916V9.65727C0.179016 9.1812 0.565051 8.79517 1.04112 8.79517H49.3169C49.793 8.79517 50.179 9.1812 50.179 9.65727V40.6916C50.1789 41.1678 49.7929 41.5537 49.3168 41.5537Z"
            fill="#41479B" />
        <path
            d="M50.1789 23.4503H26.9031V8.79517H23.4548V23.4503H0.179016V26.8986H23.4548V41.5537H26.9031V26.8986H50.1789V23.4503Z"
            fill="#F5F5F5" />
        <path
            d="M17.0151 20.0103C16.9904 19.8636 16.9347 19.6899 16.8644 19.5781C16.7247 19.3849 16.5629 19.2497 16.4063 19.1655C15.172 18.5985 14.1387 18.7096 13.1527 18.7057C12.1788 18.7308 11.2676 18.8988 10.528 19.0607C10.3272 19.1011 10.1533 19.1313 9.96725 19.1663C10.0592 18.9762 10.3965 18.7385 10.8506 18.5943C11.9576 18.2162 13.2213 18.0643 14.4632 17.8223C14.7769 17.7609 15.0949 17.6889 15.4205 17.5964C15.5958 17.5363 15.7433 17.4894 15.9498 17.3935C16.0822 17.3186 16.2126 17.2244 16.3241 17.1237C16.4428 17.0169 16.4337 16.987 16.4949 16.9149C16.7769 16.3781 16.5099 15.9959 16.2861 15.7963C16.0704 15.6192 15.8886 15.5501 15.7157 15.4789C15.3799 15.3611 15.0689 15.2873 14.7687 15.2247C14.1903 15.109 13.6216 14.9952 13.0649 14.8838C12.8005 14.8225 12.5447 14.7546 12.3203 14.6722C12.1221 14.6193 11.8422 14.4235 11.8838 14.4769C11.3721 14.4328 12.5844 13.8622 13.4586 13.5434C13.6909 13.4409 13.9218 13.3374 14.1585 13.1913C14.3906 13.0379 14.6297 12.9077 14.8877 12.478C14.9383 12.3889 14.9362 12.3672 14.9628 12.3089L14.9922 12.2348C15.0562 12.0063 15.0211 12.068 15.0359 11.9689C15.0661 11.7293 14.972 11.4731 14.8232 11.2598C14.5194 10.9314 14.2172 10.8375 13.9928 10.7746C13.0647 10.5547 12.3969 10.6148 11.8168 10.6171C10.7166 10.6688 10.0878 10.6983 10.0878 10.6983L10.0453 10.7003C10.044 10.7004 10.0428 10.7004 10.0415 10.7005C9.68981 10.7211 9.42155 11.0227 9.44216 11.3743C9.44411 11.4087 9.46023 11.4375 9.46735 11.47C8.96911 11.6073 8.18074 11.7477 7.40076 11.5639C7.28201 11.5365 7.17234 11.6079 7.1449 11.7216C7.11755 11.8362 7.18894 11.9508 7.30261 11.9774C7.60906 12.0497 7.91306 12.078 8.2029 12.078C8.81862 12.078 9.3446 11.9527 9.70378 11.8427C9.8196 11.9287 9.96042 11.9829 10.1157 11.9738C10.1157 11.9738 10.751 11.9366 11.863 11.8716C12.3836 11.8528 13.0832 11.8254 13.6605 11.961C13.7083 11.9684 13.7338 11.9833 13.7655 11.9967C13.77 11.9455 13.6723 12.0896 13.5197 12.1638C13.3715 12.2594 13.1788 12.351 12.9782 12.442C12.568 12.6278 12.0987 12.7876 11.5784 13.0676C11.3272 13.2158 11.0167 13.3664 10.7587 13.8069C10.6381 14.011 10.5808 14.341 10.6442 14.5736L10.663 14.6684L10.6736 14.7153L10.6793 14.7386C10.6393 14.6556 10.74 14.8786 10.7321 14.8585L10.7841 14.9452C10.8303 15.0112 10.8231 15.0386 10.9341 15.1538C11.023 15.2501 11.1235 15.3423 11.2271 15.4227C11.3179 15.4852 11.3857 15.5147 11.4674 15.561C11.6285 15.6559 11.7747 15.6999 11.9272 15.7597C12.228 15.8657 12.5209 15.9377 12.8133 16.0023C13.3779 16.1086 13.9547 16.2171 14.5414 16.3275C14.7874 16.3751 15.0175 16.435 15.2303 16.5006C14.9578 16.5988 14.5763 16.6978 14.2473 16.7612C13.0505 17.0138 11.7815 17.1665 10.4908 17.6198C10.1677 17.7428 9.83679 17.8897 9.51228 18.1383C9.20671 18.3698 8.88552 18.8316 8.92663 19.3389C8.81716 19.3543 8.69138 19.3766 8.59021 19.3879C7.49529 19.5328 7.03513 19.34 7.06482 19.3344C6.92185 19.2501 6.73757 19.2973 6.6532 19.4404C6.56873 19.5833 6.61609 19.7677 6.75906 19.852C6.75906 19.852 6.94675 19.9795 7.28181 20.0529C7.61521 20.1283 8.08425 20.1629 8.65554 20.1178C8.81286 20.1071 8.99714 20.0836 9.17019 20.0653C9.28982 20.2378 9.42917 20.428 9.55895 20.5202C9.86061 20.7732 10.18 20.935 10.4984 21.0767C11.7799 21.5724 13.0608 21.6765 14.3096 21.6274C14.9366 21.5803 15.5536 21.5072 16.1872 21.2245C16.4826 21.0867 16.888 20.8697 17.0132 20.2421C17.0136 20.1617 17.0274 20.1251 17.0151 20.0103ZM16.0934 20.208C16.0771 20.1152 16.026 20.3257 15.7868 20.3837C15.375 20.5646 14.8129 20.6474 14.2603 20.6765C13.1461 20.7132 11.9293 20.5831 10.8859 20.1599C10.7219 20.0842 10.5882 19.9887 10.4474 19.8975C10.5248 19.8857 10.5919 19.8775 10.6712 19.865C11.4465 19.7415 12.2546 19.5961 13.1828 19.5807C14.0669 19.5645 15.1926 19.5767 15.9402 19.9486C16.027 19.9954 16.065 20.0441 16.0937 20.0735C16.0937 20.0735 16.0689 20.0437 16.0965 20.0248C16.1088 20.0437 16.0934 20.1496 16.0934 20.208Z"
            fill="#F5F5F5" />
        <path
            d="M43.7395 20.0103C43.7148 19.8636 43.6592 19.6899 43.5889 19.5781C43.4491 19.3849 43.2874 19.2497 43.1307 19.1655C41.8965 18.5985 40.8632 18.7096 39.8771 18.7057C38.9032 18.7308 37.9921 18.8988 37.2524 19.0607C37.0517 19.1011 36.8777 19.1313 36.6917 19.1663C36.7837 18.9762 37.1209 18.7385 37.575 18.5943C38.682 18.2162 39.9457 18.0643 41.1877 17.8223C41.5014 17.7609 41.8193 17.6889 42.1449 17.5964C42.3202 17.5363 42.4678 17.4894 42.6742 17.3935C42.8066 17.3186 42.937 17.2244 43.0485 17.1237C43.1673 17.0169 43.1582 16.987 43.2193 16.9149C43.5014 16.3781 43.2345 15.9959 43.0105 15.7963C42.7948 15.6192 42.6132 15.5501 42.4401 15.4789C42.1044 15.3611 41.7934 15.2873 41.4932 15.2247C40.9147 15.109 40.3461 14.9952 39.7894 14.8838C39.5249 14.8225 39.2691 14.7546 39.0447 14.6722C38.8466 14.6193 38.5666 14.4235 38.6082 14.4769C38.0966 14.4328 39.3089 13.8622 40.183 13.5434C40.4153 13.4409 40.6463 13.3374 40.8829 13.1913C41.115 13.0379 41.3542 12.9077 41.6121 12.478C41.6628 12.3889 41.6606 12.3672 41.6872 12.3089L41.7167 12.2348C41.7807 12.0063 41.7455 12.068 41.7603 11.9689C41.7905 11.7293 41.6965 11.4731 41.5476 11.2598C41.2438 10.9314 40.9417 10.8375 40.7173 10.7746C39.7892 10.5547 39.1214 10.6148 38.5412 10.6171C37.441 10.6688 36.8122 10.6983 36.8122 10.6983L36.7697 10.7003C36.7685 10.7004 36.7673 10.7004 36.7659 10.7005C36.4143 10.7211 36.146 11.0227 36.1666 11.3743C36.1686 11.4087 36.1847 11.4375 36.1918 11.47C35.6936 11.6073 34.9052 11.7477 34.1252 11.5639C34.0065 11.5365 33.8968 11.6079 33.8693 11.7216C33.842 11.8362 33.9134 11.9508 34.0271 11.9774C34.3335 12.0497 34.6375 12.078 34.9274 12.078C35.5431 12.078 36.069 11.9527 36.4282 11.8427C36.544 11.9287 36.6849 11.9829 36.8401 11.9738C36.8401 11.9738 37.4755 11.9366 38.5874 11.8716C39.108 11.8528 39.8076 11.8254 40.385 11.961C40.4327 11.9684 40.4583 11.9833 40.4899 11.9967C40.4944 11.9455 40.3968 12.0896 40.2441 12.1638C40.096 12.2594 39.9032 12.351 39.7026 12.442C39.2925 12.6278 38.8231 12.7876 38.3028 13.0676C38.0517 13.2158 37.7411 13.3664 37.4831 13.8069C37.3625 14.011 37.3053 14.341 37.3687 14.5736L37.3874 14.6684L37.398 14.7153L37.4038 14.7386C37.3639 14.6556 37.4646 14.8786 37.4566 14.8585L37.5087 14.9452C37.5549 15.0112 37.5477 15.0386 37.6586 15.1538C37.7476 15.2501 37.848 15.3423 37.9517 15.4227C38.0425 15.4852 38.1103 15.5147 38.192 15.561C38.353 15.6559 38.4992 15.6999 38.6518 15.7597C38.9525 15.8657 39.2454 15.9377 39.5379 16.0023C40.1024 16.1086 40.6793 16.2171 41.2659 16.3275C41.5119 16.3751 41.7421 16.435 41.9549 16.5006C41.6823 16.5988 41.3009 16.6978 40.9719 16.7612C39.7751 17.0138 38.5061 17.1665 37.2153 17.6198C36.8923 17.7428 36.5613 17.8897 36.2368 18.1383C35.9313 18.3698 35.6101 18.8316 35.6512 19.3389C35.5417 19.3543 35.4159 19.3766 35.3148 19.3879C34.2198 19.5328 33.7597 19.34 33.7894 19.3344C33.6464 19.2501 33.4621 19.2973 33.3777 19.4404C33.2933 19.5833 33.3406 19.7677 33.4836 19.852C33.4836 19.852 33.6713 19.9795 34.0064 20.0529C34.3398 20.1283 34.8088 20.1629 35.3801 20.1178C35.5374 20.1071 35.7217 20.0836 35.8947 20.0653C36.0144 20.2378 36.1537 20.428 36.2835 20.5202C36.5852 20.7732 36.9046 20.935 37.223 21.0767C38.5045 21.5724 39.7854 21.6765 41.0342 21.6274C41.6611 21.5803 42.2781 21.5072 42.9117 21.2245C43.2071 21.0867 43.6126 20.8697 43.7378 20.2421C43.7379 20.1617 43.7516 20.1251 43.7395 20.0103ZM42.8178 20.208C42.8015 20.1152 42.7504 20.3257 42.5111 20.3837C42.0993 20.5646 41.5372 20.6474 40.9847 20.6765C39.8704 20.7132 38.6536 20.5831 37.6103 20.1599C37.4463 20.0842 37.3125 19.9887 37.1718 19.8975C37.2491 19.8857 37.3162 19.8775 37.3955 19.865C38.1708 19.7415 38.9789 19.5961 39.9071 19.5807C40.7912 19.5645 41.917 19.5767 42.6645 19.9486C42.7514 19.9954 42.7893 20.0441 42.8181 20.0735C42.8181 20.0735 42.7933 20.0437 42.8209 20.0248C42.8332 20.0437 42.8179 20.1496 42.8178 20.208Z"
            fill="#F5F5F5" />
        <path
            d="M17.0151 38.1136C16.9904 37.9669 16.9347 37.7932 16.8644 37.6814C16.7247 37.4882 16.5629 37.353 16.4063 37.2688C15.172 36.7018 14.1387 36.8129 13.1527 36.809C12.1788 36.8341 11.2676 37.0021 10.528 37.164C10.3272 37.2044 10.1533 37.2346 9.96725 37.2696C10.0592 37.0795 10.3965 36.8417 10.8506 36.6976C11.9576 36.3195 13.2213 36.1676 14.4632 35.9256C14.7769 35.8642 15.0949 35.7922 15.4205 35.6996C15.5958 35.6396 15.7433 35.5927 15.9498 35.4968C16.0822 35.4219 16.2126 35.3277 16.3241 35.227C16.4428 35.1201 16.4337 35.0903 16.4949 35.0182C16.7769 34.4814 16.5099 34.0992 16.2861 33.8995C16.0704 33.7225 15.8886 33.6534 15.7157 33.5822C15.3799 33.4644 15.0689 33.3906 14.7687 33.328C14.1903 33.2122 13.6216 33.0985 13.0649 32.987C12.8005 32.9258 12.5447 32.8578 12.3203 32.7754C12.1221 32.7226 11.8422 32.5268 11.8838 32.5802C11.3721 32.5361 12.5844 31.9655 13.4586 31.6467C13.6909 31.5442 13.9218 31.4406 14.1585 31.2946C14.3906 31.1411 14.6297 31.011 14.8877 30.5813C14.9383 30.4921 14.9362 30.4704 14.9628 30.4121L14.9922 30.338C15.0562 30.1096 15.0211 30.1712 15.0359 30.0722C15.0661 29.8326 14.972 29.5764 14.8232 29.363C14.5194 29.0347 14.2172 28.9408 13.9928 28.8779C13.0647 28.658 12.3969 28.7181 11.8168 28.7204C10.7166 28.7721 10.0878 28.8016 10.0878 28.8016L10.0453 28.8036C10.044 28.8037 10.0428 28.8037 10.0415 28.8038C9.68981 28.8244 9.42155 29.126 9.44216 29.4776C9.44411 29.512 9.46023 29.5408 9.46735 29.5733C8.96911 29.7106 8.18074 29.851 7.40076 29.6671C7.28201 29.6398 7.17234 29.7112 7.1449 29.8248C7.11755 29.9395 7.18894 30.054 7.30261 30.0807C7.60906 30.153 7.91306 30.1813 8.2029 30.1813C8.81862 30.1813 9.3446 30.056 9.70378 29.9459C9.8196 30.032 9.96042 30.0862 10.1157 30.0771C10.1157 30.0771 10.751 30.0399 11.863 29.9748C12.3836 29.9561 13.0832 29.9287 13.6605 30.0643C13.7083 30.0717 13.7338 30.0866 13.7655 30.0999C13.77 30.0488 13.6723 30.1929 13.5197 30.267C13.3715 30.3626 13.1788 30.4542 12.9782 30.5453C12.568 30.7311 12.0987 30.8909 11.5784 31.1707C11.3272 31.319 11.0167 31.4696 10.7587 31.9101C10.6381 32.1142 10.5808 32.4442 10.6442 32.6768L10.663 32.7716L10.6736 32.8185L10.6793 32.8417C10.6393 32.7588 10.74 32.9818 10.7321 32.9617L10.7841 33.0484C10.8303 33.1144 10.8231 33.1417 10.9341 33.257C11.023 33.3534 11.1235 33.4454 11.2271 33.5259C11.3179 33.5884 11.3857 33.6179 11.4674 33.6642C11.6285 33.7591 11.7747 33.8031 11.9272 33.8629C12.228 33.9689 12.5209 34.0409 12.8133 34.1055C13.3779 34.2117 13.9547 34.3202 14.5414 34.4307C14.7874 34.4783 15.0175 34.5382 15.2303 34.6037C14.9578 34.702 14.5763 34.801 14.2473 34.8644C13.0505 35.1169 11.7815 35.2697 10.4908 35.723C10.1677 35.8459 9.83679 35.9929 9.51228 36.2414C9.20671 36.473 8.88552 36.9348 8.92663 37.4421C8.81716 37.4574 8.69138 37.4798 8.59021 37.491C7.49529 37.636 7.03513 37.4432 7.06482 37.4376C6.92185 37.3532 6.73757 37.4005 6.6532 37.5436C6.56873 37.6865 6.61609 37.8708 6.75906 37.9552C6.75906 37.9552 6.94675 38.0826 7.28181 38.1561C7.61521 38.2315 8.08425 38.2659 8.65554 38.221C8.81286 38.2103 8.99714 38.1867 9.17019 38.1685C9.28982 38.3409 9.42917 38.5312 9.55895 38.6234C9.86061 38.8764 10.18 39.0382 10.4984 39.1799C11.7799 39.6756 13.0608 39.7797 14.3096 39.7306C14.9366 39.6835 15.5536 39.6104 16.1872 39.3277C16.4826 39.1899 16.888 38.9729 17.0132 38.3452C17.0136 38.2651 17.0274 38.2284 17.0151 38.1136ZM16.0934 38.3114C16.0771 38.2186 16.026 38.429 15.7868 38.487C15.375 38.668 14.8129 38.7508 14.2603 38.7799C13.1461 38.8165 11.9293 38.6864 10.8859 38.2633C10.7219 38.1875 10.5882 38.0921 10.4474 38.0009C10.5248 37.9891 10.5919 37.9809 10.6712 37.9684C11.4465 37.8448 12.2546 37.6994 13.1828 37.6841C14.0669 37.668 15.1926 37.6801 15.9402 38.052C16.027 38.0988 16.065 38.1475 16.0937 38.1769C16.0937 38.1769 16.0689 38.1471 16.0965 38.1281C16.1088 38.1471 16.0934 38.253 16.0934 38.3114Z"
            fill="#F5F5F5" />
        <path
            d="M43.7395 38.1136C43.7148 37.9669 43.6592 37.7932 43.5889 37.6814C43.4491 37.4882 43.2874 37.353 43.1307 37.2688C41.8965 36.7018 40.8632 36.8129 39.8771 36.809C38.9032 36.8341 37.9921 37.0021 37.2524 37.164C37.0517 37.2044 36.8777 37.2346 36.6917 37.2696C36.7837 37.0795 37.1209 36.8417 37.575 36.6976C38.682 36.3195 39.9457 36.1676 41.1877 35.9256C41.5014 35.8642 41.8193 35.7922 42.1449 35.6996C42.3202 35.6396 42.4678 35.5927 42.6742 35.4968C42.8066 35.4219 42.937 35.3277 43.0485 35.227C43.1673 35.1201 43.1582 35.0903 43.2193 35.0182C43.5014 34.4814 43.2345 34.0992 43.0105 33.8995C42.7948 33.7225 42.6132 33.6534 42.4401 33.5822C42.1044 33.4644 41.7934 33.3906 41.4932 33.328C40.9147 33.2122 40.3461 33.0985 39.7894 32.987C39.5249 32.9258 39.2691 32.8578 39.0447 32.7754C38.8466 32.7226 38.5666 32.5268 38.6082 32.5802C38.0966 32.5361 39.3089 31.9655 40.183 31.6467C40.4153 31.5442 40.6463 31.4406 40.8829 31.2946C41.115 31.1411 41.3542 31.011 41.6121 30.5813C41.6628 30.4921 41.6606 30.4704 41.6872 30.4121L41.7167 30.338C41.7807 30.1096 41.7455 30.1712 41.7603 30.0722C41.7905 29.8326 41.6965 29.5764 41.5476 29.363C41.2438 29.0347 40.9417 28.9408 40.7173 28.8779C39.7892 28.658 39.1214 28.7181 38.5412 28.7204C37.441 28.7721 36.8122 28.8016 36.8122 28.8016L36.7697 28.8036C36.7685 28.8037 36.7673 28.8037 36.7659 28.8038C36.4143 28.8244 36.146 29.126 36.1666 29.4776C36.1686 29.512 36.1847 29.5408 36.1918 29.5733C35.6936 29.7106 34.9052 29.851 34.1252 29.6671C34.0065 29.6398 33.8968 29.7112 33.8693 29.8248C33.842 29.9395 33.9134 30.054 34.0271 30.0807C34.3335 30.153 34.6375 30.1813 34.9274 30.1813C35.5431 30.1813 36.069 30.056 36.4282 29.9459C36.544 30.032 36.6849 30.0862 36.8401 30.0771C36.8401 30.0771 37.4755 30.0399 38.5874 29.9748C39.108 29.9561 39.8076 29.9287 40.385 30.0643C40.4327 30.0717 40.4583 30.0866 40.4899 30.0999C40.4944 30.0488 40.3968 30.1929 40.2441 30.267C40.096 30.3626 39.9032 30.4542 39.7026 30.5453C39.2925 30.7311 38.8231 30.8909 38.3028 31.1707C38.0517 31.319 37.7411 31.4696 37.4831 31.9101C37.3625 32.1142 37.3053 32.4442 37.3687 32.6768L37.3874 32.7716L37.398 32.8185L37.4038 32.8417C37.3639 32.7588 37.4646 32.9818 37.4566 32.9617L37.5087 33.0484C37.5549 33.1144 37.5477 33.1417 37.6586 33.257C37.7476 33.3534 37.848 33.4454 37.9517 33.5259C38.0425 33.5884 38.1103 33.6179 38.192 33.6642C38.353 33.7591 38.4992 33.8031 38.6518 33.8629C38.9525 33.9689 39.2454 34.0409 39.5379 34.1055C40.1024 34.2117 40.6793 34.3202 41.2659 34.4307C41.5119 34.4783 41.7421 34.5382 41.9549 34.6037C41.6823 34.702 41.3009 34.801 40.9719 34.8644C39.7751 35.1169 38.5061 35.2697 37.2153 35.723C36.8923 35.8459 36.5613 35.9929 36.2368 36.2414C35.9313 36.473 35.6101 36.9348 35.6512 37.4421C35.5417 37.4574 35.4159 37.4798 35.3148 37.491C34.2198 37.636 33.7597 37.4432 33.7894 37.4376C33.6464 37.3532 33.4621 37.4005 33.3777 37.5436C33.2933 37.6865 33.3406 37.8708 33.4836 37.9552C33.4836 37.9552 33.6713 38.0826 34.0064 38.1561C34.3398 38.2315 34.8088 38.2659 35.3801 38.221C35.5374 38.2103 35.7217 38.1867 35.8947 38.1685C36.0144 38.3409 36.1537 38.5312 36.2835 38.6234C36.5852 38.8764 36.9046 39.0382 37.223 39.1799C38.5045 39.6756 39.7854 39.7797 41.0342 39.7306C41.6611 39.6835 42.2781 39.6104 42.9117 39.3277C43.2071 39.1899 43.6126 38.9729 43.7378 38.3452C43.7379 38.2651 43.7516 38.2284 43.7395 38.1136ZM42.8178 38.3114C42.8015 38.2186 42.7504 38.429 42.5111 38.487C42.0993 38.668 41.5372 38.7508 40.9847 38.7799C39.8704 38.8165 38.6536 38.6864 37.6103 38.2633C37.4463 38.1875 37.3125 38.0921 37.1718 38.0009C37.2491 37.9891 37.3162 37.9809 37.3955 37.9684C38.1708 37.8448 38.9789 37.6994 39.9071 37.6841C40.7912 37.668 41.917 37.6801 42.6645 38.052C42.7514 38.0988 42.7893 38.1475 42.8181 38.1769C42.8181 38.1769 42.7933 38.1471 42.8209 38.1281C42.8332 38.1471 42.8179 38.253 42.8178 38.3114Z"
            fill="#F5F5F5" />
    </g>
    <defs>
        <clipPath id="clip0_9_2718">
            <rect width="50" height="50" fill="white" transform="translate(0.179688 0.174561)" />
        </clipPath>
    </defs>
</svg>
