<svg width="51" height="51" viewBox="0 0 51 51" fill="none" xmlns="http://www.w3.org/2000/svg">
<g clip-path="url(#clip0_9_2713)">
<path d="M49.7476 41.5538H1.47189C0.995821 41.5538 0.609787 41.1678 0.609787 40.6917V9.65727C0.609787 9.1812 0.995821 8.79517 1.47189 8.79517H49.7477C50.2238 8.79517 50.6098 9.1812 50.6098 9.65727V40.6917C50.6097 41.1679 50.2237 41.5538 49.7476 41.5538Z" fill="#73AF00"/>
<path d="M34.892 22.1453C34.869 21.9981 34.6554 22.0054 34.6386 22.1535C34.1243 26.685 30.2806 30.2056 25.6101 30.2056C20.9411 30.2056 17.0959 26.685 16.5816 22.1537C16.5648 22.0056 16.3512 21.9982 16.3282 22.1455C16.2567 22.6014 16.2176 23.0675 16.2176 23.5435C16.2175 28.7259 20.4236 32.9332 25.6101 32.9332C30.7984 32.9332 35.0026 28.7259 35.0026 23.5435C35.0024 23.0675 34.9633 22.6013 34.892 22.1453Z" fill="#FFE15A"/>
<path d="M25.4936 18.2671L24.8144 20.3036L22.6677 20.3202C22.55 20.3211 22.5012 20.4713 22.5959 20.5412L24.3229 21.8165L23.6754 23.8633C23.6399 23.9756 23.7677 24.0684 23.8635 24L25.6098 22.7516L27.3564 24C27.4522 24.0684 27.58 23.9756 27.5445 23.8633L26.8969 21.8165L28.624 20.5412C28.7187 20.4713 28.6699 20.3211 28.5522 20.3202L26.4054 20.3036L25.7262 18.2671C25.6888 18.1554 25.5308 18.1554 25.4936 18.2671Z" fill="#FFE15A"/>
</g>
<defs>
<clipPath id="clip0_9_2713">
<rect width="50" height="50" fill="white" transform="translate(0.609375 0.174561)"/>
</clipPath>
</defs>
</svg>
