<svg width="51" height="51" viewBox="0 0 51 51" fill="none" xmlns="http://www.w3.org/2000/svg">
    <g clip-path="url(#clip0_9_2621)">
        <path
            d="M49.6071 41.8232H1.33144C0.855364 41.8232 0.46933 41.4372 0.46933 40.9611V9.9268C0.46933 9.45073 0.855364 9.0647 1.33144 9.0647H49.6072C50.0833 9.0647 50.4693 9.45073 50.4693 9.9268V40.9611C50.4692 41.4373 50.0832 41.8232 49.6071 41.8232Z"
            fill="#4173CD" />
        <path
            d="M21.6136 34.0646C21.5411 35.3525 22.3936 35.5112 22.8555 35.5181C23.3173 35.5252 24.0171 35.7281 24.668 35.861C25.3188 35.994 25.5287 35.4551 25.5287 35.4551C25.9137 35.959 26.2891 35.8051 26.2891 35.8051C26.5971 35.4971 27.4182 35.3431 27.7401 35.322C28.062 35.301 27.985 34.8602 27.985 34.8602C28.3223 34.6726 28.5506 34.4577 28.7137 34.2404C28.7208 34.2435 28.7269 34.2484 28.7339 34.2514C29.2867 34.4893 29.7136 33.9855 29.8046 33.7966C29.8608 33.6797 29.9638 33.628 30.0375 33.6028L30.0635 33.8945C30.3014 33.5516 30.8194 33.6776 30.8194 33.6776C30.2875 32.8589 29.7487 33.2368 29.7487 33.2368L29.9575 33.4351C29.6407 33.5948 29.4526 34.2269 28.9859 34.0416C28.9461 34.0258 28.9123 34.003 28.8767 33.9822C29.0651 33.6087 29.0713 33.2563 29.0209 33.055C28.93 32.6911 28.37 32.6071 28.0971 32.978C27.9064 33.2373 28.0271 33.6378 28.3036 33.9382C28.1576 34.04 27.9712 34.1347 27.7263 34.2027C26.9705 34.4127 25.8369 33.4189 25.0531 33.3769C24.2693 33.3349 23.5835 33.9928 23.1916 34.4126C22.7997 34.8325 22.2738 34.4605 22.2818 34.1887L21.6136 34.0646ZM28.4751 33.1248C28.622 33.0619 28.685 33.1738 28.706 33.3557C28.7148 33.432 28.6729 33.5568 28.5702 33.6909C28.4082 33.4419 28.3816 33.1648 28.4751 33.1248Z"
            fill="#73AF00" />
        <path d="M23.8339 35.6179L23.416 35.833L23.5328 35.5442L23.8339 35.6179Z" fill="#F5F5F5" />
        <path d="M23.4443 35.5184L23.058 35.7172L23.166 35.4503L23.4443 35.5184Z" fill="#F5F5F5" />
        <path d="M23.0837 35.4457L22.7982 35.6067L22.872 35.4023L23.0837 35.4457Z" fill="#F5F5F5" />
        <path d="M26.2899 35.805L25.8349 35.9235L26.0122 35.6672L26.2899 35.805Z" fill="#F5F5F5" />
        <path d="M25.974 35.6369L25.5504 35.7329L25.7215 35.5013L25.974 35.6369Z" fill="#F5F5F5" />
        <path d="M25.6784 35.4817L25.3875 35.633L25.4681 35.4312L25.6784 35.4817Z" fill="#F5F5F5" />
        <path
            d="M19.653 19.9612C19.5639 20.0239 19.558 20.169 19.6398 20.2853C19.7217 20.4016 19.8602 20.4451 19.9493 20.3824C20.0385 20.3197 20.0443 20.1746 19.9625 20.0583C19.8807 19.942 19.7421 19.8985 19.653 19.9612Z"
            fill="#F5F5F5" />
        <path
            d="M30.991 20.3838C31.0801 20.4464 31.2186 20.403 31.3005 20.2866C31.3823 20.1703 31.3764 20.0252 31.2873 19.9625C31.1982 19.8998 31.0596 19.9433 30.9778 20.0596C30.896 20.1759 30.9019 20.3211 30.991 20.3838Z"
            fill="#F5F5F5" />
        <path
            d="M28.1746 24.4377V29.4604C28.1746 30.9517 26.9613 32.1649 25.4701 32.1649C23.9789 32.1649 22.7656 30.9516 22.7656 29.4604V24.4377H28.1746ZM29.72 22.5059H21.22C21.0067 22.5059 20.8337 22.6788 20.8337 22.8922V29.4603C20.8337 32.0209 22.9095 34.0967 25.47 34.0967C28.0306 34.0967 30.1063 32.0209 30.1063 29.4603V22.8923C30.1064 22.6788 29.9334 22.5059 29.72 22.5059Z"
            fill="#F5F5F5" />
        <path
            d="M22.7651 24.4379H20.8334V23.3682C20.8334 22.8921 21.2194 22.5061 21.6955 22.5061H22.7652L22.7651 24.4379Z"
            fill="#FF4B55" />
        <path d="M26.4362 22.5055H24.5045V24.4372H26.4362V22.5055Z" fill="#FF4B55" />
        <path d="M22.7654 26.3698H20.8336V28.3015H22.7654V26.3698Z" fill="#FF4B55" />
        <path d="M30.1074 26.3698H28.1757V28.3015H30.1074V26.3698Z" fill="#FF4B55" />
        <path
            d="M30.1064 24.4376H28.1746V22.5059H29.2443C29.7204 22.5059 30.1065 22.8919 30.1065 23.368V24.4376H30.1064Z"
            fill="#FF4B55" />
        <path
            d="M27.1139 33.7913L26.3708 32.0076C26.0886 32.1077 25.7864 32.1649 25.4705 32.1649C25.1546 32.1649 24.8523 32.1076 24.5702 32.0076L23.827 33.7913C24.3385 33.9857 24.891 34.0967 25.4706 34.0967C26.05 34.0967 26.6024 33.9857 27.1139 33.7913Z"
            fill="#FF4B55" />
        <path
            d="M22.0502 32.5829L23.5612 31.3742C23.1789 30.9927 22.912 30.4971 22.8115 29.9442L20.9491 30.4763C21.1284 31.2772 21.5156 31.9976 22.0502 32.5829Z"
            fill="#FF4B55" />
        <path
            d="M29.9915 30.4762L28.1291 29.9441C28.0287 30.497 27.7617 30.9926 27.3794 31.3741L28.8904 32.5828C29.425 31.9976 29.8123 31.2772 29.9915 30.4762Z"
            fill="#FF4B55" />
        <path d="M22.1852 22.8923H21.4124V24.0514H22.1852V22.8923Z" fill="#FFE15A" />
        <path d="M22.185 26.7555H21.4122V27.9146H22.185V26.7555Z" fill="#FFE15A" />
        <path d="M22.5715 30.6198H21.7988V31.7788H22.5715V30.6198Z" fill="#FFE15A" />
        <path d="M29.1388 30.6198H28.3661V31.7788H29.1388V30.6198Z" fill="#FFE15A" />
        <path d="M29.5256 22.8922H28.7528V24.0513H29.5256V22.8922Z" fill="#FFE15A" />
        <path d="M22.1852 24.8113H21.4124V25.9704H22.1852V24.8113Z" fill="#FF4B55" />
        <path d="M29.5256 24.8114H28.7528V25.9705H29.5256V24.8114Z" fill="#FF4B55" />
        <path d="M22.185 28.6434H21.4122V29.8025H22.185V28.6434Z" fill="#FF4B55" />
        <path d="M23.8499 32.0604H23.0771V33.2195H23.8499V32.0604Z" fill="#FF4B55" />
        <path d="M27.8585 32.0604H27.0858V33.2195H27.8585V32.0604Z" fill="#FF4B55" />
        <path d="M29.5256 28.6434H28.7528V29.8025H29.5256V28.6434Z" fill="#FF4B55" />
        <path d="M25.8555 22.8922H25.0827V24.0513H25.8555V22.8922Z" fill="#FFE15A" />
        <path d="M24.0187 22.8922H23.2459V24.0513H24.0187V22.8922Z" fill="#FF4B55" />
        <path d="M27.6572 22.8922H26.8845V24.0513H27.6572V22.8922Z" fill="#FF4B55" />
        <path d="M29.5265 26.7556H28.7537V27.9147H29.5265V26.7556Z" fill="#FFE15A" />
        <path d="M25.8558 32.5515H25.0831V33.7106H25.8558V32.5515Z" fill="#FFE15A" />
        <path
            d="M25.4694 25.1742C26.2151 25.1742 26.8216 25.7808 26.8216 26.5265C26.8216 27.2722 26.215 27.8787 25.4694 27.8787C24.7238 27.8787 24.1171 27.2722 24.1171 26.5265C24.1171 25.7809 24.7239 25.1742 25.4694 25.1742ZM25.4694 24.981C24.6159 24.981 23.9239 25.6729 23.9239 26.5265C23.9239 27.38 24.6158 28.072 25.4694 28.072C26.323 28.072 27.0149 27.3801 27.0149 26.5265C27.0149 25.6729 26.323 24.981 25.4694 24.981Z"
            fill="#FFE15A" />
        <path
            d="M25.2357 26.4179C24.8525 26.4179 24.6132 26.5258 24.4635 26.6598C24.5251 26.3563 24.6531 26.0314 24.9217 26.0314C24.9751 26.0314 25.0183 25.988 25.0183 25.9349C25.0183 25.8816 24.9751 25.8383 24.9217 25.8383C24.6553 25.8383 24.4896 26.0238 24.3859 26.2566C24.3222 24.9896 24.1254 24.9849 24.0525 24.9849C23.9992 24.9849 23.9559 25.0283 23.9559 25.0814C23.9559 25.1279 23.9883 25.1664 24.032 25.1758C24.0723 25.224 24.1069 25.3865 24.1349 25.6118C24.0099 25.3464 23.8283 25.1539 23.5616 25.1539C23.5083 25.1539 23.465 25.1974 23.465 25.2505C23.465 25.3036 23.5082 25.3471 23.5616 25.3471C23.8253 25.3471 23.9874 25.6688 24.084 26.0555C23.8987 25.7911 23.619 25.5969 23.2076 25.5969C23.1543 25.5969 23.111 25.6403 23.111 25.6935C23.111 25.7466 23.1542 25.79 23.2076 25.79C23.6349 25.79 23.8801 26.0365 24.0215 26.3214C23.8558 26.1811 23.6195 26.0798 23.2799 26.0798C23.2266 26.0798 23.1834 26.1232 23.1834 26.1764C23.1834 26.2295 23.2265 26.2729 23.2799 26.2729C24.199 26.2729 24.2134 27.1377 24.2135 27.1747C24.2135 27.1887 24.2231 27.1986 24.2285 27.2107C24.2334 27.2213 24.2335 27.2344 24.2417 27.2424L24.2418 27.2427C24.2593 27.2602 24.2835 27.271 24.31 27.271H24.3102C24.3202 27.2709 24.3266 27.2633 24.3356 27.2604C24.3651 27.2513 24.3854 27.2312 24.3952 27.202C24.3984 27.1926 24.4065 27.1857 24.4066 27.1752C24.407 27.1521 24.4232 26.611 25.2357 26.611C25.289 26.611 25.3323 26.5676 25.3323 26.5144C25.3323 26.4611 25.2891 26.4179 25.2357 26.4179Z"
            fill="#73AF00" />
        <path
            d="M25.71 26.4179C26.0932 26.4179 26.3325 26.5258 26.4822 26.6598C26.4207 26.3563 26.2927 26.0314 26.024 26.0314C25.9707 26.0314 25.9274 25.988 25.9274 25.9349C25.9274 25.8816 25.9706 25.8383 26.024 25.8383C26.2904 25.8383 26.4561 26.0238 26.5598 26.2566C26.6235 24.9896 26.8203 24.9849 26.8932 24.9849C26.9466 24.9849 26.9898 25.0283 26.9898 25.0814C26.9898 25.1279 26.9574 25.1664 26.9138 25.1758C26.8734 25.224 26.8389 25.3865 26.8108 25.6118C26.9358 25.3464 27.1175 25.1539 27.3842 25.1539C27.4375 25.1539 27.4807 25.1974 27.4807 25.2505C27.4807 25.3036 27.4376 25.3471 27.3842 25.3471C27.1204 25.3471 26.9584 25.6688 26.8617 26.0555C27.0471 25.7911 27.3267 25.5969 27.7382 25.5969C27.7915 25.5969 27.8347 25.6403 27.8347 25.6935C27.8347 25.7466 27.7916 25.79 27.7382 25.79C27.3108 25.79 27.0656 26.0365 26.9242 26.3214C27.0899 26.1811 27.3263 26.0798 27.6658 26.0798C27.7191 26.0798 27.7624 26.1232 27.7624 26.1764C27.7624 26.2295 27.7192 26.2729 27.6658 26.2729C26.7468 26.2729 26.7323 27.1377 26.7322 27.1747C26.7322 27.1887 26.7226 27.1986 26.7173 27.2107C26.7124 27.2213 26.7122 27.2344 26.7041 27.2424L26.7039 27.2427C26.6864 27.2602 26.6623 27.271 26.6357 27.271H26.6355C26.6256 27.2709 26.6191 27.2633 26.6101 27.2604C26.5806 27.2513 26.5603 27.2312 26.5506 27.202C26.5473 27.1926 26.5392 27.1857 26.5391 27.1752C26.5389 27.1521 26.5225 26.611 25.71 26.611C25.6567 26.611 25.6135 26.5676 25.6135 26.5144C25.6135 26.4611 25.6566 26.4179 25.71 26.4179Z"
            fill="#73AF00" />
        <path
            d="M23.9781 26.9128C24.1503 27.5783 24.7496 28.0719 25.4689 28.0719C26.1881 28.0719 26.7873 27.5783 26.9597 26.9128H23.9781Z"
            fill="#FF4B55" />
        <path d="M25.4697 28.0719C26.189 28.0719 26.7881 27.5783 26.9605 26.9128H25.4697V28.0719Z"
            fill="#FFE15A" />
        <path
            d="M25.4698 28.6755C26.2155 28.6755 26.822 29.2821 26.822 30.0278C26.822 30.7735 26.2154 31.38 25.4698 31.38C24.7242 31.38 24.1175 30.7735 24.1175 30.0278C24.1175 29.2822 24.7243 28.6755 25.4698 28.6755ZM25.4698 28.4825C24.6162 28.4825 23.9243 29.1744 23.9243 30.0281C23.9243 30.8816 24.6161 31.5736 25.4698 31.5736C26.3234 31.5736 27.0153 30.8817 27.0153 30.0281C27.0153 29.1743 26.3234 28.4825 25.4698 28.4825Z"
            fill="#FFE15A" />
        <path
            d="M25.2357 29.9192C24.8525 29.9192 24.6132 30.0271 24.4635 30.1611C24.5251 29.8577 24.6531 29.5328 24.9217 29.5328C24.9751 29.5328 25.0183 29.4893 25.0183 29.4362C25.0183 29.383 24.9751 29.3396 24.9217 29.3396C24.6553 29.3396 24.4896 29.5252 24.3859 29.758C24.3222 28.491 24.1254 28.4862 24.0525 28.4862C23.9992 28.4862 23.9559 28.5297 23.9559 28.5828C23.9559 28.6293 23.9883 28.6677 24.032 28.6771C24.0723 28.7254 24.1069 28.8879 24.1349 29.1132C24.0099 28.8477 23.8283 28.6552 23.5616 28.6552C23.5083 28.6552 23.465 28.6987 23.465 28.7518C23.465 28.8051 23.5082 28.8484 23.5616 28.8484C23.8253 28.8484 23.9874 29.1702 24.084 29.5568C23.8987 29.2925 23.619 29.0982 23.2076 29.0982C23.1543 29.0982 23.111 29.1417 23.111 29.1948C23.111 29.248 23.1542 29.2914 23.2076 29.2914C23.6349 29.2914 23.8801 29.5379 24.0215 29.8227C23.8558 29.6824 23.6195 29.5811 23.2799 29.5811C23.2266 29.5811 23.1834 29.6246 23.1834 29.6777C23.1834 29.7308 23.2265 29.7743 23.2799 29.7743C24.199 29.7743 24.2134 30.639 24.2135 30.676C24.2135 30.69 24.2231 30.7 24.2285 30.7119C24.2334 30.7224 24.2335 30.7355 24.2417 30.7435L24.2418 30.7438C24.2593 30.7613 24.2835 30.7721 24.31 30.7721H24.3102C24.3202 30.772 24.3266 30.7644 24.3356 30.7616C24.3651 30.7524 24.3854 30.7324 24.3952 30.7032C24.3984 30.6937 24.4065 30.6869 24.4066 30.6763C24.407 30.6533 24.4232 30.1122 25.2357 30.1122C25.289 30.1122 25.3323 30.0687 25.3323 30.0156C25.3323 29.9627 25.2891 29.9192 25.2357 29.9192Z"
            fill="#73AF00" />
        <path
            d="M25.71 29.9192C26.0932 29.9192 26.3325 30.0271 26.4822 30.1611C26.4207 29.8577 26.2927 29.5328 26.024 29.5328C25.9707 29.5328 25.9274 29.4893 25.9274 29.4362C25.9274 29.383 25.9706 29.3396 26.024 29.3396C26.2904 29.3396 26.4561 29.5252 26.5598 29.758C26.6235 28.491 26.8203 28.4862 26.8932 28.4862C26.9466 28.4862 26.9898 28.5297 26.9898 28.5828C26.9898 28.6293 26.9574 28.6677 26.9138 28.6771C26.8734 28.7254 26.8389 28.8879 26.8108 29.1132C26.9358 28.8477 27.1175 28.6552 27.3842 28.6552C27.4375 28.6552 27.4807 28.6987 27.4807 28.7518C27.4807 28.8051 27.4376 28.8484 27.3842 28.8484C27.1204 28.8484 26.9584 29.1702 26.8617 29.5568C27.0471 29.2925 27.3267 29.0982 27.7382 29.0982C27.7915 29.0982 27.8347 29.1417 27.8347 29.1948C27.8347 29.248 27.7916 29.2914 27.7382 29.2914C27.3108 29.2914 27.0656 29.5379 26.9242 29.8227C27.0899 29.6824 27.3263 29.5811 27.6658 29.5811C27.7191 29.5811 27.7624 29.6246 27.7624 29.6777C27.7624 29.7308 27.7192 29.7743 27.6658 29.7743C26.7468 29.7743 26.7323 30.639 26.7322 30.676C26.7322 30.69 26.7226 30.7 26.7173 30.7119C26.7124 30.7224 26.7122 30.7355 26.7041 30.7435L26.7039 30.7438C26.6864 30.7613 26.6623 30.7721 26.6357 30.7721H26.6355C26.6256 30.772 26.6191 30.7644 26.6101 30.7616C26.5806 30.7524 26.5603 30.7324 26.5506 30.7032C26.5473 30.6937 26.5392 30.6869 26.5391 30.6763C26.5389 30.6533 26.5225 30.1122 25.71 30.1122C25.6567 30.1122 25.6135 30.0687 25.6135 30.0156C25.6135 29.9627 25.6566 29.9192 25.71 29.9192Z"
            fill="#73AF00" />
        <path
            d="M23.9781 30.4142C24.1503 31.0796 24.7496 31.5733 25.4689 31.5733C26.1881 31.5733 26.7873 31.0796 26.9597 30.4142H23.9781Z"
            fill="#FF4B55" />
        <path d="M25.4693 31.5733C26.1886 31.5733 26.7878 31.0796 26.9601 30.4142H25.4693V31.5733Z"
            fill="#FFE15A" />
        <path
            d="M20.0614 23.6649V22.8922H18.1296V23.6649H18.5159V32.1649H18.1296V32.9376H18.5159H19.675H20.0614V32.1649H19.675V23.6649H20.0614Z"
            fill="#F5F5F5" />
        <path
            d="M32.8114 23.6649V22.8922H30.8795V23.6649H31.2659V32.1649H30.8795V32.9376H31.2659H32.4249H32.8114V32.1649H32.4249V23.6649H32.8114Z"
            fill="#F5F5F5" />
        <path
            d="M29.7191 22.5058H21.2191C20.7923 22.5058 20.4464 22.1598 20.4464 21.7331C20.4464 21.3063 20.7923 20.9603 21.2191 20.9603H29.7191C30.1458 20.9603 30.4918 21.3063 30.4918 21.7331C30.4918 22.1599 30.1459 22.5058 29.7191 22.5058Z"
            fill="#FFE15A" />
        <path
            d="M25.7592 22.023H25.1797C25.0197 22.023 24.89 21.8932 24.89 21.7332C24.89 21.5732 25.0198 21.4435 25.1797 21.4435H25.7592C25.9193 21.4435 26.049 21.5733 26.049 21.7332C26.049 21.8932 25.9192 22.023 25.7592 22.023Z"
            fill="#FF4B55" />
        <path
            d="M28.6584 22.023H28.0789C27.9188 22.023 27.7892 21.8932 27.7892 21.7332C27.7892 21.5732 27.9189 21.4435 28.0789 21.4435H28.6584C28.8184 21.4435 28.9481 21.5733 28.9481 21.7332C28.9482 21.8932 28.8184 22.023 28.6584 22.023Z"
            fill="#73AF00" />
        <path
            d="M22.8628 22.023H22.2833C22.1233 22.023 21.9936 21.8932 21.9936 21.7332C21.9936 21.5732 22.1234 21.4435 22.2833 21.4435H22.8628C23.0229 21.4435 23.1526 21.5733 23.1526 21.7332C23.1527 21.8932 23.023 22.023 22.8628 22.023Z"
            fill="#73AF00" />
        <path
            d="M30.8946 19.3585L30.3311 19.5517L30.3854 20.0892C29.7632 20.7963 29.4508 20.8419 29.3222 20.7972C29.1631 20.7422 29.0897 20.5153 29.0601 20.3415L29.2926 20.574C30.4517 19.415 29.7877 17.7125 29.7877 17.7125C29.4617 17.7729 29.3168 18.0747 29.3168 18.0747C29.0149 18.0506 28.701 18.0747 28.701 18.0747C28.6769 18.3404 28.7735 18.7146 28.7735 18.7146C28.1109 18.8512 27.8382 19.2103 27.8382 19.2103C27.9518 19.5284 28.3148 19.8012 28.3148 19.8012C28.2062 20.0668 28.3389 20.3807 28.3389 20.3807C28.5048 20.3807 28.6482 20.3307 28.7497 20.2817C28.317 20.8211 28.1133 20.834 28.0442 20.808C27.8351 20.7305 27.7821 20.113 27.8115 19.6993C27.8145 19.657 27.7894 19.6177 27.7499 19.6024C27.7106 19.5876 27.6655 19.5996 27.6391 19.6329L27.3059 20.0577C25.9155 18.2053 27.0149 17.0966 27.0149 17.0966V16.3239H26.6286V16.7102H26.2974V16.3239H25.9663V16.7102H25.6351V16.3239H25.304V16.7102H24.9728V16.3239H24.6417V16.7102H24.3105V16.3239H23.9242V17.0966C23.9242 17.0966 25.0235 18.2051 23.6332 20.0577L23.3 19.6329C23.2736 19.5993 23.2284 19.5869 23.1892 19.6024C23.1496 19.6177 23.1246 19.6571 23.1276 19.6993C23.157 20.113 23.1043 20.7304 22.8949 20.808C22.8256 20.8331 22.6216 20.8207 22.188 20.2798C22.2896 20.3296 22.4343 20.3808 22.6023 20.3808C22.6023 20.3808 22.7352 20.0669 22.6264 19.8013C22.6264 19.8013 22.9893 19.5285 23.1031 19.2104C23.1031 19.2104 22.8304 18.8513 22.1678 18.7147C22.1678 18.7147 22.2643 18.3404 22.2402 18.0748C22.2402 18.0748 21.9263 18.0507 21.6245 18.0748C21.6245 18.0748 21.4796 17.773 21.1536 17.7126C21.1536 17.7126 20.4894 19.415 21.6486 20.5741L21.8785 20.3443C21.8486 20.5179 21.7753 20.7426 21.6169 20.7974C21.4876 20.8422 21.1764 20.7966 20.5556 20.0917L20.6101 19.552L20.0467 19.3588C19.7569 18.4815 19.0646 18.5861 19.0646 18.5861C19.5234 18.9805 19.62 19.9865 19.62 19.9865L20.8113 21.1456L20.8758 20.9605C20.8491 20.8057 20.8077 20.6846 20.7631 20.5865C21.1368 20.9318 21.4402 21.0639 21.6804 20.9797C21.9161 20.8981 22.0161 20.6317 22.0584 20.4306C22.3753 20.8222 22.6299 21.0107 22.8425 21.0107C22.884 21.0107 22.9238 21.0034 22.9621 20.9891C23.2659 20.8767 23.3245 20.3407 23.3288 19.9826L23.5381 20.2494V20.9605H25.0836C25.0836 20.7471 25.2565 20.5741 25.4699 20.5741C25.6833 20.5741 25.8562 20.7471 25.8562 20.9605H27.4017V20.2494L27.611 19.9826C27.6153 20.3407 27.6741 20.8767 27.9777 20.9891C28.016 21.0034 28.0558 21.0107 28.0973 21.0107C28.3099 21.0107 28.5644 20.822 28.8814 20.4306C28.9237 20.6317 29.0237 20.8981 29.2594 20.9797C29.5007 21.0639 29.8051 20.931 30.1802 20.5835C30.1352 20.6821 30.093 20.8041 30.0661 20.9606L30.1305 21.1457L31.3218 19.9866C31.3218 19.9866 31.4184 18.9805 31.8772 18.5862C31.8765 18.5858 31.1843 18.4812 30.8946 19.3585Z"
            fill="#FFE15A" />
        <path
            d="M24.0204 22.023C23.8603 22.023 23.7306 21.8932 23.7306 21.7332C23.7306 21.5732 23.8604 21.4435 24.0204 21.4435C24.1804 21.4435 24.3101 21.5733 24.3101 21.7332C24.3101 21.8932 24.1803 22.023 24.0204 22.023Z"
            fill="#F5F5F5" />
        <path
            d="M26.9187 22.023C26.7586 22.023 26.6289 21.8932 26.6289 21.7332C26.6289 21.5732 26.7587 21.4435 26.9187 21.4435C27.0787 21.4435 27.2084 21.5733 27.2084 21.7332C27.2085 21.8932 27.0787 22.023 26.9187 22.023Z"
            fill="#F5F5F5" />
        <path
            d="M29.8174 22.023C29.6573 22.023 29.5276 21.8932 29.5276 21.7332C29.5276 21.5732 29.6574 21.4435 29.8174 21.4435C29.9774 21.4435 30.1071 21.5733 30.1071 21.7332C30.1071 21.8932 29.9774 22.023 29.8174 22.023Z"
            fill="#FF4B55" />
        <path
            d="M21.1243 22.023C20.9642 22.023 20.8345 21.8932 20.8345 21.7332C20.8345 21.5732 20.9643 21.4435 21.1243 21.4435C21.2843 21.4435 21.414 21.5733 21.414 21.7332C21.414 21.8932 21.2842 22.023 21.1243 22.023Z"
            fill="#FF4B55" />
        <path
            d="M25.4685 19.0286C25.6819 19.0286 25.8549 18.8557 25.8549 18.6423C25.8549 18.4289 25.6819 18.256 25.4685 18.256C25.2552 18.256 25.0822 18.4289 25.0822 18.6423C25.0822 18.8557 25.2552 19.0286 25.4685 19.0286Z"
            fill="#F5F5F5" />
        <path
            d="M21.5198 18.9966C21.3861 19.0304 21.3095 19.1835 21.3487 19.3387C21.3878 19.4938 21.5279 19.5922 21.6616 19.5585C21.7953 19.5248 21.8719 19.3717 21.8327 19.2165C21.7936 19.0613 21.6535 18.9629 21.5198 18.9966Z"
            fill="#F5F5F5" />
        <path
            d="M29.2791 19.5585C29.4127 19.5922 29.5528 19.4938 29.592 19.3386C29.6312 19.1835 29.5545 19.0304 29.4209 18.9966C29.2872 18.9629 29.1471 19.0613 29.108 19.2165C29.0688 19.3716 29.1454 19.5248 29.2791 19.5585Z"
            fill="#F5F5F5" />
        <path
            d="M20.8322 26.2437C20.4672 26.1747 19.981 26.1243 19.4473 26.1806C18.9245 26.2357 18.314 26.3982 17.7412 26.7873V29.2346C18.5409 27.3017 20.3243 27.6754 20.8322 27.8287V26.2437Z"
            fill="#F5F5F5" />
        <path
            d="M30.1046 26.2437C30.4696 26.1747 30.9558 26.1243 31.4895 26.1806C32.0122 26.2357 32.6228 26.3982 33.1955 26.7873V29.2346C32.3958 27.3017 30.6124 27.6754 30.1046 27.8287V26.2437Z"
            fill="#F5F5F5" />
        <path
            d="M23.3613 32.7826C23.3613 32.7826 22.945 33.436 22.7342 33.4992C22.7342 33.4992 22.4486 33.7073 22.3906 33.6864L23.3929 32.5245L23.3613 32.7826Z"
            fill="#FF4B55" />
        <path
            d="M23.3249 33.1598C23.129 33.1388 22.975 33.2507 22.877 33.3837C22.7791 33.5167 22.5152 33.5605 22.4879 33.3877C22.4632 33.2323 23.0106 32.7468 23.0106 32.7468C23.0106 32.7468 22.9197 32.5831 22.6697 32.6468C22.432 32.7073 22.1982 33.0898 22.1982 33.0898C22.1982 33.0898 21.9606 32.9968 21.7697 33.1558L20.9526 34.0904C20.9526 34.0904 21.9562 34.9479 23.2339 33.6845L23.0171 33.6145C23.0869 33.3487 23.3249 33.1598 23.3249 33.1598Z"
            fill="#73AF00" />
        <path
            d="M22.118 33.4958C22.1703 33.4958 22.2128 33.4533 22.2128 33.401C22.2128 33.3486 22.1703 33.3062 22.118 33.3062C22.0656 33.3062 22.0231 33.3486 22.0231 33.401C22.0231 33.4533 22.0656 33.4958 22.118 33.4958Z"
            fill="#F5F5F5" />
        <path
            d="M18.1278 16.8684C19.3146 16.8643 20.4924 17.0717 21.605 17.4832V16.2725C20.4883 15.8875 19.3114 15.7046 18.1278 15.7336V16.8684Z"
            fill="#F5F5F5" />
        <path
            d="M27.7866 15.5514C26.2627 15.1855 24.674 15.1855 23.1502 15.5514C23.1502 15.165 23.1502 14.7786 23.1502 14.3923C24.6741 14.0265 26.2628 14.0265 27.7866 14.3923C27.7866 14.7786 27.7866 15.1649 27.7866 15.5514Z"
            fill="#F5F5F5" />
        <path
            d="M23.5366 14.6683C22.5914 14.7561 21.6603 14.9775 20.7728 15.3319C20.8284 15.7142 20.884 16.0967 20.9395 16.479C21.7747 16.1455 22.6488 15.9323 23.5366 15.8345V14.6683Z"
            fill="#F5F5F5" />
        <path
            d="M17.7412 18.1916C18.2676 18.0446 18.8035 17.9363 19.346 17.8768V16.7104C18.8042 16.7607 18.2683 16.8603 17.7412 16.9981V18.1916Z"
            fill="#F5F5F5" />
        <path
            d="M32.8098 16.8684C31.623 16.8643 30.4452 17.0717 29.3326 17.4832V16.2725C30.4493 15.8875 31.6262 15.7046 32.8098 15.7336V16.8684Z"
            fill="#F5F5F5" />
        <path
            d="M27.4004 14.6683C28.3456 14.7561 29.2767 14.9775 30.1642 15.3319C30.1086 15.7142 30.053 16.0967 29.9975 16.479C29.1623 16.1455 28.2882 15.9323 27.4004 15.8345V14.6683Z"
            fill="#F5F5F5" />
        <path
            d="M33.1956 18.1916C32.6692 18.0446 32.1333 17.9363 31.5908 17.8768V16.7104C32.1326 16.7607 32.6685 16.8603 33.1956 16.9981V18.1916Z"
            fill="#F5F5F5" />
    </g>
    <defs>
        <clipPath id="clip0_9_2621">
            <rect width="50" height="50" fill="white" transform="translate(0.46875 0.444092)" />
        </clipPath>
    </defs>
</svg>
