<svg width="51" height="51" viewBox="0 0 51 51" fill="none" xmlns="http://www.w3.org/2000/svg">
    <g clip-path="url(#clip0_9_2596)">
        <path
            d="M17.5649 41.5535H1.76027C1.2842 41.5535 0.898163 41.1675 0.898163 40.6914V9.65691C0.898163 9.18083 1.2842 8.7948 1.76027 8.7948H17.5649V41.5535Z"
            fill="#73AF00" />
        <path d="M34.2322 8.79529H17.5652V41.5541H34.2322V8.79529Z" fill="#F5F5F5" />
        <path
            d="M50.0362 41.5535H34.2316V8.79492H50.0362C50.5123 8.79492 50.8983 9.18096 50.8983 9.65703V40.6915C50.8983 41.1677 50.5123 41.5535 50.0362 41.5535Z"
            fill="#FF4B55" />
        <path d="M27.3851 25.9453L25.8983 26.6889V27.4323H26.6417L27.3851 25.9453Z"
            fill="#FFD250" />
        <path
            d="M25.8968 29.2908C25.6913 29.2908 25.525 29.1245 25.525 28.919V27.4322C25.525 27.2267 25.6913 27.0604 25.8968 27.0604C26.1023 27.0604 26.2686 27.2267 26.2686 27.4322V28.919C26.2686 29.1245 26.1023 29.2908 25.8968 29.2908Z"
            fill="#00C3A0" />
        <path
            d="M25.8968 27.804C24.4367 27.804 23.0269 27.2406 21.9267 26.2177C21.7764 26.0779 21.7677 25.8427 21.9073 25.6925C22.0481 25.5426 22.2831 25.5346 22.4325 25.6732C23.3948 26.568 24.6251 27.0606 25.8967 27.0606C27.1683 27.0606 28.3985 26.568 29.3608 25.6732C29.5107 25.5342 29.7456 25.5418 29.886 25.6925C30.0258 25.8428 30.0171 26.078 29.8667 26.2177C28.7667 27.2407 27.3568 27.804 25.8968 27.804Z"
            fill="#00C3A0" />
        <path
            d="M25.8982 29.2909C24.9453 29.2909 24.0222 29.0125 23.2287 28.4854L23.6403 27.8661C24.982 28.7576 26.8144 28.7576 28.156 27.8661L28.5676 28.4854C27.7742 29.0126 26.8511 29.2909 25.8982 29.2909Z"
            fill="#00AADC" />
        <path d="M25.3095 24.2726L24.4887 25.5428L24.3492 25.9609L26.4866 25.4653L25.3095 24.2726Z"
            fill="#732D37" />
        <path
            d="M23.6232 26.3694C22.6406 26.3694 21.4611 25.5425 21.1482 23.6999L21.8815 23.5758C22.1415 25.108 23.084 25.627 23.65 25.6257C23.8236 25.6209 24.0046 25.561 24.0189 25.4384C24.0356 25.2917 24.0396 25.2569 23.6508 25.1255C23.4395 25.0539 23.1999 24.973 23.0319 24.7806C22.3519 24.0042 23.2725 23.1824 23.7148 22.7875C23.7928 22.7177 23.8251 22.6586 23.8168 22.6361C23.7925 22.5725 23.6466 22.4764 23.4822 22.4764C23.0099 22.4764 22.6516 22.2096 22.5475 21.7805C22.4393 21.3362 22.6437 20.8679 23.0329 20.6669L23.3742 21.3275C23.283 21.3747 23.2468 21.509 23.27 21.6049C23.2791 21.6433 23.3012 21.733 23.4824 21.733C23.9375 21.733 24.3707 22.0016 24.5115 22.3712C24.5717 22.5287 24.6624 22.9382 24.2102 23.3422C23.7219 23.7782 23.4297 24.1063 23.5916 24.2911C23.6283 24.3328 23.7855 24.3862 23.8893 24.4211C24.224 24.5344 24.8469 24.7449 24.7577 25.5235C24.7017 26.0132 24.2647 26.3529 23.6708 26.369C23.6548 26.369 23.6388 26.3694 23.6232 26.3694Z"
            fill="#AAD264" />
        <path
            d="M26.6417 22.2282C26.6417 22.2282 27.3852 20.7414 25.8983 19.998C25.8983 19.998 31.1023 19.2545 30.3588 25.9454L30.3585 25.9451C29.8706 25.5548 29.1462 24.8414 28.8875 24.2727L26.6417 22.9716V22.2282Z"
            fill="#874150" />
        <path
            d="M25.8983 23.7151L29.6153 25.9454C29.6153 25.9454 29.6153 25.9454 28.1285 26.6888L25.8983 24.4586V23.7151Z"
            fill="#732D37" />
        <path
            d="M24.4112 21.4848C24.8218 21.4848 25.1547 21.8177 25.1547 22.2283L25.1539 22.2291C24.7103 22.6726 24.6005 23.35 24.881 23.9111L25.0489 24.2471C25.1189 24.3872 25.2111 24.5151 25.3219 24.6258L27.3851 26.689V25.6616C27.3851 24.3816 27.0871 23.1192 26.5146 21.9744C26.1368 21.2188 25.3645 20.7415 24.5198 20.7415H24.4113V21.485H24.4112V21.4848Z"
            fill="#783C46" />
        <path
            d="M24.4117 20.7413L23.6682 21.4848V22.2282C23.6682 22.2282 24.5526 21.7799 24.8507 21.637C25.059 21.5372 25.0211 21.3012 24.9015 21.1874C24.8085 21.0989 24.4117 20.7413 24.4117 20.7413Z"
            fill="#FFD250" />
        <path
            d="M25.8983 30.7776C22.4138 30.7776 19.5791 27.943 19.5791 24.4585H20.3226C20.3226 27.5332 22.8237 30.0343 25.8984 30.0343C28.9731 30.0343 31.4741 27.5332 31.4741 24.4585H32.2176C32.2174 27.943 29.3827 30.7776 25.8983 30.7776Z"
            fill="#AAD264" />
        <path
            d="M20.3646 27.1691C20.6432 27.1691 20.8691 26.9433 20.8691 26.6646C20.8691 26.386 20.6432 26.1602 20.3646 26.1602C20.0859 26.1602 19.8601 26.386 19.8601 26.6646C19.8601 26.9433 20.0859 27.1691 20.3646 27.1691Z"
            fill="#FFE15A" />
        <path
            d="M21.4795 28.9503C21.7581 28.9503 21.984 28.7244 21.984 28.4458C21.984 28.1672 21.7581 27.9413 21.4795 27.9413C21.2008 27.9413 20.975 28.1672 20.975 28.4458C20.975 28.7244 21.2008 28.9503 21.4795 28.9503Z"
            fill="#FFE15A" />
        <path
            d="M23.2911 30.2971C23.5698 30.2971 23.7956 30.0712 23.7956 29.7926C23.7956 29.514 23.5698 29.2881 23.2911 29.2881C23.0125 29.2881 22.7867 29.514 22.7867 29.7926C22.7867 30.0712 23.0125 30.2971 23.2911 30.2971Z"
            fill="#FFE15A" />
        <path
            d="M31.4889 27.1691C31.7675 27.1691 31.9934 26.9433 31.9934 26.6646C31.9934 26.386 31.7675 26.1602 31.4889 26.1602C31.2103 26.1602 30.9844 26.386 30.9844 26.6646C30.9844 26.9433 31.2103 27.1691 31.4889 27.1691Z"
            fill="#FFE15A" />
        <path
            d="M30.3724 28.9503C30.651 28.9503 30.8769 28.7244 30.8769 28.4458C30.8769 28.1672 30.651 27.9413 30.3724 27.9413C30.0938 27.9413 29.8679 28.1672 29.8679 28.4458C29.8679 28.7244 30.0938 28.9503 30.3724 28.9503Z"
            fill="#FFE15A" />
        <path
            d="M28.5607 30.2971C28.8394 30.2971 29.0652 30.0712 29.0652 29.7926C29.0652 29.514 28.8394 29.2881 28.5607 29.2881C28.2821 29.2881 28.0562 29.514 28.0562 29.7926C28.0562 30.0712 28.2821 30.2971 28.5607 30.2971Z"
            fill="#FFE15A" />
        <path
            d="M26.2701 29.6625H25.5266C25.1161 29.6625 24.7832 29.3295 24.7832 28.919C24.7832 28.5084 25.1161 28.1755 25.5266 28.1755H26.2701C26.6806 28.1755 27.0135 28.5084 27.0135 28.919C27.0135 29.3296 26.6806 29.6625 26.2701 29.6625Z"
            fill="#FFB478" />
        <path
            d="M28.8875 24.2726C29.1354 25.0005 29.6619 25.6665 30.3585 25.945L30.3588 25.9453C31.1023 19.2546 25.8983 19.998 25.8983 19.998C29.6153 19.998 28.8875 24.2726 28.8875 24.2726Z"
            fill="#9B4B5A" />
    </g>
    <defs>
        <clipPath id="clip0_9_2596">
            <rect width="50" height="50" fill="white" transform="translate(0.898438 0.174561)" />
        </clipPath>
    </defs>
</svg>
