<svg width="51" height="51" viewBox="0 0 51 51" fill="none" xmlns="http://www.w3.org/2000/svg">
    <g clip-path="url(#clip0_9_2589)">
        <path
            d="M49.33 41.8233H1.05431C0.578234 41.8233 0.1922 41.4373 0.1922 40.9612V9.9268C0.1922 9.45073 0.578234 9.0647 1.05431 9.0647H49.3301C49.8062 9.0647 50.1922 9.45073 50.1922 9.9268V40.9612C50.1921 41.4374 49.8061 41.8233 49.33 41.8233Z"
            fill="#82AFFF" />
        <path
            d="M25.0796 13.781L24.4154 15.7724L22.3163 15.7887C22.2013 15.7896 22.1535 15.9365 22.2461 16.005L23.9348 17.2519L23.3016 19.2533C23.2669 19.363 23.3918 19.4539 23.4854 19.3869L25.1931 18.1662L26.901 19.3869C26.9946 19.4538 27.1195 19.3631 27.0848 19.2533L26.4516 17.2519L28.1402 16.005C28.2328 15.9366 28.1851 15.7897 28.07 15.7887L25.9709 15.7724L25.3067 13.781C25.2704 13.6719 25.1159 13.6719 25.0796 13.781Z"
            fill="#F5F5F5" />
        <path
            d="M25.0796 31.5606L24.4154 33.552L22.3163 33.5684C22.2013 33.5692 22.1535 33.7161 22.2461 33.7846L23.9348 35.0315L23.3016 37.0329C23.2669 37.1426 23.3918 37.2335 23.4854 37.1665L25.1931 35.9458L26.901 37.1665C26.9946 37.2334 27.1195 37.1427 27.0848 37.0329L26.4516 35.0315L28.1402 33.7846C28.2328 33.7162 28.1851 33.5693 28.07 33.5684L25.9709 33.552L25.3067 31.5606C25.2704 31.4515 25.1159 31.4515 25.0796 31.5606Z"
            fill="#F5F5F5" />
        <path
            d="M36.8564 25.3307L34.865 24.6665L34.8486 22.5674C34.8478 22.4524 34.7009 22.4046 34.6324 22.4972L33.3855 24.1859L31.3841 23.5527C31.2744 23.518 31.1836 23.6429 31.2505 23.7365L32.4712 25.4442L31.2505 27.1521C31.1836 27.2457 31.2743 27.3706 31.3841 27.3359L33.3855 26.7027L34.6324 28.3913C34.7008 28.4839 34.8477 28.4362 34.8486 28.3211L34.865 26.222L36.8564 25.5578C36.9654 25.5215 36.9654 25.367 36.8564 25.3307Z"
            fill="#F5F5F5" />
        <path
            d="M13.5301 25.3307L15.5215 24.6665L15.5378 22.5674C15.5387 22.4524 15.6856 22.4046 15.754 22.4972L17.001 24.1859L19.0024 23.5527C19.112 23.518 19.203 23.6429 19.136 23.7365L17.9153 25.4443L19.136 27.1522C19.2029 27.2458 19.1121 27.3707 19.0024 27.336L17.001 26.7028L15.754 28.3914C15.6857 28.484 15.5388 28.4363 15.5378 28.3212L15.5215 26.2221L13.5301 25.5579C13.421 25.5215 13.421 25.367 13.5301 25.3307Z"
            fill="#F5F5F5" />
    </g>
    <defs>
        <clipPath id="clip0_9_2589">
            <rect width="50" height="50" fill="white" transform="translate(0.191406 0.444092)" />
        </clipPath>
    </defs>
</svg>
