<svg width="51" height="51" viewBox="0 0 51 51" fill="none" xmlns="http://www.w3.org/2000/svg">
    <g clip-path="url(#clip0_9_2539)">
        <path
            d="M33.9378 9.22302H49.7424C50.2185 9.22302 50.6045 9.60906 50.6045 10.0851V41.1196C50.6045 41.5957 50.2185 41.9817 49.7424 41.9817H33.9378V9.22302Z"
            fill="#FF4B55" />
        <path d="M33.9385 9.22339H17.2715V41.9822H33.9385V9.22339Z" fill="#FFE15A" />
        <path
            d="M1.46654 9.22302H17.2711V41.9816H1.46654C0.990466 41.9816 0.604431 41.5956 0.604431 41.1195V10.085C0.604431 9.60896 0.990466 9.22302 1.46654 9.22302Z"
            fill="#41479B" />
        <path d="M28.6593 31.5104L29.0882 31.1608L27.134 28.764L26.7051 29.1137L28.6593 31.5104Z"
            fill="#FFCD5A" />
        <path d="M27.349 30.344L28.2067 29.6453L27.3471 28.5901L26.4893 29.2888L27.349 30.344Z"
            fill="#FFBE5A" />
        <path d="M24.7436 29.1138L24.3148 28.7642L22.3606 31.1609L22.7894 31.5106L24.7436 29.1138Z"
            fill="#FFCD5A" />
        <path d="M24.9574 29.289L24.0996 28.5902L23.24 29.6454L24.0978 30.3442L24.9574 29.289Z"
            fill="#FFBE5A" />
        <path d="M25.0321 29.6635L23.649 32.4298L25.5854 33.8129V29.9401L25.0321 29.6635Z"
            fill="#FFE15A" />
        <path d="M26.1386 29.6635L27.5217 32.4298L25.5853 33.8129V29.9401L26.1386 29.6635Z"
            fill="#FFCD5A" />
        <path
            d="M21.7127 29.6635V22.4711H22.5426C22.5426 22.4711 22.5426 27.1738 22.5426 28.0036C22.5426 28.8336 21.7127 29.6635 21.7127 29.6635Z"
            fill="#FFBE5A" />
        <path
            d="M21.1591 31.0467V22.4711H21.989C21.989 22.4711 21.989 28.5569 21.989 29.3868C21.9889 30.2167 21.1591 31.0467 21.1591 31.0467Z"
            fill="#FFCD5A" />
        <path
            d="M20.6061 32.1532V22.4712H21.4359C21.4359 22.4712 21.4359 29.6636 21.4359 30.4935C21.4359 31.3232 20.6061 32.1532 20.6061 32.1532Z"
            fill="#FFE15A" />
        <path
            d="M22.5424 22.7477C22.5424 22.7477 22.5424 26.6896 22.5424 28.0036C22.5424 29.3868 24.548 29.2024 25.5853 30.2166C26.6227 29.2023 28.6282 29.3867 28.6282 28.0036C28.6282 26.6897 28.6282 22.7477 28.6282 22.7477H22.5424Z"
            fill="#FF4B55" />
        <path
            d="M22.5424 25.7906C22.5424 26.6664 22.5424 27.516 22.5424 28.0037C22.5424 29.3869 24.548 29.2024 25.5853 30.2167C26.6227 29.2023 28.6282 29.3868 28.6282 28.0036C28.6282 27.516 28.6282 26.6663 28.6282 25.7905L22.5424 25.7906Z"
            fill="#41479B" />
        <path
            d="M25.5848 29.3868L24.755 28.8335V28.5569L25.0316 28.2803V26.6205L24.2017 26.0672L25.0316 24.9607H25.3082L25.5848 25.2375L25.8615 24.9607H26.1382L26.968 26.0672L26.1382 26.6205V28.2803L26.4147 28.5569V28.8335L25.5848 29.3868Z"
            fill="#FFE15A" />
        <path
            d="M24.4783 23.0243C24.4783 23.0243 23.3718 23.301 23.3718 24.4075C23.3718 25.514 24.4783 26.0673 24.4783 26.0673L25.0315 25.2374C23.3717 24.6841 24.4783 23.0243 24.4783 23.0243Z"
            fill="#FFE15A" />
        <path
            d="M26.6913 23.0243C26.6913 23.0243 27.7978 23.301 27.7978 24.4075C27.7978 25.514 26.6913 26.0673 26.6913 26.0673L26.1381 25.2374C27.7978 24.6841 26.6913 23.0243 26.6913 23.0243Z"
            fill="#FFE15A" />
        <path d="M22.8185 25.7906L23.3717 26.0671L23.9251 25.7906L23.3717 25.5139L22.8185 25.7906Z"
            fill="#FFE15A" />
        <path d="M27.2447 25.7906L27.7979 26.0671L28.3512 25.7906L27.7979 25.5139L27.2447 25.7906Z"
            fill="#FFE15A" />
        <path
            d="M25.5849 23.1626L25.7861 23.3687L26.0739 23.3651L26.0705 23.653L26.2765 23.8542L26.0705 24.0553L26.0739 24.3432L25.7861 24.3397L25.5849 24.5458L25.3838 24.3397L25.0958 24.3432L25.0993 24.0553L24.8934 23.8542L25.0993 23.653L25.0958 23.3651L25.3838 23.3687L25.5849 23.1626Z"
            fill="#FFE15A" />
        <path
            d="M23.7069 26.9988L23.9063 27.2207L24.1837 27.1107C24.3273 27.0538 24.4621 27.2099 24.3848 27.3437L24.2354 27.602L24.4258 27.8319C24.5243 27.9509 24.4174 28.1274 24.2663 28.0952L23.9745 28.0329L23.8147 28.2849C23.732 28.4154 23.5311 28.3682 23.515 28.2145L23.484 27.9177L23.195 27.8437C23.0453 27.8053 23.0281 27.5998 23.1692 27.5371L23.4419 27.416L23.423 27.1182C23.4136 26.9637 23.6037 26.8839 23.7069 26.9988Z"
            fill="#FFE15A" />
        <path
            d="M27.3906 27.6294C27.4517 27.3147 27.7113 27.092 28.0139 27.0584C27.9518 27.025 27.8858 26.9973 27.813 26.9833C27.4255 26.9082 27.0505 27.1614 26.9754 27.5488C26.9003 27.9363 27.1534 28.3113 27.5409 28.3864C27.6138 28.4006 27.6854 28.3997 27.7553 28.3919C27.4872 28.2476 27.3297 27.944 27.3906 27.6294Z"
            fill="#FFE15A" />
        <path
            d="M24.4783 22.7477L25.0316 19.9813L23.9251 19.1515L24.2018 18.8748H24.755C24.755 18.8748 25.0317 18.5981 25.5849 18.5981C26.1381 18.5981 26.6913 18.8748 26.6913 19.7046C26.6913 20.5344 26.968 22.7475 26.968 22.7475H24.4783V22.7477Z"
            fill="#FFE15A" />
        <path
            d="M22.5425 21.6411C21.9314 21.6411 21.4361 22.1365 21.4361 22.7476H23.6492C23.6491 22.1365 23.1535 21.6411 22.5425 21.6411Z"
            fill="#FFAA5A" />
        <path
            d="M22.2658 22.7477H20.6061V20.9064C20.6061 20.5483 20.8964 20.2581 21.2544 20.2581H21.6175C21.9756 20.2581 22.2658 20.5484 22.2658 20.9064V22.7477Z"
            fill="#FFBE5A" />
        <path
            d="M29.4576 29.6636V22.4712H28.6277C28.6277 22.4712 28.6277 27.1739 28.6277 28.0037C28.6277 28.8337 29.4576 29.6636 29.4576 29.6636Z"
            fill="#FFBE5A" />
        <path
            d="M30.0114 31.0467V22.4711H29.1816C29.1816 22.4711 29.1816 28.5569 29.1816 29.3868C29.1816 30.2167 30.0114 31.0467 30.0114 31.0467Z"
            fill="#FFCD5A" />
        <path
            d="M30.5647 32.1532V22.4712H29.7348C29.7348 22.4712 29.7348 29.6636 29.7348 30.4935C29.7347 31.3232 30.5647 32.1532 30.5647 32.1532Z"
            fill="#FFE15A" />
        <path
            d="M28.6283 21.6411C29.2394 21.6411 29.7347 22.1365 29.7347 22.7476H27.5216C27.5217 22.1365 28.0171 21.6411 28.6283 21.6411Z"
            fill="#FFAA5A" />
        <path
            d="M28.9049 22.7477H30.5646V20.9064C30.5646 20.5483 30.2743 20.2581 29.9163 20.2581H29.5533C29.1952 20.2581 28.905 20.5484 28.905 20.9064L28.9049 22.7477Z"
            fill="#FFBE5A" />
        <path d="M32.1082 25.8985L31.7538 25.6827L27.8799 32.0443L28.2343 32.2601L32.1082 25.8985Z"
            fill="#FFAA5A" />
        <path d="M28.7298 31.894L29.4208 31.0297L28.7449 30.4894L28.0539 31.3537L28.7298 31.894Z"
            fill="#FFE15A" />
        <path d="M32.2222 25.9703L31.6314 25.6107L30.8016 26.9741L31.3924 27.3337L32.2222 25.9703Z"
            fill="#FFCD5A" />
        <path d="M23.4802 32.0385L19.5755 25.9983L19.3431 26.1485L23.2479 32.1887L23.4802 32.0385Z"
            fill="#73AF00" />
        <path
            d="M22.0318 28.8627C21.9326 28.9752 21.8668 29.1458 21.8502 29.3425C21.7138 29.2048 21.5571 29.1171 21.4112 29.0935C21.3728 29.2362 21.3884 29.4151 21.458 29.596C21.2718 29.5303 21.0894 29.5203 20.9461 29.5646C20.9864 29.7685 21.1525 29.9898 21.4071 30.1417C21.6616 30.2936 21.9353 30.3346 22.1339 30.2733L22.1907 30.2366C22.3281 30.0806 22.403 29.8143 22.369 29.5199C22.3348 29.2255 22.2011 28.9832 22.0318 28.8627Z"
            fill="#73AF00" />
        <path
            d="M22.1621 30.5323C22.3149 30.5323 22.4388 30.4085 22.4388 30.2557C22.4388 30.1029 22.3149 29.979 22.1621 29.979C22.0093 29.979 21.8855 30.1029 21.8855 30.2557C21.8855 30.4085 22.0093 30.5323 22.1621 30.5323Z"
            fill="#FF4B55" />
        <path
            d="M20.9801 27.2365C20.8809 27.349 20.8151 27.5196 20.7985 27.7162C20.662 27.5785 20.5054 27.4908 20.3595 27.4673C20.321 27.61 20.3366 27.7889 20.4063 27.9698C20.22 27.9041 20.0376 27.8941 19.8943 27.9384C19.9347 28.1423 20.1008 28.3636 20.3554 28.5155C20.6099 28.6674 20.8836 28.7084 21.0821 28.6471L21.139 28.6104C21.2764 28.4544 21.3513 28.1881 21.3173 27.8937C21.2831 27.5991 21.1494 27.3569 20.9801 27.2365Z"
            fill="#73AF00" />
        <path
            d="M21.1112 28.9062C21.264 28.9062 21.3879 28.7824 21.3879 28.6296C21.3879 28.4768 21.264 28.3529 21.1112 28.3529C20.9584 28.3529 20.8346 28.4768 20.8346 28.6296C20.8346 28.7824 20.9584 28.9062 21.1112 28.9062Z"
            fill="#FF4B55" />
        <path
            d="M19.929 25.6104C19.8298 25.7229 19.764 25.8935 19.7474 26.0901C19.611 25.9524 19.4543 25.8647 19.3084 25.8412C19.27 25.9839 19.2856 26.1628 19.3552 26.3437C19.169 26.278 18.9866 26.268 18.8433 26.3123C18.8836 26.5162 19.0497 26.7375 19.3043 26.8894C19.5588 27.0413 19.8326 27.0823 20.0311 27.021L20.0879 26.9843C20.2253 26.8283 20.3002 26.562 20.2662 26.2676C20.2319 25.973 20.0983 25.7308 19.929 25.6104Z"
            fill="#73AF00" />
        <path
            d="M20.0596 27.2804C20.2124 27.2804 20.3362 27.1565 20.3362 27.0037C20.3362 26.8509 20.2124 26.7271 20.0596 26.7271C19.9068 26.7271 19.7829 26.8509 19.7829 27.0037C19.7829 27.1565 19.9068 27.2804 20.0596 27.2804Z"
            fill="#FF4B55" />
        <path d="M23.3938 31.3548L22.7029 30.4905L22.027 31.0308L22.7179 31.8951L23.3938 31.3548Z"
            fill="#FFE15A" />
        <path d="M24.2029 18.0457H23.9255V19.9821H24.2029V18.0457Z" fill="#FFE15A" />
        <path d="M24.478 18.322H23.6481V18.5987H24.478V18.322Z" fill="#FFE15A" />
        <path d="M23.9256 19.1516L24.7555 19.774V18.875H24.2023L23.9256 19.1516Z" fill="#FF875A" />
        <path
            d="M24.2021 18.0449V18.3216H24.4788V18.5983H24.2021V18.8749H24.7553C24.7553 18.8749 25.032 18.5983 25.5852 18.5983C26.1384 18.5983 26.6917 18.8749 26.6917 19.7047C26.6917 20.5346 26.9683 22.7476 26.9683 22.7476H27.5215C27.5215 22.1365 28.0169 21.6411 28.628 21.6411C28.7241 21.6411 28.8157 21.6572 28.9046 21.6803V21.0879C28.9046 20.6296 29.2762 20.258 29.7345 20.258C30.1928 20.258 30.5644 20.6296 30.5644 21.0879V22.4711V22.7478V27.6331L30.9216 27.0463L30.8036 26.9744L31.6335 25.611L31.7515 25.6828L31.9288 25.7908L32.2242 25.9706L31.3943 27.3341L31.2761 27.2622L30.5644 28.4316V32.1535C30.5644 32.1535 29.9039 31.4911 29.7625 30.7583C29.6614 30.6284 29.545 30.4628 29.4425 30.2747L29.1259 30.7948L29.4203 31.0301L28.7293 31.8945L28.5459 31.7478L28.2332 32.2615L27.8788 32.0457L28.2191 31.4865L28.0539 31.3544L28.2891 31.06L27.5632 30.1698L27.3487 30.3446L26.7033 29.5526C26.5315 29.6216 26.3617 29.6975 26.1983 29.7842L27.5212 32.4302L25.5848 33.8134L23.6484 32.4302L24.9713 29.7842C24.8737 29.7323 24.7745 29.6832 24.673 29.6385L24.0977 30.3446L23.8832 30.1698L23.1573 31.06L23.3925 31.3544L23.1576 31.5422L23.4787 32.0389L23.2463 32.1891L22.9404 31.7158L22.717 31.8944L22.0261 31.03L22.3366 30.7819L22.172 30.5273C22.1681 30.5274 22.1643 30.5275 22.1604 30.5275C22.07 30.5275 21.9814 30.4871 21.9288 30.4056C21.9063 30.3709 21.8942 30.333 21.8888 30.2948C21.8368 30.2916 21.784 30.2842 21.7292 30.2711C21.6263 30.4607 21.5091 30.6276 21.4075 30.7583C21.2662 31.4912 20.6055 32.1535 20.6055 32.1535V28.6247C20.5219 28.5985 20.4377 28.5651 20.3547 28.5156C20.1002 28.3636 19.934 28.1423 19.8937 27.9385C19.9519 27.9205 20.0165 27.9115 20.0852 27.9115C20.1858 27.9115 20.2952 27.931 20.4057 27.9698C20.3697 27.8761 20.3487 27.7833 20.3418 27.6954L20.0697 27.2745C20.0658 27.2746 20.062 27.2747 20.0581 27.2747C19.9676 27.2747 19.8791 27.2344 19.8264 27.1529C19.804 27.1182 19.7919 27.0803 19.7864 27.042C19.6333 27.0328 19.4655 26.986 19.3037 26.8895C19.0492 26.7375 18.883 26.5162 18.8426 26.3124C18.9008 26.2945 18.9655 26.2855 19.0341 26.2855C19.1347 26.2855 19.2441 26.3048 19.3546 26.3438C19.285 26.1628 19.2694 25.984 19.3079 25.8413C19.4538 25.8649 19.6104 25.9526 19.7468 26.0903C19.7634 25.8936 19.8293 25.723 19.9284 25.6105C20.0977 25.731 20.2313 25.9733 20.2653 26.2678C20.287 26.4551 20.2608 26.6273 20.2062 26.7707C20.2389 26.7915 20.2685 26.818 20.2909 26.8528C20.3459 26.9378 20.3439 27.0401 20.3019 27.1245L20.574 27.5454C20.5845 27.5513 20.5949 27.5583 20.6054 27.5649V22.7481V22.4714V21.0882C20.6054 20.6299 20.977 20.2583 21.4353 20.2583C21.8936 20.2583 22.2652 20.6299 22.2652 21.0882V21.6806C22.3541 21.6575 22.4457 21.6414 22.5419 21.6414C23.153 21.6414 23.6483 22.1368 23.6483 22.7479H24.4782L25.0314 19.9816L24.7547 19.7741L24.2015 19.3592V19.9817H23.9249V18.5985H23.6482V18.3218H23.9249V18.0451H24.2026L24.2021 18.0449ZM28.6427 30.6175L28.7449 30.4897L28.7993 30.5331L29.2452 29.8006C29.2063 29.6652 29.1814 29.5262 29.1814 29.3868C29.1814 29.3733 29.1814 29.3546 29.1814 29.3382C28.94 29.0206 28.6282 28.5125 28.6282 28.0036C28.6282 28.5863 28.2706 28.8898 27.7811 29.123L28.2069 29.6455L27.9925 29.8201L28.6427 30.6175ZM22.5543 30.6077L22.7022 30.4896L22.8043 30.6174L23.4545 29.8198L23.2402 29.6452L23.5922 29.2132C23.0013 28.9664 22.5422 28.6641 22.5422 28.0035C22.5422 28.3739 22.3769 28.7436 22.1939 29.0403C22.2808 29.1678 22.3463 29.3309 22.3682 29.5197C22.3899 29.7071 22.3637 29.8792 22.3091 30.0227C22.3418 30.0435 22.3714 30.0699 22.3938 30.1047C22.4488 30.1898 22.4468 30.2919 22.4048 30.3765L22.5543 30.6077ZM24.2021 17.8375H23.9254C23.8109 17.8375 23.718 17.9304 23.718 18.0449V18.1141H23.6489C23.5343 18.1141 23.4415 18.207 23.4415 18.3215V18.5982C23.4415 18.7127 23.5343 18.8056 23.6489 18.8056H23.718V19.9813C23.718 20.0958 23.8109 20.1887 23.9254 20.1887H24.2021C24.3167 20.1887 24.4095 20.0958 24.4095 19.9813V19.7739L24.6308 19.9398L24.8028 20.0688L24.3085 22.5401H23.8398C23.74 21.9138 23.1961 21.4336 22.5421 21.4336C22.5192 21.4336 22.4962 21.4344 22.473 21.4358V21.0878C22.473 20.5158 22.0076 20.0504 21.4356 20.0504C20.8636 20.0504 20.3982 20.5158 20.3982 21.0878V22.471V22.7477V25.9291C20.3233 25.7226 20.2015 25.5497 20.0489 25.441C20.0126 25.4152 19.9705 25.4026 19.9288 25.4026C19.871 25.4026 19.8138 25.4266 19.7731 25.4728C19.7092 25.5453 19.6567 25.6336 19.6175 25.7332C19.5267 25.684 19.4333 25.6508 19.3411 25.636C19.3299 25.6341 19.3189 25.6332 19.308 25.6332C19.2157 25.6332 19.1327 25.6949 19.1079 25.7866C19.0836 25.8767 19.0754 25.9755 19.0831 26.0785C19.0668 26.0778 19.0505 26.0774 19.0344 26.0774C18.9446 26.0774 18.8595 26.0896 18.7817 26.1136C18.6802 26.1449 18.6188 26.2479 18.6393 26.3521C18.693 26.6232 18.9016 26.8906 19.1975 27.067C19.334 27.1485 19.4823 27.2043 19.6328 27.2316C19.6388 27.243 19.6454 27.2541 19.6524 27.265C19.7205 27.3703 19.8273 27.4428 19.9495 27.4698L20.1006 27.7037C20.0956 27.7036 20.0906 27.7036 20.0856 27.7036C19.9958 27.7036 19.9107 27.7158 19.8329 27.7399C19.7314 27.7712 19.67 27.8741 19.6905 27.9783C19.7442 28.2494 19.9528 28.5168 20.2487 28.6933C20.296 28.7215 20.3452 28.7465 20.3983 28.7691V32.1527C20.3983 32.2366 20.449 32.3123 20.5265 32.3444C20.5522 32.3549 20.5791 32.3601 20.6057 32.3601C20.6598 32.3601 20.7129 32.339 20.7527 32.299C20.7809 32.2708 21.4316 31.6114 21.6012 30.846C21.671 30.7543 21.7354 30.6618 21.794 30.5693C21.8608 30.6464 21.9511 30.6996 22.0521 30.7221L22.0611 30.7359L21.8972 30.8669C21.8543 30.9013 21.8266 30.9513 21.8206 31.0061C21.8144 31.0607 21.8303 31.1156 21.8647 31.1586L22.5556 32.023C22.59 32.0659 22.64 32.0936 22.6948 32.0996C22.7024 32.1005 22.7101 32.1009 22.7177 32.1009C22.7646 32.1009 22.8103 32.0851 22.8472 32.0555L22.8914 32.0202L23.0727 32.3008C23.1026 32.347 23.1496 32.3795 23.2034 32.391C23.2178 32.3942 23.2324 32.3956 23.2469 32.3956C23.2866 32.3956 23.3258 32.3843 23.3595 32.3623L23.4937 32.2756L23.4633 32.3364C23.4176 32.4278 23.4453 32.5387 23.5283 32.5981L25.4647 33.9813C25.5008 34.0071 25.543 34.0199 25.5853 34.0199C25.6276 34.0199 25.6698 34.0071 25.7059 33.9813L27.6423 32.5981C27.7254 32.5387 27.753 32.4279 27.7073 32.3364L26.4771 29.876C26.5293 29.8514 26.5836 29.827 26.6406 29.8025L27.1883 30.4746C27.2294 30.5249 27.2891 30.551 27.3494 30.551C27.3955 30.551 27.4418 30.5357 27.4803 30.5043L27.5341 30.4606L28.023 31.0602L27.8923 31.2237C27.858 31.2666 27.8421 31.3215 27.8482 31.3762C27.8543 31.431 27.8819 31.481 27.9249 31.5154L27.9475 31.5334L27.702 31.9366C27.6424 32.0345 27.6735 32.162 27.7713 32.2217L28.1257 32.4375C28.1585 32.4574 28.1959 32.4678 28.2337 32.4678C28.2501 32.4678 28.2667 32.4658 28.2828 32.4618C28.3362 32.4488 28.3824 32.4152 28.411 32.3681L28.6011 32.0557C28.6393 32.0859 28.6846 32.1005 28.7298 32.1005C28.7907 32.1005 28.851 32.0738 28.892 32.0226L29.583 31.1582C29.6084 31.1264 29.6229 31.0894 29.6271 31.0518C29.8525 31.7259 30.3925 32.2731 30.4181 32.2988C30.4578 32.3385 30.511 32.3598 30.5651 32.3598C30.5918 32.3598 30.6186 32.3546 30.6443 32.3441C30.7218 32.3119 30.7725 32.2364 30.7725 32.1524V28.4886L31.3523 27.5363C31.3665 27.5392 31.3806 27.5406 31.3948 27.5406C31.4648 27.5406 31.5332 27.5052 31.5722 27.4409L32.4021 26.0775C32.4308 26.0305 32.4395 25.974 32.4264 25.9205C32.4133 25.8671 32.3796 25.8209 32.3327 25.7923L32.0373 25.6125L31.8601 25.5046L31.7418 25.4326C31.7082 25.4121 31.6709 25.4025 31.6342 25.4025C31.5642 25.4025 31.4959 25.4379 31.4569 25.5022L30.7726 26.6264V22.747V22.4703V21.0876C30.7726 20.5156 30.3072 20.0502 29.7352 20.0502C29.1632 20.0502 28.6978 20.5156 28.6978 21.0876V21.4356C28.6747 21.4342 28.6516 21.4334 28.6287 21.4334C27.9747 21.4334 27.4308 21.9136 27.331 22.5399H27.1526C27.0872 21.9952 26.8997 20.3745 26.8997 19.7044C26.8997 18.7357 26.2209 18.3905 25.5857 18.3905C25.1153 18.3905 24.8118 18.5698 24.6816 18.6671H24.6748C24.6824 18.6454 24.6866 18.6222 24.6866 18.598V18.3213C24.6866 18.2068 24.5937 18.1139 24.4792 18.1139H24.41V18.0448C24.4095 17.9304 24.3167 17.8375 24.2021 17.8375ZM22.4353 29.04C22.4884 28.9465 22.5347 28.8543 22.5746 28.7635C22.7475 28.9956 22.9963 29.1607 23.2612 29.2913L23.0795 29.5143C23.0448 29.557 23.0284 29.6116 23.0339 29.6664C23.0395 29.7212 23.0666 29.7715 23.1092 29.8062L23.1626 29.8497L22.7929 30.3031C22.7718 30.2927 22.7489 30.2861 22.7251 30.2833C22.7174 30.2824 22.7096 30.2821 22.7021 30.2821C22.6814 30.2821 22.6611 30.2852 22.6415 30.2911C22.6509 30.1868 22.6262 30.0822 22.5681 29.9921C22.5611 29.9813 22.5536 29.9706 22.5457 29.9605C22.5826 29.8121 22.5925 29.654 22.5744 29.496C22.5556 29.3338 22.5081 29.1785 22.4353 29.04ZM28.1022 29.1887C28.2849 29.0822 28.4624 28.9472 28.5969 28.7658C28.7029 29.0077 28.8421 29.2278 28.974 29.4073C28.9756 29.5229 28.9915 29.6418 29.0219 29.7681L28.707 30.2856C28.6888 30.2889 28.6709 30.2947 28.654 30.3031L28.2843 29.8497L28.3376 29.8062C28.3803 29.7714 28.4074 29.7211 28.4129 29.6664C28.4185 29.6117 28.4022 29.557 28.3673 29.5143L28.1022 29.1887ZM24.098 30.5516C24.1583 30.5516 24.2179 30.5255 24.259 30.4752L24.6089 30.0459L23.662 31.9399C23.6594 31.9351 23.6566 31.9304 23.6536 31.9257L23.4344 31.5865L23.5228 31.5158C23.5658 31.4815 23.5934 31.4315 23.5995 31.3767C23.6056 31.3221 23.5897 31.2671 23.5553 31.2242L23.4247 31.0608L23.9135 30.4611L23.9673 30.5048C24.0055 30.5364 24.0519 30.5516 24.098 30.5516ZM29.3982 30.7462L29.4433 30.672C29.483 30.7304 29.525 30.7886 29.5691 30.8466C29.573 30.8641 29.5771 30.8814 29.5815 30.8988C29.5723 30.8874 29.5618 30.877 29.55 30.8675L29.3982 30.7462Z"
            fill="#FFAA5A" />
    </g>
    <defs>
        <clipPath id="clip0_9_2539">
            <rect width="50" height="50" fill="white" transform="translate(0.603516 0.602539)" />
        </clipPath>
    </defs>
</svg>
