<svg width="51" height="51" viewBox="0 0 51 51" fill="none" xmlns="http://www.w3.org/2000/svg">
<g clip-path="url(#clip0_9_2520)">
<path d="M33.6568 9.22302H49.4614C49.9375 9.22302 50.3235 9.60906 50.3235 10.0851V41.1196C50.3235 41.5957 49.9375 41.9817 49.4614 41.9817H33.6568V9.22302Z" fill="#FF4B55"/>
<path d="M33.6574 9.22339H16.9904V41.9822H33.6574V9.22339Z" fill="#41479B"/>
<path d="M1.18548 9.22302H16.9901V41.9816H1.18548C0.709403 41.9816 0.323368 41.5956 0.323368 41.1195V10.085C0.323368 9.60896 0.709403 9.22302 1.18548 9.22302Z" fill="#FF4B55"/>
<path d="M8.69056 22.773C7.38772 22.773 6.27102 21.988 5.77903 20.8668C5.77874 20.8839 5.77395 20.8998 5.77395 20.9169C5.77395 22.5277 7.07981 23.8335 8.69056 23.8335C10.3013 23.8335 11.6071 22.5277 11.6071 20.9169C11.6071 20.8998 11.6023 20.8839 11.602 20.8669C11.11 21.988 9.99329 22.773 8.69056 22.773Z" fill="#F9CF02"/>
<path d="M8.69062 22.2428C9.86207 22.2428 10.8117 21.2932 10.8117 20.1217C10.8117 18.9503 9.86207 18.0006 8.69062 18.0006C7.51917 18.0006 6.56952 18.9503 6.56952 20.1217C6.56952 21.2932 7.51917 22.2428 8.69062 22.2428Z" fill="#F9CF02"/>
<path d="M7.36483 16.1445C7.36483 16.8766 7.95838 17.4702 8.69051 17.4702C9.42264 17.4702 10.0162 16.8766 10.0162 16.1445C10.0162 15.6142 9.68475 15.5479 9.68475 15.3491C9.68475 15.1503 9.88358 14.8851 9.48592 14.5537C9.68475 14.8851 9.3534 14.9514 9.3534 15.2828C9.3534 15.6141 9.48592 15.6142 9.48592 15.8794C9.48592 16.0259 9.36717 16.1444 9.22088 16.1444C9.0744 16.1444 8.95584 16.0257 8.95584 15.8794C8.95584 15.6143 9.22088 15.3491 9.22088 14.9513C9.22088 14.5536 9.15457 14.4211 8.95584 14.0896C8.75701 13.7582 8.42557 13.493 8.6908 13.2279C8.29305 13.3604 8.49198 13.8907 8.49198 14.2222C8.49198 14.5537 8.22694 14.7525 8.22694 15.1503C8.22694 15.548 8.42576 15.6142 8.42576 15.8794C8.42576 16.0259 8.30701 16.1444 8.16073 16.1444C8.01444 16.1444 7.89569 16.0257 7.89569 15.8794C7.89569 15.6143 8.02821 15.6143 8.02821 15.2828C8.02821 14.9512 7.69676 14.885 7.89569 14.5537C7.49793 14.8851 7.69686 15.1503 7.69686 15.3491C7.69627 15.5479 7.36483 15.6141 7.36483 16.1445Z" fill="#F9CF02"/>
<path d="M2.8576 24.5826V36.8715C2.8576 36.9924 2.95564 37.0903 3.07644 37.0903H5.29002C5.41092 37.0903 5.50887 36.9923 5.50887 36.8715V24.5826C5.50887 24.4617 5.41082 24.3638 5.29002 24.3638H3.07644C2.95564 24.3637 2.8576 24.4617 2.8576 24.5826Z" fill="#F9CF02"/>
<path d="M11.8723 24.5826V36.8715C11.8723 36.9924 11.9704 37.0903 12.0912 37.0903H14.3047C14.4256 37.0903 14.5236 36.9923 14.5236 36.8715V24.5826C14.5236 24.4617 14.4255 24.3638 14.3047 24.3638H12.0912C11.9703 24.3637 11.8723 24.4617 11.8723 24.5826Z" fill="#F9CF02"/>
<path d="M6.03935 26.7037V27.3265C6.03935 27.4474 6.13739 27.5453 6.2582 27.5453H11.1231C11.244 27.5453 11.342 27.4473 11.342 27.3265V26.7037C11.342 26.5828 11.2439 26.4849 11.1231 26.4849H6.2582C6.1373 26.4849 6.03935 26.5829 6.03935 26.7037Z" fill="#F9CF02"/>
<path d="M6.03935 34.1277V34.7504C6.03935 34.8713 6.13739 34.9693 6.2582 34.9693H11.1231C11.244 34.9693 11.342 34.8712 11.342 34.7504V34.1277C11.342 34.0068 11.2439 33.9088 11.1231 33.9088H6.2582C6.1373 33.9088 6.03935 34.0068 6.03935 34.1277Z" fill="#F9CF02"/>
<path d="M6.43439 24.3638H10.9469C11.0579 24.3638 11.0984 24.51 11.0032 24.5671L8.85969 25.8533C8.75568 25.9157 8.6257 25.9157 8.52189 25.8533L6.37814 24.5671C6.28293 24.51 6.32346 24.3638 6.43439 24.3638Z" fill="#F9CF02"/>
<path d="M6.43442 35.4996H10.9469C11.058 35.4996 11.0984 35.6458 11.0033 35.703L8.85951 36.9891C8.75551 37.0515 8.62553 37.0515 8.52172 36.9891L6.37807 35.7029C6.28295 35.6457 6.32348 35.4996 6.43442 35.4996Z" fill="#F9CF02"/>
<path d="M8.94965 28.0963C8.86606 28.0883 8.7851 28.071 8.69946 28.071C7.24135 28.071 6.05512 29.2573 6.05512 30.7154C6.05512 31.5808 6.47787 32.3425 7.12377 32.8231C7.19809 32.8784 7.29633 32.7985 7.2602 32.713C7.18276 32.5295 7.1392 32.3285 7.1392 32.1167C7.1392 31.2549 7.84164 30.5541 8.70424 30.5567C9.15766 30.5581 9.59233 30.3341 9.79301 29.9275C10.2081 29.0866 9.70161 28.2507 8.94965 28.0963ZM8.69946 29.8427C8.40746 29.8427 8.17055 29.606 8.17055 29.3138C8.17055 29.0218 8.40737 28.785 8.69946 28.785C8.99145 28.785 9.22827 29.0217 9.22827 29.3138C9.22817 29.606 8.99145 29.8427 8.69946 29.8427Z" fill="#F9CF02"/>
<path d="M10.275 28.6076C10.2007 28.5523 10.1024 28.6323 10.1386 28.7177C10.2161 28.9012 10.2595 29.1022 10.2595 29.3139C10.2595 30.1758 9.55701 30.8767 8.69451 30.874C8.24109 30.8726 7.80633 31.0966 7.60574 31.5032C7.1908 32.3442 7.69734 33.1802 8.4493 33.3344C8.53289 33.3424 8.61385 33.3597 8.69949 33.3597C10.1575 33.3597 11.3438 32.1734 11.3438 30.7153C11.3436 29.85 10.9209 29.0883 10.275 28.6076ZM8.69949 32.6457C8.4075 32.6457 8.17058 32.409 8.17058 32.1168C8.17058 31.8248 8.4074 31.588 8.69949 31.588C8.99148 31.588 9.2283 31.8247 9.2283 32.1168C9.2282 32.4089 8.99148 32.6457 8.69949 32.6457Z" fill="#F9CF02"/>
</g>
<defs>
<clipPath id="clip0_9_2520">
<rect width="50" height="50" fill="white" transform="translate(0.324219 0.602539)"/>
</clipPath>
</defs>
</svg>
