<svg width="51" height="51" viewBox="0 0 51 51" fill="none" xmlns="http://www.w3.org/2000/svg">
<g clip-path="url(#clip0_9_2506)">
<path d="M49.028 10.9473H2.47632V40.2578H49.028V10.9473Z" fill="#C8414B"/>
<path d="M49.89 9.22327H1.61428C1.13821 9.22327 0.752174 9.6092 0.752174 10.0853V41.1197C0.752174 41.5958 1.13821 41.9818 1.61428 41.9818H49.8901C50.3661 41.9818 50.7522 41.5958 50.7522 41.1197V10.0853C50.7521 9.6092 50.366 9.22327 49.89 9.22327ZM49.028 40.2577H2.47629V10.9474H49.028V40.2577Z" fill="#E6B432"/>
<path d="M32.8254 32.3215C33.5499 32.3215 34.1372 31.7342 34.1372 31.0097C34.1372 30.2852 33.5499 29.6979 32.8254 29.6979C32.1009 29.6979 31.5136 30.2852 31.5136 31.0097C31.5136 31.7342 32.1009 32.3215 32.8254 32.3215Z" fill="#41479B"/>
<path d="M35.1275 23.4778C34.162 24.2894 33.5127 24.3236 33.5127 24.3236C35.2301 23.623 35.0506 22.2902 35.0506 22.2902C34.239 23.3581 33.4102 23.6572 33.4102 23.6572C35.1361 22.4867 34.8626 20.9146 34.8626 20.9146C34.2988 22.1621 33.5854 22.649 33.5854 22.649C35.0207 20.7394 34.3158 19.5091 34.3158 19.5091C33.752 21.2777 33.2778 21.7904 33.2778 21.7904C34.3799 18.8427 33.4359 17.9926 33.4359 17.9926C33.4359 19.5732 32.8463 20.4789 32.8463 20.4789C33.4616 18.3942 32.496 17.198 32.496 17.198C32.496 17.198 32.4869 18.8976 32.1596 19.7878C32.0811 19.6685 32.0346 19.6843 32.0346 19.6843C31.8682 20.776 31.2815 21.5446 31.0282 21.8337C30.9719 21.5617 30.8028 21.4784 30.8028 21.4784C30.8028 21.4784 30.7723 21.7455 30.5326 22.1394C30.3756 22.3975 29.6338 22.9994 29.5142 23.529C29.4183 23.9537 29.8389 24.3065 29.9755 24.3919C30.1122 24.4774 30.2575 24.6312 30.1976 24.8788C30.1378 25.1266 29.6935 25.1009 29.3774 25.0924C29.0613 25.0839 29.0186 25.605 28.6682 25.588L28.6088 25.9767L28.4716 26.0067C28.4716 26.0067 27.0363 28.8669 26.9141 29.8402L25.8572 29.9795L24.8002 29.8402C24.6781 28.8669 23.2427 26.0067 23.2427 26.0067L23.1055 25.9767L23.0461 25.588C22.6958 25.6051 22.6532 25.0839 22.337 25.0924C22.0207 25.1009 21.5765 25.1266 21.5167 24.8788C21.457 24.6311 21.6022 24.4772 21.7388 24.3919C21.8755 24.3065 22.2961 23.9536 22.2001 23.529C22.0805 22.9993 21.3387 22.3975 21.1817 22.1394C20.942 21.7455 20.9116 21.4784 20.9116 21.4784C20.9116 21.4784 20.7424 21.5617 20.6862 21.8337C20.433 21.5444 19.8462 20.776 19.6798 19.6843C19.6798 19.6843 19.6333 19.6686 19.5548 19.7878C19.2275 18.8975 19.2184 17.198 19.2184 17.198C19.2184 17.198 18.253 18.3941 18.8681 20.4789C18.8681 20.4789 18.2786 19.5733 18.2786 17.9926C18.2786 17.9926 17.3345 18.8427 18.4367 21.7904C18.4367 21.7904 17.9626 21.2778 17.3986 19.5091C17.3986 19.5091 16.6937 20.7394 18.1291 22.649C18.1291 22.649 17.4157 22.1621 16.8518 20.9146C16.8518 20.9146 16.5785 22.4867 18.3043 23.6572C18.3043 23.6572 17.4754 23.3581 16.6638 22.2902C16.6638 22.2902 16.4844 23.6231 18.2017 24.3236C18.2017 24.3236 17.5524 24.2894 16.587 23.4778C16.587 23.4778 16.4161 24.6569 18.6545 25.2634C18.6545 25.2634 17.7403 25.2463 16.809 24.6226C16.809 24.6226 16.7834 25.7845 18.6972 26.0153C18.6972 26.0153 18.065 26.1092 17.3558 25.853C17.3558 25.853 17.3815 26.7927 19.0475 26.9123C19.0475 26.9123 18.3896 26.9636 17.9625 26.8611C17.9625 26.8611 18.0051 27.8265 19.3209 27.6642C19.3209 27.6642 18.8766 27.8094 18.7314 27.8521C18.7314 27.8521 18.7571 28.6403 20.1283 28.3583C20.1283 28.3583 19.8847 28.51 19.5515 28.5613C19.5515 28.5613 19.8334 29.2192 20.9784 28.9286L20.7434 29.185C20.7434 29.185 21.6277 29.6976 22.3069 28.9927L22.0633 29.4284C22.0633 29.4284 22.6401 29.6463 22.9989 29.0824C22.9989 29.0824 22.9006 29.9282 21.7044 30.0822C21.7044 30.0822 21.7471 30.2615 21.7984 30.3299C21.7984 30.3299 21.7214 30.4751 21.0294 30.5948C21.0294 30.5948 21.1747 30.8168 21.3285 30.8853C21.3285 30.8853 21.0294 31.1416 20.8671 31.1928C20.8671 31.1928 21.1235 31.3209 21.2858 31.3466C21.2858 31.3466 20.927 31.6969 20.4827 31.7054C20.0383 31.7139 19.2439 31.6626 19.2439 31.6626C19.2439 31.6626 19.2354 31.2355 19.0303 30.868C18.8252 30.5006 18.757 30.4729 18.757 30.4729C18.757 30.4729 18.8018 30.1782 18.6737 30.0564C18.5456 29.9346 18.4751 29.877 18.4751 29.877C18.4751 29.877 18.5434 29.2874 18.3554 28.92C18.1675 28.5527 17.501 27.7495 17.4668 27.1515C17.4327 26.5534 17.4584 26.3313 17.4584 26.3313L17.2533 26.3826L17.1166 26.1006L17.3472 26.0749L17.2533 25.6478L16.9371 25.7674L16.8943 25.4L16.5184 25.5538L16.7063 25.887L16.3731 25.981L16.5697 26.374L16.826 26.2117L16.8944 26.5534C16.8944 26.5534 16.7406 26.5875 16.6551 26.7242C16.6551 26.7242 17.0779 27.0048 17.2019 27.3395C17.3985 27.8693 17.3386 29.0654 17.6206 29.4241C17.9025 29.7829 18.1247 30.0307 18.1247 30.0307C18.1247 30.0307 18.0457 30.2742 18.1353 30.4087C18.2251 30.5433 18.3532 30.5818 18.3532 30.5818C18.3532 30.5818 18.2762 31.1265 18.475 31.4853C18.6736 31.8441 18.7889 31.9339 18.7889 31.9339C18.7889 31.9339 18.0648 32.376 18.5775 32.8887C18.5775 32.8887 18.5091 33.3543 18.9961 33.4654C18.9961 33.4654 19.0218 33.8328 19.4405 33.7902C19.4405 33.7902 19.6456 33.7304 19.6968 33.8329C19.7481 33.9354 19.6968 34.5249 19.6968 34.5249C19.6968 34.5249 19.8847 34.5078 20.0043 34.4225L20.3802 34.6104L20.3887 34.1917L20.8586 34.0038C20.8586 34.0038 20.6536 34.038 20.2349 33.645C20.2349 33.645 20.3033 33.6023 20.3545 33.2691C20.3545 33.2691 20.6877 33.0042 20.7562 32.7906C20.8246 32.5771 21.2945 32.1072 21.8413 31.9533L21.9161 32.2865C21.9161 32.2865 22.6979 31.5946 23.0246 31.5561L23.2937 31.9106C23.2937 31.9106 24.3019 30.4155 24.7461 30.1505C24.712 30.2701 24.9597 30.2872 24.4086 30.9024C23.8576 31.5176 24.1993 32.0045 24.1993 32.0045C23.8576 32.2864 23.9259 32.5428 23.883 32.8333C23.8404 33.1238 22.7039 33.8757 22.7039 33.8757C23.0627 34.3285 23.4644 34.226 23.4644 34.226C23.2422 34.3712 23.3106 34.8582 23.3106 34.8582C23.6353 34.9437 23.9599 34.7985 23.9599 34.7985C23.8488 35.106 24.0197 35.3195 24.0197 35.3195C24.2247 35.1914 24.6947 35.1145 24.6947 35.1145C24.6349 35.6443 24.9766 35.9261 24.9766 35.9261L25.2756 35.6014C25.3269 36.1994 25.8567 36.5412 25.8567 36.5412C25.8567 36.5412 26.3865 36.1994 26.4377 35.6014L26.7368 35.9261C26.7368 35.9261 27.0786 35.6442 27.0187 35.1145C27.0187 35.1145 27.4886 35.1914 27.6937 35.3195C27.6937 35.3195 27.8646 35.106 27.7535 34.7985C27.7535 34.7985 28.0782 34.9437 28.4028 34.8582C28.4028 34.8582 28.4711 34.3712 28.249 34.226C28.249 34.226 28.6506 34.3284 29.0094 33.8757C29.0094 33.8757 27.8731 33.1238 27.8303 32.8333C27.7876 32.5428 27.856 32.2865 27.5141 32.0045C27.5141 32.0045 27.8558 31.5175 27.3047 30.9024C26.7537 30.2871 27.0014 30.27 26.9672 30.1505C27.4116 30.4154 28.4197 31.9106 28.4197 31.9106L28.6888 31.5561C29.0157 31.5946 29.7973 32.2865 29.7973 32.2865L29.8721 31.9533L29.8863 31.9379C30.2939 32.1574 30.9671 32.4543 31.2392 32.6623C31.5297 32.8845 31.769 32.9016 32.4695 32.6623C33.1701 32.4231 34.4736 32.0552 34.2808 31.6199C34.2702 31.5962 34.2583 31.5803 34.2468 31.5617C34.2774 31.4493 34.29 31.2531 34.0842 31.0817C34.0842 31.0817 34.0866 31.1294 34.085 31.1907L33.4171 30.9418C33.395 30.8827 33.362 30.8248 33.2983 30.7741C33.2983 30.7741 33.2992 30.8254 33.2901 30.8946L33.1188 30.8307L33.4607 29.8689C33.4348 29.8544 33.4057 29.8463 33.3788 29.8336C33.3858 29.7465 33.4022 29.6261 33.4277 29.5002C33.5112 29.5294 33.5874 29.5655 33.6427 29.6107L33.7392 29.2585C33.7392 29.2585 33.6354 29.2517 33.4986 29.2261C33.5331 29.1199 33.5741 29.0244 33.6229 28.9628L33.17 28.8261C33.17 28.8261 33.1818 28.9633 33.1738 29.1345C33.0873 29.0994 33.0049 29.0549 32.9383 28.9979L32.8322 29.3887C32.8686 29.3908 32.9922 29.4015 33.1355 29.4271C33.1096 29.5418 33.064 29.6436 32.9987 29.7199C32.9825 29.7178 32.9676 29.7119 32.9512 29.7104L32.6192 30.6445L31.7188 30.3089C31.6802 30.3697 31.6504 30.4359 31.6226 30.5029C31.6274 30.4931 31.6317 30.4779 31.6367 30.4717C31.6367 30.4717 31.2884 30.6539 31.2932 30.9216C31.229 30.9459 31.1728 30.9941 31.141 31.0776C31.0386 31.3467 31.6664 31.949 31.5127 32.0259C31.3617 32.1013 30.573 31.4517 30.4465 31.3426C30.6091 31.3111 30.8463 31.1929 30.8463 31.1929C30.6839 31.1416 30.385 30.8854 30.385 30.8854C30.5388 30.817 30.684 30.5948 30.684 30.5948C29.992 30.4752 29.9151 30.33 29.9151 30.33C29.9663 30.2616 30.009 30.0823 30.009 30.0823C28.8129 29.9284 28.7146 29.0825 28.7146 29.0825C29.0734 29.6464 29.6501 29.4285 29.6501 29.4285L29.4066 28.9928C30.0858 29.6977 30.97 29.1851 30.97 29.1851L30.7351 28.9287C31.8799 29.2193 32.1619 28.5614 32.1619 28.5614C31.8287 28.5101 31.5852 28.3584 31.5852 28.3584C32.9565 28.6404 32.9821 27.8522 32.9821 27.8522C32.8368 27.8094 32.3925 27.6643 32.3925 27.6643C33.7082 27.8267 33.751 26.8612 33.751 26.8612C33.3239 26.9636 32.6659 26.9124 32.6659 26.9124C34.332 26.7928 34.3576 25.8531 34.3576 25.8531C33.6485 26.1094 33.0162 26.0154 33.0162 26.0154C34.93 25.7847 34.9044 24.6227 34.9044 24.6227C33.9732 25.2464 33.0589 25.2635 33.0589 25.2635C35.2984 24.6568 35.1275 23.4778 35.1275 23.4778ZM33.1859 31.9297C33.0946 31.7815 33.3121 31.6489 33.4101 31.5077L33.7888 31.6488C33.6602 31.8022 33.28 32.0825 33.1859 31.9297ZM32.9328 31.3299C32.81 31.5202 32.7245 31.7337 32.3464 31.7439C31.8723 31.7567 31.7953 31.3337 31.6929 31.1031C31.663 31.0358 31.6115 30.985 31.5523 30.9501C31.5521 30.9087 31.5542 30.8633 31.5578 30.8174L32.9328 31.3299Z" fill="#E6B432"/>
<path d="M25.7173 22.303C25.7173 22.303 25.1086 21.784 24.9291 21.5021C24.9291 21.5021 25.1342 21.4188 25.2366 21.2906C25.2366 21.2906 24.6855 20.9959 24.3908 20.6947C24.3908 20.6947 24.5831 20.6627 24.7305 20.5409C24.7305 20.5409 24.2355 20.4515 23.9846 20.0462C24.5567 19.8508 24.3652 19.317 24.3652 19.317C24.2499 19.4708 23.7757 19.663 23.2631 19.4451C22.7505 19.2273 22.1866 19.381 22.1866 19.663C22.1866 19.663 21.0332 19.3298 21.3216 20.4448C21.3216 20.4448 21.5073 20.0283 21.9175 20.1822C22.3276 20.336 22.7441 20.8614 22.7441 20.8614C22.7441 20.8614 22.4878 21.0023 22.0137 20.8486C22.0137 20.8486 22.206 21.5854 23.071 21.2138C23.071 21.2138 23.4127 21.3975 23.4298 21.9358C23.4298 21.9358 23.575 21.8588 23.669 21.688C23.669 21.688 23.8058 22.2091 23.6264 22.6363C23.6264 22.6363 23.8656 22.5937 23.9426 22.5167C23.9426 22.5167 24.0109 22.9695 23.7119 23.3369C23.7119 23.3369 25.0255 23.9628 25.8586 23.2772C25.8586 23.2772 25.5446 22.9184 25.4421 22.5852C25.4417 22.585 25.6146 22.5145 25.7173 22.303Z" fill="#E6B432"/>
<path d="M29.53 19.663C29.53 19.3811 28.9661 19.2273 28.4535 19.4451C27.9409 19.663 27.4667 19.4708 27.3514 19.317C27.3514 19.317 27.1598 19.8508 27.732 20.0462C27.4811 20.4515 26.9861 20.5409 26.9861 20.5409C27.1336 20.6627 27.3258 20.6947 27.3258 20.6947C27.0311 20.9959 26.48 21.2906 26.48 21.2906C26.5824 21.4188 26.7875 21.5021 26.7875 21.5021C26.6081 21.784 25.9993 22.303 25.9993 22.303C26.1018 22.5145 26.2749 22.585 26.2749 22.585C26.1725 22.9182 25.8584 23.277 25.8584 23.277C26.6914 23.9626 28.0051 23.3367 28.0051 23.3367C27.7061 22.9694 27.7744 22.5165 27.7744 22.5165C27.8514 22.5935 28.0906 22.6362 28.0906 22.6362C27.9112 22.209 28.0479 21.6878 28.0479 21.6878C28.1419 21.8587 28.2872 21.9356 28.2872 21.9356C28.3043 21.3973 28.646 21.2136 28.646 21.2136C29.511 21.5853 29.7033 20.8484 29.7033 20.8484C29.2292 21.0022 28.9728 20.8612 28.9728 20.8612C28.9728 20.8612 29.3893 20.3358 29.7995 20.182C30.2097 20.0281 30.3954 20.4447 30.3954 20.4447C30.6833 19.3298 29.53 19.663 29.53 19.663Z" fill="#E6B432"/>
<path d="M29.0079 26.4702C28.8954 25.8154 28.7984 25.2497 29.0809 24.6017L29.1336 24.4807L28.0148 23.1959L27.8826 23.24C27.8711 23.2439 26.7017 23.6262 25.952 23.2512L25.8585 23.2044L25.7649 23.2512C25.0187 23.6251 23.8462 23.2439 23.834 23.2398L23.7018 23.1961L22.5832 24.4807L22.6359 24.6017C22.9184 25.2497 22.8214 25.8154 22.7089 26.4702C22.603 27.0886 22.4828 27.7896 22.6943 28.6443C22.9239 29.5723 23.697 29.9021 24.3789 30.1935C24.9045 30.4178 25.4009 30.6297 25.6816 31.0745L25.8584 31.3548L26.0351 31.0745C26.3158 30.6297 26.8122 30.4179 27.3378 30.1935C28.0199 29.9022 28.7928 29.5724 29.0224 28.6443C29.234 27.7895 29.1137 27.0885 29.0079 26.4702ZM23.0697 24.5585L23.8376 23.677C24.1854 23.7726 25.1256 23.9794 25.8584 23.6684C26.591 23.9795 27.5312 23.7725 27.8792 23.677L28.647 24.5585C28.3774 25.2687 28.4835 25.8877 28.5957 26.5409C28.6795 27.0304 28.763 27.5346 28.6929 28.1152H23.0238C22.9538 27.5346 23.0373 27.0304 23.1211 26.5409C23.2332 25.8877 23.3393 25.2686 23.0697 24.5585ZM27.1738 29.8089C26.6986 30.0118 26.2096 30.2204 25.8584 30.6164C25.5071 30.2204 25.0181 30.0118 24.5429 29.8089C23.8761 29.5242 23.3008 29.2754 23.1111 28.5767H28.6054C28.4159 29.2754 27.8406 29.5243 27.1738 29.8089Z" fill="#E6B432"/>
<path d="M23.0687 24.5585L23.8366 23.6769C24.1844 23.7725 25.1247 23.9794 25.8574 23.6683C26.59 23.9795 27.5302 23.7724 27.8782 23.6769L28.6461 24.5585C28.3764 25.2686 28.4826 25.8877 28.5947 26.5409C28.6786 27.0303 28.7621 27.5345 28.692 28.1152H23.0228C22.9528 27.5345 23.0363 27.0303 23.1201 26.5409C23.2322 25.8877 23.3384 25.2685 23.0687 24.5585Z" fill="#41479B"/>
<path d="M23.0809 28.4546C23.0874 28.4846 23.0916 28.5134 23.0992 28.5438C23.2788 29.2695 23.8643 29.5194 24.5422 29.8088C25.0174 30.0117 25.5063 30.2203 25.8576 30.6163C26.2089 30.2203 26.6978 30.0117 27.173 29.8088C27.851 29.5193 28.4364 29.2694 28.616 28.5438C28.6235 28.5135 28.6277 28.4846 28.6344 28.4546H23.0809Z" fill="#73AF00"/>
<path d="M28.365 26.0315C28.365 25.6534 28.0057 25.5939 27.6792 25.6003C27.3525 25.6069 26.8748 25.5472 26.8627 25.2933C26.8551 25.135 27.1208 25.1202 27.2938 25.1757C27.3942 25.2079 28.0188 25.3195 28.2148 24.9014C28.2148 24.9014 27.9864 24.9087 27.7453 24.8546C27.5595 24.8129 26.7973 24.9078 26.6601 25.2018C26.5229 25.4957 26.9653 25.7891 27.4748 25.7891C27.9842 25.7891 28.0542 25.891 28.0502 26.0153C28.0449 26.1785 27.6409 26.2247 27.4087 26.2226C27.0431 26.0899 26.1902 26.1938 26.1861 26.1777C26.1812 26.1579 25.9893 25.8285 25.9893 25.8285C25.9893 25.8285 26.3385 25.8039 26.3828 25.74C26.427 25.6761 26.1178 25.4305 26.1178 25.4305C26.1178 25.4305 26.3779 25.3268 26.3878 25.253C26.3985 25.1719 26.1766 24.9798 26.1766 24.9798C26.1766 24.9798 26.2624 24.8953 26.3268 24.7511C26.3729 24.6481 26.0068 24.6205 26.0068 24.6205C26.0264 24.5422 26.0189 24.4661 25.9218 24.4311C25.8468 24.404 25.5691 24.5094 25.3798 24.5094C25.1904 24.5094 25.1184 24.6466 25.1184 24.6466C25.1184 24.6466 24.7853 24.6859 24.7395 24.7249C24.6938 24.7642 24.7526 25.0189 24.7526 25.0189C24.5828 24.9928 24.5045 24.8425 24.5045 24.8425C24.4195 25.2279 24.818 25.2671 24.818 25.2671L24.8834 25.4762C24.8834 25.4762 24.8834 25.4762 25.0466 25.4958C25.2099 25.5154 25.1316 25.6722 24.8768 25.6722C24.622 25.6722 24.5139 25.9761 24.5139 25.9761C24.3369 25.9811 24.2385 25.8384 24.1992 25.6564C24.1558 25.4561 24.1814 25.1483 24.2139 24.9531C24.2533 24.717 24.1352 24.6482 24.1352 24.6482L24.0565 24.8449C24.0516 24.6433 23.8745 24.6237 23.8745 24.6237L23.845 24.8696C23.7564 24.7072 23.6041 24.781 23.6041 24.781C23.6041 24.781 23.7516 25.3121 23.7467 25.3416C23.7418 25.3711 23.6926 25.3957 23.6238 25.3219C23.5549 25.2481 23.5058 25.2973 23.5058 25.2973C23.5797 25.8284 23.8644 25.7505 23.8644 25.7505C23.8644 25.7505 23.8771 25.9169 23.9632 26.2547C24.0549 26.6153 24.4327 26.5475 24.4327 26.5475C24.4327 26.6651 24.5242 26.8349 24.5503 27.2268C24.5763 27.6187 24.2172 27.8931 24.2172 27.8931C23.8905 27.8865 23.9232 28.2067 23.9232 28.2067H24.8246C24.8246 27.3732 25.1829 27.2303 25.1829 27.2303C25.714 27.2549 26.2256 27.0335 26.2256 27.0335C26.1468 27.3532 26.2846 27.486 26.2846 27.486C26.501 27.4565 26.3928 27.8843 26.3289 27.8843C26.265 27.8843 26.1321 27.8843 26.0535 27.8843C25.9749 27.8843 25.7485 28.1302 25.7485 28.1302H26.683C26.683 28.1302 26.8256 27.9236 26.8748 27.8204C26.9239 27.7171 26.7666 27.5745 26.7568 27.4663C26.747 27.3581 26.9191 27.2893 26.9191 27.2893C27.1011 27.5449 27.5191 27.5598 27.5191 27.5598L27.5093 27.368C27.5093 27.368 27.7257 27.4418 27.775 27.5057C27.8241 27.5695 27.8143 27.8648 27.5537 27.8991C27.293 27.9335 27.2733 28.1204 27.2733 28.1204C27.2733 28.1204 27.8684 28.1204 27.9865 28.1204C28.1045 28.1204 28.1979 27.8991 28.1979 27.8154C28.1979 27.7318 28.1979 27.186 28.1979 27.0678C28.1979 26.9498 28.0996 26.9646 27.8684 26.9399C27.6585 26.9176 27.6786 26.6878 27.592 26.4211C27.8956 26.411 28.365 26.3445 28.365 26.0315Z" fill="#E6B432"/>
<path d="M28.3103 17.094C28.2518 16.5783 27.8407 15.9215 26.2748 15.6137C26.2696 15.4473 26.1673 15.3063 26.0209 15.2469V14.9595H26.2772V14.652H26.0209V14.3958H25.7134V14.6521H25.457V14.9596H25.7134V15.247C25.5672 15.3064 25.4646 15.4474 25.4595 15.6138C23.8935 15.9217 23.4824 16.5784 23.4239 17.0941C23.351 17.7372 23.8115 18.3469 24.2268 18.5806V18.9069H27.5076V18.5806C27.9227 18.3469 28.3832 17.7371 28.3103 17.094ZM26.5928 18.0867H26.1336V16.1952C26.5121 16.3662 26.7463 16.6284 26.8144 16.9885C26.8993 17.437 26.72 17.8942 26.5928 18.0867ZM24.9197 16.9882C24.9879 16.6281 25.222 16.366 25.6006 16.1951V18.0866H25.1413C25.0139 17.8942 24.8347 17.4368 24.9197 16.9882ZM24.5401 16.4689C24.4647 16.62 24.4166 16.771 24.3921 16.9098C24.3179 17.3299 24.4029 17.7569 24.5435 18.0867H24.4358C24.2058 17.9283 23.9102 17.5386 23.9538 17.1541C23.9842 16.8851 24.1882 16.6543 24.5401 16.4689ZM27.2984 18.0867H27.1904C27.331 17.7571 27.4162 17.3301 27.3421 16.91C27.3175 16.7712 27.2694 16.62 27.1939 16.4688C27.546 16.6542 27.75 16.8852 27.7804 17.154C27.824 17.5386 27.5284 17.9283 27.2984 18.0867Z" fill="#E6B432"/>
</g>
<defs>
<clipPath id="clip0_9_2506">
<rect width="50" height="50" fill="white" transform="translate(0.751953 0.602539)"/>
</clipPath>
</defs>
</svg>
