<svg width="51" height="51" viewBox="0 0 51 51" fill="none" xmlns="http://www.w3.org/2000/svg">
<g clip-path="url(#clip0_9_2476)">
<path d="M49.3168 41.9819H1.04112C0.565051 41.9819 0.179016 41.5959 0.179016 41.1198V10.0854C0.179016 9.6093 0.565051 9.22327 1.04112 9.22327H49.3169C49.793 9.22327 50.179 9.6093 50.179 10.0854V41.1198C50.1789 41.596 49.7929 41.9819 49.3168 41.9819Z" fill="#41479B"/>
<path d="M24.3169 9.22339H22.8194L14.8341 14.4552V9.22339H10.5237V14.4552L2.53839 9.22339H1.04112C0.565051 9.22339 0.179016 9.60932 0.179016 10.0854V10.7692L7.03008 15.2578H0.179016V19.5681H7.03008L0.179016 24.0568V24.7405C0.179016 25.2166 0.565051 25.6027 1.04112 25.6027H2.53858L10.5239 20.3708V25.6027H14.8343V20.3708L22.8195 25.6027H24.317C24.793 25.6027 25.1791 25.2166 25.1791 24.7405V24.0568L18.328 19.5682H25.179V15.2579H18.3279L25.179 10.7693V10.0855C25.179 9.60933 24.7929 9.22339 24.3169 9.22339Z" fill="#F5F5F5"/>
<path d="M25.1792 16.12H13.9723V9.22339H11.3862V16.12H0.17926V18.7061H11.3862V25.6027H13.9723V18.7061H25.1792V16.12Z" fill="#FF4B55"/>
<path d="M9.66106 15.2579L0.589199 9.36914C0.347793 9.52187 0.17836 9.77861 0.17836 10.0854V10.1302L8.07766 15.2579H9.66106Z" fill="#FF4B55"/>
<path d="M16.417 15.258L25.0472 9.65583C24.8972 9.40203 24.6326 9.22351 24.3163 9.22351H24.1298L14.8336 15.258H16.417Z" fill="#FF4B55"/>
<path d="M8.9165 19.5682L0.30275 25.1596C0.451285 25.4196 0.720034 25.6027 1.04093 25.6027H1.20353L10.5 19.5682H8.9165Z" fill="#FF4B55"/>
<path d="M25.1646 24.8083L17.0918 19.5682H15.5084L24.6758 25.5189C24.9504 25.3915 25.1387 25.1244 25.1646 24.8083Z" fill="#FF4B55"/>
<path d="M43.4046 18.8878H31.9524V27.7384H43.4046V18.8878Z" fill="#82AFFF"/>
<path d="M31.9527 27.7382C31.9527 30.757 35.3364 33.2042 37.6791 33.2042C39.7614 33.2042 43.4054 30.7569 43.4054 27.7382H31.9527Z" fill="#C86464"/>
<path d="M39.2081 22.1204C39.3925 22.1529 39.707 22.1963 39.7395 22.641C39.7721 23.0856 39.6094 24.6691 39.4468 24.8642C39.4468 24.8642 39.9782 26.0681 39.9999 26.7838C40.0216 27.4996 39.924 29.6415 39.989 29.9831C40.0542 30.3247 40.2981 31.0243 40.2981 31.0243C40.2981 31.0243 39.5498 30.5851 39.257 30.8617C38.9642 31.1381 37.8905 31.5124 37.4675 31.0732C37.4675 31.0732 37.9718 29.6416 37.9718 28.0148C37.9718 26.3879 37.9718 22.3698 37.9718 22.3698C37.9718 22.3698 38.1833 22.2017 38.4598 22.1962C38.7363 22.1909 39.2081 22.1204 39.2081 22.1204Z" fill="#73AF00"/>
<path d="M39.3168 30.7207C39.3493 30.9268 39.436 31.0786 39.3926 31.1545C39.3492 31.2305 39.0674 31.9245 39.23 31.9245C39.3926 31.9245 39.6746 31.8378 39.7506 31.6859C39.8264 31.5341 39.859 31.3063 39.9024 31.2413C39.9459 31.1763 39.8264 30.8509 39.7289 30.7967C39.6313 30.7424 39.3168 30.7207 39.3168 30.7207Z" fill="#FFF5E1"/>
<path d="M37.4403 22.5758L36.8438 22.6517C36.8438 22.6517 36.9196 22.2613 36.9305 21.9901C36.9413 21.719 36.963 21.2201 36.963 21.2201C36.963 21.2201 37.386 20.9598 37.3968 20.9164C37.4022 20.8947 37.4524 20.7592 37.4131 20.6886C37.3738 20.6181 37.245 20.6127 37.245 20.6127C37.245 20.6127 36.7461 20.8729 36.7461 20.9164C36.7461 20.9598 36.7461 21.2201 36.6919 21.3176C36.6377 21.4153 36.334 22.2287 36.3123 22.4456C36.2906 22.6625 36.2581 23.118 36.3448 23.1397C36.4316 23.1614 37.3318 23.2591 37.4294 23.2156C37.527 23.1722 37.4403 22.5758 37.4403 22.5758Z" fill="#FFF5E1"/>
<path d="M40.1428 20.4338H37.9719V19.4089H37.2236V20.4338H35.0526V21.1822H37.2236V31.0244H37.9719V21.1822H40.1428V20.4338Z" fill="#464655"/>
<path d="M38.8611 21.7624C38.8611 21.7624 39.5877 21.9716 39.6853 21.7299C39.7992 21.4478 39.4196 21.4099 39.3491 21.1117C39.3411 21.0783 39.2732 20.6779 38.9803 20.602C38.6875 20.526 38.4163 20.602 38.4055 20.7972C38.3948 20.9925 38.8611 21.7624 38.8611 21.7624Z" fill="#963C3C"/>
<path d="M38.4708 22.6842C38.4493 22.6877 38.4166 22.4673 38.4599 22.1961C38.5034 21.925 38.4599 21.8382 38.4599 21.8382C38.4599 21.8382 38.1563 21.8708 38.1563 21.7515C38.1563 21.6323 38.2214 21.0791 38.4057 20.7971C38.4057 20.7971 38.5359 20.9598 38.7745 20.9598C38.7745 20.9598 38.7636 21.155 38.8938 21.2851C38.8938 21.2851 38.7311 21.426 38.8071 21.5237C38.8831 21.6213 39.024 21.7406 39.024 21.7406C39.024 21.7406 39.0348 21.9684 39.2084 22.1202C39.2083 22.1204 38.9914 22.5975 38.4708 22.6842Z" fill="#FFF5E1"/>
<path d="M35.5639 27.3918H35.4987V28.6824H35.5639V27.3918Z" fill="#464655"/>
<path d="M35.8265 27.1418H35.7613V28.9322H35.8265V27.1418Z" fill="#464655"/>
<path d="M36.0873 26.9133H36.0221V29.1604H36.0873V26.9133Z" fill="#464655"/>
<path d="M36.3491 26.5862H36.2839V29.4854H36.3491V26.5862Z" fill="#464655"/>
<path d="M36.6108 26.1594H36.5456V29.9118H36.6108V26.1594Z" fill="#464655"/>
<path d="M36.8727 26.1594H36.8075V30.0871H36.8727V26.1594Z" fill="#464655"/>
<path d="M37.9825 28.2154C37.6949 26.7198 36.8979 25.851 36.616 25.8078C36.334 25.7644 36.128 25.9921 36.1063 26.1548C36.0846 26.3175 35.9328 26.8056 35.6182 27.0332C35.3037 27.2611 34.718 27.3911 34.588 27.8141C34.4578 28.237 34.8049 28.4214 35.0109 28.378C35.0263 28.3747 35.0415 28.3687 35.0569 28.3636L37.274 31.0908C37.3545 31.1899 37.5113 31.1738 37.5674 31.0589C37.7953 30.5933 38.2278 29.4906 37.9825 28.2154ZM35.243 28.2456C35.33 28.1523 35.3667 28.0237 35.2713 27.8901C35.1086 27.6622 34.9242 27.9877 34.9242 27.9877C34.9242 27.9877 34.87 27.7057 35.2929 27.5648C35.7159 27.4239 36.1931 27.1853 36.41 26.6754C36.6269 26.1658 36.6161 26.2632 36.6161 26.2632C36.6161 26.2632 37.4838 26.7513 37.603 28.2805C37.7223 29.8097 37.2994 30.428 37.2994 30.428L35.243 28.2456Z" fill="#FFE15A"/>
<path d="M37.2228 24.9432C37.1232 25.0069 37.0335 25.0618 36.9707 25.0945C36.7674 25.2002 36.5232 25.306 36.4989 25.4036C36.4746 25.5012 36.3362 25.5826 36.3444 25.6964C36.3526 25.8102 36.3444 26.1518 36.3444 26.1518C36.4664 26.1275 36.7104 26.0867 36.7919 25.9403C36.8732 25.7938 36.9464 25.5092 37.2067 25.3872C37.2113 25.385 37.2182 25.3828 37.223 25.3806V24.9432H37.2228Z" fill="#FFF5E1"/>
<path d="M39.3783 22.8658C39.2564 22.9228 38.8904 23.362 38.8334 23.5654C38.7765 23.7688 38.5976 24.2487 38.5976 24.2487C38.5976 24.2487 38.228 24.297 37.9713 24.4406V25.151C38.1136 25.1098 38.2394 25.0692 38.3129 25.0297C38.5244 24.9158 38.8253 24.7044 38.9799 24.6637C39.1344 24.6231 39.2646 24.3627 39.3215 24.2082C39.3784 24.0537 39.5573 23.5982 39.5818 23.2891C39.6062 22.9797 39.5003 22.8089 39.3783 22.8658Z" fill="#FFF5E1"/>
<path d="M37.679 33.3889L37.6506 33.3844C31.8373 32.4665 31.7705 27.4315 31.7705 27.2178V18.7062H43.5877V27.2177C43.5877 27.4315 43.5209 32.4664 37.7076 33.3843L37.679 33.3889ZM32.135 19.0706V27.2176C32.135 27.4185 32.1979 32.1382 37.679 33.0197C43.1603 32.1382 43.2231 27.4185 43.2231 27.2176V19.0706H32.135Z" fill="#F5F5F5"/>
</g>
<defs>
<clipPath id="clip0_9_2476">
<rect width="50" height="50" fill="white" transform="translate(0.179688 0.602539)"/>
</clipPath>
</defs>
</svg>
