<svg width="51" height="51" viewBox="0 0 51 51" fill="none" xmlns="http://www.w3.org/2000/svg">
    <g clip-path="url(#clip0_9_2454)">
        <path
            d="M50.0385 20.1429H0.0385742V10.0854C0.0385742 9.6093 0.424609 9.22327 0.900682 9.22327H49.1765C49.6525 9.22327 50.0386 9.6093 50.0386 10.0854L50.0385 20.1429Z"
            fill="#5AA587" />
        <path
            d="M49.1764 41.9819H0.900682C0.424609 41.9819 0.0385742 41.5959 0.0385742 41.1198V31.0624H50.0385V41.1198C50.0385 41.5959 49.6524 41.9819 49.1764 41.9819Z"
            fill="#FFE15A" />
        <path d="M50.0385 20.1427H0.0385742V31.0616H50.0385V20.1427Z" fill="#464655" />
        <path d="M50.0385 19.173H0.0385742V20.5345H50.0385V19.173Z" fill="#F5F5F5" />
        <path d="M50.038 30.67H0.0380859V32.0316H50.038V30.67Z" fill="#F5F5F5" />
        <path
            d="M0.356542 41.7735L20.1652 26.0494C20.4529 25.8211 20.4529 25.3842 20.1652 25.1558L0.356542 9.43176C0.166601 9.58987 0.0385742 9.81897 0.0385742 10.0854V41.1198C0.0385742 41.3863 0.166601 41.6154 0.356542 41.7735Z"
            fill="#FF4B55" />
        <path
            d="M8.0283 19.9949L9.28855 23.7737L13.2718 23.8047C13.4946 23.8064 13.5869 24.0907 13.4077 24.223L10.2033 26.5893L11.4048 30.3873C11.4718 30.5997 11.2301 30.7754 11.0489 30.6458L7.80818 28.3294L4.56746 30.6458C4.38621 30.7753 4.14442 30.5997 4.21161 30.3873L5.41307 26.5893L2.20878 24.223C2.02958 24.0907 2.12196 23.8064 2.34462 23.8047L6.32791 23.7737L7.58816 19.9949C7.65886 19.7836 7.95779 19.7836 8.0283 19.9949Z"
            fill="#FFE15A" />
        <path
            d="M7.57716 27.0134L7.26564 27.3269H4.66037L5.3714 24.7178L5.66193 24.5726L5.19553 26.8988C5.19162 26.9275 5.19748 26.9561 5.21652 26.9791C5.23381 27.002 5.26047 27.0134 5.28918 27.0134H7.57716Z"
            fill="#F5F5F5" />
        <path
            d="M8.20238 27.4475C8.08959 27.5315 7.952 27.5794 7.80864 27.5794C7.66528 27.5794 7.52768 27.5316 7.41489 27.4475L7.80864 27.0537L8.20238 27.4475Z"
            fill="#F5F5F5" />
        <path
            d="M10.9568 27.327H8.3515L8.03998 27.0136H10.3279C10.3566 27.0136 10.3832 27.0021 10.4005 26.9792C10.4196 26.9562 10.4254 26.9275 10.4215 26.8989L9.95511 24.5728L10.2456 24.718L10.9568 27.327Z"
            fill="#F5F5F5" />
        <path
            d="M10.2109 26.8224H7.90381V24.4426C8.28994 24.1157 9.30869 24.3394 9.74062 24.4732L10.2109 26.8224Z"
            fill="#F5F5F5" />
        <path
            d="M7.71303 24.4427V26.8224H5.40601L5.87622 24.4733C6.30825 24.3394 7.327 24.1159 7.71303 24.4427Z"
            fill="#F5F5F5" />
        <path
            d="M11.1751 27.3978L10.42 24.6262C10.4124 24.6013 10.3952 24.5785 10.3703 24.5669L9.86572 24.3147C9.86377 24.3127 9.86181 24.3127 9.8581 24.3127C9.85615 24.3127 9.85615 24.3108 9.8543 24.3088C9.79307 24.2878 8.3959 23.8329 7.80908 24.2783C7.22227 23.8329 5.82501 24.2878 5.76387 24.3088C5.76192 24.3108 5.76192 24.3108 5.76006 24.3127C5.75616 24.3127 5.7544 24.3127 5.75245 24.3147L5.24786 24.5669C5.22296 24.5784 5.20587 24.6013 5.19815 24.6262L4.44308 27.3978C4.43546 27.4265 4.44112 27.4571 4.45841 27.48C4.47745 27.503 4.50616 27.5183 4.53487 27.5183H7.21084C7.36944 27.6769 7.5836 27.7705 7.80908 27.7705C8.03467 27.7705 8.24873 27.6769 8.40733 27.5183H11.0833C11.112 27.5183 11.1406 27.503 11.1598 27.48C11.1769 27.4571 11.1827 27.4265 11.1751 27.3978ZM7.90459 24.4427C8.29072 24.1159 9.30947 24.3395 9.74141 24.4733L10.2116 26.8224H7.90459C7.90459 26.8225 7.90459 24.4427 7.90459 24.4427ZM5.87657 24.4734C6.3086 24.3396 7.32735 24.116 7.71338 24.4428V26.8226H5.40635L5.87657 24.4734ZM4.66095 27.3271L5.37198 24.718L5.66251 24.5728L5.1961 26.899C5.19219 26.9277 5.19805 26.9563 5.2171 26.9792C5.23438 27.0022 5.26104 27.0136 5.28975 27.0136H7.57764L7.26612 27.3271H4.66095ZM7.80899 27.5794C7.66563 27.5794 7.52803 27.5317 7.41524 27.4475L7.80899 27.0538L8.20274 27.4475C8.09004 27.5316 7.95244 27.5794 7.80899 27.5794ZM8.35186 27.3271L8.04033 27.0136H10.3282C10.3569 27.0136 10.3836 27.0022 10.4009 26.9792C10.4199 26.9563 10.4258 26.9276 10.4219 26.899L9.95547 24.5728L10.246 24.718L10.957 27.3271H8.35186Z"
            fill="#464655" />
        <path
            d="M10.1981 21.9462C10.1006 22.0141 9.96862 22.0025 9.88453 21.9184L9.75739 21.7913V22.1025L8.97936 22.8805H8.66813L7.42341 24.1253H7.11217L4.71882 26.5187C4.65984 26.5777 4.63933 26.6648 4.6657 26.7439L4.77829 27.0817L4.3115 27.5485H4.00027L3.0488 28.4999C2.97283 28.5759 2.97283 28.6992 3.0488 28.7752L3.67673 29.4032C3.76736 29.4938 3.91599 29.4881 3.99939 29.3908L5.40075 27.704L5.55632 27.2372L5.86755 26.926L6.49001 27.8596L6.9568 27.3928L6.45886 26.6459L6.58288 26.5219C6.70348 26.4013 6.70348 26.2059 6.58288 26.0853L6.49001 25.9924L6.57741 25.905C7.24157 26.4742 8.03903 26.6213 8.7983 26.2958L8.53825 25.689C7.9109 25.9579 7.3986 25.733 7.04225 25.4401L8.35709 24.1252L8.30524 23.8659L8.66832 23.5028H8.97955L11.3136 21.1687L10.1981 21.9462Z"
            fill="#464655" />
        <path
            d="M5.55778 21.6359L5.24655 21.9471C5.16071 22.0329 5.16071 22.1723 5.24655 22.2583L5.2984 22.3102L4.77975 22.414L3.37936 23.8144L4.15739 24.5924L5.55778 23.192L5.66149 22.6733L5.86901 22.8808L6.02457 22.7252L11.2003 27.901L11.5116 27.5897L6.3358 22.414L6.49137 22.2584L5.86891 21.6359C5.78307 21.5499 5.64381 21.5499 5.55778 21.6359Z"
            fill="#464655" />
    </g>
    <defs>
        <clipPath id="clip0_9_2454">
            <rect width="50" height="50" fill="white" transform="translate(0.0390625 0.602539)" />
        </clipPath>
    </defs>
</svg>
