<svg width="51" height="51" viewBox="0 0 51 51" fill="none" xmlns="http://www.w3.org/2000/svg">
<g clip-path="url(#clip0_9_2449)">
<path d="M0.46933 31.3318H50.4692V41.3892C50.4692 41.8653 50.0832 42.2513 49.6071 42.2513H1.33144C0.855364 42.2513 0.46933 41.8653 0.46933 41.3892V31.3318Z" fill="#FF4B55"/>
<path d="M1.33144 9.4928H49.6072C50.0833 9.4928 50.4693 9.87883 50.4693 10.3549V20.4123H0.46933V10.3548C0.46933 9.87873 0.855364 9.4928 1.33144 9.4928Z" fill="#FFE15A"/>
<path d="M50.4692 20.4121H0.46933V31.331H50.4692V20.4121Z" fill="#73AF00"/>
<path d="M25.9605 15.0283L28.5421 22.7688L36.7014 22.8321C37.1992 22.836 37.4055 23.4711 37.0052 23.7668L30.4414 28.6139L32.9026 36.3935C33.0527 36.8681 32.5124 37.2606 32.1075 36.9712L25.4691 32.2264L18.8309 36.9712C18.4259 37.2607 17.8857 36.8681 18.0358 36.3935L20.497 28.6139L13.9331 23.7668C13.5327 23.4711 13.7391 22.8358 14.2369 22.8321L22.3963 22.7688L24.9778 15.0283C25.1352 14.5562 25.8031 14.5562 25.9605 15.0283Z" fill="#F5F5F5"/>
</g>
<defs>
<clipPath id="clip0_9_2449">
<rect width="50" height="50" fill="white" transform="translate(0.46875 0.87207)"/>
</clipPath>
</defs>
</svg>
