<svg width="51" height="51" viewBox="0 0 51 51" fill="none" xmlns="http://www.w3.org/2000/svg">
<g clip-path="url(#clip0_9_2438)">
<path d="M0.898163 34.2234V10.0854C0.898163 9.6093 1.2842 9.22327 1.76027 9.22327H38.8292L0.898163 34.2234Z" fill="#41479B"/>
<path d="M50.8984 16.9819V41.1198C50.8984 41.5959 50.5123 41.9819 50.0363 41.9819H12.9673L50.8984 16.9819Z" fill="#73AF00"/>
<path d="M50.8982 17.4681V10.0854C50.8982 9.6093 50.5121 9.22327 50.0361 9.22327H38.3141L0.898163 33.7372V41.1198C0.898163 41.5959 1.2842 41.982 1.76027 41.982H13.4822L50.8982 17.4681Z" fill="#F5F5F5"/>
<path d="M50.8982 14.3768V10.0854C50.8982 9.6093 50.5121 9.22327 50.0361 9.22327H43.0323L0.898163 36.8285V41.1199C0.898163 41.596 1.2842 41.9821 1.76027 41.9821H8.76398L50.8982 14.3768Z" fill="#FF4B55"/>
<path d="M9.70856 14.85C10.5573 14.85 11.3255 15.1939 11.8818 15.7498L12.187 13.6321L10.5039 14.9564L9.70847 12.9679L8.91306 14.9564L7.22995 13.6321L7.53513 15.7498C8.09167 15.1938 8.85983 14.85 9.70856 14.85Z" fill="#FFE15A"/>
<path d="M7.53383 20.098C6.97787 19.5417 6.63402 18.7733 6.63402 17.9248C6.63402 17.0761 6.97787 16.3079 7.53383 15.7516L5.41605 15.4463L6.74037 17.1294L4.75189 17.9248L6.74037 18.7202L5.41605 20.4033L7.53383 20.098Z" fill="#FFE15A"/>
<path d="M14.6657 17.9247L12.6772 17.1293L14.0015 15.4463L11.8837 15.7515C12.4397 16.3078 12.7835 17.0762 12.7835 17.9247C12.7835 18.7733 12.4397 19.5416 11.8837 20.0979L14.0015 20.4031L12.6772 18.72L14.6657 17.9247Z" fill="#FFE15A"/>
<path d="M9.70892 20.9995C8.86019 20.9995 8.09202 20.6557 7.53568 20.0997L7.2305 22.2175L8.9136 20.8932L9.70901 22.8817L10.5044 20.8932L12.1875 22.2175L11.8824 20.0997C11.3258 20.6558 10.5576 20.9995 9.70892 20.9995Z" fill="#FFE15A"/>
<path d="M9.70898 20.4355C11.0956 20.4355 12.2196 19.3114 12.2196 17.9248C12.2196 16.5382 11.0956 15.4142 9.70898 15.4142C8.32239 15.4142 7.19833 16.5382 7.19833 17.9248C7.19833 19.3114 8.32239 20.4355 9.70898 20.4355Z" fill="#FFE15A"/>
</g>
<defs>
<clipPath id="clip0_9_2438">
<rect width="50" height="50" fill="white" transform="translate(0.898438 0.602539)"/>
</clipPath>
</defs>
</svg>
