<svg width="51" height="51" viewBox="0 0 51 51" fill="none" xmlns="http://www.w3.org/2000/svg">
<g clip-path="url(#clip0_9_2430)">
<path d="M49.33 9.4928H1.05431C0.578234 9.4928 0.1922 9.87873 0.1922 10.3548V41.3892C0.1922 41.8653 0.578234 42.2513 1.05431 42.2513H49.3301C49.8062 42.2513 50.1922 41.8653 50.1922 41.3892V10.3548C50.1921 9.87873 49.8061 9.4928 49.33 9.4928Z" fill="#41479B"/>
<path d="M34.7228 25.6616L32.2505 25.1122C31.8954 21.8001 29.2655 19.1716 25.9535 18.8162L25.4038 16.3426C25.3601 16.1456 25.0267 16.1456 24.9829 16.3426L24.4346 18.8103C21.1211 19.1647 18.4917 21.799 18.1365 25.1122L15.6639 25.6616C15.5653 25.6835 15.4951 25.7711 15.4951 25.872C15.4951 25.973 15.5653 26.0606 15.6638 26.0825L18.1364 26.6319C18.4915 29.9445 21.121 32.5757 24.4338 32.9306L24.9828 35.4014C25.0048 35.5 25.0924 35.5703 25.1934 35.5703C25.2944 35.5703 25.382 35.5 25.4038 35.4015L25.9537 32.9269C29.2654 32.5715 31.8953 29.9438 32.2505 26.632L34.723 26.0826C34.8215 26.0606 34.8917 25.9731 34.8917 25.872C34.8917 25.771 34.8213 25.6835 34.7228 25.6616ZM31.8141 25.0151L27.0982 23.9672L26.0507 19.2539C29.0489 19.6407 31.4277 22.0168 31.8141 25.0151ZM24.3361 19.2531L23.2884 23.9673L18.574 25.015C18.9607 22.0168 21.3379 19.6397 24.3361 19.2531ZM23.4005 24.3839L24.8885 25.872H16.7039L23.4005 24.3839ZM18.5742 26.7294L23.2886 27.777L24.3364 32.4924C21.3379 32.1059 18.9607 29.7275 18.5742 26.7294ZM25.1933 34.3614L23.7052 27.6647L25.1933 26.1768V34.3614ZM25.1933 25.5672V17.3827L26.6814 24.0794L25.1933 25.5672ZM26.0515 32.4866L27.0981 27.7768L31.8139 26.7289C31.4276 29.7266 29.0491 32.0993 26.0515 32.4866ZM26.9861 27.3601L25.4981 25.872H33.6826L26.9861 27.3601Z" fill="#F5F5F5"/>
<path d="M13.9862 26.0875H1.91725C1.79821 26.0875 1.70172 25.9911 1.70172 25.872C1.70172 25.753 1.79821 25.6565 1.91725 25.6565H13.9862C14.1052 25.6565 14.2017 25.753 14.2017 25.872C14.2017 25.9911 14.1053 26.0875 13.9862 26.0875Z" fill="#F5F5F5"/>
<path d="M48.4692 26.0875H36.4003C36.2812 26.0875 36.1848 25.9911 36.1848 25.872C36.1848 25.753 36.2812 25.6565 36.4003 25.6565H48.4692C48.5882 25.6565 48.6847 25.753 48.6847 25.872C48.6847 25.9911 48.5882 26.0875 48.4692 26.0875Z" fill="#F5F5F5"/>
<path d="M25.1931 14.8806C25.074 14.8806 24.9775 14.7841 24.9775 14.6651V11.2169C24.9775 11.0978 25.074 11.0013 25.1931 11.0013C25.3121 11.0013 25.4086 11.0978 25.4086 11.2169V14.6651C25.4086 14.7842 25.3121 14.8806 25.1931 14.8806Z" fill="#F5F5F5"/>
<path d="M25.1931 40.7427C25.074 40.7427 24.9775 40.6462 24.9775 40.5272V37.0789C24.9775 36.9599 25.074 36.8634 25.1931 36.8634C25.3121 36.8634 25.4086 36.9599 25.4086 37.0789V40.5272C25.4086 40.6462 25.3121 40.7427 25.1931 40.7427Z" fill="#F5F5F5"/>
</g>
<defs>
<clipPath id="clip0_9_2430">
<rect width="50" height="50" fill="white" transform="translate(0.191406 0.87207)"/>
</clipPath>
</defs>
</svg>
