<svg width="51" height="51" viewBox="0 0 51 51" fill="none" xmlns="http://www.w3.org/2000/svg">
    <g clip-path="url(#clip0_9_2426)">
        <path
            d="M49.7422 42.2749H1.46654C0.990466 42.2749 0.604431 41.8889 0.604431 41.4128V10.3785C0.604431 9.90239 0.990466 9.51636 1.46654 9.51636H49.7423C50.2184 9.51636 50.6044 9.90239 50.6044 10.3785V41.4128C50.6043 41.889 50.2183 42.2749 49.7422 42.2749Z"
            fill="#41479B" />
        <path d="M50.6043 24.171H0.604431V27.6193H50.6043V24.171Z" fill="#FFE15A" />
        <path
            d="M12.2422 31.068L12.7442 33.0738L14.1818 31.5877L13.6138 33.5758L15.6018 33.0076L14.1158 34.4454L16.1215 34.9473L14.1158 35.4493L15.6018 36.8869L13.6138 36.3189L14.1818 38.3069L12.7442 36.8209L12.2422 38.8267L11.7401 36.8209L10.3025 38.3069L10.8707 36.3189L8.88263 36.8869L10.3687 35.4493L8.3629 34.9473L10.3687 34.4454L8.88263 33.0076L10.8707 33.5758L10.3025 31.5877L11.7401 33.0738L12.2422 31.068Z"
            fill="#F5F5F5" />
    </g>
    <defs>
        <clipPath id="clip0_9_2426">
            <rect width="50" height="50" fill="white" transform="translate(0.603516 0.895752)" />
        </clipPath>
    </defs>
</svg>
