<svg width="51" height="51" viewBox="0 0 51 51" fill="none" xmlns="http://www.w3.org/2000/svg">
    <g clip-path="url(#clip0_9_2419)">
        <path
            d="M49.1691 42.275H0.893396C0.417323 42.275 0.0312881 41.889 0.0312881 41.4129V10.3785C0.0312881 9.90239 0.417323 9.51636 0.893396 9.51636H49.1692C49.6453 9.51636 50.0313 9.90239 50.0313 10.3785V41.4129C50.0312 41.8891 49.6452 42.275 49.1691 42.275Z"
            fill="#F5F5F5" />
        <path
            d="M1.15199 11.7234L19.0121 24.7751H7.76018H5.25022L6.92561 26.6439L19.9351 41.1543H1.15199V11.7234ZM0.332166 9.73633C0.15121 9.89443 0.0312881 10.1194 0.0312881 10.3784V41.4128C0.0312881 41.8889 0.417323 42.2749 0.893396 42.2749H22.4451L7.76018 25.8957H22.4451L0.332166 9.73633Z"
            fill="#41479B" />
        <path
            d="M1.15208 11.7235L19.0122 24.775H7.76027H5.25032L6.9259 26.6438L19.9353 41.1543H1.15208V11.7235Z"
            fill="#FF4B55" />
        <path
            d="M6.60744 29.8409L7.29748 31.265L8.60714 30.3767C8.66486 30.3375 8.74249 30.3823 8.73742 30.4519L8.62306 32.0302L10.2014 31.9159C10.271 31.9108 10.3158 31.9884 10.2766 32.0461L9.38829 33.3558L10.8124 34.0459C10.8752 34.0763 10.8752 34.1658 10.8124 34.1962L9.38829 34.8863L10.2766 36.1959C10.3158 36.2537 10.271 36.3313 10.2014 36.3262L8.62306 36.2119L8.73742 37.7902C8.74249 37.8598 8.66486 37.9046 8.60714 37.8654L7.29748 36.9771L6.60744 38.4012C6.57697 38.464 6.48752 38.464 6.45705 38.4012L5.76701 36.9771L4.45735 37.8654C4.39963 37.9046 4.32199 37.8598 4.32707 37.7902L4.44143 36.2119L2.86311 36.3262C2.79348 36.3313 2.74866 36.2537 2.78792 36.1959L3.67619 34.8863L2.25178 34.1965C2.18899 34.1661 2.18899 34.0766 2.25178 34.0461L3.6759 33.3561L2.78762 32.0464C2.74836 31.9887 2.79319 31.9111 2.86282 31.9162L4.44113 32.0305L4.32678 30.4522C4.3217 30.3826 4.39934 30.3378 4.45705 30.377L5.76672 31.2653L6.45676 29.8412C6.48742 29.7781 6.57697 29.7781 6.60744 29.8409Z"
            fill="#F5F5F5" />
        <path
            d="M8.39991 21.6048L7.80079 21.1955L8.32823 20.6427L7.57657 20.5055L7.8336 19.7861L7.09112 19.9664L7.03321 19.2047L6.42833 19.6714L6.06573 18.9991L5.70304 19.6716L5.09816 19.2049L5.04025 19.9666L4.29777 19.7863L4.5548 20.5057L3.80314 20.6429L4.33058 21.1957L3.73146 21.605C2.9755 21.2521 2.31086 20.7363 1.78781 20.0985C2.13918 22.1454 3.91818 23.7048 6.06554 23.7048C8.2129 23.7048 9.9918 22.1454 10.3433 20.0985C9.82051 20.7363 9.15577 21.2519 8.39991 21.6048Z"
            fill="#F5F5F5" />
    </g>
    <defs>
        <clipPath id="clip0_9_2419">
            <rect width="50" height="50" fill="white" transform="translate(0.03125 0.895752)" />
        </clipPath>
    </defs>
</svg>
