<svg width="51" height="51" viewBox="0 0 51 51" fill="none" xmlns="http://www.w3.org/2000/svg">
<g clip-path="url(#clip0_9_2398)">
<path d="M49.89 42.275H1.61428C1.13821 42.275 0.752174 41.889 0.752174 41.4129V10.3785C0.752174 9.90239 1.13821 9.51636 1.61428 9.51636H49.8901C50.3661 9.51636 50.7522 9.90239 50.7522 10.3785V41.4129C50.7521 41.8891 50.366 42.275 49.89 42.275Z" fill="#41479B"/>
<path d="M24.89 9.51648H23.3926L15.4072 14.7483V9.51648H11.0969V14.7483L3.11154 9.51648H1.61428C1.13821 9.51648 0.752174 9.90242 0.752174 10.3785V11.0623L7.60324 15.5508H0.752174V19.8612H7.60324L0.752174 24.3499V25.0336C0.752174 25.5097 1.13821 25.8957 1.61428 25.8957H3.11174L11.0971 20.6639V25.8957H15.4074V20.6639L23.3927 25.8957H24.8901C25.3662 25.8957 25.7522 25.5097 25.7522 25.0336V24.3499L18.9012 19.8613H25.7521V15.5509H18.9011L25.7521 11.0624V10.3786C25.7521 9.90242 25.3661 9.51648 24.89 9.51648Z" fill="#F5F5F5"/>
<path d="M25.7521 16.413H14.5452V9.51648H11.9591V16.413H0.752174V18.9992H11.9591V25.8957H14.5452V18.9992H25.7521V16.413Z" fill="#FF4B55"/>
<path d="M10.2351 15.5509L1.16323 9.66211C0.921829 9.81484 0.752396 10.0716 0.752396 10.3784V10.4231L8.6517 15.5509H10.2351Z" fill="#FF4B55"/>
<path d="M16.9911 15.5509L25.6213 9.9488C25.4713 9.69499 25.2067 9.51648 24.8904 9.51648H24.704L15.4077 15.5509H16.9911Z" fill="#FF4B55"/>
<path d="M9.49013 19.8613L0.876373 25.4527C1.02491 25.7127 1.29366 25.8958 1.61456 25.8958H1.77715L11.0736 19.8613H9.49013Z" fill="#FF4B55"/>
<path d="M25.7386 25.1014L17.6657 19.8613H16.0823L25.2497 25.812C25.5243 25.6846 25.7127 25.4175 25.7386 25.1014Z" fill="#FF4B55"/>
<path d="M39.3727 36.8442C39.3378 36.8442 39.3025 36.8332 39.2725 36.8122L38.2522 36.0831L37.2318 36.8122C37.2019 36.8332 37.1666 36.8442 37.1316 36.8442C37.0959 36.8442 37.0605 36.8332 37.0303 36.8113C36.9705 36.7676 36.9448 36.6901 36.9671 36.6194L37.3455 35.4239L36.337 34.6798C36.2772 34.6352 36.2524 34.5586 36.2752 34.4879C36.2983 34.4172 36.3636 34.3691 36.4381 34.3684L37.6921 34.3582L38.0886 33.1687C38.1123 33.0988 38.1783 33.0508 38.2524 33.0508C38.3265 33.0508 38.3926 33.0987 38.4162 33.1687L38.8128 34.3582L40.0668 34.3684C40.1413 34.3692 40.2065 34.4172 40.2297 34.4879C40.2524 34.5586 40.2275 34.6352 40.1678 34.6798L39.1593 35.4239L39.5378 36.6194C39.56 36.6901 39.5344 36.7676 39.4746 36.8113C39.4439 36.8332 39.4082 36.8442 39.3727 36.8442Z" fill="#FF4B55"/>
<path d="M38.2521 33.2232L38.6877 34.5297L40.0649 34.5403L38.957 35.3584L39.3724 36.6714L38.2521 35.8707L37.1317 36.6716L37.5471 35.3586L36.4392 34.5405L37.8163 34.5299L38.2521 33.2232ZM38.2521 32.8784C38.1037 32.8784 37.9719 32.9733 37.9249 33.1142L37.5672 34.1868L36.4366 34.1956C36.2882 34.1967 36.1572 34.2927 36.1113 34.4339C36.0654 34.5751 36.1151 34.7297 36.2343 34.8179L37.1439 35.4895L36.8029 36.5676C36.7581 36.7091 36.8089 36.8634 36.9289 36.9506C36.9894 36.9944 37.0605 37.0164 37.1317 37.0164C37.2019 37.0164 37.2722 36.9949 37.3323 36.952L38.2522 36.2945L39.1721 36.952C39.2322 36.9948 39.3024 37.0164 39.3726 37.0164C39.4437 37.0164 39.5149 36.9944 39.5753 36.9506C39.6953 36.8633 39.7461 36.7091 39.7014 36.5676L39.3604 35.4895L40.2699 34.8179C40.3894 34.7297 40.4389 34.5751 40.393 34.4339C40.3471 34.2928 40.2161 34.1967 40.0677 34.1956L38.937 34.1868L38.5793 33.1142C38.5323 32.9734 38.4004 32.8784 38.2521 32.8784Z" fill="#F5F5F5"/>
<path d="M39.3725 22.9458C39.3372 22.9458 39.3023 22.9348 39.2723 22.9138L38.252 22.184L37.2316 22.9139C37.2017 22.9349 37.1664 22.9459 37.1314 22.9459C37.0961 22.9459 37.0603 22.9349 37.03 22.913C36.9703 22.8693 36.9446 22.7918 36.9669 22.7211L37.3453 21.5256L36.3368 20.7806C36.277 20.736 36.2522 20.6585 36.275 20.5887C36.2981 20.518 36.3637 20.4699 36.4379 20.4692L37.6919 20.4599L38.0884 19.2703C38.1121 19.2005 38.1781 19.1525 38.2522 19.1525C38.3263 19.1525 38.3924 19.2004 38.416 19.2703L38.8126 20.4599L40.0666 20.4692C40.1407 20.47 40.2063 20.518 40.2294 20.5887C40.2522 20.6585 40.2273 20.736 40.1676 20.7806L39.1591 21.5256L39.5375 22.7211C39.5598 22.7918 39.5342 22.8693 39.4744 22.913C39.4437 22.9349 39.408 22.9458 39.3725 22.9458Z" fill="#FF4B55"/>
<path d="M38.2521 19.3247L38.6877 20.6311L40.0649 20.6418L38.957 21.4598L39.3724 22.7729L38.2521 21.972L37.1317 22.7729L37.5471 21.4598L36.4392 20.6418L37.8163 20.6311L38.2521 19.3247ZM38.2521 18.9799C38.1037 18.9799 37.9719 19.0748 37.9249 19.2156L37.5672 20.2883L36.4366 20.297C36.2882 20.2981 36.1572 20.3941 36.1113 20.5353C36.0654 20.6765 36.1151 20.8311 36.2343 20.9193L37.1439 21.591L36.8029 22.669C36.7581 22.8105 36.8089 22.9648 36.9289 23.052C36.9894 23.0959 37.0605 23.1178 37.1317 23.1178C37.2019 23.1178 37.2722 23.0964 37.3323 23.0535L38.2522 22.396L39.1721 23.0535C39.2322 23.0963 39.3024 23.1178 39.3726 23.1178C39.4437 23.1178 39.5149 23.0959 39.5753 23.052C39.6953 22.9647 39.7461 22.8105 39.7014 22.669L39.3604 21.591L40.2699 20.9193C40.3894 20.8311 40.4389 20.6765 40.393 20.5353C40.3471 20.3941 40.2161 20.2981 40.0677 20.297L38.937 20.2883L38.5793 19.2156C38.5323 19.0748 38.4004 18.9799 38.2521 18.9799Z" fill="#F5F5F5"/>
<path d="M45.407 27.2562C45.3716 27.2562 45.3368 27.2452 45.3068 27.2242L44.2866 26.4943L43.2662 27.2242C43.2363 27.2452 43.2009 27.2562 43.166 27.2562C43.1306 27.2562 43.0949 27.2452 43.0646 27.2233C43.0048 27.1796 42.9792 27.1021 43.0014 27.0314L43.3798 25.8359L42.3714 25.0909C42.3116 25.0463 42.2868 24.9688 42.3095 24.899C42.3327 24.8283 42.3983 24.7802 42.4724 24.7795L43.7264 24.7702L44.123 23.5806C44.1466 23.5108 44.2127 23.4628 44.2868 23.4628C44.3609 23.4628 44.427 23.5107 44.4505 23.5806L44.8471 24.7702L46.1011 24.7795C46.1753 24.7803 46.2409 24.8283 46.264 24.899C46.2868 24.9688 46.2619 25.0463 46.2022 25.0909L45.1937 25.8359L45.5721 27.0314C45.5944 27.1021 45.5688 27.1796 45.5089 27.2233C45.4782 27.2452 45.4424 27.2562 45.407 27.2562Z" fill="#FF4B55"/>
<path d="M44.2866 23.6351L44.7222 24.9415L46.0994 24.9522L44.9915 25.7703L45.4069 27.0833L44.2865 26.2825L43.1661 27.0833L43.5815 25.7704L42.4736 24.9523L43.8507 24.9416L44.2866 23.6351ZM44.2866 23.2903C44.1382 23.2903 44.0064 23.3852 43.9594 23.526L43.6017 24.5987L42.4711 24.6075C42.3227 24.6085 42.1917 24.7045 42.1458 24.8457C42.0999 24.987 42.1496 25.1415 42.2688 25.2297L43.1784 25.9014L42.8374 26.9794C42.7926 27.1209 42.8434 27.2752 42.9634 27.3624C43.0239 27.4063 43.095 27.4283 43.1662 27.4283C43.2364 27.4283 43.3067 27.4068 43.3667 27.3639L44.2866 26.7064L45.2065 27.3639C45.2666 27.4067 45.3368 27.4283 45.4071 27.4283C45.4782 27.4283 45.5494 27.4063 45.6098 27.3624C45.7298 27.2751 45.7806 27.1209 45.7359 26.9794L45.3949 25.9014L46.3044 25.2297C46.4239 25.1415 46.4734 24.987 46.4275 24.8457C46.3816 24.7045 46.2506 24.6085 46.1022 24.6075L44.9715 24.5987L44.6138 23.526C44.5668 23.3852 44.435 23.2903 44.2866 23.2903Z" fill="#F5F5F5"/>
<path d="M33.3381 28.9803C33.3027 28.9803 33.2679 28.9693 33.2379 28.9483L32.2177 28.2184L31.1973 28.9483C31.1674 28.9693 31.132 28.9803 31.0971 28.9803C31.0617 28.9803 31.026 28.9693 30.9957 28.9474C30.9359 28.9037 30.9103 28.8262 30.9325 28.7555L31.3109 27.56L30.3025 26.815C30.2427 26.7704 30.2179 26.6929 30.2406 26.6231C30.2638 26.5524 30.3294 26.5044 30.4035 26.5036L31.6575 26.4943L32.0541 25.3048C32.0777 25.2349 32.1438 25.1869 32.2179 25.1869C32.292 25.1869 32.3581 25.2348 32.3816 25.3048L32.7782 26.4943L34.0322 26.5036C34.1064 26.5045 34.172 26.5524 34.1951 26.6231C34.2179 26.6929 34.193 26.7704 34.1333 26.815L33.1248 27.56L33.5032 28.7555C33.5255 28.8262 33.4999 28.9037 33.44 28.9474C33.4093 28.9694 33.3735 28.9803 33.3381 28.9803Z" fill="#FF4B55"/>
<path d="M32.2175 25.3592L32.6531 26.6657L34.0303 26.6763L32.9224 27.4944L33.3378 28.8075L32.2174 28.0066L31.097 28.8075L31.5124 27.4944L30.4045 26.6763L31.7816 26.6657L32.2175 25.3592ZM32.2175 25.0144C32.0691 25.0144 31.9373 25.1093 31.8903 25.2501L31.5326 26.3228L30.402 26.3316C30.2536 26.3327 30.1226 26.4287 30.0767 26.5699C30.0308 26.7111 30.0805 26.8657 30.1997 26.9539L31.1093 27.6255L30.7683 28.7036C30.7235 28.8451 30.7743 28.9994 30.8943 29.0866C30.9548 29.1304 31.0259 29.1524 31.0971 29.1524C31.1673 29.1524 31.2376 29.1309 31.2976 29.088L32.2175 28.4305L33.1374 29.088C33.1975 29.1308 33.2677 29.1524 33.3379 29.1524C33.409 29.1524 33.4802 29.1304 33.5406 29.0866C33.6607 28.9993 33.7114 28.8451 33.6667 28.7036L33.3257 27.6255L34.2353 26.9539C34.3547 26.8657 34.4042 26.7111 34.3583 26.5699C34.3124 26.4287 34.1814 26.3327 34.033 26.3316L32.9024 26.3228L32.5446 25.2501C32.4977 25.1093 32.3658 25.0144 32.2175 25.0144Z" fill="#F5F5F5"/>
</g>
<defs>
<clipPath id="clip0_9_2398">
<rect width="50" height="50" fill="white" transform="translate(0.751953 0.895752)"/>
</clipPath>
</defs>
</svg>
