<svg width="51" height="51" viewBox="0 0 51 51" fill="none" xmlns="http://www.w3.org/2000/svg">
    <g clip-path="url(#clip0_9_2353)">
        <path
            d="M50.1792 20.436H0.17926V10.3785C0.17926 9.90239 0.565295 9.51636 1.04137 9.51636H49.3172C49.7932 9.51636 50.1793 9.90239 50.1793 10.3785L50.1792 20.436Z"
            fill="#41479B" />
        <path
            d="M49.3162 42.2749H1.04047C0.564394 42.2749 0.17836 41.8888 0.17836 41.4127V31.3553H50.1783V41.4127C50.1783 41.8889 49.7922 42.2749 49.3162 42.2749Z"
            fill="#41479B" />
        <path d="M50.1789 20.4358H0.179016V31.3547H50.1789V20.4358Z" fill="#F5F5F5" />
        <path d="M25.1789 22.7391L22.5493 26.6062H27.8085L25.1789 22.7391Z" fill="#AFEBFF" />
        <path d="M22.5493 26.6062L20.8478 29.0812H29.5101L27.8085 26.6062H22.5493Z"
            fill="#557DE6" />
        <path
            d="M25.8527 26.39C25.8631 26.3685 25.8741 26.3473 25.8836 26.3252C25.8742 26.3471 25.8631 26.3685 25.8527 26.39Z"
            fill="#73AF00" />
        <path
            d="M25.925 26.2118C25.9315 26.1924 25.9393 26.1735 25.9449 26.1538C25.9392 26.1734 25.9314 26.1923 25.925 26.2118Z"
            fill="#73AF00" />
        <path
            d="M25.7633 26.5521C25.7766 26.5309 25.7897 26.5098 25.8021 26.4882C25.7898 26.5099 25.7765 26.531 25.7633 26.5521Z"
            fill="#73AF00" />
        <path
            d="M26.1651 25.8318C26.1415 25.8318 26.119 25.8357 26.0982 25.8426C26.119 25.8356 26.1415 25.8318 26.1651 25.8318Z"
            fill="#73AF00" />
        <path
            d="M26.0421 25.8726C26.0093 25.8981 25.9869 25.9338 25.9818 25.9744V25.9746V25.9744C25.987 25.9338 26.0093 25.898 26.0421 25.8726Z"
            fill="#73AF00" />
        <path
            d="M25.9622 27.0268C25.999 27.0618 26.0355 27.095 26.0722 27.1268C26.2685 26.9569 26.4734 26.741 26.6172 26.4884C26.6068 26.5064 26.5957 26.524 26.5847 26.5418C26.4505 26.2949 26.3796 26.0813 26.3452 25.9547C26.3256 25.8824 26.2508 25.832 26.1653 25.8319C26.1982 26.1204 26.2689 26.6506 25.9622 27.0268Z"
            fill="#73AF00" />
        <path
            d="M26.7404 26.2118C26.7468 26.1924 26.7547 26.1735 26.7602 26.1538C26.7547 26.1734 26.7468 26.1923 26.7404 26.2118Z"
            fill="#73AF00" />
        <path
            d="M26.8572 25.8726C26.8245 25.8981 26.802 25.9338 26.7969 25.9744V25.9746V25.9744C26.8021 25.9338 26.8244 25.898 26.8572 25.8726Z"
            fill="#73AF00" />
        <path
            d="M26.668 26.39C26.6785 26.3685 26.6895 26.3473 26.699 26.3252C26.6894 26.3471 26.6785 26.3685 26.668 26.39Z"
            fill="#73AF00" />
        <path
            d="M28.3372 27.2259C28.039 27.2259 27.7569 27.0828 27.5846 26.8394C27.3251 26.4728 27.2075 26.131 27.1599 25.9557C27.1403 25.8833 27.0653 25.8329 26.9797 25.8329L26.98 25.833C27.0193 26.1773 27.1127 26.8657 26.5532 27.226H26.1889C26.174 27.2141 26.1594 27.2028 26.1441 27.1903C26.1444 27.1906 26.1448 27.1909 26.1451 27.1912C26.0431 27.3243 25.8392 27.3616 25.6811 27.2801C25.0192 26.939 25.1219 26.1952 25.1632 25.833C25.0778 25.8331 25.003 25.8834 24.9834 25.9557C24.949 26.0824 24.8781 26.296 24.7438 26.5428C24.733 26.5251 24.7217 26.5076 24.7114 26.4894C24.8731 26.7736 25.113 27.0135 25.3298 27.1912C25.2279 27.3243 25.024 27.3616 24.8659 27.2801C24.204 26.939 24.3067 26.1951 24.348 25.833C24.2626 25.8331 24.1878 25.8834 24.1681 25.9557C24.1337 26.0824 24.0629 26.296 23.9286 26.5428C23.9177 26.5251 23.9065 26.5076 23.8962 26.4894C24.0579 26.7736 24.2978 27.0135 24.5146 27.1912C24.4127 27.3243 24.2087 27.3616 24.0506 27.2801C23.3887 26.939 23.4915 26.1952 23.5328 25.833L23.5331 25.8329C23.4475 25.8329 23.3725 25.8832 23.3529 25.9557C23.3053 26.131 23.1877 26.4728 22.9282 26.8394C22.756 27.0829 22.4739 27.2259 22.1756 27.2259H21.9307V27.5352H28.2728H28.4274V27.2259H28.3372Z"
            fill="#73AF00" />
        <path
            d="M25.4457 26.3251C25.4552 26.3471 25.4662 26.3684 25.4766 26.3899C25.4662 26.3684 25.4551 26.347 25.4457 26.3251Z"
            fill="#73AF00" />
        <path
            d="M25.3845 26.1537C25.39 26.1734 25.3979 26.1923 25.4043 26.2117C25.3978 26.1923 25.39 26.1734 25.3845 26.1537Z"
            fill="#73AF00" />
        <path
            d="M25.3476 25.9747V25.9745C25.3425 25.9339 25.3203 25.8983 25.2874 25.8727C25.3201 25.8983 25.3425 25.9339 25.3476 25.9745V25.9747Z"
            fill="#73AF00" />
        <path
            d="M25.5274 26.4883C25.5398 26.5101 25.553 26.5311 25.5662 26.5522C25.553 26.5311 25.5398 26.51 25.5274 26.4883Z"
            fill="#73AF00" />
        <path
            d="M25.6694 26.7028C25.6677 26.7008 25.6664 26.6986 25.6648 26.6965C25.6781 26.6788 25.6908 26.661 25.7036 26.6429C25.6909 26.6609 25.6778 26.6787 25.6646 26.6963C25.6513 26.6787 25.6383 26.661 25.6257 26.6429C25.64 26.6632 25.6544 26.683 25.6694 26.7028Z"
            fill="#73AF00" />
        <path
            d="M25.7374 26.7883C25.7525 26.8064 25.7675 26.8245 25.7829 26.8418C25.7675 26.8245 25.7525 26.8064 25.7374 26.7883Z"
            fill="#73AF00" />
        <path
            d="M25.9027 26.9698C25.8882 26.9554 25.8742 26.9402 25.8599 26.9253C25.8743 26.9403 25.8882 26.9554 25.9027 26.9698Z"
            fill="#73AF00" />
        <path
            d="M26.9798 25.832L26.9795 25.8319C26.9326 25.8319 26.8892 25.8472 26.8564 25.8727C26.8237 25.8983 26.8012 25.9339 26.7962 25.9746V25.9748C26.7885 26.0358 26.7755 26.0953 26.7592 26.1538C26.7538 26.1735 26.7459 26.1923 26.7394 26.2118C26.7268 26.25 26.7138 26.2881 26.698 26.3251C26.6885 26.3472 26.6775 26.3685 26.6671 26.39C26.651 26.4232 26.6346 26.4563 26.6164 26.4883C26.4726 26.7409 26.2677 26.9569 26.0714 27.1268C26.0348 27.0952 25.9983 27.0619 25.9614 27.0268C26.268 26.6505 26.1974 26.1204 26.1646 25.8319L26.1643 25.8318C26.1408 25.8318 26.1182 25.8357 26.0974 25.8426C26.0766 25.8497 26.0576 25.8599 26.0412 25.8726C26.0085 25.8982 25.986 25.9338 25.9809 25.9745V25.9747C25.9733 26.0357 25.9603 26.0952 25.9439 26.1537C25.9384 26.1734 25.9305 26.1922 25.9241 26.2117C25.9115 26.2499 25.8985 26.288 25.8827 26.325C25.8732 26.3471 25.8622 26.3684 25.8517 26.3899C25.8357 26.4231 25.8193 26.4562 25.801 26.4882C25.7886 26.51 25.7755 26.531 25.7623 26.5522C25.7431 26.5829 25.7235 26.6132 25.7027 26.6427C25.69 26.6608 25.6771 26.6788 25.6639 26.6962C25.6506 26.6786 25.6376 26.6608 25.6248 26.6427C25.604 26.6132 25.5843 26.583 25.5652 26.5522C25.5519 26.531 25.5388 26.5099 25.5264 26.4882C25.5081 26.4561 25.4919 26.423 25.4757 26.3899C25.4653 26.3683 25.4543 26.3471 25.4448 26.325C25.429 26.2881 25.416 26.2499 25.4034 26.2117C25.3969 26.1922 25.3891 26.1734 25.3836 26.1537C25.3672 26.0953 25.3543 26.0357 25.3466 25.9747V25.9745C25.3416 25.9338 25.3193 25.8982 25.2864 25.8726C25.2537 25.847 25.2103 25.8318 25.1633 25.8318L25.163 25.8319C25.1218 26.1941 25.019 26.9379 25.6809 27.2789C25.7925 27.3365 25.9265 27.3342 26.0316 27.2813C26.0987 27.2475 26.1708 27.2248 26.2459 27.2248H26.5531C27.1125 26.8647 27.0191 26.1762 26.9798 25.832Z"
            fill="#FFE15A" />
        <path
            d="M24.569 26.1537C24.5744 26.1734 24.5823 26.1923 24.5888 26.2117C24.5823 26.1923 24.5745 26.1734 24.569 26.1537Z"
            fill="#73AF00" />
        <path
            d="M24.532 25.9747V25.9745C24.527 25.9339 24.5047 25.8983 24.4718 25.8727C24.5045 25.8983 24.527 25.9339 24.532 25.9745V25.9747Z"
            fill="#73AF00" />
        <path
            d="M24.6301 26.3251C24.6396 26.3471 24.6506 26.3684 24.6611 26.3899C24.6505 26.3684 24.6396 26.347 24.6301 26.3251Z"
            fill="#73AF00" />
        <path
            d="M24.3483 25.8319C24.3718 25.8319 24.3944 25.8358 24.4152 25.8427C24.3943 25.8357 24.3717 25.8319 24.3483 25.8319Z"
            fill="#73AF00" />
        <path
            d="M24.8658 27.2791C25.024 27.3605 25.228 27.3232 25.3298 27.1902C25.113 27.0125 24.8732 26.7728 24.7114 26.4885C24.693 26.4563 24.6768 26.4232 24.6607 26.3901C24.6502 26.3686 24.6392 26.3474 24.6297 26.3253C24.6139 26.2884 24.6009 26.2502 24.5883 26.2119C24.5819 26.1925 24.574 26.1736 24.5685 26.1539C24.5521 26.0955 24.5392 26.0359 24.5316 25.9749V25.9747C24.5265 25.9341 24.5042 25.8984 24.4713 25.8729C24.4549 25.8602 24.4359 25.8499 24.4151 25.8429C24.3943 25.8358 24.3717 25.832 24.3482 25.832L24.3479 25.8321C24.3068 26.1942 24.2039 26.938 24.8658 27.2791Z"
            fill="#FFE15A" />
        <path
            d="M23.7527 26.1539C23.7582 26.1737 23.7661 26.1925 23.7725 26.2119C23.7661 26.1925 23.7583 26.1737 23.7527 26.1539Z"
            fill="#73AF00" />
        <path
            d="M23.8141 26.3253C23.8235 26.3474 23.8346 26.3687 23.845 26.3902C23.8346 26.3687 23.8234 26.3473 23.8141 26.3253Z"
            fill="#73AF00" />
        <path
            d="M23.7164 25.975V25.9748C23.7114 25.9342 23.6891 25.8985 23.6562 25.8729C23.6889 25.8985 23.7114 25.9342 23.7164 25.9748V25.975Z"
            fill="#73AF00" />
        <path
            d="M24.0508 27.2791C24.209 27.3605 24.4129 27.3232 24.5148 27.1902C24.298 27.0125 24.0582 26.7728 23.8963 26.4885C23.878 26.4563 23.8618 26.4232 23.8457 26.3901C23.8352 26.3686 23.8242 26.3474 23.8147 26.3253C23.7989 26.2884 23.7859 26.2502 23.7733 26.2119C23.7668 26.1925 23.759 26.1736 23.7535 26.1539C23.7371 26.0955 23.7242 26.0359 23.7166 25.9749V25.9747C23.7115 25.9341 23.6892 25.8984 23.6563 25.8729C23.6236 25.8473 23.5802 25.832 23.5332 25.832L23.5329 25.8321C23.4917 26.1942 23.3887 26.938 24.0508 27.2791Z"
            fill="#FFE15A" />
        <path
            d="M23.8759 24.6019C23.8631 24.6512 23.8501 24.7006 23.8373 24.7499C24.2596 24.6233 24.7256 24.5472 25.2312 24.5472C25.7369 24.5475 26.2029 24.623 26.6252 24.7499C26.6124 24.7006 26.5994 24.6512 26.5866 24.6019C26.1666 24.4935 25.7145 24.4312 25.2312 24.4314C24.748 24.4313 24.296 24.4935 23.8759 24.6019Z"
            fill="#41479B" />
        <path
            d="M23.8926 24.5377C23.8798 24.587 23.8668 24.6364 23.854 24.6857C24.2716 24.5588 24.732 24.4826 25.2312 24.4824C25.7305 24.4826 26.1907 24.5587 26.6083 24.6857C26.5955 24.6364 26.5825 24.587 26.5698 24.5377C26.1544 24.4285 25.7081 24.3667 25.2312 24.3666C24.7541 24.3667 24.3079 24.4288 23.8926 24.5377Z"
            fill="#5AA0E6" />
        <path
            d="M23.9082 24.4782C23.8954 24.5275 23.8824 24.5769 23.8696 24.6262C24.2831 24.4989 24.738 24.4221 25.2312 24.4223C25.7247 24.4223 26.1795 24.4988 26.5929 24.6262C26.5801 24.5769 26.5671 24.5275 26.5543 24.4782C26.1435 24.369 25.7024 24.3064 25.2312 24.3064C24.7601 24.3063 24.3191 24.369 23.9082 24.4782Z"
            fill="#9BC800" />
        <path
            d="M23.9257 24.4101C23.9129 24.4594 23.8999 24.5089 23.8871 24.5582C24.2957 24.4303 24.7446 24.3536 25.2311 24.3536C25.7176 24.3538 26.1664 24.4303 26.575 24.5582C26.5622 24.5089 26.5492 24.4594 26.5365 24.4101C26.1304 24.3006 25.6957 24.2379 25.2311 24.2377C24.7664 24.2378 24.3317 24.3006 23.9257 24.4101Z"
            fill="#FFE14E" />
        <path
            d="M23.9432 24.3433C23.9304 24.3927 23.9175 24.4421 23.9047 24.4914C24.3086 24.3633 24.7511 24.2862 25.2311 24.2861C25.7111 24.2864 26.1538 24.3631 26.5576 24.4914C26.5448 24.4421 26.5318 24.3927 26.519 24.3433C26.118 24.2336 25.6892 24.1703 25.2311 24.1703C24.773 24.1705 24.3443 24.2333 23.9432 24.3433Z"
            fill="#FFB14E" />
        <path
            d="M23.9506 24.3148C23.9415 24.3494 23.9326 24.3839 23.9235 24.4185C24.3221 24.2902 24.7585 24.2124 25.231 24.2125C25.7038 24.2123 26.14 24.2899 26.5385 24.4185C26.5295 24.384 26.5206 24.3495 26.5115 24.3148C26.1126 24.2048 25.6863 24.1416 25.2309 24.1415C24.7758 24.1412 24.3496 24.2047 23.9506 24.3148Z"
            fill="#FF4B55" />
        <path
            d="M29.5103 29.2313H20.8479C20.7908 29.2313 20.7384 29.1998 20.7115 29.1497C20.6845 29.0994 20.6877 29.0382 20.7192 28.9908L25.0504 22.494C25.1079 22.4083 25.2504 22.4083 25.3079 22.494L29.6391 28.9908C29.6707 29.0382 29.6737 29.0993 29.6467 29.1497C29.6198 29.1999 29.5674 29.2313 29.5103 29.2313ZM21.1368 28.9219H29.2212L25.1791 22.8587L21.1368 28.9219Z"
            fill="#FFE15A" />
        <path
            d="M25.4748 25.2054C25.4748 25.0693 25.3369 24.8624 25.1161 24.8624C24.9871 24.8624 24.8825 24.9413 24.8825 25.0385C24.8825 25.0871 24.9086 25.131 24.9507 25.1628C24.9505 25.1646 24.9504 25.1665 24.9503 25.1682C24.8976 25.2005 24.8632 25.2491 24.8632 25.3043C24.8632 25.3971 24.9588 25.4723 25.0796 25.4791L25.179 25.678L25.2688 25.4985C25.3866 25.4685 25.4748 25.3489 25.4748 25.2054Z"
            fill="#FF4B55" />
    </g>
    <defs>
        <clipPath id="clip0_9_2353">
            <rect width="50" height="50" fill="white" transform="translate(0.179688 0.895752)" />
        </clipPath>
    </defs>
</svg>
