<svg width="51" height="51" viewBox="0 0 51 51" fill="none" xmlns="http://www.w3.org/2000/svg">
<g clip-path="url(#clip0_9_2348)">
<path d="M0.609787 31.3553H50.6097V41.4128C50.6097 41.8888 50.2237 42.2749 49.7476 42.2749H1.47189C0.995821 42.2749 0.609787 41.8888 0.609787 41.4128V31.3553Z" fill="#73AF00"/>
<path d="M1.47189 9.51636H49.7477C50.2238 9.51636 50.6098 9.90239 50.6098 10.3785V20.4359H0.609787V10.3784C0.609787 9.90229 0.995821 9.51636 1.47189 9.51636Z" fill="#FF9B55"/>
<path d="M50.6097 20.4357H0.609787V31.3546H50.6097V20.4357Z" fill="#F5F5F5"/>
<path d="M25.6098 30.2062C27.9905 30.2062 29.9204 28.2763 29.9204 25.8956C29.9204 23.515 27.9905 21.5851 25.6098 21.5851C23.2292 21.5851 21.2993 23.515 21.2993 25.8956C21.2993 28.2763 23.2292 30.2062 25.6098 30.2062Z" fill="#FF9B55"/>
</g>
<defs>
<clipPath id="clip0_9_2348">
<rect width="50" height="50" fill="white" transform="translate(0.609375 0.895752)"/>
</clipPath>
</defs>
</svg>
