<svg width="51" height="51" viewBox="0 0 51 51" fill="none" xmlns="http://www.w3.org/2000/svg">
    <g clip-path="url(#clip0_9_2321)">
        <path
            d="M17.5649 42.2747H1.76027C1.2842 42.2747 0.898163 41.8887 0.898163 41.4126V10.3782C0.898163 9.90215 1.2842 9.51611 1.76027 9.51611H17.5649V42.2747Z"
            fill="#73AF00" />
        <path d="M34.2322 9.51648H17.5652V42.2753H34.2322V9.51648Z" fill="#F5F5F5" />
        <path
            d="M50.0351 42.2748H34.2305V9.51624H50.0351C50.5112 9.51624 50.8972 9.90227 50.8972 10.3783V41.4127C50.8972 41.8889 50.5112 42.2748 50.0351 42.2748Z"
            fill="#73AF00" />
        <path
            d="M31.655 34.3524L28.9796 18.7457C28.8775 18.1498 28.6655 17.5781 28.3544 17.0596L25.8973 12.9645L23.4402 17.0597C23.129 17.5782 22.9171 18.1499 22.815 18.7458L20.1395 34.3526C20.0884 34.6506 20.3179 34.923 20.6205 34.923H24.9213V38.8266H26.8732V34.9229H31.1741C31.4765 34.9229 31.7062 34.6506 31.655 34.3524Z"
            fill="#73AF00" />
    </g>
    <defs>
        <clipPath id="clip0_9_2321">
            <rect width="50" height="50" fill="white" transform="translate(0.898438 0.895752)" />
        </clipPath>
    </defs>
</svg>
