<svg width="51" height="51" viewBox="0 0 51 51" fill="none" xmlns="http://www.w3.org/2000/svg">
<g clip-path="url(#clip0_9_2280)">
<path d="M50.0528 41.6835H1.77715C1.30107 41.6835 0.915039 41.2975 0.915039 40.8214V9.78697C0.915039 9.3109 1.30107 8.92487 1.77715 8.92487H50.0529C50.529 8.92487 50.915 9.3109 50.915 9.78697V40.8214C50.9149 41.2976 50.5289 41.6835 50.0528 41.6835Z" fill="#41479B"/>
<path d="M50.9149 13.2349H0.915039V14.959H50.9149V13.2349Z" fill="#F5F5F5"/>
<path d="M50.9159 35.649H0.916016V37.3732H50.9159V35.649Z" fill="#F5F5F5"/>
<path d="M50.9149 14.9595H0.915039V35.6489H50.9149V14.9595Z" fill="#FF4B55"/>
<path d="M14.7077 32.2007C18.5165 32.2007 21.6042 29.1131 21.6042 25.3042C21.6042 21.4954 18.5165 18.4078 14.7077 18.4078C10.8989 18.4078 7.81122 21.4954 7.81122 25.3042C7.81122 29.1131 10.8989 32.2007 14.7077 32.2007Z" fill="#F5F5F5"/>
<path d="M14.8918 19.0254L16.2753 23.1737L20.648 23.2076C20.8341 23.209 20.9112 23.4464 20.7615 23.557L17.2439 26.1546L18.5628 30.3237C18.6189 30.5011 18.417 30.6478 18.2656 30.5397L14.7082 27.9968L11.1507 30.5396C10.9994 30.6478 10.7975 30.501 10.8535 30.3237L12.1725 26.1545L8.6548 23.5569C8.5051 23.4464 8.58224 23.209 8.76828 23.2076L13.141 23.1736L14.5245 19.0253C14.5834 18.849 14.8329 18.849 14.8918 19.0254Z" fill="#FF4B55"/>
</g>
<defs>
<clipPath id="clip0_9_2280">
<rect width="50" height="50" fill="white" transform="translate(0.914062 0.304199)"/>
</clipPath>
</defs>
</svg>
