<svg width="51" height="51" viewBox="0 0 51 51" fill="none" xmlns="http://www.w3.org/2000/svg">
<g clip-path="url(#clip0_9_2288)">
<path d="M49.7588 41.6834H1.48308C1.00701 41.6834 0.620972 41.2974 0.620972 40.8213V9.78697C0.620972 9.3109 1.00701 8.92487 1.48308 8.92487H49.7589C50.2349 8.92487 50.621 9.3109 50.621 9.78697V40.8213C50.6209 41.2975 50.2348 41.6834 49.7588 41.6834Z" fill="#4173CD"/>
<path d="M25.6209 37.8041C18.7287 37.8041 13.121 32.1965 13.121 25.3041C13.121 18.4117 18.7286 12.8041 25.6209 12.8041C32.5133 12.8041 38.1209 18.4117 38.1209 25.3041C38.1209 32.1965 32.5133 37.8041 25.6209 37.8041ZM25.6209 15.3904C20.1543 15.3904 15.7072 19.8375 15.7072 25.3041C15.7072 30.7707 20.1544 35.2179 25.6209 35.2179C31.0875 35.2179 35.5347 30.7707 35.5347 25.3041C35.5347 19.8375 31.0876 15.3904 25.6209 15.3904Z" fill="#F5F5F5"/>
<path d="M25.6215 36.942C19.2044 36.942 13.9836 31.7212 13.9836 25.3041C13.9836 18.8871 19.2044 13.6663 25.6215 13.6663C32.0386 13.6663 37.2595 18.8871 37.2595 25.3041C37.2595 31.7212 32.0387 36.942 25.6215 36.942ZM25.6215 14.5283C19.6796 14.5283 14.8457 19.3621 14.8457 25.3041C14.8457 31.2461 19.6795 36.08 25.6215 36.08C31.5635 36.08 36.3974 31.246 36.3974 25.3041C36.3974 19.3622 31.5635 14.5283 25.6215 14.5283Z" fill="#FFDC00"/>
<path d="M14.4144 26.1662C14.8905 26.1662 15.2765 25.7803 15.2765 25.3041C15.2765 24.828 14.8905 24.442 14.4144 24.442C13.9383 24.442 13.5523 24.828 13.5523 25.3041C13.5523 25.7803 13.9383 26.1662 14.4144 26.1662Z" fill="#FFDC00"/>
<path d="M36.8286 26.1662C37.3047 26.1662 37.6907 25.7803 37.6907 25.3041C37.6907 24.828 37.3047 24.442 36.8286 24.442C36.3525 24.442 35.9665 24.828 35.9665 25.3041C35.9665 25.7803 36.3525 26.1662 36.8286 26.1662Z" fill="#FFDC00"/>
<path d="M25.6211 14.9592C26.0973 14.9592 26.4832 14.5732 26.4832 14.0971C26.4832 13.621 26.0973 13.235 25.6211 13.235C25.145 13.235 24.759 13.621 24.759 14.0971C24.759 14.5732 25.145 14.9592 25.6211 14.9592Z" fill="#FFDC00"/>
<path d="M17.6964 18.2414C18.1725 18.2414 18.5585 17.8554 18.5585 17.3793C18.5585 16.9032 18.1725 16.5172 17.6964 16.5172C17.2203 16.5172 16.8343 16.9032 16.8343 17.3793C16.8343 17.8554 17.2203 18.2414 17.6964 18.2414Z" fill="#FFDC00"/>
<path d="M33.546 18.2414C34.0221 18.2414 34.4081 17.8554 34.4081 17.3793C34.4081 16.9032 34.0221 16.5172 33.546 16.5172C33.0699 16.5172 32.6839 16.9032 32.6839 17.3793C32.6839 17.8554 33.0699 18.2414 33.546 18.2414Z" fill="#FFDC00"/>
<path d="M35.9747 21.8772C36.4509 21.8772 36.8368 21.4912 36.8368 21.0151C36.8368 20.5389 36.4509 20.153 35.9747 20.153C35.4986 20.153 35.1126 20.5389 35.1126 21.0151C35.1126 21.4912 35.4986 21.8772 35.9747 21.8772Z" fill="#FFDC00"/>
<path d="M21.3324 15.8127C21.8086 15.8127 22.1946 15.4267 22.1946 14.9506C22.1946 14.4745 21.8086 14.0885 21.3324 14.0885C20.8563 14.0885 20.4703 14.4745 20.4703 14.9506C20.4703 15.4267 20.8563 15.8127 21.3324 15.8127Z" fill="#FFDC00"/>
<path d="M15.2681 21.8772C15.7442 21.8772 16.1302 21.4912 16.1302 21.0151C16.1302 20.5389 15.7442 20.153 15.2681 20.153C14.7919 20.153 14.4059 20.5389 14.4059 21.0151C14.4059 21.4912 14.7919 21.8772 15.2681 21.8772Z" fill="#FFDC00"/>
<path d="M29.9106 15.8127C30.3867 15.8127 30.7727 15.4267 30.7727 14.9506C30.7727 14.4745 30.3867 14.0885 29.9106 14.0885C29.4344 14.0885 29.0485 14.4745 29.0485 14.9506C29.0485 15.4267 29.4344 15.8127 29.9106 15.8127Z" fill="#FFDC00"/>
<path d="M36.6127 23.9797C37.0888 23.9797 37.4748 23.5937 37.4748 23.1176C37.4748 22.6415 37.0888 22.2555 36.6127 22.2555C36.1365 22.2555 35.7505 22.6415 35.7505 23.1176C35.7505 23.5937 36.1365 23.9797 36.6127 23.9797Z" fill="#FFDC00"/>
<path d="M23.435 15.175C23.9112 15.175 24.2971 14.789 24.2971 14.3129C24.2971 13.8368 23.9112 13.4508 23.435 13.4508C22.9589 13.4508 22.5729 13.8368 22.5729 14.3129C22.5729 14.789 22.9589 15.175 23.435 15.175Z" fill="#FFDC00"/>
<path d="M16.303 19.9397C16.7792 19.9397 17.1651 19.5537 17.1651 19.0776C17.1651 18.6014 16.7792 18.2155 16.303 18.2155C15.8269 18.2155 15.4409 18.6014 15.4409 19.0776C15.4409 19.5537 15.8269 19.9397 16.303 19.9397Z" fill="#FFDC00"/>
<path d="M31.848 16.8488C32.3241 16.8488 32.7101 16.4629 32.7101 15.9867C32.7101 15.5106 32.3241 15.1246 31.848 15.1246C31.3719 15.1246 30.9859 15.5106 30.9859 15.9867C30.9859 16.4629 31.3719 16.8488 31.848 16.8488Z" fill="#FFDC00"/>
<path d="M34.9389 19.9397C35.415 19.9397 35.801 19.5537 35.801 19.0776C35.801 18.6014 35.415 18.2155 34.9389 18.2155C34.4628 18.2155 34.0768 18.6014 34.0768 19.0776C34.0768 19.5537 34.4628 19.9397 34.9389 19.9397Z" fill="#FFDC00"/>
<path d="M19.3949 16.8488C19.8711 16.8488 20.2571 16.4629 20.2571 15.9867C20.2571 15.5106 19.8711 15.1246 19.3949 15.1246C18.9188 15.1246 18.5328 15.5106 18.5328 15.9867C18.5328 16.4629 18.9188 16.8488 19.3949 16.8488Z" fill="#FFDC00"/>
<path d="M14.6304 23.9797C15.1065 23.9797 15.4925 23.5937 15.4925 23.1176C15.4925 22.6415 15.1065 22.2555 14.6304 22.2555C14.1542 22.2555 13.7682 22.6415 13.7682 23.1176C13.7682 23.5937 14.1542 23.9797 14.6304 23.9797Z" fill="#FFDC00"/>
<path d="M27.8079 15.175C28.284 15.175 28.67 14.789 28.67 14.3129C28.67 13.8368 28.284 13.4508 27.8079 13.4508C27.3318 13.4508 26.9458 13.8368 26.9458 14.3129C26.9458 14.789 27.3318 15.175 27.8079 15.175Z" fill="#FFDC00"/>
<path d="M36.8276 25.7352C36.5894 25.7352 36.3966 25.5424 36.3966 25.3041C36.3966 19.3622 31.5627 14.5283 25.6207 14.5283C19.6787 14.5283 14.845 19.3623 14.845 25.3041C14.845 25.5424 14.6522 25.7352 14.4139 25.7352C14.1756 25.7352 13.9828 25.5424 13.9828 25.3041C13.9828 18.8871 19.2036 13.6663 25.6207 13.6663C32.0378 13.6663 37.2587 18.8871 37.2587 25.3041C37.2587 25.5424 37.0659 25.7352 36.8276 25.7352Z" fill="#FFA000"/>
<path d="M28.0161 38.2352H23.2257C22.2021 38.2352 21.4038 37.3486 21.5111 36.3306L23.0347 21.856H28.2071L29.7307 36.3306C29.8379 37.3486 29.0397 38.2352 28.0161 38.2352Z" fill="#B4B4B4"/>
<path d="M28.1824 21.8559H23.0388C22.8121 21.8559 22.6219 21.6852 22.5974 21.4599L22.2761 18.5007C22.2207 17.9908 22.6201 17.5455 23.1331 17.5455H28.1082C28.6211 17.5455 29.0206 17.9906 28.9652 18.5007L28.6461 21.44C28.6204 21.6766 28.4205 21.8559 28.1824 21.8559Z" fill="#AAAAAA"/>
<path d="M25.8203 18.5497L27.4183 23.1472L32.2846 23.2463C32.4849 23.2504 32.5677 23.5049 32.408 23.6261L28.5294 26.5666L29.9388 31.2253C29.9969 31.4171 29.7804 31.5745 29.6158 31.46L25.6207 28.6799L21.6255 31.46C21.461 31.5745 21.2444 31.4171 21.3024 31.2253L22.7119 26.5666L18.8333 23.6261C18.6736 23.5051 18.7563 23.2504 18.9566 23.2463L23.8229 23.1472L25.421 18.5497C25.4868 18.3603 25.7545 18.3603 25.8203 18.5497Z" fill="#F5F5F5"/>
</g>
<defs>
<clipPath id="clip0_9_2288">
<rect width="50" height="50" fill="white" transform="translate(0.621094 0.304199)"/>
</clipPath>
</defs>
</svg>
