<svg width="51" height="51" viewBox="0 0 51 51" fill="none" xmlns="http://www.w3.org/2000/svg">
<g clip-path="url(#clip0_9_2314)">
<path d="M49.33 41.5445H1.05431C0.578234 41.5445 0.1922 41.1585 0.1922 40.6824V9.648C0.1922 9.17192 0.578234 8.78589 1.05431 8.78589H49.3301C49.8062 8.78589 50.1922 9.17192 50.1922 9.648V40.6824C50.1921 41.1586 49.8061 41.5445 49.33 41.5445Z" fill="#F5F5F5"/>
<path d="M50.1921 12.2346H0.1922V15.6829H50.1921V12.2346Z" fill="#FF4B55"/>
<path d="M50.1929 34.6476H0.192993V38.0958H50.1929V34.6476Z" fill="#FF4B55"/>
<path d="M24.4609 22.5122L25.6745 24.0997L27.5693 23.4654C27.6753 23.43 27.7654 23.5498 27.7019 23.6417L26.5671 25.2864L27.7559 26.8926C27.8224 26.9823 27.7363 27.1051 27.6292 27.0731L25.7143 26.5021L24.5542 28.1291C24.4893 28.22 24.346 28.1761 24.3433 28.0644L24.2947 26.0668L22.3888 25.4661C22.2823 25.4325 22.2798 25.2826 22.3851 25.2455L24.2699 24.5819L24.2522 22.5838C24.2512 22.4722 24.393 22.4234 24.4609 22.5122Z" fill="#FF4B55"/>
<path d="M18.2096 31.3757C14.7823 31.3757 12.0022 28.5955 12.0022 25.1651C12.0022 21.7411 14.7823 18.9547 18.2096 18.9547C19.4847 18.9547 20.6607 19.3468 21.6406 20.0107C21.7907 20.1123 21.9619 19.9151 21.8363 19.7845C20.3718 18.2617 18.2988 17.3328 16.0006 17.4114C12.052 17.546 8.78323 20.7119 8.53089 24.6547C8.24193 29.1707 11.8178 32.9238 16.2701 32.9238C18.4632 32.9238 20.4343 32.0069 21.8418 30.5409C21.9661 30.4114 21.7945 30.2172 21.6459 30.318C20.6648 30.983 19.4869 31.3757 18.2096 31.3757Z" fill="#FF4B55"/>
</g>
<defs>
<clipPath id="clip0_9_2314">
<rect width="50" height="50" fill="white" transform="translate(0.191406 0.165283)"/>
</clipPath>
</defs>
</svg>
