<svg width="51" height="51" viewBox="0 0 51 51" fill="none" xmlns="http://www.w3.org/2000/svg">
<g clip-path="url(#clip0_9_2276)">
<path d="M49.4816 41.6835H1.20592C0.729845 41.6835 0.343811 41.2975 0.343811 40.8214V9.78697C0.343811 9.3109 0.729845 8.92487 1.20592 8.92487H49.4817C49.9578 8.92487 50.3438 9.3109 50.3438 9.78697V40.8214C50.3437 41.2976 49.9577 41.6835 49.4816 41.6835Z" fill="#FF4B55"/>
<path d="M50.3437 20.9939H22.7575V8.92499H14.1369V20.9939H0.343811V29.6146H14.1369V41.6835H22.7575V29.6146H50.3437V20.9939Z" fill="#F5F5F5"/>
<path d="M50.3437 22.718H21.0334V8.92499H15.8611V22.718H0.343811V27.8905H15.8611V41.6835H21.0334V27.8905H50.3437V22.718Z" fill="#41479B"/>
</g>
<defs>
<clipPath id="clip0_9_2276">
<rect width="50" height="50" fill="white" transform="translate(0.34375 0.304199)"/>
</clipPath>
</defs>
</svg>
