<svg width="51" height="51" viewBox="0 0 51 51" fill="none" xmlns="http://www.w3.org/2000/svg">
<g clip-path="url(#clip0_9_2241)">
<path d="M50.6378 19.8445H0.637878V9.78697C0.637878 9.3109 1.02391 8.92487 1.49999 8.92487H49.7758C50.2518 8.92487 50.6379 9.3109 50.6379 9.78697L50.6378 19.8445Z" fill="#F5F5F5"/>
<path d="M49.7757 41.6835H1.49999C1.02391 41.6835 0.637878 41.2975 0.637878 40.8214V30.764H50.6378V40.8214C50.6378 41.2976 50.2517 41.6835 49.7757 41.6835Z" fill="#73AF00"/>
<path d="M50.6388 19.8442H0.638855V30.7632H50.6388V19.8442Z" fill="#FF4B55"/>
<path d="M13.5699 41.6834H1.50096C1.02489 41.6834 0.638855 41.2974 0.638855 40.8213V9.78691C0.638855 9.31084 1.02489 8.9248 1.50096 8.9248H13.5699V41.6834Z" fill="#FF4B55"/>
<path d="M4.16086 16.0703C4.11249 16.0757 4.06579 16.0816 4.02026 16.0876V16.7016C4.06608 16.7132 4.11279 16.7247 4.16086 16.7361V16.0703Z" fill="#F5F5F5"/>
<path d="M6.2841 17.2405C6.15608 17.2302 5.9594 17.2105 5.72463 17.1819L4.25208 18.4915C4.4428 18.5207 4.67141 18.5593 4.76682 18.5897C5.14524 18.2586 5.65246 17.8076 6.2841 17.2405Z" fill="#F5F5F5"/>
<path d="M8.50007 15.1574V15.093V15.0314H5.88757V15.093V15.1574V15.2192H8.50007V15.1574Z" fill="#F5F5F5"/>
<path d="M6.56573 11.4211C6.56573 11.6051 6.84298 11.7605 7.1712 11.7605C7.49943 11.7605 7.77667 11.6051 7.77667 11.4211C7.77667 11.2372 7.49943 11.0818 7.1712 11.0818C6.84298 11.0818 6.56573 11.2373 6.56573 11.4211Z" fill="#F5F5F5"/>
<path d="M5.9995 15.9873C5.40975 15.9843 4.82118 16.006 4.34003 16.0515V16.7763C4.90536 16.8976 5.56395 16.9906 5.9995 17.0369C5.9995 17.0368 5.9995 15.9873 5.9995 15.9873Z" fill="#F5F5F5"/>
<path d="M2.9613 19.5641C3.19441 19.5591 3.70642 19.467 4.0531 19.1962C4.16052 19.1122 4.34402 18.9577 4.60193 18.7337C4.42702 18.6979 4.13357 18.6543 3.97712 18.6328L2.9613 19.5641Z" fill="#F5F5F5"/>
<path d="M6.33592 14.852V14.5225C6.29178 14.4567 6.24618 14.3888 6.1996 14.3198L5.79852 14.6115C5.87841 14.7487 5.92958 14.8359 5.93905 14.8519L6.33592 14.852Z" fill="#F5F5F5"/>
<path d="M3.25024 16.3397C3.24897 16.3451 3.24584 16.3576 3.26596 16.3835C3.34037 16.4789 3.5557 16.57 3.84164 16.6529V16.1143C3.49838 16.1712 3.27358 16.2464 3.25024 16.3397Z" fill="#F5F5F5"/>
<path d="M7.83812 16.0825V15.3986H6.51508V17.0693H6.8515C7.39545 17.0693 7.83812 16.6265 7.83812 16.0825Z" fill="#F5F5F5"/>
<path d="M5.71192 13.598C5.00353 12.5538 4.24698 11.4564 4.06232 11.2389C4.08878 11.3361 4.15265 11.5187 4.30187 11.8606C4.49435 12.3018 4.96153 13.1474 5.34835 13.8282L5.71192 13.598Z" fill="#F5F5F5"/>
<path d="M5.43701 13.9844C5.53779 14.1608 5.63008 14.3211 5.70791 14.4555L6.09922 14.1709C6.00615 14.0327 5.91035 13.891 5.8126 13.7467L5.43701 13.9844Z" fill="#F5F5F5"/>
<path d="M6.33609 17.0661V15.9915C6.28371 15.9904 6.23132 15.9893 6.17865 15.9886V17.0544C6.23925 17.0596 6.29203 17.0636 6.33609 17.0661Z" fill="#F5F5F5"/>
<path d="M7.83877 13.9293H6.51562V14.1171H7.83877V13.9293Z" fill="#F5F5F5"/>
<path d="M9.67719 14.8407V14.852H9.74447C9.79408 14.852 9.83412 14.892 9.83412 14.9416V15.3089C9.83412 15.3585 9.79408 15.3986 9.74447 15.3986H9.67719V15.4098C9.67719 15.4591 9.71742 15.4994 9.76683 15.4994H11.2805C11.3299 15.4994 11.3701 15.4591 11.3701 15.4098V14.8407C11.3701 14.7914 11.3299 14.7511 11.2805 14.7511H9.76693C9.71742 14.751 9.67719 14.7912 9.67719 14.8407Z" fill="#F5F5F5"/>
<path d="M11.371 19.5591L10.3607 18.6328C10.2043 18.6544 9.9109 18.6978 9.7359 18.7337C9.9985 18.9615 10.1819 19.116 10.2847 19.1964C10.626 19.4628 11.1276 19.5562 11.371 19.5591Z" fill="#F5F5F5"/>
<path d="M9.29626 15.093V15.1574V15.2192H9.65608V15.0314H9.29626V15.093Z" fill="#F5F5F5"/>
<path d="M9.57063 18.5899C9.66604 18.5593 9.89494 18.5206 10.0861 18.4916L7.91672 16.5557C7.85793 16.6878 7.7759 16.8072 7.67493 16.9079L7.73206 16.9588C8.51789 17.6624 9.13225 18.2071 9.57063 18.5899Z" fill="#F5F5F5"/>
<path d="M4.71021 15.4098V15.3986H4.64283C4.59322 15.3986 4.55318 15.3585 4.55318 15.3089V14.9416C4.55318 14.892 4.59322 14.852 4.64283 14.852H4.71012V14.8407C4.71012 14.7914 4.66988 14.7511 4.62047 14.7511H3.1068C3.05739 14.7511 3.01715 14.7914 3.01715 14.8407V15.4098C3.01715 15.4591 3.05739 15.4994 3.1068 15.4994H4.62047C4.66998 15.4994 4.71021 15.4592 4.71021 15.4098Z" fill="#F5F5F5"/>
<path d="M5.09205 15.1574V15.093V15.0314H4.73224V15.2192H5.09205V15.1574Z" fill="#F5F5F5"/>
<path d="M8.53946 14.6115L8.13839 14.3198C8.09738 14.3808 8.05724 14.4405 8.01788 14.499V14.8519H8.39894C8.40841 14.8359 8.45958 14.7487 8.53946 14.6115Z" fill="#F5F5F5"/>
<path d="M6.63562 13.3803H7.71911L7.48064 13.1157H6.8741L6.63562 13.3803Z" fill="#F5F5F5"/>
<path d="M7.83877 13.568H6.51562V13.7502H7.83877V13.568Z" fill="#F5F5F5"/>
<path d="M7.17093 11.9399C7.08373 11.9399 7.00199 11.9287 6.92426 11.9121V12.926H7.42318V11.911C7.34388 11.9284 7.26009 11.9399 7.17093 11.9399Z" fill="#F5F5F5"/>
<path d="M6.51508 14.4847H7.83246C7.83226 14.4735 7.83422 14.4626 7.83832 14.4517V14.2969H6.51508V14.4847Z" fill="#F5F5F5"/>
<path d="M8.23871 14.1709L8.63002 14.4555C8.70785 14.3212 8.80013 14.1608 8.90091 13.9844L8.52533 13.7467C8.42748 13.891 8.33187 14.0327 8.23871 14.1709Z" fill="#F5F5F5"/>
<path d="M7.83877 14.6647H6.51562V14.8525H7.83877V14.6647Z" fill="#F5F5F5"/>
<path d="M8.98946 13.8283C9.37618 13.1476 9.84337 12.3018 10.0359 11.8606C10.1856 11.5179 10.2493 11.3352 10.2757 11.2383C10.0943 11.4511 9.33595 12.5511 8.62579 13.598L8.98946 13.8283Z" fill="#F5F5F5"/>
<path d="M11.619 19.5447L10.4492 18.472C10.4296 18.454 10.4031 18.4451 10.3765 18.4492C10.3666 18.4505 10.344 18.4536 10.314 18.4577C10.3124 18.4561 10.3118 18.4538 10.3099 18.4524L7.97821 16.3716C8.00204 16.2789 8.01591 16.1824 8.01591 16.0824V15.3985H8.58153C8.65439 15.4933 8.76767 15.5555 8.89608 15.5555C9.0246 15.5555 9.13788 15.4933 9.21063 15.3985H9.49599V15.4097C9.49599 15.558 9.61669 15.6787 9.76503 15.6787H11.2787C11.427 15.6787 11.5477 15.558 11.5477 15.4097V14.8407C11.5477 14.6923 11.427 14.5716 11.2787 14.5716H9.76522C9.61688 14.5716 9.49618 14.6923 9.49618 14.8407V14.8519H9.21083C9.13798 14.7571 9.0247 14.6949 8.89628 14.6949C8.79882 14.6949 8.71073 14.7314 8.64149 14.7896C8.94384 14.272 9.89374 12.6314 10.1988 11.9323C10.5261 11.1821 10.4997 11.0852 10.4224 11.023C10.3407 10.9577 10.2374 11.0328 10.1984 11.0614C10.0483 11.1704 8.59296 13.3205 8.01601 14.1776V13.47C8.01601 13.468 8.01503 13.4662 8.01493 13.4644L8.01484 13.4642C8.01278 13.4338 7.99579 13.4085 7.97099 13.394L7.60116 12.9838V11.856C7.81503 11.7642 7.95439 11.6056 7.95439 11.421C7.95439 11.1302 7.60956 10.9023 7.16943 10.9023C6.72929 10.9023 6.38447 11.1302 6.38447 11.421C6.38447 11.6071 6.52636 11.7665 6.74326 11.8578V12.9903L6.38046 13.3927C6.35322 13.4081 6.33398 13.4363 6.33398 13.4698V14.2008C5.76826 13.3603 4.28721 11.1713 4.13594 11.0613C4.09678 11.0329 3.99336 10.9578 3.91191 11.0229C3.83447 11.0851 3.80811 11.182 4.13545 11.9322C4.43086 12.6091 5.33056 14.1684 5.66191 14.7367C5.60898 14.7107 5.55029 14.6948 5.4875 14.6948C5.35898 14.6948 5.2457 14.757 5.17295 14.8518H4.88769V14.8406C4.88769 14.6922 4.76699 14.5715 4.61865 14.5715H3.10479C2.95645 14.5715 2.83574 14.6922 2.83574 14.8406V15.4096C2.83574 15.5579 2.95645 15.6786 3.10479 15.6786H4.61846C4.7668 15.6786 4.8875 15.5579 4.8875 15.4096V15.3984H5.17285C5.2457 15.4932 5.35898 15.5554 5.4874 15.5554C5.61591 15.5554 5.7292 15.4932 5.80195 15.3984H6.33398V15.8115C5.50234 15.7937 3.1999 15.7909 3.07373 16.2961C3.06201 16.3429 3.06084 16.4155 3.12207 16.4938C3.36475 16.8046 4.59463 17.0315 5.48672 17.1514L4.02422 18.4522C4.02236 18.4538 4.02178 18.4561 4.02002 18.4577C3.99004 18.4535 3.96748 18.4505 3.95752 18.4492C3.93057 18.4453 3.90439 18.454 3.88486 18.472L2.71494 19.5447C2.67959 19.577 2.67598 19.6315 2.70674 19.6683C2.74551 19.7149 2.84405 19.7377 2.97578 19.7377C3.3 19.7377 3.82607 19.5994 4.16143 19.3376C4.43779 19.1218 5.20342 18.4505 6.4372 17.3425C6.49062 17.2946 6.52597 17.2627 6.5416 17.2488H6.8496C7.10556 17.2488 7.3416 17.165 7.53417 17.0246L7.61015 17.0925C9.03065 18.364 9.89257 19.1193 10.1724 19.3376C10.5077 19.5997 11.0336 19.7377 11.3578 19.7377C11.4896 19.7377 11.5881 19.715 11.6269 19.6683C11.6581 19.6315 11.6543 19.577 11.619 19.5447ZM6.51357 17.0692V15.3985H7.83671V16.0824C7.83671 16.6264 7.39404 17.0692 6.84999 17.0692H6.51357ZM3.83936 16.6529C3.55361 16.5698 3.33818 16.4788 3.26367 16.3834C3.24346 16.3574 3.24658 16.345 3.24795 16.3397C3.27129 16.2463 3.49609 16.1711 3.83936 16.1143V16.6529ZM4.06055 11.2388C4.24512 11.4563 5.00176 12.5535 5.71015 13.5979L5.34648 13.8282C4.95976 13.1473 4.49258 12.3017 4.3 11.8605C4.15088 11.5187 4.08691 11.3362 4.06055 11.2388ZM6.19785 14.3197C6.24433 14.3886 6.28984 14.4564 6.33418 14.5224V14.8519H5.9373C5.92783 14.8359 5.87666 14.7487 5.79677 14.6115L6.19785 14.3197ZM5.70625 14.4554C5.62841 14.3211 5.53613 14.1607 5.43535 13.9843L5.81093 13.7466C5.90879 13.891 6.00449 14.0327 6.09755 14.1708L5.70625 14.4554ZM6.33418 15.9914V17.066C6.29043 17.0636 6.23769 17.0596 6.17714 17.0543V15.9886C6.22959 15.9893 6.28183 15.9903 6.33418 15.9914ZM4.33828 16.0513C4.81953 16.0058 5.408 15.9842 5.99775 15.987V17.0366C5.5622 16.9905 4.90361 16.8974 4.33828 16.7761V16.0513ZM4.01865 16.0875C4.06406 16.0815 4.11055 16.0757 4.15889 16.0701V16.7359C4.11094 16.7246 4.06436 16.7131 4.01865 16.7014V16.0875ZM5.72304 17.1817C5.95781 17.2104 6.15449 17.23 6.28252 17.2403C5.65088 17.8073 5.14365 18.2584 4.76543 18.5895C4.66992 18.559 4.44141 18.5204 4.25068 18.4913L5.72304 17.1817ZM4.60019 18.7335C4.34228 18.9575 4.15879 19.112 4.05137 19.196C3.70469 19.4669 3.19277 19.5591 2.95957 19.5639L3.97539 18.6325C4.13184 18.6542 4.42519 18.6977 4.60019 18.7335ZM5.88564 15.2191V15.1575V15.093V15.0314H8.49823V15.093V15.1575V15.2191H5.88564ZM7.77499 11.421C7.77499 11.605 7.49775 11.7604 7.16953 11.7604C6.8413 11.7604 6.56406 11.605 6.56406 11.421C6.56406 11.237 6.8413 11.0817 7.16953 11.0817C7.49775 11.0817 7.77499 11.2371 7.77499 11.421ZM6.51357 14.1174V13.9296H7.83671V14.1174H6.51357ZM7.83661 14.2968V14.4516C7.83251 14.4624 7.83056 14.4734 7.83075 14.4846H6.51357V14.2968H7.83661ZM6.51357 13.7501V13.5679H7.83671V13.7501H6.51357ZM7.47861 13.1156L7.71708 13.3801H6.63359L6.87206 13.1156H7.47861ZM6.92285 12.926V11.912C7.00058 11.9286 7.08232 11.9399 7.16953 11.9399C7.25878 11.9399 7.34247 11.9284 7.42177 11.911V12.926H6.92285ZM6.51357 14.664H7.83671V14.8518H6.51357V14.664ZM10.0344 11.8605C9.84188 12.3017 9.3747 13.1473 8.98788 13.8282L8.62421 13.5979C9.33436 12.551 10.0928 11.451 10.2741 11.2382C10.2477 11.3351 10.1839 11.5178 10.0344 11.8605ZM9.11483 15.0929V15.1574C9.11483 15.278 9.01679 15.376 8.89618 15.376C8.77558 15.376 8.67753 15.278 8.67753 15.1574V15.0929C8.67753 14.9723 8.77558 14.8742 8.89618 14.8742C9.01679 14.8742 9.11483 14.9723 9.11483 15.0929ZM8.62812 14.4554L8.23681 14.1708C8.32987 14.0326 8.42558 13.8909 8.52343 13.7466L8.89901 13.9843C8.79823 14.1607 8.70585 14.321 8.62812 14.4554ZM8.01601 14.4989C8.05536 14.4403 8.0954 14.3807 8.13652 14.3197L8.53759 14.6114C8.45771 14.7486 8.40653 14.8358 8.39706 14.8519H8.01601V14.4989ZM7.91484 16.5554L10.0842 18.4912C9.89325 18.5204 9.66415 18.5591 9.56874 18.5896C9.13026 18.2067 8.51601 17.6621 7.73007 16.9584L7.67294 16.9074C7.77402 16.807 7.85605 16.6874 7.91484 16.5554ZM10.359 18.6326L11.3692 19.5589C11.1258 19.5561 10.6243 19.4627 10.283 19.1962C10.1802 19.1158 9.99677 18.9613 9.73417 18.7335C9.90917 18.6977 10.2025 18.6542 10.359 18.6326ZM11.3687 14.8407V15.4097C11.3687 15.459 11.3285 15.4993 11.2791 15.4993H9.76522C9.71581 15.4993 9.67557 15.459 9.67557 15.4097V15.3985H9.74286C9.79247 15.3985 9.83251 15.3584 9.83251 15.3088V14.9415C9.83251 14.8919 9.79247 14.8519 9.74286 14.8519H9.67557V14.8407C9.67557 14.7913 9.71581 14.751 9.76522 14.751H11.2789C11.3284 14.7509 11.3687 14.7911 11.3687 14.8407ZM9.65311 15.2191H9.29433V15.1575V15.093V15.0314H9.65311V15.2191ZM3.01504 15.4097V14.8407C3.01504 14.7913 3.05528 14.751 3.10469 14.751H4.61836C4.66777 14.751 4.70801 14.7913 4.70801 14.8407V14.8519H4.64092C4.59131 14.8519 4.55127 14.8919 4.55127 14.9415V15.3088C4.55127 15.3584 4.59131 15.3985 4.64092 15.3985H4.7082V15.4097C4.7082 15.459 4.66797 15.4993 4.61855 15.4993H3.10488C3.05537 15.4993 3.01504 15.4591 3.01504 15.4097ZM4.73066 15.0313H5.08945V15.0929V15.1574V15.219H4.73066V15.0313ZM5.70625 15.1574C5.70625 15.278 5.6082 15.376 5.48759 15.376C5.36699 15.376 5.26894 15.278 5.26894 15.1574V15.0929C5.26894 14.9723 5.36699 14.8742 5.48759 14.8742C5.6082 14.8742 5.70625 14.9723 5.70625 15.0929V15.1574Z" fill="#D23741"/>
</g>
<defs>
<clipPath id="clip0_9_2241">
<rect width="50" height="50" fill="white" transform="translate(0.636719 0.304199)"/>
</clipPath>
</defs>
</svg>
