<svg width="51" height="51" viewBox="0 0 51 51" fill="none" xmlns="http://www.w3.org/2000/svg">
    <g clip-path="url(#clip0_9_2231)">
        <path
            d="M49.4983 41.6835H13.2915V8.92499H49.4984C49.9744 8.92499 50.3605 9.31102 50.3605 9.7871V40.8215C50.3604 41.2976 49.9743 41.6835 49.4983 41.6835Z"
            fill="#73AF00" />
        <path
            d="M13.2929 41.6834H1.22399C0.747912 41.6834 0.361877 41.2974 0.361877 40.8213V9.78691C0.361877 9.31084 0.747912 8.9248 1.22399 8.9248H13.2929V41.6834Z"
            fill="#F5F5F5" />
        <path
            d="M40.6013 29.8147C36.6333 33.3495 30.559 32.9863 27.0314 29.0113C23.5105 25.0436 23.8668 18.9517 27.8347 15.4172C27.8405 15.412 27.8462 15.4069 27.8521 15.4018C27.9458 15.3194 27.8552 15.1697 27.7388 15.215C23.8257 16.7389 21.0514 20.545 21.0514 25.0015C21.0514 30.8066 25.7458 35.5081 31.537 35.5081C35.5432 35.5081 39.0149 33.2539 40.7785 29.9447C40.8373 29.8342 40.6994 29.7268 40.606 29.8102C40.6046 29.8117 40.6028 29.8132 40.6013 29.8147Z"
            fill="#F5F5F5" />
        <path
            d="M35.4971 17.1586L36.876 18.7055L38.7862 17.9016C39.0334 17.7975 39.2709 18.0681 39.1356 18.2998L38.0904 20.0893L39.4452 21.6575C39.6205 21.8605 39.4366 22.17 39.1745 22.1129L37.1496 21.6718L36.0767 23.4449C35.9378 23.6744 35.5867 23.5951 35.5599 23.3281L35.3537 21.266L33.3359 20.7935C33.0747 20.7323 33.0416 20.3739 33.2873 20.266L35.1847 19.4327L35.0105 17.3678C34.9879 17.1005 35.3187 16.9584 35.4971 17.1586Z"
            fill="#F5F5F5" />
    </g>
    <defs>
        <clipPath id="clip0_9_2231">
            <rect width="50" height="50" fill="white" transform="translate(0.359375 0.304199)" />
        </clipPath>
    </defs>
</svg>
