<svg width="51" height="51" viewBox="0 0 51 51" fill="none" xmlns="http://www.w3.org/2000/svg">
    <g clip-path="url(#clip0_9_2228)">
        <path
            d="M49.9273 41.6834H1.65166C1.17559 41.6834 0.789551 41.2974 0.789551 40.8213V9.78697C0.789551 9.3109 1.17559 8.92487 1.65166 8.92487H49.9274C50.4035 8.92487 50.7896 9.3109 50.7896 9.78697V40.8213C50.7895 41.2975 50.4034 41.6834 49.9273 41.6834Z"
            fill="#3CC8FF" />
        <path
            d="M25.7897 35.6488C31.5029 35.6488 36.1344 31.0173 36.1344 25.3041C36.1344 19.5909 31.5029 14.9594 25.7897 14.9594C20.0764 14.9594 15.4449 19.5909 15.4449 25.3041C15.4449 31.0173 20.0764 35.6488 25.7897 35.6488Z"
            fill="#FFE15A" />
    </g>
    <defs>
        <clipPath id="clip0_9_2228">
            <rect width="50" height="50" fill="white" transform="translate(0.789062 0.304199)" />
        </clipPath>
    </defs>
</svg>
