<svg width="51" height="51" viewBox="0 0 51 51" fill="none" xmlns="http://www.w3.org/2000/svg">
<g clip-path="url(#clip0_9_2223)">
<path d="M50.0834 19.8445H0.0834961V9.78697C0.0834961 9.3109 0.469531 8.92487 0.945604 8.92487H49.2214C49.6975 8.92487 50.0835 9.3109 50.0835 9.78697L50.0834 19.8445Z" fill="#464655"/>
<path d="M49.2213 41.6835H0.945604C0.469531 41.6835 0.0834961 41.2975 0.0834961 40.8214V30.764H50.0834V40.8214C50.0834 41.2976 49.6974 41.6835 49.2213 41.6835Z" fill="#73AF00"/>
<path d="M50.0834 19.8443H0.0834961V30.7632H50.0834V19.8443Z" fill="#F5F5F5"/>
<path d="M0.401464 41.4751L20.2101 25.751C20.4978 25.5227 20.4978 25.0858 20.2101 24.8574L0.401464 9.13336C0.211523 9.29147 0.0834961 9.52057 0.0834961 9.78697V40.8214C0.0834961 41.0879 0.211523 41.317 0.401464 41.4751Z" fill="#FF4B55"/>
</g>
<defs>
<clipPath id="clip0_9_2223">
<rect width="50" height="50" fill="white" transform="translate(0.0820312 0.304199)"/>
</clipPath>
</defs>
</svg>
