<svg width="51" height="51" viewBox="0 0 51 51" fill="none" xmlns="http://www.w3.org/2000/svg">
<g clip-path="url(#clip0_9_2216)">
<path d="M49.6501 41.6835H1.37444C0.898364 41.6835 0.512329 41.2975 0.512329 40.8214V9.78697C0.512329 9.3109 0.898364 8.92487 1.37444 8.92487H49.6502C50.1263 8.92487 50.5123 9.3109 50.5123 9.78697V40.8214C50.5122 41.2976 50.1262 41.6835 49.6501 41.6835Z" fill="#F5F5F5"/>
<path d="M25.5123 25.3042H49.6502C50.1262 25.3042 50.5123 24.9182 50.5123 24.4421V9.78697C50.5123 9.3109 50.1262 8.92487 49.6502 8.92487H26.3744C25.8984 8.92487 25.5123 9.3109 25.5123 9.78697V25.3042Z" fill="#FF4B55"/>
<path d="M1.37505 41.6836H24.6509C25.127 41.6836 25.513 41.2976 25.513 40.8215V25.3043H1.37505C0.898974 25.3043 0.512939 25.6904 0.512939 26.1664V40.8216C0.512939 41.2977 0.898974 41.6836 1.37505 41.6836Z" fill="#4173CD"/>
<path d="M13.3451 13.4378L14.167 15.9021L16.7646 15.9222C17.101 15.9247 17.2404 16.354 16.9698 16.5537L14.8802 18.0968L15.6637 20.5735C15.765 20.8942 15.4 21.1594 15.1263 20.9639L13.0131 19.4534L10.8997 20.964C10.6261 21.1596 10.261 20.8942 10.3624 20.5736L11.1459 18.0969L9.05624 16.5538C8.78564 16.354 8.92509 15.9248 9.26142 15.9223L11.8591 15.9022L12.6809 13.4379C12.7874 13.1188 13.2388 13.1188 13.3451 13.4378Z" fill="#4173CD"/>
<path d="M38.3444 29.817L39.1662 32.2813L41.7639 32.3014C42.1002 32.3039 42.2397 32.7332 41.9691 32.9329L39.8794 34.476L40.6629 36.9528C40.7643 37.2735 40.3992 37.5386 40.1256 37.3431L38.0123 35.8326L35.899 37.3432C35.6253 37.5388 35.2603 37.2735 35.3617 36.9529L36.1452 34.4761L34.0555 32.933C33.7849 32.7332 33.9244 32.304 34.2607 32.3015L36.8583 32.2814L37.6802 29.8171C37.7867 29.498 38.238 29.498 38.3444 29.817Z" fill="#FF4B55"/>
</g>
<defs>
<clipPath id="clip0_9_2216">
<rect width="50" height="50" fill="white" transform="translate(0.511719 0.304199)"/>
</clipPath>
</defs>
</svg>
