<svg width="51" height="51" viewBox="0 0 51 51" fill="none" xmlns="http://www.w3.org/2000/svg">
<g clip-path="url(#clip0_9_2206)">
<path d="M49.9442 41.6835H1.6685C1.19243 41.6835 0.806396 41.2975 0.806396 40.8214V9.78697C0.806396 9.3109 1.19243 8.92487 1.6685 8.92487H49.9443C50.4204 8.92487 50.8064 9.3109 50.8064 9.78697V40.8214C50.8063 41.2976 50.4203 41.6835 49.9442 41.6835Z" fill="#FF4B55"/>
<path d="M1.12436 9.13336C0.934424 9.29147 0.806396 9.52057 0.806396 9.78697V40.8214C0.806396 41.2975 1.19243 41.6835 1.6685 41.6835H49.9443C50.1539 41.6835 50.3389 41.5995 50.4883 41.4751L1.12436 9.13336Z" fill="#464655"/>
<path d="M5.83504 24.7463L5.34168 26.2256L3.78231 26.2377C3.6327 26.2389 3.57078 26.4297 3.691 26.5186L4.94539 27.4448L4.47498 28.9315C4.42986 29.0741 4.59227 29.1921 4.71385 29.1052L5.9825 28.1983L7.25115 29.1052C7.37283 29.1922 7.53513 29.0741 7.49001 28.9315L7.01961 27.4448L8.274 26.5186C8.39421 26.4298 8.3323 26.239 8.18269 26.2377L6.62332 26.2256L6.12996 24.7463C6.08299 24.6045 5.8823 24.6045 5.83504 24.7463Z" fill="#F5F5F5"/>
<path d="M16.4582 24.7463L15.9648 26.2256L14.4055 26.2377C14.2559 26.2389 14.194 26.4297 14.3142 26.5186L15.5686 27.4448L15.0981 28.9315C15.053 29.0741 15.2154 29.1921 15.337 29.1052L16.6057 28.1983L17.8743 29.1052C17.996 29.1922 18.1583 29.0741 18.1132 28.9315L17.6428 27.4448L18.8972 26.5186C19.0174 26.4298 18.9555 26.239 18.8059 26.2377L17.2465 26.2256L16.7531 24.7463C16.7063 24.6045 16.5056 24.6045 16.4582 24.7463Z" fill="#F5F5F5"/>
<path d="M11.1466 18.3073L10.6532 19.7866L9.09383 19.7987C8.94422 19.7998 8.88231 19.9907 9.00252 20.0795L10.2569 21.0058L9.7865 22.4925C9.74139 22.6351 9.90379 22.7531 10.0254 22.6662L11.294 21.7593L12.5627 22.6662C12.6844 22.7531 12.8467 22.6351 12.8015 22.4925L12.3311 21.0058L13.5855 20.0795C13.7057 19.9908 13.6438 19.7999 13.4942 19.7987L11.9348 19.7866L11.4415 18.3073C11.3945 18.1655 11.1939 18.1655 11.1466 18.3073Z" fill="#F5F5F5"/>
<path d="M11.1466 34.142L10.6532 35.6213L9.09383 35.6334C8.94422 35.6346 8.88231 35.8254 9.00252 35.9143L10.2569 36.8405L9.7865 38.3272C9.74139 38.4698 9.90379 38.5878 10.0254 38.5009L11.294 37.594L12.5627 38.5009C12.6844 38.5879 12.8467 38.4698 12.8015 38.3272L12.3311 36.8405L13.5855 35.9143C13.7057 35.8255 13.6438 35.6347 13.4942 35.6334L11.9348 35.6213L11.4415 34.142C11.3945 34.0002 11.1939 34.0002 11.1466 34.142Z" fill="#F5F5F5"/>
<path d="M13.6213 30.2838L13.3589 31.0705L12.5297 31.0769C12.4502 31.0776 12.4172 31.179 12.4811 31.2262L13.1481 31.7188L12.898 32.5094C12.874 32.5853 12.9603 32.648 13.0251 32.6017L13.6998 32.1195L14.3745 32.6017C14.4391 32.6479 14.5255 32.5852 14.5015 32.5094L14.2514 31.7188L14.9184 31.2262C14.9824 31.179 14.9495 31.0775 14.8699 31.0769L14.0407 31.0705L13.7783 30.2838C13.7531 30.2084 13.6464 30.2084 13.6213 30.2838Z" fill="#F5F5F5"/>
<path d="M43.5375 24.5567C43.4113 23.5797 42.9939 22.6143 42.6907 22.0181C42.8404 22.093 43.0732 22.2279 43.0732 22.2279L42.8677 21.483C43.3814 21.6884 43.7668 22.0867 43.7668 22.0867C43.5098 20.8023 43.1117 20.1988 43.1117 20.1988L43.4328 20.3144C42.8291 18.8246 41.93 18.4007 41.93 18.4007L42.4437 18.2723C41.686 17.3219 40.62 17.0008 40.62 17.0008L41.3135 16.6668C39.4769 15.6265 37.7046 16.7182 37.7046 16.7182C37.7046 16.7182 38.3211 16.0761 38.5522 15.8064C38.7834 15.5367 38.2311 15.4468 38.2311 15.4468C38.2311 15.4468 38.7706 15.0744 38.7448 14.856C38.719 14.6376 38.2311 14.7533 38.2311 14.7533C38.2311 14.7533 38.655 14.3167 38.655 14.0726C38.655 13.8286 38.2183 13.9828 38.2183 13.9828C38.2183 13.9828 38.3596 13.6874 38.3982 13.4561C38.4368 13.225 38.0129 13.4175 38.0129 13.4175C38.0129 13.4175 38.4881 12.5699 38.4625 12.3901C38.4368 12.2102 37.2167 12.968 36.3433 13.8029C35.47 14.6378 35.5748 15.9793 35.6521 16.2985C35.7295 16.6177 35.7779 17.3623 35.391 17.6233C35.0042 17.8844 34.314 17.245 33.9715 16.8511C33.629 16.4573 33.2009 16.5942 32.7557 16.7484C32.3104 16.9025 31.4713 16.697 31.2144 16.6627C30.9575 16.6285 31.5055 16.9197 31.9679 17.0909C32.4303 17.2621 32.6357 17.6731 33.2865 17.9128C33.8564 18.1229 34.3129 18.656 33.8644 18.9017C33.515 19.0932 33.5177 18.7861 31.9766 18.388C30.4353 17.99 28.5859 21.9071 28.5859 21.9071C29.576 21.7846 30.082 21.1915 30.082 21.1915L29.8145 21.9588C30.5462 21.8203 30.904 21.3753 30.904 21.3753L30.7105 22.1491C31.2714 21.9749 31.6583 21.3753 31.6583 21.3753L31.4938 22.1393C32.045 21.8782 32.3352 21.3753 32.3352 21.3753C32.3933 21.6558 32.439 22.2282 32.439 22.2282C33.2927 21.7718 33.4921 21.1237 33.4921 21.1237C34.4682 24.0777 35.8809 24.5657 35.8809 24.5657L35.958 23.7951C36.3946 24.4116 37.0111 24.7198 37.0111 24.7198L36.9084 24.0519C38.4239 25.9013 40.1706 26.3637 40.1706 26.3637L39.7233 25.3401L40.2733 25.4517C39.6825 24.9508 39.4641 24.0775 39.4641 24.0775L39.9265 24.1545C39.1816 23.4739 38.8092 22.6904 38.8092 22.6904L39.2588 22.7674C39.1175 22.5491 39.0018 21.7786 39.0018 21.7786C39.8238 22.0355 40.2476 22.3565 40.2476 22.3565L40.2964 22.0767C41.0015 22.5848 42.1595 23.5307 42.9621 24.7199C42.9632 25.1078 42.9005 25.4995 42.7393 25.8926C42.0032 27.6881 40.0678 27.5708 39.2116 27.194C39.2116 27.194 41.8659 29.266 43.3216 26.3206C43.4138 26.1341 43.4715 25.9343 43.5129 25.7294C43.6944 26.1624 43.8199 26.614 43.8439 27.0827C43.998 30.088 40.8643 29.8055 40.8643 29.8055C40.8643 29.8055 44.332 31.1926 44.4862 27.1855C44.5202 26.2945 44.1429 25.4037 43.5375 24.5567ZM40.3867 21.5568L40.4018 21.4701C40.9285 21.6242 41.4807 21.9967 41.4807 21.9967L41.6027 21.6307C42.1237 22.2568 42.5398 22.9305 42.7715 23.628C42.0681 22.8723 41.2253 22.1706 40.3867 21.5568Z" fill="#FFE15A"/>
</g>
<defs>
<clipPath id="clip0_9_2206">
<rect width="50" height="50" fill="white" transform="translate(0.804688 0.304199)"/>
</clipPath>
</defs>
</svg>
