<svg width="51" height="51" viewBox="0 0 51 51" fill="none" xmlns="http://www.w3.org/2000/svg">
<g clip-path="url(#clip0_9_2198)">
<path d="M50.6209 20.1378H0.620972V10.0803C0.620972 9.60423 1.00701 9.2182 1.48308 9.2182H49.7589C50.2349 9.2182 50.621 9.60423 50.621 10.0803L50.6209 20.1378Z" fill="#FF4B55"/>
<path d="M49.7588 41.9768H1.48308C1.00701 41.9768 0.620972 41.5908 0.620972 41.1147V31.0573H50.6209V41.1147C50.6209 41.5909 50.2348 41.9768 49.7588 41.9768Z" fill="#41479B"/>
<path d="M50.6209 20.1376H0.620972V31.0565H50.6209V20.1376Z" fill="#F5F5F5"/>
<path d="M25.621 21.2872C23.2405 21.2872 21.3106 23.217 21.3106 25.5975C21.3106 27.9781 23.2405 29.9079 25.621 29.9079C28.0014 29.9079 29.9313 27.9781 29.9313 25.5975C29.9313 23.217 28.0014 21.2872 25.621 21.2872ZM25.621 28.8483C23.8257 28.8483 22.3702 27.3929 22.3702 25.5975C22.3702 23.8021 23.8256 22.3467 25.621 22.3467C27.4163 22.3467 28.8717 23.8022 28.8717 25.5975C28.8717 27.3928 27.4162 28.8483 25.621 28.8483Z" fill="#FF4B55"/>
<path d="M25.6211 27.0926C26.4468 27.0926 27.1162 26.4233 27.1162 25.5975C27.1162 24.7718 26.4468 24.1024 25.6211 24.1024C24.7954 24.1024 24.126 24.7718 24.126 25.5975C24.126 26.4233 24.7954 27.0926 25.6211 27.0926Z" fill="#41479B"/>
<path d="M25.7183 24.465L25.9593 25.1877L26.7209 25.1936C26.8195 25.1944 26.8604 25.3203 26.781 25.3789L26.1683 25.8313L26.3981 26.5575C26.4279 26.6515 26.3209 26.7293 26.2406 26.6719L25.6209 26.2291L25.0012 26.6719C24.9209 26.7293 24.8139 26.6514 24.8436 26.5575L25.0734 25.8313L24.4607 25.3789C24.3814 25.3203 24.4223 25.1944 24.5209 25.1936L25.2825 25.1877L25.5234 24.465C25.5547 24.3714 25.6871 24.3714 25.7183 24.465Z" fill="#FFE15A"/>
<path d="M28.449 25.6323C28.449 25.6323 28.5344 25.2372 28.114 25.7113C28.114 25.7113 28.1202 25.5764 28.1083 25.4651C28.2008 25.365 28.3154 25.1461 28.2885 24.6788C28.2885 24.6788 28.2225 24.28 28.0061 24.8754C28.0061 24.8754 27.947 24.6997 27.8843 24.6024C27.9364 24.4942 27.9767 24.2973 27.8516 23.924C27.8516 23.924 27.7054 23.6047 27.6599 24.1533C27.6599 24.1533 27.5399 23.9738 27.4619 23.9297C27.4769 23.8412 27.4651 23.6893 27.2886 23.4433C27.2886 23.4433 27.1124 23.246 27.2013 23.6509C27.2013 23.6509 27.0401 23.5203 26.9886 23.5356C26.9618 23.4583 26.8844 23.3275 26.6243 23.1555C26.6243 23.1555 26.399 23.0321 26.6575 23.3541C26.6575 23.3541 26.429 23.2635 26.4317 23.3154C26.4345 23.3674 26.5449 23.4632 26.6356 23.506C26.6356 23.506 26.3005 23.5407 26.4381 23.6154C26.4381 23.6154 26.778 23.7327 26.9822 23.6198C26.9986 23.6793 27.0319 23.746 27.0813 23.7939C27.0813 23.7939 26.6825 23.7165 26.7905 23.8362C26.7905 23.8362 27.0896 24.0561 27.3852 24.0224C27.3839 24.1038 27.4085 24.209 27.4517 24.2878C27.4517 24.2878 26.9761 24.0336 27.0663 24.2276C27.0663 24.2276 27.3507 24.608 27.729 24.6905C27.7135 24.7751 27.7137 24.8773 27.7343 24.962C27.7343 24.962 27.2829 24.5357 27.3242 24.7786C27.3242 24.7786 27.5129 25.2788 27.8953 25.4913C27.8641 25.5548 27.8386 25.6258 27.8293 25.6921C27.8293 25.6921 27.5664 25.1295 27.5155 25.3706C27.5155 25.3706 27.5068 25.9325 27.8068 26.2686C27.7429 26.3217 27.6803 26.396 27.642 26.4689C27.642 26.4689 27.5844 25.8509 27.4552 26.0605C27.4552 26.0605 27.2764 26.5289 27.3974 26.9325C27.3175 26.9561 27.2304 26.9998 27.1659 27.052C27.1659 27.052 27.3566 26.4611 27.1552 26.6029C27.1552 26.6029 26.7964 26.9911 26.7689 27.4278C26.6738 27.4259 26.545 27.4602 26.4516 27.5159C26.4516 27.5159 26.7246 26.9584 26.5049 27.0699C26.5049 27.0699 26.1135 27.3896 26.0124 27.8046C25.9198 27.8574 25.7626 27.9472 25.6054 28.0362C25.514 27.9832 25.4253 27.9316 25.3494 27.8873L25.3519 27.8832L24.4622 27.1373L24.4799 27.3812L24.0331 26.5822L23.9779 26.8541L23.8316 25.9708L23.7018 26.1012L23.752 25.2771L23.5829 25.3684L23.8901 24.7555L23.7458 24.7962L24.1254 24.4323L23.9247 24.4494L24.4046 24.2315L24.2292 24.2046L24.6976 23.9674L24.4958 23.9576L25.1031 23.7475L24.9919 23.6502L25.5176 23.4951L24.8877 23.4471L25.0671 23.2263L24.5865 23.4722L24.6555 23.1397L24.235 23.5727L24.3081 23.2695L23.9146 23.661L23.94 23.3655L23.5511 24.0243L23.5009 23.7295L23.1776 24.4691L23.0887 24.1469L22.9443 25.0642L22.8239 24.9276L22.9822 25.8124L22.7814 25.6618L23.1495 26.4565C23.1495 26.4565 22.8818 26.3394 22.8483 26.3394C22.8148 26.3394 23.4883 27.0234 23.4883 27.0234L23.1369 26.9858L23.8158 27.4632L23.5636 27.5255L24.1283 27.745L23.9902 27.8518L25.1594 27.9354C25.1594 27.9354 25.2721 28.0293 25.4254 28.138C25.3444 28.1837 25.2732 28.2234 25.2292 28.2476C25.1847 28.2718 25.1326 28.2742 25.0858 28.2547C24.9748 28.2081 24.8142 28.1425 24.7368 28.1115C24.7368 28.1115 24.7443 28.4438 25.0903 28.4521C25.2324 28.4554 25.4262 28.3649 25.6063 28.258C25.7908 28.373 25.9944 28.4745 26.1415 28.471C26.48 28.4627 26.4874 28.1304 26.4874 28.1304C26.4116 28.1614 26.2544 28.227 26.1459 28.2735C26.1001 28.2931 26.0491 28.2906 26.0056 28.2664C25.9577 28.2395 25.8788 28.1945 25.7884 28.1423C25.8807 28.0797 25.9582 28.0228 26.0126 27.981C26.0977 28.0478 26.3415 28.1654 26.8862 27.9609C26.8862 27.9609 27.2475 27.7795 26.6146 27.7497C26.6146 27.7497 26.7321 27.6635 26.8114 27.5816C26.9152 27.6351 27.1718 27.6983 27.6594 27.4306C27.6594 27.4306 27.9913 27.1994 27.3606 27.2602C27.3606 27.2602 27.4448 27.1781 27.511 27.0947C27.6198 27.1069 27.8885 27.0778 28.2447 26.6222C28.2447 26.6222 28.4586 26.2791 27.9029 26.5834C27.9029 26.5834 27.9748 26.4121 27.9917 26.2976C28.1149 26.2382 28.3021 26.0769 28.449 25.6323Z" fill="#64C86E"/>
</g>
<defs>
<clipPath id="clip0_9_2198">
<rect width="50" height="50" fill="white" transform="translate(0.621094 0.597412)"/>
</clipPath>
</defs>
</svg>
