<svg width="51" height="51" viewBox="0 0 51 51" fill="none" xmlns="http://www.w3.org/2000/svg">
    <g clip-path="url(#clip0_9_2177)">
        <path
            d="M0.66178 41.7684L25.3438 25.5975L0.66178 9.42657C0.471838 9.58468 0.343811 9.81378 0.343811 10.0802V41.1147C0.343811 41.3812 0.471838 41.6103 0.66178 41.7684Z"
            fill="#F5F5F5" />
        <path
            d="M0.661194 41.7684C0.810608 41.8928 0.995666 41.9768 1.20524 41.9768H49.4811C49.9572 41.9768 50.3432 41.5907 50.3432 41.1147V25.5975H25.3432L0.661194 41.7684Z"
            fill="#FF4B55" />
        <path
            d="M0.661194 9.4266C0.810608 9.30219 0.995666 9.2182 1.20524 9.2182H49.4811C49.9572 9.2182 50.3432 9.60424 50.3432 10.0803V25.5975H25.3432L0.661194 9.4266Z"
            fill="#41479B" />
        <path
            d="M9.3974 28.3992C10.9448 28.3992 12.1992 27.1448 12.1992 25.5974C12.1992 24.05 10.9448 22.7957 9.3974 22.7957C7.85003 22.7957 6.59564 24.05 6.59564 25.5974C6.59564 27.1448 7.85003 28.3992 9.3974 28.3992Z"
            fill="#FFE15A" />
        <path d="M9.39761 25.5974L8.34692 21.3949L9.39761 19.994L10.4482 21.3949L9.39761 25.5974Z"
            fill="#FFE15A" />
        <path d="M9.39761 25.5974L10.4482 29.7999L9.39761 31.2008L8.34692 29.7999L9.39761 25.5974Z"
            fill="#FFE15A" />
        <path d="M9.39734 25.5974L5.1947 26.6481L3.79382 25.5974L5.1947 24.5468L9.39734 25.5974Z"
            fill="#FFE15A" />
        <path d="M9.39752 25.5974L13.6001 24.5468L15.0009 25.5974L13.6001 26.6481L9.39752 25.5974Z"
            fill="#FFE15A" />
        <path d="M9.39752 25.5974L11.6262 21.8829L13.3597 21.6351L13.1121 23.3686L9.39752 25.5974Z"
            fill="#FFE15A" />
        <path d="M9.39773 25.5974L7.16892 29.312L5.43542 29.5597L5.68318 27.8262L9.39773 25.5974Z"
            fill="#FFE15A" />
        <path d="M9.39773 25.5974L5.68318 23.3686L5.43542 21.6351L7.16892 21.8829L9.39773 25.5974Z"
            fill="#FFE15A" />
        <path d="M9.39752 25.5974L13.1121 27.8262L13.3597 29.5597L11.6262 29.312L9.39752 25.5974Z"
            fill="#FFE15A" />
        <path
            d="M2.65579 13.4582L2.80189 14.548L1.8179 15.039C1.69056 15.1026 1.71732 15.2918 1.85745 15.3173L2.93909 15.5152L3.10198 16.6027C3.12308 16.7435 3.31126 16.7764 3.37894 16.651L3.9014 15.6835L4.98597 15.8645C5.1264 15.8881 5.21585 15.7191 5.11761 15.6162L4.35882 14.8203L4.86614 13.8447C4.93187 13.7184 4.79886 13.5811 4.67054 13.6427L3.67913 14.1185L2.90814 13.3344C2.80853 13.2331 2.63694 13.3172 2.65579 13.4582Z"
            fill="#FFE15A" />
        <path
            d="M3.09014 34.6703L2.90557 35.7544L1.82022 35.9307C1.67969 35.9535 1.64912 36.1421 1.7752 36.2081L2.74912 36.7186L2.58145 37.8053C2.55977 37.946 2.72959 38.0333 2.83145 37.9338L3.61787 37.1652L4.59971 37.6606C4.72686 37.7248 4.86241 37.5901 4.79932 37.4626L4.31143 36.4771L5.08584 35.6966C5.18604 35.5955 5.1001 35.425 4.95908 35.4456L3.871 35.6051L3.36787 34.6272C3.30274 34.5008 3.11387 34.5299 3.09014 34.6703Z"
            fill="#FFE15A" />
        <path
            d="M20.144 23.9915L19.5111 24.8907L18.4554 24.5831C18.3188 24.5432 18.21 24.7004 18.2954 24.8142L18.955 25.694L18.3362 26.603C18.2561 26.7207 18.3718 26.8726 18.5066 26.8266L19.5471 26.4712L20.2204 27.3406C20.3076 27.4532 20.4878 27.3899 20.4857 27.2476L20.4691 26.1482L21.504 25.7765C21.638 25.7284 21.6336 25.5374 21.4976 25.4955L20.4467 25.1714L20.4131 24.0723C20.409 23.9298 20.2259 23.875 20.144 23.9915Z"
            fill="#FFE15A" />
    </g>
    <defs>
        <clipPath id="clip0_9_2177">
            <rect width="50" height="50" fill="white" transform="translate(0.34375 0.597412)" />
        </clipPath>
    </defs>
</svg>
