<svg width="51" height="51" viewBox="0 0 51 51" fill="none" xmlns="http://www.w3.org/2000/svg">
<g clip-path="url(#clip0_9_2108)">
<path d="M49.7757 41.9767H1.49999C1.02391 41.9767 0.637878 41.5907 0.637878 41.1146V10.0803C0.637878 9.60423 1.02391 9.2182 1.49999 9.2182H49.7758C50.2518 9.2182 50.6379 9.60423 50.6379 10.0803V41.1146C50.6378 41.5908 50.2517 41.9767 49.7757 41.9767Z" fill="#41479B"/>
<path d="M24.7757 9.2182H23.2784L15.293 14.4499V9.2182H10.9827V14.4499L2.99735 9.2182H1.49999C1.02391 9.2182 0.637878 9.60423 0.637878 10.0803V10.7641L7.48894 15.2527H0.637878V19.563H7.48894L0.637878 24.0517V24.7354C0.637878 25.2114 1.02391 25.5975 1.49999 25.5975H2.99735L10.9827 20.3657V25.5975H15.293V20.3657L23.2783 25.5975H24.7756C25.2517 25.5975 25.6377 25.2114 25.6377 24.7354V24.0516L18.7868 19.563H25.6377V15.2527H18.7867L25.6377 10.7641V10.0803C25.6377 9.60423 25.2519 9.2182 24.7757 9.2182Z" fill="#F5F5F5"/>
<path d="M25.6386 16.1148H14.4318V9.21826H11.8456V16.1148H0.638794V18.701H11.8456V25.5975H14.4318V18.701H25.6386V16.1148Z" fill="#FF4B55"/>
<path d="M10.1215 15.2527L1.04963 9.36395C0.808227 9.51678 0.638794 9.77342 0.638794 10.0804V10.1251L8.5381 15.2527H10.1215Z" fill="#FF4B55"/>
<path d="M16.8772 15.2527L25.5074 9.65059C25.3574 9.39678 25.0928 9.21826 24.7765 9.21826H24.59L15.2938 15.2527H16.8772Z" fill="#FF4B55"/>
<path d="M9.37663 19.563L0.762878 25.1544C0.911413 25.4144 1.18016 25.5975 1.50106 25.5975H1.66366L10.96 19.563H9.37663Z" fill="#FF4B55"/>
<path d="M25.6252 24.8033L17.5524 19.5632H15.9691L25.1364 25.5137C25.4111 25.3863 25.5994 25.1192 25.6252 24.8033Z" fill="#FF4B55"/>
<path d="M38.4506 17.9182C38.4311 17.9182 38.4113 17.912 38.3944 17.8994C38.381 17.889 37.0431 16.8463 37.831 15.0791C37.8519 15.0323 37.9069 15.0116 37.954 15.0321C38.0009 15.0532 38.0219 15.108 38.0011 15.155C37.2742 16.7846 38.4563 17.7126 38.507 17.7513C38.5478 17.7824 38.5558 17.8407 38.5246 17.8815C38.5062 17.9055 38.4787 17.9182 38.4506 17.9182Z" fill="#73AF00"/>
<path d="M37.6798 16.3917C37.6761 16.3917 37.6726 16.3915 37.669 16.3911C37.6179 16.3851 37.5815 16.339 37.5873 16.288C37.626 15.9538 37.7517 15.7206 37.9612 15.595C38.298 15.3926 38.719 15.5543 38.7367 15.5614C38.7844 15.5802 38.8079 15.6339 38.7891 15.6816C38.7704 15.7295 38.7163 15.7532 38.6689 15.7345C38.6652 15.7331 38.3136 15.5995 38.056 15.7549C37.8994 15.8495 37.8038 16.036 37.7723 16.3095C37.7666 16.3568 37.7263 16.3917 37.6798 16.3917Z" fill="#73AF00"/>
<path d="M37.933 15.1931C37.925 15.1726 37.7239 14.6953 36.8151 14.8984C35.7859 15.129 35.774 16.4867 35.774 16.5003C35.774 16.547 35.8087 16.5866 35.8551 16.5926C35.8591 16.5931 35.8631 16.5933 35.867 16.5933C35.9088 16.5933 35.9462 16.5652 35.9568 16.5239C36.3404 15.0628 37.769 15.3082 37.8296 15.3188C37.864 15.325 37.897 15.3123 37.9182 15.2865C37.9398 15.2603 37.9456 15.2245 37.933 15.1931Z" fill="#73AF00"/>
<path d="M37.7186 15.9501C37.7186 15.9501 37.0987 15.5549 36.8429 16.0586C36.5872 16.5623 36.781 17.1047 36.8817 17.3215C36.8817 17.3215 37.2512 16.9131 37.6024 16.8566C38.0364 16.7869 38.1449 16.2444 37.8426 15.9732C37.4815 15.6493 37.7186 15.9501 37.7186 15.9501Z" fill="#73AF00"/>
<path d="M38.3958 15.0242C38.387 15.5666 38.6893 15.6377 38.6893 15.6377C38.8847 15.1398 38.3958 15.0242 38.3958 15.0242Z" fill="#73AF00"/>
<path d="M38.3013 16.1635C38.3054 15.6489 38.6545 15.5909 38.6545 15.5909C38.866 16.0694 38.3013 16.1635 38.3013 16.1635Z" fill="#73AF00"/>
<path d="M40.3144 15.7486C40.3144 15.7486 39.8208 15.6756 39.6314 15.5862C39.4739 15.5118 39.2683 15.3323 39.0021 15.3674C38.7987 15.3674 38.6338 15.5322 38.6338 15.7358C38.6338 15.9393 38.7735 16.1829 39.5046 16.1288C39.859 16.1026 40.1609 16.2645 40.1609 16.2645C40.1145 16.0708 40.3144 15.7486 40.3144 15.7486Z" fill="#FF4B55"/>
<path d="M39.8023 15.9101C39.8023 15.9101 39.0453 15.9625 38.8791 15.8401C38.7257 15.727 38.7657 15.5469 38.9228 15.5294C39.1592 15.5031 39.8023 15.9101 39.8023 15.9101Z" fill="#FFE15A"/>
<path d="M41.2751 16.7675L39.6013 17.8136L39.4095 17.6275L40.3277 16.7383L40.5426 16.8255L40.7519 16.5465L40.2521 16.285C40.2521 16.285 38.927 17.5344 37.7996 17.6391C37.4203 17.6743 37.0338 17.6495 36.7324 17.5254L36.0561 18.4992L37.4741 19.708L39.5546 19.6267L41.2748 17.2903L41.577 17.4298L41.8326 17.1276L41.2751 16.7675Z" fill="#B49B91"/>
<path d="M36.6109 19.5842C36.1453 19.5842 35.7664 19.2053 35.7664 18.7399C35.7664 18.2742 36.1453 17.8953 36.6109 17.8953C37.0765 17.8953 37.4552 18.2742 37.4552 18.7399C37.4554 19.2054 37.0765 19.5842 36.6109 19.5842ZM36.6109 18.1743C36.2991 18.1743 36.0454 18.428 36.0454 18.7399C36.0454 19.0517 36.2991 19.3053 36.6109 19.3053C36.9228 19.3053 37.1764 19.0518 37.1764 18.7399C37.1764 18.4279 36.9229 18.1743 36.6109 18.1743Z" fill="#9B8278"/>
<path d="M40.1296 20.3668C40.1296 20.3668 40.2845 20.2661 40.4395 19.7935L40.1218 19.84C40.1218 19.84 40.1838 19.5765 40.1141 19.3828L39.7577 19.6618C39.7577 19.6618 39.595 19.3208 39.5253 19.2744C39.5253 19.2744 39.2773 19.6231 39.1379 19.6695C39.1379 19.6695 38.9984 19.1658 38.8589 19.0651L38.6186 19.406L38.2622 19.127C38.2622 19.127 38.2622 19.3672 38.2545 19.4215C38.2467 19.4757 37.7895 18.9412 37.7895 18.9412C37.7895 18.9412 37.5881 19.0264 37.3169 19.4603L36.9759 19.1116L36.8365 19.5688L36.3638 19.4448L36.4413 19.716L36.0306 19.6849C36.0306 19.6849 36.1004 20.0878 36.3018 20.2274L40.1296 20.3668Z" fill="#73AF00"/>
<path d="M36.0228 22.0909C36.0228 22.0909 34.7443 23.7182 32.3267 23.5322L34.9535 23.8926L36.3017 22.6141L36.0228 22.0909Z" fill="#73AF00"/>
<path d="M31.8495 23.2882C32.1052 23.4742 33.6861 23.9275 34.825 23.3811C34.825 23.3811 34.8483 23.6485 34.7204 23.7996C34.7204 23.7996 35.5573 23.4625 36.0107 22.8348C36.464 22.2071 35.0692 24.1831 35.0692 24.1831L32.9305 24.5782L32.0587 23.8575L31.8495 23.2882Z" fill="#FFE15A"/>
<path d="M31.6817 17.4284C31.3977 17.4522 31.0906 17.6232 30.9334 17.8309C30.8479 17.7946 30.6578 17.7785 30.5002 17.8834C30.2905 18.0232 29.9028 18.5283 29.5774 18.3947C29.5774 18.3947 29.5483 18.8712 30.0539 18.8539C30.0539 18.8539 29.9259 19.0515 29.9493 19.3653C29.9725 19.6791 29.7459 19.8884 29.7459 19.8884C29.7459 19.8884 30.7687 20.0336 30.8094 19.2375C30.8144 19.1402 30.8194 19.0545 30.8241 18.978C31.3579 19.2663 31.5679 18.8594 31.5679 18.8594C31.5679 18.8594 31.2471 18.5563 31.5736 18.125C31.9 17.6935 32.7975 18.7105 32.7975 18.7105C32.8151 18.3036 32.7786 17.3362 31.6817 17.4284Z" fill="#FFE15A"/>
<path d="M35.6352 20.1111C35.6352 20.1111 35.3408 20.3125 34.4265 20.1266C34.4265 20.1266 34.6279 19.6772 34.5349 19.4137C34.5349 19.4137 34.287 19.6461 33.6826 19.8787C33.0782 20.1112 32.3344 20.855 32.1173 21.3354C32.1173 21.3354 33.4767 18.2018 32.3847 17.8833C32.0101 17.774 31.6879 17.9511 31.5739 18.1249C31.629 18.1899 31.6819 18.2826 31.6873 18.4063C31.6989 18.6737 31.4316 20.4752 31.0364 21.7189C31.0364 21.7189 30.9201 21.2888 30.7343 21.0795C30.5484 20.8703 30.4089 20.5332 30.4089 20.5332C30.4089 20.5332 30.0951 20.7425 30.1415 21.126C30.1415 21.126 29.9672 20.9866 29.6301 21.0795C29.293 21.1725 29.1651 20.9516 29.1651 20.9516C29.1651 20.9516 28.8861 21.6955 29.7114 22.079C29.7114 22.079 29.4906 22.1836 29.386 22.2651C29.2814 22.3464 29.1187 22.3464 29.1187 22.3464C29.1187 22.3464 29.4093 22.8811 30.0252 22.9392C30.6412 22.9973 30.9243 23.1729 31.1178 23.4893C31.7455 24.5161 32.9466 25.2948 34.907 24.0937C34.907 24.0937 32.1175 24.9616 31.9935 23.1793C31.885 21.6203 33.5896 21.3041 33.7601 21.6451C33.9307 21.986 33.7446 22.2805 33.7446 22.2805C33.7446 22.2805 34.6745 22.0636 34.225 21.2111C34.225 21.2115 35.1393 21.351 35.6352 20.1111Z" fill="#73AF00"/>
<path d="M44.589 23.2881C44.3334 23.4742 42.7178 24.1715 41.6018 23.0557C40.486 21.9399 40.0509 20.2646 40.114 20.4521H38.9982L39.3702 23.7997L43.5081 24.5785L44.3799 23.8578L44.589 23.2881Z" fill="#73AF00"/>
<path d="M44.7571 17.4284C45.0411 17.4522 45.3482 17.6232 45.5053 17.8309C45.5909 17.7946 45.781 17.7785 45.9385 17.8834C46.1483 18.0232 46.5359 18.5283 46.8614 18.3947C46.8614 18.3947 46.8905 18.8712 46.3849 18.8539C46.3849 18.8539 46.5128 19.0515 46.4895 19.3653C46.4663 19.6791 46.6929 19.8884 46.6929 19.8884C46.6929 19.8884 45.6701 20.0336 45.6293 19.2375C45.6244 19.1402 45.6194 19.0545 45.6147 18.978C45.0809 19.2663 44.8708 18.8594 44.8708 18.8594C44.8708 18.8594 45.1916 18.5563 44.8651 18.125C44.5386 17.6935 43.6412 18.7105 43.6412 18.7105C43.6237 18.3036 43.6602 17.3362 44.7571 17.4284Z" fill="#73AF00"/>
<path d="M40.8029 20.1111C40.8029 20.1111 41.0973 20.3125 42.0116 20.1266C42.0116 20.1266 41.8102 19.6772 41.9031 19.4137C41.9031 19.4137 42.1511 19.6461 42.7555 19.8787C43.3599 20.1112 44.1037 20.855 44.3208 21.3354C44.3208 21.3354 42.9614 18.2018 44.0534 17.8833C44.428 17.774 44.7502 17.9511 44.8642 18.1249C44.8091 18.1899 44.7562 18.2826 44.7508 18.4063C44.7392 18.6737 45.0065 20.4752 45.4017 21.7189C45.4017 21.7189 45.518 21.2888 45.7038 21.0795C45.8897 20.8703 46.0292 20.5332 46.0292 20.5332C46.0292 20.5332 46.343 20.7425 46.2966 21.126C46.2966 21.126 46.4709 20.9866 46.808 21.0795C47.1451 21.1725 47.273 20.9516 47.273 20.9516C47.273 20.9516 47.552 21.6955 46.7267 22.079C46.7267 22.079 46.9475 22.1836 47.0521 22.2651C47.1567 22.3464 47.3194 22.3464 47.3194 22.3464C47.3194 22.3464 47.0288 22.8811 46.4129 22.9392C45.7969 22.9973 45.5138 23.1729 45.3203 23.4893C44.6926 24.5161 43.4915 25.2948 41.5311 24.0937C41.5311 24.0937 44.3206 24.9616 44.4446 23.1793C44.5531 21.6203 42.8485 21.3041 42.6779 21.6451C42.5074 21.986 42.6935 22.2805 42.6935 22.2805C42.6935 22.2805 41.7636 22.0636 42.2131 21.2111C42.2132 21.2115 41.2988 21.351 40.8029 20.1111Z" fill="#FFE15A"/>
<path d="M40.0122 22.7148C40.4694 23.3812 41.1048 23.9856 42.949 24.559C44.7932 25.1323 45.2862 25.2176 46.2526 25.9993C46.2526 25.9993 46.4362 26.1932 46.5065 26.5039C46.589 26.8689 46.0262 27.9219 46.0262 27.9219C46.0262 27.9219 46.0803 27.6739 45.7394 27.1935C45.3985 26.7132 43.3838 25.8453 42.33 25.5818C41.2761 25.3184 39.4551 24.096 39.9589 23.1797L40.0122 22.7148Z" fill="#73AF00"/>
<path d="M46.2516 25.9966C46.2524 25.9976 46.2527 25.9987 46.2536 25.9997C46.2523 25.9983 46.2513 25.997 46.25 25.9956L46.2516 25.9966Z" fill="#73AF00"/>
<path d="M46.203 28.263C46.203 28.263 46.2494 28.6001 45.9705 28.8907C45.6915 29.1813 45.4941 29.3905 45.5056 29.6346C45.5056 29.6346 45.0871 29.3324 45.1569 28.6582C45.1569 28.6582 44.6106 29.1115 43.7853 28.6698C43.7853 28.6698 43.8666 27.8446 44.9361 27.7399C44.9361 27.7399 44.5176 27.4145 45.064 26.9147C45.064 26.9147 45.1275 27.1383 45.6219 27.2519C46.052 27.3507 46.8171 26.8113 46.2513 25.9995C47.2258 27.1006 46.726 27.856 46.203 28.263Z" fill="#FFE15A"/>
<path d="M39.6119 22.1025C39.6119 22.1025 39.8475 22.4878 40.4604 22.8619C41.1965 23.3113 41.2625 23.5205 41.2625 23.5205L40.7627 23.5089C40.7627 23.5089 41.402 23.8576 41.5763 24.2993C41.5763 24.2993 41.3089 24.3458 41.0068 24.2644C41.0068 24.2644 41.2508 24.4852 41.1347 25.1942H39.891L39.6119 22.1025Z" fill="#FFE15A"/>
<path d="M37.1376 25.2874V22.3119C37.1376 22.3119 36.1276 24.0397 35.2552 25.2874H37.1376Z" fill="#73AF00"/>
<path d="M36.2685 22.2498C36.0205 22.6992 35.2456 24.1793 33.4014 24.7527C31.5572 25.326 31.2201 25.2176 30.2536 25.9993C30.2536 25.9993 30.07 26.1931 29.9997 26.5039C29.9171 26.8689 30.48 27.9218 30.48 27.9218C30.48 27.9218 30.4258 27.6739 30.7667 27.1935C31.1077 26.7132 33.111 25.7947 34.1762 25.5818C35.6494 25.2873 36.9822 23.7066 36.7652 22.6838C36.5484 21.6609 36.2685 22.2498 36.2685 22.2498Z" fill="#FFE15A"/>
<path d="M30.2566 25.9964C30.2557 25.9975 30.2554 25.9985 30.2546 25.9996C30.2558 25.9982 30.2569 25.9968 30.2581 25.9955L30.2566 25.9964Z" fill="#73AF00"/>
<path d="M30.3028 28.2633C30.3028 28.2633 30.2564 28.6004 30.5353 28.891C30.8143 29.1816 31.0117 29.3908 31.0002 29.6349C31.0002 29.6349 31.4187 29.3327 31.3489 28.6585C31.3489 28.6585 31.8952 29.1118 32.7205 28.6701C32.7205 28.6701 32.6392 27.8449 31.5697 27.7402C31.5697 27.7402 31.9882 27.4149 31.4419 26.915C31.4419 26.915 31.3784 27.1386 30.884 27.2522C30.4539 27.351 29.6888 26.8116 30.2546 25.9998C29.28 27.1009 29.7798 27.8564 30.3028 28.2633Z" fill="#73AF00"/>
<path d="M32.8759 33.2222C32.8759 33.2222 33.1394 34.4078 33.1549 35.6321C33.1549 35.6321 34.3095 35.6709 34.8674 34.803C34.8674 34.803 33.7516 34.2218 33.1549 33.0982L32.8759 33.2222Z" fill="#FFE15A"/>
<path d="M32.6278 30.6031C32.5813 30.0452 32.8293 28.6349 33.9605 27.6121L33.9883 26.3596C33.9883 26.3596 33.6513 26.3946 33.3524 26.6562L32.7131 27.647L32.1203 29.8903L32.6278 30.6031Z" fill="#73AF00"/>
<path d="M32.6585 31.006C32.6585 31.006 32.6585 32.1994 33.1544 33.0982L32.8754 33.2221C32.8754 33.2221 31.8758 32.4356 31.6666 30.82C31.6666 30.82 30.7716 31.4128 30.4423 30.2001C30.4423 30.2001 31.4031 30.5876 31.7131 29.7042C31.9926 28.9071 32.2754 27.4561 33.352 26.6561C32.8402 27.4427 32.0695 29.4562 32.6662 30.1691C32.8242 30.3579 33.2784 30.5178 33.7755 30.3055C33.7431 30.7021 33.554 31.3081 32.6585 31.006Z" fill="#FFE15A"/>
<path d="M32.8033 33.4339L32.6401 33.1339C32.6115 33.0814 32.6309 33.0157 32.6834 32.9871L32.9814 32.8252C33.0338 32.7967 33.0994 32.816 33.128 32.8685L33.2913 33.1685C33.3198 33.221 33.3005 33.2867 33.248 33.3153L32.95 33.4772C32.8976 33.5057 32.8319 33.4864 32.8033 33.4339Z" fill="#FFCE5A"/>
<path d="M42.8865 33.2222C42.8865 33.2222 42.623 34.4077 42.6075 35.632C42.6075 35.632 41.4529 35.6708 40.895 34.8029C40.895 34.8029 42.0108 34.2218 42.6075 33.0981L42.8865 33.2222Z" fill="#FFE15A"/>
<path d="M43.1346 30.603C43.181 30.0451 42.9331 28.6349 41.8018 27.612L41.7741 26.3595C41.7741 26.3595 42.1111 26.3946 42.4099 26.6562L43.0493 27.6469L43.6421 29.8903L43.1346 30.603Z" fill="#FFE15A"/>
<path d="M41.9873 30.3056C42.4844 30.5179 42.9386 30.3579 43.0966 30.1692C43.6933 29.4563 42.9226 27.4428 42.4107 26.6562C43.4875 27.4562 43.77 28.9072 44.0497 29.7042C44.3597 30.5876 45.3205 30.2001 45.3205 30.2001C44.9912 31.4128 44.0962 30.82 44.0962 30.82C43.8869 32.4357 42.8874 33.2222 42.8874 33.2222L42.6084 33.0983C43.1043 32.1993 43.1043 31.006 43.1043 31.006C42.2088 31.308 42.0197 30.7021 41.9873 30.3056Z" fill="#73AF00"/>
<path d="M42.9595 33.4339L43.1227 33.1339C43.1513 33.0814 43.1319 33.0157 43.0794 32.9871L42.7814 32.8252C42.729 32.7967 42.6634 32.816 42.6348 32.8685L42.4715 33.1685C42.443 33.221 42.4623 33.2867 42.5148 33.3153L42.8128 33.4772C42.8653 33.5057 42.9309 33.4864 42.9595 33.4339Z" fill="#FFCE5A"/>
<path d="M34.1623 24.9154C33.9569 24.9154 33.7903 25.0819 33.7903 25.2874V29.3788C33.7903 30.4946 34.1623 34.586 37.8817 36.0738C41.6012 34.586 41.9731 30.4946 41.9731 29.3788V25.2874C41.9731 25.082 41.8066 24.9154 41.6011 24.9154H34.1623Z" fill="#4173CD"/>
<path d="M37.6561 24.9154L34.1287 31.6762C34.2169 31.9889 34.327 32.3126 34.4652 32.6395L37.8816 26.0914L41.298 32.6395C41.4362 32.3125 41.5462 31.9888 41.6345 31.6762L38.1071 24.9154H37.6561Z" fill="#FFE15A"/>
<path d="M41.2978 32.6396L37.8814 26.0915L34.465 32.6396C35.0277 33.9716 36.0458 35.3397 37.8814 36.0739C39.7169 35.3396 40.7352 33.9715 41.2978 32.6396Z" fill="#73AF00"/>
<path d="M39.2643 33.0633L39.4893 33.1712C39.3949 33.3107 39.1986 33.5363 38.823 33.7407C38.5393 33.8951 38.2651 34.0778 38.067 34.2177V31.1481L38.9969 31.0525V30.6805L38.067 30.5849V30.1226C38.067 30.0199 37.9837 29.9366 37.881 29.9366C37.7934 29.9366 37.7234 29.9984 37.7036 30.08C37.6418 30.0357 37.5701 30.0042 37.4886 30.0042C37.2805 30.0042 37.1111 30.1736 37.1111 30.3817C37.1111 30.4796 37.1508 30.5672 37.2123 30.6345L36.7653 30.6805V31.0525L37.6951 31.1481V34.2177C37.4972 34.0778 37.223 33.895 36.9392 33.7407C36.5635 33.5364 36.3672 33.3107 36.2729 33.1712L36.4979 33.0633L35.6494 31.9824V33.4702L35.9354 33.333C36.0486 33.5153 36.2877 33.8096 36.7616 34.0672C37.1579 34.283 37.5426 34.5632 37.695 34.678L37.8811 34.8221L38.0671 34.678C38.2196 34.5632 38.6043 34.283 39.0006 34.0672C39.4744 33.8096 39.7136 33.5153 39.8268 33.333L40.1128 33.4702V31.9824L39.2643 33.0633ZM37.4886 30.5735C37.3829 30.5735 37.297 30.4877 37.297 30.3819C37.297 30.2762 37.3828 30.1903 37.4886 30.1903C37.5943 30.1903 37.6802 30.2761 37.6802 30.3819C37.6802 30.4877 37.5944 30.5735 37.4886 30.5735Z" fill="#FFE15A"/>
<path d="M38.1687 29.7508H37.594C37.4446 29.7508 37.3234 29.6297 37.3234 29.4802V28.5335C37.3234 28.3841 37.4445 28.2629 37.594 28.2629H38.1687C38.3181 28.2629 38.4393 28.384 38.4393 28.5335V29.4802C38.4393 29.6297 38.3182 29.7508 38.1687 29.7508Z" fill="#F5F5F5"/>
<path d="M40.4849 24.9154C39.7411 23.7996 39.7411 21.5679 39.7411 21.5679C39.7411 21.5679 39.7411 20.0801 37.8814 20.0801C36.9393 20.0801 36.4754 20.4619 36.2461 20.8386C35.3535 21.1972 34.9058 21.9397 34.9058 21.9397C35.2863 22.1301 35.6225 22.2207 35.9276 22.2439C36.5339 22.9655 36.7357 23.6623 36.7893 24.1635C36.4401 24.5201 36.2464 25.3803 36.7656 26.0311C36.7656 26.0311 37.8659 25.7755 38.7948 24.9153H40.4848V24.9154H40.4849Z" fill="#B49B91"/>
<path d="M38.795 24.9155H40.1832C40.1134 24.2298 39.4392 24.3402 38.795 24.9155Z" fill="#9B8278"/>
<path d="M40.1484 24.2133C39.7418 23.0592 39.7412 21.568 39.7412 21.568C39.7412 21.568 39.7411 21.5438 39.7373 21.5021C39.2531 21.4364 38.7574 21.472 37.7885 21.847C36.757 22.2462 36.252 22.2577 35.9277 22.2442C36.534 22.9658 36.7358 23.6625 36.7894 24.1637L36.8043 24.9543C36.8043 24.9543 37.3855 25.0396 38.664 24.3034C39.3019 23.9362 39.8425 23.9047 40.1484 24.2133Z" fill="#9B8278"/>
<path d="M38.1684 21.4052C38.9228 21.2167 39.4041 21.2361 39.7143 21.3462C39.6312 20.9318 39.2896 20.0801 37.8818 20.0801C36.9397 20.0801 36.4757 20.462 36.2464 20.8386L35.6811 21.6299C35.6811 21.6299 36.3881 21.8503 38.1684 21.4052Z" fill="#9B8278"/>
<path d="M36.6521 19.9175C36.7254 19.9905 36.9439 20.5175 36.8989 20.5958C36.8699 20.6461 36.2879 20.7908 36.1935 20.717C36.1093 20.6511 36.0109 20.0836 36.0673 20.018C36.1183 19.9589 36.591 19.8565 36.6521 19.9175Z" fill="#FFE15A"/>
<path d="M37.4006 19.8893C37.4682 19.9668 37.6213 20.4819 37.5606 20.5476C37.5217 20.5899 36.8729 20.6411 36.7828 20.56C36.7025 20.4878 36.6848 19.9519 36.7557 19.8998C36.8197 19.8524 37.3442 19.8247 37.4006 19.8893Z" fill="#73AF00"/>
<path d="M38.109 19.8698C38.179 19.9428 38.3388 20.4272 38.2761 20.4887C38.2358 20.5282 37.5648 20.5748 37.4713 20.4984C37.388 20.4302 37.3684 19.9269 37.4415 19.8779C37.508 19.8337 38.0506 19.809 38.109 19.8698Z" fill="#FFE15A"/>
<path d="M38.8301 19.9035C38.8921 19.9831 39.0089 20.4913 38.9439 20.5503C38.9021 20.5881 38.2515 20.5899 38.1674 20.5049C38.0924 20.4291 38.112 19.9111 38.1863 19.866C38.2534 19.8252 38.7784 19.837 38.8301 19.9035Z" fill="#73AF00"/>
<path d="M40.3157 20.2116C40.3637 20.3003 40.3591 20.7724 40.2851 20.8198C40.2376 20.8501 39.6518 20.7457 39.5829 20.6481C39.5214 20.561 39.6263 20.0534 39.707 20.021C39.7799 19.9918 40.2757 20.1373 40.3157 20.2116Z" fill="#73AF00"/>
<path d="M39.6315 20.0101C39.6902 20.091 39.7349 20.5649 39.6641 20.615C39.6186 20.6472 38.9483 20.5922 38.8671 20.5046C38.7945 20.4263 38.8475 19.9379 38.9269 19.9015C38.999 19.8685 39.5825 19.9427 39.6315 20.0101Z" fill="#FFE15A"/>
<path d="M36.6102 18.993C36.7499 18.993 36.8632 18.8797 36.8632 18.7401C36.8632 18.6004 36.7499 18.4871 36.6102 18.4871C36.4705 18.4871 36.3573 18.6004 36.3573 18.7401C36.3573 18.8797 36.4705 18.993 36.6102 18.993Z" fill="#9B8278"/>
</g>
<defs>
<clipPath id="clip0_9_2108">
<rect width="50" height="50" fill="white" transform="translate(0.636719 0.597412)"/>
</clipPath>
</defs>
</svg>
