<svg width="51" height="51" viewBox="0 0 51 51" fill="none" xmlns="http://www.w3.org/2000/svg">
    <g clip-path="url(#clip0_9_2085)">
        <path
            d="M49.4985 41.9768H1.22283C0.746752 41.9768 0.360718 41.5908 0.360718 41.1147V10.0803C0.360718 9.60423 0.746752 9.2182 1.22283 9.2182H49.4986C49.9747 9.2182 50.3607 9.60423 50.3607 10.0803V41.1147C50.3606 41.5909 49.9746 41.9768 49.4985 41.9768Z"
            fill="#FF4B55" />
        <path
            d="M18.4641 9.21826H1.22283C0.746752 9.21826 0.360718 9.6042 0.360718 10.0803V41.1147C0.360718 41.5908 0.746752 41.9768 1.22283 41.9768H18.4642V9.21826H18.4641Z"
            fill="#73AF00" />
        <path
            d="M18.4712 33.3495C22.7525 33.3495 26.2231 29.8788 26.2231 25.5975C26.2231 21.3162 22.7525 17.8456 18.4712 17.8456C14.1899 17.8456 10.7192 21.3162 10.7192 25.5975C10.7192 29.8788 14.1899 33.3495 18.4712 33.3495Z"
            fill="#FFE15A" />
        <path
            d="M21.0571 23.0113V26.4595C21.0571 27.8856 19.897 29.0457 18.4709 29.0457C17.0448 29.0457 15.8847 27.8856 15.8847 26.4595V23.0113H21.0571ZM21.9191 21.2872H15.0226C14.5465 21.2872 14.1605 21.6732 14.1605 22.1493V26.4596C14.1605 28.8401 16.0903 30.77 18.4708 30.77C20.8513 30.77 22.7811 28.8401 22.7811 26.4596V22.1493C22.7812 21.6732 22.3952 21.2872 21.9191 21.2872Z"
            fill="#FF4B55" />
        <path
            d="M21.0573 23.0113V26.4595C21.0573 27.8856 19.8971 29.0458 18.4711 29.0458C17.045 29.0458 15.8848 27.8856 15.8848 26.4595V23.0113H21.0573Z"
            fill="#F5F5F5" />
        <path
            d="M15.0142 22.5803C15.2523 22.5803 15.4453 22.3873 15.4453 22.1493C15.4453 21.9112 15.2523 21.7182 15.0142 21.7182C14.7762 21.7182 14.5832 21.9112 14.5832 22.1493C14.5832 22.3873 14.7762 22.5803 15.0142 22.5803Z"
            fill="#FFE15A" />
        <path
            d="M21.9105 22.5803C22.1485 22.5803 22.3415 22.3873 22.3415 22.1493C22.3415 21.9112 22.1485 21.7182 21.9105 21.7182C21.6724 21.7182 21.4794 21.9112 21.4794 22.1493C21.4794 22.3873 21.6724 22.5803 21.9105 22.5803Z"
            fill="#FFE15A" />
        <path
            d="M15.0142 26.0286C15.2523 26.0286 15.4453 25.8356 15.4453 25.5975C15.4453 25.3594 15.2523 25.1664 15.0142 25.1664C14.7762 25.1664 14.5832 25.3594 14.5832 25.5975C14.5832 25.8356 14.7762 26.0286 15.0142 26.0286Z"
            fill="#FFE15A" />
        <path
            d="M21.9105 26.0286C22.1485 26.0286 22.3415 25.8356 22.3415 25.5975C22.3415 25.3594 22.1485 25.1664 21.9105 25.1664C21.6724 25.1664 21.4794 25.3594 21.4794 25.5975C21.4794 25.8356 21.6724 26.0286 21.9105 26.0286Z"
            fill="#FFE15A" />
        <path
            d="M18.4625 22.5803C18.7006 22.5803 18.8936 22.3873 18.8936 22.1493C18.8936 21.9112 18.7006 21.7182 18.4625 21.7182C18.2245 21.7182 18.0315 21.9112 18.0315 22.1493C18.0315 22.3873 18.2245 22.5803 18.4625 22.5803Z"
            fill="#FFE15A" />
        <path
            d="M21.0504 29.2073C21.2884 29.2073 21.4814 29.0143 21.4814 28.7762C21.4814 28.5381 21.2884 28.3452 21.0504 28.3452C20.8123 28.3452 20.6193 28.5381 20.6193 28.7762C20.6193 29.0143 20.8123 29.2073 21.0504 29.2073Z"
            fill="#FFE15A" />
        <path
            d="M15.9254 29.2073C16.1635 29.2073 16.3565 29.0143 16.3565 28.7762C16.3565 28.5381 16.1635 28.3452 15.9254 28.3452C15.6874 28.3452 15.4944 28.5381 15.4944 28.7762C15.4944 29.0143 15.6874 29.2073 15.9254 29.2073Z"
            fill="#FFE15A" />
        <path
            d="M19.0266 25.3788V26.1212C19.0266 26.4283 18.7768 26.6781 18.4697 26.6781C18.1627 26.6781 17.9129 26.4283 17.9129 26.1212V25.3788H19.0266Z"
            fill="#41479B" />
        <path
            d="M19.0266 23.6189V24.3613C19.0266 24.6683 18.7768 24.9181 18.4697 24.9181C18.1627 24.9181 17.9129 24.6683 17.9129 24.3613V23.6189H19.0266Z"
            fill="#41479B" />
        <path
            d="M19.0266 27.1569V27.8992C19.0266 28.2063 18.7768 28.4561 18.4697 28.4561C18.1627 28.4561 17.9129 28.2063 17.9129 27.8992V27.1569H19.0266Z"
            fill="#41479B" />
        <path
            d="M20.5264 25.3788V26.1212C20.5264 26.4283 20.2766 26.6781 19.9696 26.6781C19.6626 26.6781 19.4128 26.4283 19.4128 26.1212V25.3788H20.5264Z"
            fill="#41479B" />
        <path
            d="M17.5269 25.3788V26.1212C17.5269 26.4283 17.2771 26.6781 16.9701 26.6781C16.6631 26.6781 16.4133 26.4283 16.4133 26.1212V25.3788H17.5269Z"
            fill="#41479B" />
    </g>
    <defs>
        <clipPath id="clip0_9_2085">
            <rect width="50" height="50" fill="white" transform="translate(0.359375 0.597412)" />
        </clipPath>
    </defs>
</svg>
