<svg width="51" height="51" viewBox="0 0 51 51" fill="none" xmlns="http://www.w3.org/2000/svg">
<g clip-path="url(#clip0_9_2076)">
<path d="M50.7895 15.77H0.789551V10.0803C0.789551 9.60423 1.17559 9.2182 1.65166 9.2182H49.9274C50.4035 9.2182 50.7896 9.60423 50.7896 10.0803L50.7895 15.77Z" fill="#FF4B55"/>
<path d="M50.7895 15.7704H0.789551V22.3221H50.7895V15.7704Z" fill="#F5F5F5"/>
<path d="M50.7895 22.3221H0.789551V28.8739H50.7895V22.3221Z" fill="#FF4B55"/>
<path d="M49.9278 41.9767H1.65215C1.17607 41.9767 0.790039 41.5906 0.790039 41.1146V35.4249H50.7899V41.1146C50.7899 41.5907 50.4039 41.9767 49.9278 41.9767Z" fill="#FF4B55"/>
<path d="M50.7895 28.8739H0.789551V35.4256H50.7895V28.8739Z" fill="#F5F5F5"/>
<path d="M1.10752 41.7684L24.9689 26.135C25.3562 25.8812 25.3562 25.3135 24.9689 25.0599L1.10752 9.42664C0.917578 9.58474 0.789551 9.81384 0.789551 10.0802V41.1147C0.789551 41.3812 0.917578 41.6103 1.10752 41.7684Z" fill="#41479B"/>
<path d="M9.59627 21.5962L10.496 24.2937L13.3395 24.3158C13.7076 24.3186 13.8603 24.7884 13.5642 25.0072L11.2767 26.6964L12.1344 29.4077C12.2456 29.7586 11.8459 30.0491 11.5463 29.8349L9.23279 28.1814L6.91932 29.8349C6.61991 30.0491 6.2202 29.7586 6.33114 29.4077L7.18885 26.6964L4.90136 25.0072C4.60527 24.7884 4.7578 24.3187 5.12607 24.3158L7.96961 24.2937L8.86932 21.5962C8.98582 21.2468 9.47977 21.2468 9.59627 21.5962Z" fill="#F5F5F5"/>
</g>
<defs>
<clipPath id="clip0_9_2076">
<rect width="50" height="50" fill="white" transform="translate(0.789062 0.597412)"/>
</clipPath>
</defs>
</svg>
