<svg width="51" height="51" viewBox="0 0 51 51" fill="none" xmlns="http://www.w3.org/2000/svg">
<g clip-path="url(#clip0_9_2073)">
<path d="M23.3593 41.9768H0.945604C0.469531 41.9768 0.0834961 41.5908 0.0834961 41.1147V10.0803C0.0834961 9.60423 0.469531 9.2182 0.945604 9.2182H23.3593V41.9768Z" fill="#F5F5F5"/>
<path d="M49.2214 9.21826H16.4285C16.4512 9.21826 16.4739 9.22158 16.4958 9.22842L21.7092 10.8214C21.9263 10.8877 21.9262 11.1952 21.709 11.2613L17.1841 12.6391C16.9668 12.7053 16.9667 13.0127 17.1839 13.079L21.7093 14.462C21.9264 14.5283 21.9263 14.8358 21.7091 14.9018L17.1841 16.2797C16.9668 16.3459 16.9667 16.6533 17.1839 16.7196L21.7093 18.1026C21.9264 18.1689 21.9263 18.4764 21.7091 18.5425L17.1855 19.9197C16.9681 19.986 16.9681 20.2936 17.1855 20.3597L21.7091 21.737C21.9264 21.8032 21.9265 22.1106 21.7093 22.1769L17.1839 23.5599C16.9668 23.6263 16.9669 23.9339 17.1841 23.9999L21.7091 25.3776C21.9264 25.4436 21.9265 25.7512 21.7093 25.8175L17.1839 27.2006C16.9668 27.267 16.9669 27.5744 17.1841 27.6405L21.7091 29.0182C21.9264 29.0842 21.9265 29.3919 21.7093 29.4581L17.1839 30.8411C16.9668 30.9075 16.9669 31.215 17.1841 31.281L21.709 32.6588C21.9263 32.7249 21.9264 33.0325 21.7092 33.0987L17.1839 34.4816C16.9668 34.548 16.9669 34.8554 17.1841 34.9215L21.7078 36.299C21.9251 36.365 21.9251 36.6728 21.7078 36.7388L17.1841 38.1163C16.9668 38.1823 16.9667 38.4899 17.1839 38.5561L21.7093 39.9391C21.9264 40.0054 21.9263 40.3129 21.7091 40.3789L16.4957 41.9663C16.474 41.973 16.4513 41.9764 16.4287 41.9764H49.2215C49.6975 41.9764 50.0836 41.5904 50.0836 41.1143V10.0803C50.0835 9.6042 49.6974 9.21826 49.2214 9.21826Z" fill="#873250"/>
</g>
<defs>
<clipPath id="clip0_9_2073">
<rect width="50" height="50" fill="white" transform="translate(0.0820312 0.597412)"/>
</clipPath>
</defs>
</svg>
