<svg width="51" height="51" viewBox="0 0 51 51" fill="none" xmlns="http://www.w3.org/2000/svg">
    <g clip-path="url(#clip0_9_2070)">
        <path
            d="M49.6501 41.9767H1.37444C0.898364 41.9767 0.512329 41.5907 0.512329 41.1146V10.0803C0.512329 9.60423 0.898364 9.2182 1.37444 9.2182H49.6502C50.1263 9.2182 50.5123 9.60423 50.5123 10.0803V41.1146C50.5122 41.5908 50.1262 41.9767 49.6501 41.9767Z"
            fill="#F5F5F5" />
        <path
            d="M47.6383 14.409C47.4712 14.35 47.2852 14.4368 47.2258 14.6059C47.0124 15.2083 46.7813 15.7482 46.5418 16.2583C45.9326 16.8611 45.1739 17.3107 44.4416 17.4438C43.2562 17.6593 42.6815 18.2341 42.6815 18.2341C40.5982 17.6234 40.2031 18.7728 39.736 19.2758C39.4745 19.5573 39.1354 19.655 38.8298 19.6582C37.7141 19.0497 36.9626 18.3079 36.9486 18.294C36.8232 18.1669 36.6177 18.166 36.4915 18.2916C36.3643 18.417 36.3634 18.6217 36.489 18.7487C36.5837 18.8445 38.4007 20.6456 40.732 21.02C40.0552 21.2192 39.5566 21.359 39.5566 21.359C39.5566 21.359 38.8023 21.359 36.5394 23.1909C34.2765 25.0228 32.696 25.2024 31.6903 25.1666C30.6845 25.1307 29.9302 24.7714 28.8526 25.5976C27.7751 26.4238 26.3742 26.2801 25.5121 26.2801C24.65 26.2801 23.2492 26.4238 22.1716 25.5976C21.0939 24.7714 20.3396 25.1307 19.3339 25.1666C18.3282 25.2024 16.7477 25.0229 14.4848 23.1909C12.2219 21.3589 11.4676 21.359 11.4676 21.359C11.4676 21.359 10.9689 21.2192 10.2922 21.02C12.6234 20.6456 14.4404 18.8445 14.5352 18.7487C14.6606 18.6216 14.6598 18.4171 14.5327 18.2916C14.4065 18.1662 14.2011 18.167 14.0756 18.294C14.0616 18.3077 13.3101 19.0495 12.1944 19.6582C11.8888 19.655 11.5497 19.5573 11.2882 19.2758C10.8212 18.7728 10.4261 17.6234 8.3427 18.2341C8.3427 18.2341 7.76799 17.6593 6.58264 17.4438C5.85042 17.3107 5.09163 16.8611 4.48236 16.2583C4.243 15.7481 4.01185 15.2083 3.79837 14.6059C3.739 14.4368 3.55296 14.35 3.38587 14.409C3.21742 14.4687 3.12904 14.6531 3.1889 14.8215C3.19535 14.8396 3.20277 14.8552 3.20931 14.8734C3.24076 15.0387 3.89661 18.347 6.29524 20.6408C7.98459 22.2561 9.62297 24.721 10.3183 26.1005C12.5812 30.5905 16.8915 36.6249 25.5122 36.6249C34.1329 36.6249 38.4431 30.5905 40.7061 26.1005C41.4015 24.721 43.0398 22.256 44.7292 20.6408C47.1278 18.3471 47.7835 15.0387 47.8151 14.8734C47.8215 14.8553 47.829 14.8397 47.8355 14.8215C47.8951 14.6532 47.8067 14.4688 47.6383 14.409Z"
            fill="#FF4B55" />
    </g>
    <defs>
        <clipPath id="clip0_9_2070">
            <rect width="50" height="50" fill="white" transform="translate(0.511719 0.597412)" />
        </clipPath>
    </defs>
</svg>
