<svg width="51" height="51" viewBox="0 0 51 51" fill="none" xmlns="http://www.w3.org/2000/svg">
    <g clip-path="url(#clip0_9_2054)">
        <path
            d="M49.7586 8.64606H35.9656L0.884705 41.1599C1.03988 41.3102 1.24965 41.4047 1.48275 41.4047H15.2758L50.3568 8.89078C50.2016 8.74039 49.9917 8.64606 49.7586 8.64606Z"
            fill="#FFE15A" />
        <path
            d="M35.9658 8.64606H1.48308C1.00701 8.64606 0.620972 9.03199 0.620972 9.50807V40.5425C0.620972 40.7855 0.723218 41.0032 0.884937 41.1599L35.9658 8.64606Z"
            fill="#73AF00" />
        <path
            d="M50.3568 8.89075L15.2759 41.4046H49.7587C50.2347 41.4046 50.6208 41.0186 50.6208 40.5425V9.50803C50.6208 9.26497 50.5185 9.04739 50.3568 8.89075Z"
            fill="#FF4B55" />
    </g>
    <defs>
        <clipPath id="clip0_9_2054">
            <rect width="50" height="50" fill="white" transform="translate(0.621094 0.0253906)" />
        </clipPath>
    </defs>
</svg>
