<svg width="51" height="51" viewBox="0 0 51 51" fill="none" xmlns="http://www.w3.org/2000/svg">
    <g clip-path="url(#clip0_9_2058)">
        <path
            d="M49.9442 41.9767H1.6685C1.19243 41.9767 0.806396 41.5907 0.806396 41.1146V10.0803C0.806396 9.60423 1.19243 9.2182 1.6685 9.2182H49.9443C50.4204 9.2182 50.8064 9.60423 50.8064 10.0803V41.1147C50.8063 41.5909 50.4203 41.9767 49.9442 41.9767Z"
            fill="#FF4B55" />
        <path
            d="M22.8514 22.4741C22.8508 22.4745 22.8503 22.475 22.8497 22.4754L10.2904 9.21838H1.66977C1.4602 9.21838 1.27515 9.30237 1.12573 9.42678L22.2062 23.2381C22.3903 22.9574 22.6086 22.704 22.8514 22.4741Z"
            fill="#FFE15A" />
        <path
            d="M21.542 26.0392C21.5268 25.892 21.4975 25.7489 21.4975 25.5976C21.4975 25.4464 21.5268 25.3033 21.542 25.156V25.1562L0.807861 23.0114V28.1839L21.542 26.0389V26.0392Z"
            fill="#FFE15A" />
        <path
            d="M25.1378 21.3547C25.3576 21.3201 25.5783 21.2872 25.8078 21.2872C26.0373 21.2872 26.258 21.3202 26.4778 21.3547H26.4777L28.394 9.21826H23.2216L25.1378 21.3547Z"
            fill="#FFE15A" />
        <path
            d="M29.4094 23.2381L50.4899 9.42678C50.3404 9.30237 50.1554 9.21838 49.9459 9.21838H41.3252L28.7658 22.4755C28.7652 22.4751 28.7647 22.4746 28.7642 22.4742C29.0069 22.704 29.2252 22.9574 29.4094 23.2381Z"
            fill="#FFE15A" />
        <path
            d="M28.7642 28.7211C28.7646 28.7207 28.7652 28.7202 28.7658 28.7198L41.3252 41.9769H49.9459C50.1554 41.9769 50.3405 41.8929 50.4899 41.7685L29.4094 27.9571C29.2252 28.2378 29.0069 28.4913 28.7642 28.7211Z"
            fill="#FFE15A" />
        <path
            d="M30.0736 25.1563V25.1561C30.0888 25.3033 30.1181 25.4465 30.1181 25.5977C30.1181 25.749 30.0888 25.8921 30.0736 26.0393V26.0391L50.8077 28.1839V23.0114L30.0736 25.1563Z"
            fill="#FFE15A" />
        <path
            d="M26.4778 29.8405C26.258 29.875 26.0373 29.908 25.8078 29.908C25.5783 29.908 25.3576 29.875 25.1378 29.8405H25.1379L23.2216 41.9769H28.394L26.4778 29.8405Z"
            fill="#FFE15A" />
        <path
            d="M22.2063 27.9571L1.12573 41.7685C1.27515 41.8929 1.4602 41.9769 1.66977 41.9769H10.2905L22.8498 28.7198C22.8504 28.7202 22.8509 28.7207 22.8515 28.7211C22.6087 28.4913 22.3904 28.2378 22.2063 27.9571Z"
            fill="#FFE15A" />
        <path
            d="M25.8077 29.0458C27.7121 29.0458 29.256 27.5019 29.256 25.5975C29.256 23.6931 27.7121 22.1493 25.8077 22.1493C23.9033 22.1493 22.3595 23.6931 22.3595 25.5975C22.3595 27.5019 23.9033 29.0458 25.8077 29.0458Z"
            fill="#FFE15A" />
    </g>
    <defs>
        <clipPath id="clip0_9_2058">
            <rect width="50" height="50" fill="white" transform="translate(0.804688 0.597412)" />
        </clipPath>
    </defs>
</svg>
