<svg width="51" height="51" viewBox="0 0 51 51" fill="none" xmlns="http://www.w3.org/2000/svg">
<g clip-path="url(#clip0_9_2037)">
<path d="M50.6388 25.0253H0.638855V9.50804C0.638855 9.03197 1.02489 8.64594 1.50096 8.64594H49.7767C50.2528 8.64594 50.6389 9.03197 50.6389 9.50804L50.6388 25.0253Z" fill="#4173CD"/>
<path d="M0.638855 25.0253H50.6388V40.5425C50.6388 41.0186 50.2527 41.4046 49.7767 41.4046H1.50096C1.02489 41.4046 0.638855 41.0186 0.638855 40.5425V25.0253Z" fill="#4173CD"/>
<path d="M50.6378 25.0253H0.637878V33.2147H50.6378V25.0253Z" fill="#FFE15A"/>
<path d="M1.49999 41.4045H49.7758C50.2518 41.4045 50.6379 41.0185 50.6379 40.5424V33.2149H0.637878V40.5424C0.637878 41.0186 1.02391 41.4045 1.49999 41.4045Z" fill="#73AF00"/>
<path d="M45.3852 17.4198L48.9139 16.8356L45.3852 16.2515L48.4217 14.3614L44.9381 15.1721L47.0202 12.2639L44.112 14.346L44.9227 10.8624L43.0326 13.8989L42.4484 10.3701L41.8642 13.8988L39.9742 10.8623L40.7848 14.3459L37.8766 12.2638L39.9587 15.172L36.4751 14.3613L39.5117 16.2514L35.9828 16.8356L39.5116 17.4198L36.475 19.3098L39.9586 18.4992L37.8765 21.4074L40.7847 19.3253L39.9741 22.8089L41.8641 19.7723L42.4484 23.3011L43.0325 19.7724L44.9226 22.809L44.1119 19.3254L47.0201 21.4075L44.938 18.4993L48.4216 19.3099L45.3852 17.4198ZM42.4484 18.9908C41.258 18.9908 40.2932 18.026 40.2932 16.8356C40.2932 15.6453 41.258 14.6805 42.4484 14.6805C43.6387 14.6805 44.6035 15.6453 44.6035 16.8356C44.6035 18.026 43.6387 18.9908 42.4484 18.9908Z" fill="#FFE15A"/>
<path d="M42.4484 18.4523C43.3411 18.4523 44.0648 17.7286 44.0648 16.8359C44.0648 15.9432 43.3411 15.2195 42.4484 15.2195C41.5557 15.2195 40.832 15.9432 40.832 16.8359C40.832 17.7286 41.5557 18.4523 42.4484 18.4523Z" fill="#FFE15A"/>
</g>
<defs>
<clipPath id="clip0_9_2037">
<rect width="50" height="50" fill="white" transform="translate(0.636719 0.0253906)"/>
</clipPath>
</defs>
</svg>
