<svg width="51" height="51" viewBox="0 0 51 51" fill="none" xmlns="http://www.w3.org/2000/svg">
<g clip-path="url(#clip0_9_2032)">
<path d="M49.2044 41.4045H0.928758C0.452685 41.4045 0.0666504 41.0185 0.0666504 40.5424V25.0253H50.0666V40.5424C50.0666 41.0186 49.6805 41.4045 49.2044 41.4045Z" fill="#41479B"/>
<path d="M0.928758 8.646H49.2045C49.6806 8.646 50.0667 9.03203 50.0667 9.5081V25.0253H0.0666504V9.5081C0.0666504 9.03203 0.452685 8.646 0.928758 8.646Z" fill="#FF4B55"/>
<path d="M25.0665 8.646L0.0666504 25.0253L25.0665 41.4045L50.0666 25.0253L25.0665 8.646Z" fill="#F5F5F5"/>
<path d="M25.3251 15.5237L27.3945 21.477L33.6959 21.6054C33.9553 21.6107 34.0624 21.9404 33.8556 22.0971L28.8331 25.9048L30.6582 31.9375C30.7333 32.1859 30.4529 32.3897 30.2398 32.2414L25.0665 28.6414L19.8931 32.2413C19.68 32.3895 19.3996 32.1859 19.4747 31.9374L21.2998 25.9047L16.2773 22.097C16.0704 21.9402 16.1776 21.6106 16.437 21.6053L22.7384 21.4769L24.8078 15.5236C24.8933 15.2785 25.2399 15.2785 25.3251 15.5237Z" fill="#FFE15A"/>
</g>
<defs>
<clipPath id="clip0_9_2032">
<rect width="50" height="50" fill="white" transform="translate(0.0664062 0.0253906)"/>
</clipPath>
</defs>
</svg>
