<svg width="51" height="51" viewBox="0 0 51 51" fill="none" xmlns="http://www.w3.org/2000/svg">
    <g clip-path="url(#clip0_9_2014)">
        <path
            d="M49.9273 41.4045H1.65166C1.17559 41.4045 0.789551 41.0185 0.789551 40.5424V9.5081C0.789551 9.03203 1.17559 8.646 1.65166 8.646H49.9274C50.4035 8.646 50.7896 9.03203 50.7896 9.5081V40.5424C50.7895 41.0186 50.4034 41.4045 49.9273 41.4045Z"
            fill="#73AF00" />
        <path d="M37.419 8.646L0.789551 32.6445V35.2211L41.3515 8.646H37.419Z" fill="#FFE15A" />
        <path d="M50.7899 17.4062V14.8295L10.2279 41.4047H14.1604L50.7899 17.4062Z"
            fill="#FFE15A" />
        <path
            d="M50.7895 14.8294V9.5081C50.7895 9.03203 50.4034 8.646 49.9273 8.646H41.3515L0.789551 35.2211V40.5424C0.789551 41.0185 1.17559 41.4045 1.65166 41.4045H10.2275L50.7895 14.8294Z"
            fill="#464655" />
        <path
            d="M16.0254 26.9686L17.7948 28.3934L19.7157 27.1805C19.9644 27.0235 20.2699 27.2734 20.1651 27.5483L19.3568 29.6713L21.1039 31.1234C21.3301 31.3115 21.1868 31.679 20.8931 31.6646L18.6241 31.5519L17.783 33.6622C17.674 33.9354 17.2801 33.9129 17.2031 33.6289L16.6092 31.4362L14.3423 31.2883C14.0487 31.2692 13.9485 30.8874 14.1947 30.7266L16.0966 29.484L15.5366 27.2823C15.4644 26.9973 15.7964 26.784 16.0254 26.9686Z"
            fill="#F5F5F5" />
        <path
            d="M32.333 16.2646L34.1024 17.6894L36.0233 16.4765C36.2721 16.3194 36.5775 16.5693 36.4727 16.8442L35.6644 18.9673L37.4115 20.4193C37.6377 20.6074 37.4944 20.975 37.2007 20.9605L34.9317 20.8479L34.0906 22.9582C33.9816 23.2313 33.5877 23.2088 33.5107 22.9249L32.9168 20.7321L30.6499 20.5843C30.3564 20.5651 30.2562 20.1834 30.5023 20.0226L32.4042 18.78L31.8442 16.5782C31.7719 16.2935 32.1039 16.0801 32.333 16.2646Z"
            fill="#F5F5F5" />
        <path
            d="M50.7893 40.5425V17.4061L14.1598 41.4046H49.9271C50.4033 41.4046 50.7893 41.0186 50.7893 40.5425Z"
            fill="#FF4B55" />
    </g>
    <defs>
        <clipPath id="clip0_9_2014">
            <rect width="50" height="50" fill="white" transform="translate(0.789062 0.0253906)" />
        </clipPath>
    </defs>
</svg>
