<svg width="51" height="51" viewBox="0 0 51 51" fill="none" xmlns="http://www.w3.org/2000/svg">
    <g clip-path="url(#clip0_9_1933)">
        <path
            d="M50.5122 25.0253H0.512329V9.50804C0.512329 9.03197 0.898364 8.64594 1.37444 8.64594H49.6502C50.1263 8.64594 50.5123 9.03197 50.5123 9.50804L50.5122 25.0253Z"
            fill="#F5F5F5" />
        <path
            d="M0.512329 25.0253H50.5122V40.5425C50.5122 41.0186 50.1262 41.4046 49.6501 41.4046H1.37444C0.898364 41.4046 0.512329 41.0186 0.512329 40.5425V25.0253Z"
            fill="#82AFFF" />
        <path
            d="M25.5923 32.0546C25.4463 32.0482 21.9995 31.8719 20.2696 29.5018C19.2614 28.1208 19.0602 26.2839 19.6716 24.0422L19.9186 24.1096C19.329 26.272 19.5163 28.0348 20.4756 29.35C22.1317 31.6204 25.5688 31.7972 25.6036 31.7987L25.5923 32.0546Z"
            fill="#B46446" />
        <path
            d="M19.6681 23.0483C19.4982 23.491 19.537 23.9545 19.7338 24.3059C20.1152 24.1765 20.4542 23.8579 20.6242 23.4153C20.7941 22.9726 20.7553 22.509 20.5586 22.1577C20.177 22.287 19.8381 22.6055 19.6681 23.0483Z"
            fill="#41AA5A" />
        <path
            d="M21.8277 29.1682C21.639 29.4794 21.5895 29.8967 21.7294 30.3018C21.8598 30.6803 22.1292 30.9595 22.4413 31.1004C22.1381 30.9415 21.7524 30.9017 21.3739 31.0323C20.9688 31.1719 20.6708 31.4681 20.5419 31.8084C20.8531 31.997 21.2703 32.0466 21.6755 31.9068C22.0805 31.7671 22.3786 31.4709 22.5075 31.1306L22.5071 31.1304C22.6942 30.8196 22.7432 30.404 22.604 30.0002C22.4642 29.5952 22.1681 29.297 21.8277 29.1682Z"
            fill="#41AA5A" />
        <path
            d="M21.0893 28.0385C20.7983 28.257 20.5967 28.6257 20.5753 29.0536C20.5553 29.4535 20.7011 29.813 20.9381 30.0601C20.716 29.7995 20.3729 29.6188 19.9733 29.5988C19.5454 29.5773 19.1583 29.741 18.9119 30.0088C19.1303 30.2998 19.4991 30.5014 19.9269 30.5228C20.3548 30.5443 20.7418 30.3805 20.9883 30.1127C20.9882 30.1126 20.9881 30.1125 20.9881 30.1125C21.2775 29.8937 21.4779 29.5263 21.4994 29.0998C21.5207 28.6719 21.3571 28.2848 21.0893 28.0385Z"
            fill="#41AA5A" />
        <path
            d="M20.7699 26.7648C20.418 26.8573 20.0921 27.1227 19.9109 27.5108C19.7413 27.8736 19.7407 28.2615 19.867 28.5798C19.7596 28.2547 19.5102 27.9578 19.1475 27.7884C18.7592 27.607 18.3391 27.6125 18.0099 27.7675C18.1024 28.1194 18.3678 28.4453 18.7559 28.6265C19.1442 28.8079 19.5643 28.8024 19.8935 28.6474C19.8935 28.6474 19.8934 28.6472 19.8933 28.6471C20.244 28.5537 20.5682 28.2891 20.7488 27.9023C20.9304 27.5144 20.925 27.094 20.7699 26.7648Z"
            fill="#41AA5A" />
        <path
            d="M20.9511 25.501C20.5889 25.465 20.191 25.6003 19.8859 25.901C19.6006 26.182 19.4648 26.5454 19.4723 26.8877C19.4849 26.5456 19.3545 26.1804 19.0736 25.8952C18.7728 25.5899 18.3771 25.4487 18.0145 25.4793C17.9784 25.8415 18.1137 26.2392 18.4145 26.5445C18.7153 26.8499 19.111 26.991 19.4736 26.9605C19.4736 26.9605 19.4736 26.9602 19.4736 26.9599C19.8348 26.9945 20.2309 26.8597 20.5351 26.56C20.8405 26.2594 20.9817 25.8636 20.9511 25.501Z"
            fill="#41AA5A" />
        <path
            d="M21.207 24.2981C20.8558 24.2026 20.4411 24.2702 20.0903 24.5162C19.7625 24.7462 19.5684 25.082 19.5192 25.421C19.5883 25.0857 19.5201 24.704 19.2903 24.3763C19.0443 24.0255 18.6774 23.8207 18.3146 23.7908C18.2191 24.142 18.2868 24.5567 18.5328 24.9075C18.7788 25.2583 19.1457 25.4631 19.5085 25.493C19.5085 25.4928 19.5085 25.4927 19.5085 25.4927C19.8589 25.5865 20.2719 25.519 20.6216 25.2737C20.9723 25.0276 21.1771 24.6608 21.207 24.2981Z"
            fill="#41AA5A" />
        <path
            d="M21.3088 31.2012C21.4561 31.2012 21.5755 31.0818 21.5755 30.9345C21.5755 30.7873 21.4561 30.6678 21.3088 30.6678C21.1615 30.6678 21.0421 30.7873 21.0421 30.9345C21.0421 31.0818 21.1615 31.2012 21.3088 31.2012Z"
            fill="#FFE15A" />
        <path
            d="M22.534 31.3507C22.6813 31.3507 22.8007 31.2313 22.8007 31.084C22.8007 30.9367 22.6813 30.8173 22.534 30.8173C22.3867 30.8173 22.2673 30.9367 22.2673 31.084C22.2673 31.2313 22.3867 31.3507 22.534 31.3507Z"
            fill="#FFE15A" />
        <path
            d="M20.6046 29.1856C20.7519 29.1856 20.8713 29.0662 20.8713 28.9189C20.8713 28.7716 20.7519 28.6522 20.6046 28.6522C20.4573 28.6522 20.3379 28.7716 20.3379 28.9189C20.3379 29.0662 20.4573 29.1856 20.6046 29.1856Z"
            fill="#FFE15A" />
        <path
            d="M18.9082 27.1798C19.0555 27.1798 19.1749 27.0604 19.1749 26.9131C19.1749 26.7658 19.0555 26.6464 18.9082 26.6464C18.7609 26.6464 18.6415 26.7658 18.6415 26.9131C18.6415 27.0604 18.7609 27.1798 18.9082 27.1798Z"
            fill="#FFE15A" />
        <path
            d="M20.0926 25.8223C20.2399 25.8223 20.3593 25.7029 20.3593 25.5556C20.3593 25.4083 20.2399 25.2889 20.0926 25.2889C19.9453 25.2889 19.8259 25.4083 19.8259 25.5556C19.8259 25.7029 19.9453 25.8223 20.0926 25.8223Z"
            fill="#FFE15A" />
        <path
            d="M19.6437 24.4298C19.7909 24.4298 19.9104 24.3104 19.9104 24.1631C19.9104 24.0158 19.7909 23.8964 19.6437 23.8964C19.4964 23.8964 19.377 24.0158 19.377 24.1631C19.377 24.3104 19.4964 24.4298 19.6437 24.4298Z"
            fill="#FFE15A" />
        <path
            d="M25.603 32.0545L25.5918 31.7985C25.6265 31.7972 29.0637 31.6201 30.7197 29.3497C31.6791 28.0348 31.8664 26.2717 31.2767 24.1093L31.5237 24.0419C32.135 26.2836 31.9339 28.1206 30.9258 29.5016C29.196 31.8719 25.7491 32.0483 25.603 32.0545Z"
            fill="#B46446" />
        <path
            d="M31.5243 23.0483C31.6943 23.491 31.6555 23.9545 31.4587 24.3059C31.0773 24.1765 30.7383 23.8579 30.5683 23.4153C30.3984 22.9726 30.4371 22.509 30.6339 22.1577C31.0154 22.287 31.3543 22.6055 31.5243 23.0483Z"
            fill="#41AA5A" />
        <path
            d="M29.3654 29.1682C29.5541 29.4794 29.6036 29.8967 29.4637 30.3018C29.3333 30.6803 29.0639 30.9595 28.7518 31.1004C29.055 30.9415 29.4407 30.9017 29.8192 31.0323C30.2243 31.1719 30.5223 31.4681 30.6512 31.8084C30.34 31.997 29.9228 32.0466 29.5176 31.9068C29.1126 31.7671 28.8145 31.4709 28.6856 31.1306C28.6857 31.1305 28.6859 31.1305 28.6859 31.1305C28.4991 30.8195 28.4501 30.4039 28.5892 30.0002C28.7289 29.5952 29.0251 29.297 29.3654 29.1682Z"
            fill="#41AA5A" />
        <path
            d="M30.1037 28.0385C30.3947 28.257 30.5963 28.6257 30.6176 29.0536C30.6377 29.4535 30.4919 29.813 30.2548 30.0601C30.477 29.7995 30.8201 29.6188 31.2197 29.5988C31.6476 29.5773 32.0346 29.741 32.2811 30.0088C32.0627 30.2998 31.6939 30.5014 31.266 30.5228C30.838 30.5443 30.451 30.3805 30.2046 30.1127C30.2047 30.1126 30.2048 30.1125 30.2048 30.1125C29.9154 29.8937 29.7149 29.5263 29.6935 29.0998C29.6721 28.6719 29.8359 28.2848 30.1037 28.0385Z"
            fill="#41AA5A" />
        <path
            d="M30.4227 26.7648C30.7746 26.8573 31.1005 27.1227 31.2818 27.5108C31.4513 27.8736 31.4519 28.2615 31.3256 28.5798C31.433 28.2547 31.6824 27.9578 32.0451 27.7884C32.4334 27.607 32.8535 27.6125 33.1827 27.7675C33.0902 28.1194 32.8248 28.4453 32.4367 28.6265C32.0485 28.8079 31.6283 28.8024 31.2991 28.6474C31.2991 28.6474 31.2992 28.6472 31.2993 28.6471C30.9487 28.5537 30.6244 28.2891 30.4438 27.9023C30.2621 27.5144 30.2676 27.094 30.4227 26.7648Z"
            fill="#41AA5A" />
        <path
            d="M30.242 25.501C30.6042 25.465 31.0021 25.6003 31.3072 25.901C31.5925 26.182 31.7283 26.5454 31.7208 26.8877C31.7082 26.5456 31.8386 26.1804 32.1195 25.8952C32.4203 25.5899 32.816 25.4487 33.1786 25.4793C33.2146 25.8415 33.0794 26.2392 32.7786 26.5445C32.4778 26.8499 32.0821 26.991 31.7195 26.9605C31.7195 26.9605 31.7195 26.9602 31.7195 26.9599C31.3583 26.9945 30.9622 26.8597 30.658 26.56C30.3526 26.2594 30.2114 25.8636 30.242 25.501Z"
            fill="#41AA5A" />
        <path
            d="M29.9857 24.2981C30.3369 24.2026 30.7516 24.2702 31.1024 24.5162C31.4302 24.7462 31.6243 25.082 31.6735 25.421C31.6045 25.0857 31.6726 24.704 31.9024 24.3763C32.1484 24.0255 32.5153 23.8207 32.8781 23.7908C32.9736 24.142 32.9059 24.5567 32.6599 24.9075C32.4139 25.2583 32.047 25.4631 31.6843 25.493C31.6843 25.4928 31.6843 25.4927 31.6843 25.4927C31.3339 25.5865 30.9208 25.519 30.5712 25.2737C30.2204 25.0276 30.0156 24.6608 29.9857 24.2981Z"
            fill="#41AA5A" />
        <path
            d="M29.8857 31.2012C30.033 31.2012 30.1524 31.0818 30.1524 30.9345C30.1524 30.7873 30.033 30.6678 29.8857 30.6678C29.7384 30.6678 29.619 30.7873 29.619 30.9345C29.619 31.0818 29.7384 31.2012 29.8857 31.2012Z"
            fill="#FFE15A" />
        <path
            d="M28.6581 31.3507C28.8053 31.3507 28.9248 31.2313 28.9248 31.084C28.9248 30.9367 28.8053 30.8173 28.6581 30.8173C28.5108 30.8173 28.3914 30.9367 28.3914 31.084C28.3914 31.2313 28.5108 31.3507 28.6581 31.3507Z"
            fill="#FFE15A" />
        <path
            d="M30.5885 29.1856C30.7358 29.1856 30.8552 29.0662 30.8552 28.9189C30.8552 28.7716 30.7358 28.6522 30.5885 28.6522C30.4412 28.6522 30.3218 28.7716 30.3218 28.9189C30.3218 29.0662 30.4412 29.1856 30.5885 29.1856Z"
            fill="#FFE15A" />
        <path
            d="M32.2849 27.1798C32.4322 27.1798 32.5516 27.0604 32.5516 26.9131C32.5516 26.7658 32.4322 26.6464 32.2849 26.6464C32.1376 26.6464 32.0182 26.7658 32.0182 26.9131C32.0182 27.0604 32.1376 27.1798 32.2849 27.1798Z"
            fill="#FFE15A" />
        <path
            d="M31.1015 25.8223C31.2488 25.8223 31.3682 25.7029 31.3682 25.5556C31.3682 25.4083 31.2488 25.2889 31.1015 25.2889C30.9542 25.2889 30.8348 25.4083 30.8348 25.5556C30.8348 25.7029 30.9542 25.8223 31.1015 25.8223Z"
            fill="#FFE15A" />
        <path
            d="M31.5505 24.4298C31.6978 24.4298 31.8172 24.3104 31.8172 24.1631C31.8172 24.0158 31.6978 23.8964 31.5505 23.8964C31.4032 23.8964 31.2838 24.0158 31.2838 24.1631C31.2838 24.3104 31.4032 24.4298 31.5505 24.4298Z"
            fill="#FFE15A" />
        <path
            d="M27.099 23.096H24.0399C23.0877 23.096 22.3158 23.8679 22.3158 24.8201V27.5149C22.3158 28.4673 23.0877 29.2391 24.0399 29.2391H27.099C28.0511 29.2391 28.8231 28.4673 28.8231 27.5149V24.8201C28.8231 23.8679 28.0512 23.096 27.099 23.096Z"
            fill="#8CD7FF" />
        <path
            d="M26.0743 25.4411V25.7825H25.7331V25.4411H25.4702V25.7825H25.1289V25.4411H24.9154V26.1238L25.0861 26.34V28.8545H26.11V26.34L26.2806 26.1238V25.4411H26.0743Z"
            fill="#F5F5F5" />
        <path
            d="M25.6477 24.3603C25.8166 24.2784 25.8611 24.6235 25.8611 24.6235C26.2167 24.4456 26.1239 24.157 26.0389 24.0191C25.9251 23.8341 25.4701 23.763 25.2781 24.1471C25.0861 24.5312 25.6052 25.292 25.6052 25.292C25.6334 25.0572 25.4272 24.467 25.6477 24.3603Z"
            fill="#F5F5F5" />
        <path
            d="M27.8288 26.0776V26.419H27.4874V26.0776H27.2246V26.419H26.8832V26.0776H26.6697V26.7604L26.8404 26.9765V29.4909H27.8644V26.9765L28.035 26.7604V26.0776H27.8288Z"
            fill="#F5F5F5" />
        <path
            d="M27.4027 24.9967C27.5716 24.9148 27.6161 25.2599 27.6161 25.2599C27.9717 25.082 27.8789 24.7935 27.7939 24.6555C27.6802 24.4705 27.2251 24.3994 27.0331 24.7835C26.8411 25.1676 27.3602 25.9284 27.3602 25.9284C27.3886 25.6936 27.1824 25.1034 27.4027 24.9967Z"
            fill="#F5F5F5" />
        <path
            d="M24.3197 26.0776V26.419H23.9783V26.0776H23.7155V26.419H23.3742V26.0776H23.1606V26.7604L23.3313 26.9765V29.4909H24.3554V26.9765L24.5261 26.7604V26.0776H24.3197Z"
            fill="#F5F5F5" />
        <path
            d="M23.8929 24.9967C24.0618 24.9148 24.1063 25.2599 24.1063 25.2599C24.4619 25.082 24.3691 24.7935 24.2842 24.6555C24.1704 24.4705 23.7153 24.3994 23.5233 24.7835C23.3313 25.1676 23.8505 25.9284 23.8505 25.9284C23.8789 25.6936 23.6726 25.1034 23.8929 24.9967Z"
            fill="#F5F5F5" />
        <path
            d="M28.3982 29.0366C28.1702 28.9239 27.9171 28.8546 27.6456 28.8546C27.3547 28.8546 27.085 28.9341 26.8452 29.0626C26.5336 28.7267 26.092 28.5132 25.5976 28.5132C25.1031 28.5132 24.6617 28.7267 24.3499 29.0626C24.1102 28.9341 23.8405 28.8546 23.5495 28.8546C23.278 28.8546 23.0248 28.9239 22.797 29.0366C23.2843 29.9303 24.2175 31.3746 25.5976 31.9265C26.9777 31.3746 27.9109 29.9303 28.3982 29.0366Z"
            fill="#6EC86E" />
        <path d="M25.5845 17.5987L25.6007 17.5907C25.6007 17.5907 25.5952 17.592 25.5845 17.5987Z"
            fill="#FFE15A" />
        <path d="M25.5996 17.5907L25.6158 17.5987C25.6049 17.592 25.5996 17.5907 25.5996 17.5907Z"
            fill="#FFE15A" />
        <path
            d="M28.8744 19.052C28.7784 18.4974 28.0638 18.4014 27.2424 18.348C26.4211 18.2947 26.0691 17.8254 26.0691 17.8254H25.1304C25.1304 17.8254 24.7784 18.2947 23.9571 18.348C23.1358 18.4014 22.421 18.4973 22.325 19.052C22.229 19.6066 22.933 20.4813 22.933 20.4813L23.5517 19.9801C23.5517 19.9801 22.7944 19.2548 23.1676 18.9881C23.5363 18.7247 24.6112 18.9071 25.0899 18.2749C25.0697 18.407 25.0767 18.5701 25.1586 18.7711C25.3151 19.1552 25.2582 19.6387 25.2582 19.6387H25.5996H25.941C25.941 19.6387 25.8841 19.1551 26.0407 18.7711C26.1226 18.5701 26.1298 18.4068 26.1094 18.2749C26.5882 18.9071 27.6631 18.7247 28.0317 18.9881C28.405 19.2548 27.6476 19.9801 27.6476 19.9801L28.2662 20.4813C28.2664 20.4813 28.9704 19.6066 28.8744 19.052Z"
            fill="#FFE15A" />
        <path
            d="M25.948 15.9054H25.7702V15.7134C25.7702 15.619 25.6938 15.5427 25.5995 15.5427C25.5052 15.5427 25.4288 15.619 25.4288 15.7134V15.9054H25.2438C25.1495 15.9054 25.0731 15.9817 25.0731 16.0761C25.0731 16.1704 25.1495 16.2468 25.2438 16.2468H25.4288V16.7374C25.4288 16.8317 25.5052 16.9081 25.5995 16.9081C25.6938 16.9081 25.7702 16.8317 25.7702 16.7374V16.2468H25.948C26.0424 16.2468 26.1187 16.1704 26.1187 16.0761C26.1187 15.9817 26.0423 15.9054 25.948 15.9054Z"
            fill="#FFE15A" />
        <path
            d="M25.597 17.2495C25.7856 17.2495 25.9384 17.0967 25.9384 16.9081C25.9384 16.7196 25.7856 16.5667 25.597 16.5667C25.4085 16.5667 25.2556 16.7196 25.2556 16.9081C25.2556 17.0967 25.4085 17.2495 25.597 17.2495Z"
            fill="#FFF0E1" />
        <path
            d="M23.1516 23.7773C23.2891 23.8459 23.4496 23.9053 23.6138 23.9053C24.1793 23.9053 24.4564 23.5855 24.4564 23.0199C24.4564 22.4544 24.1152 22.028 23.5498 22.028C23.5498 22.028 23.486 22.029 23.3839 22.0447C23.3619 22.0482 23.3401 22.0515 23.3187 22.0564C22.775 22.1601 21.4315 22.661 21.1605 25.0999C20.7817 28.5093 23.5498 31.5853 25.5979 32.2679V31.9265C25.5978 31.9266 20.7622 28.2288 23.1516 23.7773Z"
            fill="#FFC75A" />
        <path d="M23.5502 22.3692L25.5982 23.0519L23.5502 23.7345V22.3692Z" fill="#FFC75A" />
        <path d="M27.6462 23.7345L25.5983 23.0519L27.6462 22.3692V23.7345Z" fill="#FFE15A" />
        <path
            d="M21.4997 25.1377C21.7442 22.9367 22.8979 22.4842 23.3948 22.3891C23.4057 22.3867 23.4168 22.385 23.4356 22.382C23.4981 22.3724 23.5411 22.3698 23.5546 22.3692C23.9288 22.3718 24.1756 22.6537 24.1756 22.995C24.1756 23.3714 23.9551 23.514 23.7348 23.5212C23.7348 23.5212 23.9126 23.1513 23.5498 23.0518C23.3051 22.9845 22.9952 23.1799 23.0236 23.5353C23.0437 23.7852 23.2809 24.0259 23.5498 24.0259C24.1153 24.0259 24.5738 23.6173 24.5738 23.0517C24.5738 22.4862 24.1153 22.0277 23.5498 22.0277C23.5498 22.0277 23.486 22.0288 23.3839 22.0444C23.3619 22.0479 23.3401 22.0512 23.3187 22.0561C22.775 22.1598 21.4315 22.6607 21.1605 25.0997C20.7817 28.509 23.5498 31.585 25.5979 32.2676V31.9262C25.5979 31.9262 24.8726 31.5635 24.3767 31.2113C22.8445 30.1231 21.2232 27.6269 21.4997 25.1377Z"
            fill="#FFE15A" />
        <path
            d="M28.0427 23.7772C27.9052 23.8459 27.7447 23.9052 27.5805 23.9052C27.015 23.9052 26.7378 23.5854 26.7378 23.0199C26.7378 22.4544 27.079 22.0279 27.6445 22.0279C27.6445 22.0279 27.7082 22.029 27.8104 22.0446C27.8324 22.0481 27.8541 22.0514 27.8756 22.0563C28.4193 22.16 29.7628 22.6609 30.0338 25.0999C30.4126 28.5092 27.6445 31.5852 25.5964 32.2678V31.9264C25.5964 31.9265 30.432 28.2288 28.0427 23.7772Z"
            fill="#FFC75A" />
        <path d="M27.6444 22.3692L25.5964 23.0519L27.6444 23.7345V22.3692Z" fill="#FFC75A" />
        <path
            d="M29.6952 25.1376C29.4506 22.9366 28.297 22.4841 27.8001 22.3891C27.7892 22.3866 27.7781 22.385 27.7593 22.3819C27.6968 22.3724 27.6538 22.3697 27.6403 22.3692C27.2661 22.3717 27.0193 22.6536 27.0193 22.9949C27.0193 23.3713 27.2398 23.514 27.4601 23.5211C27.4601 23.5211 27.2823 23.1513 27.6451 23.0518C27.8898 22.9845 28.1997 23.1798 28.1713 23.5353C28.1512 23.7852 27.914 24.0259 27.6451 24.0259C27.0796 24.0259 26.6211 23.6172 26.6211 23.0517C26.6211 22.4861 27.0796 22.0276 27.6451 22.0276C27.6451 22.0276 27.7089 22.0287 27.811 22.0443C27.833 22.0479 27.8548 22.0512 27.8762 22.0561C28.4199 22.1598 29.7634 22.6607 30.0344 25.0996C30.4132 28.509 27.6451 31.585 25.597 32.2676V31.9262C25.597 31.9262 26.3223 31.5635 26.8182 31.2112C28.3505 30.123 29.9718 27.6269 29.6952 25.1376Z"
            fill="#FFE15A" />
        <path
            d="M25.5968 23.3939C25.7853 23.3939 25.9382 23.2411 25.9382 23.0525C25.9382 22.864 25.7853 22.7111 25.5968 22.7111C25.4082 22.7111 25.2554 22.864 25.2554 23.0525C25.2554 23.2411 25.4082 23.3939 25.5968 23.3939Z"
            fill="#FFE15A" />
        <path
            d="M28.0349 20.3105C28.1256 20.0759 28.0029 19.7612 28.0029 19.7612C27.6882 19.7506 27.4696 19.9799 27.4696 19.9799C27.4963 19.6972 27.3736 19.4412 27.3736 19.4412C26.9682 19.4891 26.8349 19.7293 26.8349 19.7293C26.8136 19.2866 26.5468 19.1052 26.5468 19.1052C26.1948 19.2119 26.0882 19.5959 26.0882 19.5959C26.0349 19.1586 25.5976 18.9559 25.5976 18.9559C25.5976 18.9559 25.1603 19.1587 25.107 19.5959C25.107 19.5959 25.0004 19.2118 24.6484 19.1052C24.6484 19.1052 24.3817 19.2866 24.3603 19.7293C24.3603 19.7293 24.227 19.4893 23.8217 19.4412C23.8217 19.4412 23.699 19.6972 23.7257 19.9799C23.7257 19.9799 23.507 19.7506 23.1924 19.7612C23.1924 19.7612 23.0697 20.0759 23.1603 20.3105C23.1603 20.3105 22.803 20.1986 22.5096 20.3691C22.5096 20.3691 23.0473 20.5771 23.2265 20.8331H27.9688C28.1479 20.577 28.6857 20.3691 28.6857 20.3691C28.3923 20.1985 28.0349 20.3105 28.0349 20.3105Z"
            fill="#FFC75A" />
        <path
            d="M27.9687 20.8333C27.9687 20.9868 27.6099 21.4616 27.6099 21.4616C27.6099 21.4616 26.4465 21.6235 25.5976 21.6235C24.7433 21.6235 23.5772 21.4571 23.5772 21.4571C23.5772 21.4571 23.2264 20.9849 23.2264 20.8331C23.2264 20.3966 24.2881 20.0427 25.5975 20.0427C26.9071 20.0428 27.9687 20.3968 27.9687 20.8333Z"
            fill="#FFE15A" />
        <path
            d="M25.5969 22.0282C26.7282 22.0282 27.6454 21.7226 27.6454 21.3456C27.6454 20.9686 26.7282 20.663 25.5969 20.663C24.4655 20.663 23.5483 20.9686 23.5483 21.3456C23.5483 21.7226 24.4655 22.0282 25.5969 22.0282Z"
            fill="#FFC75A" />
        <path
            d="M26.099 17.5586C26.099 17.3346 25.9319 17.0501 25.5977 17.2492C25.2634 17.0501 25.0964 17.3346 25.0964 17.5586C25.0964 17.7826 24.8404 17.8146 24.8083 17.7933C24.8083 17.7933 25.0217 18.0706 25.2669 17.8893C25.2669 17.8893 25.3985 18.0812 25.5976 18.0812C25.7967 18.0812 25.9284 17.8893 25.9284 17.8893C26.1738 18.0706 26.387 17.7933 26.387 17.7933C26.355 17.8145 26.099 17.7825 26.099 17.5586Z"
            fill="#FFC75A" />
        <path
            d="M24.9166 34.1027C24.8975 34.1027 24.8779 34.0984 24.8596 34.0891C24.7962 34.0577 24.7706 33.9807 24.8023 33.9174L25.4849 32.552C25.5165 32.4893 25.5934 32.4631 25.6566 32.495C25.7199 32.5264 25.7455 32.6033 25.7139 32.6667L25.0313 34.032C25.0087 34.0767 24.9636 34.1027 24.9166 34.1027Z"
            fill="#B46446" />
        <path
            d="M26.282 34.1027C26.235 34.1027 26.1899 34.0767 26.1674 34.032L25.4848 32.6666C25.4531 32.6033 25.4787 32.5263 25.5421 32.4949C25.6052 32.4626 25.682 32.4889 25.7138 32.552L26.3964 33.9173C26.428 33.9807 26.4024 34.0576 26.339 34.089C26.3206 34.0984 26.3012 34.1027 26.282 34.1027Z"
            fill="#B46446" />
        <path
            d="M28.6709 32.9079C26.6478 33.3602 24.5499 33.3602 22.5269 32.9079C22.5269 32.5665 22.5269 31.9277 22.5269 31.5864C24.5499 32.0386 26.6478 32.0386 28.6709 31.5864C28.6709 31.9278 28.6709 32.5667 28.6709 32.9079Z"
            fill="#F5F5F5" />
        <path
            d="M24.2193 32.4105C22.913 32.6626 21.5742 32.7317 20.2421 32.6073C20.2645 32.7833 21.3179 33.3063 21.3179 33.3063C21.3179 33.3063 20.3885 33.7555 20.4092 33.9182C21.6843 34.0374 22.9661 33.9805 24.2193 33.7545V32.4105Z"
            fill="#F5F5F5" />
        <path
            d="M26.9834 32.4105C28.2897 32.6626 29.6285 32.7317 30.9606 32.6073C30.9382 32.7833 29.8848 33.3063 29.8848 33.3063C29.8848 33.3063 30.8143 33.7555 30.7936 33.9182C29.5184 34.0374 28.2366 33.9805 26.9834 33.7545V32.4105Z"
            fill="#F5F5F5" />
    </g>
    <defs>
        <clipPath id="clip0_9_1933">
            <rect width="50" height="50" fill="white" transform="translate(0.511719 0.0253906)" />
        </clipPath>
    </defs>
</svg>
