<svg width="51" height="51" viewBox="0 0 51 51" fill="none" xmlns="http://www.w3.org/2000/svg">
<g clip-path="url(#clip0_9_1926)">
<path d="M49.9442 41.4045H1.6685C1.19243 41.4045 0.806396 41.0185 0.806396 40.5424V9.5081C0.806396 9.03203 1.19243 8.646 1.6685 8.646H49.9443C50.4204 8.646 50.8064 9.03203 50.8064 9.5081V40.5424C50.8063 41.0186 50.4203 41.4045 49.9442 41.4045Z" fill="#73AF00"/>
<path d="M50.8063 16.4042H0.806396V33.6454H50.8063V16.4042Z" fill="#FFE15A"/>
<path d="M1.06675 41.1573L18.0477 25.0253L1.06675 8.89337C0.906689 9.04982 0.806396 9.26661 0.806396 9.50812V40.5424C0.806396 40.7839 0.906689 41.0007 1.06675 41.1573Z" fill="#FF4B55"/>
<path d="M27.984 21.0963L28.8675 23.7453L31.6598 23.767C32.0214 23.7698 32.1713 24.2311 31.8805 24.446L29.6342 26.1048L30.4766 28.7672C30.5856 29.1119 30.1932 29.397 29.899 29.1868L27.6272 27.563L25.3555 29.1868C25.0614 29.397 24.6688 29.1119 24.7779 28.7672L25.6203 26.1048L23.374 24.446C23.0832 24.2312 23.2331 23.7698 23.5946 23.767L26.387 23.7453L27.2705 21.0963C27.3845 20.7533 27.8696 20.7533 27.984 21.0963Z" fill="#464655"/>
<path d="M40.8751 21.0962L41.7586 23.7452L44.551 23.7669C44.9125 23.7697 45.0624 24.2311 44.7716 24.4459L42.5253 26.1047L43.3677 28.7671C43.4767 29.1118 43.0843 29.397 42.7901 29.1867L40.5184 27.5629L38.2466 29.1867C37.9525 29.397 37.56 29.1118 37.669 28.7671L38.5114 26.1047L36.2651 24.4459C35.9743 24.2312 36.1242 23.7697 36.4857 23.7669L39.2781 23.7452L40.1616 21.0962C40.2755 20.7532 40.7606 20.7532 40.8751 21.0962Z" fill="#464655"/>
</g>
<defs>
<clipPath id="clip0_9_1926">
<rect width="50" height="50" fill="white" transform="translate(0.804688 0.0253906)"/>
</clipPath>
</defs>
</svg>
