<svg width="51" height="51" viewBox="0 0 51 51" fill="none" xmlns="http://www.w3.org/2000/svg">
    <g clip-path="url(#clip0_9_1918)">
        <path
            d="M49.7588 41.6979H1.48308C1.00701 41.6979 0.620972 41.3118 0.620972 40.8358V9.80144C0.620972 9.32537 1.00701 8.93933 1.48308 8.93933H49.7589C50.2349 8.93933 50.621 9.32537 50.621 9.80144V40.8358C50.6209 41.3119 50.2348 41.6979 49.7588 41.6979Z"
            fill="#F5F5F5" />
        <path
            d="M50.6209 23.5945H27.345V8.93933H23.8967V23.5945H0.620972V27.0427H23.8967V41.6979H27.345V27.0427H50.6209V23.5945Z"
            fill="#FF4B55" />
        <path
            d="M16.748 16.6619C16.8928 16.3723 16.0924 15.4345 16.1347 15.222C16.1772 15.0095 16.2721 14.6839 15.932 13.4515C15.5921 12.2191 14.5707 11.9213 13.3383 11.7939C12.1058 11.6665 10.4766 12.5503 10.1086 13.515C9.88652 14.0972 10.0367 14.7476 10.2697 15.3667C10.1651 15.378 9.96484 15.3837 9.81718 15.2747C9.69961 15.1871 9.63525 15.0382 9.62402 14.8331C9.58281 14.0515 10.0092 12.7713 10.0138 12.7587L10.0457 12.6631L8.70713 12.1911L8.78584 12.8192L7.75293 12.5987L7.81602 12.7719C7.90693 13.0216 8.70703 15.2168 8.81474 15.4106C8.9914 15.7273 9.23115 15.9299 9.52724 16.0123C9.63349 16.0421 9.73837 16.0535 9.83798 16.0535C9.85078 16.0535 9.86152 16.0501 9.87412 16.0498C9.81347 16.1614 9.69082 16.3021 9.37851 16.4472C9.01211 16.6161 8.64121 16.7981 8.60058 17.482L8.58955 17.4876C8.59287 17.494 8.59668 17.4974 8.6 17.5037C8.59121 17.6843 8.59941 17.8909 8.64267 18.1503C8.75019 18.7917 8.96865 19.4212 8.97802 19.4477L8.99922 19.5081L9.06299 19.5155C9.06758 19.5155 9.48798 19.5659 9.61679 20.0075C9.69111 20.263 9.92548 20.4571 10.156 20.4571C10.1619 20.4571 10.1679 20.4564 10.1738 20.4564C10.2734 20.4518 10.5144 20.3999 10.5928 20.0095L10.6041 19.9531L9.97099 19.3705L10.1832 18.6708L10.0822 18.6436C10.0763 18.6421 9.65703 18.5159 9.22304 18.0426C9.18281 17.8477 9.18759 17.7069 9.23955 17.627C9.29863 17.5374 9.42412 17.5122 9.56953 17.483C9.70498 17.4557 9.84511 17.4279 9.95869 17.3395C10.3236 17.0542 10.5278 16.5637 10.6313 16.2279C10.6874 16.3548 10.7411 16.4782 10.7887 16.5958C11.1499 17.4882 10.1513 18.5081 10.1513 18.5081C10.7887 18.763 10.8524 18.9117 11.7449 20.0166C12.6374 21.1216 13.4447 20.654 13.4447 20.654C13.4447 20.654 13.3299 19.9466 13.9164 19.648C14.503 19.3494 14.5163 18.9655 14.5163 18.9655C15.9802 19.3094 16.0681 18.7095 16.0041 18.5015C15.9401 18.2936 16.0201 17.9657 16.0201 17.9657C16.0201 17.9657 16.1676 17.9749 16.2761 17.9017C16.448 17.7858 16.3321 17.5098 16.3321 17.5098C16.5001 17.4297 16.5641 17.2539 16.4361 17.1178C16.3081 16.9818 16.3161 16.8299 16.3161 16.8299C16.3161 16.8299 16.6521 16.8538 16.748 16.6619ZM9.58222 15.8156C9.34052 15.7486 9.14199 15.5785 8.99258 15.311C8.92158 15.1835 8.42412 13.8442 8.07031 12.8748L8.8126 13.033L8.95215 14.1469L9.154 14.1217L8.9501 12.4936L9.78945 12.7891C9.68847 13.1086 9.3831 14.1423 9.4209 14.8435C9.43476 15.1125 9.52714 15.3123 9.69511 15.4377C9.84716 15.5513 10.0298 15.5778 10.1692 15.5778C10.2515 15.5778 10.3074 15.5698 10.3452 15.5631C10.366 15.6143 10.3875 15.6646 10.4089 15.7152C10.291 15.7732 9.94521 15.9185 9.58222 15.8156ZM10.3798 20.024C10.3513 20.1242 10.2908 20.247 10.1647 20.2524C10.162 20.2524 10.1588 20.2524 10.1555 20.2524C10.0167 20.2524 9.86064 20.1163 9.8121 19.9502C9.80966 19.9417 9.80459 19.9373 9.80185 19.929L9.90537 19.5872L10.3798 20.024ZM9.92959 18.8062L9.67021 19.66C9.50205 19.4317 9.26621 19.3509 9.15205 19.3243C9.09619 19.1563 8.93027 18.633 8.84394 18.1171C8.82588 18.0082 8.81699 17.9154 8.80869 17.8238C9.23838 18.4527 9.72275 18.7241 9.92959 18.8062ZM9.8332 17.1788C9.7582 17.2372 9.64736 17.2591 9.52978 17.283C9.36308 17.3162 9.17529 17.354 9.06904 17.5154C9.03027 17.5745 9.01103 17.6485 9.00117 17.7309C8.9334 17.6351 8.86396 17.554 8.80049 17.4374C8.84541 16.9181 9.12802 16.7867 9.46406 16.6315C9.94853 16.4073 10.0609 16.1683 10.1089 16.0255C10.2815 15.9918 10.4109 15.9383 10.4877 15.902C10.4915 15.9108 10.4953 15.919 10.4992 15.9279C10.4458 16.1634 10.262 16.8439 9.8332 17.1788ZM10.9727 16.2619L10.5568 15.366L15.4523 13.0942C15.7723 13.7022 15.8044 14.422 15.8044 14.422L10.9727 16.2619Z"
            fill="#464655" />
        <path
            d="M43.4729 16.662C43.6176 16.3724 42.8172 15.4346 42.8596 15.2221C42.9021 15.0096 42.9969 14.6841 42.6569 13.4516C42.3169 12.2192 41.2955 11.9215 40.0631 11.794C38.8307 11.6666 37.2014 12.5504 36.8334 13.5151C36.6114 14.0973 36.7616 14.7477 36.9946 15.3668C36.89 15.3781 36.6897 15.3839 36.542 15.2748C36.4245 15.1872 36.3601 15.0384 36.3489 14.8332C36.3077 14.0516 36.734 12.7715 36.7386 12.7589L36.7706 12.6633L35.432 12.1912L35.5107 12.8193L34.4778 12.5988L34.5409 12.7721C34.6318 13.0218 35.4319 15.2169 35.5396 15.4107C35.7163 15.7274 35.956 15.9301 36.2521 16.0124C36.3583 16.0423 36.4633 16.0536 36.5628 16.0536C36.5756 16.0536 36.5864 16.0503 36.599 16.0499C36.5383 16.1615 36.4157 16.3022 36.1034 16.4473C35.737 16.6162 35.3661 16.7982 35.3254 17.4821L35.3144 17.4878C35.3177 17.4941 35.3215 17.4975 35.3249 17.5038C35.3161 17.6844 35.3243 17.891 35.3675 18.1505C35.475 18.7919 35.6936 19.4214 35.7029 19.4478L35.7241 19.5083L35.7878 19.5156C35.7924 19.5156 36.2128 19.566 36.3416 20.0076C36.416 20.2632 36.6503 20.4572 36.8808 20.4572C36.8868 20.4572 36.8927 20.4565 36.8987 20.4565C36.9983 20.4519 37.2393 20.4001 37.3176 20.0096L37.3289 19.9532L36.6958 19.3707L36.9081 18.671L36.8071 18.6437C36.8011 18.6423 36.3819 18.516 35.9479 18.0427C35.9077 17.8478 35.9124 17.707 35.9644 17.6271C36.0235 17.5375 36.149 17.5123 36.2944 17.4831C36.4298 17.4558 36.57 17.428 36.6835 17.3396C37.0485 17.0544 37.2527 16.5638 37.3562 16.228C37.4122 16.355 37.466 16.4783 37.5135 16.5959C37.8747 17.4884 36.8761 18.5082 36.8761 18.5082C37.5135 18.7632 37.5773 18.9118 38.4698 20.0168C39.3622 21.1216 40.1697 20.6542 40.1697 20.6542C40.1697 20.6542 40.0548 19.9467 40.6413 19.6481C41.228 19.3495 41.2412 18.9656 41.2412 18.9656C42.7051 19.3095 42.7931 18.7096 42.729 18.5016C42.6651 18.2937 42.7451 17.9658 42.7451 17.9658C42.7451 17.9658 42.8925 17.9751 43.001 17.9018C43.173 17.7859 43.0571 17.5099 43.0571 17.5099C43.225 17.4299 43.2891 17.254 43.1611 17.1179C43.033 16.9819 43.041 16.8301 43.041 16.8301C43.041 16.8301 43.3769 16.8539 43.4729 16.662ZM36.307 15.8157C36.0653 15.7487 35.8667 15.5786 35.7173 15.3111C35.6463 15.1837 35.1489 13.8443 34.7951 12.8749L35.5373 13.0331L35.6769 14.1471L35.8788 14.1219L35.6749 12.4937L36.5142 12.7892C36.4132 13.1087 36.1079 14.1425 36.1456 14.8436C36.1595 15.1126 36.2519 15.3124 36.4199 15.4379C36.5719 15.5514 36.7545 15.5779 36.894 15.5779C36.9762 15.5779 37.0322 15.5699 37.07 15.5633C37.0908 15.6144 37.1122 15.6647 37.1336 15.7153C37.0157 15.7733 36.67 15.9186 36.307 15.8157ZM37.1044 20.0241C37.0759 20.1243 37.0155 20.2471 36.8894 20.2525C36.8867 20.2525 36.8834 20.2525 36.8801 20.2525C36.7414 20.2525 36.5853 20.1164 36.5368 19.9504C36.5343 19.9419 36.5292 19.9375 36.5265 19.9292L36.63 19.5874L37.1044 20.0241ZM36.6542 18.8063L36.3949 19.6601C36.2266 19.4318 35.9909 19.351 35.8767 19.3244C35.8208 19.1564 35.6549 18.6331 35.5686 18.1173C35.5505 18.0083 35.5416 17.9155 35.5333 17.8239C35.9631 18.4528 36.4475 18.7242 36.6542 18.8063ZM36.5581 17.1789C36.4831 17.2373 36.3722 17.2593 36.2546 17.2831C36.0879 17.3163 35.9001 17.3541 35.7939 17.5155C35.7551 17.5746 35.7359 17.6486 35.726 17.731C35.6582 17.6352 35.5888 17.5542 35.5253 17.4376C35.5703 16.9182 35.8529 16.7868 36.1889 16.6316C36.6734 16.4074 36.7858 16.1684 36.8337 16.0257C37.0064 15.992 37.1358 15.9385 37.2125 15.9021C37.2164 15.9109 37.2202 15.9191 37.2241 15.928C37.1705 16.1635 36.9868 16.844 36.5581 17.1789ZM37.6975 16.262L37.2816 15.3661L42.1771 13.0943C42.4971 13.7023 42.5291 14.4221 42.5291 14.4221L37.6975 16.262Z"
            fill="#464655" />
        <path
            d="M16.7488 34.7654C16.8935 34.4758 16.0931 33.538 16.1355 33.3255C16.178 33.113 16.2728 32.7875 15.9327 31.555C15.5928 30.3226 14.5714 30.0249 13.339 29.8974C12.1066 29.77 10.4773 30.6538 10.1093 31.6185C9.88725 32.2007 10.0374 32.8511 10.2705 33.4702C10.1659 33.4815 9.96557 33.4873 9.81792 33.3782C9.70034 33.2906 9.63598 33.1418 9.62475 32.9366C9.58354 32.155 10.0099 30.8749 10.0145 30.8623L10.0464 30.7667L8.70786 30.2946L8.78657 30.9227L7.75366 30.7022L7.81675 30.8754C7.90767 31.1252 8.70776 33.3203 8.81548 33.5141C8.99214 33.8308 9.23188 34.0334 9.52797 34.1158C9.63422 34.1457 9.73911 34.157 9.83872 34.157C9.85151 34.157 9.86225 34.1537 9.87485 34.1533C9.8142 34.2649 9.69155 34.4056 9.37924 34.5506C9.01284 34.7195 8.64194 34.9015 8.60132 35.5854L8.59028 35.5912C8.5936 35.5975 8.59741 35.6009 8.60073 35.6072C8.59194 35.7878 8.60014 35.9944 8.64341 36.2539C8.75093 36.8953 8.96938 37.5247 8.97876 37.5512L8.99995 37.6117L9.06372 37.619C9.06831 37.619 9.48872 37.6694 9.61753 38.111C9.69184 38.3665 9.92622 38.5606 10.1567 38.5606C10.1626 38.5606 10.1686 38.5599 10.1746 38.5599C10.2742 38.5553 10.5152 38.5035 10.5935 38.113L10.6048 38.0566L9.97172 37.4741L10.1839 36.7744L10.083 36.7471C10.077 36.7457 9.65776 36.6194 9.22378 36.1461C9.18354 35.9512 9.18833 35.8104 9.24028 35.7305C9.29936 35.6409 9.42485 35.6157 9.57026 35.5865C9.70571 35.5592 9.84585 35.5314 9.95942 35.443C10.3244 35.1578 10.5286 34.6672 10.6321 34.3314C10.6881 34.4584 10.7418 34.5817 10.7894 34.6993C11.1506 35.5917 10.152 36.6116 10.152 36.6116C10.7894 36.8665 10.8532 37.0152 11.7456 38.1202C12.6381 39.2251 13.4454 38.7576 13.4454 38.7576C13.4454 38.7576 13.3306 38.0501 13.9171 37.7515C14.5037 37.4529 14.517 37.069 14.517 37.069C15.9809 37.4129 16.0689 36.813 16.0048 36.605C15.9409 36.3971 16.0208 36.0692 16.0208 36.0692C16.0208 36.0692 16.1683 36.0785 16.2768 36.0052C16.4488 35.8893 16.3328 35.6133 16.3328 35.6133C16.5008 35.5333 16.5649 35.3574 16.4368 35.2213C16.3088 35.0853 16.3168 34.9334 16.3168 34.9334C16.3168 34.9334 16.6529 34.9573 16.7488 34.7654ZM9.58296 33.9191C9.34126 33.8521 9.14272 33.682 8.99331 33.4145C8.92231 33.2871 8.42485 31.9477 8.07104 30.9783L8.81333 31.1365L8.95288 32.2504L9.15473 32.2252L8.95083 30.5971L9.79018 30.8926C9.6892 31.2121 9.38383 32.2459 9.42163 32.947C9.43549 33.216 9.52788 33.4158 9.69585 33.5414C9.8479 33.6549 10.0305 33.6814 10.17 33.6814C10.2522 33.6814 10.3081 33.6734 10.3459 33.6668C10.3667 33.7179 10.3882 33.7682 10.4096 33.8188C10.2917 33.8766 9.94594 34.022 9.58296 33.9191ZM10.3805 38.1275C10.352 38.2277 10.2915 38.3505 10.1655 38.3559C10.1627 38.3559 10.1595 38.3559 10.1562 38.3559C10.0174 38.3559 9.86137 38.2198 9.81284 38.0538C9.8104 38.0453 9.80532 38.0409 9.80258 38.0326L9.9061 37.6908L10.3805 38.1275ZM9.93032 36.9097L9.67094 37.7635C9.50278 37.5352 9.26694 37.4544 9.15278 37.4278C9.09692 37.2598 8.931 36.7365 8.84468 36.2207C8.82661 36.1117 8.81772 36.0189 8.80942 35.9273C9.23911 36.5562 9.72348 36.8277 9.93032 36.9097ZM9.83393 35.2825C9.75893 35.3409 9.64809 35.3628 9.53051 35.3867C9.36382 35.4199 9.17602 35.4577 9.06977 35.6191C9.031 35.6782 9.01176 35.7522 9.0019 35.8346C8.93413 35.7388 8.86469 35.6578 8.80122 35.5412C8.84614 35.0218 9.12876 34.8904 9.46479 34.7352C9.94926 34.511 10.0617 34.272 10.1096 34.1293C10.2823 34.0956 10.4117 34.042 10.4884 34.0057C10.4922 34.0145 10.496 34.0227 10.4999 34.0316C10.4465 34.2669 10.2627 34.9474 9.83393 35.2825ZM10.9735 34.3654L10.5576 33.4695L15.4531 31.1977C15.7731 31.8057 15.8051 32.5255 15.8051 32.5255L10.9735 34.3654Z"
            fill="#464655" />
        <path
            d="M43.4729 34.7654C43.6176 34.4758 42.8172 33.538 42.8596 33.3255C42.9021 33.113 42.9969 32.7875 42.6569 31.555C42.3169 30.3226 41.2955 30.0249 40.0631 29.8974C38.8307 29.77 37.2014 30.6538 36.8334 31.6185C36.6114 32.2007 36.7616 32.8511 36.9946 33.4702C36.89 33.4815 36.6897 33.4873 36.542 33.3782C36.4245 33.2906 36.3601 33.1418 36.3489 32.9366C36.3077 32.155 36.734 30.8749 36.7386 30.8623L36.7706 30.7667L35.432 30.2946L35.5107 30.9227L34.4778 30.7022L34.5409 30.8754C34.6318 31.1252 35.4319 33.3203 35.5396 33.5141C35.7163 33.8308 35.956 34.0334 36.2521 34.1158C36.3583 34.1457 36.4633 34.157 36.5628 34.157C36.5756 34.157 36.5864 34.1537 36.599 34.1533C36.5383 34.2649 36.4157 34.4056 36.1034 34.5506C35.737 34.7195 35.3661 34.9015 35.3254 35.5854L35.3144 35.5912C35.3177 35.5975 35.3215 35.6009 35.3249 35.6072C35.3161 35.7878 35.3243 35.9944 35.3675 36.2539C35.475 36.8953 35.6936 37.5247 35.7029 37.5512L35.7241 37.6117L35.7878 37.619C35.7924 37.619 36.2128 37.6694 36.3416 38.111C36.416 38.3665 36.6503 38.5606 36.8808 38.5606C36.8868 38.5606 36.8927 38.5599 36.8987 38.5599C36.9983 38.5553 37.2393 38.5035 37.3176 38.113L37.3289 38.0566L36.6958 37.4741L36.9081 36.7744L36.8071 36.7471C36.8011 36.7457 36.3819 36.6194 35.9479 36.1461C35.9077 35.9512 35.9124 35.8104 35.9644 35.7305C36.0235 35.6409 36.149 35.6157 36.2944 35.5865C36.4298 35.5592 36.57 35.5314 36.6835 35.443C37.0485 35.1578 37.2527 34.6672 37.3562 34.3314C37.4122 34.4584 37.466 34.5817 37.5135 34.6993C37.8747 35.5917 36.8761 36.6116 36.8761 36.6116C37.5135 36.8665 37.5773 37.0152 38.4698 38.1202C39.3622 39.225 40.1697 38.7576 40.1697 38.7576C40.1697 38.7576 40.0548 38.0501 40.6413 37.7515C41.228 37.4529 41.2412 37.069 41.2412 37.069C42.7051 37.4129 42.7931 36.813 42.729 36.605C42.6651 36.3971 42.7451 36.0692 42.7451 36.0692C42.7451 36.0692 42.8925 36.0785 43.001 36.0052C43.173 35.8893 43.0571 35.6133 43.0571 35.6133C43.225 35.5333 43.2891 35.3574 43.1611 35.2213C43.033 35.0853 43.041 34.9334 43.041 34.9334C43.041 34.9334 43.3769 34.9573 43.4729 34.7654ZM36.307 33.9191C36.0653 33.8521 35.8667 33.682 35.7173 33.4145C35.6463 33.2871 35.1489 31.9477 34.7951 30.9783L35.5373 31.1365L35.6769 32.2504L35.8788 32.2252L35.6749 30.5971L36.5142 30.8926C36.4132 31.2121 36.1079 32.2459 36.1456 32.947C36.1595 33.216 36.2519 33.4158 36.4199 33.5414C36.5719 33.6549 36.7545 33.6814 36.894 33.6814C36.9762 33.6814 37.0322 33.6734 37.07 33.6668C37.0908 33.7179 37.1122 33.7682 37.1336 33.8188C37.0157 33.8766 36.67 34.022 36.307 33.9191ZM37.1044 38.1275C37.0759 38.2277 37.0155 38.3505 36.8894 38.3559C36.8867 38.3559 36.8834 38.3559 36.8801 38.3559C36.7414 38.3559 36.5853 38.2198 36.5368 38.0538C36.5343 38.0453 36.5292 38.0409 36.5265 38.0326L36.63 37.6908L37.1044 38.1275ZM36.6542 36.9097L36.3949 37.7635C36.2266 37.5352 35.9909 37.4544 35.8767 37.4278C35.8208 37.2598 35.6549 36.7365 35.5686 36.2206C35.5505 36.1117 35.5416 36.0189 35.5333 35.9273C35.9631 36.5562 36.4475 36.8277 36.6542 36.9097ZM36.5581 35.2825C36.4831 35.3409 36.3722 35.3628 36.2546 35.3867C36.0879 35.4199 35.9001 35.4577 35.7939 35.6191C35.7551 35.6782 35.7359 35.7522 35.726 35.8346C35.6582 35.7388 35.5888 35.6578 35.5253 35.5412C35.5703 35.0218 35.8529 34.8904 36.1889 34.7352C36.6734 34.511 36.7858 34.272 36.8337 34.1292C37.0064 34.0956 37.1358 34.042 37.2125 34.0057C37.2164 34.0145 37.2202 34.0227 37.2241 34.0316C37.1705 34.2669 36.9868 34.9474 36.5581 35.2825ZM37.6975 34.3654L37.2816 33.4695L42.1771 31.1977C42.4971 31.8057 42.5291 32.5255 42.5291 32.5255L37.6975 34.3654Z"
            fill="#464655" />
    </g>
    <defs>
        <clipPath id="clip0_9_1918">
            <rect width="50" height="50" fill="white" transform="translate(0.621094 0.318604)" />
        </clipPath>
    </defs>
</svg>
