<svg width="51" height="51" viewBox="0 0 51 51" fill="none" xmlns="http://www.w3.org/2000/svg">
<g clip-path="url(#clip0_9_1890)">
<path d="M50.0528 41.698H1.77715C1.30107 41.698 0.915039 41.3119 0.915039 40.8359V9.80144C0.915039 9.32537 1.30107 8.93933 1.77715 8.93933H50.0529C50.529 8.93933 50.915 9.32537 50.915 9.80144V40.8359C50.9149 41.312 50.5289 41.698 50.0528 41.698Z" fill="#73AF00"/>
<path d="M11.2596 20.0723C11.3446 20.6169 11.6738 20.7878 11.96 20.7654C12.2975 20.7393 12.5935 20.4307 12.5935 20.1047V18.2357C12.5935 18.1422 12.6697 18.0658 12.7635 18.0658C12.8572 18.0658 12.9334 18.1421 12.9334 18.2357V20.1127C12.9334 20.3384 13.0449 20.5488 13.2319 20.6752C13.3461 20.7525 13.479 20.7923 13.6129 20.7923C13.6981 20.7923 13.7838 20.776 13.8654 20.7435L14.0352 20.6756C14.0509 22.2444 13.9554 23.6232 13.9537 23.6485C13.9404 23.8357 14.0812 23.9983 14.2684 24.0116C14.2767 24.0123 14.2848 24.0126 14.293 24.0126C14.4698 24.0126 14.6189 23.8759 14.6317 23.697C14.6396 23.5865 14.7443 22.0765 14.713 20.4045L14.8157 20.3635C14.9057 20.3276 15.0069 20.3319 15.0935 20.3751C15.4678 20.5616 15.9182 20.4889 16.214 20.1932L16.2753 20.132C16.5499 19.8569 16.6443 19.4573 16.5214 19.0887L16.232 18.2206C16.3884 18.2677 16.5603 18.1984 16.6359 18.0478C16.7199 17.8799 16.6518 17.6758 16.484 17.5918L15.8044 17.252C15.6814 17.1902 15.5339 17.2092 15.4297 17.299C15.3258 17.3894 15.2865 17.533 15.33 17.6634L15.8767 19.3038C15.9176 19.4266 15.8862 19.56 15.7947 19.6516L15.7336 19.7127C15.645 19.8013 15.51 19.8229 15.3972 19.7671C15.177 19.657 14.9262 19.6364 14.691 19.6964C14.6432 18.6057 14.5258 17.5195 14.2756 16.7687C14.2163 16.5907 14.0242 16.4942 13.8456 16.5539C13.6676 16.613 13.5714 16.8054 13.6307 16.9837C13.8756 17.718 13.9822 18.837 14.0201 19.9497L13.6133 20.1124V18.2355C13.6133 17.7669 13.2321 17.3858 12.7636 17.3858C12.2952 17.3858 11.914 17.7668 11.914 18.2355V19.8805L11.5674 18.1681C11.5304 17.9839 11.3513 17.8638 11.167 17.9023C10.9829 17.9398 10.8639 18.119 10.9013 18.3028L11.2596 20.0723Z" fill="#F5F5F5"/>
<path d="M11.9137 17.2163C12.1014 17.2163 12.2535 17.0644 12.2535 16.8765V16.5366C12.2535 16.3488 12.1014 16.1968 11.9137 16.1968C11.726 16.1968 11.5739 16.3487 11.5739 16.5366V16.8765C11.5739 17.0643 11.726 17.2163 11.9137 17.2163Z" fill="#F5F5F5"/>
<path d="M15.3118 16.8765H15.6517C15.8394 16.8765 15.9915 16.7245 15.9915 16.5366C15.9915 16.3488 15.8394 16.1968 15.6517 16.1968H15.3118C15.1241 16.1968 14.972 16.3487 14.972 16.5366C14.972 16.7245 15.1241 16.8765 15.3118 16.8765Z" fill="#F5F5F5"/>
<path d="M13.098 21.3426L11.3989 22.3621C11.2379 22.4587 11.1858 22.6674 11.2824 22.8284C11.3461 22.9346 11.4586 22.9934 11.5741 22.9934C11.6337 22.9934 11.6939 22.9778 11.7487 22.9448L13.4478 21.9253C13.6089 21.8287 13.6609 21.62 13.5643 21.459C13.4678 21.2981 13.2592 21.246 13.098 21.3426Z" fill="#F5F5F5"/>
<path d="M17.6794 21.9437L17.6875 21.9384C17.716 22.0532 17.7649 22.1643 17.8443 22.2577C17.9824 22.4203 18.1894 22.502 18.4234 22.4827C18.7553 22.4585 18.9809 22.3068 19.1303 22.111C19.1531 22.1267 19.177 22.1409 19.202 22.1535C19.3857 22.2461 19.5981 22.2392 19.8003 22.1342C20.3139 21.8697 20.4246 21.2578 20.4089 20.9379C20.3998 20.7514 20.2412 20.6197 20.0551 20.616C19.8685 20.624 19.7232 20.7823 19.7299 20.9688C19.7301 20.9731 19.7376 21.3764 19.4912 21.5261C19.4509 21.47 19.4033 21.3438 19.3853 21.2396C19.3566 21.0647 19.1959 20.943 19.0231 20.9569C18.8469 20.9708 18.7108 21.1188 18.7102 21.2957C18.71 21.3451 18.6991 21.7811 18.3625 21.8177C18.3233 21.7642 18.3226 21.5392 18.3612 21.3729C18.3937 21.2365 18.339 21.0941 18.2236 21.0145C18.108 20.9346 17.9555 20.9346 17.8394 21.0133L17.6498 21.1423C17.5597 19.1716 17.3522 16.8752 17.3497 16.8458C17.3328 16.6593 17.1685 16.5202 16.9805 16.5382C16.7936 16.5551 16.6558 16.7204 16.6728 16.9076C16.6757 16.9391 16.9157 19.596 16.9897 21.625C16.9723 21.6415 16.9544 21.6596 16.9375 21.6754C16.8031 21.3366 16.5367 21.1232 16.1936 21.0907C15.7094 21.0479 15.1848 21.3774 14.9967 21.848C14.8346 22.2529 14.9367 22.6509 15.2565 22.8615C15.4865 23.0132 15.8336 23.0609 16.27 22.908C16.1634 23.2823 15.9694 23.662 15.7172 23.9557C15.4914 24.2188 15.1142 24.5224 14.6316 24.5089C14.3506 24.4978 14.1348 24.4059 13.9716 24.2274C13.5782 23.7976 13.6121 23.0198 13.6124 23.0115C13.6221 22.8243 13.4788 22.6647 13.2918 22.6544C13.1034 22.6345 12.944 22.7875 12.9337 22.975C12.9313 23.0181 12.882 24.0403 13.4672 24.6831C13.7553 25 14.138 25.1696 14.6048 25.1879C14.6276 25.1889 14.6504 25.1891 14.6732 25.1891C15.2417 25.1891 15.7932 24.9103 16.2326 24.3983C16.6459 23.9171 16.9265 23.2634 17.0107 22.6565C17.0096 23.819 16.309 25.1302 15.3802 25.7078C14.9858 25.9527 14.3709 26.1737 13.6782 25.8322C12.8243 25.4107 12.926 24.4348 12.9305 24.3949C12.9539 24.2087 12.8217 24.0389 12.6355 24.0156C12.4502 23.9931 12.2793 24.1241 12.2562 24.3106C12.2486 24.3714 12.0853 25.804 13.3775 26.4415C13.7094 26.6054 14.0565 26.6867 14.4063 26.6867C14.8556 26.6867 15.3091 26.5523 15.739 26.2848C16.8699 25.5819 17.6907 24.0548 17.6907 22.6537C17.6906 22.4347 17.6864 22.1954 17.6794 21.9437ZM15.6303 22.294C15.5696 22.2538 15.617 22.1255 15.6273 22.0999C15.6989 21.9207 15.9227 21.7657 16.1015 21.7657C16.1107 21.7657 16.12 21.766 16.1289 21.767C16.1723 21.771 16.2877 21.7819 16.3373 22.0385C16.3425 22.0657 16.347 22.0935 16.3505 22.1221C15.9718 22.3445 15.7179 22.3516 15.6303 22.294Z" fill="#F5F5F5"/>
<path d="M12.0854 25.4194C11.9244 25.3248 11.7164 25.3789 11.6208 25.5399C11.6052 25.5661 11.5845 25.5947 11.5634 25.6205C11.5597 25.6119 11.5561 25.6026 11.5524 25.5926C11.4107 25.2146 11.5116 24.6322 11.5625 24.4397C11.6105 24.2585 11.5026 24.0727 11.3215 24.0241C11.1407 23.9776 10.9546 24.0832 10.906 24.2645C10.8813 24.3564 10.6724 25.1814 10.916 25.8312C11.0719 26.2467 11.3114 26.3516 11.4849 26.3657C11.5003 26.367 11.5156 26.3677 11.5307 26.3677C11.8965 26.3677 12.14 25.999 12.2077 25.8822C12.3015 25.7204 12.2465 25.5144 12.0854 25.4194Z" fill="#F5F5F5"/>
<path d="M18.3563 19.2552C18.4298 19.2552 18.5038 19.2316 18.5659 19.1825L20.2792 17.8375C20.3028 17.819 20.318 17.7947 20.3353 17.7718C20.582 17.623 20.7489 17.355 20.7489 17.0465C20.7489 16.578 20.3678 16.1969 19.8993 16.1969C19.4309 16.1969 19.0497 16.5779 19.0497 17.0465C19.0497 17.3087 19.1716 17.5405 19.3587 17.6964L18.1461 18.6484C17.9985 18.7642 17.9729 18.9779 18.0887 19.1252C18.1558 19.2107 18.2556 19.2552 18.3563 19.2552ZM19.8994 16.8765C19.9932 16.8765 20.0693 16.9528 20.0693 17.0464C20.0693 17.1401 19.9932 17.2163 19.8994 17.2163C19.8057 17.2163 19.7295 17.1401 19.7295 17.0464C19.7295 16.9528 19.8057 16.8765 19.8994 16.8765Z" fill="#F5F5F5"/>
<path d="M19.4972 18.9331C19.3182 18.8734 19.1265 18.9699 19.0673 19.1478C19.0309 19.2566 18.8666 19.8172 19.1997 20.15C19.329 20.2794 19.4988 20.3441 19.7074 20.3437C19.8468 20.3437 20.0034 20.3152 20.1768 20.2571C20.3549 20.198 20.4511 20.0056 20.3917 19.8273C20.3323 19.6494 20.1402 19.5525 19.9617 19.6126C19.7719 19.6756 19.6916 19.6654 19.6843 19.6719C19.6642 19.6215 19.6774 19.4698 19.7123 19.3613C19.7711 19.1839 19.6749 18.9921 19.4972 18.9331Z" fill="#F5F5F5"/>
<path d="M23.3867 17.5282C23.4186 17.5374 23.4506 17.5417 23.4821 17.5417C23.6293 17.5417 23.7648 17.4456 23.8082 17.2971L24.0064 16.6175C24.059 16.4374 23.9555 16.2485 23.7755 16.196C23.5948 16.1439 23.4066 16.2468 23.354 16.427L23.1557 17.1066C23.1031 17.2871 23.2066 17.4758 23.3867 17.5282Z" fill="#F5F5F5"/>
<path d="M21.406 17.4884C21.4599 17.52 21.5191 17.5349 21.5772 17.5349C21.694 17.5349 21.8076 17.4749 21.8708 17.3667C21.9655 17.2048 21.9111 16.9963 21.749 16.9018C21.6807 16.862 21.69 16.7495 21.6925 16.7272C21.7027 16.6379 21.7559 16.5291 21.8485 16.5002C22.0277 16.4446 22.1278 16.2541 22.072 16.0749C22.0159 15.8954 21.8258 15.796 21.6463 15.8511C21.3075 15.9566 21.0606 16.2703 21.0171 16.65C20.9769 17.0033 21.1259 17.3246 21.406 17.4884Z" fill="#F5F5F5"/>
<path d="M18.71 22.9933C18.5223 22.9933 18.3702 23.1452 18.3702 23.3331C18.3702 23.499 18.489 23.6371 18.6463 23.6669C18.6641 23.6931 18.7099 23.7831 18.7099 24.0127C18.7099 24.2005 18.8621 24.3526 19.0498 24.3526C19.2375 24.3526 19.3896 24.2006 19.3896 24.0127C19.3897 23.0049 18.7378 22.9933 18.71 22.9933Z" fill="#F5F5F5"/>
<path d="M24.475 21.5862C24.5177 21.5932 24.5602 21.5965 24.6029 21.5965C24.8699 21.5965 25.1396 21.4618 25.4068 21.1946C25.5395 21.0619 25.5395 20.8468 25.4068 20.7141C25.2741 20.5814 25.059 20.5814 24.9263 20.7141C24.7231 20.9175 24.6137 20.9218 24.5857 20.9155C24.5208 20.9062 24.4621 20.8216 24.449 20.7984C24.3637 20.6331 24.1616 20.5672 23.9952 20.6504C23.8273 20.7343 23.7591 20.9384 23.8432 21.1063C23.8642 21.1485 24.0604 21.5188 24.475 21.5862Z" fill="#F5F5F5"/>
<path d="M30.2515 19.1981C30.2494 19.1929 30.2473 19.1879 30.2457 19.1832C30.1854 19.0067 29.9929 18.9107 29.8168 18.9708C29.6385 19.0299 29.5423 19.2223 29.6017 19.4006C29.6282 19.4802 29.7796 19.8798 30.1546 19.9302C30.1797 19.9335 30.2046 19.9352 30.2293 19.9352C30.4648 19.9352 30.6856 19.7828 30.8866 19.4814C30.9906 19.3255 30.9484 19.1144 30.7922 19.0103C30.6359 18.9063 30.4249 18.9481 30.321 19.1046C30.2942 19.1447 30.2709 19.1753 30.2515 19.1981Z" fill="#F5F5F5"/>
<path d="M29.5844 25.372C29.5844 23.9228 29.5208 22.5634 29.4323 21.3722C29.9148 22.209 30.3489 23.0546 30.6254 23.7923C30.6767 23.9287 30.8061 24.0127 30.9436 24.0127C30.9833 24.0127 31.0236 24.0057 31.0628 23.9911C31.2386 23.9251 31.3277 23.7293 31.2618 23.5534C30.8316 22.4067 30.0586 21.0411 29.2965 19.8288C29.1108 17.9982 28.9028 16.8363 28.8992 16.8156C28.8657 16.6309 28.6891 16.5061 28.5042 16.5421C28.3195 16.5756 28.197 16.7524 28.2305 16.937C28.2333 16.9518 28.3403 17.5503 28.4683 18.5576C28.2072 18.1702 27.9646 17.8207 27.7611 17.533L27.7777 17.5383C27.9567 17.5979 28.1482 17.5015 28.2077 17.3235C28.2671 17.1453 28.1709 16.9528 27.9928 16.8938L26.9733 16.5539C26.8319 16.5062 26.6767 16.5566 26.5902 16.6774C26.5671 16.7097 26.5512 16.745 26.5405 16.7815C26.3371 16.6312 26.0761 16.5089 25.8312 16.6114C25.6831 16.6729 25.5065 16.8274 25.5065 17.216C25.5065 17.5144 25.6203 17.8369 25.741 18.1787C25.9411 18.7455 26.0664 19.1623 25.8545 19.3611C25.7374 19.4709 25.6203 19.5124 25.5062 19.4836C25.2966 19.4305 25.0892 19.1514 24.951 18.7369C24.945 18.7189 24.9325 18.7059 24.9239 18.6897C24.9954 18.1634 24.9642 17.5292 24.8202 16.8096C24.7836 16.6254 24.6049 16.5056 24.4203 16.5431C24.2362 16.5799 24.117 16.7588 24.1538 16.943C24.3757 18.0526 24.3091 18.9579 23.9757 19.3645C23.8468 19.5219 23.6853 19.5948 23.4675 19.5948C23.3987 19.5948 23.3517 19.5729 23.305 19.5191C23.0369 19.2102 23.038 18.2133 23.1245 17.6036C23.1383 17.5064 23.1091 17.4075 23.0445 17.3331C22.98 17.2588 22.8864 17.216 22.788 17.216C22.2033 17.216 21.9816 17.8811 21.7859 18.4678C21.7002 18.7257 21.5402 19.2052 21.4287 19.255C21.223 19.255 21.09 18.651 21.0888 18.2352C21.0883 18.0477 20.9364 17.896 20.749 17.896C20.749 17.896 20.7487 17.896 20.7484 17.896C20.5609 17.896 20.4091 18.048 20.4091 18.2354C20.4091 19.0192 20.676 19.9346 21.4286 19.9346C21.9889 19.9346 22.2159 19.3239 22.4059 18.7564C22.4389 19.2077 22.5409 19.6753 22.7914 19.9641C22.9675 20.1672 23.2011 20.2743 23.4675 20.2743C23.8871 20.2743 24.2444 20.1087 24.5012 19.7954C24.5478 19.7388 24.5879 19.6736 24.6274 19.6079C24.8247 19.8884 25.0668 20.0734 25.3395 20.1423C25.4195 20.1625 25.5 20.1728 25.5796 20.1728C25.8419 20.1728 26.0982 20.0645 26.3196 19.8564C26.3656 19.8131 26.398 19.7659 26.4331 19.7193C26.5162 19.7431 26.6005 19.7571 26.6841 19.7571C26.9594 19.7571 27.2245 19.6463 27.3889 19.5407C27.5463 19.4398 27.5918 19.2314 27.4919 19.0734C27.3918 18.9158 27.1824 18.8687 27.024 18.9676C27.0211 18.9689 26.7941 19.0994 26.6393 19.0687C26.6397 18.6962 26.5049 18.3006 26.3819 17.9521C26.3119 17.7535 26.24 17.5502 26.2061 17.384C26.2341 17.4076 26.2615 17.4321 26.286 17.456C26.4184 17.5887 26.6337 17.5887 26.7664 17.456C26.7883 17.434 26.801 17.4073 26.8157 17.3816C27.1679 17.8669 27.8924 18.8866 28.6377 20.0621C28.7799 21.5069 28.9047 23.35 28.9047 25.3715C28.9047 25.5593 29.0569 25.7113 29.2446 25.7113C29.4323 25.7117 29.5844 25.5599 29.5844 25.372Z" fill="#F5F5F5"/>
<path d="M29.9241 17.8959C29.9241 18.0837 30.0762 18.2358 30.2639 18.2358C30.4516 18.2358 30.6038 18.0838 30.6038 17.8959C30.6038 17.496 30.2909 16.8499 30.2281 16.7244C30.1441 16.5569 29.9402 16.4892 29.7721 16.5725C29.6043 16.6565 29.5361 16.8606 29.6202 17.0284C29.7427 17.2737 29.9241 17.7187 29.9241 17.8959Z" fill="#F5F5F5"/>
<path d="M28.3779 25.4091C28.2113 25.3241 28.0066 25.3915 27.9217 25.5588C27.8852 25.6301 27.8287 25.7095 27.7809 25.7606C27.7659 25.6255 27.8018 25.3557 27.8704 25.1321C27.916 24.9827 27.854 24.8214 27.7204 24.7411C27.5872 24.6606 27.4154 24.6815 27.3051 24.7919L26.6255 25.4715C26.4928 25.6042 26.4928 25.8193 26.6255 25.952C26.7583 26.0847 26.9733 26.0847 27.106 25.952L27.1233 25.9347C27.1527 26.0711 27.2089 26.1955 27.3052 26.2918C27.4327 26.4193 27.5867 26.4866 27.7467 26.4866C27.7778 26.4866 27.8089 26.4839 27.8402 26.479C28.2251 26.4166 28.4648 25.9922 28.529 25.8637C28.6125 25.6961 28.5449 25.4935 28.3779 25.4091Z" fill="#F5F5F5"/>
<path d="M28.2463 22.6746H25.8512C25.8724 22.5901 25.8943 22.5093 25.9167 22.4328C26.8717 22.2342 27.4394 21.9259 27.6063 21.5146C27.664 21.3719 27.7243 21.0835 27.4785 20.752C27.2569 20.4533 26.9442 20.3193 26.6194 20.3856C26.1365 20.4834 25.7062 21.0038 25.3975 21.8368C24.4383 22.001 23.8242 22.3454 23.4354 22.6851C23.2975 21.2925 22.757 20.4653 22.7306 20.4259C22.6264 20.2696 22.4153 20.2274 22.2594 20.3316C22.1033 20.4358 22.0612 20.6465 22.1651 20.8028C22.1713 20.8121 22.7877 21.7548 22.7877 23.3329C22.7877 24.8839 21.5509 26.0514 20.7488 26.0514C20.3673 26.0514 20.2002 25.5979 20.1268 25.2143C20.9122 24.6639 21.6052 24.027 21.7582 23.4151C21.9653 22.5871 21.7047 21.9768 21.5322 21.573C21.5241 21.5544 21.5156 21.5345 21.507 21.5139C21.5143 21.5205 21.5213 21.5275 21.5282 21.5341C21.6606 21.6668 21.8759 21.6668 22.0086 21.5341C22.1413 21.4014 22.1413 21.1864 22.0086 21.0537C21.8099 20.8548 21.4242 20.5425 21.0735 20.6893C20.9254 20.7507 20.7488 20.9053 20.7488 21.2939C20.7488 21.4695 20.8221 21.641 20.9071 21.8401C21.0601 22.1982 21.2505 22.6439 21.0987 23.2504C21.009 23.6094 20.5681 24.0449 19.9864 24.4773C19.924 24.4027 19.834 24.3526 19.7293 24.3526H19.7287C19.5412 24.3529 19.3893 24.5045 19.3893 24.692C19.3893 24.7532 19.3921 24.8185 19.396 24.8856C18.6687 25.3566 17.8458 25.7925 17.2097 26.0818C17.039 26.1595 16.9635 26.3609 17.0411 26.5318C17.098 26.6569 17.2215 26.7309 17.3506 26.7309C17.3976 26.7309 17.4455 26.7213 17.491 26.7004C17.682 26.6136 18.5889 26.191 19.5206 25.6137C19.6922 26.1962 20.0557 26.7311 20.7487 26.7311C21.5639 26.7311 22.4887 26.0645 23.0224 25.0693C23.0869 25.183 23.1609 25.292 23.2493 25.3937C24.1047 26.38 25.7754 26.3912 25.8461 26.3912C26.0291 26.3912 26.1791 26.2465 26.1857 26.0637C26.1922 25.8808 26.0528 25.7255 25.8704 25.7126C25.8676 25.7123 25.5968 25.6825 25.4463 25.5066C25.3553 25.4004 25.319 25.2543 25.335 25.0603C25.3698 24.6415 26.7207 24.3285 27.9112 24.31C28.0531 24.3077 28.1787 24.2177 28.2262 24.084L28.5661 23.1284C28.603 23.0245 28.5872 22.9086 28.5234 22.8188C28.4604 22.7284 28.3566 22.6746 28.2463 22.6746ZM26.7547 21.0519C26.7611 21.0506 26.7697 21.0486 26.7805 21.0486C26.8131 21.0486 26.8643 21.0645 26.9327 21.1568C26.9456 21.1741 26.987 21.233 26.9765 21.259C26.9376 21.3552 26.7029 21.5142 26.2141 21.6582C26.4291 21.2387 26.6393 21.0751 26.7547 21.0519ZM24.7024 25.519C24.3572 25.4068 24.0053 25.2289 23.7618 24.9472C23.4941 24.6376 23.3953 24.246 23.4601 23.7505C23.4699 23.7245 23.4922 23.6732 23.531 23.6065C24.0095 23.5626 25.288 23.7512 25.3765 24.1173C24.9822 24.3186 24.6918 24.6016 24.6582 25.0039C24.6413 25.2058 24.6619 25.3767 24.7024 25.519Z" fill="#F5F5F5"/>
<path d="M31.9456 17.7884L31.6058 16.7689C31.551 16.6051 31.381 16.5071 31.2123 16.5442C31.0429 16.5804 30.928 16.738 30.9452 16.9102C31.1797 19.2551 31.6233 23.8281 31.6233 24.3525C31.6233 24.8234 30.7857 25.7505 29.4324 26.4273C29.2645 26.5113 29.1963 26.7153 29.2804 26.8833C29.34 27.0024 29.4599 27.071 29.5847 27.071C29.6357 27.071 29.6876 27.0594 29.7364 27.0352C30.9726 26.417 32.303 25.3139 32.303 24.3525C32.303 23.8504 31.9557 20.2379 31.7568 18.2086C31.9178 18.1398 32.002 17.9578 31.9456 17.7884Z" fill="#F5F5F5"/>
<path d="M34.7812 20.8549C34.8466 20.9203 34.9335 20.9545 35.0216 20.9545C35.079 20.9545 35.1369 20.9399 35.1895 20.9099C35.3224 20.8343 35.3884 20.679 35.3508 20.5306C35.29 20.2918 35.2696 19.993 35.3019 19.871C35.4721 19.8762 35.6301 19.7552 35.6551 19.5796C35.6816 19.3937 35.5525 19.2215 35.3668 19.195C35.1421 19.1645 34.9448 19.2305 34.807 19.3838C34.7178 19.4834 34.6647 19.6111 34.6359 19.7485L34.2423 19.355C34.1096 19.2222 33.8945 19.2222 33.7618 19.355C33.6291 19.4877 33.6291 19.7027 33.7618 19.8354L34.7812 20.8549Z" fill="#F5F5F5"/>
<path d="M35.5459 21.2092L34.2716 22.1225C34.1191 22.2316 34.0839 22.4441 34.1932 22.5967C34.2597 22.6893 34.3639 22.7384 34.4699 22.7384C34.5385 22.7384 34.6076 22.7178 34.6676 22.6747L35.9419 21.7614C36.0943 21.6523 36.1296 21.4399 36.0202 21.2872C35.9106 21.1345 35.6979 21.0989 35.5459 21.2092Z" fill="#F5F5F5"/>
<path d="M35.4329 22.4871C35.326 22.6248 35.3413 22.8187 35.4627 22.9378C35.4772 22.9624 35.5435 23.0924 35.5315 23.427C35.5249 23.6147 35.6716 23.7721 35.8591 23.7787C35.8632 23.779 35.8674 23.779 35.8714 23.779C36.0536 23.779 36.2043 23.6346 36.2108 23.4515C36.2355 22.7579 36.0086 22.5044 35.9098 22.4276C35.762 22.3119 35.5481 22.3392 35.4329 22.4871Z" fill="#F5F5F5"/>
<path d="M38.3985 24.9897C38.5862 24.9897 38.7384 24.8378 38.7384 24.6499C38.7384 24.1485 38.7126 23.5887 38.6705 23.0064C39.0075 23.5586 39.2874 24.0676 39.4669 24.4863C39.522 24.6154 39.6473 24.6924 39.7793 24.6924C39.8239 24.6924 39.8693 24.6838 39.913 24.6648C40.0854 24.5908 40.1653 24.391 40.0913 24.2188C39.7802 23.4927 39.1987 22.531 38.5365 21.5382C38.4032 20.2909 38.2291 19.0687 38.0937 18.1921C38.1657 18.1994 38.2404 18.1818 38.3059 18.1392C38.4133 18.0705 38.4636 17.9511 38.4563 17.8322C38.465 17.8656 38.4744 17.8991 38.4939 17.9299C38.4963 17.9332 38.7146 18.2938 38.6178 18.7619C38.5797 18.9454 38.6979 19.1253 38.8817 19.1634C38.905 19.1679 38.9282 19.1704 38.9509 19.1704C39.1086 19.1704 39.25 19.0598 39.2834 18.8993C39.4368 18.1569 39.0824 17.5889 39.0674 17.5649C38.9665 17.4069 38.7563 17.3605 38.598 17.4607C38.4903 17.5294 38.4393 17.6489 38.4463 17.768C38.4375 17.7345 38.4278 17.7007 38.408 17.6699L37.8345 16.7779C37.7469 16.6418 37.5754 16.5867 37.425 16.6452C37.2741 16.7043 37.1858 16.8612 37.2139 17.0205C37.2186 17.0473 37.4783 18.5385 37.7085 20.3358C37.4479 19.9679 37.1875 19.6083 36.9349 19.2649C36.8938 18.7508 36.8526 18.2755 36.817 17.8824C36.8357 17.8768 36.8542 17.8695 36.8723 17.8605C37.0401 17.7765 37.1083 17.5724 37.0242 17.4046L36.6844 16.725C36.611 16.5783 36.4436 16.5053 36.286 16.5504C36.1286 16.5962 36.026 16.7474 36.0423 16.9107C36.0828 17.3163 36.125 17.7652 36.1664 18.2368C35.9515 17.9535 35.7526 17.6941 35.5824 17.4745C35.6156 17.446 35.6439 17.4105 35.6648 17.3686C35.7488 17.2008 35.6808 16.9967 35.5129 16.9127L34.8333 16.5728C34.6907 16.5018 34.5177 16.539 34.417 16.6632C34.3168 16.7873 34.3162 16.9644 34.416 17.0892C34.4344 17.1121 35.2711 18.1609 36.272 19.5146C36.4456 21.7598 36.5612 24.0955 36.3979 24.5851C36.3681 24.6747 36.3159 24.7802 36.267 24.784C36.0616 24.8125 35.5714 24.3533 35.3252 23.8611C35.1833 23.5777 34.9792 23.5482 34.87 23.5531C34.5048 23.5757 34.3623 23.9775 34.1033 24.707C33.9177 25.2297 33.687 25.8795 33.428 26.1453C33.2877 25.9738 33.1063 25.3985 33.0055 24.8074C33.0527 24.9381 33.1751 25.0326 33.3222 25.0326C33.5099 25.0326 33.662 24.8806 33.662 24.6927C33.662 24.1859 33.3076 20.3264 33.1097 18.2113C33.275 18.1449 33.3619 17.9601 33.3048 17.7889L32.9649 16.7693C32.9104 16.6055 32.7427 16.5088 32.5722 16.5443C32.4031 16.5802 32.2878 16.7371 32.3042 16.9091C32.5352 19.3333 32.9682 24.0157 32.9816 24.662C32.9808 24.6561 32.9796 24.6505 32.9788 24.6446C32.9524 24.4588 32.779 24.3313 32.5943 24.3562C32.4085 24.3831 32.2796 24.555 32.3061 24.7408C32.4053 25.4354 32.6589 26.6297 33.2429 26.8242C33.289 26.8398 33.3511 26.8537 33.4239 26.8537C33.5579 26.8537 33.728 26.8062 33.9021 26.632C34.2723 26.262 34.5228 25.5564 34.7437 24.9342C34.7936 24.7935 34.8528 24.6269 34.9085 24.4842C35.2202 24.9395 35.7642 25.5063 36.3152 25.462C36.509 25.4481 36.8614 25.3439 37.0427 24.8003C37.2233 24.2582 37.1519 22.3677 37.0302 20.5577C37.3165 20.959 37.603 21.3699 37.8765 21.7757C37.9825 22.7933 38.0583 23.8129 38.0583 24.6503C38.0588 24.8377 38.2109 24.9897 38.3985 24.9897Z" fill="#F5F5F5"/>
<path d="M40.9774 23.2023C40.7367 21.409 40.4013 19.3315 40.1889 18.0565C40.2848 18.0802 40.3893 18.0608 40.4736 17.9961C40.6229 17.8823 40.6515 17.6689 40.5376 17.5199L39.9217 16.7128C39.8266 16.5887 39.659 16.5449 39.5155 16.6076C39.372 16.6703 39.2899 16.8231 39.3167 16.9773C39.3228 17.0121 39.9288 20.5006 40.3036 23.2926C40.4468 24.3595 40.2378 25.313 39.7441 25.8426C39.4268 26.1828 39.0064 26.3367 38.4976 26.3071C38.3108 26.2972 38.1488 26.4378 38.1371 26.625C38.1254 26.8122 38.2675 26.9735 38.4549 26.9853C38.5123 26.989 38.5688 26.9906 38.6249 26.9906C39.2657 26.9906 39.8219 26.7558 40.2412 26.3057C40.8817 25.6189 41.1501 24.4876 40.9774 23.2023Z" fill="#F5F5F5"/>
<path d="M37.2387 25.4423C37.1138 25.5781 37.1234 25.7918 37.2555 25.92C37.274 25.9378 37.2961 25.9731 37.2962 25.9904C37.2964 26 37.2826 26.0286 37.2448 26.0664C37.1121 26.1991 37.1121 26.4141 37.2448 26.5468C37.3112 26.6132 37.3981 26.6464 37.4851 26.6464C37.572 26.6464 37.6591 26.6132 37.7255 26.5468C37.941 26.3314 37.9805 26.1127 37.9756 25.967C37.9652 25.6535 37.7516 25.451 37.7091 25.4135C37.5701 25.2927 37.3635 25.3073 37.2387 25.4423Z" fill="#F5F5F5"/>
<path d="M36.0409 32.8948H35.701H33.6622V32.5549C33.6622 32.3671 33.51 32.2151 33.3223 32.2151C33.1346 32.2151 32.9825 32.367 32.9825 32.5549V32.8948H14.972C15.6516 33.5744 17.0108 33.9143 18.0304 33.9143C18.7615 33.9143 27.8818 33.9143 32.9825 33.9143V34.5939C32.9825 34.7817 33.1346 34.9337 33.3223 34.9337H36.0409C36.6031 34.9337 37.0604 34.4764 37.0604 33.9142C37.0604 33.352 36.6031 32.8948 36.0409 32.8948ZM36.0409 34.254H33.6621V33.9142C35.2998 33.9142 36.3806 33.9142 36.3806 33.9142L36.3196 33.7313C36.355 33.7848 36.3806 33.8453 36.3806 33.9142C36.3806 34.1018 36.2282 34.254 36.0409 34.254Z" fill="#F5F5F5"/>
</g>
<defs>
<clipPath id="clip0_9_1890">
<rect width="50" height="50" fill="white" transform="translate(0.914062 0.318604)"/>
</clipPath>
</defs>
</svg>
