<svg width="51" height="51" viewBox="0 0 51 51" fill="none" xmlns="http://www.w3.org/2000/svg">
    <g clip-path="url(#clip0_9_1887)">
        <path
            d="M49.4816 8.93933H1.20592C0.729845 8.93933 0.343811 9.32527 0.343811 9.80134V40.8358C0.343811 41.3118 0.729845 41.6979 1.20592 41.6979H49.4817C49.9578 41.6979 50.3438 41.3118 50.3438 40.8358V9.80134C50.3437 9.32527 49.9577 8.93933 49.4816 8.93933Z"
            fill="#4173CD" />
        <path
            d="M50.3437 9.80132C50.3437 9.32524 49.9577 8.93921 49.4816 8.93921H45.6241L25.3438 22.2265L5.06343 8.93931H1.20592C0.729845 8.93931 0.343811 9.32524 0.343811 9.80132V12.0314L20.6241 25.3186L0.343811 38.6058V40.8358C0.343811 41.3119 0.729845 41.6979 1.20592 41.6979H5.06343L25.3438 28.4107L45.6241 41.6978H49.4816C49.9577 41.6978 50.3437 41.3118 50.3437 40.8357V38.6057L30.0634 25.3186L50.3437 12.0314V9.80132Z"
            fill="#F5F5F5" />
    </g>
    <defs>
        <clipPath id="clip0_9_1887">
            <rect width="50" height="50" fill="white" transform="translate(0.34375 0.318604)" />
        </clipPath>
    </defs>
</svg>
