<svg width="51" height="51" viewBox="0 0 51 51" fill="none" xmlns="http://www.w3.org/2000/svg">
    <g clip-path="url(#clip0_9_1882)">
        <path
            d="M17.3046 41.6977H1.49999C1.02391 41.6977 0.637878 41.3116 0.637878 40.8356V9.80107C0.637878 9.325 1.02391 8.93896 1.49999 8.93896H17.3046V41.6977Z"
            fill="#73AF00" />
        <path d="M33.9717 8.93945H17.3047V41.6982H33.9717V8.93945Z" fill="#FFE15A" />
        <path
            d="M49.7755 41.6977H33.9709V8.93909H49.7755C50.2516 8.93909 50.6376 9.32512 50.6376 9.8012V40.8357C50.6376 41.3118 50.2516 41.6977 49.7755 41.6977Z"
            fill="#FF4B55" />
        <path
            d="M25.837 20.414L26.9789 23.8381L30.5882 23.8661C30.7901 23.8677 30.8738 24.1253 30.7114 24.2451L27.8078 26.3891L28.8965 29.8304C28.9573 30.0229 28.7383 30.1821 28.574 30.0647L25.6378 27.9658L22.7014 30.0646C22.5371 30.182 22.3181 30.0228 22.3789 29.8303L23.4676 26.389L20.5641 24.245C20.4017 24.1251 20.4854 23.8675 20.6872 23.866L24.2965 23.838L25.4384 20.4139C25.5024 20.2225 25.7733 20.2225 25.837 20.414Z"
            fill="#73AF00" />
    </g>
    <defs>
        <clipPath id="clip0_9_1882">
            <rect width="50" height="50" fill="white" transform="translate(0.636719 0.318604)" />
        </clipPath>
    </defs>
</svg>
