<svg width="51" height="51" viewBox="0 0 51 51" fill="none" xmlns="http://www.w3.org/2000/svg">
<g clip-path="url(#clip0_9_1841)">
<path d="M0.0666504 30.7783H50.0666V40.8357C50.0666 41.3118 49.6805 41.6978 49.2044 41.6978H0.928758C0.452685 41.6978 0.0666504 41.3118 0.0666504 40.8357V30.7783Z" fill="#F5F5F5"/>
<path d="M0.928758 8.93933H49.2045C49.6806 8.93933 50.0667 9.32537 50.0667 9.80144V19.8588H0.0666504V9.80134C0.0666504 9.32527 0.452685 8.93933 0.928758 8.93933Z" fill="#FF4B55"/>
<path d="M50.0666 19.8586H0.0666504V30.7776H50.0666V19.8586Z" fill="#41479B"/>
<path d="M16.9633 19.8567H10.7563L10.4977 18.3049H17.2219L16.9633 19.8567Z" fill="#FFE15A"/>
<path d="M10.6915 19.4686L10.7562 19.8566H16.9631L17.0277 19.4686H10.6915Z" fill="#FFD350"/>
<path d="M13.9889 14.6838H13.731V15.7183H13.9889V14.6838Z" fill="#FFE15A"/>
<path d="M14.2481 14.9426H13.4722V15.2012H14.2481V14.9426Z" fill="#FFE15A"/>
<path d="M16.9837 18.8221C16.9544 18.8221 16.9247 18.817 16.8955 18.8067C16.7612 18.758 16.6918 18.6097 16.7405 18.4753L17.2884 16.9635C17.3155 16.8885 17.3091 16.806 17.2708 16.7371C17.2504 16.7004 17.2029 16.636 17.1122 16.6166C16.4443 16.4747 15.1497 16.236 13.985 16.236H13.7351C12.5704 16.236 11.2758 16.4747 10.6076 16.6168C10.5172 16.636 10.4695 16.7004 10.4492 16.7371C10.4109 16.806 10.4045 16.8885 10.4317 16.9635L10.9794 18.4753C11.0281 18.6097 10.9587 18.758 10.8244 18.8067C10.6902 18.8546 10.5417 18.7857 10.4932 18.6516L9.94531 17.1398C9.86719 16.9241 9.88584 16.6859 9.99668 16.4861C10.1038 16.2929 10.287 16.156 10.4995 16.1108C11.1877 15.9643 12.5227 15.7185 13.735 15.7185H13.9848C15.197 15.7185 16.532 15.9642 17.2199 16.1104C17.4327 16.1559 17.6159 16.2927 17.723 16.486C17.8339 16.6858 17.8525 16.9239 17.7745 17.1397L17.2265 18.6515C17.1888 18.7568 17.0893 18.8221 16.9837 18.8221Z" fill="#FFE15A"/>
<path d="M13.8612 18.5959C13.7184 18.5959 13.6026 18.4802 13.6026 18.3373V16.236C13.6026 16.093 13.7184 15.9774 13.8612 15.9774C14.004 15.9774 14.1198 16.093 14.1198 16.236V18.3373C14.1199 18.4801 14.0041 18.5959 13.8612 18.5959Z" fill="#FFE15A"/>
<path d="M15.6487 18.8221C15.6312 18.8221 15.6135 18.8204 15.5958 18.8169C15.456 18.7878 15.3661 18.6509 15.3952 18.511L15.7088 16.9992C15.7497 16.8022 15.6858 16.6297 15.6495 16.5994C15.2909 16.4678 14.5714 16.2359 13.9313 16.2359H13.7882C13.1482 16.2359 12.4288 16.4678 12.0568 16.6061C12.0338 16.6297 11.97 16.8021 12.0107 16.9991L12.3244 18.5109C12.3535 18.6508 12.2636 18.7878 12.1237 18.8168C11.9836 18.8438 11.8467 18.7559 11.818 18.616L11.5043 17.1042C11.4262 16.7273 11.5461 16.2447 11.8762 16.1215C12.3707 15.9377 13.1033 15.7186 13.7881 15.7186H13.9312C14.6162 15.7186 15.3488 15.9376 15.8429 16.1212C16.1733 16.2447 16.2932 16.7273 16.2151 17.1042L15.9014 18.616C15.8762 18.7383 15.7686 18.8221 15.6487 18.8221Z" fill="#FFE15A"/>
<path d="M10.5624 18.6928H17.1572L17.2219 18.3049H10.4977L10.5624 18.6928Z" fill="#FFD350"/>
<path d="M8.94573 19.8567C8.80295 19.8567 8.68713 19.9725 8.68713 20.1153V29.1471C8.68713 32.0148 11.0029 34.3395 13.8596 34.3395C16.7163 34.3395 19.032 32.0148 19.032 29.1471V20.1153C19.032 19.9725 18.9162 19.8567 18.7734 19.8567H8.94573Z" fill="#FF4B55"/>
<path d="M14.3772 28.3912L14.8945 27.0981L13.86 27.3567L12.8255 27.0981L13.3428 28.3912L12.0497 32.7878C12.0497 32.7878 12.8256 33.3051 13.8601 33.3051C14.8946 33.3051 15.6704 32.7878 15.6704 32.7878L14.3772 28.3912Z" fill="#F5F5F5"/>
<path d="M11.9868 29.4333L11.5304 29.5474L12.5342 27.7407L12.0821 27.4896L10.8629 29.6842H9.72195V30.2014H10.2776L9.56042 30.7752L9.88347 31.1793L10.4927 30.6918L10.2524 31.4127L10.7431 31.5762L11.2155 30.1591L12.1123 29.9349L11.9868 29.4333Z" fill="#FFE15A"/>
<path d="M12.0493 22.4428L10.8688 21.8525C10.652 21.7441 10.5395 21.4995 10.5983 21.2644L10.6651 20.9973C10.7114 20.8119 10.5712 20.6324 10.3801 20.6324C10.2909 20.6324 10.2065 20.673 10.1508 20.7427C9.53822 21.5084 9.20453 22.4598 9.20453 23.4404V28.9083C9.20453 28.9083 10.2845 28.6924 11.26 27.2734C11.4391 27.0128 11.7339 26.8586 12.0483 26.8425L11.5321 28.391L12.5666 28.6497L13.4718 27.5726L12.0493 22.4428Z" fill="#F5F5F5"/>
<path d="M15.7327 29.4333L16.189 29.5474L15.1852 27.7407L15.6374 27.4896L16.8565 29.6842H17.9975V30.2014H17.4418L18.1591 30.7752L17.836 31.1793L17.2267 30.6918L17.4671 31.4127L16.9763 31.5762L16.504 30.1591L15.6072 29.9349L15.7327 29.4333Z" fill="#FFE15A"/>
<path d="M15.6698 22.4428L16.8504 21.8525C17.0672 21.7441 17.1797 21.4995 17.1209 21.2644L17.0541 20.9973C17.0078 20.8119 17.1479 20.6324 17.339 20.6324C17.4283 20.6324 17.5127 20.673 17.5683 20.7427C18.1809 21.5084 18.5146 22.4598 18.5146 23.4404V28.9083C18.5146 28.9083 17.4346 28.6924 16.4592 27.2734C16.28 27.0128 15.9852 26.8586 15.6709 26.8425L16.1871 28.391L15.1526 28.6496L14.2474 27.5725L15.6698 22.4428Z" fill="#F5F5F5"/>
<path d="M12.309 20.6324H11.0159L11.4039 21.1497L12.309 21.4083L11.7917 21.6669H12.5676L12.309 20.6324Z" fill="#FFE15A"/>
<path d="M15.4122 20.6324H16.7053L16.3174 21.1497L15.4122 21.4083L15.9295 21.6669H15.1536L15.4122 20.6324Z" fill="#FFE15A"/>
<path d="M15.5934 20.4297L14.3768 20.6325L13.8595 21.6669L13.3422 20.6325L12.1256 20.4297C11.9862 20.4065 11.8791 20.5513 11.9424 20.6778L12.5664 21.9256L12.0491 22.4429H13.8595H15.6698L15.1526 21.9256L15.7765 20.6778C15.8398 20.5512 15.7328 20.4064 15.5934 20.4297Z" fill="#F5F5F5"/>
<path d="M13.8596 18.8061C14.0739 18.8061 14.2475 18.6324 14.2475 18.4182C14.2475 18.2039 14.0739 18.0303 13.8596 18.0303C13.6454 18.0303 13.4717 18.2039 13.4717 18.4182C13.4717 18.6324 13.6454 18.8061 13.8596 18.8061Z" fill="#FFBE50"/>
<path d="M13.8547 19.5595C14.024 19.5595 14.1612 19.463 14.1612 19.3439C14.1612 19.2249 14.024 19.1284 13.8547 19.1284C13.6854 19.1284 13.5482 19.2249 13.5482 19.3439C13.5482 19.463 13.6854 19.5595 13.8547 19.5595Z" fill="#41479B"/>
<path d="M12.3245 19.5595C12.4938 19.5595 12.631 19.463 12.631 19.3439C12.631 19.2249 12.4938 19.1284 12.3245 19.1284C12.1552 19.1284 12.0179 19.2249 12.0179 19.3439C12.0179 19.463 12.1552 19.5595 12.3245 19.5595Z" fill="#FF4B55"/>
<path d="M10.7943 19.5595C10.9636 19.5595 11.1008 19.463 11.1008 19.3439C11.1008 19.2249 10.9636 19.1284 10.7943 19.1284C10.625 19.1284 10.4877 19.2249 10.4877 19.3439C10.4877 19.463 10.625 19.5595 10.7943 19.5595Z" fill="#41479B"/>
<path d="M16.9151 19.5596C17.0844 19.5596 17.2217 19.4631 17.2217 19.3441C17.2217 19.225 17.0844 19.1285 16.9151 19.1285C16.7458 19.1285 16.6086 19.225 16.6086 19.3441C16.6086 19.4631 16.7458 19.5596 16.9151 19.5596Z" fill="#41479B"/>
<path d="M15.3841 19.5595C15.5534 19.5595 15.6907 19.463 15.6907 19.3439C15.6907 19.2249 15.5534 19.1284 15.3841 19.1284C15.2148 19.1284 15.0776 19.2249 15.0776 19.3439C15.0776 19.463 15.2148 19.5595 15.3841 19.5595Z" fill="#FF4B55"/>
<path d="M15.6558 18.8061C15.87 18.8061 16.0437 18.6324 16.0437 18.4182C16.0437 18.2039 15.87 18.0303 15.6558 18.0303C15.4415 18.0303 15.2679 18.2039 15.2679 18.4182C15.2679 18.6324 15.4415 18.8061 15.6558 18.8061Z" fill="#FFBE50"/>
<path d="M17.0739 18.8061C17.2882 18.8061 17.4618 18.6324 17.4618 18.4182C17.4618 18.2039 17.2882 18.0303 17.0739 18.0303C16.8597 18.0303 16.686 18.2039 16.686 18.4182C16.686 18.6324 16.8597 18.8061 17.0739 18.8061Z" fill="#FFBE50"/>
<path d="M12.0631 18.8061C12.2773 18.8061 12.451 18.6324 12.451 18.4182C12.451 18.2039 12.2773 18.0303 12.0631 18.0303C11.8489 18.0303 11.6752 18.2039 11.6752 18.4182C11.6752 18.6324 11.8489 18.8061 12.0631 18.8061Z" fill="#FFBE50"/>
<path d="M10.6441 18.8061C10.8583 18.8061 11.032 18.6324 11.032 18.4182C11.032 18.2039 10.8583 18.0303 10.6441 18.0303C10.4299 18.0303 10.2562 18.2039 10.2562 18.4182C10.2562 18.6324 10.4299 18.8061 10.6441 18.8061Z" fill="#FFBE50"/>
<path d="M14.3051 16.236C14.3495 16.1597 14.3769 16.0721 14.3769 15.9774C14.3769 15.6917 14.1453 15.4601 13.8596 15.4601C13.5738 15.4601 13.3423 15.6916 13.3423 15.9774C13.3423 16.0721 13.3695 16.1597 13.4141 16.236H14.3051Z" fill="#41479B"/>
<path d="M13.8594 27.7445C12.7898 27.7445 11.9197 26.8745 11.9197 25.8049V22.3135H15.799V25.8049C15.799 26.8746 14.929 27.7445 13.8594 27.7445Z" fill="#FF4B55"/>
<path d="M15.6701 22.4428V25.8049C15.6701 26.8047 14.8596 27.6152 13.8598 27.6152C12.86 27.6152 12.0495 26.8047 12.0495 25.8049V22.4428H15.6701ZM15.9288 22.1842H15.6702H12.0495H11.791V22.4428V25.8049C11.791 26.9457 12.7191 27.8738 13.8599 27.8738C15.0007 27.8738 15.9288 26.9457 15.9288 25.8049V22.4428V22.1842Z" fill="#A54B50"/>
<path d="M13.4728 27.5724C13.5979 27.5997 13.7274 27.6151 13.8607 27.6151C13.994 27.6151 14.1235 27.5996 14.2486 27.5724V22.4426H13.4727C13.4728 22.4426 13.4728 27.5724 13.4728 27.5724Z" fill="#F5F5F5"/>
<path d="M15.6713 24.5763H12.0502V25.3522H15.6713V24.5763Z" fill="#F5F5F5"/>
</g>
<defs>
<clipPath id="clip0_9_1841">
<rect width="50" height="50" fill="white" transform="translate(0.0664062 0.318604)"/>
</clipPath>
</defs>
</svg>
