<svg width="51" height="51" viewBox="0 0 51 51" fill="none" xmlns="http://www.w3.org/2000/svg">
<g clip-path="url(#clip0_9_1835)">
<path d="M1.22264 41.6978H49.4984C49.9745 41.6978 50.3605 41.3118 50.3605 40.8357V30.7783L0.834167 41.5943C0.952234 41.6553 1.08055 41.6978 1.22264 41.6978Z" fill="#73AF00"/>
<path d="M17.0274 8.93933H1.22283C0.746752 8.93933 0.360718 9.32537 0.360718 9.80144V40.8358C0.360718 41.0283 0.435815 41.197 0.542553 41.3405L17.0274 8.93933Z" fill="#41479B"/>
<path d="M0.615759 41.4472L33.6938 8.93933H17.0273L0.542419 41.3404C0.568201 41.3752 0.584997 41.4166 0.615759 41.4472Z" fill="#FFE15A"/>
<path d="M49.4983 8.93933H33.6937L0.615662 41.4473C0.651501 41.4828 0.699451 41.5029 0.741052 41.5318L50.3604 19.8588V9.80144C50.3604 9.32537 49.9744 8.93933 49.4983 8.93933Z" fill="#FF4B55"/>
<path d="M0.834497 41.5943L50.3607 30.7782V19.8588L0.741333 41.5316C0.77229 41.5531 0.800806 41.5771 0.834497 41.5943Z" fill="#F5F5F5"/>
</g>
<defs>
<clipPath id="clip0_9_1835">
<rect width="50" height="50" fill="white" transform="translate(0.359375 0.318604)"/>
</clipPath>
</defs>
</svg>
