<svg width="51" height="51" viewBox="0 0 51 51" fill="none" xmlns="http://www.w3.org/2000/svg">
<g clip-path="url(#clip0_9_1777)">
<path d="M49.9273 41.698H1.65166C1.17559 41.698 0.789551 41.3119 0.789551 40.8359V9.80144C0.789551 9.32537 1.17559 8.93933 1.65166 8.93933H49.9274C50.4035 8.93933 50.7896 9.32537 50.7896 9.80144V40.8359C50.7895 41.312 50.4034 41.698 49.9273 41.698Z" fill="#FFE15A"/>
<path d="M49.9265 8.93933H1.65085C1.44128 8.93933 1.25623 9.02332 1.10681 9.14773L50.4707 41.4896C50.6606 41.3315 50.7887 41.1024 50.7887 40.8358V9.80134C50.7887 9.32527 50.4026 8.93933 49.9265 8.93933Z" fill="#FF4B55"/>
<path d="M27.4324 23.0093C27.5289 22.9318 27.6087 22.8358 27.5784 22.755C27.5532 22.688 27.4287 22.6258 27.2969 22.56C27.0521 22.4378 26.7253 22.27 26.6168 21.8682C26.6039 21.867 26.5919 21.8681 26.5785 21.8657C26.4711 21.8458 26.4041 21.8827 26.3264 22.1351C26.3121 22.1811 26.2818 22.255 26.2417 22.3396C26.3222 22.3929 26.5231 22.5169 26.7189 22.5614C27.1068 22.6493 27.3457 22.7992 27.4324 23.0093Z" fill="#FFBE55"/>
<path d="M25.9272 22.8384C26.0431 22.9441 26.1494 23.064 26.254 23.1979C26.2601 23.2056 26.2665 23.2133 26.2727 23.2209C26.5325 23.0217 26.8627 23.0206 27.0927 23.0582C27.026 22.989 26.8961 22.9212 26.65 22.8652C26.4218 22.8134 26.2007 22.6842 26.0914 22.614C26.0407 22.695 25.9855 22.7718 25.9272 22.8384Z" fill="#FFBE55"/>
<path d="M27.244 23.9819C27.3657 24.0523 27.6103 24.2107 27.8221 24.4393C27.8534 24.2635 27.8441 24.0301 27.679 23.8247C27.5379 23.9027 27.3869 23.9521 27.244 23.9819Z" fill="#FFBE55"/>
<path d="M25.2186 21.9281L25.1778 21.9777C24.9746 22.2262 24.744 22.4971 24.5237 22.718C24.6578 22.6548 24.8158 22.6085 24.9796 22.5838C25.0382 22.4899 25.2167 22.241 25.4361 21.9411C25.3832 21.9074 25.2782 21.8559 25.2186 21.9281Z" fill="#FFBE55"/>
<path d="M24.4221 23.1876C24.4231 23.1893 24.437 23.2063 24.4758 23.2209C24.5433 23.2469 24.6684 23.2559 24.7989 23.1957C25.1788 23.019 25.5624 23.1157 25.9394 23.4805C25.9405 23.4816 25.9401 23.4833 25.9412 23.4844C25.9422 23.4855 25.944 23.4852 25.945 23.4863C25.9472 23.4884 26.0741 23.6158 26.3029 23.7324C26.1929 23.6168 26.0942 23.4991 26.0088 23.3899C25.8721 23.2152 25.7539 23.0645 25.6131 22.9746C25.256 22.7479 24.6339 22.9466 24.4581 23.1323C24.429 23.1628 24.4221 23.1828 24.4221 23.1876Z" fill="#FFBE55"/>
<path d="M27.3755 23.4132C27.3755 23.4132 27.3746 23.4133 27.3743 23.4135C27.3547 23.4227 27.3334 23.4272 27.3114 23.4277C27.3105 23.4277 27.3095 23.4284 27.3085 23.4284C27.3063 23.4284 27.3043 23.4263 27.302 23.4262C27.2861 23.4255 27.2698 23.4245 27.254 23.4187C27.2488 23.4167 26.7663 23.2468 26.4718 23.4601C26.5542 23.5528 26.6476 23.6383 26.7518 23.7164C26.8965 23.7197 27.3977 23.7111 27.6831 23.4444C27.8273 23.3098 27.8395 23.1627 27.8153 23.0471C27.7087 23.2138 27.5201 23.3444 27.3755 23.4132Z" fill="#FFBE55"/>
<path d="M22.9757 23.2545C22.9515 23.2193 22.9249 23.1887 22.9041 23.147C22.8698 23.0784 22.8518 23.0055 22.8335 22.9329C22.723 23.1102 22.6066 23.3862 22.6774 23.6916C22.7607 23.4941 22.8864 23.3439 22.9757 23.2545Z" fill="#FFBE55"/>
<path d="M25.6703 22.6599C25.8107 22.5132 25.9836 22.1876 26.028 22.0432C26.0707 21.9038 26.2007 21.48 26.6341 21.5585C26.7306 21.5764 26.802 21.515 26.8457 21.4609C26.7403 21.3407 26.6025 21.2627 26.4829 21.2599C26.3935 21.2514 26.2909 21.3082 26.2114 21.415C25.8216 21.9403 25.5249 22.3462 25.3643 22.5725C25.4723 22.585 25.5741 22.6165 25.6703 22.6599Z" fill="#FFBE55"/>
<path d="M24.6639 21.7144C24.4222 22.0371 24.1682 22.219 23.9829 22.3519C23.7388 22.527 23.6784 22.5864 23.6931 22.722C23.6961 22.7496 23.7079 22.77 23.7325 22.7895C23.765 22.8153 23.8117 22.8337 23.8649 22.8472C23.8681 22.8456 23.8701 22.8428 23.8736 22.8414C24.1651 22.7227 24.7456 22.0133 24.9366 21.7801L24.978 21.7298C25.1802 21.485 25.4651 21.583 25.6208 21.6892C25.6746 21.6163 25.7288 21.5427 25.783 21.4695C25.5014 21.1299 25.036 21.2186 24.6639 21.7144Z" fill="#FFBE55"/>
<path d="M27.122 21.6102C27.076 21.6766 27.0101 21.7457 26.9258 21.7974C27.0033 22.0549 27.2198 22.173 27.4362 22.2808C27.5646 22.3448 27.6855 22.4088 27.7728 22.4992C27.8458 22.2377 27.8363 22.0296 27.7353 21.885C27.5869 21.673 27.2716 21.6215 27.122 21.6102Z" fill="#FFBE55"/>
<path d="M25.9826 30.9614L26.0166 31C26.4457 31.4884 26.851 31.9602 27.1209 32.3574C27.1128 32.1429 27.0981 31.9207 27.0723 31.7663C27.0714 31.7614 27.0709 31.7562 27.0706 31.7512C26.9329 31.5733 26.7846 31.4074 26.6281 31.2672C26.1708 30.8585 25.913 30.4485 25.7687 30.1324C25.7442 30.4043 25.7752 30.7258 25.9826 30.9614Z" fill="#FFBE55"/>
<path d="M25.7631 29.385C25.7266 29.3208 25.6934 29.2516 25.6663 29.1746C25.6661 29.1739 25.6663 29.1733 25.666 29.1726C25.6638 29.1717 25.6615 29.1708 25.6592 29.1702C25.5657 29.3321 25.3946 29.4437 25.2115 29.4441C25.2115 29.4441 25.2109 29.4441 25.2107 29.4441C25.1965 29.4441 25.1839 29.4386 25.1701 29.4375C25.1463 29.5427 25.1386 29.6617 25.2052 29.7252C25.2802 29.7975 25.4325 29.7965 25.5122 29.7762C25.5509 29.6114 25.5937 29.4946 25.5991 29.4811C25.6256 29.4153 25.692 29.3769 25.7631 29.385Z" fill="#FFBE55"/>
<path d="M25.4573 30.0975C25.4409 30.0985 25.4258 30.1013 25.4085 30.1013C25.3621 30.1013 25.3138 30.095 25.2653 30.0854C25.2366 30.1931 25.2267 30.3146 25.2981 30.3877C25.3427 30.4334 25.408 30.4511 25.4614 30.4544C25.4497 30.3313 25.4469 30.2101 25.4573 30.0975Z" fill="#FFBE55"/>
<path d="M19.6571 23.1511L19.6563 23.1515C19.343 23.2564 18.971 23.2307 18.6456 23.1669C18.8354 23.4595 18.9079 23.8122 18.9164 24.14C19.3251 23.6069 19.7776 23.3627 20.1015 23.247C19.9349 23.2322 19.7846 23.2013 19.6571 23.1511Z" fill="#FFBE55"/>
<path d="M27.0428 30.9061C26.9721 30.9006 26.8126 30.8804 26.6233 30.8229C26.69 30.8934 26.7567 30.9639 26.8361 31.035C27.3578 31.5014 27.782 32.2116 28.059 32.7593C28.1578 32.4059 28.39 32.1028 28.6396 31.8728C27.9425 31.8267 27.3972 31.3412 27.0428 30.9061Z" fill="#FFBE55"/>
<path d="M23.515 25.1979C23.4007 25.1727 23.2723 25.1253 23.1473 25.0486C23.0638 25.3143 23.0054 25.5604 22.9733 25.7851C23.1461 25.7692 23.2768 25.7707 23.3657 25.7779C23.4083 25.5395 23.4672 25.3354 23.515 25.1979Z" fill="#FFBE55"/>
<path d="M18.592 24.4378C18.6294 24.0691 18.6094 23.4806 18.2004 23.127C18.1991 23.1268 18.198 23.1273 18.1965 23.1271C18.1839 23.1254 17.0146 22.9568 16.2341 23.754C15.9405 24.0539 15.7496 24.2887 15.5964 24.4772C15.3885 24.7331 15.2393 24.9168 14.9972 25.059C15.7296 25.32 17.5052 25.7599 18.592 24.4378Z" fill="#FFBE55"/>
<path d="M29.4559 19.7127C29.7826 19.8881 30.3342 20.0946 30.8167 19.8524C30.8174 19.8512 30.8174 19.8499 30.8179 19.8487C30.8241 19.8385 31.4267 18.8219 30.9889 17.7956C30.8242 17.4096 30.6802 17.1435 30.5643 16.9298C30.4076 16.6402 30.2947 16.4317 30.2557 16.1534C29.7351 16.7312 28.6495 18.203 29.4559 19.7127Z" fill="#FFBE55"/>
<path d="M29.0095 31.9716C28.7155 32.1971 28.3005 32.6144 28.323 33.1543C28.324 33.1556 28.3256 33.1563 28.3265 33.1578C28.3332 33.1675 29.0124 34.1345 30.1278 34.1569C30.5485 34.1654 30.8496 34.1435 31.0922 34.1256C31.4211 34.1013 31.6569 34.0846 31.9261 34.1626C31.6135 33.4509 30.7167 31.8584 29.0095 31.9716Z" fill="#FFBE55"/>
<path d="M26.5801 30.2073C26.5772 30.2011 26.5797 30.1945 26.5777 30.1882L26.3645 30.3702C26.5041 30.457 26.6514 30.5101 26.7774 30.5433C26.6518 30.3506 26.5827 30.2125 26.5801 30.2073Z" fill="#FFBE55"/>
<path d="M25.7009 28.1269C25.6417 28.1228 25.583 28.1166 25.5251 28.1063C25.4803 28.1786 25.3823 28.3844 25.5271 28.6438C25.581 28.7405 25.6717 28.8616 25.7981 28.8913C25.8735 28.9084 25.96 28.8831 26.0518 28.8341C25.8648 28.5316 25.7522 28.2651 25.7009 28.1269Z" fill="#FFBE55"/>
<path d="M28.8905 22.6387C29.0526 22.5174 29.3482 22.2895 29.6988 21.9898C29.804 21.3227 30.1932 20.7014 30.5415 20.2594C30.1872 20.3085 29.8239 20.2216 29.5178 20.0907C29.9274 21.1874 29.0404 22.4024 28.874 22.6167C28.8793 22.6243 28.8854 22.6309 28.8905 22.6387Z" fill="#FFBE55"/>
<path d="M26.134 30.1567L26.4164 29.9155C26.2328 29.8522 26.0568 29.7488 25.913 29.5916C25.9344 29.6909 25.9939 29.8953 26.134 30.1567Z" fill="#FFBE55"/>
<path d="M22.6499 25.8304C22.6855 25.5292 22.7647 25.1936 22.888 24.8274C22.809 24.7375 22.7397 24.6281 22.6846 24.4973C22.5388 24.8346 22.3282 25.3866 22.2469 25.9212C22.395 25.8822 22.5293 25.8522 22.6499 25.8304Z" fill="#FFBE55"/>
<path d="M28.1125 22.0292C28.148 22.2317 28.1249 22.4648 28.0277 22.7345C28.0862 22.8387 28.1355 22.9838 28.1356 23.1414C28.2589 23.1151 28.2679 23.0403 28.3061 22.6322L28.3224 22.4635C28.3377 22.3087 28.31 22.1905 28.2397 22.1129C28.2033 22.0726 28.1581 22.048 28.1125 22.0292Z" fill="#FFBE55"/>
<path d="M28.079 24.6957C28.1803 24.6747 28.3089 24.6306 28.4115 24.5359C28.5669 24.3924 28.7389 24.0886 28.7107 23.9521C28.7073 23.9351 28.703 23.9241 28.6733 23.9135C28.5606 23.8733 28.5266 23.8878 28.5268 23.8883C28.5199 23.8936 28.5071 23.922 28.4996 23.9387C28.4801 23.9818 28.4537 24.0404 28.3947 24.079C28.3048 24.1376 28.2198 24.1532 28.1415 24.1536C28.1643 24.3711 28.1214 24.5689 28.079 24.6957Z" fill="#FFBE55"/>
<path d="M22.362 23.328C22.3835 23.1849 22.4253 23.0513 22.4818 22.9315C22.198 22.8253 21.5566 22.6182 21.0326 22.6903C20.2926 22.7899 19.7298 22.707 19.3727 22.6111C19.5437 22.7874 19.8374 22.9707 20.2973 22.9516C21.4378 22.9289 22.0917 23.1868 22.362 23.328Z" fill="#FFBE55"/>
<path d="M20.9301 23.2832C20.6601 23.4946 20.4611 23.7487 20.3251 23.9656C20.7444 23.7482 21.2827 23.5313 21.6387 23.3951C21.4469 23.3466 21.211 23.3064 20.9301 23.2832Z" fill="#FFBE55"/>
<path d="M28.6097 23.5802C28.6578 23.5859 28.7101 23.5964 28.7706 23.6174C28.7682 23.6053 28.7663 23.5947 28.7631 23.5801C28.7441 23.4922 28.7196 23.3708 28.7258 23.1941C28.7257 23.1929 28.7251 23.192 28.7251 23.1909C28.7251 23.1898 28.7256 23.1888 28.7256 23.1876C28.7257 23.1839 28.7251 23.182 28.7253 23.1783C28.7328 23.0144 28.6777 22.8817 28.6055 22.7834C28.5842 22.9943 28.5567 23.1536 28.4819 23.2656C28.5263 23.3361 28.5786 23.4454 28.6097 23.5802Z" fill="#FFBE55"/>
<path d="M29.0128 22.9368C29.018 22.9596 29.0228 22.9827 29.0263 23.0064C29.9403 22.8824 30.5894 21.963 30.9637 21.2268C30.1682 22.0689 29.2744 22.7449 29.0128 22.9368Z" fill="#FFBE55"/>
<path d="M25.2105 29.1318H25.2107C25.2887 29.1314 25.3683 29.0727 25.4023 28.9951C25.3485 28.938 25.2978 28.8741 25.2542 28.7959C25.225 28.7436 25.2059 28.6934 25.1884 28.6438C25.1268 28.6812 25.0586 28.7345 25.028 28.8031C25.005 28.8539 25.006 28.9071 25.0308 28.9705C25.0597 29.044 25.1142 29.1318 25.2105 29.1318Z" fill="#FFBE55"/>
<path d="M21.922 26.0164C21.9843 25.4548 22.1889 24.8735 22.3508 24.485C22.2496 24.562 22.1233 24.641 21.9673 24.7158C21.9498 24.7546 21.6347 25.4605 21.515 26.1595C21.659 26.1047 21.7948 26.0572 21.922 26.0164Z" fill="#FFBE55"/>
<path d="M27.4485 30.9012C27.6305 30.9203 27.7992 30.9118 27.9458 30.8911C27.668 30.7963 27.3912 30.6708 27.1644 30.5579C27.2446 30.6676 27.3396 30.7859 27.4485 30.9012Z" fill="#FFBE55"/>
<path d="M25.2184 28.021C24.4678 27.736 23.8757 26.9282 23.6635 25.901C23.6011 26.2997 23.5971 26.7935 23.8094 27.2364C24.0395 27.7167 24.4952 28.0543 25.1489 28.253C25.163 28.1603 25.1894 28.0821 25.2184 28.021Z" fill="#FFBE55"/>
<path d="M29.2117 23.3008C29.1951 23.3043 29.1771 23.3041 29.1604 23.3072C29.3689 23.5354 30.207 24.5498 30.4339 26.3201C30.5899 26.3798 30.7352 26.441 30.8583 26.5031C30.7769 25.7828 30.4508 23.9607 29.2117 23.3008Z" fill="#FFBE55"/>
<path d="M21.1809 26.2934C21.2459 25.7547 21.4354 25.2008 21.5643 24.8724C21.4338 24.9132 21.2886 24.9492 21.1289 24.9796C20.8477 25.4509 20.6772 26.1577 20.5988 26.5567C20.8059 26.456 20.998 26.3705 21.1809 26.2934Z" fill="#FFBE55"/>
<path d="M26.2308 29.0967C26.1527 29.1423 26.0798 29.1719 26.0128 29.1883C26.1868 29.5327 26.5101 29.6502 26.7846 29.6808C26.5627 29.5051 26.3819 29.3008 26.2308 29.0967Z" fill="#FFBE55"/>
<path d="M23.9858 23.2603C24.0244 23.2425 24.0723 23.2288 24.1162 23.213C24.1154 23.2049 24.1133 23.1975 24.1132 23.1891C23.9305 23.1854 23.6916 23.1558 23.5381 23.0336C23.4486 22.962 23.395 22.8662 23.383 22.7561C23.3466 22.4242 23.5674 22.2657 23.801 22.0984C23.8962 22.0299 24.0043 21.9507 24.1166 21.8503C23.7748 21.8269 23.4681 21.9415 23.2778 22.1889C23.0894 22.4336 23.0534 22.7472 23.1834 23.0073C23.3609 23.3631 23.7438 23.3273 23.9858 23.2603Z" fill="#FFBE55"/>
<path d="M23.5635 23.6073C23.4727 23.5969 23.3847 23.5686 23.2998 23.5304C23.2866 23.7087 23.2976 23.9508 23.4132 24.0929C23.4161 24.0131 23.4258 23.9322 23.4492 23.8523C23.4715 23.776 23.5072 23.6914 23.5635 23.6073Z" fill="#FFBE55"/>
<path d="M24.7329 23.7146C25.1042 23.7438 25.3892 23.6494 25.5589 23.5695C25.2739 23.3662 25.0669 23.4147 24.9298 23.4786C24.7096 23.5811 24.4631 23.5746 24.2965 23.4786C24.235 23.5066 24.1684 23.5343 24.0905 23.5567C23.9164 23.6441 23.8032 23.7683 23.7531 23.9276C23.7373 23.9777 23.7347 24.0272 23.731 24.0763C23.7342 24.0736 23.7343 24.0686 23.7378 24.0661C24.095 23.8101 24.4296 23.6951 24.7329 23.7146Z" fill="#FFBE55"/>
<path d="M26.4285 28.0138C26.3011 28.064 26.1695 28.1011 26.0338 28.1194C26.1237 28.3337 26.3012 28.6985 26.5821 29.0408C26.7287 28.7941 26.5562 28.2634 26.4285 28.0138Z" fill="#FFBE55"/>
<path d="M23.4654 24.4863C23.134 24.3886 23.006 24.0846 22.9825 23.7706C22.9112 23.9198 22.873 24.1062 22.9444 24.3134C23.0881 24.729 23.4021 24.8502 23.5867 24.8887C23.5887 24.8404 23.5908 24.7921 23.5946 24.7441C23.5936 24.743 23.5921 24.7427 23.5911 24.7416C23.5481 24.6941 23.5009 24.602 23.4654 24.4863Z" fill="#FFBE55"/>
<path d="M22.356 23.6768C22.3447 23.6719 22.3321 23.673 22.3218 23.6654C22.32 23.6642 22.2485 23.6166 22.1152 23.556C21.6461 23.8092 21.3827 24.3256 21.2623 24.6332C22.1122 24.4272 22.3817 24.0406 22.4343 23.9503C22.3956 23.8584 22.3695 23.7669 22.356 23.6768Z" fill="#FFBE55"/>
<path d="M27.8475 27.1064C28.0052 26.7649 28.0391 26.3738 27.9557 25.9407C27.7672 26.8087 27.3061 27.5161 26.7089 27.876C26.7361 27.9308 26.7663 27.9986 26.7977 28.079C27.0322 27.9763 27.58 27.6856 27.8475 27.1064Z" fill="#FFBE55"/>
<path d="M28.2233 23.8178C28.2422 23.7669 28.2704 23.7143 28.3116 23.6702C28.2932 23.573 28.2547 23.4914 28.2222 23.439C28.1759 23.4513 28.1239 23.4603 28.0646 23.4662C28.0605 23.4665 28.0565 23.4668 28.0525 23.4669C28.0213 23.5251 27.9799 23.5823 27.9265 23.6378C27.9739 23.6978 28.0149 23.758 28.0449 23.82C28.053 23.8245 28.063 23.8218 28.0705 23.8277C28.0831 23.8368 28.1413 23.8715 28.2233 23.8178Z" fill="#FFBE55"/>
<path d="M28.6676 24.7195C28.8288 25.1428 28.9293 25.5281 28.9693 25.8682C29.0962 25.9013 29.2316 25.9377 29.3721 25.9772C29.2915 25.378 29.0396 24.7479 28.8905 24.4141C28.8243 24.5329 28.7441 24.6396 28.6676 24.7195Z" fill="#FFBE55"/>
<path d="M28.6421 25.7853C28.6006 25.5225 28.5215 25.2304 28.4053 24.9127C28.2732 24.9773 28.1434 25.0048 28.0478 25.0171C28.048 25.0336 28.0496 25.0497 28.0496 25.0663C28.0496 25.106 28.0464 25.1446 28.0453 25.1839C28.0491 25.1903 28.0545 25.195 28.0574 25.2021C28.1253 25.3674 28.1769 25.5279 28.2179 25.6851C28.2671 25.696 28.4224 25.7313 28.6421 25.7853Z" fill="#FFBE55"/>
<path d="M29.6978 26.0718C29.831 26.112 29.9645 26.1542 30.0946 26.198C29.8975 24.9351 29.3804 24.0957 29.0919 23.7174C29.0891 23.7782 29.0763 23.8441 29.0397 23.9202C29.0354 23.9293 29.0265 23.9335 29.0209 23.9413C29.0222 23.9584 29.0251 23.9753 29.0247 23.993C29.0362 24.0043 29.0474 24.016 29.0552 24.0313C29.0775 24.0749 29.6084 25.1175 29.6978 26.0718Z" fill="#FFBE55"/>
<path d="M25.8132 27.8226C26.8744 27.8226 27.7374 26.5862 27.7374 25.0663C27.7374 24.983 27.7347 24.9008 27.7297 24.8193C27.5235 24.5092 27.1629 24.2931 27.0561 24.2338C26.42 24.2224 25.9955 23.9392 25.8144 23.7893C25.6344 23.8937 25.2439 24.0644 24.7094 24.0257C24.4928 24.012 24.2447 24.0968 23.9679 24.2853C23.9156 24.5384 23.8889 24.8005 23.8889 25.0663C23.8889 26.5862 24.7522 27.8226 25.8132 27.8226Z" fill="#FFD7AA"/>
<path d="M18.2823 29.77C18.3107 29.7623 18.5969 29.6847 19.016 29.6502C20.9567 29.2128 23.2355 27.8207 23.6462 27.5631C23.6059 27.4989 23.5597 27.4388 23.5267 27.3696C23.3225 26.9425 23.2899 26.4864 23.324 26.0888C23.0316 26.0701 22.1399 26.1118 20.4625 26.9734C20.44 26.9849 20.4157 26.9904 20.3912 26.9904C20.3593 26.9904 20.3277 26.9808 20.3008 26.9615C20.2533 26.9278 20.2286 26.8701 20.2369 26.8124C20.2417 26.7778 20.3211 26.2352 20.5024 25.6582C19.5386 25.8603 17.5039 27.9138 16.3837 29.0454C16.1721 29.2596 15.9815 29.452 15.8202 29.611C15.7979 29.633 15.7743 29.6537 15.7504 29.6748C15.6088 29.7999 15.4626 29.9291 15.5662 30.6742C15.6617 31.362 16.5564 31.4324 17.2221 31.4368H17.2708C17.4803 31.4368 17.9847 31.6111 18.8584 31.9194C19.7068 32.2188 20.6684 32.5581 21.291 32.6747C21.5888 32.73 21.8683 32.78 22.1261 32.8259C22.913 32.9665 23.4817 33.0676 23.7793 33.1907C24.1406 33.3403 24.5389 34.0784 24.8841 34.7586L24.9504 34.8882C25.1537 35.2806 25.192 35.7719 25.0497 36.1696C24.9807 36.3635 25.03 36.465 25.0546 36.4999C25.0787 36.5341 25.107 36.5462 25.124 36.5462C25.2042 36.5462 25.2621 36.5462 25.3263 36.343C25.4074 36.0867 25.4277 36.0619 25.7686 35.6495L25.8617 35.537C26.2131 35.1108 25.8611 34.2364 25.6919 33.8159L25.6681 33.7569C25.5479 33.4562 25.6543 33.1405 25.7574 32.8354C25.8274 32.6278 25.8998 32.4133 25.8998 32.2081C25.8998 32.1634 25.8879 32.1333 25.8596 32.1064C25.6958 31.9513 25.1407 31.9808 24.7349 32.0016C24.5853 32.0097 24.4436 32.017 24.3221 32.017C23.694 32.017 22.6861 31.3892 21.2203 30.4312C20.4936 29.9571 19.6321 29.916 19.0474 29.9628C18.8053 30.0156 18.5675 30.0542 18.3382 30.075C18.2592 30.0819 18.1852 30.0274 18.1706 29.9478C18.1562 29.8692 18.2044 29.7915 18.2823 29.77Z" fill="#FFD7AA"/>
<path d="M36.2102 19.5236C35.9465 19.5792 35.9148 19.5732 35.3843 19.4765L35.2445 19.4513C34.6995 19.351 34.111 20.0888 33.8275 20.4418L33.7875 20.4914C33.5842 20.7434 33.2571 20.8047 32.9409 20.8644C32.7254 20.905 32.5026 20.9468 32.3236 21.0476C32.2848 21.0692 32.2643 21.0947 32.2547 21.1325C32.1994 21.3507 32.4968 21.8208 32.7141 22.1641C32.7942 22.2905 32.8699 22.4108 32.9294 22.5163C33.2367 23.0636 33.1825 24.25 33.0648 25.9975C33.0034 26.9097 33.4352 27.7165 33.7715 28.1976C33.9071 28.3507 34.0382 28.5124 34.1619 28.6818C34.2101 28.7477 34.1993 28.8395 34.1373 28.8923C34.0754 28.9459 33.9829 28.9414 33.9255 28.8838C33.9063 28.8643 33.7277 28.6823 33.5152 28.38C32.6621 27.4299 31.6148 26.8018 31.1791 26.5635C31.1904 26.6875 31.1948 26.7719 31.1955 26.7897C31.198 26.8507 31.1645 26.9071 31.1102 26.9347C31.0879 26.9457 31.0636 26.9514 31.0397 26.9514C31.0052 26.9514 30.9708 26.94 30.9426 26.9177C30.529 26.5884 29.0092 26.1881 28.2878 26.0208C28.3514 26.466 28.299 26.8742 28.1291 27.2402C27.9548 27.6158 27.6865 27.8801 27.4342 28.066C28.7574 29.701 31.891 30.3995 33.7777 30.8182C34.2635 30.9258 34.6832 31.0189 34.9917 31.1082C35.022 31.1172 35.0517 31.1272 35.0815 31.1378C35.26 31.2 35.4439 31.2646 36.0437 30.8091C36.5969 30.389 36.2255 29.5707 35.8978 28.9917L35.8739 28.9494C35.7716 28.767 35.6767 28.2417 35.518 27.329C35.3638 26.4425 35.1891 25.4376 34.9858 24.8375C34.888 24.5494 34.7944 24.2801 34.7078 24.0319C34.4457 23.2786 34.2562 22.7341 34.2181 22.4152C34.1718 22.0271 34.6199 21.319 35.0438 20.6856L35.1252 20.5628C35.3684 20.1931 35.7779 19.9197 36.1942 19.849C36.3967 19.8145 36.4612 19.7214 36.4796 19.6832C36.4975 19.6454 36.4944 19.6151 36.4862 19.6003C36.447 19.5309 36.4188 19.4792 36.2102 19.5236Z" fill="#FFD7AA"/>
<path d="M15.8891 19.4178C16.0709 19.6165 16.082 19.6466 16.2693 20.1487L16.3201 20.2844C16.514 20.8023 17.448 20.9341 17.8968 20.997L17.959 21.0059C18.2794 21.0518 18.4994 21.3014 18.7122 21.5432C18.8572 21.7077 19.0071 21.8775 19.185 21.9799C19.2239 22.0021 19.2562 22.0071 19.2933 21.9957C19.5095 21.9319 19.7613 21.4362 19.9452 21.0742C20.0133 20.9406 20.0776 20.8138 20.1384 20.7086C20.4515 20.1654 21.4988 19.6055 23.0611 18.8136C23.9222 18.3769 24.4015 17.5275 24.6299 16.9946C24.6824 16.8199 24.7414 16.6538 24.8078 16.4985C24.8401 16.4233 24.924 16.388 25.0014 16.412C25.0786 16.4384 25.1226 16.5196 25.1024 16.5988C25.0963 16.6228 25.0419 16.8276 24.919 17.1173C24.5011 18.5394 24.5198 20.5538 24.5477 21.3649C24.8628 21.02 25.1623 20.9419 25.3686 20.9419C25.5965 20.9419 25.805 21.0417 25.9716 21.2167C26.1462 20.9903 26.3452 20.9465 26.4902 20.9476C26.7535 20.9541 26.9717 21.123 27.1106 21.2986C27.2629 21.3063 27.6065 21.3469 27.8569 21.5613C28.2019 19.8678 27.4089 17.4615 26.8734 15.8408C26.7058 15.3334 26.5609 14.8949 26.47 14.5456C26.462 14.5151 26.4555 14.4843 26.4493 14.4529C26.4115 14.268 26.3724 14.0768 25.6755 13.7943C25.031 13.5315 24.5181 14.2705 24.1876 14.8475L24.1633 14.8901C24.0587 15.0717 23.6552 15.4221 22.9511 16.0254C22.2685 16.6104 21.4947 17.274 21.0831 17.755C20.8862 17.985 20.7033 18.202 20.5351 18.4021C20.0205 19.014 19.6485 19.4561 19.3932 19.6523C19.0827 19.8912 18.2437 19.8677 17.4809 19.8267L17.3374 19.8193C17.097 19.8088 16.8585 19.737 16.6444 19.6255L16.6267 19.6211L16.6162 19.6084C16.4489 19.517 16.2956 19.4042 16.1778 19.2656C16.1006 19.1747 16.0319 19.1365 15.978 19.1189L15.8065 19.157C15.7719 19.2191 15.7563 19.2729 15.8891 19.4178Z" fill="#FFD7AA"/>
<path d="M36.7585 19.4481C36.6344 19.2266 36.4452 19.156 36.1467 19.2181C35.9425 19.2612 35.9425 19.2608 35.4405 19.1698L35.3003 19.1441C34.5722 19.0117 33.9053 19.8462 33.5843 20.2464L33.5446 20.2955C33.4136 20.458 33.1678 20.5039 32.8832 20.5576C32.6432 20.6031 32.3946 20.6499 32.1709 20.7754C32.0584 20.8387 31.9825 20.9355 31.9522 21.0557C31.8643 21.4044 32.1622 21.8753 32.4504 22.3307C32.5273 22.4522 32.6001 22.5675 32.6572 22.6692C32.942 23.1766 32.8461 24.5999 32.7535 25.9765C32.7172 26.5165 32.8327 27.017 33.0038 27.4453C32.1191 26.6838 31.2706 26.2541 31.1331 26.1868C31.011 25.3601 30.6488 23.9018 29.5944 23.173C30.9655 22.5654 31.6172 20.4984 31.6483 20.3967C31.6705 20.324 31.6372 20.246 31.5693 20.2118C31.5018 20.1773 31.4187 20.1971 31.3736 20.2586C31.0154 20.7448 30.5549 21.2168 30.1201 21.6165C30.3862 20.8645 30.9774 20.208 31.2337 19.9495C31.2788 19.9109 31.323 19.8678 31.3657 19.8212C31.4218 19.7598 31.4199 19.6651 31.3613 19.6058C31.3404 19.5847 31.3123 19.5796 31.2853 19.5729C31.4446 19.1327 31.5926 18.4157 31.2758 17.673C31.1056 17.274 30.9577 17.0006 30.8389 16.7812C30.6257 16.3875 30.5284 16.208 30.5577 15.7924C30.5621 15.729 30.5278 15.6693 30.471 15.6416C30.4141 15.6132 30.3461 15.6225 30.2985 15.6647C30.2768 15.6839 28.2654 17.506 29.0293 19.5233C29.0063 19.5314 28.9816 19.5361 28.9638 19.5551C28.9096 19.6136 28.9081 19.7039 28.9608 19.7639C29.8178 20.7418 28.8681 22.1089 28.6505 22.3955C28.6456 22.3923 28.641 22.3881 28.6361 22.3849C28.6361 22.1898 28.5832 22.0268 28.4717 21.9035C28.3736 21.7952 28.2518 21.738 28.144 21.7074C28.551 19.9309 27.7578 17.5213 27.1704 15.7431C27.0045 15.2406 26.8611 14.807 26.7725 14.467C26.766 14.4418 26.761 14.4166 26.7557 14.391C26.6953 14.0952 26.5814 13.8246 25.7934 13.5053C24.8236 13.1128 24.1413 14.302 23.9175 14.6928L23.8937 14.7344C23.8106 14.8787 23.2706 15.3414 22.7486 15.7886C22.0574 16.381 21.2739 17.0526 20.8464 17.552C20.6492 17.7829 20.4659 18.0009 20.2968 18.2017C19.8135 18.7761 19.4321 19.2297 19.2035 19.4056C18.9586 19.5941 17.8972 19.5369 17.4982 19.5153L17.352 19.5076C16.994 19.4918 16.6355 19.3219 16.4162 19.0635C16.2559 18.8747 16.0539 18.7783 15.862 18.7941C15.7256 18.8067 15.607 18.8782 15.5449 18.9859C15.4181 19.2057 15.4537 19.4045 15.6601 19.6291C15.8008 19.7831 15.8008 19.7831 15.978 20.2581L16.0289 20.3946C16.2877 21.0861 17.3457 21.2348 17.8542 21.3068L17.9156 21.3153C18.1221 21.3449 18.2875 21.5327 18.4791 21.75C18.6147 21.9035 18.7612 22.0541 18.9335 22.1766C18.923 22.1819 18.9107 22.1823 18.9013 22.1901C18.8524 22.2307 18.8327 22.2965 18.8515 22.3571C18.8533 22.3624 18.9611 22.654 19.2501 22.9056C18.7943 22.9279 18.2733 22.7535 18.0644 22.6732C18.0313 22.6586 17.9969 22.6448 17.9616 22.6317C17.8824 22.6025 17.795 22.6427 17.7635 22.7203C17.7528 22.747 17.7525 22.7746 17.7566 22.8012C17.2888 22.8231 16.5737 22.962 16.0114 23.5357C15.7077 23.8462 15.5116 24.0871 15.3543 24.2808C15.072 24.6283 14.9429 24.7867 14.5479 24.9187C14.4877 24.9386 14.4457 24.993 14.4416 25.0564C14.4373 25.1198 14.4719 25.1792 14.529 25.2067C14.5451 25.2144 15.4731 25.6553 16.551 25.6553C17.2321 25.6553 17.9727 25.4783 18.5813 24.906C18.5975 24.9235 18.6107 24.9441 18.6344 24.9529C18.6523 24.9593 18.6706 24.9626 18.6886 24.9626C18.7465 24.9626 18.8015 24.93 18.8285 24.8756C19.2789 23.964 19.8998 23.6362 20.2613 23.5187C19.9391 23.9289 19.7974 24.3164 19.7895 24.3393C19.7663 24.4056 19.7905 24.4796 19.8487 24.5193C19.9069 24.559 19.9845 24.555 20.038 24.5091C20.2733 24.3088 20.8461 24.0508 21.3319 23.8526C21.0381 24.2549 20.9107 24.6818 20.8838 24.7801C20.7816 24.9443 20.6934 25.1336 20.6176 25.3298C19.6687 25.3641 17.898 27.0733 16.1626 28.8265C15.952 29.0394 15.7622 29.2308 15.6018 29.3888C15.5832 29.4072 15.564 29.4242 15.5443 29.4417C15.3184 29.6416 15.1406 29.8751 15.2577 30.7178C15.402 31.7546 16.7736 31.7523 17.2237 31.7494H17.2714C17.4376 31.7494 18.1075 31.9858 18.755 32.2141C19.6142 32.5176 20.5879 32.861 21.2342 32.9816C21.5328 33.0376 21.8134 33.0876 22.072 33.1335C22.8107 33.2652 23.3941 33.3697 23.6605 33.4796C23.9455 33.5974 24.4255 34.5438 24.6064 34.9001L24.6739 35.0326C24.8388 35.3503 24.8705 35.7464 24.7565 36.0655C24.6732 36.2987 24.689 36.5226 24.7999 36.6802C24.8789 36.7919 25.0002 36.859 25.1243 36.859C25.3781 36.859 25.5323 36.7289 25.6241 36.4381C25.6869 36.2394 25.6869 36.2394 26.0093 35.8495L26.1028 35.7361C26.5725 35.1669 26.1737 34.1763 25.9819 33.7L25.9582 33.6415C25.8809 33.4477 25.9607 33.2105 26.0532 32.9362C26.1315 32.7046 26.212 32.4653 26.212 32.2089C26.212 32.0797 26.1645 31.9664 26.0745 31.8806C25.8137 31.6332 25.2567 31.6632 24.7187 31.6909C24.575 31.6986 24.4389 31.706 24.3224 31.706C23.7402 31.706 22.546 30.9259 21.3913 30.1714C20.958 29.8882 20.4883 29.744 20.0484 29.679C21.7972 29.0803 23.5037 28.024 23.8319 27.8156C24.0879 28.1072 24.4297 28.3387 24.8692 28.4975C24.8202 28.5462 24.7757 28.6047 24.7444 28.6738C24.6867 28.8013 24.6854 28.9432 24.7406 29.0845C24.7749 29.1721 24.8254 29.241 24.8829 29.2987C24.7829 29.6486 24.881 29.8417 24.9839 29.9438C24.8716 30.2921 24.9689 30.497 25.0751 30.6062C25.1866 30.7205 25.3415 30.7691 25.478 30.7691C25.4959 30.7691 25.5106 30.7635 25.5278 30.7619C25.5742 30.9043 25.6391 31.0439 25.7482 31.168L25.7821 31.2062C26.2532 31.742 27.0415 32.6388 27.1345 33.0573C27.152 33.1353 27.2253 33.1856 27.3031 33.1788C27.3819 33.1706 27.4421 33.1044 27.4429 33.0252C27.4431 33.0021 27.4463 32.6417 27.4298 32.2744C27.7759 32.8359 28.0149 33.3929 28.0948 33.5888C28.1045 33.6152 28.1153 33.642 28.127 33.6689C28.1524 33.7279 28.2099 33.7632 28.2701 33.7632C28.2897 33.7632 28.3096 33.7595 28.3288 33.7518C28.3549 33.7412 28.3746 33.7229 28.3907 33.7021C28.7275 34.0278 29.3188 34.4532 30.122 34.4692C30.5557 34.4761 30.8661 34.4549 31.1152 34.437C31.5615 34.4041 31.7651 34.3895 32.1318 34.5867C32.155 34.5993 32.1805 34.6053 32.2058 34.6053C32.2413 34.6053 32.2765 34.5931 32.3051 34.5696C32.354 34.5293 32.3735 34.4631 32.3547 34.403C32.3459 34.3753 31.51 31.7963 29.3581 31.6614C29.3603 31.6368 29.366 31.6123 29.3558 31.5881C29.3247 31.5142 29.2433 31.4752 29.1666 31.4996C28.6342 31.6624 28.1711 31.4922 27.8032 31.2196C28.2792 31.19 28.6096 31.0261 28.6269 31.0176C28.6886 30.9864 28.7226 30.918 28.71 30.8502C28.6976 30.7821 28.6418 30.7304 28.5728 30.7231C27.8753 30.6496 26.8116 30.0124 26.8011 30.006C26.7969 30.0036 26.7918 30.005 26.7874 30.003C26.7895 30.0006 26.7914 29.998 26.7933 29.9956C26.8529 30.0011 26.9117 30.004 26.9682 30.004C27.1004 30.004 27.2213 29.9902 27.3191 29.9695C27.3843 29.9557 27.4334 29.902 27.4416 29.8362C27.4499 29.7699 27.4154 29.7061 27.3558 29.6765C27.1431 29.5719 26.9589 29.4305 26.7985 29.2746C26.9905 29.0414 26.9726 28.6893 26.8928 28.3783C26.9627 28.3494 27.0576 28.3042 27.1721 28.2391C28.5517 29.9753 31.6501 30.6658 33.7106 31.1234C34.1912 31.2298 34.6064 31.3221 34.9058 31.4086C34.9306 31.416 34.9547 31.4245 34.9795 31.433C35.0776 31.4671 35.1764 31.4943 35.2913 31.4943C35.5103 31.4943 35.7884 31.3956 36.2329 31.0582C37.0671 30.4245 36.392 29.2307 36.17 28.8386L36.1469 28.7971C36.0656 28.6525 35.9439 27.9528 35.8263 27.2763C35.67 26.3784 35.4931 25.361 35.2818 24.7381C35.1839 24.4488 35.0898 24.1787 35.0033 23.93C34.7571 23.2227 34.5627 22.6644 34.5287 22.3784C34.492 22.0729 35.0817 21.1912 35.3037 20.8596L35.3866 20.7348C35.5837 20.4349 35.9133 20.2139 36.247 20.1575C36.4911 20.1157 36.6789 19.9921 36.7617 19.8178C36.8202 19.6943 36.8192 19.5561 36.7585 19.4481ZM36.4799 19.6837C36.4615 19.7218 36.397 19.8149 36.1944 19.8494C35.7781 19.9201 35.3687 20.1935 35.1255 20.5632L35.044 20.686C34.6202 21.3194 34.1722 22.0276 34.2184 22.4156C34.2565 22.7345 34.4461 23.279 34.7081 24.0323C34.7946 24.2805 34.8883 24.55 34.986 24.8379C35.1894 25.438 35.3641 26.4428 35.5183 27.3294C35.6769 28.242 35.7718 28.7673 35.8742 28.9499L35.8981 28.9921C36.2258 29.5711 36.5971 30.3894 36.0439 30.8095C35.4442 31.265 35.2605 31.2003 35.0817 31.1382C35.0519 31.1277 35.0223 31.1175 34.992 31.1086C34.6834 31.0193 34.2637 30.9262 33.778 30.8186C31.8914 30.4 28.7578 29.7013 27.4345 28.0665C27.6868 27.8806 27.955 27.6163 28.1294 27.2407C28.2992 26.8748 28.3516 26.4666 28.2881 26.0212C29.0094 26.1885 30.5292 26.5887 30.9429 26.9181C30.9711 26.9404 31.0055 26.9518 31.04 26.9518C31.0639 26.9518 31.0881 26.9461 31.1105 26.9351C31.1647 26.9076 31.1982 26.851 31.1958 26.7901C31.1951 26.7723 31.1907 26.6879 31.1794 26.5639C31.615 26.8022 32.6624 27.4303 33.5154 28.3804C33.7279 28.6827 33.9065 28.8647 33.9258 28.8842C33.9833 28.9418 34.0757 28.9464 34.1376 28.8927C34.1995 28.8399 34.2104 28.7481 34.1622 28.6823C34.0385 28.5128 33.9074 28.3511 33.7718 28.198C33.4354 27.7169 33.0037 26.9101 33.065 25.9979C33.1828 24.2504 33.2371 23.0639 32.9297 22.5168C32.8702 22.4112 32.7943 22.2909 32.7144 22.1645C32.4973 21.8212 32.1998 21.351 32.255 21.133C32.2646 21.0952 32.2851 21.0696 32.3238 21.048C32.5028 20.9472 32.7257 20.9054 32.9412 20.8648C33.2572 20.8051 33.5844 20.7437 33.7878 20.4919L33.8277 20.4423C34.1113 20.0891 34.6998 19.3513 35.2448 19.4517L35.3846 19.4769C35.9149 19.5736 35.9467 19.5798 36.2105 19.524C36.419 19.4797 36.4473 19.5313 36.4865 19.6011C36.4946 19.6155 36.4978 19.646 36.4799 19.6837ZM31.0925 34.1257C30.8499 34.1436 30.5488 34.1656 30.1281 34.157C29.0126 34.1347 28.3335 33.1676 28.3269 33.1579C28.3259 33.1565 28.3243 33.1557 28.3234 33.1543C28.3008 32.6145 28.7158 32.1971 29.0098 31.9716C30.717 31.8584 31.6138 33.4509 31.9266 34.1626C31.6572 34.0846 31.4213 34.1013 31.0925 34.1257ZM28.0591 32.7593C27.782 32.2116 27.3578 31.5014 26.8362 31.035C26.7568 30.964 26.6901 30.8934 26.6234 30.8229C26.8127 30.8804 26.9722 30.9006 27.0429 30.9061C27.3973 31.3413 27.9426 31.8267 28.6398 31.8728C28.39 32.1028 28.1577 32.4059 28.0591 32.7593ZM25.2654 30.0855C25.3139 30.0951 25.3624 30.1013 25.409 30.1013C25.4263 30.1013 25.4413 30.0986 25.4579 30.0975C25.4475 30.2101 25.4503 30.3314 25.4621 30.4545C25.4086 30.4512 25.3431 30.4334 25.2984 30.3878C25.2266 30.3145 25.2366 30.1931 25.2654 30.0855ZM25.5122 29.7761C25.4326 29.7965 25.2802 29.7973 25.2052 29.7251C25.1387 29.6616 25.1464 29.5425 25.1701 29.4374C25.1839 29.4386 25.1965 29.444 25.2107 29.444C25.2109 29.444 25.2111 29.444 25.2111 29.444C25.3944 29.4437 25.5656 29.3322 25.6591 29.1701C25.6613 29.1709 25.6636 29.1718 25.6659 29.1725C25.6661 29.1732 25.6659 29.1738 25.6662 29.1745C25.6933 29.2515 25.7265 29.3207 25.763 29.3849C25.692 29.3768 25.6255 29.4152 25.5992 29.4808C25.5937 29.4945 25.5509 29.6113 25.5122 29.7761ZM18.3385 30.0757C18.5678 30.055 18.8055 30.0165 19.0477 29.9635C19.6324 29.9167 20.4939 29.9578 21.2206 30.432C22.6864 31.3901 23.6943 32.0177 24.3224 32.0177C24.4439 32.0177 24.5857 32.0104 24.7352 32.0023C25.1408 31.9816 25.696 31.9519 25.8599 32.1072C25.8881 32.134 25.9001 32.1641 25.9001 32.2088C25.9001 32.414 25.8279 32.6286 25.7576 32.8362C25.6546 33.1414 25.5482 33.457 25.6684 33.7577L25.6922 33.8166C25.8613 34.2371 26.2135 35.1116 25.862 35.5377L25.7689 35.6502C25.428 36.0626 25.4076 36.0874 25.3266 36.3438C25.2623 36.5469 25.2045 36.5469 25.1242 36.5469C25.1074 36.5469 25.0791 36.5347 25.0549 36.5006C25.0303 36.4657 24.981 36.3641 25.05 36.1703C25.1923 35.7726 25.154 35.2814 24.9507 34.8889L24.8844 34.7593C24.5393 34.0791 24.1408 33.3409 23.7796 33.1914C23.482 33.0684 22.9133 32.9672 22.1264 32.8266C21.8687 32.7807 21.5891 32.7307 21.2912 32.6754C20.6686 32.5588 19.7071 32.2196 18.8587 31.9202C17.985 31.6118 17.4806 31.4375 17.2711 31.4375H17.2224C16.5567 31.4331 15.662 31.3627 15.5664 30.6749C15.4629 29.9298 15.6091 29.8006 15.7507 29.6755C15.7746 29.6544 15.798 29.6337 15.8204 29.6118C15.9818 29.453 16.1723 29.2604 16.384 29.0461C17.5041 27.9146 19.5389 25.861 20.5027 25.6589C20.3214 26.2359 20.242 26.7785 20.2371 26.8131C20.2288 26.8708 20.2536 26.9286 20.3011 26.9623C20.328 26.9813 20.3596 26.9912 20.3915 26.9912C20.4159 26.9912 20.4403 26.9855 20.4628 26.9742C22.1402 26.1126 23.0319 26.0709 23.3242 26.0895C23.2901 26.4873 23.3228 26.9433 23.527 27.3704C23.5601 27.4395 23.6062 27.4997 23.6465 27.5638C23.2358 27.8213 20.957 29.2135 19.0162 29.6509C18.5972 29.6854 18.3109 29.7631 18.2826 29.7708C18.2047 29.7923 18.1564 29.8699 18.171 29.9491C18.1855 30.0282 18.2594 30.0826 18.3385 30.0757ZM18.9166 24.14C18.9081 23.8121 18.8356 23.4594 18.6458 23.167C18.9712 23.2307 19.3433 23.2564 19.6565 23.1515L19.6573 23.1511C19.7848 23.2013 19.9351 23.2322 20.1017 23.247C19.7778 23.3628 19.3253 23.607 18.9166 24.14ZM15.5963 24.4773C15.7495 24.2888 15.9405 24.054 16.234 23.7542C17.0145 22.957 18.1839 23.1256 18.1964 23.1272C18.1977 23.1274 18.1989 23.1269 18.2003 23.1271C18.6094 23.4808 18.6293 24.0694 18.5919 24.4379C17.5051 25.7599 15.7295 25.3202 14.997 25.0591C15.2391 24.9169 15.3885 24.7333 15.5963 24.4773ZM30.9889 17.7957C31.4267 18.8219 30.8239 19.8385 30.8179 19.8487C30.8171 19.8499 30.8172 19.8511 30.8166 19.8524C30.3341 20.0947 29.7824 19.8882 29.4559 19.7128C28.6494 18.2031 29.7351 16.7312 30.2558 16.1534C30.2947 16.4317 30.4075 16.6401 30.5644 16.9298C30.6801 17.1435 30.8241 17.4096 30.9889 17.7957ZM29.5175 20.0908C29.8236 20.2216 30.1869 20.3086 30.5412 20.2594C30.1929 20.7017 29.8037 21.3229 29.6985 21.9899C29.348 22.2896 29.0524 22.5173 28.8902 22.6388C28.8852 22.6309 28.879 22.6244 28.8737 22.6168C29.0401 22.4027 29.9272 21.1875 29.5175 20.0908ZM26.1338 30.1568C25.9938 29.8955 25.9342 29.6911 25.9128 29.5917C26.0567 29.749 26.2326 29.8524 26.4162 29.9157L26.1338 30.1568ZM26.5776 30.1882C26.5797 30.1945 26.5772 30.2013 26.58 30.2073C26.5825 30.2125 26.6517 30.3507 26.7773 30.5431C26.6513 30.5099 26.5039 30.4568 26.3644 30.37L26.5776 30.1882ZM26.628 31.2674C26.7845 31.4077 26.9328 31.5734 27.0705 31.7514C27.0707 31.7563 27.0714 31.7616 27.0722 31.7665C27.098 31.9208 27.1126 32.1431 27.1208 32.3577C26.8509 31.9602 26.4455 31.4886 26.0165 31.0002L25.9825 30.9617C25.7751 30.726 25.7443 30.4046 25.7689 30.1328C25.9129 30.4487 26.1707 30.8586 26.628 31.2674ZM25.798 28.8914C25.6716 28.8618 25.5809 28.7406 25.527 28.6439C25.3821 28.3844 25.4802 28.1787 25.5249 28.1064C25.5828 28.1167 25.6415 28.123 25.7007 28.127C25.7521 28.2652 25.8647 28.5318 26.0516 28.8341C25.9599 28.8832 25.8734 28.9084 25.798 28.8914ZM26.483 21.2597C26.6027 21.2626 26.7404 21.3406 26.8458 21.4608C26.8022 21.5148 26.7306 21.5762 26.6342 21.5584C26.2009 21.4799 26.0708 21.9038 26.0281 22.043C25.9836 22.1875 25.8108 22.5131 25.6704 22.6597C25.5742 22.6164 25.4724 22.5848 25.3644 22.5723C25.525 22.346 25.8216 21.9402 26.2115 21.4149C26.2909 21.3082 26.3936 21.2512 26.483 21.2597ZM25.6125 22.9748C25.7532 23.0645 25.8716 23.2153 26.0082 23.39C26.0936 23.4992 26.1924 23.617 26.3023 23.7325C26.0735 23.6158 25.9467 23.4885 25.9444 23.4864C25.9433 23.4853 25.9416 23.4856 25.9405 23.4845C25.9395 23.4835 25.94 23.4817 25.9388 23.4806C25.5617 23.1158 25.1782 23.0191 24.7983 23.1959C24.6679 23.256 24.5427 23.247 24.4752 23.2211C24.4364 23.2064 24.4227 23.1894 24.4215 23.1878C24.4215 23.1829 24.4284 23.163 24.4571 23.1325C24.6333 22.9467 25.2553 22.748 25.6125 22.9748ZM24.5237 22.7179C24.7441 22.4971 24.9745 22.2261 25.1778 21.9776L25.2186 21.928C25.2781 21.8558 25.3831 21.9074 25.436 21.9408C25.2165 22.2408 25.0381 22.4896 24.9795 22.5835C24.8156 22.6084 24.6576 22.6547 24.5237 22.7179ZM26.6498 22.865C26.8959 22.9211 27.0258 22.9888 27.0925 23.058C26.8625 23.0204 26.5322 23.0215 26.2725 23.2208C26.2664 23.213 26.26 23.2053 26.2538 23.1977C26.1493 23.0637 26.043 22.9439 25.9271 22.8382C25.9854 22.7716 26.0405 22.6949 26.091 22.6138C26.2003 22.6842 26.4215 22.8133 26.6498 22.865ZM26.2416 22.3394C26.2819 22.2548 26.3122 22.181 26.3263 22.1349C26.4038 21.8827 26.4709 21.8456 26.5784 21.8655C26.5918 21.8678 26.6037 21.8667 26.6167 21.868C26.7252 22.2698 27.0521 22.4376 27.2968 22.5598C27.4287 22.6256 27.5531 22.6879 27.5783 22.7548C27.6086 22.8357 27.5287 22.9316 27.4323 23.0091C27.3456 22.7991 27.107 22.6491 26.7189 22.561C26.5231 22.5167 26.3221 22.3928 26.2416 22.3394ZM23.968 24.2855C24.2447 24.0969 24.4929 24.012 24.7095 24.0259C25.244 24.0645 25.6344 23.8939 25.8145 23.7895C25.9955 23.9394 26.42 24.2226 27.0562 24.234C27.1631 24.2933 27.5237 24.5094 27.7298 24.8195C27.7349 24.9011 27.7375 24.9833 27.7375 25.0665C27.7375 26.5864 26.8743 27.8228 25.8133 27.8228C24.7523 27.8228 23.8891 26.5864 23.8891 25.0665C23.8889 24.8007 23.9156 24.5386 23.968 24.2855ZM27.822 24.4393C27.6102 24.2108 27.3655 24.0522 27.2439 23.982C27.3866 23.9522 27.5377 23.9028 27.6788 23.8249C27.844 24.0302 27.8533 24.2636 27.822 24.4393ZM27.683 23.444C27.3976 23.7107 26.8964 23.7193 26.7517 23.716C26.6475 23.638 26.5542 23.5524 26.4717 23.4597C26.7662 23.2464 27.2487 23.4164 27.2539 23.4183C27.2697 23.4243 27.2859 23.4253 27.3019 23.4258C27.3041 23.4259 27.3061 23.428 27.3084 23.428C27.3094 23.428 27.3104 23.4273 27.3113 23.4273C27.3333 23.4269 27.3547 23.4223 27.3742 23.4131C27.3746 23.413 27.3751 23.413 27.3751 23.413C27.5201 23.3441 27.7087 23.2134 27.8153 23.0464C27.8394 23.1624 27.8272 23.3094 27.683 23.444ZM27.7728 22.4991C27.6856 22.4087 27.5647 22.3448 27.4362 22.2807C27.2197 22.1727 27.0033 22.0548 26.9258 21.7973C27.01 21.7456 27.0759 21.6765 27.122 21.6101C27.2716 21.6214 27.5869 21.673 27.7354 21.885C27.8362 22.0296 27.8458 22.2376 27.7728 22.4991ZM25.6205 21.6893C25.4647 21.5831 25.18 21.4851 24.9777 21.7298L24.9363 21.7802C24.7454 22.0134 24.1648 22.7229 23.8733 22.8415C23.8699 22.8428 23.8678 22.8457 23.8646 22.8473C23.8115 22.8337 23.7647 22.8153 23.7323 22.7896C23.7076 22.7701 23.6959 22.7498 23.6928 22.7221C23.6781 22.5865 23.7385 22.5271 23.9826 22.352C24.1679 22.2191 24.4219 22.0372 24.6636 21.7145C25.0357 21.2186 25.5011 21.13 25.7824 21.4697C25.7284 21.5428 25.6742 21.6164 25.6205 21.6893ZM24.2425 21.5439C23.7549 21.4772 23.3067 21.6399 23.0304 21.9984C22.9157 22.1474 22.8498 22.3166 22.8187 22.4893C22.7999 22.497 22.7787 22.4974 22.7635 22.5127C22.7243 22.5525 22.683 22.6029 22.6418 22.6586C22.3681 22.5511 21.6273 22.2942 20.9904 22.3806C20.2539 22.4803 19.7101 22.383 19.3931 22.2908C19.7324 22.1816 19.9826 21.6912 20.2242 21.2158C20.2895 21.0875 20.3512 20.9659 20.4093 20.8647C20.6996 20.3613 21.9721 19.7161 23.2029 19.092C23.7206 18.8295 24.1101 18.4398 24.3972 18.0466C24.1734 19.4574 24.217 20.9975 24.2425 21.5439ZM22.8335 22.933C22.8519 23.0055 22.8699 23.0785 22.9042 23.1471C22.9251 23.1888 22.9519 23.2194 22.9761 23.2547C22.8866 23.344 22.7606 23.4941 22.677 23.6919C22.606 23.3864 22.7227 23.1103 22.8335 22.933ZM22.6845 24.4975C22.7396 24.6281 22.8088 24.7378 22.8878 24.8276C22.7647 25.1938 22.6855 25.5295 22.6497 25.8306C22.5291 25.8524 22.3949 25.8823 22.2467 25.9214C22.3281 25.3867 22.5387 24.8347 22.6845 24.4975ZM22.9733 25.7852C23.0054 25.5606 23.0637 25.3145 23.1473 25.0487C23.2723 25.1255 23.4007 25.1728 23.515 25.198C23.4673 25.3354 23.4083 25.5396 23.3658 25.778C23.2769 25.7709 23.1461 25.7693 22.9733 25.7852ZM22.3504 24.485C22.1887 24.8735 21.9839 25.4548 21.9217 26.0165C21.7945 26.0572 21.6587 26.1047 21.5146 26.1593C21.6344 25.4604 21.9493 24.7545 21.9668 24.7157C22.123 24.6412 22.2492 24.5622 22.3504 24.485ZM21.2624 24.6333C21.3828 24.3256 21.6461 23.8092 22.1153 23.5561C22.2485 23.6167 22.3202 23.6643 22.3219 23.6655C22.3322 23.6732 22.3448 23.672 22.3561 23.6769C22.3696 23.767 22.3958 23.8584 22.4344 23.9504C22.3817 24.0407 22.1123 24.4273 21.2624 24.6333ZM23.5865 24.8889C23.4021 24.8504 23.088 24.7293 22.9443 24.3136C22.8727 24.1064 22.911 23.9199 22.9824 23.7709C23.006 24.0848 23.134 24.3887 23.4653 24.4865C23.5008 24.6021 23.548 24.6944 23.591 24.742C23.592 24.743 23.5934 24.7433 23.5945 24.7444C23.5907 24.7923 23.5886 24.8406 23.5865 24.8889ZM23.2998 23.5304C23.385 23.5686 23.4731 23.5968 23.5642 23.6074C23.5077 23.6915 23.4719 23.776 23.4496 23.8524C23.4264 23.9323 23.4164 24.0134 23.4135 24.093C23.2974 23.9508 23.2865 23.7089 23.2998 23.5304ZM23.1834 23.0073C23.0532 22.7472 23.0894 22.4336 23.2778 22.1889C23.4682 21.9413 23.7747 21.8268 24.1166 21.8503C24.0043 21.9506 23.8962 22.0298 23.801 22.0984C23.5674 22.2658 23.3466 22.4243 23.3829 22.7561C23.3948 22.8663 23.4486 22.9622 23.5381 23.0336C23.6915 23.1558 23.9305 23.1855 24.1132 23.1891C24.1133 23.1974 24.1154 23.2049 24.1161 23.213C24.0723 23.2287 24.0243 23.2425 23.9858 23.2603C23.7437 23.3274 23.3608 23.3632 23.1834 23.0073ZM23.7531 23.9275C23.8032 23.7682 23.9164 23.6439 24.0905 23.5566C24.1683 23.5343 24.2349 23.5065 24.2964 23.4786C24.4629 23.5746 24.7093 23.581 24.9297 23.4786C25.0668 23.4147 25.274 23.3662 25.5588 23.5694C25.3891 23.6494 25.104 23.7437 24.7328 23.7145C24.4295 23.695 24.0949 23.81 23.7376 24.0659C23.7342 24.0683 23.7341 24.0734 23.7308 24.0761C23.7346 24.0271 23.7372 23.9777 23.7531 23.9275ZM26.034 28.1195C26.1697 28.1011 26.3013 28.0641 26.4287 28.0139C26.5563 28.2635 26.7288 28.7942 26.5825 29.0409C26.3013 28.6986 26.1238 28.3337 26.034 28.1195ZM27.9557 25.9407C28.0391 26.3739 28.0051 26.7649 27.8475 27.1064C27.5799 27.6856 27.0321 27.9763 26.7976 28.079C26.7661 27.9986 26.7361 27.9307 26.7087 27.876C27.3062 27.5162 27.7672 26.8087 27.9557 25.9407ZM28.0451 25.184C28.0462 25.1447 28.0494 25.1061 28.0494 25.0665C28.0494 25.0499 28.0478 25.0338 28.0477 25.0172C28.1433 25.0049 28.2731 24.9774 28.4052 24.9129C28.5214 25.2305 28.6004 25.5225 28.6419 25.7854C28.4223 25.7314 28.2669 25.6962 28.2177 25.6853C28.1767 25.5281 28.125 25.3676 28.0571 25.2023C28.0543 25.1951 28.0488 25.1903 28.0451 25.184ZM28.045 23.8202C28.015 23.7583 27.9739 23.698 27.9264 23.6379C27.9799 23.5824 28.0214 23.5252 28.0527 23.4671C28.0568 23.467 28.0608 23.4668 28.0649 23.4664C28.1242 23.4604 28.1764 23.4513 28.2229 23.4391C28.2554 23.4916 28.294 23.5732 28.3124 23.6704C28.2711 23.7143 28.2429 23.7671 28.2239 23.8179C28.1416 23.8716 28.0833 23.837 28.0708 23.8281C28.0634 23.8219 28.0532 23.8248 28.045 23.8202ZM29.372 25.9772C29.2314 25.9377 29.096 25.9012 28.9692 25.8681C28.9293 25.5282 28.8288 25.1428 28.6675 24.7195C28.7442 24.6396 28.8242 24.5328 28.8903 24.414C29.0395 24.7478 29.2914 25.378 29.372 25.9772ZM29.0205 23.9414C29.0262 23.9337 29.0351 23.9293 29.0394 23.9203C29.076 23.8441 29.0889 23.7784 29.0915 23.7174C29.3801 24.0958 29.8971 24.9351 30.0943 26.198C29.9642 26.1543 29.8308 26.112 29.6975 26.0718C29.608 25.1174 29.0773 24.075 29.0547 24.0311C29.047 24.0159 29.0358 24.0042 29.0242 23.9928C29.0247 23.9752 29.022 23.9585 29.0205 23.9414ZM30.4338 26.3201C30.2068 24.5497 29.3689 23.5353 29.1603 23.3072C29.177 23.3041 29.195 23.3043 29.2115 23.3007C30.4507 23.9608 30.7768 25.7827 30.8581 26.503C30.7351 26.441 30.5898 26.3799 30.4338 26.3201ZM29.0263 23.0065C29.0228 22.9828 29.018 22.9597 29.0128 22.9369C29.2744 22.7449 30.1682 22.069 30.9637 21.2268C30.5894 21.9632 29.9403 22.8824 29.0263 23.0065ZM28.7258 23.1783C28.7256 23.182 28.7262 23.1839 28.7261 23.1877C28.7261 23.1887 28.7255 23.1897 28.7255 23.1909C28.7255 23.1921 28.7262 23.193 28.7263 23.1941C28.7201 23.3708 28.7447 23.4921 28.7637 23.5801C28.7668 23.5947 28.7689 23.6053 28.7712 23.6174C28.7106 23.5964 28.6581 23.586 28.6099 23.5802C28.5785 23.4452 28.5263 23.3361 28.4816 23.2656C28.5566 23.1537 28.5841 22.9943 28.6055 22.7835C28.678 22.8818 28.7333 23.0145 28.7258 23.1783ZM28.4999 23.9385C28.5074 23.9218 28.5203 23.8934 28.5272 23.8881C28.527 23.8878 28.5609 23.8731 28.6736 23.9133C28.7032 23.9239 28.7076 23.9349 28.7111 23.9519C28.7393 24.0884 28.5672 24.3923 28.4118 24.5357C28.3091 24.6304 28.1807 24.6745 28.0793 24.6955C28.1216 24.5687 28.1646 24.3709 28.142 24.1531C28.2203 24.1528 28.3053 24.1373 28.3952 24.0785C28.454 24.04 28.4804 23.9816 28.4999 23.9385ZM28.307 22.6323C28.2688 23.0404 28.2598 23.1152 28.1362 23.1415C28.136 22.9839 28.0864 22.8389 28.0279 22.7347C28.1255 22.465 28.1486 22.2319 28.113 22.0294C28.1587 22.0483 28.2039 22.0728 28.2404 22.1131C28.311 22.1906 28.3387 22.3089 28.3234 22.4637L28.307 22.6323ZM21.0323 22.6904C21.5563 22.6183 22.1976 22.8255 22.4814 22.9316C22.4249 23.0514 22.3831 23.1849 22.3616 23.3281C22.0912 23.1869 21.4374 22.9291 20.2968 22.9518C19.8371 22.9709 19.5434 22.7877 19.3722 22.6113C19.7294 22.7071 20.2921 22.7899 21.0323 22.6904ZM20.9299 23.2833C21.211 23.3064 21.4468 23.3466 21.6386 23.3952C21.2825 23.5314 20.7442 23.7483 20.3249 23.9657C20.4609 23.7488 20.6599 23.4947 20.9299 23.2833ZM21.5643 24.8725C21.4354 25.2008 21.2459 25.7547 21.1809 26.2935C20.998 26.3706 20.8059 26.4561 20.5988 26.5568C20.6773 26.1578 20.8477 25.4509 21.1289 24.9796C21.2886 24.9492 21.4337 24.9132 21.5643 24.8725ZM23.8091 27.2365C23.5967 26.7935 23.6007 26.2998 23.6632 25.901C23.8754 26.9283 24.4675 27.7361 25.2181 28.021C25.1891 28.0821 25.1626 28.1604 25.1486 28.253C24.4948 28.0543 24.0391 27.7168 23.8091 27.2365ZM25.0282 28.8032C25.0588 28.7345 25.1271 28.6813 25.1887 28.6439C25.2061 28.6935 25.2252 28.7437 25.2544 28.7959C25.2981 28.8742 25.3488 28.9382 25.4026 28.9952C25.3686 29.0729 25.289 29.1315 25.211 29.1319H25.2108C25.1145 29.1319 25.06 29.0442 25.0312 28.9706C25.0063 28.9072 25.0053 28.854 25.0282 28.8032ZM27.4484 30.9013C27.3396 30.7859 27.2444 30.6677 27.1643 30.558C27.391 30.6708 27.668 30.7964 27.9456 30.8912C27.799 30.9119 27.6304 30.9205 27.4484 30.9013ZM26.0125 29.1883C26.0795 29.1719 26.1524 29.1423 26.2305 29.0967C26.3816 29.3008 26.5624 29.5051 26.7843 29.6808C26.5098 29.6503 26.1865 29.5329 26.0125 29.1883ZM15.8901 19.1048C15.9075 19.1033 15.9397 19.1064 15.9787 19.119C16.0326 19.1366 16.1011 19.1747 16.1785 19.2657C16.2962 19.4043 16.4495 19.5171 16.6168 19.6085C16.6265 19.6137 16.6353 19.6204 16.6451 19.6256C16.859 19.7371 17.0975 19.8089 17.338 19.8194L17.4815 19.8267C18.2443 19.8677 19.0833 19.8914 19.3938 19.6524C19.6492 19.4562 20.0211 19.0141 20.5357 18.4022C20.7041 18.2019 20.8869 17.9849 21.0837 17.7551C21.4953 17.274 22.2691 16.6105 22.9517 16.0255C23.6558 15.4221 24.0592 15.072 24.1639 14.8902L24.1882 14.8475C24.5187 14.2706 25.0318 13.5315 25.6761 13.7944C26.3731 14.0767 26.4121 14.2681 26.4499 14.453C26.4562 14.4843 26.4627 14.5152 26.4706 14.5457C26.5616 14.8951 26.7065 15.3335 26.874 15.8409C27.4095 17.4616 28.2026 19.8678 27.8575 21.5614C27.6071 21.347 27.2635 21.3064 27.1112 21.2987C26.9725 21.1231 26.7541 20.9542 26.4908 20.9477C26.3458 20.9465 26.1468 20.9904 25.9722 21.2168C25.8055 21.0418 25.597 20.942 25.3693 20.942C25.1629 20.942 24.8634 21.0201 24.5484 21.365C24.5204 20.5538 24.5016 18.5394 24.9197 17.1174C25.0426 16.8277 25.097 16.6228 25.103 16.5989C25.1235 16.5197 25.0792 16.4385 25.0021 16.4121C24.9247 16.3882 24.8407 16.4235 24.8084 16.4986C24.742 16.6538 24.6831 16.8199 24.6305 16.9947C24.4022 17.5278 23.9228 18.3769 23.0617 18.8136C21.4994 19.6055 20.4521 20.1654 20.139 20.7087C20.0783 20.8139 20.0139 20.9407 19.9458 21.0743C19.762 21.4362 19.5101 21.9319 19.2939 21.9958C19.257 22.0072 19.2245 22.0022 19.1856 21.9799C19.0077 21.8776 18.8578 21.7078 18.7128 21.5432C18.4999 21.3015 18.2799 21.0519 17.9596 21.006L17.8974 20.997C17.4486 20.9341 16.5145 20.8024 16.3207 20.2844L16.27 20.1488C16.0827 19.6466 16.0714 19.6166 15.8897 19.4178C15.7568 19.273 15.7724 19.219 15.807 19.157C15.8098 19.1518 15.8118 19.1468 15.8147 19.1416C15.8234 19.1271 15.8482 19.1088 15.8901 19.1048Z" fill="#464655"/>
</g>
<defs>
<clipPath id="clip0_9_1777">
<rect width="50" height="50" fill="white" transform="translate(0.789062 0.318604)"/>
</clipPath>
</defs>
</svg>
