<svg width="51" height="51" viewBox="0 0 51 51" fill="none" xmlns="http://www.w3.org/2000/svg">
    <g clip-path="url(#clip0_9_1763)">
        <path
            d="M50.5122 25.3186H0.512329V9.80132C0.512329 9.32524 0.898364 8.93921 1.37444 8.93921H49.6502C50.1263 8.93921 50.5123 9.32524 50.5123 9.80132L50.5122 25.3186Z"
            fill="#FF4B55" />
        <path
            d="M0.512939 25.3186H50.5128V40.8359C50.5128 41.3119 50.1268 41.698 49.6507 41.698H1.37505C0.898974 41.698 0.512939 41.3119 0.512939 40.8359V25.3186Z"
            fill="#F5F5F5" />
        <path
            d="M7.59979 17.1412C7.59979 14.3064 9.67987 11.9565 12.396 11.5219C12.5434 11.4982 12.5501 11.2954 12.4046 11.2618C11.7321 11.1072 11.018 11.0632 10.2764 11.1641C7.34686 11.5632 5.08242 14.0983 5.04101 17.0546C4.99384 20.4301 7.71513 23.1788 11.0747 23.1788C11.532 23.1788 11.9761 23.1254 12.4034 23.027C12.5488 22.9936 12.5415 22.7903 12.3942 22.7667C9.67918 22.3323 7.59979 19.987 7.59979 17.1412Z"
            fill="#F5F5F5" />
        <path
            d="M12.4405 18.658L12.1853 19.4232L11.3788 19.4295C11.2744 19.4304 11.231 19.5636 11.3151 19.6256L11.9639 20.1048L11.7206 20.8738C11.6891 20.9734 11.8025 21.0558 11.8874 20.995L12.5436 20.526L13.1999 20.995C13.2848 21.0558 13.3981 20.9733 13.3667 20.8738L13.1233 20.1048L13.7721 19.6256C13.8562 19.5635 13.8129 19.4304 13.7085 19.4295L12.9019 19.4232L12.6468 18.658C12.6136 18.559 12.4735 18.559 12.4405 18.658Z"
            fill="#F5F5F5" />
        <path
            d="M16.4278 18.658L16.1726 19.4232L15.3661 19.4295C15.2617 19.4304 15.2183 19.5636 15.3024 19.6256L15.9512 20.1048L15.7079 20.8738C15.6764 20.9734 15.7898 21.0558 15.8747 20.995L16.5309 20.526L17.1872 20.995C17.2721 21.0558 17.3854 20.9733 17.354 20.8738L17.1106 20.1048L17.7594 19.6256C17.8435 19.5635 17.8002 19.4304 17.6958 19.4295L16.8892 19.4232L16.6341 18.658C16.601 18.559 16.4609 18.559 16.4278 18.658Z"
            fill="#F5F5F5" />
        <path
            d="M14.452 12.5052L14.1968 13.2704L13.3903 13.2767C13.2859 13.2775 13.2425 13.4107 13.3266 13.4728L13.9754 13.9519L13.7321 14.721C13.7006 14.8206 13.814 14.9029 13.8989 14.8422L14.5551 14.3731L15.2114 14.8422C15.2963 14.9029 15.4096 14.8205 15.3781 14.721L15.1348 13.9519L15.7836 13.4728C15.8677 13.4106 15.8243 13.2775 15.7199 13.2767L14.9134 13.2704L14.6582 12.5052C14.6251 12.4062 14.485 12.4062 14.452 12.5052Z"
            fill="#F5F5F5" />
        <path
            d="M11.2731 14.8624L11.018 15.6276L10.2114 15.6338C10.107 15.6347 10.0637 15.7679 10.1478 15.8299L10.7966 16.3091L10.5532 17.0782C10.5218 17.1778 10.6352 17.2601 10.72 17.1994L11.3763 16.7303L12.0325 17.1994C12.1175 17.2601 12.2308 17.1777 12.1993 17.0782L11.956 16.3091L12.6048 15.8299C12.6889 15.7678 12.6455 15.6347 12.5411 15.6338L11.7346 15.6276L11.4794 14.8624C11.4463 14.7633 11.3063 14.7633 11.2731 14.8624Z"
            fill="#F5F5F5" />
        <path
            d="M17.6042 14.8624L17.349 15.6276L16.5425 15.6338C16.4381 15.6347 16.3947 15.7679 16.4788 15.8299L17.1276 16.3091L16.8843 17.0782C16.8528 17.1778 16.9662 17.2601 17.0511 17.1994L17.7073 16.7303L18.3636 17.1994C18.4485 17.2601 18.5618 17.1777 18.5304 17.0782L18.287 16.3091L18.9358 15.8299C19.0199 15.7678 18.9766 15.6347 18.8722 15.6338L18.0656 15.6276L17.8105 14.8624C17.7773 14.7633 17.6372 14.7633 17.6042 14.8624Z"
            fill="#F5F5F5" />
    </g>
    <defs>
        <clipPath id="clip0_9_1763">
            <rect width="50" height="50" fill="white" transform="translate(0.511719 0.318604)" />
        </clipPath>
    </defs>
</svg>
