<svg width="51" height="51" viewBox="0 0 51 51" fill="none" xmlns="http://www.w3.org/2000/svg">
    <g clip-path="url(#clip0_9_1730)">
        <path
            d="M1.48308 9.36731H49.7589C50.2349 9.36731 50.621 9.75334 50.621 10.2294V25.7466H0.620972V10.2293C0.620972 9.75325 1.00701 9.36731 1.48308 9.36731Z"
            fill="#FF4B55" />
        <path
            d="M49.7588 42.1258H1.48308C1.00701 42.1258 0.620972 41.7398 0.620972 41.2637V25.7466H50.6209V41.2638C50.6209 41.7399 50.2348 42.1258 49.7588 42.1258Z"
            fill="#41479B" />
        <path
            d="M0.93894 41.9175L24.8003 26.2842C25.1876 26.0304 25.1876 25.4627 24.8003 25.2091L0.93894 9.57581C0.748999 9.73391 0.620972 9.96301 0.620972 10.2294V41.2638C0.620972 41.5303 0.748999 41.7594 0.93894 41.9175Z"
            fill="#F5F5F5" />
        <path
            d="M9.4587 25.1265C10.9537 25.1265 12.1656 23.9146 12.1656 22.4196C12.1656 20.9246 10.9537 19.7126 9.4587 19.7126C7.9637 19.7126 6.75177 20.9246 6.75177 22.4196C6.75177 23.9146 7.9637 25.1265 9.4587 25.1265Z"
            fill="#FFE15A" />
        <path
            d="M12.7684 24.9269C12.7791 25.2554 12.8149 25.5942 12.8493 25.9218C12.9846 27.2072 13.1015 28.3176 11.8669 28.7482C11.5751 28.85 11.1775 28.907 10.7931 28.9621C10.2412 29.0412 9.74709 29.1119 9.45969 29.3122C9.17228 29.112 8.67824 29.0412 8.12629 28.9621C7.74192 28.907 7.34416 28.8499 7.05246 28.7482C5.8179 28.3176 5.93479 27.2072 6.07004 25.9218C6.10452 25.5942 6.14016 25.2554 6.151 24.9269C6.18938 23.7631 5.94397 22.6227 5.77161 21.978C6.05881 22.0959 6.45696 22.2022 6.94514 22.1937C7.15549 22.1895 7.39172 22.1595 7.64172 22.1278C8.21242 22.0551 8.8592 21.9732 9.37687 22.1778L9.45988 22.2147L9.54289 22.1778C10.0605 21.9732 10.7073 22.0551 11.278 22.1278C11.528 22.1595 11.7643 22.1895 11.9746 22.1937C12.4628 22.2022 12.861 22.0958 13.1482 21.978C12.9753 22.6226 12.73 23.7631 12.7684 24.9269Z"
            fill="#8CD7FF" />
        <path
            d="M13.2192 24.912C13.1649 23.2622 13.7277 21.6071 13.7335 21.5906L13.3787 21.3414C13.3741 21.3452 12.8405 21.7591 11.9831 21.7426C11.7968 21.7391 11.5723 21.7105 11.3345 21.6802C10.7375 21.6046 10.0641 21.519 9.45959 21.7277C8.85509 21.5191 8.18176 21.6047 7.58469 21.6802C7.34699 21.7104 7.12238 21.739 6.93606 21.7426C6.07864 21.7591 5.54514 21.3451 5.54045 21.3414L5.18567 21.5906C5.19124 21.6071 5.75432 23.2622 5.69993 24.912C5.68967 25.2244 5.65491 25.5549 5.62112 25.8745C5.48547 27.1642 5.33166 28.626 6.90363 29.1744C7.23674 29.2904 7.65764 29.3418 8.06203 29.4088C9.27619 29.61 9.45949 29.9201 9.45949 29.9201C9.45949 29.9201 9.64279 29.6099 10.8569 29.4088C11.2613 29.3418 11.6822 29.2904 12.0153 29.1744C13.5874 28.6261 13.4337 27.1642 13.2979 25.8745C13.2644 25.5548 13.2295 25.2244 13.2192 24.912ZM12.7684 24.927C12.7791 25.2554 12.8149 25.5943 12.8493 25.9218C12.9846 27.2072 13.1015 28.3176 11.8669 28.7482C11.5751 28.85 11.1775 28.907 10.7931 28.9621C10.2412 29.0412 9.74709 29.1119 9.45968 29.3122C9.17228 29.112 8.67824 29.0412 8.12629 28.9621C7.74191 28.907 7.34416 28.8499 7.05246 28.7482C5.81789 28.3176 5.93479 27.2072 6.07004 25.9218C6.10451 25.5943 6.14016 25.2554 6.151 24.927C6.18938 23.7631 5.94397 22.6227 5.77161 21.978C6.05881 22.0959 6.45696 22.2023 6.94514 22.1937C7.15549 22.1895 7.39172 22.1595 7.64172 22.1279C8.21242 22.0551 8.8592 21.9733 9.37687 22.1779L9.45988 22.2148L9.54289 22.1779C10.0605 21.9733 10.7073 22.0551 11.278 22.1279C11.528 22.1595 11.7643 22.1895 11.9746 22.1937C12.4628 22.2023 12.861 22.0958 13.1482 21.978C12.9753 22.6226 12.73 23.7631 12.7684 24.927Z"
            fill="#FF4B55" />
        <path
            d="M11.7862 27.7002V26.7059H11.9566V26.4125H11.5398V25.3913H11.9566L10.0506 24.041V23.5331H10.3157L9.45987 22.9269L8.60421 23.5331H8.86915V24.041L6.9631 25.3913H7.37999V26.4125H6.9631V26.7059H7.13361V27.7002H6.88458V28.1294H12.0354V27.7002H11.7862Z"
            fill="#F5F5F5" />
        <path
            d="M6.9867 23.6304C6.92596 23.7743 6.93631 23.9269 7.00086 24.0391C7.12645 24.0071 7.24286 23.9081 7.30369 23.7643C7.36444 23.6203 7.35409 23.4678 7.28953 23.3556C7.16405 23.3876 7.04754 23.4865 6.9867 23.6304Z"
            fill="#41AA5A" />
        <path
            d="M7.28158 23.6757C7.32122 23.8268 7.42243 23.9413 7.54175 23.9907C7.62142 23.8887 7.65308 23.7392 7.61344 23.5881C7.57379 23.4371 7.47259 23.3226 7.35327 23.2732C7.27369 23.375 7.24193 23.5247 7.28158 23.6757Z"
            fill="#41AA5A" />
        <path
            d="M7.74043 23.4245C7.88691 23.4789 8.03877 23.462 8.14814 23.3925C8.11074 23.2685 8.00674 23.1563 7.86035 23.102C7.71387 23.0476 7.56201 23.0645 7.45264 23.134C7.49004 23.2579 7.59394 23.3699 7.74043 23.4245Z"
            fill="#41AA5A" />
        <path
            d="M7.8776 23.1667C8.02057 23.1038 8.11793 22.9859 8.14801 22.8599C8.03473 22.797 7.88219 22.7889 7.73922 22.8517C7.59625 22.9146 7.49899 23.0326 7.46881 23.1585C7.5819 23.2215 7.73453 23.2296 7.8776 23.1667Z"
            fill="#41AA5A" />
        <path
            d="M6.91625 23.297C7.04369 23.2066 7.11527 23.0716 7.11947 22.942C6.99593 22.9032 6.84476 22.9259 6.71732 23.0163C6.58988 23.1066 6.5183 23.2416 6.5141 23.3712C6.63763 23.4102 6.7889 23.3874 6.91625 23.297Z"
            fill="#41AA5A" />
        <path
            d="M6.81025 23.1083C7.00635 23.2206 7.21641 23.251 7.37266 23.2059C7.33242 23.0483 7.1999 22.8826 7.00381 22.7703C6.80771 22.658 6.59766 22.6275 6.44141 22.6726C6.48164 22.8302 6.61426 22.996 6.81025 23.1083Z"
            fill="#41AA5A" />
        <path
            d="M7.63851 23.3386C7.63851 23.2624 7.57787 23.2011 7.50228 23.1982C7.49945 23.1227 7.43832 23.062 7.36195 23.062C7.28558 23.062 7.22445 23.1227 7.22162 23.1982C7.14603 23.2011 7.08539 23.2622 7.08539 23.3386C7.08539 23.4147 7.14603 23.476 7.22162 23.4789C7.22445 23.5545 7.28558 23.6151 7.36195 23.6151C7.43832 23.6151 7.49945 23.5545 7.50228 23.4789C7.57787 23.476 7.63851 23.4147 7.63851 23.3386Z"
            fill="#FFE15A" />
        <path
            d="M7.36197 23.4215C7.4077 23.4215 7.44476 23.3843 7.44476 23.3385C7.44476 23.2927 7.4077 23.2555 7.36197 23.2555C7.31624 23.2555 7.27917 23.2927 7.27917 23.3385C7.27917 23.3843 7.31624 23.4215 7.36197 23.4215Z"
            fill="#F5F5F5" />
        <path
            d="M7.1971 23.1987C7.1971 23.136 7.1472 23.0856 7.08519 23.0833C7.08285 23.0212 7.03246 22.9714 6.96986 22.9714C6.90716 22.9714 6.85677 23.0213 6.85453 23.0833C6.79242 23.0857 6.74261 23.1361 6.74261 23.1987C6.74261 23.2614 6.79252 23.3118 6.85453 23.314C6.85687 23.3761 6.90726 23.4259 6.96986 23.4259C7.03256 23.4259 7.08295 23.376 7.08519 23.314C7.1472 23.3117 7.1971 23.2614 7.1971 23.1987Z"
            fill="#FFE15A" />
        <path
            d="M6.9693 23.266C7.00684 23.266 7.03728 23.2354 7.03728 23.1978C7.03728 23.1602 7.00684 23.1296 6.9693 23.1296C6.93175 23.1296 6.90131 23.1602 6.90131 23.1978C6.90131 23.2354 6.93175 23.266 6.9693 23.266Z"
            fill="#F5F5F5" />
        <path
            d="M7.62009 23.0031C7.62009 22.958 7.58415 22.9217 7.53964 22.92C7.53788 22.8753 7.50184 22.8394 7.45674 22.8394C7.41165 22.8394 7.37551 22.8754 7.37385 22.92C7.32924 22.9218 7.2934 22.9579 7.2934 23.0031C7.2934 23.0482 7.32934 23.0846 7.37385 23.0862C7.37561 23.131 7.41165 23.1669 7.45674 23.1669C7.50184 23.1669 7.53798 23.1309 7.53964 23.0862C7.58425 23.0846 7.62009 23.0483 7.62009 23.0031Z"
            fill="#FFE15A" />
        <path
            d="M7.45659 23.0526C7.48365 23.0526 7.50558 23.0306 7.50558 23.0035C7.50558 22.9763 7.48365 22.9543 7.45659 22.9543C7.42953 22.9543 7.40759 22.9763 7.40759 23.0035C7.40759 23.0306 7.42953 23.0526 7.45659 23.0526Z"
            fill="#F5F5F5" />
        <path
            d="M7.30894 22.8619C7.30894 22.8168 7.27299 22.7804 7.22848 22.7788C7.22673 22.7341 7.19069 22.6981 7.14559 22.6981C7.10059 22.6981 7.06435 22.7342 7.0627 22.7788C7.01808 22.7805 6.98224 22.8167 6.98224 22.8619C6.98224 22.9071 7.01818 22.9433 7.0627 22.945C7.06445 22.9897 7.10049 23.0257 7.14559 23.0257C7.19059 23.0257 7.22682 22.9896 7.22848 22.945C7.27309 22.9433 7.30894 22.907 7.30894 22.8619Z"
            fill="#FFE15A" />
        <path
            d="M7.14458 22.9109C7.17164 22.9109 7.19357 22.8889 7.19357 22.8617C7.19357 22.8346 7.17164 22.8126 7.14458 22.8126C7.11752 22.8126 7.09558 22.8346 7.09558 22.8617C7.09558 22.8889 7.11752 22.9109 7.14458 22.9109Z"
            fill="#F5F5F5" />
        <path
            d="M10.9133 24.1016H12.4778C12.3776 23.8722 12.181 23.6947 11.9373 23.6224C11.9551 23.5085 11.966 23.3821 11.966 23.2464C11.966 22.7739 11.845 22.3909 11.6956 22.3909C11.5462 22.3909 11.4252 22.774 11.4252 23.2464C11.4252 23.382 11.436 23.5085 11.4539 23.6224C11.21 23.6947 11.0134 23.8722 10.9133 24.1016Z"
            fill="#F5F5F5" />
        <path
            d="M9.4598 31.7811C6.16352 31.7811 3.48169 29.0995 3.48169 25.803H4.60962C4.60962 28.4774 6.78539 30.6531 9.45971 30.6531C12.134 30.6531 14.3098 28.4774 14.3098 25.803H15.4379C15.4379 29.0995 12.7563 31.7811 9.4598 31.7811Z"
            fill="#FFE15A" />
        <path
            d="M11.6752 20.4614H10.7003C10.7981 20.4614 10.8775 20.3821 10.8775 20.2842C10.8775 20.1862 10.7982 20.1069 10.7003 20.1069H9.45955C9.3617 20.1069 9.28231 20.1862 9.28231 20.2842C9.28231 20.3821 9.3616 20.4614 9.45955 20.4614H7.24403C7.09716 20.4614 6.97821 20.5805 6.97821 20.7272C6.97821 20.874 7.09725 20.9931 7.24403 20.9931H8.04159C7.94374 20.9931 7.86444 21.0724 7.86444 21.1703C7.86444 21.2682 7.94374 21.3476 8.04168 21.3476H9.6369C9.73475 21.3476 9.81414 21.2683 9.81414 21.1703C9.81414 21.0725 9.73484 20.9931 9.63699 20.9931H11.6753C11.8221 20.9931 11.9411 20.874 11.9411 20.7272C11.9411 20.5805 11.822 20.4614 11.6752 20.4614Z"
            fill="#C87878" />
    </g>
    <defs>
        <clipPath id="clip0_9_1730">
            <rect width="50" height="50" fill="white" transform="translate(0.621094 0.746582)" />
        </clipPath>
    </defs>
</svg>
