<svg width="51" height="51" viewBox="0 0 51 51" fill="none" xmlns="http://www.w3.org/2000/svg">
    <g clip-path="url(#clip0_9_1757)">
        <path
            d="M49.9442 41.6979H1.6685C1.19243 41.6979 0.806396 41.3118 0.806396 40.8358V9.80144C0.806396 9.32537 1.19243 8.93933 1.6685 8.93933H49.9443C50.4204 8.93933 50.8064 9.32537 50.8064 9.80144V40.8358C50.8063 41.3119 50.4203 41.6979 49.9442 41.6979Z"
            fill="#41479B" />
        <path
            d="M49.9442 8.93933H1.6685C1.19243 8.93933 0.806396 9.32537 0.806396 9.80144V40.8358C0.806396 41.3118 1.19243 41.6979 1.6685 41.6979H49.9443C50.4204 41.6979 50.8064 41.3118 50.8064 40.8358V9.80144C50.8063 9.32537 50.4203 8.93933 49.9442 8.93933ZM49.0821 24.4565H40.6755L26.6685 17.0411V10.6634H49.0822V24.4565H49.0821ZM25.8062 32.102L12.9937 25.3186L25.8063 18.5353L38.619 25.3186L25.8062 32.102ZM24.9442 10.6634V17.0411L10.9371 24.4565H2.53051V10.6634H24.9442ZM2.53051 26.1807H10.9371L24.9442 33.5962V39.9737H2.53051V26.1807ZM26.6684 39.9737V33.5961L40.6756 26.1807H49.0821V39.9737H26.6684Z"
            fill="#FF4B55" />
        <path d="M25.8061 18.5353L12.9935 25.3186L25.8061 32.102L38.6189 25.3186L25.8061 18.5353Z"
            fill="#F5F5F5" />
        <path
            d="M21.496 29.8198H30.1167L36.1188 26.6423L33.4187 23.9423H32.4761L31.7803 24.6381L31.2839 24.1417H30.2913L26.4833 27.9496H21.703L20.6174 26.3423H19.2398L18.697 27.1028H18.087L17.7206 27.8211L21.496 29.8198Z"
            fill="#73AF00" />
        <path
            d="M25.922 21.1884L26.2647 22.2158L27.3477 22.2242C27.4879 22.2252 27.546 22.4042 27.4332 22.4875L26.562 23.1309L26.8888 24.1634C26.9311 24.2971 26.7788 24.4078 26.6648 24.3261L25.7837 23.6963L24.9027 24.3261C24.7885 24.4077 24.6364 24.297 24.6786 24.1634L25.0054 23.1309L24.1342 22.4875C24.0214 22.4042 24.0796 22.2253 24.2198 22.2242L25.3028 22.2158L25.6454 21.1884C25.6895 21.0555 25.8777 21.0555 25.922 21.1884Z"
            fill="#FFE15A" />
    </g>
    <defs>
        <clipPath id="clip0_9_1757">
            <rect width="50" height="50" fill="white" transform="translate(0.804688 0.318604)" />
        </clipPath>
    </defs>
</svg>
