<svg width="51" height="51" viewBox="0 0 51 51" fill="none" xmlns="http://www.w3.org/2000/svg">
    <g clip-path="url(#clip0_9_1722)">
        <path
            d="M50.9149 20.2869H0.915039V10.2294C0.915039 9.75334 1.30107 9.36731 1.77715 9.36731H50.0529C50.529 9.36731 50.915 9.75334 50.915 10.2294L50.9149 20.2869Z"
            fill="#F5F5F5" />
        <path
            d="M50.0528 42.1261H1.77715C1.30107 42.1261 0.915039 41.74 0.915039 41.2639V31.2065H50.9149V41.2639C50.9149 41.7401 50.5289 42.1261 50.0528 42.1261Z"
            fill="#FF4B55" />
        <path d="M50.9149 20.2867H0.915039V31.2057H50.9149V20.2867Z" fill="#41479B" />
        <path
            d="M13.6321 33.8801C13.3769 33.7335 7.38031 30.2457 7.38031 24.8847V17.5571H20.3113V24.8847C20.3113 30.2457 14.3148 33.7335 14.0596 33.8801L13.8458 34.002L13.6321 33.8801Z"
            fill="#FF4B55" />
        <path
            d="M17.2327 23.5916L15.2005 23.8593H14.5233V22.6466H14.9296L16.5552 22.9143L16.3351 21.9693L16.5552 21.0242L14.9296 21.2918H14.5233V20.8822L14.7909 18.8502L13.8459 19.1255L12.901 18.8502L13.1686 20.8822V21.2918H12.7621L11.1366 21.0242L11.3567 21.9693L11.1366 22.9143L12.7621 22.6466H13.1686V23.8593H12.4913L10.4592 23.5916L10.7344 24.5365L10.4592 25.4816L12.4913 25.2139H13.1686V28.333H14.5233V25.2139H15.2005L17.2327 25.4816L16.9575 24.5365L17.2327 23.5916Z"
            fill="#F5F5F5" />
        <path
            d="M13.8461 27.0398C12.9557 27.0398 12.192 27.58 11.8635 28.3502C11.8055 28.3455 11.75 28.3329 11.6909 28.3329C10.5434 28.3329 9.61416 29.2323 9.54834 30.3632C11.2939 32.512 13.4804 33.7925 13.6323 33.8799L13.8461 34.002L14.0599 33.8799C14.2118 33.7925 16.3982 32.5121 18.1438 30.3632C18.078 29.2323 17.1488 28.3329 16.0013 28.3329C15.9422 28.3329 15.8867 28.3455 15.8287 28.3502C15.5002 27.58 14.7365 27.0398 13.8461 27.0398Z"
            fill="#41479B" />
        <path
            d="M19.8806 17.9882C19.8806 17.9882 19.8806 23.1607 19.8806 24.8848C19.8806 30.0572 13.8462 33.5055 13.8462 33.5055C13.8462 33.5055 7.81169 30.0572 7.81169 24.8848C7.81169 23.1607 7.81169 17.9882 7.81169 17.9882H19.8806ZM20.7426 17.1261H19.8805H7.81169H6.94958V17.9882V24.8848C6.94958 30.493 13.1544 34.1029 13.4184 34.2539L13.8462 34.4983L14.2739 34.2539C14.538 34.1029 20.7427 30.4929 20.7427 24.8848V17.9882V17.1261H20.7426Z"
            fill="#F5F5F5" />
    </g>
    <defs>
        <clipPath id="clip0_9_1722">
            <rect width="50" height="50" fill="white" transform="translate(0.914062 0.746582)" />
        </clipPath>
    </defs>
</svg>
