<svg width="51" height="51" viewBox="0 0 51 51" fill="none" xmlns="http://www.w3.org/2000/svg">
    <g clip-path="url(#clip0_9_1707)">
        <path
            d="M50.3437 20.2869H0.343811V10.2294C0.343811 9.75334 0.729845 9.36731 1.20592 9.36731H49.4817C49.9578 9.36731 50.3438 9.75334 50.3438 10.2294L50.3437 20.2869Z"
            fill="#F5F5F5" />
        <path
            d="M49.4816 42.1261H1.20592C0.729845 42.1261 0.343811 41.74 0.343811 41.2639V31.2065H50.3437V41.2639C50.3437 41.7401 49.9577 42.1261 49.4816 42.1261Z"
            fill="#FF4B55" />
        <path d="M50.3438 20.2867H0.343872V31.2057H50.3438V20.2867Z" fill="#41479B" />
        <path
            d="M17.1422 16.1149C17.1422 16.1149 16.9686 21.645 16.1926 23.1979C15.2321 25.1066 14.2663 25.6634 12.8295 26.1779C11.3929 25.6635 10.4272 25.1071 9.46645 23.1979C8.69058 21.6449 8.51675 16.1155 8.51685 16.1149C11.2587 14.8769 14.4003 14.8769 17.1422 16.1149Z"
            fill="#41479B" />
        <path
            d="M14.0774 23.7835C13.9723 23.7161 13.8965 23.6678 13.724 23.6678C13.5521 23.6678 13.4763 23.716 13.3717 23.7835C13.2519 23.8597 13.1029 23.9552 12.8258 23.9552C12.5486 23.9552 12.3995 23.8597 12.2797 23.7831C12.1751 23.7162 12.0995 23.668 11.9276 23.668C11.7556 23.668 11.68 23.7162 11.5754 23.7831C11.4622 23.8556 11.3192 23.9421 11.0704 23.9517C11.5941 24.5902 12.143 24.8931 12.828 25.1561C13.5128 24.893 14.0616 24.5904 14.5853 23.9519C14.3348 23.9428 14.1909 23.8558 14.0774 23.7835Z"
            fill="#F5F5F5" />
        <path
            d="M10.678 22.7619C10.7826 22.8288 10.858 22.877 11.0294 22.877C11.2013 22.877 11.2769 22.8288 11.3815 22.7619C11.5013 22.6852 11.6504 22.5898 11.9274 22.5898C12.2045 22.5898 12.3535 22.6853 12.4733 22.7615C12.5779 22.8289 12.6537 22.8772 12.8256 22.8772C12.9976 22.8772 13.0732 22.829 13.1778 22.7621C13.2976 22.6854 13.4466 22.59 13.7239 22.59C14.0013 22.59 14.1506 22.6855 14.2705 22.7617C14.3755 22.8291 14.451 22.8774 14.6236 22.8774C14.7961 22.8774 14.8718 22.8292 14.9769 22.7617C15.077 22.698 15.2027 22.6241 15.4017 22.6005C15.4539 22.4648 15.5045 22.31 15.5517 22.122L14.2656 19.9784L13.7864 20.9368L12.828 19.0201L11.8696 20.9368L11.3904 19.9784L10.105 22.1207C10.152 22.3086 10.2026 22.4641 10.2548 22.6007C10.4531 22.624 10.5782 22.6979 10.678 22.7619Z"
            fill="#F5F5F5" />
        <path
            d="M15.1691 23.0647C15.0493 23.141 14.9001 23.2365 14.6225 23.2365C14.3453 23.2365 14.1961 23.141 14.0763 23.0647C13.9712 22.9973 13.8954 22.9491 13.7229 22.9491C13.551 22.9491 13.4752 22.9972 13.3706 23.0647C13.2508 23.141 13.1017 23.2365 12.8247 23.2365C12.5474 23.2365 12.3984 23.141 12.2786 23.0643C12.174 22.9974 12.0984 22.9493 11.9264 22.9493C11.7545 22.9493 11.6789 22.9974 11.5743 23.0643C11.4545 23.1411 11.3055 23.2365 11.0284 23.2365C10.7515 23.2365 10.6027 23.141 10.4833 23.0643C10.4827 23.064 10.4822 23.0636 10.4816 23.0633C10.5756 23.2338 10.6694 23.3903 10.763 23.5323C10.8329 23.5707 10.906 23.5959 11.0284 23.5959C11.2004 23.5959 11.276 23.5477 11.3806 23.4808C11.5004 23.4041 11.6494 23.3087 11.9264 23.3087C12.2035 23.3087 12.3525 23.4042 12.4723 23.4804C12.5769 23.5478 12.6527 23.5961 12.8247 23.5961C12.9967 23.5961 13.0722 23.5479 13.1768 23.481C13.2967 23.4043 13.4457 23.3089 13.7229 23.3089C14.0004 23.3089 14.1497 23.4044 14.2695 23.4806C14.3746 23.548 14.4501 23.5963 14.6226 23.5963C14.7469 23.5963 14.8206 23.5707 14.8916 23.5315C14.985 23.3897 15.0789 23.2332 15.1727 23.0629C15.1715 23.0634 15.1704 23.064 15.1691 23.0647Z"
            fill="#F5F5F5" />
        <path
            d="M12.849 17.3699L12.9331 17.6448L13.2131 17.5802C13.232 17.5758 13.2453 17.5988 13.232 17.6129L13.0361 17.8232L13.232 18.0334C13.2453 18.0477 13.2321 18.0706 13.2131 18.0661L12.9331 18.0016L12.849 18.2764C12.8434 18.295 12.8169 18.295 12.8112 18.2764L12.7272 18.0016L12.4472 18.0661C12.4282 18.0705 12.415 18.0476 12.4282 18.0334L12.6241 17.8232L12.4282 17.6129C12.415 17.5987 12.4281 17.5757 12.4472 17.5802L12.7272 17.6448L12.8112 17.3699C12.817 17.3513 12.8434 17.3513 12.849 17.3699Z"
            fill="#FFE15A" />
        <path
            d="M11.4709 16.0496L11.555 16.3244L11.835 16.2599C11.8539 16.2555 11.8672 16.2784 11.8539 16.2926L11.658 16.5029L11.8539 16.7131C11.8672 16.7274 11.854 16.7503 11.835 16.7458L11.555 16.6813L11.4709 16.9561C11.4653 16.9747 11.4388 16.9747 11.4331 16.9561L11.349 16.6813L11.0691 16.7458C11.0501 16.7502 11.0368 16.7273 11.0501 16.7131L11.246 16.5029L11.0501 16.2926C11.0368 16.2783 11.05 16.2554 11.0691 16.2599L11.349 16.3244L11.4331 16.0496C11.4388 16.031 11.4652 16.031 11.4709 16.0496Z"
            fill="#FFE15A" />
        <path
            d="M14.2364 16.0496L14.3205 16.3244L14.6005 16.2599C14.6194 16.2555 14.6327 16.2784 14.6194 16.2926L14.4235 16.5029L14.6194 16.7131C14.6327 16.7274 14.6195 16.7503 14.6005 16.7458L14.3205 16.6813L14.2364 16.9561C14.2308 16.9747 14.2043 16.9747 14.1986 16.9561L14.1146 16.6813L13.8346 16.7458C13.8156 16.7502 13.8023 16.7273 13.8156 16.7131L14.0115 16.5029L13.8156 16.2926C13.8023 16.2783 13.8155 16.2554 13.8346 16.2599L14.1146 16.3244L14.1986 16.0496C14.2044 16.031 14.2308 16.031 14.2364 16.0496Z"
            fill="#FFE15A" />
        <path
            d="M16.6458 15.9067C16.6487 16.0596 16.6512 16.2138 16.6512 16.3803C16.582 18.1092 16.3248 21.8742 15.7643 23.0082C14.9378 24.668 14.1747 25.2166 12.8292 25.7221C11.4837 25.2167 10.7207 24.6681 9.89485 23.0095C9.33225 21.8712 9.07317 18.0421 9.00705 16.3804C9.00705 16.2137 9.00979 16.0612 9.01213 15.9071C8.84631 15.9721 8.68147 16.0407 8.51819 16.1145C8.52971 16.4502 8.61331 18.6527 8.86438 20.5893C9.00598 21.6705 9.2009 22.6669 9.46623 23.198C10.4269 25.1072 11.3926 25.6637 12.8293 26.178C14.2661 25.6635 15.2318 25.1068 16.1925 23.198C16.4579 22.6669 16.6527 21.6705 16.7944 20.5893C17.0454 18.6527 17.1289 16.4502 17.1405 16.1145C16.977 16.0405 16.812 15.9717 16.6458 15.9067Z"
            fill="#FF1722" />
    </g>
    <defs>
        <clipPath id="clip0_9_1707">
            <rect width="50" height="50" fill="white" transform="translate(0.34375 0.746582)" />
        </clipPath>
    </defs>
</svg>
