<svg width="51" height="51" viewBox="0 0 51 51" fill="none" xmlns="http://www.w3.org/2000/svg">
<g clip-path="url(#clip0_9_1697)">
<path d="M49.7757 42.1259H1.49999C1.02391 42.1259 0.637878 41.7399 0.637878 41.2638V10.2294C0.637878 9.75334 1.02391 9.36731 1.49999 9.36731H49.7758C50.2518 9.36731 50.6379 9.75334 50.6379 10.2294V41.2638C50.6378 41.74 50.2517 42.1259 49.7757 42.1259Z" fill="#41479B"/>
<path d="M50.3195 9.57581L0.955566 41.9175C1.10498 42.042 1.29004 42.1259 1.49961 42.1259H49.7754C50.2515 42.1259 50.6375 41.7399 50.6375 41.2638V10.2294C50.6375 9.96301 50.5095 9.73381 50.3195 9.57581Z" fill="#73AF00"/>
<path d="M50.6378 10.2294C50.6378 9.75334 50.2517 9.36731 49.7757 9.36731H48.2777L0.637878 40.5798V41.2639C0.637878 41.74 1.02391 42.126 1.49999 42.126H2.99793L50.6378 10.9136V10.2294Z" fill="#FFE15A"/>
<path d="M4.97552 12.053L4.514 13.4367L3.05541 13.448C2.91557 13.4491 2.85756 13.6276 2.97006 13.7107L4.14339 14.5772L3.70345 15.968C3.66117 16.1014 3.81312 16.2116 3.92699 16.1304L5.11371 15.2822L6.30042 16.1304C6.41419 16.2117 6.56605 16.1014 6.52396 15.968L6.08402 14.5772L7.25735 13.7107C7.36985 13.6276 7.31185 13.4491 7.172 13.448L5.71341 13.4367L5.25189 12.053C5.20755 11.9203 5.01986 11.9203 4.97552 12.053Z" fill="#F5F5F5"/>
<path d="M16.0867 12.053L15.6251 13.4367L14.1666 13.448C14.0267 13.4491 13.9687 13.6276 14.0812 13.7107L15.2545 14.5772L14.8146 15.968C14.7723 16.1014 14.9243 16.2116 15.0381 16.1304L16.2248 15.2822L17.4116 16.1304C17.5253 16.2117 17.6772 16.1014 17.6351 15.968L17.1952 14.5772L18.3685 13.7107C18.481 13.6276 18.423 13.4491 18.2831 13.448L16.8246 13.4367L16.363 12.053C16.3186 11.9203 16.1309 11.9203 16.0867 12.053Z" fill="#F5F5F5"/>
<path d="M10.5312 17.004L10.0697 18.3876L8.61107 18.399C8.47123 18.4 8.41322 18.5786 8.52572 18.6617L9.69906 19.5282L9.25912 20.9189C9.21683 21.0523 9.36879 21.1625 9.48265 21.0813L10.6694 20.2331L11.8561 21.0813C11.9699 21.1626 12.1217 21.0523 12.0796 20.9189L11.6397 19.5282L12.813 18.6617C12.9255 18.5786 12.8675 18.4 12.7277 18.399L11.2691 18.3876L10.8076 17.004C10.763 16.8712 10.5754 16.8712 10.5312 17.004Z" fill="#F5F5F5"/>
<path d="M4.97552 21.955L4.514 23.3387L3.05541 23.35C2.91557 23.3511 2.85756 23.5296 2.97006 23.6127L4.14339 24.4792L3.70345 25.8699C3.66117 26.0033 3.81312 26.1136 3.92699 26.0323L5.11371 25.1842L6.30042 26.0323C6.41419 26.1137 6.56605 26.0033 6.52396 25.8699L6.08402 24.4792L7.25735 23.6127C7.36985 23.5296 7.31185 23.3511 7.172 23.35L5.71341 23.3387L5.25189 21.955C5.20755 21.8223 5.01986 21.8223 4.97552 21.955Z" fill="#F5F5F5"/>
<path d="M16.0867 21.955L15.6251 23.3387L14.1666 23.35C14.0267 23.3511 13.9687 23.5296 14.0812 23.6127L15.2545 24.4792L14.8146 25.8699C14.7723 26.0033 14.9243 26.1136 15.0381 26.0323L16.2248 25.1842L17.4116 26.0323C17.5253 26.1137 17.6772 26.0033 17.6351 25.8699L17.1952 24.4792L18.3685 23.6127C18.481 23.5296 18.423 23.3511 18.2831 23.35L16.8246 23.3387L16.363 21.955C16.3186 21.8223 16.1309 21.8223 16.0867 21.955Z" fill="#F5F5F5"/>
</g>
<defs>
<clipPath id="clip0_9_1697">
<rect width="50" height="50" fill="white" transform="translate(0.636719 0.746582)"/>
</clipPath>
</defs>
</svg>
