<svg width="51" height="51" viewBox="0 0 51 51" fill="none" xmlns="http://www.w3.org/2000/svg">
    <g clip-path="url(#clip0_9_1664)">
        <path
            d="M50.3606 20.2869H0.360718V10.2294C0.360718 9.75334 0.746752 9.36731 1.22283 9.36731H49.4986C49.9747 9.36731 50.3607 9.75334 50.3607 10.2294L50.3606 20.2869Z"
            fill="#73AF00" />
        <path
            d="M49.4985 42.1259H1.22283C0.746752 42.1259 0.360718 41.7399 0.360718 41.2638V31.2064H50.3606V41.2638C50.3606 41.74 49.9746 42.1259 49.4985 42.1259Z"
            fill="#FF4B55" />
        <path d="M50.3606 20.2867H0.360718V31.2057H50.3606V20.2867Z" fill="#F5F5F5" />
        <path
            d="M25.5778 23.255L26.1156 24.8676L27.8155 24.8808C28.0355 24.8826 28.1268 25.1633 27.9497 25.2941L26.5823 26.3038L27.0949 27.9246C27.1614 28.1344 26.9224 28.308 26.7433 28.18L25.3603 27.1916L23.9773 28.1801C23.7982 28.3081 23.5593 28.1345 23.6256 27.9247L24.1383 26.3039L22.7708 25.2942C22.5938 25.1635 22.6851 24.8826 22.9051 24.8809L24.605 24.8677L25.1428 23.2551C25.2128 23.0463 25.5081 23.0463 25.5778 23.255Z"
            fill="#464655" />
        <path
            d="M13.6885 13.8192C13.7562 14.2528 14.0184 14.389 14.2465 14.3713C14.5152 14.3504 14.7509 14.1046 14.7509 13.8451V12.3566C14.7509 12.282 14.8116 12.2212 14.8863 12.2212C14.961 12.2212 15.0216 12.282 15.0216 12.3566V13.8515C15.0216 14.0313 15.1104 14.1987 15.2593 14.2994C15.3503 14.361 15.4561 14.3928 15.5628 14.3928C15.6306 14.3928 15.6989 14.3799 15.7639 14.3539L15.8992 14.2998C15.9117 15.5492 15.8356 16.6475 15.8342 16.6676C15.8237 16.8166 15.9359 16.9461 16.0849 16.9567C16.0915 16.9573 16.098 16.9575 16.1046 16.9575C16.2453 16.9575 16.3641 16.8485 16.3743 16.7062C16.3805 16.6181 16.4639 15.4155 16.4389 14.084L16.5208 14.0514C16.5925 14.0229 16.673 14.0263 16.742 14.0607C17.0401 14.2092 17.3987 14.1513 17.6344 13.9158L17.6833 13.8672C17.902 13.6482 17.9771 13.3299 17.8793 13.0362L17.6488 12.3448C17.7734 12.3823 17.9103 12.3272 17.9705 12.2071C18.0374 12.0735 17.9832 11.9109 17.8495 11.844L17.3082 11.5733C17.2102 11.5241 17.0927 11.5392 17.0098 11.6108C16.9271 11.6826 16.8959 11.7971 16.9304 11.901L17.3659 13.2074C17.3985 13.3053 17.3734 13.4115 17.3005 13.4844L17.2519 13.533C17.1813 13.6036 17.0739 13.6207 16.984 13.5764C16.8087 13.4888 16.6089 13.4723 16.4215 13.5201C16.3835 12.6515 16.29 11.7864 16.0906 11.1885C16.0434 11.0468 15.8904 10.9699 15.7481 11.0175C15.6063 11.0646 15.5297 11.2178 15.577 11.3598C15.7719 11.9445 15.857 12.8359 15.8872 13.7221L15.5632 13.8517V12.3568C15.5632 11.9836 15.2597 11.6801 14.8866 11.6801C14.5135 11.6801 14.2099 11.9835 14.2099 12.3568V13.6669L13.9339 12.3031C13.9045 12.1565 13.7618 12.0608 13.615 12.0914C13.4684 12.1213 13.3737 12.2641 13.4035 12.4104L13.6885 13.8192Z"
            fill="#F5F5F5" />
        <path
            d="M14.2093 11.5446C14.3587 11.5446 14.48 11.4236 14.48 11.2739V11.0032C14.48 10.8536 14.3588 10.7325 14.2093 10.7325C14.0599 10.7325 13.9386 10.8535 13.9386 11.0032V11.2739C13.9388 11.4236 14.0599 11.5446 14.2093 11.5446Z"
            fill="#F5F5F5" />
        <path
            d="M16.9157 11.2738H17.1864C17.3358 11.2738 17.4571 11.1528 17.4571 11.0031C17.4571 10.8534 17.3359 10.7324 17.1864 10.7324H16.9157C16.7662 10.7324 16.645 10.8534 16.645 11.0031C16.645 11.1528 16.7661 11.2738 16.9157 11.2738Z"
            fill="#F5F5F5" />
        <path
            d="M15.1527 14.831L13.7995 15.6429C13.6712 15.7198 13.6297 15.886 13.7067 16.0142C13.7575 16.0987 13.847 16.1455 13.939 16.1455C13.9865 16.1455 14.0344 16.1331 14.078 16.1069L15.4312 15.295C15.5594 15.2181 15.6009 15.0518 15.524 14.9237C15.447 14.7956 15.281 14.7541 15.1527 14.831Z"
            fill="#F5F5F5" />
        <path
            d="M18.8016 15.3097L18.8079 15.3054C18.8307 15.3969 18.8696 15.4853 18.9328 15.5597C19.0428 15.6891 19.2077 15.7542 19.394 15.7389C19.6584 15.7195 19.8381 15.5988 19.9569 15.4429C19.975 15.4553 19.9941 15.4667 20.0141 15.4766C20.1603 15.5504 20.3295 15.5448 20.4905 15.4613C20.8996 15.2507 20.9877 14.7633 20.9752 14.5085C20.968 14.3599 20.8416 14.2551 20.6933 14.2521C20.5446 14.2585 20.429 14.3846 20.4343 14.5331C20.4344 14.5365 20.4405 14.8577 20.244 14.9768C20.212 14.9321 20.174 14.8317 20.1598 14.7487C20.1369 14.6094 20.009 14.5124 19.8713 14.5235C19.7309 14.5347 19.6225 14.6525 19.6221 14.7933C19.622 14.8327 19.6133 15.18 19.3451 15.2091C19.314 15.1665 19.3135 14.9873 19.344 14.8549C19.3699 14.7463 19.3264 14.6329 19.2345 14.5694C19.1424 14.5057 19.0209 14.5057 18.9285 14.5683L18.7774 14.6712C18.7057 13.1016 18.5405 11.2727 18.5385 11.2493C18.525 11.1008 18.3941 10.99 18.2444 11.0043C18.0955 11.0178 17.9858 11.1494 17.9993 11.2984C18.0017 11.3234 18.1929 13.4394 18.2517 15.0556C18.238 15.0687 18.2236 15.0831 18.2101 15.0956C18.103 14.8258 17.8909 14.6558 17.6176 14.6299C17.2319 14.5958 16.8142 14.8582 16.6644 15.233C16.5353 15.5555 16.6165 15.8723 16.8713 16.0402C17.0545 16.161 17.3309 16.199 17.6785 16.0771C17.5937 16.3753 17.4392 16.6776 17.2383 16.9115C17.0584 17.1211 16.758 17.3629 16.3736 17.3521C16.1499 17.3434 15.9779 17.2702 15.848 17.128C15.5347 16.7857 15.5616 16.1662 15.5619 16.1596C15.5696 16.0105 15.4556 15.8834 15.3066 15.8752C15.1566 15.8594 15.0297 15.9812 15.0214 16.1305C15.0195 16.1648 14.9804 16.9788 15.4464 17.4908C15.6758 17.7431 15.9807 17.8783 16.3524 17.8929C16.3705 17.8936 16.3887 17.8939 16.4068 17.8939C16.8597 17.8939 17.2988 17.672 17.6487 17.264C17.9779 16.8807 18.2015 16.3601 18.2684 15.8768C18.2676 16.8027 17.7098 17.847 16.9698 18.307C16.6557 18.502 16.1659 18.6781 15.6143 18.4061C14.9342 18.0705 15.0152 17.2932 15.0187 17.2614C15.0374 17.1132 14.9321 16.9778 14.7838 16.9594C14.6361 16.9414 14.5001 17.0458 14.4817 17.1943C14.4757 17.2427 14.3456 18.3837 15.3748 18.8914C15.6392 19.0219 15.9155 19.0868 16.1942 19.0868C16.5521 19.0868 16.9133 18.9798 17.2557 18.7668C18.1563 18.207 18.8101 16.9907 18.8101 15.8748C18.8104 15.7007 18.8071 15.51 18.8016 15.3097ZM17.1696 15.5886C17.1213 15.5565 17.1591 15.4543 17.1673 15.434C17.2243 15.2913 17.4025 15.1678 17.545 15.1678C17.5522 15.1678 17.5597 15.168 17.5668 15.1688C17.6014 15.172 17.6933 15.1806 17.7327 15.385C17.7369 15.4067 17.7404 15.4289 17.7433 15.4516C17.4416 15.6288 17.2394 15.6344 17.1696 15.5886Z"
            fill="#F5F5F5" />
        <path
            d="M14.346 18.0778C14.2178 18.0025 14.0522 18.0456 13.976 18.1737C13.9636 18.1946 13.947 18.2174 13.9303 18.238C13.9273 18.231 13.9244 18.2237 13.9216 18.2158C13.8088 17.9147 13.8891 17.451 13.9297 17.2976C13.9679 17.1533 13.8819 17.0053 13.7377 16.9667C13.5937 16.9298 13.4454 17.0138 13.4067 17.1581C13.387 17.2312 13.2206 17.8884 13.4148 18.4058C13.539 18.7368 13.7296 18.8203 13.8679 18.8316C13.8802 18.8327 13.8923 18.8333 13.9043 18.8333C14.1957 18.8333 14.3896 18.5396 14.4436 18.4467C14.5182 18.3176 14.4744 18.1535 14.346 18.0778Z"
            fill="#F5F5F5" />
        <path
            d="M19.3404 13.1685C19.3989 13.1685 19.4579 13.1498 19.5074 13.1106L20.8719 12.0394C20.8907 12.0247 20.9027 12.0052 20.9165 11.9871C21.113 11.8685 21.246 11.6551 21.246 11.4093C21.246 11.0362 20.9425 10.7327 20.5693 10.7327C20.1963 10.7327 19.8927 11.0361 19.8927 11.4093C19.8927 11.6181 19.9896 11.8028 20.1387 11.9269L19.1729 12.6851C19.0555 12.7774 19.0351 12.9476 19.1272 13.065C19.1808 13.1331 19.2601 13.1685 19.3404 13.1685ZM20.5694 11.2739C20.6441 11.2739 20.7048 11.3346 20.7048 11.4092C20.7048 11.4838 20.6441 11.5446 20.5694 11.5446C20.4947 11.5446 20.4341 11.4838 20.4341 11.4092C20.4341 11.3347 20.4947 11.2739 20.5694 11.2739Z"
            fill="#F5F5F5" />
        <path
            d="M20.249 12.9119C20.1065 12.8644 19.9538 12.9412 19.9066 13.0829C19.8776 13.1695 19.7468 13.616 20.012 13.881C20.115 13.9842 20.2503 14.0356 20.4164 14.0353C20.5275 14.0353 20.6522 14.0126 20.7903 13.9664C20.932 13.9193 21.0087 13.7661 20.9613 13.6241C20.9141 13.4824 20.7611 13.4053 20.6189 13.4531C20.4677 13.5033 20.4036 13.4951 20.398 13.5004C20.382 13.4602 20.3926 13.3394 20.4202 13.2529C20.4671 13.1116 20.3904 12.959 20.249 12.9119Z"
            fill="#F5F5F5" />
        <path
            d="M23.3468 11.793C23.3721 11.8005 23.3977 11.8039 23.4228 11.8039C23.5401 11.8039 23.648 11.7272 23.6824 11.609L23.8405 11.0677C23.8823 10.9242 23.7999 10.7739 23.6565 10.7321C23.5125 10.6906 23.3627 10.7725 23.3208 10.9161L23.1629 11.4574C23.1209 11.6007 23.2035 11.7512 23.3468 11.793Z"
            fill="#F5F5F5" />
        <path
            d="M21.7691 11.7613C21.8121 11.7864 21.859 11.7982 21.9055 11.7982C21.9985 11.7982 22.089 11.7503 22.1395 11.6641C22.2149 11.5351 22.1715 11.3692 22.0425 11.2939C21.9881 11.2622 21.9955 11.1726 21.9975 11.1549C22.0056 11.0838 22.0479 10.9972 22.1217 10.9741C22.2644 10.9296 22.3442 10.778 22.2998 10.6353C22.255 10.4923 22.1037 10.4133 21.9608 10.4572C21.691 10.5412 21.4943 10.791 21.4597 11.0934C21.4274 11.3748 21.546 11.6308 21.7691 11.7613Z"
            fill="#F5F5F5" />
        <path
            d="M19.6223 16.1455C19.4729 16.1455 19.3516 16.2665 19.3516 16.4162C19.3516 16.5483 19.4463 16.6583 19.5715 16.682C19.5858 16.7029 19.6223 16.7745 19.6223 16.9574C19.6223 17.107 19.7435 17.2281 19.893 17.2281C20.0425 17.2281 20.1637 17.1071 20.1637 16.9574C20.1636 16.1548 19.6444 16.1455 19.6223 16.1455Z"
            fill="#F5F5F5" />
        <path
            d="M24.2142 15.025C24.2482 15.0306 24.2819 15.0332 24.3159 15.0332C24.5285 15.0332 24.7434 14.9259 24.9563 14.7132C25.0619 14.6075 25.0619 14.4362 24.9563 14.3305C24.8506 14.2248 24.6793 14.2248 24.5735 14.3305C24.4117 14.4926 24.3246 14.4959 24.3023 14.4909C24.2505 14.4835 24.2037 14.4161 24.1933 14.3975C24.1254 14.266 23.9644 14.2133 23.8318 14.2797C23.6982 14.3466 23.644 14.5091 23.7109 14.6429C23.7276 14.6765 23.8839 14.9714 24.2142 15.025Z"
            fill="#F5F5F5" />
        <path
            d="M28.8142 13.123C28.8125 13.1188 28.8109 13.1148 28.8096 13.1112C28.7617 12.9705 28.6084 12.8942 28.468 12.942C28.3261 12.9891 28.2495 13.1423 28.2968 13.2843C28.3179 13.3478 28.4385 13.6659 28.7372 13.7062C28.7571 13.7089 28.7769 13.7102 28.7966 13.7102C28.9841 13.7102 29.16 13.5889 29.3202 13.3489C29.4031 13.2246 29.3694 13.0565 29.2451 12.9736C29.1207 12.8908 28.9525 12.9242 28.8698 13.0487C28.8482 13.0805 28.8298 13.1048 28.8142 13.123Z"
            fill="#F5F5F5" />
        <path
            d="M28.2831 18.0401C28.2831 16.8859 28.2323 15.8032 28.162 14.8546C28.5464 15.5211 28.8921 16.1945 29.1123 16.782C29.1531 16.8906 29.2562 16.9576 29.3657 16.9576C29.3973 16.9576 29.4294 16.952 29.4607 16.9405C29.6007 16.888 29.6716 16.732 29.6191 16.5919C29.2766 15.6786 28.6608 14.591 28.0539 13.6255C27.906 12.1675 27.7403 11.2422 27.7373 11.2257C27.7105 11.0785 27.5699 10.9791 27.4227 11.0079C27.2756 11.0347 27.178 11.1755 27.2048 11.3225C27.2069 11.3342 27.2923 11.8109 27.3941 12.6132C27.1862 12.3047 26.9931 12.0263 26.8309 11.7972L26.8441 11.8014C26.9867 11.8489 27.1392 11.7721 27.1866 11.6304C27.2339 11.4885 27.1573 11.3352 27.0155 11.2881L26.2036 11.0174C26.091 10.9793 25.9674 11.0195 25.8984 11.1156C25.88 11.1413 25.8673 11.1694 25.8589 11.1986C25.6968 11.0788 25.4891 10.9815 25.294 11.0631C25.1761 11.112 25.0355 11.2352 25.0355 11.5446C25.0355 11.7822 25.1261 12.0392 25.2222 12.3113C25.3815 12.7627 25.4814 13.0947 25.3126 13.253C25.2192 13.3405 25.1262 13.3735 25.0353 13.3506C24.8684 13.3083 24.7031 13.086 24.5932 12.7559C24.5884 12.7415 24.5784 12.7311 24.5716 12.7183C24.6285 12.2989 24.6037 11.7939 24.4891 11.2209C24.4599 11.0742 24.3176 10.9788 24.1705 11.0086C24.0239 11.0379 23.9289 11.1804 23.9582 11.3271C24.135 12.2109 24.0819 12.932 23.8164 13.2558C23.7137 13.381 23.5852 13.4392 23.4116 13.4392C23.3567 13.4392 23.3193 13.4217 23.2821 13.3789C23.0686 13.1328 23.0695 12.3389 23.1384 11.8534C23.1494 11.776 23.1261 11.6972 23.0747 11.638C23.0233 11.5788 22.9487 11.5446 22.8704 11.5446C22.4047 11.5446 22.2281 12.0742 22.0724 12.5416C22.004 12.747 21.8767 13.1289 21.7879 13.1685C21.624 13.1685 21.5182 12.6875 21.5172 12.3563C21.5168 12.207 21.3957 12.0862 21.2465 12.0862H21.2461C21.0968 12.0862 20.9759 12.2072 20.9759 12.3566C20.9759 12.9809 21.1885 13.7099 21.7878 13.7099C22.234 13.7099 22.4149 13.2235 22.5661 12.7716C22.5924 13.131 22.6735 13.5035 22.8732 13.7334C23.0134 13.8951 23.1995 13.9805 23.4116 13.9805C23.7457 13.9805 24.0304 13.8485 24.2349 13.5991C24.272 13.554 24.3038 13.5021 24.3355 13.4498C24.4927 13.6731 24.6854 13.8205 24.9025 13.8754C24.9662 13.8916 25.0304 13.8997 25.0939 13.8997C25.3028 13.8997 25.507 13.8135 25.6833 13.6478C25.7199 13.6134 25.7458 13.5758 25.7737 13.5387C25.8399 13.5576 25.907 13.5688 25.9736 13.5688C26.193 13.5688 26.4039 13.4806 26.5349 13.3966C26.6602 13.3162 26.6964 13.1503 26.6168 13.0245C26.537 12.8989 26.3703 12.8614 26.2441 12.9402C26.2419 12.9413 26.061 13.0452 25.9378 13.0208C25.9381 12.7241 25.8308 12.409 25.7327 12.1313C25.6769 11.9732 25.6196 11.8113 25.5928 11.6789C25.615 11.6976 25.6369 11.7173 25.6564 11.7362C25.7618 11.8419 25.9332 11.8419 26.0389 11.7362C26.0563 11.7187 26.0664 11.6976 26.0782 11.677C26.3588 12.0636 26.9357 12.8757 27.5293 13.8118C27.6426 14.9625 27.7421 16.4305 27.7421 18.0403C27.7421 18.1899 27.8633 18.311 28.0128 18.311C28.1619 18.3107 28.2831 18.1896 28.2831 18.0401Z"
            fill="#F5F5F5" />
        <path
            d="M28.5535 12.0858C28.5535 12.2354 28.6747 12.3565 28.8242 12.3565C28.9736 12.3565 29.0949 12.2355 29.0949 12.0858C29.0949 11.7673 28.8457 11.2527 28.7957 11.1528C28.7288 11.0193 28.5664 10.9654 28.4325 11.0318C28.2988 11.0987 28.2446 11.2612 28.3115 11.395C28.4091 11.5902 28.5535 11.9446 28.5535 12.0858Z"
            fill="#F5F5F5" />
        <path
            d="M27.3222 18.0697C27.1896 18.002 27.0264 18.0557 26.959 18.1888C26.9299 18.2456 26.8848 18.3088 26.8468 18.3494C26.8346 18.2419 26.8635 18.027 26.9179 17.8489C26.9543 17.7299 26.9051 17.6014 26.7984 17.5375C26.6923 17.4733 26.5555 17.49 26.4678 17.578L25.9265 18.1193C25.8209 18.2249 25.8209 18.3962 25.9265 18.502C26.0322 18.6078 26.2035 18.6077 26.3093 18.502L26.323 18.4882C26.3464 18.5968 26.3912 18.6959 26.4678 18.7726C26.5693 18.8741 26.692 18.9278 26.8195 18.9278C26.8442 18.9278 26.8691 18.9256 26.8938 18.9217C27.2004 18.872 27.3913 18.534 27.4426 18.4318C27.5093 18.2984 27.4553 18.1369 27.3222 18.0697Z"
            fill="#F5F5F5" />
        <path
            d="M27.2172 15.8918H25.3098C25.3267 15.8244 25.3442 15.7603 25.3618 15.6991C26.1225 15.541 26.5745 15.2956 26.7075 14.9678C26.7535 14.8541 26.8015 14.6244 26.6058 14.3605C26.4294 14.1227 26.1802 14.0158 25.9216 14.0687C25.537 14.1467 25.1944 14.5611 24.9485 15.2245C24.1845 15.3554 23.6953 15.6296 23.3858 15.9003C23.276 14.7912 22.8453 14.1324 22.8245 14.1011C22.7415 13.9767 22.5735 13.943 22.4492 14.026C22.3249 14.109 22.2913 14.2769 22.3741 14.4013C22.379 14.4087 22.8699 15.1596 22.8699 16.4163C22.8699 17.6517 21.8849 18.5816 21.246 18.5816C20.9421 18.5816 20.8092 18.2203 20.7506 17.915C21.376 17.4766 21.928 16.9693 22.0498 16.4819C22.2148 15.8225 22.0072 15.3364 21.8698 15.0149C21.8634 15.0001 21.8566 14.9842 21.8498 14.9678C21.8557 14.9731 21.8612 14.9786 21.8667 14.984C21.9722 15.0897 22.1436 15.0897 22.2492 14.984C22.3549 14.8783 22.3549 14.707 22.2492 14.6013C22.091 14.443 21.7838 14.1943 21.5045 14.3111C21.3865 14.36 21.2459 14.4831 21.2459 14.7926C21.2459 14.9324 21.3043 15.0691 21.372 15.2277C21.4939 15.5129 21.6453 15.8679 21.5245 16.3509C21.4531 16.6367 21.1019 16.9836 20.6387 17.3279C20.589 17.2686 20.5172 17.2286 20.4339 17.2286H20.4335C20.2842 17.2288 20.1633 17.3496 20.1633 17.499C20.1633 17.5478 20.1655 17.5998 20.1686 17.6532C19.5894 18.0283 18.934 18.3755 18.4273 18.6061C18.2912 18.6679 18.2312 18.8283 18.293 18.9645C18.3384 19.0642 18.4367 19.1231 18.5395 19.1231C18.577 19.1231 18.6151 19.1154 18.6513 19.0987C18.8034 19.0296 19.5257 18.6931 20.2678 18.2332C20.4044 18.6972 20.694 19.1231 21.2459 19.1231C21.8951 19.1231 22.6318 18.5921 23.0568 17.7994C23.108 17.8901 23.1671 17.9768 23.2373 18.0578C23.9186 18.8434 25.2491 18.8524 25.3055 18.8524C25.4513 18.8524 25.5707 18.7371 25.576 18.5915C25.5812 18.4459 25.4701 18.3222 25.3249 18.3119C25.3228 18.3117 25.1071 18.2879 24.9871 18.1478C24.9147 18.0632 24.8858 17.9469 24.8986 17.7923C24.9264 17.4588 26.0021 17.2096 26.9504 17.1946C27.0635 17.1928 27.1635 17.1211 27.2014 17.0147L27.4721 16.2534C27.5015 16.1707 27.4889 16.0784 27.4381 16.0069C27.3877 15.9347 27.3051 15.8918 27.2172 15.8918ZM26.0291 14.5994C26.0343 14.5984 26.0412 14.5967 26.0497 14.5967C26.0756 14.5967 26.1164 14.6094 26.1709 14.6829C26.1813 14.6967 26.2142 14.7437 26.2059 14.7643C26.1748 14.8409 25.988 14.9675 25.5987 15.0822C25.7698 14.7483 25.9373 14.6178 26.0291 14.5994ZM24.3947 18.1571C24.1197 18.0678 23.8396 17.9261 23.6456 17.7018C23.4324 17.4552 23.3537 17.1433 23.4053 16.7486C23.413 16.7279 23.4307 16.687 23.4617 16.6339C23.8429 16.5989 24.861 16.7492 24.9316 17.0408C24.6176 17.2012 24.3862 17.4265 24.3595 17.747C24.3461 17.9077 24.3624 18.0438 24.3947 18.1571Z"
            fill="#F5F5F5" />
        <path
            d="M30.1637 12.0004L29.893 11.1885C29.8494 11.0579 29.7139 10.98 29.5797 11.0096C29.4447 11.0384 29.3532 11.1639 29.367 11.3011C29.5537 13.1686 29.9069 16.8107 29.9069 17.2283C29.9069 17.6033 29.2398 18.3418 28.162 18.8807C28.0283 18.9476 27.9741 19.1101 28.041 19.2439C28.0885 19.3388 28.184 19.3935 28.2834 19.3935C28.3239 19.3935 28.3653 19.3842 28.4042 19.365C29.3886 18.8726 30.4482 17.9941 30.4482 17.2284C30.4482 16.8285 30.1716 13.9512 30.0132 12.3351C30.1418 12.2802 30.2087 12.135 30.1637 12.0004Z"
            fill="#F5F5F5" />
        <path
            d="M32.4221 14.4424C32.4742 14.4944 32.5434 14.5217 32.6136 14.5217C32.6593 14.5217 32.7054 14.51 32.7473 14.4862C32.8532 14.426 32.9057 14.3022 32.8758 14.1842C32.8272 13.9938 32.8111 13.756 32.8368 13.6588C32.9723 13.663 33.0982 13.5665 33.1181 13.4266C33.1392 13.2786 33.0365 13.1414 32.8886 13.1203C32.7096 13.096 32.5525 13.1485 32.4427 13.2707C32.3717 13.35 32.3294 13.4517 32.3063 13.5612L31.9928 13.2477C31.8872 13.1421 31.7159 13.1421 31.6101 13.2477C31.5045 13.3534 31.5045 13.5247 31.6101 13.6305L32.4221 14.4424Z"
            fill="#F5F5F5" />
        <path
            d="M33.0308 14.7246L32.0159 15.452C31.8944 15.5389 31.8664 15.7081 31.9535 15.8297C32.0064 15.9034 32.0895 15.9425 32.1737 15.9425C32.2283 15.9425 32.2833 15.9261 32.3311 15.8917L33.346 15.1644C33.4675 15.0774 33.4955 14.9082 33.4084 14.7866C33.3212 14.6652 33.1518 14.6369 33.0308 14.7246Z"
            fill="#F5F5F5" />
        <path
            d="M32.941 15.7425C32.8559 15.8522 32.8681 16.0065 32.9648 16.1015C32.9764 16.1211 33.0291 16.2246 33.0196 16.491C33.0144 16.6407 33.1312 16.7659 33.2805 16.7712C33.2838 16.7714 33.287 16.7714 33.2902 16.7714C33.4354 16.7714 33.5553 16.6565 33.5606 16.5106C33.5804 15.9582 33.3995 15.7563 33.3209 15.6951C33.2031 15.603 33.0328 15.6246 32.941 15.7425Z"
            fill="#F5F5F5" />
        <path
            d="M35.303 17.7356C35.4524 17.7356 35.5737 17.6146 35.5737 17.4649C35.5737 17.0656 35.5532 16.6198 35.5196 16.1559C35.788 16.5956 36.0109 17.001 36.1539 17.3345C36.1977 17.4373 36.2976 17.4987 36.4027 17.4987C36.4382 17.4987 36.4745 17.4917 36.5091 17.4767C36.6464 17.4177 36.7101 17.2587 36.6511 17.1215C36.4034 16.5433 35.9403 15.7774 35.4129 14.9865C35.3067 13.993 35.168 13.0198 35.0603 12.3215C35.1176 12.3274 35.1771 12.3133 35.2294 12.2795C35.3148 12.2248 35.3549 12.1296 35.3492 12.035C35.3561 12.0617 35.3636 12.0883 35.3792 12.1128C35.381 12.1156 35.5549 12.4028 35.4778 12.7754C35.4475 12.9215 35.5416 13.0649 35.6881 13.0953C35.7066 13.099 35.725 13.1008 35.7431 13.1008C35.8688 13.1008 35.9814 13.0127 36.008 12.8849C36.1301 12.2936 35.8479 11.8412 35.8359 11.8222C35.7555 11.6963 35.5883 11.6594 35.4622 11.7392C35.3763 11.794 35.3358 11.8891 35.3414 11.9839C35.3343 11.9572 35.3266 11.9302 35.3109 11.9057L34.8543 11.1953C34.7844 11.0869 34.648 11.043 34.5281 11.0896C34.408 11.1367 34.3377 11.2617 34.36 11.3885C34.3638 11.4097 34.5706 12.5975 34.754 14.029C34.5465 13.736 34.339 13.4495 34.1378 13.176C34.105 12.7666 34.0722 12.3879 34.0439 12.075C34.0589 12.0705 34.0735 12.0646 34.0879 12.0575C34.2216 11.9906 34.2758 11.8281 34.2089 11.6943L33.9382 11.153C33.8798 11.0362 33.7465 10.978 33.6209 11.014C33.4955 11.0504 33.4137 11.171 33.4267 11.3011C33.4591 11.6241 33.4925 11.9817 33.5257 12.3573C33.3545 12.1316 33.1961 11.925 33.0606 11.7501C33.087 11.7274 33.1096 11.6992 33.1262 11.6659C33.1931 11.5322 33.1389 11.3696 33.0052 11.3027L32.4639 11.032C32.3505 10.9754 32.2126 11.005 32.1324 11.1039C32.0525 11.2027 32.0522 11.3438 32.1316 11.4432C32.1463 11.4614 32.8126 12.2967 33.6097 13.3749C33.748 15.1632 33.84 17.0233 33.71 17.4133C33.6862 17.4846 33.6447 17.5687 33.6057 17.5716C33.4422 17.5944 33.0517 17.2286 32.8556 16.8366C32.7426 16.6108 32.5801 16.5873 32.4931 16.5913C32.2023 16.6093 32.0887 16.9294 31.8825 17.5103C31.7346 17.9266 31.551 18.4441 31.3447 18.6558C31.233 18.5193 31.0885 18.0611 31.0082 17.5902C31.0459 17.6943 31.1433 17.7696 31.2604 17.7696C31.4098 17.7696 31.5311 17.6486 31.5311 17.4989C31.5311 17.0953 31.2488 14.0214 31.0912 12.3369C31.2227 12.2839 31.2921 12.1368 31.2466 12.0004L30.9759 11.1885C30.9323 11.058 30.7988 10.9811 30.6631 11.0093C30.5284 11.0378 30.4366 11.1628 30.4496 11.2999C30.6336 13.2305 30.9785 16.9598 30.9891 17.4746C30.9885 17.4701 30.9875 17.4654 30.9869 17.4609C30.9659 17.3128 30.8277 17.2115 30.6807 17.2313C30.5327 17.2528 30.4301 17.3896 30.4512 17.5376C30.5303 18.0909 30.7322 19.042 31.1973 19.1969C31.2341 19.2093 31.2836 19.2204 31.3415 19.2204C31.4481 19.2204 31.5838 19.1827 31.7223 19.044C32.0172 18.7493 32.2166 18.1874 32.3926 17.6918C32.4323 17.5797 32.4794 17.4471 32.5238 17.3334C32.772 17.696 33.2052 18.1474 33.6442 18.112C33.7985 18.1009 34.0793 18.018 34.2235 17.585C34.3674 17.1532 34.3106 15.6475 34.2135 14.206C34.4416 14.5256 34.6698 14.8528 34.8876 15.176C34.9719 15.9865 35.0324 16.7986 35.0324 17.4655C35.0323 17.6146 35.1535 17.7356 35.303 17.7356Z"
            fill="#F5F5F5" />
        <path
            d="M37.3569 16.3121C37.1652 14.8838 36.8981 13.2293 36.7289 12.2139C36.8052 12.2326 36.8884 12.2173 36.9556 12.1658C37.0746 12.0752 37.0973 11.9053 37.0066 11.7865L36.5161 11.1437C36.4403 11.0449 36.3069 11.01 36.1925 11.0599C36.0782 11.1099 36.0129 11.2315 36.0342 11.3544C36.0391 11.3822 36.5217 14.1605 36.8203 16.3841C36.9342 17.2339 36.7678 17.9931 36.3747 18.415C36.1219 18.6859 35.7872 18.8086 35.382 18.785C35.2332 18.777 35.1042 18.8891 35.0948 19.0383C35.0854 19.1874 35.1987 19.3157 35.3479 19.3254C35.3936 19.3283 35.4386 19.3296 35.4834 19.3296C35.9937 19.3296 36.4367 19.1424 36.7707 18.7841C37.2805 18.2366 37.4942 17.3357 37.3569 16.3121Z"
            fill="#F5F5F5" />
        <path
            d="M34.3793 18.0963C34.2799 18.2044 34.2875 18.3746 34.3927 18.4765C34.4073 18.4908 34.4249 18.5188 34.425 18.5326C34.4251 18.5402 34.4141 18.5629 34.3841 18.5931C34.2784 18.6988 34.2784 18.8701 34.3841 18.9758C34.437 19.0288 34.5061 19.0551 34.5755 19.0551C34.6448 19.0551 34.7139 19.0288 34.7669 18.9758C34.9386 18.8043 34.97 18.6301 34.9661 18.5141C34.9578 18.2643 34.7877 18.1031 34.7537 18.0733C34.6432 17.9769 34.4787 17.9885 34.3793 18.0963Z"
            fill="#F5F5F5" />
    </g>
    <defs>
        <clipPath id="clip0_9_1664">
            <rect width="50" height="50" fill="white" transform="translate(0.359375 0.746582)" />
        </clipPath>
    </defs>
</svg>
