<svg width="51" height="51" viewBox="0 0 51 51" fill="none" xmlns="http://www.w3.org/2000/svg">
    <g clip-path="url(#clip0_9_1694)">
        <path
            d="M49.2044 42.1259H0.928758C0.452685 42.1259 0.0666504 41.7399 0.0666504 41.2638V10.2294C0.0666504 9.75334 0.452685 9.36731 0.928758 9.36731H49.2045C49.6806 9.36731 50.0667 9.75334 50.0667 10.2294V41.2638C50.0666 41.74 49.6805 42.1259 49.2044 42.1259Z"
            fill="#82AFFF" />
        <path
            d="M24.8189 19.6376L23.3726 23.9744L18.801 24.0099C18.5504 24.0118 18.4466 24.3316 18.6481 24.4806L22.3257 27.1963L20.9466 31.5549C20.871 31.7938 21.1431 31.9915 21.3469 31.8457L25.0664 29.1875L28.7857 31.8459C28.9896 31.9916 29.2617 31.7939 29.186 31.5551L27.807 27.1964L31.4845 24.4807C31.6862 24.3317 31.5823 24.0119 31.3316 24.01L26.76 23.9745L25.3137 19.6377C25.2344 19.3999 24.8983 19.3999 24.8189 19.6376Z"
            fill="#F5F5F5" />
    </g>
    <defs>
        <clipPath id="clip0_9_1694">
            <rect width="50" height="50" fill="white" transform="translate(0.0664062 0.746582)" />
        </clipPath>
    </defs>
</svg>
