<svg width="51" height="51" viewBox="0 0 51 51" fill="none" xmlns="http://www.w3.org/2000/svg">
<g clip-path="url(#clip0_9_1633)">
<path d="M49.2213 42.1259H0.945604C0.469531 42.1259 0.0834961 41.7399 0.0834961 41.2638V10.2294C0.0834961 9.75334 0.469531 9.36731 0.945604 9.36731H49.2214C49.6975 9.36731 50.0835 9.75334 50.0835 10.2294V41.2638C50.0834 41.74 49.6974 42.1259 49.2213 42.1259Z" fill="#F5F5F5"/>
<path d="M29.8691 18.5722C25.9079 15.9315 20.5576 17.0111 17.9186 20.9654C16.5948 22.9391 17.1329 25.621 19.1134 26.9414C21.0924 28.2618 23.7657 27.7256 25.0861 25.7449C26.4065 23.7644 29.0816 23.2348 31.0605 24.5483C33.0428 25.8687 33.5759 28.5506 32.2536 30.5243C34.8944 26.5634 33.8269 21.213 29.8691 18.5722Z" fill="#FF4B55"/>
<path d="M17.9188 20.9653C16.5951 22.9391 17.1331 25.621 19.1136 26.9414C21.0926 28.2618 23.7659 27.7256 25.0864 25.7449C26.4068 23.7644 29.0819 23.2348 31.0608 24.5482C33.043 25.8686 33.5761 28.5506 32.2538 30.5243C29.6165 34.4923 24.268 35.5584 20.3068 32.9176C16.3492 30.2769 15.2781 24.9266 17.9188 20.9653Z" fill="#41479B"/>
<path d="M34.2565 15.3162L35.8224 17.6699C35.9539 17.8677 35.9007 18.1347 35.7033 18.2668L35.3063 18.5327C35.1081 18.6653 34.84 18.612 34.7077 18.4136L33.1399 16.0605C33.0079 15.8625 33.0615 15.595 33.2593 15.4629L33.6583 15.1965C33.8566 15.0642 34.1244 15.1178 34.2565 15.3162Z" fill="#464655"/>
<path d="M36.673 18.9452L38.244 21.2975C38.3767 21.4961 38.3225 21.7648 38.1232 21.8965L37.7244 22.1601C37.5266 22.2909 37.2602 22.2371 37.1284 22.0399L35.5583 19.6901C35.4261 19.4923 35.4792 19.2246 35.6771 19.0923L36.075 18.8263C36.2729 18.694 36.5407 18.7472 36.673 18.9452Z" fill="#464655"/>
<path d="M35.9333 14.1973L39.9205 20.181C40.0526 20.379 39.9989 20.6466 39.8009 20.7786L39.4003 21.0456C39.2023 21.1777 38.9346 21.1241 38.8026 20.9261L34.814 14.9428C34.6819 14.7446 34.7356 14.4769 34.9338 14.3449L35.3357 14.0775C35.5338 13.9457 35.8013 13.9992 35.9333 14.1973Z" fill="#464655"/>
<path d="M37.6056 13.0801L39.1749 15.4384C39.3071 15.637 39.2528 15.9052 39.0537 16.0367L38.6547 16.3004C38.4566 16.4312 38.1901 16.3774 38.0585 16.1799L36.488 13.8247C36.3559 13.6266 36.4095 13.359 36.6075 13.2269L37.0078 12.9601C37.2058 12.828 37.4735 12.8816 37.6056 13.0801Z" fill="#464655"/>
<path d="M40.0233 16.7166L41.5902 19.0701C41.722 19.2679 41.6686 19.5351 41.471 19.6672L41.0731 19.9332C40.875 20.0658 40.6068 20.0122 40.4748 19.8138L38.9079 17.4604C38.7761 17.2625 38.8294 16.9954 39.027 16.8632L39.425 16.5972C39.623 16.4647 39.8912 16.5181 40.0233 16.7166Z" fill="#464655"/>
<path d="M13.0458 29.4561L17.0325 35.4333C17.1645 35.6313 17.1112 35.8988 16.9132 36.031L16.514 36.2976C16.3159 36.4298 16.0482 36.3764 15.916 36.1782L11.9293 30.201C11.7973 30.003 11.8506 29.7355 12.0486 29.6033L12.4479 29.3367C12.6459 29.2045 12.9137 29.258 13.0458 29.4561Z" fill="#464655"/>
<path d="M11.3725 30.574L12.9377 32.9218C13.0697 33.1196 13.0164 33.3867 12.8189 33.5191L12.4218 33.7849C12.2239 33.9174 11.9559 33.8642 11.8236 33.666L10.2565 31.3189C10.1242 31.1209 10.1776 30.8532 10.3756 30.721L10.7746 30.4546C10.9726 30.3225 11.2404 30.3759 11.3725 30.574Z" fill="#464655"/>
<path d="M13.7911 34.2043L15.3581 36.558C15.4899 36.7559 15.4365 37.0231 15.2387 37.1552L14.8405 37.4214C14.6424 37.5538 14.3745 37.5004 14.2423 37.3021L12.6743 34.9489C12.5424 34.751 12.5959 34.4835 12.7936 34.3514L13.1929 34.0848C13.3911 33.9523 13.659 34.006 13.7911 34.2043Z" fill="#464655"/>
<path d="M9.69857 31.6917L13.6827 37.6692C13.8147 37.8671 13.7613 38.1345 13.5637 38.2667L13.1656 38.5329C12.9675 38.6653 12.6996 38.612 12.5674 38.4138L8.58089 32.437C8.44877 32.239 8.50238 31.9713 8.70043 31.8392L9.10101 31.5722C9.29886 31.4402 9.56654 31.4937 9.69857 31.6917Z" fill="#464655"/>
<path d="M11.9303 21.2979L15.9164 15.3158C16.0485 15.1175 16.3163 15.064 16.5144 15.1962L16.9135 15.4627C17.1115 15.5949 17.1648 15.8624 17.0329 16.0604L13.0452 22.0392C12.9134 22.2367 12.6467 22.2904 12.4487 22.1594L12.0512 21.8962C11.8521 21.7646 11.798 21.4963 11.9303 21.2979Z" fill="#464655"/>
<path d="M10.2557 20.1813L14.2426 14.198C14.3747 13.9998 14.6427 13.9463 14.8408 14.0787L15.2389 14.3449C15.4366 14.477 15.4899 14.7442 15.3581 14.9422L11.3723 20.9258C11.2402 21.124 10.9724 21.1776 10.7743 21.0453L10.3751 20.7788C10.1772 20.6467 10.1238 20.3793 10.2557 20.1813Z" fill="#464655"/>
<path d="M8.58015 19.0696L12.5673 13.0804C12.6995 12.8821 12.9675 12.8284 13.1657 12.9609L13.5638 13.2271C13.7615 13.3592 13.8148 13.6262 13.6832 13.8241L9.69841 19.8143C9.56648 20.0126 9.2986 20.0663 9.10046 19.9342L8.69987 19.6672C8.50193 19.5352 8.44841 19.2677 8.58015 19.0696Z" fill="#464655"/>
<path d="M33.1408 35.4333L34.7078 33.0861C34.8402 32.888 35.1081 32.8348 35.3061 32.9673L35.7032 33.2332C35.9007 33.3654 35.9538 33.6326 35.822 33.8305L34.2568 36.1781C34.1246 36.3763 33.8569 36.4298 33.6588 36.2976L33.2598 36.0312C33.0618 35.8989 33.0085 35.6313 33.1408 35.4333Z" fill="#464655"/>
<path d="M35.5578 31.8153L37.1274 29.4565C37.2595 29.2583 37.5272 29.2046 37.7254 29.3367L38.1254 29.6033C38.3235 29.7354 38.377 30.0033 38.2448 30.2014L36.6719 32.5564C36.5399 32.754 36.2732 32.8075 36.0753 32.6763L35.6786 32.4134C35.4799 32.2816 35.4258 32.0137 35.5578 31.8153Z" fill="#464655"/>
<path d="M34.8139 36.5571L36.382 34.2038C36.514 34.0057 36.7817 33.9521 36.9799 34.0842L37.3806 34.3515C37.5786 34.4835 37.6321 34.7509 37.5003 34.949L35.9332 37.3025C35.8012 37.5007 35.5338 37.5544 35.3355 37.4225L34.9337 37.155C34.7356 37.023 34.6819 36.7553 34.8139 36.5571Z" fill="#464655"/>
<path d="M37.234 32.921L38.8029 30.5732C38.9352 30.3754 39.2025 30.3221 39.4005 30.454L39.8011 30.721C39.9992 30.8531 40.0527 31.121 39.9203 31.3191L38.3515 33.6669C38.2193 33.8647 37.9519 33.918 37.754 33.7861L37.3533 33.5191C37.155 33.3871 37.1016 33.1192 37.234 32.921Z" fill="#464655"/>
<path d="M36.4883 37.6688L38.0581 35.3196C38.1899 35.1225 38.4562 35.0688 38.6541 35.1995L39.0531 35.4632C39.2522 35.5948 39.3065 35.8633 39.1741 36.0619L37.6055 38.4143C37.4734 38.6123 37.2058 38.6657 37.0077 38.5338L36.6074 38.267C36.4093 38.1348 36.3559 37.8669 36.4883 37.6688Z" fill="#464655"/>
<path d="M38.9084 34.0446L40.4743 31.6926C40.6064 31.4942 40.8745 31.4406 41.0726 31.5731L41.4703 31.8389C41.668 31.9712 41.7213 32.2386 41.5892 32.4365L40.022 34.7854C39.8902 34.9831 39.6232 35.0367 39.4253 34.9054L39.0288 34.6427C38.8303 34.5111 38.7763 34.243 38.9084 34.0446Z" fill="#464655"/>
</g>
<defs>
<clipPath id="clip0_9_1633">
<rect width="50" height="50" fill="white" transform="translate(0.0820312 0.746582)"/>
</clipPath>
</defs>
</svg>
