<svg width="51" height="51" viewBox="0 0 51 51" fill="none" xmlns="http://www.w3.org/2000/svg">
    <g clip-path="url(#clip0_9_1656)">
        <path d="M0.789551 15.4019V36.0915L14.5826 25.7467L0.789551 15.4019Z" fill="#464655" />
        <path
            d="M7.68579 9.36741L23.2031 21.4364H50.7892V10.2294C50.7892 9.75334 50.4032 9.36731 49.9271 9.36731H7.68579V9.36741Z"
            fill="#FF4B55" />
        <path
            d="M7.68579 42.126L23.2031 30.057H50.7892V41.2639C50.7892 41.74 50.4032 42.1261 49.9271 42.1261H7.68579V42.126Z"
            fill="#41479B" />
        <path
            d="M6.34512 9.36743H1.65166C1.17559 9.36743 0.789551 9.75337 0.789551 10.2294V13.7656L15.9237 25.7467L0.789551 37.7282V41.2639C0.789551 41.74 1.17559 42.126 1.65166 42.126H6.34463L22.6789 29.195H50.7896V22.2985H22.679L6.34512 9.36743Z"
            fill="#73AF00" />
        <path d="M9.12246 9.36743H6.34473L22.6786 22.2985H50.7892V20.5743H23.2785L9.12246 9.36743Z"
            fill="#F5F5F5" />
        <path
            d="M0.789551 13.7655V15.9645L13.146 25.7467L0.789551 35.5292V37.7281L15.9237 25.7467L0.789551 13.7655Z"
            fill="#FFE15A" />
        <path d="M22.679 29.1949L6.34473 42.126H9.12256L23.2788 30.9192H50.7896V29.1949H22.679Z"
            fill="#F5F5F5" />
    </g>
    <defs>
        <clipPath id="clip0_9_1656">
            <rect width="50" height="50" fill="white" transform="translate(0.789062 0.746582)" />
        </clipPath>
    </defs>
</svg>
