<svg width="51" height="51" viewBox="0 0 51 51" fill="none" xmlns="http://www.w3.org/2000/svg">
<g clip-path="url(#clip0_9_1623)">
<path d="M50.5122 20.2869H0.512329V10.2294C0.512329 9.75334 0.898364 9.36731 1.37444 9.36731H49.6502C50.1263 9.36731 50.5123 9.75334 50.5123 10.2294L50.5122 20.2869Z" fill="#464655"/>
<path d="M49.6501 42.1259H1.37444C0.898364 42.1259 0.512329 41.7399 0.512329 41.2638V31.2064H50.5122V41.2638C50.5122 41.74 50.1262 42.1259 49.6501 42.1259Z" fill="#73AF00"/>
<path d="M50.5122 20.2867H0.512329V31.2057H50.5122V20.2867Z" fill="#FF4B55"/>
<path d="M9.82885 23.5164L10.3413 24.6278L11.5296 24.3354C11.6038 24.3172 11.6653 24.3942 11.631 24.4625L11.0816 25.5561L12.0511 26.303C12.1117 26.3497 12.0897 26.4457 12.0149 26.4615L10.8173 26.7137L10.8379 27.9374C10.8392 28.0138 10.7503 28.0566 10.6914 28.0081L9.7476 27.229L8.80375 28.0081C8.74477 28.0567 8.656 28.0139 8.65727 27.9374L8.67788 26.7137L7.48032 26.4615C7.40552 26.4457 7.38364 26.3497 7.44409 26.303L8.41362 25.5561L7.86421 24.4625C7.82993 24.3942 7.89135 24.3171 7.96557 24.3354L9.15395 24.6278L9.66635 23.5164C9.69828 23.447 9.79701 23.447 9.82885 23.5164Z" fill="#F5F5F5"/>
<path d="M50.5122 19.7124H0.512329V21.1782H50.5122V19.7124Z" fill="#F5F5F5"/>
<path d="M50.5128 30.3158H0.512939V31.7816H50.5128V30.3158Z" fill="#F5F5F5"/>
<path d="M0.793286 41.8925L23.2857 26.0994C23.5303 25.9277 23.5303 25.5656 23.2857 25.3939L0.793286 9.60071C0.622778 9.75832 0.512329 9.97893 0.512329 10.2294V41.2637C0.512329 41.5142 0.622778 41.735 0.793286 41.8925Z" fill="#41479B"/>
<path d="M7.69614 21.7278L9.63276 23.7099L12.1351 22.5193C12.459 22.3651 12.7928 22.712 12.6263 23.0298L11.3397 25.4841L13.2453 27.496C13.492 27.7565 13.2652 28.1812 12.9115 28.1209L10.1797 27.6556L8.85512 30.0897C8.68364 30.4048 8.20962 30.3202 8.15767 29.9654L7.75591 27.2235L5.03169 26.7159C4.67896 26.6502 4.61295 26.1734 4.93453 26.0142L7.41812 24.7849L7.05894 22.037C7.01236 21.6813 7.44536 21.4712 7.69614 21.7278Z" fill="#FFE15A"/>
</g>
<defs>
<clipPath id="clip0_9_1623">
<rect width="50" height="50" fill="white" transform="translate(0.511719 0.746582)"/>
</clipPath>
</defs>
</svg>
