<svg width="51" height="51" viewBox="0 0 51 51" fill="none" xmlns="http://www.w3.org/2000/svg">
<g clip-path="url(#clip0_9_1575)">
<path d="M1.6685 42.1259H49.9443C50.4204 42.1259 50.8064 41.7399 50.8064 41.2638V10.2294C50.8064 9.75334 50.4204 9.36731 49.9443 9.36731H1.6685C1.19243 9.36741 0.806396 9.75334 0.806396 10.2294V41.2638C0.806396 41.74 1.19243 42.1259 1.6685 42.1259Z" fill="#C8414B"/>
<path d="M50.8063 16.2643H0.806396V35.2301H50.8063V16.2643Z" fill="#FFD250"/>
<path d="M21.9269 25.7467L22.6578 22.4575C22.7252 22.1546 22.4946 21.8673 22.1843 21.8673H21.6694C21.3592 21.8673 21.1287 22.1546 21.1959 22.4575L21.9269 25.7467Z" fill="#C8414B"/>
<path d="M22.7891 24.0221H21.0649V31.3492H22.7891V24.0221Z" fill="#F5F5F5"/>
<path d="M23.2194 23.1608H20.6332V24.0229H23.2194V23.1608Z" fill="#FAB446"/>
<path d="M23.2218 25.7467H18.9113V26.6088H23.2218V25.7467Z" fill="#C8414B"/>
<path d="M23.2217 29.1949L20.6355 28.3329V27.4708L23.2217 28.3329V29.1949Z" fill="#C8414B"/>
<path d="M8.99755 25.7467L9.7285 22.4575C9.79588 22.1546 9.56532 21.8673 9.25497 21.8673H8.74013C8.42987 21.8673 8.1994 22.1546 8.26659 22.4575L8.99755 25.7467Z" fill="#C8414B"/>
<path d="M12.0135 23.1605C11.5374 23.1605 11.1514 23.5466 11.1514 24.0226V29.626C11.1514 30.6734 12.1289 32.6433 15.4617 32.6433C18.7945 32.6433 19.7721 30.6735 19.7721 29.626V24.0226C19.7721 23.5466 19.386 23.1605 18.9099 23.1605H12.0135Z" fill="#F5F5F5"/>
<path d="M15.4629 27.4707H11.1526V24.0225C11.1526 23.5464 11.5386 23.1604 12.0147 23.1604H15.4629V27.4707Z" fill="#C8414B"/>
<path d="M15.463 27.4707H19.7734V29.6259C19.7734 30.8162 18.8085 31.781 17.6182 31.781C16.4279 31.781 15.463 30.8162 15.463 29.6259V27.4707Z" fill="#C8414B"/>
<path d="M11.1514 27.4708H15.4617V29.626C15.4617 30.8163 14.4969 31.7812 13.3065 31.7812C12.1162 31.7812 11.1514 30.8163 11.1514 29.626V27.4708Z" fill="#FAB446"/>
<path d="M14.5978 31.3406V27.4709H13.7357V31.7378C14.0564 31.6728 14.3462 31.5308 14.5978 31.3406Z" fill="#C8414B"/>
<path d="M12.8737 31.7378V27.4709H12.0116V31.3406C12.2634 31.5308 12.5531 31.6728 12.8737 31.7378Z" fill="#C8414B"/>
<path d="M14.5997 25.7467H12.0134V26.6088H14.5997V25.7467Z" fill="#FFB441"/>
<path d="M14.5997 24.0221H12.0134V24.8842H14.5997V24.0221Z" fill="#FAB446"/>
<path d="M14.1676 24.5348H12.4435V26.0965H14.1676V24.5348Z" fill="#FAB446"/>
<path d="M9.85742 24.0221H8.1333V31.3492H9.85742V24.0221Z" fill="#F5F5F5"/>
<path d="M10.2872 30.9196H7.70093V31.7817H10.2872V30.9196Z" fill="#FAB446"/>
<path d="M10.2872 23.1608H7.70093V24.0229H10.2872V23.1608Z" fill="#FAB446"/>
<path d="M10.7205 31.7809H7.27222V32.643H10.7205V31.7809Z" fill="#5064AA"/>
<path d="M23.6512 30.9196H21.0649V31.7817H23.6512V30.9196Z" fill="#FAB446"/>
<path d="M23.6508 31.7809H20.2025V32.643H23.6508V31.7809Z" fill="#5064AA"/>
<path d="M18.0479 22.2985H12.8755V23.1606H18.0479V22.2985Z" fill="#FAB446"/>
<path d="M15.893 19.7126H15.0309V22.2989H15.893V19.7126Z" fill="#FFB441"/>
<path d="M14.5993 21.0053C13.8863 21.0053 13.3063 20.4252 13.3063 19.7123C13.3063 18.9992 13.8864 18.4192 14.5993 18.4192C15.3124 18.4192 15.8924 18.9993 15.8924 19.7123C15.8925 20.4252 15.3124 21.0053 14.5993 21.0053ZM14.5993 19.2812C14.3615 19.2812 14.1683 19.4744 14.1683 19.7123C14.1683 19.95 14.3614 20.1433 14.5993 20.1433C14.8372 20.1433 15.0304 19.9501 15.0304 19.7123C15.0304 19.4745 14.8372 19.2812 14.5993 19.2812Z" fill="#F5F5F5"/>
<path d="M16.3235 21.0053C15.6104 21.0053 15.0304 20.4252 15.0304 19.7123C15.0304 18.9992 15.6105 18.4192 16.3235 18.4192C17.0365 18.4192 17.6165 18.9993 17.6165 19.7123C17.6165 20.4252 17.0364 21.0053 16.3235 21.0053ZM16.3235 19.2812C16.0857 19.2812 15.8924 19.4744 15.8924 19.7123C15.8924 19.95 16.0856 20.1433 16.3235 20.1433C16.5613 20.1433 16.7545 19.9501 16.7545 19.7123C16.7544 19.4745 16.5613 19.2812 16.3235 19.2812Z" fill="#F5F5F5"/>
<path d="M18.0478 21.8675C17.3347 21.8675 16.7548 21.2874 16.7548 20.5744C16.7548 19.8614 17.3348 19.2814 18.0478 19.2814C18.7609 19.2814 19.3409 19.8614 19.3409 20.5744C19.3409 21.2874 18.7608 21.8675 18.0478 21.8675ZM18.0478 20.1434C17.81 20.1434 17.6168 20.3365 17.6168 20.5744C17.6168 20.8122 17.8099 21.0055 18.0478 21.0055C18.2856 21.0055 18.4789 20.8123 18.4789 20.5744C18.4789 20.3365 18.2856 20.1434 18.0478 20.1434Z" fill="#F5F5F5"/>
<path d="M12.8752 21.8675C12.1621 21.8675 11.5822 21.2874 11.5822 20.5744C11.5822 19.8614 12.1622 19.2814 12.8752 19.2814C13.5883 19.2814 14.1683 19.8614 14.1683 20.5744C14.1684 21.2874 13.5883 21.8675 12.8752 21.8675ZM12.8752 20.1434C12.6374 20.1434 12.4442 20.3365 12.4442 20.5744C12.4442 20.8122 12.6373 21.0055 12.8752 21.0055C13.1131 21.0055 13.3063 20.8122 13.3063 20.5743C13.3063 20.3365 13.1131 20.1434 12.8752 20.1434Z" fill="#F5F5F5"/>
<path d="M18.0475 29.195V29.6261C18.0475 29.8638 17.8541 30.0571 17.6164 30.0571C17.3787 30.0571 17.1854 29.8638 17.1854 29.6261V29.195H18.0475ZM18.9095 28.333H16.3232V29.6261C16.3232 30.3392 16.9033 30.9191 17.6163 30.9191C18.3294 30.9191 18.9094 30.3391 18.9094 29.6261V28.333H18.9095Z" fill="#FAB446"/>
<path d="M17.6169 26.6088C17.1408 26.6088 16.7548 26.2228 16.7548 25.7467V24.8846C16.7548 24.4085 17.1408 24.0225 17.6169 24.0225C18.0929 24.0225 18.479 24.4085 18.479 24.8846V25.7467C18.479 26.2228 18.0929 26.6088 17.6169 26.6088Z" fill="#FFA0D2"/>
<path d="M15.4615 28.7634C16.1757 28.7634 16.7546 28.1844 16.7546 27.4703C16.7546 26.7562 16.1757 26.1772 15.4615 26.1772C14.7474 26.1772 14.1685 26.7562 14.1685 27.4703C14.1685 28.1844 14.7474 28.7634 15.4615 28.7634Z" fill="#5064AA"/>
<path d="M15.893 17.9879H15.0309V20.5741H15.893V17.9879Z" fill="#FAB446"/>
<path d="M12.8749 22.2985L12.0128 21.4364L12.5178 20.9314C13.2984 20.1509 14.3571 19.7123 15.4612 19.7123C16.5652 19.7123 17.6238 20.1509 18.4045 20.9314L18.9095 21.4364L18.0474 22.2985H12.8749Z" fill="#C8414B"/>
<path d="M15.4604 21.8671C15.6984 21.8671 15.8914 21.6741 15.8914 21.4361C15.8914 21.198 15.6984 21.005 15.4604 21.005C15.2223 21.005 15.0293 21.198 15.0293 21.4361C15.0293 21.6741 15.2223 21.8671 15.4604 21.8671Z" fill="#FFD250"/>
<path d="M13.7357 21.8671C13.9738 21.8671 14.1668 21.6741 14.1668 21.4361C14.1668 21.198 13.9738 21.005 13.7357 21.005C13.4977 21.005 13.3047 21.198 13.3047 21.4361C13.3047 21.6741 13.4977 21.8671 13.7357 21.8671Z" fill="#FFD250"/>
<path d="M17.184 21.8671C17.422 21.8671 17.615 21.6741 17.615 21.4361C17.615 21.198 17.422 21.005 17.184 21.005C16.9459 21.005 16.7529 21.198 16.7529 21.4361C16.7529 21.6741 16.9459 21.8671 17.184 21.8671Z" fill="#FFD250"/>
<path d="M12.0115 25.7468H7.70093V26.6089H12.0115V25.7468Z" fill="#C8414B"/>
<path d="M7.70093 29.1951L10.2871 28.3331V27.4709L7.70093 28.3331V29.1951Z" fill="#C8414B"/>
</g>
<defs>
<clipPath id="clip0_9_1575">
<rect width="50" height="50" fill="white" transform="translate(0.804688 0.746582)"/>
</clipPath>
</defs>
</svg>
