<svg width="51" height="51" viewBox="0 0 51 51" fill="none" xmlns="http://www.w3.org/2000/svg">
    <g clip-path="url(#clip0_9_1550)">
        <path
            d="M49.7588 8.79517H1.48308C1.00701 8.79517 0.620972 9.1811 0.620972 9.65718V40.6916C0.620972 41.1677 1.00701 41.5537 1.48308 41.5537H49.7589C50.2349 41.5537 50.621 41.1677 50.621 40.6916V9.65718C50.6209 9.1811 50.2348 8.79517 49.7588 8.79517Z"
            fill="#FFD250" />
        <path
            d="M18.7241 12.2435V38.1055C18.7241 38.5816 19.1102 38.9676 19.5862 38.9676H47.1724C47.6485 38.9676 48.0345 38.5816 48.0345 38.1055V12.2435C48.0345 11.7674 47.6485 11.3813 47.1724 11.3813H19.5862C19.1102 11.3814 18.7241 11.7674 18.7241 12.2435Z"
            fill="#963C3C" />
        <path
            d="M9.67307 11.3815H4.06957C3.59349 11.3815 3.20746 11.7675 3.20746 12.2436V38.1056C3.20746 38.5817 3.59349 38.9677 4.06957 38.9677H9.67307V11.3815Z"
            fill="#5AA587" />
        <path
            d="M15.2761 11.3815H9.67273V38.9676H15.2761C15.7522 38.9676 16.1382 38.5816 16.1382 38.1055V12.2435C16.1382 11.7674 15.7522 11.3815 15.2761 11.3815Z"
            fill="#FF7350" />
        <path
            d="M39.0523 32.0821C39.0234 31.8894 39.193 31.6406 39.4551 31.2831C39.5499 31.1539 39.687 30.9667 39.7239 30.877C39.6995 30.8753 39.6659 30.8772 39.6409 30.8785C39.4958 30.8855 39.2764 30.8955 39.0847 30.6827C39.0097 30.5993 38.9736 30.495 38.9806 30.381C38.995 30.1495 39.184 29.9218 39.3013 29.8014C38.9989 29.589 38.7099 29.3684 38.4434 29.102C37.9342 28.5927 37.3535 28.3475 36.7123 28.361C36.6529 28.9988 36.9816 29.4182 37.3324 29.8597C37.4358 29.9897 37.5388 30.1195 37.6325 30.2551C38.0939 30.9232 37.9974 32.213 37.9389 32.3497C37.8726 32.5045 37.5078 32.8479 37.0073 32.781C36.7771 32.7507 36.5122 32.8282 36.3452 32.9741C36.2734 33.0369 36.1877 33.1414 36.1877 33.2814C36.1877 33.2884 36.1883 33.3239 36.1993 33.3304C36.2666 33.3711 36.5178 33.2918 36.6975 33.1946C36.7471 33.1675 36.8088 33.1755 36.8506 33.2144C37.2044 33.5457 37.5596 33.2594 37.5988 33.2257C37.6473 33.1842 37.7189 33.1829 37.7683 33.2226C38.1304 33.5144 38.5079 33.1955 38.5238 33.1817C38.5682 33.1433 38.6333 33.1387 38.6828 33.1711C38.8399 33.2741 38.9835 33.3035 39.1118 33.2595C39.2237 33.2207 39.283 33.1365 39.29 33.1162C39.2932 33.0627 39.2213 32.7866 39.1737 32.6038C39.1237 32.4119 39.0721 32.2136 39.0523 32.0821Z"
            fill="#FFD250" />
        <path
            d="M42.9732 19.8683C42.8642 19.86 42.7852 19.8837 42.7312 19.9372C42.632 20.0351 42.6401 20.2116 42.6403 20.2134C42.6424 20.2526 42.6269 20.2909 42.5982 20.3177C42.5693 20.3443 42.5306 20.358 42.4913 20.3522C42.2952 20.3265 42.0052 20.1196 41.4671 19.7252C40.6121 19.0985 39.3199 18.1514 38.0871 17.9957C36.6541 17.8137 35.3788 18.2708 35.0549 19.0809C34.6942 19.9829 35.4609 20.8047 35.4686 20.813C35.5075 20.8543 35.5161 20.9159 35.4894 20.966C35.2872 21.3468 35.4404 21.6279 35.5783 21.7819C35.6216 21.6548 35.6862 21.5679 35.7753 21.5145C35.9903 21.386 36.2712 21.4924 36.6596 21.6394C36.8891 21.7261 37.1491 21.8246 37.4525 21.8989C38.2302 22.0895 39.1787 21.9196 40.0157 21.7697C40.3115 21.7167 40.5968 21.6658 40.862 21.6319C41.5295 21.5468 42.1986 21.8426 42.3825 22.3063C42.4717 22.5309 42.5192 22.9816 41.8375 23.4775C40.6113 24.3694 35.0196 23.9578 34.6903 23.9327C34.6829 23.9334 34.6757 23.934 34.6603 23.935C34.7825 24.0723 34.926 24.2062 34.9885 24.2229C35.0522 24.2399 35.0937 24.3012 35.0856 24.3668C35.0775 24.4322 35.0224 24.4817 34.9565 24.4827L34.3836 24.4914L34.4363 25.0426C34.4402 25.0833 34.425 25.1235 34.3951 25.1513C34.3654 25.1794 34.3241 25.1911 34.2841 25.1857C34.2616 25.182 33.7672 25.103 33.4254 24.913L32.7784 25.3211C32.7572 25.3345 32.7325 25.3413 32.7078 25.3413C32.6935 25.3413 32.679 25.339 32.6654 25.3342C32.6276 25.3214 32.5976 25.2922 32.5838 25.2547L32.3369 24.5836L32.0443 25.1691C32.0229 25.212 31.98 25.2398 31.9324 25.2421C31.8849 25.247 31.8396 25.221 31.814 25.1803L31.5631 24.7804C31.4484 24.9238 31.2644 25.1325 31.0762 25.2628C31.0418 25.2869 30.9983 25.2927 30.9583 25.2793C30.9186 25.2657 30.8876 25.234 30.875 25.1941L30.7436 24.7792C30.6273 24.9262 30.459 25.1212 30.2809 25.2673C30.2428 25.299 30.1901 25.3063 30.1445 25.2864C30.099 25.2666 30.0684 25.223 30.0654 25.1737L30.023 24.5066C29.8724 24.5834 29.6674 24.6834 29.5538 24.7188C29.5022 24.735 29.4452 24.7177 29.4114 24.6753C29.3773 24.6328 29.3728 24.574 29.4 24.5267C29.6038 24.1728 29.7908 23.7309 29.8051 23.5112C29.67 23.673 29.4808 23.8279 29.2694 23.9999C28.8196 24.3661 28.2599 24.8215 27.8479 25.6186C27.5602 26.1757 27.3536 27.1476 27.7179 28.0537C28.0289 28.8266 28.6983 29.4034 29.7011 29.7739C29.6676 29.6276 29.6418 29.4838 29.6392 29.3488C29.6261 28.6625 29.7686 28.036 29.7747 28.0096C29.7911 27.9384 29.8618 27.8934 29.933 27.9107C30.0042 27.9271 30.0485 27.998 30.0322 28.069C30.0308 28.0752 29.8911 28.6912 29.9034 29.3437C29.9096 29.6631 30.047 30.0573 30.1797 30.4383C30.3561 30.945 30.5387 31.4688 30.4593 31.9096C30.3512 32.5088 29.6052 32.6608 28.9126 32.5452C28.7158 32.5121 28.5367 32.5607 28.408 32.6807C28.2775 32.8025 28.2105 32.9892 28.2289 33.1802C28.2376 33.2702 28.2713 33.2883 28.2823 33.2944C28.3656 33.3394 28.5616 33.2782 28.6675 33.2228C28.7208 33.1948 28.7868 33.2063 28.8276 33.2519C29.1053 33.563 29.4793 33.2526 29.4951 33.239C29.5487 33.1938 29.6287 33.1979 29.677 33.2494C29.7816 33.3609 29.8924 33.4164 30.0158 33.4192C30.2412 33.433 30.4554 33.2321 30.4575 33.2304C30.4965 33.1924 30.5551 33.1826 30.6045 33.205C31.0404 33.4045 31.2691 33.2886 31.2784 33.2832C31.6567 32.9607 31.4381 32.1956 31.4359 32.1877C31.4255 32.1528 31.4301 32.1151 31.4486 32.0838C31.467 32.0524 31.4976 32.0299 31.533 32.0217C32.0628 31.9002 32.3589 31.5603 32.5021 31.3349C32.2404 31.3324 32.0323 31.2406 31.9098 31.0492C31.7125 30.7401 31.8073 30.2748 32.1514 29.8635C32.7402 29.16 33.1001 27.7362 33.0461 27.1563C33.0395 27.0837 33.0929 27.0194 33.1656 27.0125C33.2363 27.0052 33.3025 27.0592 33.3094 27.1319C33.3566 27.6398 33.1276 28.6932 32.7096 29.4876C33.2391 29.3411 33.7224 29.1267 34.2266 28.8966C34.7278 28.6679 35.2462 28.4316 35.8692 28.2364C36.922 27.9068 37.8506 28.1352 38.6303 28.9152C39.008 29.2929 39.4203 29.5695 39.8979 29.8901C40.1075 30.0308 40.3258 30.1773 40.5522 30.3404C41.1659 30.7822 41.1551 31.1511 41.1436 31.5417C41.1401 31.6607 41.1363 31.7837 41.1497 31.917C41.2131 32.5513 40.7088 32.6516 40.4663 32.6998C40.4331 32.7063 40.402 32.7125 40.3748 32.7192C40.3405 32.7278 40.2996 32.7362 40.2543 32.7454C40.0081 32.7953 39.6361 32.8708 39.5447 33.1859C39.5282 33.2423 39.5346 33.2621 39.5346 33.2621C39.5734 33.2797 39.775 33.234 39.9355 33.1611C39.9695 33.1455 40.0082 33.1453 40.0425 33.1599C40.0768 33.1746 40.1032 33.2032 40.1154 33.2383C40.1622 33.3755 40.2352 33.3989 40.2591 33.4067C40.4255 33.4586 40.6977 33.3055 40.7798 33.2472C40.8309 33.2112 40.8997 33.215 40.9458 33.2573C41.0822 33.3819 41.2084 33.4367 41.3218 33.4214C41.4735 33.4003 41.5656 33.2575 41.5666 33.2559C41.5885 33.2207 41.6257 33.1976 41.667 33.1938C41.709 33.1916 41.7492 33.2064 41.7772 33.237C41.7774 33.2375 41.8931 33.3595 42.1297 33.4342C42.2849 33.4828 42.324 33.4268 42.3368 33.4083C42.4023 33.3125 42.3788 33.0684 42.251 32.9087C42.0834 32.6992 42.0056 32.3805 42.0528 32.097C42.0962 31.836 42.237 31.6232 42.4596 31.4814C42.8676 31.2217 42.9607 30.9419 42.9347 30.8886C42.9272 30.8849 42.8828 30.8792 42.8474 30.8745C42.6653 30.8503 42.3606 30.8101 42.0473 30.2315C41.7705 29.7209 42.0383 28.9124 42.3482 27.9759C42.5055 27.5016 42.668 27.0109 42.7681 26.5297C43.0454 25.1984 42.1737 24.1414 42.1649 24.1309C42.1199 24.0772 42.1245 23.9976 42.1758 23.9496C42.7876 23.3756 43.0507 22.8434 42.9572 22.368C42.8601 21.8723 42.38 21.5258 41.9985 21.3797C41.5232 21.1974 40.6558 21.3009 39.8166 21.4008C39.1154 21.4841 38.4527 21.5631 38.0249 21.4737C37.8045 21.4274 37.6431 21.3229 37.5451 21.1633C37.4645 21.0316 37.4447 20.8874 37.4454 20.7749C37.2329 20.8548 37.0894 21.0516 37.0877 21.054C37.0635 21.088 37.0243 21.1085 36.9827 21.1093C36.9306 21.1072 36.9011 21.0911 36.8757 21.0582C36.7676 20.9184 36.724 20.7643 36.7468 20.5998C36.7759 20.3871 36.9132 20.2042 37.0257 20.0862C36.5338 19.9135 36.1568 20.3258 36.1394 20.3454C36.0964 20.393 36.0257 20.4031 35.9713 20.3704C35.734 20.2245 35.5869 19.9382 35.5962 19.641C35.6052 19.3604 35.7499 19.1252 35.9932 18.996C36.1599 18.9075 36.3198 18.8912 36.4681 18.9471C36.6091 19.0003 36.708 19.11 36.7703 19.2032C36.9503 18.9979 36.9654 18.6436 36.9654 18.6395C36.9665 18.6041 36.9814 18.5706 37.0074 18.5465C37.0333 18.5223 37.0692 18.5072 37.1031 18.511C37.416 18.5239 37.6591 18.637 37.8251 18.8469C38.0521 19.1341 38.0734 19.5329 38.0601 19.7799C38.56 19.5247 38.4966 18.9357 38.4934 18.9082C38.4881 18.8627 38.5065 18.8178 38.5421 18.7893C38.5777 18.761 38.6252 18.7521 38.6688 18.768C39.1992 18.9553 39.3923 19.4283 39.4377 19.7803C39.5879 19.637 39.5901 19.4531 39.5901 19.4508C39.5901 19.3904 39.6311 19.3377 39.6896 19.3227C39.7486 19.308 39.8093 19.3345 39.8383 19.3874C40.0429 19.7614 40.355 19.9943 40.5833 20.1245L40.4261 19.7433C40.4048 19.6917 40.4182 19.6322 40.4596 19.5948C40.5012 19.5573 40.5619 19.5501 40.6108 19.5766C40.8726 19.7176 41.0799 19.877 41.2993 20.0461C41.564 20.2499 41.8377 20.4604 42.2232 20.6416C42.5997 20.8186 42.8536 20.7849 42.9997 20.7258C43.1511 20.6646 43.2376 20.5568 43.2657 20.483C43.3188 20.3434 43.3344 20.143 43.249 20.0101C43.1941 19.9243 43.1014 19.8768 42.9732 19.8683Z"
            fill="#FFD250" />
        <path
            d="M27.3722 21.7684C27.3724 21.7685 27.3725 21.7686 27.3725 21.7686C27.3732 21.7688 27.3736 21.7687 27.3739 21.7688C27.3837 21.7721 28.3718 22.0839 29.2688 22.1373C29.318 22.1402 29.3617 22.1705 29.3816 22.2156C29.4015 22.2608 29.3949 22.3136 29.3639 22.352L29.3326 22.391C29.5105 22.3643 29.7344 22.3396 29.9539 22.3388C29.8639 22.2317 29.752 22.0956 29.6372 21.9529C29.3972 21.9485 28.5194 21.9103 27.805 21.5661C27.6314 21.4819 27.3314 21.3366 27.1888 21.4101C27.1641 21.4228 27.1235 21.4824 27.1303 21.5556C27.1391 21.6483 27.2248 21.724 27.3722 21.7684Z"
            fill="#FFD250" />
        <path
            d="M30.3497 19.8584C30.3359 19.8584 30.3234 19.8599 30.3124 19.8633C30.2547 19.8806 30.2255 19.9457 30.2177 19.9965C30.2082 20.0615 30.2247 20.1489 30.3002 20.1994C30.3988 20.2649 30.5043 20.2201 30.5643 20.1608C30.5833 20.1424 30.6739 20.0454 30.607 19.9394L30.6068 19.9391C30.5036 19.8915 30.413 19.8584 30.3497 19.8584Z"
            fill="#FFD250" />
        <path
            d="M29.0525 23.0442C29.1165 23.1967 29.2158 23.315 29.2979 23.3943C29.3291 23.3268 29.3766 23.2568 29.4487 23.2043C29.5192 23.1529 29.6415 23.1028 29.8206 23.1401C29.8234 23.1403 29.8259 23.1409 29.8287 23.1412C29.8339 23.1423 29.8379 23.1419 29.8431 23.1431C29.8477 23.1442 29.8507 23.1479 29.8553 23.1492C29.8616 23.1514 29.8683 23.1516 29.8744 23.155C29.879 23.1575 29.8818 23.1617 29.8859 23.1646C29.9533 23.1933 30.0096 23.2394 30.0393 23.3091C30.1394 23.5427 29.9633 23.9963 29.8078 24.3189C29.9177 24.2645 30.0228 24.2094 30.0797 24.1791C30.1192 24.1578 30.1671 24.1581 30.2063 24.1801C30.2458 24.202 30.2712 24.2424 30.274 24.2872L30.3113 24.8766C30.518 24.6588 30.6807 24.4222 30.6828 24.4191C30.7113 24.3773 30.7607 24.3563 30.8111 24.363C30.8612 24.3704 30.9025 24.4056 30.9178 24.4538L31.0685 24.9298C31.2796 24.7358 31.4635 24.4759 31.4656 24.4726C31.4913 24.4365 31.5331 24.4172 31.5771 24.4165C31.6213 24.4176 31.6622 24.4409 31.6857 24.4784L31.913 24.8408L32.2373 24.1922C32.2609 24.145 32.3054 24.1152 32.363 24.1193C32.4157 24.1222 32.4613 24.1561 32.4797 24.2057L32.7756 25.0105L33.3531 24.6461C33.3969 24.6181 33.4523 24.6189 33.4961 24.6474C33.6845 24.7708 33.9739 24.8504 34.1563 24.8913L34.107 24.374C34.1036 24.3372 34.1156 24.3007 34.1402 24.2733C34.1648 24.2459 34.1997 24.2297 34.2366 24.2293L34.5671 24.2243C34.4876 24.1438 34.4219 24.066 34.3897 24.0265C34.3681 24.0004 34.3596 23.9682 34.361 23.9368C34.1176 23.9264 33.7783 23.883 33.439 23.7366L33.2372 24.0479C33.2179 24.0777 33.1876 24.0983 33.1529 24.1053C33.1442 24.1073 33.1352 24.1082 33.1264 24.1082C33.1005 24.1082 33.0748 24.1005 33.0528 24.0857L32.2895 23.5736L32.1493 23.9554C32.1332 23.9993 32.0951 24.0313 32.0492 24.0397C32.0033 24.0487 31.9564 24.0318 31.9257 23.9967C31.7945 23.8464 31.5886 23.6158 31.4661 23.4893C31.3557 23.5957 31.1622 23.7673 30.9553 23.8821C30.9216 23.9008 30.8812 23.9038 30.8453 23.8905C30.8092 23.8772 30.7806 23.8489 30.7672 23.8127L30.5579 23.251C30.5325 23.1827 30.5672 23.1065 30.6357 23.081C30.7038 23.0556 30.7803 23.0906 30.8057 23.1589L30.9583 23.5685C31.1798 23.4147 31.3645 23.2167 31.3668 23.2142C31.4139 23.1634 31.4925 23.1574 31.5462 23.2007C31.6231 23.2624 31.8319 23.4923 31.9777 23.6558L32.0994 23.3245C32.1133 23.2864 32.1441 23.2568 32.1827 23.2445C32.2209 23.2312 32.2634 23.2375 32.2971 23.2603L33.0887 23.7914L33.2801 23.4965C33.3169 23.4396 33.3905 23.4198 33.4499 23.4502C33.8012 23.6258 34.1805 23.6683 34.4227 23.6748C34.275 23.3987 34.262 23.0487 34.2611 22.9665C34.0633 22.8792 33.8202 22.7473 33.5756 22.5463L33.4804 22.7813C33.4651 22.8188 33.4335 22.8473 33.3942 22.8586C33.3553 22.8694 33.313 22.8624 33.2804 22.8386L32.8985 22.5616L32.8613 22.8477C32.8554 22.8922 32.8278 22.9304 32.7873 22.9498C32.7472 22.9691 32.6999 22.9672 32.6615 22.9436C32.6482 22.9357 32.3341 22.7437 32.1469 22.5331C32.0983 22.4786 32.1033 22.395 32.1579 22.3466C32.2118 22.298 32.2955 22.3027 32.3444 22.3576C32.4235 22.4465 32.5344 22.5349 32.6267 22.6019L32.6651 22.3072C32.6712 22.2609 32.7012 22.2214 32.7439 22.2029C32.7869 22.1843 32.8363 22.19 32.8739 22.2173L33.2989 22.5256L33.4007 22.2745C33.4171 22.2341 33.4523 22.2045 33.495 22.1952C33.5374 22.186 33.5821 22.1981 33.6137 22.2281C33.9432 22.5382 34.2998 22.7055 34.5215 22.7877C34.4457 22.4349 34.4169 21.9925 34.4154 21.9693C34.4152 21.966 34.4167 21.9632 34.4167 21.9599C34.2107 21.8464 33.9196 21.6507 33.6679 21.3431C33.6668 21.506 33.6535 21.6718 33.6136 21.7765C33.5998 21.8127 33.5711 21.8409 33.5347 21.854C33.4982 21.8666 33.458 21.8633 33.4249 21.8445C33.409 21.8353 33.1214 21.6703 32.9073 21.4291C32.8704 21.562 32.826 21.7019 32.7886 21.7644C32.7528 21.8236 32.6781 21.8455 32.6161 21.8146C32.6035 21.8085 32.401 21.7059 32.2205 21.5491C32.2029 21.7251 32.1758 21.9239 32.1371 22.0208C32.1232 22.0559 32.0947 22.0833 32.0592 22.0961C32.0235 22.1083 31.9843 22.1055 31.9511 22.0877C31.9389 22.0811 31.7096 21.9553 31.4955 21.7959L31.4375 22.0163C31.4274 22.054 31.4014 22.0854 31.3663 22.1021C31.3308 22.1185 31.2905 22.1189 31.255 22.103C31.239 22.0958 30.8611 21.9219 30.6459 21.659C30.5996 21.6025 30.6078 21.5192 30.6644 21.4732C30.7207 21.4269 30.8042 21.4351 30.8502 21.4918C30.9531 21.6174 31.1105 21.7225 31.2241 21.7884L31.2919 21.5309C31.3037 21.4862 31.3378 21.4509 31.3821 21.4379C31.4262 21.4241 31.4741 21.4356 31.5084 21.4667C31.6346 21.5809 31.8055 21.6933 31.927 21.7677C31.9529 21.6046 31.9729 21.3687 31.9815 21.2158C31.9849 21.1567 32.027 21.1071 32.0845 21.0943C32.1428 21.0812 32.2015 21.1085 32.2296 21.1602C32.3022 21.294 32.4768 21.4244 32.6085 21.5068C32.6446 21.3937 32.6891 21.227 32.7226 21.0832C32.7355 21.0279 32.782 20.9872 32.8385 20.9817C32.8949 20.9747 32.9486 21.007 32.9718 21.0588C33.0543 21.2417 33.2543 21.4089 33.397 21.5112C33.4126 21.3185 33.3982 21.0447 33.3805 20.8734C33.374 20.8097 33.4139 20.7506 33.4754 20.7328C33.5382 20.7158 33.6023 20.7441 33.6305 20.8013C33.8964 21.3405 34.3664 21.6391 34.6109 21.7647C34.7442 20.3063 34.3168 19.7483 34.3122 19.7426C34.2883 19.7126 34.2782 19.6731 34.2853 19.6353C34.2926 19.5976 34.3154 19.5644 34.3487 19.5451C34.5861 19.4077 34.7302 19.1567 34.8185 18.9132C34.2812 19.4341 33.43 19.6342 33.0153 19.7034L33.2178 19.9502C33.2486 19.9879 33.2563 20.0395 33.2377 20.0845C33.2189 20.1296 33.1771 20.1606 33.1286 20.1654C32.6205 20.2162 32.2497 20.1489 32.0001 20.0647L32.0865 20.2242C32.1093 20.266 32.1076 20.317 32.0824 20.3572C32.0573 20.3976 32.0112 20.4249 31.9647 20.4191C31.5508 20.4014 31.1886 20.2308 30.8909 20.0801C30.8767 20.1773 30.8288 20.2719 30.749 20.35C30.6513 20.4454 30.5269 20.4947 30.4036 20.4947C30.3163 20.4947 30.2297 20.4699 30.1536 20.4191C30.0043 20.3194 29.9287 20.1424 29.9564 19.9572C29.9821 19.7871 30.0894 19.6541 30.2367 19.61C30.4337 19.5515 30.6586 19.6654 30.943 19.8103C31.1688 19.9254 31.4381 20.0624 31.7316 20.1238L31.568 19.8217C31.5376 19.7654 31.5516 19.6956 31.6015 19.6554C31.6516 19.616 31.7226 19.6171 31.7711 19.6592C31.774 19.6617 32.1029 19.9319 32.8494 19.9179L32.6611 19.6884C32.6302 19.6508 32.6225 19.5988 32.6413 19.5538C32.6602 19.5088 32.7024 19.4777 32.7511 19.4731C32.7653 19.4718 33.8498 19.3618 34.517 18.8242C34.2997 18.8878 34.1315 18.8777 34.1186 18.8775C34.082 18.8746 34.0482 18.8567 34.0255 18.8279C33.7198 18.4438 33.407 18.3251 33.2493 18.2884C33.1607 18.5675 32.9463 18.7933 32.9358 18.8042C32.9075 18.8336 32.867 18.848 32.8267 18.844C32.7861 18.8397 32.7498 18.817 32.7281 18.7823C32.4924 18.4023 32.1525 18.3024 31.9551 18.2777C31.9793 18.5586 31.783 18.7892 31.6523 18.8852C31.6015 18.922 31.5322 18.9187 31.4859 18.8773C30.9188 18.3704 30.4808 18.5204 30.3037 18.6217C30.3597 18.7606 30.3333 18.8742 30.2954 18.951C30.0246 19.4997 28.3494 19.61 28.0163 19.6265C27.975 19.6295 27.9336 19.6106 27.907 19.5777C27.8804 19.5448 27.8713 19.5013 27.882 19.4606C27.9064 19.3692 27.8901 19.2707 27.8362 19.1826C27.7811 19.0927 27.6929 19.0271 27.6004 19.0073C27.5133 18.9888 27.3472 19.0008 27.2478 19.1096C27.1343 19.2345 27.1265 19.4655 27.2254 19.7777C27.4027 20.3382 27.9491 20.8903 28.2892 21.1929C28.2861 21.1232 28.2882 21.0719 28.289 21.0591C28.2919 21.0027 28.3303 20.9544 28.3847 20.9389C28.4391 20.923 28.4971 20.9439 28.5294 20.9903C28.6421 21.1522 28.7765 21.2616 28.8774 21.3286L28.9437 20.9058C28.953 20.8473 29 20.802 29.0588 20.7951C29.1173 20.7901 29.1738 20.8213 29.1964 20.8761C29.3161 21.167 30.0741 22.0774 30.356 22.4037C30.3922 22.4453 30.3985 22.5049 30.372 22.5534C30.3455 22.6015 30.292 22.6275 30.2373 22.6209C29.7543 22.552 29.0447 22.7128 29.0377 22.7143C28.9829 22.727 28.9261 22.7035 28.8961 22.6558C28.8663 22.6082 28.8698 22.5468 28.9051 22.5028L29.0028 22.3811C28.3322 22.3114 27.6793 22.1351 27.4153 22.058L27.1935 22.6605L27.7912 22.6008C27.8362 22.5952 27.8826 22.6161 27.91 22.6533C27.938 22.6905 27.9441 22.7393 27.9266 22.7824L27.8139 23.0578L28.3061 22.9275C28.3714 22.9094 28.4383 22.9443 28.463 23.0066C28.5282 23.1718 28.6082 23.2803 28.6721 23.3476L28.8107 23.0411C28.8326 22.9932 28.8803 22.9598 28.933 22.9635C28.985 22.9638 29.0321 22.9956 29.0525 23.0442Z"
            fill="#FFD250" />
        <path
            d="M27.3412 29.8017C27.8624 30.1497 28.2837 29.7526 28.5088 29.4469C28.0286 29.0966 27.679 28.6656 27.4727 28.1524C27.4052 27.9848 27.3613 27.8152 27.3271 27.646C27.278 27.6075 26.553 27.0332 25.9456 26.3618C25.9146 26.4428 25.8739 26.507 25.8408 26.5505C25.8835 26.724 25.842 26.8657 25.7886 26.9565C25.8254 27.0803 25.7958 27.203 25.753 27.2926C25.8448 27.4312 25.8615 27.567 25.8027 27.6975C25.7892 27.7273 25.771 27.7549 25.7521 27.7819C25.8277 27.8731 25.9465 28.0819 25.9465 28.502C25.9465 28.7846 26.0511 28.9541 26.1292 29.0412C26.1748 29.0018 26.2247 28.9796 26.2796 28.9737C26.4463 28.9552 26.5832 29.0977 26.7704 29.2944C26.917 29.4486 27.0993 29.6404 27.3412 29.8017Z"
            fill="#FFD250" />
        <path
            d="M24.7489 26.2192C24.7392 26.2192 24.7293 26.219 24.7195 26.219C24.5295 26.2172 24.3558 26.1983 24.1957 26.1675C24.1803 26.2116 24.2131 26.34 24.2474 26.3663C24.2811 26.3922 24.3036 26.435 24.3024 26.4775C24.3013 26.5198 24.283 26.5615 24.2479 26.5854C24.2254 26.6012 24.1583 26.6612 24.1574 26.7196C24.1565 26.7766 24.2238 26.8355 24.2641 26.8657C24.2935 26.8877 24.3124 26.9211 24.3162 26.9576C24.32 26.9943 24.3085 27.0308 24.2842 27.0585C24.2672 27.0786 24.2186 27.1522 24.227 27.2139C24.2288 27.227 24.2343 27.2669 24.3031 27.3137C24.3329 27.3339 24.3532 27.3657 24.3593 27.4013C24.3651 27.4369 24.3561 27.4734 24.3345 27.5023C24.3347 27.5023 24.2976 27.5565 24.3117 27.6104C24.3275 27.67 24.4019 27.7159 24.4613 27.7439C24.5726 27.7962 24.7326 27.8299 24.8995 27.8365C24.9046 27.8356 24.9098 27.8364 24.9149 27.8362C25.0556 27.8403 25.2 27.8266 25.3233 27.7811C25.4443 27.7365 25.5246 27.6718 25.562 27.5888C25.5737 27.5629 25.598 27.5092 25.494 27.3878C25.4534 27.3403 25.4516 27.2711 25.4894 27.2214C25.4896 27.2211 25.5777 27.0999 25.5234 27.0032C25.4943 26.9514 25.5032 26.8867 25.5451 26.8449C25.5528 26.8364 25.6349 26.7398 25.5699 26.5664C25.5512 26.5165 25.5643 26.4603 25.6031 26.4238C25.6079 26.419 25.7274 26.2946 25.7248 26.1054C25.7086 26.0857 25.6924 26.0658 25.6767 26.046C25.4208 26.1545 25.1071 26.2192 24.7489 26.2192Z"
            fill="#FFD250" />
        <path
            d="M25.9574 17.0079C25.423 17.2953 24.2834 18.1964 24.2505 20.6632L24.2799 24.8202C24.2834 24.8261 24.2885 24.832 24.2914 24.8377C24.3604 24.9678 24.3277 25.1364 24.2891 25.2532C24.6192 25.3712 25.031 25.3228 25.2074 25.2791C25.1722 25.1761 25.1443 25.0096 25.2638 24.8211C25.2452 19.8637 25.718 17.7547 25.9574 17.0079Z"
            fill="#FFD250" />
        <path
            d="M26.0125 25.338C26.0125 25.1267 25.8531 24.9622 25.6956 24.9089C25.663 24.8977 25.5517 24.8668 25.5008 24.9337C25.4053 25.0586 25.4391 25.1469 25.4717 25.2324C25.4898 25.28 25.5086 25.329 25.4945 25.3851C25.4766 25.4567 25.4114 25.4861 25.3899 25.4958C25.2106 25.5772 24.5289 25.6839 24.0578 25.4407C23.994 25.4076 23.9681 25.3296 23.9998 25.2649C24.0495 25.163 24.0856 25.0135 24.058 24.9615C24.0557 24.9572 24.0496 24.9454 24.0124 24.9404C23.9772 24.9356 23.9423 24.9332 23.9076 24.9332C23.7468 24.9332 23.5975 24.9838 23.5169 25.0701C23.452 25.1397 23.4317 25.2281 23.455 25.3403C23.5333 25.7186 24.0068 25.9481 24.7217 25.9546C25.2273 25.9528 25.6623 25.8335 25.8794 25.6182C25.9678 25.5308 26.0125 25.4365 26.0125 25.338Z"
            fill="#FFD250" />
        <path
            d="M24.874 28.4733C24.9045 28.433 24.955 28.4136 25.0048 28.424C25.0967 28.4432 25.325 28.4917 25.4561 28.39C25.5019 28.3549 25.5122 28.2591 25.4771 28.1966C25.465 28.175 25.4283 28.1101 25.2907 28.1629C25.1605 28.2131 24.9735 28.2675 24.856 28.1618C24.8324 28.1407 24.8176 28.116 24.8063 28.0907C24.7709 28.0877 24.7358 28.0857 24.7011 28.0804C24.6899 28.1095 24.6743 28.1379 24.6478 28.1618C24.5308 28.2673 24.3436 28.2131 24.2132 28.1629C24.076 28.1107 24.0388 28.1751 24.0269 28.1966C23.9917 28.2591 24.0019 28.3549 24.0476 28.3897C24.1788 28.4909 24.4073 28.443 24.4823 28.4272C24.5311 28.4175 24.5907 28.4343 24.6219 28.4742C24.6529 28.5145 24.6659 28.5671 24.6432 28.6124C24.6134 28.6718 24.484 28.9249 24.3575 29.0829C24.5228 29.3245 24.6658 29.7551 24.3307 30.1382C24.3033 30.1691 24.2609 30.1846 24.2214 30.1829C24.1801 30.1798 24.1424 30.1575 24.1201 30.1225C24.1011 30.0936 24.0339 30.0134 23.9598 29.999C23.9373 29.9947 23.9021 29.9929 23.8508 30.0279C23.8162 30.0518 23.7968 30.1309 23.826 30.2176C23.8781 30.3724 24.0403 30.4584 24.2689 30.4477C24.3208 30.4425 24.3771 30.4783 24.3981 30.5308C24.4189 30.5833 24.4041 30.6432 24.3613 30.68L24.1458 30.8647L24.4976 30.9504C24.5443 30.9617 24.581 30.9975 24.5938 31.0438C24.5944 31.0461 24.6469 31.2335 24.7521 31.3916C24.8571 31.2335 24.9097 31.0461 24.9102 31.0438C24.9229 30.9975 24.9598 30.9617 25.0064 30.9504L25.3581 30.8647L25.1425 30.68C25.0996 30.6433 25.0849 30.5833 25.1057 30.5308C25.1265 30.4784 25.1789 30.4431 25.2349 30.4477C25.4609 30.4578 25.6256 30.3724 25.678 30.2174C25.7072 30.1309 25.6877 30.0518 25.6531 30.0279C25.6012 29.9927 25.5655 29.9944 25.5434 29.9991C25.4667 30.0146 25.398 30.1004 25.3837 30.1224C25.3613 30.1574 25.3237 30.1798 25.2824 30.1828C25.2396 30.185 25.2003 30.1693 25.1732 30.1381C24.8381 29.7551 24.9814 29.3244 25.1465 29.0828C25.02 28.9248 24.8906 28.6719 24.8609 28.6123C24.8382 28.5675 24.8434 28.5134 24.874 28.4733Z"
            fill="#FFD250" />
        <path
            d="M43.473 19.8668C43.4024 19.7569 43.2616 19.6223 42.992 19.6047C42.8046 19.5913 42.6544 19.6416 42.5451 19.7509C42.4572 19.8385 42.4149 19.947 42.3947 20.0387C42.2145 19.9439 41.926 19.7326 41.6248 19.5119C40.7478 18.8691 39.4225 17.8977 38.1216 17.7332C37.0665 17.5991 35.8664 17.8095 35.2066 18.4218C35.2165 18.3409 35.2195 18.2867 35.2199 18.2774C35.22 18.2756 35.2185 18.2744 35.2185 18.2725C35.2187 18.2478 35.2119 18.2248 35.1994 18.2042C35.1966 18.1998 35.1938 18.1964 35.1906 18.1923C35.1759 18.1733 35.1576 18.1569 35.1333 18.1479C35.1329 18.1477 35.1327 18.1471 35.1322 18.147H35.1318C35.1069 18.1383 35.0818 18.1397 35.0578 18.1454C35.0533 18.1464 35.0493 18.1472 35.0448 18.1487C35.0217 18.1568 35.0014 18.1704 34.9858 18.1899C34.9847 18.1912 34.9828 18.1913 34.9819 18.1926C34.7078 18.5606 34.3317 18.609 34.193 18.6136C33.6982 18.026 33.1752 18.0078 33.1527 18.0073C33.0769 18.0123 33.0287 18.0542 33.019 18.12C32.9983 18.2595 32.9171 18.3977 32.8485 18.4936C32.4124 17.9515 31.7986 18.0058 31.7712 18.0081C31.7288 18.0122 31.6911 18.0366 31.6698 18.0736C31.6487 18.1104 31.6464 18.1552 31.664 18.1942C31.7427 18.3672 31.6473 18.518 31.5712 18.6018C30.7128 17.9139 30.0523 18.4744 30.0454 18.4805C29.995 18.5247 29.9855 18.5999 30.0237 18.6549C30.0876 18.7477 30.0764 18.7989 30.0593 18.8334C29.9205 19.1149 28.9128 19.2985 28.1583 19.3524C28.1542 19.2462 28.1219 19.1406 28.0627 19.0437C27.9691 18.8909 27.8211 18.7833 27.6568 18.7479C27.4741 18.7082 27.217 18.7501 27.0533 18.931C26.8702 19.1323 26.8439 19.4437 26.9746 19.8567C27.1789 20.5019 27.7921 21.1089 28.1499 21.4213C28.0627 21.3891 27.9763 21.354 27.8926 21.3137C27.6821 21.2112 27.3294 21.0396 27.0689 21.175C26.9375 21.243 26.8533 21.4132 26.8686 21.5795C26.8763 21.6628 26.9229 21.85 27.1667 21.9696L26.8734 22.7664C26.8578 22.8091 26.8651 22.857 26.893 22.8929C26.9208 22.9289 26.9651 22.9485 27.0106 22.9435L27.5998 22.8847L27.4698 23.2025C27.4508 23.249 27.4597 23.3022 27.4928 23.3398C27.5259 23.3773 27.5762 23.394 27.626 23.3802L28.2656 23.2109C28.4308 23.5502 28.6511 23.669 28.6615 23.6743C28.694 23.6915 28.7315 23.6941 28.7658 23.6822C28.8001 23.6704 28.8283 23.6449 28.8432 23.6118L28.9451 23.3862C29.0507 23.534 29.1649 23.6321 29.2355 23.6862C29.1925 23.7217 29.1501 23.7567 29.1036 23.7946C28.6595 24.1559 28.0514 24.6509 27.6143 25.4971C27.3948 25.922 27.2238 26.5703 27.2749 27.2597C26.9565 26.9921 26.3563 26.4614 25.9144 25.9181C25.9676 25.8818 26.0242 25.8475 26.0669 25.8053C26.2051 25.6686 26.2781 25.5066 26.2781 25.3374C26.2781 24.9861 26.0207 24.7388 25.7816 24.6579C25.6926 24.628 25.607 24.6235 25.5291 24.6368C25.5213 18.8771 26.1773 17.1138 26.3105 16.8169C26.3315 16.7699 26.3234 16.7148 26.2895 16.6759C26.2558 16.6373 26.2021 16.6215 26.1528 16.6361C26.0663 16.6615 24.0324 17.2968 23.9876 20.6621L24.0159 24.6769C23.7398 24.6478 23.4777 24.7263 23.3251 24.8893C23.2383 24.9821 23.146 25.1448 23.1973 25.3938C23.2658 25.7242 23.5323 25.968 23.9413 26.102C23.93 26.1453 23.9262 26.1944 23.9317 26.2493C23.938 26.3138 23.9582 26.3937 23.9955 26.4629C23.9456 26.5224 23.8965 26.6075 23.894 26.7122C23.8917 26.8132 23.9318 26.908 24.0137 26.9949C23.9814 27.0601 23.9532 27.1483 23.9656 27.246C23.9731 27.3042 23.9976 27.3815 24.0666 27.4562C24.0471 27.5138 24.0351 27.5892 24.0559 27.6721C24.0771 27.7577 24.1303 27.8314 24.2093 27.8943C24.007 27.8568 23.8648 27.9481 23.7983 28.0668C23.6983 28.2451 23.7388 28.4839 23.8885 28.5991C24.0105 28.6928 24.1555 28.7228 24.2877 28.7159C24.2204 28.8297 24.1493 28.935 24.1045 28.97C24.0754 28.9925 24.057 29.0261 24.054 29.0627C24.0507 29.0993 24.0629 29.1357 24.0877 29.163C24.1014 29.1783 24.3896 29.503 24.218 29.8404C24.165 29.7968 24.0963 29.7561 24.0147 29.7395C23.9086 29.7179 23.8011 29.7424 23.7034 29.8095C23.5638 29.9052 23.512 30.1074 23.5774 30.3012C23.6275 30.4497 23.7524 30.602 23.9656 30.6722L23.7801 30.8312C23.7424 30.8634 23.7261 30.9142 23.7377 30.9623C23.7492 31.0105 23.7867 31.0482 23.8348 31.0599L24.365 31.1891C24.4056 31.3056 24.4985 31.5305 24.6537 31.6857C24.6785 31.7105 24.7255 31.7243 24.7607 31.7243C24.7959 31.7243 24.8293 31.7105 24.8542 31.6857C25.0093 31.5305 25.1023 31.3056 25.1428 31.1891L25.673 31.0599C25.7211 31.0482 25.7586 31.0106 25.7702 30.9623C25.7817 30.914 25.7652 30.8634 25.7277 30.8312L25.5422 30.6722C25.7553 30.6018 25.8804 30.4496 25.9304 30.3012C25.9959 30.1073 25.944 29.905 25.8044 29.8095C25.7065 29.7422 25.5985 29.7181 25.493 29.7395C25.4115 29.756 25.343 29.7966 25.2898 29.8402C25.121 29.5046 25.4068 29.1779 25.4207 29.1626C25.4451 29.1353 25.4572 29.099 25.4539 29.0625C25.4506 29.026 25.4323 28.9924 25.4035 28.97C25.3588 28.9352 25.288 28.8301 25.2208 28.7162C25.3528 28.7174 25.497 28.6934 25.6195 28.5989C25.6463 28.5783 25.6654 28.5499 25.685 28.5225C25.6944 29.1025 26.062 29.332 26.0779 29.3416C26.1405 29.3789 26.2209 29.3592 26.2585 29.297C26.2897 29.2462 26.3083 29.2365 26.3079 29.2359C26.3543 29.2384 26.4847 29.3757 26.58 29.4758C26.7355 29.6394 26.9293 29.8432 27.1957 30.0207C27.3909 30.151 27.5754 30.2023 27.745 30.2023C28.2208 30.2023 28.5771 29.8008 28.7291 29.5946C29.0254 29.7804 29.3614 29.9417 29.7444 30.0726C29.7575 30.0771 29.7707 30.0788 29.7839 30.0791C29.8296 30.2275 29.8795 30.3768 29.9311 30.5248C30.0964 30.9991 30.2673 31.4898 30.2001 31.8622C30.1133 32.3449 29.3496 32.3498 28.9571 32.2838C28.6778 32.2383 28.4187 32.3098 28.2286 32.487C28.0384 32.6647 27.9405 32.933 27.967 33.2052C27.9855 33.3953 28.0807 33.4848 28.1576 33.5263C28.3339 33.6211 28.5724 33.5502 28.702 33.4972C28.9996 33.7564 29.3554 33.6476 29.5707 33.5107C29.7032 33.6213 29.8508 33.6793 30.0107 33.6828C30.016 33.683 30.0211 33.683 30.0265 33.683C30.2681 33.683 30.4713 33.5559 30.573 33.4781C31.0848 33.6852 31.3775 33.5308 31.4288 33.499C31.8443 33.1485 31.7759 32.5185 31.7217 32.2446C32.5757 31.986 32.8509 31.2438 32.8628 31.2109C32.8793 31.1646 32.8689 31.1129 32.8357 31.0767C32.8022 31.0407 32.751 31.0261 32.704 31.0387C32.4408 31.1094 32.2329 31.0613 32.1338 30.9063C31.9997 30.6966 32.0867 30.3534 32.3553 30.0325C32.4117 29.9652 32.465 29.8907 32.5171 29.813C33.1771 29.6655 33.7408 29.4088 34.3375 29.1367C34.8315 28.9115 35.3424 28.6785 35.9496 28.4881C36.1199 28.4347 36.2853 28.4034 36.4484 28.3822C36.3991 29.0981 36.7662 29.5698 37.1269 30.0236C37.2265 30.1488 37.3261 30.2739 37.4163 30.4045C37.8031 30.9646 37.7288 32.1388 37.6975 32.2448C37.67 32.305 37.4109 32.5689 37.0435 32.5185C36.7382 32.4779 36.3965 32.5784 36.1725 32.7745C36.0127 32.9144 35.9247 33.0943 35.9247 33.2808C35.9247 33.4398 36.0011 33.5187 36.0654 33.557C36.2568 33.6706 36.5735 33.549 36.7432 33.4678C36.9018 33.5904 37.0647 33.6356 37.2152 33.6356C37.4024 33.6356 37.5706 33.5658 37.6887 33.4885C38.043 33.7123 38.4141 33.5813 38.6209 33.4402C38.8801 33.5808 39.0884 33.553 39.2227 33.5001C39.2663 33.483 39.3062 33.4614 39.3424 33.4369C39.3478 33.4425 39.3527 33.45 39.3581 33.4546C39.4988 33.5756 39.7589 33.5112 39.9254 33.4508C40.0012 33.5762 40.1014 33.6327 40.1806 33.6579C40.4253 33.7359 40.7063 33.6018 40.8477 33.5181C41.0193 33.6507 41.1897 33.7065 41.36 33.6825C41.5102 33.6617 41.6235 33.5811 41.6964 33.5104C41.7742 33.5663 41.8924 33.6353 42.052 33.6857C42.1224 33.7081 42.1843 33.7171 42.2386 33.7171C42.4228 33.7171 42.5189 33.6121 42.5566 33.5573C42.7094 33.3342 42.6297 32.9564 42.4591 32.7431C42.3584 32.6173 42.2748 32.3819 42.3152 32.1399C42.3367 32.0108 42.4039 31.8305 42.603 31.7038C42.9619 31.4755 43.1975 31.1663 43.2029 30.9164C43.2053 30.8132 43.1661 30.7281 43.0923 30.6765C43.0272 30.6309 42.9542 30.6212 42.8836 30.6119C42.7264 30.5911 42.5305 30.5653 42.2813 30.105C42.0592 29.6948 42.3222 28.9 42.601 28.0584C42.7604 27.5769 42.9253 27.0789 43.0285 26.583C43.2842 25.3556 42.6679 24.3666 42.4447 24.0587C43.0654 23.4483 43.3256 22.8624 43.2184 22.3164C43.1004 21.7146 42.5394 21.3024 42.095 21.1322C41.5578 20.9263 40.6576 21.0333 39.7871 21.1376C39.1083 21.2189 38.4665 21.2959 38.0811 21.2143C37.9354 21.1838 37.8318 21.1206 37.7732 21.026C37.6713 20.8617 37.7259 20.6457 37.7264 20.6434C37.737 20.603 37.7278 20.5594 37.7016 20.5269C37.6753 20.4944 37.6319 20.4736 37.5934 20.4776C37.3402 20.4877 37.1384 20.6289 37.0138 20.7454C37.0066 20.7099 37.0054 20.6735 37.0106 20.6358C37.0449 20.3818 37.3373 20.1598 37.3402 20.1577C37.3751 20.1314 37.3951 20.0893 37.3929 20.0455C37.3909 20.0017 37.3672 19.9619 37.3297 19.939C36.7914 19.6112 36.2889 19.854 36.0317 20.082C35.923 19.9755 35.8575 19.8126 35.8625 19.6487C35.8658 19.541 35.9038 19.3431 36.1191 19.2287C36.2164 19.1768 36.3001 19.1655 36.376 19.1934C36.503 19.2407 36.5873 19.3967 36.6092 19.4531C36.6231 19.4891 36.6525 19.5174 36.6888 19.5301C36.7253 19.5434 36.7659 19.5394 36.7992 19.5198C37.0938 19.3479 37.188 18.9869 37.2179 18.7866C37.3911 18.8148 37.5233 18.8883 37.6193 19.0094C37.8886 19.3491 37.7784 19.9473 37.7774 19.9534C37.7688 19.9981 37.7839 20.044 37.8171 20.075C37.8503 20.106 37.8973 20.1175 37.9413 20.106C38.5394 19.9458 38.7308 19.4601 38.7603 19.1011C39.2176 19.3859 39.1865 19.9749 39.1847 20.0025C39.1818 20.048 39.2024 20.0918 39.2392 20.1183C39.2761 20.145 39.324 20.1506 39.3661 20.1338C39.585 20.0451 39.7061 19.9006 39.7733 19.7673C40.1896 20.3132 40.7683 20.5027 40.796 20.5118C40.845 20.5267 40.8984 20.5131 40.9333 20.4752C40.9681 20.4374 40.978 20.3829 40.9583 20.3354L40.8291 20.0222C40.9343 20.0963 41.0356 20.1744 41.1397 20.2545C41.4156 20.4668 41.7008 20.6865 42.1123 20.8798C42.575 21.0972 42.9047 21.0485 43.1005 20.9701C43.2957 20.8911 43.4505 20.7438 43.5145 20.576C43.5891 20.3806 43.6172 20.0914 43.473 19.8668ZM43.2674 20.4825C43.2394 20.5563 43.1529 20.6641 43.0014 20.7252C42.8553 20.7844 42.6014 20.8181 42.2249 20.6411C41.8394 20.4599 41.5656 20.2493 41.301 20.0456C41.0816 19.8766 40.8742 19.7171 40.6125 19.5761C40.5637 19.5497 40.503 19.5568 40.4613 19.5943C40.4198 19.6316 40.4064 19.6912 40.4278 19.7428L40.585 20.124C40.3567 19.9937 40.0446 19.7609 39.84 19.3869C39.8111 19.3338 39.7503 19.3074 39.6912 19.3222C39.6327 19.3372 39.5918 19.3899 39.5918 19.4502C39.5918 19.4526 39.5896 19.6366 39.4394 19.7798C39.3939 19.4278 39.2009 18.9548 38.6704 18.7675C38.6269 18.7517 38.5794 18.7605 38.5438 18.7888C38.5081 18.8173 38.4898 18.8624 38.495 18.9077C38.4983 18.9351 38.5616 19.5242 38.0617 19.7793C38.0752 19.5325 38.0538 19.1335 37.8268 18.8463C37.6608 18.6364 37.4178 18.5234 37.1048 18.5105C37.0708 18.5067 37.035 18.5218 37.0091 18.5459C36.9831 18.5701 36.9682 18.6036 36.9671 18.639C36.9671 18.6431 36.9519 18.9974 36.772 19.2027C36.7097 19.1096 36.6108 18.9998 36.4698 18.9466C36.3215 18.8907 36.1616 18.9071 35.9949 18.9955C35.7515 19.1247 35.6068 19.3599 35.5979 19.6405C35.5886 19.9376 35.7357 20.224 35.973 20.3699C36.0274 20.4028 36.0981 20.3926 36.141 20.3449C36.1584 20.3252 36.5355 19.9129 37.0274 20.0857C36.9149 20.2037 36.7776 20.3867 36.7485 20.5993C36.7257 20.7637 36.7693 20.9179 36.8774 21.0577C36.9027 21.0906 36.9323 21.1067 36.9844 21.1087C37.026 21.1081 37.0651 21.0874 37.0894 21.0535C37.0911 21.0511 37.2346 20.8542 37.4471 20.7744C37.4462 20.8869 37.466 21.031 37.5468 21.1627C37.6448 21.3224 37.8061 21.4269 38.0266 21.4732C38.4544 21.5625 39.1171 21.4835 39.8183 21.4002C40.6574 21.3004 41.5248 21.1969 42.0002 21.3791C42.3817 21.5252 42.8617 21.8717 42.9589 22.3675C43.0524 22.8429 42.7893 23.3751 42.1775 23.9491C42.1262 23.997 42.1215 24.0768 42.1666 24.1304C42.1753 24.1409 43.0471 25.1979 42.7697 26.5291C42.6696 27.0104 42.5072 27.5011 42.3499 27.9754C42.04 28.9118 41.7724 29.7203 42.0489 30.231C42.3623 30.8097 42.667 30.8498 42.849 30.874C42.8845 30.8785 42.9286 30.8844 42.9363 30.8881C42.9625 30.9414 42.8693 31.2212 42.4613 31.4809C42.2386 31.6227 42.0979 31.8355 42.0545 32.0965C42.0073 32.38 42.0851 32.6988 42.2527 32.9082C42.3805 33.0679 42.404 33.3121 42.3385 33.4076C42.3256 33.4262 42.2865 33.4822 42.1314 33.4336C41.8947 33.3587 41.7791 33.2367 41.7788 33.2364C41.7509 33.2058 41.7108 33.1908 41.6687 33.1931C41.6272 33.1969 41.59 33.2199 41.5683 33.2552C41.5672 33.2567 41.4752 33.3996 41.3235 33.4207C41.2101 33.4361 41.0839 33.3812 40.9475 33.2566C40.9014 33.2145 40.8325 33.2107 40.7815 33.2465C40.6993 33.3048 40.4272 33.4579 40.2608 33.406C40.2368 33.3983 40.1639 33.3748 40.1171 33.2376C40.1049 33.2024 40.0784 33.1739 40.0442 33.1592C40.0099 33.1446 39.9712 33.1448 39.9371 33.1604C39.7766 33.2333 39.575 33.2791 39.5363 33.2615C39.5363 33.2615 39.5299 33.2416 39.5464 33.1852C39.6378 32.87 40.0098 32.7946 40.256 32.7447C40.3012 32.7355 40.3422 32.7271 40.3765 32.7185C40.4036 32.7118 40.4348 32.7056 40.468 32.699C40.7105 32.6509 41.2148 32.5505 41.1514 31.9163C41.1379 31.783 41.1418 31.66 41.1452 31.5409C41.1568 31.1503 41.1677 30.7815 40.5538 30.3397C40.3275 30.1765 40.1092 30.0301 39.8995 29.8894C39.4221 29.5688 39.0097 29.2922 38.632 28.9145C37.8524 28.1345 36.9238 27.906 35.8708 28.2357C35.248 28.4308 34.7295 28.6672 34.2283 28.8959C33.7241 29.126 33.2408 29.3404 32.7113 29.4868C33.1292 28.6924 33.3581 27.639 33.3111 27.1312C33.3041 27.0585 33.2379 27.0045 33.1672 27.0118C33.0946 27.0187 33.0412 27.0829 33.0478 27.1556C33.1018 27.7355 32.7418 29.1593 32.1531 29.8628C31.809 30.2741 31.7142 30.7395 31.9115 31.0485C32.034 31.24 32.2419 31.3317 32.5037 31.3342C32.3607 31.5596 32.0644 31.8996 31.5347 32.021C31.4993 32.0293 31.4687 32.0516 31.4502 32.0831C31.4318 32.1145 31.4272 32.1521 31.4375 32.187C31.4398 32.1948 31.6583 32.96 31.2801 33.2824C31.2706 33.2879 31.0419 33.4037 30.6062 33.2043C30.5569 33.1819 30.4983 33.1917 30.4592 33.2297C30.457 33.2315 30.2429 33.4322 30.0174 33.4185C29.8941 33.4156 29.7832 33.3602 29.6787 33.2487C29.6305 33.1973 29.5504 33.1931 29.4967 33.2383C29.4811 33.2519 29.107 33.5623 28.8292 33.2512C28.7885 33.2056 28.7226 33.1941 28.6692 33.2221C28.5631 33.2775 28.3672 33.3388 28.2839 33.2937C28.2729 33.2876 28.2393 33.2696 28.2306 33.1795C28.2122 32.9886 28.2791 32.8018 28.4097 32.68C28.5384 32.5599 28.7176 32.5114 28.9143 32.5445C29.6069 32.6601 30.3529 32.5081 30.461 31.9089C30.5403 31.4681 30.3578 30.9444 30.1814 30.4376C30.0485 30.0565 29.9113 29.6623 29.9051 29.343C29.8927 28.6906 30.0325 28.0745 30.0338 28.0683C30.0502 27.9973 30.0059 27.9264 29.9347 27.91C29.8635 27.8927 29.7928 27.9377 29.7764 28.0089C29.7703 28.0352 29.6277 28.6618 29.6409 29.3481C29.6436 29.4831 29.6692 29.6269 29.7028 29.7732C28.6999 29.4027 28.0306 28.826 27.7196 28.053C27.3551 27.1469 27.5619 26.175 27.8496 25.6179C28.2615 24.8207 28.8212 24.3654 29.271 23.9992C29.4825 23.8272 29.6717 23.6723 29.8068 23.5105C29.7925 23.7302 29.6056 24.1721 29.4017 24.526C29.3746 24.5732 29.379 24.6321 29.413 24.6746C29.447 24.717 29.5039 24.7342 29.5555 24.7181C29.6691 24.6827 29.8742 24.5827 30.0247 24.5059L30.067 25.173C30.0702 25.2223 30.1007 25.2659 30.1461 25.2857C30.1917 25.3056 30.2445 25.2983 30.2826 25.2666C30.4607 25.1205 30.6289 24.9256 30.7453 24.7785L30.8767 25.1934C30.8893 25.2332 30.9203 25.265 30.96 25.2786C30.9998 25.292 31.0434 25.2861 31.0779 25.2621C31.2662 25.1318 31.45 24.9231 31.5649 24.7797L31.8158 25.1796C31.8412 25.2203 31.8867 25.2464 31.9342 25.2413C31.9819 25.2391 32.0247 25.2113 32.046 25.1684L32.3387 24.5829L32.5856 25.254C32.5994 25.2915 32.6293 25.3206 32.6671 25.3335C32.6809 25.3384 32.6954 25.3406 32.7096 25.3406C32.7342 25.3406 32.7588 25.3336 32.7802 25.3203L33.4272 24.9122C33.7691 25.1022 34.2636 25.1813 34.2859 25.185C34.3257 25.1903 34.3671 25.1787 34.3969 25.1506C34.4267 25.1227 34.4418 25.0826 34.4381 25.0419L34.3854 24.4907L34.9582 24.482C35.0242 24.4809 35.0792 24.4314 35.0873 24.3661C35.0954 24.3005 35.0539 24.2392 34.9903 24.2222C34.9278 24.2055 34.7844 24.0715 34.662 23.9343C34.6776 23.9332 34.6847 23.9326 34.692 23.932C35.0214 23.9571 40.6131 24.3687 41.8393 23.4768C42.5212 22.9809 42.4736 22.5301 42.3843 22.3056C42.2003 21.8419 41.5312 21.5461 40.8638 21.6312C40.5985 21.6652 40.3131 21.716 40.0175 21.769C39.1806 21.9189 38.2321 22.0888 37.4542 21.8982C37.1509 21.8239 36.8909 21.7254 36.6614 21.6387C36.273 21.4916 35.9922 21.3853 35.7771 21.5138C35.6879 21.5671 35.6233 21.654 35.5801 21.7812C35.442 21.6272 35.2889 21.346 35.4911 20.9653C35.5178 20.9152 35.5093 20.8537 35.4703 20.8123C35.4626 20.804 34.6958 19.9822 35.0567 19.0802C35.3807 18.2702 36.656 17.8129 38.0889 17.995C39.3218 18.1509 40.6139 19.0979 41.4689 19.7245C42.0072 20.1189 42.297 20.3258 42.4931 20.3515C42.5323 20.3572 42.571 20.3436 42.6 20.3169C42.6288 20.2903 42.6442 20.2519 42.6421 20.2126C42.6419 20.2109 42.6338 20.0344 42.7329 19.9365C42.7869 19.883 42.8659 19.8594 42.975 19.8676C43.1032 19.876 43.1959 19.9236 43.2509 20.0089C43.3361 20.1424 43.3206 20.3429 43.2674 20.4825ZM39.1131 33.2594C38.9849 33.3034 38.8412 33.274 38.6841 33.1709C38.6348 33.1386 38.5696 33.1432 38.5251 33.1816C38.5092 33.1953 38.1316 33.5143 37.7697 33.2225C37.7203 33.1827 37.6488 33.1841 37.6001 33.2256C37.5609 33.2593 37.2057 33.5454 36.852 33.2143C36.8102 33.1754 36.7485 33.1675 36.6989 33.1945C36.519 33.2916 36.2678 33.3709 36.2006 33.3303C36.1896 33.3238 36.1891 33.2883 36.1891 33.2813C36.1891 33.1412 36.2747 33.0367 36.3465 32.974C36.5134 32.8281 36.7785 32.7506 37.0086 32.7809C37.5092 32.8478 37.8742 32.5044 37.9403 32.3495C37.9988 32.2129 38.0953 30.9232 37.6338 30.255C37.5402 30.1195 37.4371 29.9895 37.3337 29.8596C36.9828 29.4182 36.6542 28.9988 36.7136 28.3609C37.3548 28.3474 37.9356 28.5927 38.4448 29.1019C38.7113 29.3684 39.0001 29.5891 39.3027 29.8013C39.1854 29.9218 38.9963 30.1493 38.982 30.3809C38.9749 30.4948 39.0111 30.5991 39.0861 30.6825C39.2778 30.8953 39.4972 30.8855 39.6422 30.8783C39.6672 30.877 39.7007 30.8751 39.7252 30.8769C39.6883 30.9665 39.5513 31.1537 39.4565 31.2829C39.1944 31.6405 39.0248 31.8893 39.0536 32.082C39.0735 32.2134 39.1251 32.4115 39.1751 32.6033C39.2228 32.7861 39.2948 33.0623 39.2914 33.1157C39.2845 33.1363 39.2251 33.2204 39.1131 33.2594ZM39.6696 31.4392C39.9236 31.0926 40.0526 30.9049 39.9779 30.7556C39.9012 30.6022 39.7446 30.6088 39.6299 30.6147C39.5069 30.6205 39.3903 30.6257 39.2824 30.506C39.2544 30.4748 39.243 30.4414 39.2456 30.3978C39.2548 30.2468 39.4251 30.0509 39.5232 29.9548C39.599 30.0063 39.6744 30.0577 39.7519 30.1097C39.9594 30.249 40.1751 30.3938 40.399 30.5549C40.8989 30.9149 40.8915 31.1613 40.8808 31.5341C40.8771 31.6556 40.8731 31.7933 40.8882 31.9436C40.9248 32.3106 40.7156 32.3812 40.4162 32.4407C40.3784 32.4482 40.3431 32.4553 40.3119 32.4631C40.281 32.4708 40.244 32.4783 40.203 32.4867C40.012 32.5254 39.7069 32.5907 39.4947 32.7886C39.4772 32.717 39.4559 32.6341 39.4305 32.5372C39.3824 32.3521 39.3325 32.1608 39.3147 32.0433C39.3001 31.9435 39.5406 31.6156 39.6696 31.4392ZM26.2811 28.9738C26.2262 28.9796 26.1763 29.0018 26.1307 29.0412C26.0526 28.9541 25.948 28.7847 25.948 28.5021C25.948 28.082 25.8292 27.8731 25.7536 27.782C25.7724 27.7549 25.7907 27.7275 25.8042 27.6975C25.8629 27.5671 25.8462 27.4313 25.7544 27.2926C25.7973 27.203 25.8269 27.0803 25.7901 26.9566C25.8436 26.8658 25.885 26.724 25.8423 26.5505C25.8754 26.5071 25.9162 26.4428 25.9471 26.3619C26.5544 27.033 27.2795 27.6075 27.3286 27.646C27.3628 27.8152 27.4067 27.9847 27.4742 28.1525C27.6805 28.6657 28.0301 29.0965 28.5103 29.4469C28.2852 29.7526 27.864 30.1497 27.3427 29.8017C27.1008 29.6405 26.9184 29.4486 26.772 29.2945C26.5847 29.0978 26.4478 28.9551 26.2811 28.9738ZM25.1755 30.1382C25.2027 30.1696 25.2419 30.1852 25.2848 30.1829C25.3261 30.1798 25.3638 30.1575 25.3861 30.1226C25.4004 30.1006 25.4692 30.0147 25.5458 29.9992C25.5677 29.9944 25.6035 29.9927 25.6555 30.0281C25.6901 30.052 25.7095 30.1311 25.6803 30.2175C25.6281 30.3726 25.4632 30.4579 25.2373 30.4479C25.1813 30.4433 25.1289 30.4784 25.1081 30.531C25.0873 30.5834 25.102 30.6435 25.1449 30.6801L25.3605 30.8649L25.0087 30.9505C24.9621 30.9618 24.9253 30.9977 24.9126 31.044C24.912 31.0462 24.8594 31.2336 24.7544 31.3917C24.6493 31.2336 24.5967 31.0462 24.5961 31.044C24.5835 30.9977 24.5465 30.9618 24.5 30.9505L24.1482 30.8649L24.3636 30.6801C24.4065 30.6433 24.4212 30.5834 24.4004 30.531C24.3794 30.4785 24.3232 30.4427 24.2712 30.4479C24.0425 30.4585 23.8805 30.3726 23.8284 30.2177C23.7992 30.1312 23.8186 30.052 23.8532 30.0281C23.9043 29.9931 23.9397 29.9949 23.9622 29.9992C24.0363 30.0136 24.1035 30.0938 24.1225 30.1227C24.145 30.1576 24.1826 30.18 24.2238 30.183C24.2632 30.1848 24.3057 30.1693 24.3331 30.1383C24.6682 29.7553 24.5251 29.3246 24.3599 29.083C24.4864 28.925 24.6158 28.6722 24.6456 28.6125C24.6683 28.5673 24.6551 28.5146 24.6243 28.4743C24.5931 28.4345 24.5335 28.4175 24.4847 28.4274C24.4097 28.4432 24.1812 28.491 24.05 28.3899C24.0044 28.3549 23.9943 28.259 24.0293 28.1967C24.0411 28.1751 24.0785 28.1109 24.2156 28.163C24.346 28.2132 24.5333 28.2674 24.6502 28.1619C24.6768 28.138 24.6922 28.1097 24.7035 28.0806C24.7381 28.0859 24.7733 28.0877 24.8086 28.0909C24.82 28.1162 24.8348 28.1409 24.8584 28.1619C24.9759 28.2675 25.1628 28.2132 25.2931 28.163C25.4307 28.1103 25.4674 28.1752 25.4794 28.1967C25.5146 28.2592 25.5043 28.355 25.4584 28.3902C25.3273 28.4916 25.099 28.4433 25.0072 28.4242C24.9575 28.4138 24.9071 28.4333 24.8763 28.4735C24.8458 28.5135 24.8406 28.5675 24.863 28.6127C24.8928 28.6722 25.0222 28.9252 25.1487 29.0832C24.9836 29.3245 24.8406 29.7553 25.1755 30.1382ZM25.6042 26.4238C25.5653 26.4603 25.5522 26.5165 25.571 26.5664C25.636 26.74 25.554 26.8364 25.5461 26.845C25.5042 26.8868 25.4954 26.9514 25.5245 27.0033C25.5789 27.0999 25.4908 27.221 25.4905 27.2214C25.4527 27.2711 25.4544 27.3403 25.4951 27.3878C25.599 27.5091 25.5747 27.5629 25.563 27.5888C25.5257 27.6718 25.4454 27.7365 25.3244 27.7811C25.2008 27.8267 25.0565 27.8403 24.916 27.8362C24.9108 27.8364 24.9056 27.8356 24.9005 27.8365C24.7337 27.8298 24.5736 27.7962 24.4624 27.7439C24.403 27.716 24.3287 27.6701 24.3127 27.6104C24.2984 27.5565 24.3356 27.5023 24.3355 27.5023C24.3572 27.4734 24.3661 27.4369 24.3603 27.4013C24.3543 27.3657 24.334 27.334 24.3042 27.3137C24.2353 27.2669 24.2298 27.227 24.2281 27.2139C24.2197 27.1522 24.2681 27.0786 24.2852 27.0585C24.3094 27.0308 24.321 26.9943 24.3172 26.9577C24.3134 26.9211 24.2945 26.8878 24.2651 26.8658C24.2248 26.8355 24.1576 26.7764 24.1585 26.7196C24.1593 26.6611 24.2264 26.6011 24.249 26.5854C24.2841 26.5615 24.3023 26.5199 24.3035 26.4775C24.3046 26.435 24.2822 26.3921 24.2484 26.3663C24.214 26.34 24.1814 26.2118 24.1967 26.1675C24.3568 26.1984 24.5304 26.2173 24.7206 26.219C24.7303 26.219 24.7402 26.2192 24.75 26.2192C25.1082 26.2192 25.4217 26.1545 25.6773 26.046C25.6931 26.0659 25.7093 26.0857 25.7254 26.1054C25.7285 26.2946 25.6089 26.4191 25.6042 26.4238ZM24.7232 25.9547C24.0084 25.9482 23.5347 25.7186 23.4565 25.3405C23.4333 25.2281 23.4536 25.1397 23.5184 25.0703C23.5991 24.9838 23.7483 24.9333 23.9091 24.9333C23.9437 24.9333 23.9789 24.9357 24.0139 24.9406C24.0511 24.9455 24.0573 24.9574 24.0595 24.9617C24.0873 25.0136 24.0511 25.1631 24.0013 25.265C23.9697 25.3296 23.9955 25.4078 24.0593 25.4409C24.5304 25.6839 25.2122 25.5773 25.3915 25.4959C25.413 25.4862 25.4782 25.4567 25.496 25.3852C25.5102 25.329 25.4915 25.28 25.4732 25.2327C25.4407 25.1471 25.4068 25.0588 25.5023 24.9339C25.5533 24.867 25.6644 24.8979 25.6971 24.9091C25.8547 24.9624 26.014 25.1269 26.014 25.3382C26.014 25.4366 25.9693 25.5309 25.881 25.6185C25.6638 25.8336 25.2289 25.953 24.7232 25.9547ZM25.2089 25.2791C25.0326 25.3229 24.6208 25.3714 24.2906 25.2533C24.3293 25.1365 24.3621 24.9678 24.2929 24.8377C24.2899 24.8322 24.2849 24.8261 24.2814 24.8203L24.252 20.6632C24.2849 18.1963 25.4245 17.2953 25.9589 17.008C25.7195 17.7547 25.2467 19.8636 25.2653 24.821C25.1459 25.0096 25.1738 25.1761 25.2089 25.2791ZM28.8117 23.0408L28.673 23.3473C28.6092 23.28 28.5291 23.1714 28.4639 23.0063C28.4393 22.944 28.3724 22.9091 28.3072 22.9272L27.8149 23.0575L27.9276 22.7821C27.9452 22.7391 27.9389 22.6902 27.9111 22.653C27.8836 22.6157 27.8373 22.5948 27.7922 22.6005L27.1946 22.6602L27.4164 22.0577C27.6802 22.1347 28.3333 22.3111 29.0039 22.3808L28.9061 22.5025C28.8708 22.5465 28.8674 22.6078 28.8971 22.6555C28.9271 22.7032 28.9839 22.7267 29.0387 22.714C29.0457 22.7125 29.7553 22.5517 30.2383 22.6206C30.2931 22.6272 30.3465 22.6012 30.373 22.5531C30.3995 22.5047 30.3931 22.445 30.3571 22.4034C30.075 22.0772 29.3171 21.1666 29.1974 20.8758C29.1748 20.8209 29.1182 20.7898 29.0598 20.7948C29.001 20.8018 28.954 20.847 28.9448 20.9055L28.8785 21.3283C28.7775 21.2614 28.6431 21.1519 28.5304 20.99C28.4981 20.9435 28.4402 20.9225 28.3857 20.9386C28.3313 20.9541 28.2929 21.0024 28.29 21.0588C28.2893 21.0717 28.2872 21.1231 28.2903 21.1926C27.95 20.8899 27.4039 20.3377 27.2264 19.7774C27.1275 19.4651 27.1352 19.2342 27.2488 19.1093C27.348 19.0003 27.5143 18.9885 27.6014 19.007C27.694 19.0268 27.7823 19.0923 27.8373 19.1823C27.8912 19.2705 27.9074 19.3689 27.8831 19.4603C27.8722 19.501 27.8813 19.5446 27.9081 19.5774C27.9345 19.6103 27.976 19.6292 28.0173 19.6262C28.3504 19.6097 30.0256 19.4994 30.2964 18.9506C30.3342 18.8739 30.3607 18.7603 30.3047 18.6213C30.482 18.5202 30.9198 18.3702 31.487 18.877C31.5332 18.9185 31.6026 18.9217 31.6534 18.8849C31.7839 18.7889 31.9803 18.5582 31.9561 18.2774C32.1537 18.3022 32.4935 18.4022 32.7291 18.782C32.7508 18.8167 32.7871 18.8394 32.8278 18.8437C32.8681 18.8477 32.9084 18.8333 32.9369 18.8039C32.9473 18.793 33.1618 18.5671 33.2503 18.288C33.408 18.3249 33.7208 18.4435 34.0265 18.8276C34.0494 18.8564 34.083 18.8743 34.1197 18.8772C34.1326 18.8774 34.3008 18.8875 34.518 18.8239C33.8507 19.3615 32.7662 19.4714 32.7521 19.4728C32.7034 19.4774 32.6613 19.5084 32.6423 19.5535C32.6236 19.5985 32.6311 19.6505 32.6621 19.6881L32.8504 19.9176C32.1038 19.9315 31.775 19.6614 31.7721 19.6588C31.7238 19.6168 31.6527 19.6159 31.6026 19.6551C31.5527 19.6952 31.5386 19.7651 31.5691 19.8213L31.7327 20.1235C31.4391 20.0621 31.1699 19.9251 30.9441 19.81C30.6597 19.6652 30.4348 19.5512 30.2377 19.6097C30.0905 19.6538 29.9831 19.7868 29.9575 19.9569C29.9297 20.1422 30.0053 20.3193 30.1546 20.4188C30.2307 20.4696 30.3174 20.4944 30.4046 20.4944C30.5278 20.4944 30.6523 20.4451 30.75 20.3497C30.8299 20.2717 30.8779 20.177 30.8919 20.0798C31.1896 20.2306 31.5519 20.401 31.9658 20.4188C32.0122 20.4245 32.0583 20.3972 32.0834 20.3569C32.1087 20.3166 32.1103 20.2657 32.0875 20.2239L32.0011 20.0644C32.2508 20.1486 32.6216 20.2158 33.1296 20.1651C33.1782 20.1602 33.22 20.1293 33.2387 20.0842C33.2573 20.0392 33.2495 19.9875 33.2188 19.9499L33.0163 19.7031C33.4311 19.634 34.2824 19.4337 34.8196 18.9128C34.7312 19.1564 34.5871 19.4074 34.3497 19.5448C34.3165 19.5641 34.2936 19.5972 34.2864 19.635C34.2793 19.6728 34.2893 19.7123 34.3132 19.7423C34.3177 19.748 34.7453 20.306 34.6119 21.7644C34.3674 21.6387 33.8974 21.3401 33.6316 20.801C33.6034 20.7439 33.5392 20.7155 33.4764 20.7325C33.415 20.7501 33.3751 20.8094 33.3816 20.8731C33.3993 21.0444 33.4136 21.3182 33.3981 21.5109C33.2553 21.4085 33.0553 21.2413 32.9728 21.0584C32.9496 21.0066 32.8958 20.9743 32.8395 20.9814C32.783 20.9869 32.7366 21.0277 32.7237 21.0829C32.6903 21.2267 32.6457 21.3934 32.6095 21.5065C32.478 21.4241 32.3033 21.2938 32.2306 21.1599C32.2026 21.1081 32.1438 21.0809 32.0856 21.094C32.028 21.1067 31.986 21.1565 31.9826 21.2155C31.974 21.3684 31.9538 21.6043 31.9281 21.7674C31.8066 21.693 31.6357 21.5806 31.5094 21.4664C31.4751 21.4354 31.4272 21.4239 31.3831 21.4375C31.339 21.4506 31.3048 21.4859 31.2929 21.5306L31.2251 21.7881C31.1116 21.7222 30.9541 21.6171 30.8512 21.4915C30.8051 21.4349 30.7217 21.4266 30.6655 21.4729C30.6089 21.519 30.6006 21.6023 30.6469 21.6586C30.8622 21.9217 31.24 22.0955 31.256 22.1027C31.2916 22.1186 31.3319 22.1182 31.3673 22.1018C31.4026 22.0851 31.4286 22.0537 31.4385 22.016L31.4965 21.7956C31.7108 21.955 31.9401 22.0808 31.9521 22.0873C31.9853 22.1052 32.0246 22.1081 32.0602 22.0957C32.0958 22.0829 32.1242 22.0554 32.1381 22.0205C32.1768 21.9236 32.204 21.7248 32.2215 21.5488C32.402 21.7056 32.6045 21.8081 32.6171 21.8143C32.679 21.8452 32.7537 21.8233 32.7896 21.7641C32.8269 21.7016 32.8712 21.5617 32.9083 21.4288C33.1223 21.6698 33.41 21.835 33.4259 21.8442C33.4591 21.8629 33.4995 21.8662 33.5359 21.8537C33.5722 21.8406 33.6009 21.8123 33.6147 21.7762C33.6545 21.6714 33.6678 21.5057 33.6691 21.3428C33.9207 21.6502 34.212 21.846 34.4178 21.9596C34.4178 21.9628 34.4163 21.9657 34.4165 21.969C34.4179 21.9922 34.4468 22.4346 34.5226 22.7873C34.3008 22.7052 33.9443 22.5379 33.6149 22.2278C33.5832 22.1978 33.5385 22.1858 33.4961 22.1949C33.4535 22.2041 33.4182 22.2338 33.4018 22.2742L33.3 22.5252L32.875 22.2169C32.8375 22.1898 32.7882 22.184 32.7451 22.2026C32.7022 22.221 32.6723 22.2606 32.6662 22.3069L32.6279 22.6016C32.5355 22.5347 32.4246 22.4462 32.3455 22.3573C32.2967 22.3024 32.2129 22.2978 32.159 22.3462C32.1045 22.3948 32.0996 22.4783 32.148 22.5328C32.3352 22.7433 32.6494 22.9353 32.6626 22.9433C32.701 22.9669 32.7483 22.9687 32.7884 22.9495C32.8288 22.9301 32.8565 22.8918 32.8624 22.8474L32.8996 22.5613L33.2815 22.8383C33.3141 22.8621 33.3564 22.8692 33.3954 22.8582C33.4346 22.847 33.4662 22.8185 33.4816 22.781L33.5767 22.5459C33.8213 22.747 34.0644 22.8789 34.2622 22.9662C34.2632 23.0484 34.2761 23.3984 34.4239 23.6745C34.1818 23.6681 33.8024 23.6256 33.451 23.4498C33.3916 23.4196 33.318 23.4394 33.2812 23.4961L33.0898 23.7911L32.2983 23.26C32.2646 23.2372 32.2221 23.2309 32.1838 23.2442C32.1453 23.2566 32.1145 23.2862 32.1005 23.3242L31.9788 23.6555C31.8331 23.492 31.6243 23.262 31.5473 23.2004C31.4934 23.1571 31.415 23.1631 31.3679 23.2139C31.3657 23.2163 31.1808 23.4143 30.9594 23.5682L30.8069 23.1585C30.7815 23.0905 30.705 23.0553 30.6369 23.0807C30.5684 23.1061 30.5336 23.1825 30.559 23.2507L30.7683 23.8123C30.7818 23.8485 30.8103 23.8769 30.8464 23.8902C30.8825 23.9035 30.9226 23.9005 30.9564 23.8818C31.1634 23.7668 31.357 23.5953 31.4672 23.489C31.5898 23.6155 31.7956 23.846 31.9268 23.9964C31.9577 24.0316 32.0043 24.0484 32.0503 24.0394C32.0962 24.031 32.1343 23.999 32.1504 23.9551L32.2907 23.5733L33.0539 24.0854C33.0759 24.1 33.1016 24.1079 33.1276 24.1079C33.1363 24.1079 33.1453 24.107 33.154 24.105C33.1888 24.098 33.2192 24.0773 33.2383 24.0476L33.4402 23.7363C33.7794 23.8828 34.1187 23.9261 34.3621 23.9365C34.3608 23.9679 34.3693 23.9999 34.3909 24.0262C34.4231 24.0657 34.4888 24.1433 34.5682 24.224L34.2377 24.2289C34.2009 24.2295 34.166 24.2455 34.1414 24.273C34.1168 24.3003 34.1048 24.3368 34.1082 24.3737L34.1576 24.891C33.9751 24.85 33.6858 24.7705 33.4973 24.6471C33.4536 24.6186 33.3981 24.6179 33.3543 24.6457L32.7768 25.0102L32.4809 24.2054C32.4627 24.1558 32.4169 24.122 32.3642 24.119C32.3068 24.1149 32.2621 24.1447 32.2385 24.1919L31.9142 24.8405L31.687 24.4781C31.6633 24.4406 31.6226 24.4173 31.5784 24.4162C31.5343 24.4168 31.4925 24.4361 31.4668 24.4723C31.4646 24.4755 31.2806 24.7353 31.0698 24.9295L30.919 24.4535C30.9037 24.4053 30.8624 24.3701 30.8123 24.3626C30.762 24.356 30.7125 24.377 30.684 24.4188C30.682 24.4219 30.5192 24.6584 30.3125 24.8763L30.2752 24.2869C30.2724 24.2421 30.247 24.2017 30.2076 24.1798C30.1683 24.1579 30.1205 24.1574 30.0809 24.1788C30.0241 24.2092 29.919 24.2643 29.809 24.3186C29.9645 23.9958 30.1409 23.5424 30.0406 23.3088C30.0107 23.2391 29.9544 23.1929 29.8872 23.1643C29.883 23.1614 29.8801 23.1572 29.8756 23.1547C29.8695 23.1514 29.8628 23.1512 29.8565 23.1489C29.852 23.1476 29.8491 23.1439 29.8444 23.1428C29.8391 23.1415 29.8351 23.1419 29.8299 23.1409C29.8272 23.1406 29.8247 23.14 29.8218 23.1398C29.6426 23.1025 29.5205 23.1525 29.4499 23.2039C29.3779 23.2567 29.3303 23.3266 29.2992 23.394C29.217 23.3147 29.1178 23.1964 29.0538 23.0439C29.0335 22.9954 28.9863 22.9635 28.9338 22.9628C28.8812 22.9595 28.8335 22.9929 28.8117 23.0408ZM27.8068 21.5662C28.5211 21.9105 29.3991 21.9486 29.639 21.953C29.7539 22.0956 29.8659 22.2319 29.9557 22.3388C29.7362 22.3397 29.5123 22.3645 29.3344 22.3911L29.3658 22.3521C29.3967 22.3135 29.4035 22.2609 29.3834 22.2157C29.3635 22.1706 29.3198 22.1404 29.2707 22.1373C28.3736 22.084 27.3855 21.7723 27.3757 21.7689C27.3753 21.7688 27.375 21.7689 27.3746 21.7688C27.3746 21.7688 27.3742 21.7685 27.3738 21.7684C27.2265 21.724 27.1408 21.6483 27.1322 21.5556C27.1255 21.4825 27.1662 21.423 27.1907 21.4102C27.3333 21.3366 27.6333 21.482 27.8068 21.5662ZM29.0552 21.6407C29.0837 21.6202 29.1048 21.5908 29.1104 21.5556L29.1491 21.3079C29.2283 21.4231 29.3243 21.5506 29.4233 21.6791C29.321 21.6721 29.1954 21.66 29.0552 21.6407ZM28.8226 21.6033C28.7582 21.5914 28.6918 21.5774 28.6248 21.562C28.6307 21.5336 28.6272 21.5034 28.6136 21.4761C28.6098 21.4686 28.6064 21.4606 28.603 21.4524C28.6866 21.5209 28.7638 21.5701 28.8226 21.6033ZM30.5654 20.1607C30.5053 20.2199 30.3998 20.2648 30.3012 20.1993C30.2256 20.1489 30.2092 20.0615 30.2188 19.9963C30.2265 19.9456 30.2557 19.8804 30.3134 19.8631C30.3245 19.8599 30.3371 19.8583 30.3507 19.8583C30.4141 19.8583 30.5045 19.8915 30.6079 19.9387L30.6081 19.939C30.675 20.0453 30.5843 20.1422 30.5654 20.1607ZM35.5898 22.1388C35.6276 22.1629 35.6754 22.1659 35.7166 22.1469C35.7574 22.1279 35.7856 22.089 35.7915 22.0444C35.8135 21.8782 35.8541 21.7762 35.9124 21.7413C36.0177 21.6781 36.2728 21.7748 36.5676 21.8865C36.7923 21.9716 37.0721 22.0774 37.3909 22.1555C38.2228 22.3593 39.2008 22.1843 40.0635 22.0297C40.355 21.9776 40.6358 21.9274 40.8968 21.894C41.4426 21.8245 41.999 22.053 42.1383 22.4038C42.2435 22.6685 42.0819 22.974 41.6833 23.2638C40.5785 24.0671 35.2886 23.7104 34.7493 23.6718C34.6058 23.5352 34.5496 23.2555 34.5329 23.0712C34.6202 23.0991 34.6786 23.1129 34.6862 23.1146C34.6952 23.1165 34.7042 23.1174 34.7133 23.1174C34.7511 23.1174 34.7877 23.101 34.8133 23.0718C34.8447 23.0353 34.8539 22.985 34.8374 22.9398C34.755 22.7149 34.7097 22.2994 34.6909 22.0867C34.7258 22.0962 34.7627 22.0928 34.7938 22.0736C34.8282 22.0525 34.8509 22.0165 34.8557 21.9765C35.0119 20.649 34.7394 19.9568 34.5965 19.6975C34.6312 19.671 34.6636 19.6424 34.6946 19.6125C34.7041 20.24 35.0681 20.7446 35.2169 20.9248C34.9512 21.5265 35.337 21.9786 35.5898 22.1388Z"
            fill="#464655" />
        <path
            d="M22.3351 15.3346C22.2839 14.2701 22.0311 12.5484 21.2233 12.5089C20.7681 12.4879 20.5437 12.7682 20.5345 12.7802C20.5078 12.8148 20.4641 12.8342 20.4217 12.8321L20.113 12.8135L20.1683 13.0181C20.1815 13.0674 20.1648 13.1205 20.1258 13.1536C20.107 13.1694 19.6705 13.5485 19.9361 14.0313C20.1385 14.3992 20.7925 14.5733 21.2699 14.7002C21.4831 14.7571 21.6674 14.8061 21.7869 14.8646C22 14.9688 22.1866 15.1446 22.3351 15.3346Z"
            fill="#FFD250" />
        <path
            d="M21.2362 12.245C20.7716 12.2222 20.4825 12.4538 20.3738 12.5644L19.9456 12.5387C19.9049 12.5355 19.8622 12.5543 19.8352 12.5873C19.8083 12.6202 19.7989 12.664 19.8099 12.7051L19.8921 13.0102C19.6822 13.2245 19.4353 13.6694 19.7044 14.1585C19.9611 14.6255 20.6784 14.8163 21.2019 14.9557C21.4018 15.0088 21.5745 15.0548 21.6709 15.1019C21.9805 15.2533 22.2291 15.5976 22.3585 15.8695C22.3807 15.9163 22.4277 15.9448 22.4779 15.9448C22.4873 15.9448 22.4968 15.9437 22.5064 15.9416C22.5664 15.9284 22.6093 15.8753 22.6099 15.8139C22.6113 15.6711 22.6282 12.3128 21.2362 12.245ZM21.2699 14.7001C20.7924 14.5732 20.1384 14.3991 19.9361 14.0312C19.6705 13.5485 20.107 13.1694 20.1257 13.1535C20.1647 13.1204 20.1814 13.0674 20.1682 13.018L20.1129 12.8134L20.4216 12.832C20.4641 12.8342 20.5079 12.8147 20.5344 12.7801C20.5437 12.768 20.768 12.4877 21.2233 12.5088C22.0312 12.5483 22.2838 14.27 22.3351 15.3345C22.1866 15.1446 21.9999 14.9687 21.7868 14.8645C21.6674 14.8059 21.4831 14.7569 21.2699 14.7001Z"
            fill="#464655" />
        <path
            d="M44.4238 15.3346C44.4751 14.2701 44.7278 12.5484 45.5356 12.5089C45.9909 12.4879 46.2152 12.7682 46.2245 12.7802C46.2512 12.8148 46.2949 12.8342 46.3373 12.8321L46.646 12.8135L46.5907 13.0181C46.5774 13.0674 46.5941 13.1205 46.6332 13.1536C46.652 13.1694 47.0885 13.5485 46.8229 14.0313C46.6205 14.3992 45.9665 14.5733 45.4891 14.7002C45.2759 14.7571 45.0916 14.8061 44.9721 14.8646C44.759 14.9688 44.5723 15.1446 44.4238 15.3346Z"
            fill="#FFD250" />
        <path
            d="M44.1492 15.8141C44.1499 15.8756 44.1927 15.9286 44.2527 15.9419C44.2623 15.9439 44.2717 15.945 44.2812 15.945C44.3313 15.945 44.3783 15.9165 44.4005 15.8697C44.5298 15.5978 44.7785 15.2535 45.088 15.1021C45.1846 15.0549 45.3571 15.009 45.5571 14.9559C46.0807 14.8166 46.7978 14.6258 47.0546 14.1588C47.3236 13.6695 47.0767 13.2246 46.8669 13.0104L46.9491 12.7053C46.9601 12.6641 46.9505 12.6203 46.9238 12.5875C46.8969 12.5546 46.8541 12.5356 46.8134 12.5389L46.3852 12.5646C46.2765 12.4542 45.9874 12.2226 45.5228 12.2452C44.131 12.3129 44.1479 15.6712 44.1492 15.8141ZM44.9722 14.8644C44.759 14.9687 44.5723 15.1446 44.4239 15.3344C44.4752 14.2699 44.7279 12.5482 45.5357 12.5088C45.991 12.4878 46.2153 12.768 46.2246 12.7801C46.2512 12.8146 46.295 12.8341 46.3374 12.8319L46.6461 12.8134L46.5908 13.0179C46.5775 13.0673 46.5942 13.1203 46.6333 13.1534C46.652 13.1692 47.0885 13.5483 46.8229 14.0311C46.6206 14.399 45.9666 14.5731 45.4891 14.7001C45.2761 14.7569 45.0918 14.8059 44.9722 14.8644Z"
            fill="#464655" />
        <path
            d="M44.4238 35.0143C44.4751 36.0788 44.7278 37.8005 45.5356 37.84C45.9909 37.861 46.2152 37.5807 46.2245 37.5686C46.2512 37.534 46.2949 37.5146 46.3373 37.5167L46.646 37.5353L46.5907 37.3307C46.5774 37.2814 46.5941 37.2283 46.6332 37.1952C46.652 37.1794 47.0885 36.8003 46.8229 36.3175C46.6205 35.9496 45.9665 35.7755 45.4891 35.6486C45.2759 35.5917 45.0916 35.5427 44.9721 35.4842C44.759 35.3802 44.5723 35.2043 44.4238 35.0143Z"
            fill="#FFD250" />
        <path
            d="M45.5228 38.104C45.9874 38.1267 46.2764 37.8952 46.3852 37.7845L46.8135 37.8102C46.8541 37.8134 46.8969 37.7946 46.9238 37.7617C46.9507 37.7288 46.9601 37.6849 46.9491 37.6438L46.8669 37.3387C47.0768 37.1245 47.3237 36.6796 47.0546 36.1904C46.7979 35.7234 46.0807 35.5327 45.5571 35.3932C45.3572 35.3401 45.1846 35.2941 45.0881 35.247C44.7785 35.0957 44.5299 34.7513 44.4005 34.4795C44.3783 34.4327 44.3313 34.4042 44.2812 34.4042C44.2718 34.4042 44.2623 34.4053 44.2527 34.4073C44.1927 34.4206 44.1498 34.4736 44.1492 34.535C44.1477 34.6778 44.1309 38.0361 45.5228 38.104ZM45.4891 35.6488C45.9666 35.7758 46.6206 35.9499 46.8229 36.3177C47.0886 36.8005 46.652 37.1796 46.6333 37.1955C46.5943 37.2286 46.5776 37.2815 46.5908 37.3309L46.6461 37.5355L46.3374 37.517C46.2949 37.5147 46.2512 37.5342 46.2246 37.5688C46.2153 37.5809 45.991 37.8612 45.5357 37.8401C44.7278 37.8007 44.4752 36.079 44.4239 35.0144C44.5725 35.2044 44.7591 35.3802 44.9723 35.4844C45.0916 35.543 45.276 35.5921 45.4891 35.6488Z"
            fill="#464655" />
        <path
            d="M22.3351 35.0143C22.2839 36.0788 22.0311 37.8005 21.2233 37.84C20.7681 37.861 20.5437 37.5807 20.5345 37.5686C20.5078 37.534 20.4641 37.5146 20.4217 37.5167L20.113 37.5353L20.1683 37.3307C20.1815 37.2814 20.1648 37.2283 20.1258 37.1952C20.107 37.1794 19.6705 36.8003 19.9361 36.3175C20.1385 35.9496 20.7925 35.7755 21.2699 35.6486C21.4831 35.5917 21.6674 35.5427 21.7869 35.4842C22 35.3802 22.1866 35.2043 22.3351 35.0143Z"
            fill="#FFD250" />
        <path
            d="M22.6098 34.5348C22.6092 34.4734 22.5663 34.4203 22.5063 34.4071C22.4968 34.405 22.4873 34.4039 22.4778 34.4039C22.4277 34.4039 22.3807 34.4324 22.3585 34.4792C22.2291 34.7511 21.9805 35.0954 21.6709 35.2468C21.5743 35.294 21.4018 35.3399 21.2018 35.393C20.6782 35.5323 19.9611 35.7232 19.7044 36.1902C19.4353 36.6794 19.6822 37.1243 19.8921 37.3385L19.8098 37.6436C19.7988 37.6848 19.8084 37.7286 19.8351 37.7615C19.862 37.7944 19.9049 37.8133 19.9455 37.81L20.3737 37.7843C20.4824 37.8948 20.7716 38.1263 21.2361 38.1037C22.6281 38.0361 22.6112 34.6778 22.6098 34.5348ZM21.7868 35.4846C22 35.3803 22.1867 35.2044 22.3351 35.0146C22.2839 36.0791 22.0311 37.8008 21.2233 37.8403C20.7681 37.8613 20.5437 37.581 20.5345 37.569C20.5078 37.5344 20.464 37.515 20.4217 37.5171L20.113 37.5357L20.1682 37.3311C20.1815 37.2818 20.1648 37.2287 20.1258 37.1956C20.107 37.1798 19.6705 36.8007 19.9361 36.3179C20.1385 35.95 20.7925 35.7759 21.2699 35.649C21.483 35.592 21.6674 35.543 21.7868 35.4846Z"
            fill="#464655" />
    </g>
    <defs>
        <clipPath id="clip0_9_1550">
            <rect width="50" height="50" fill="white" transform="translate(0.621094 0.174561)" />
        </clipPath>
    </defs>
</svg>
