<svg width="51" height="51" viewBox="0 0 51 51" fill="none" xmlns="http://www.w3.org/2000/svg">
    <g clip-path="url(#clip0_9_1516)">
        <path
            d="M50.0528 41.5538H1.77715C1.30107 41.5538 0.915039 41.1678 0.915039 40.6917V9.65727C0.915039 9.1812 1.30107 8.79517 1.77715 8.79517H50.0529C50.529 8.79517 50.915 9.1812 50.915 9.65727V40.6917C50.9149 41.1679 50.5289 41.5538 50.0528 41.5538Z"
            fill="#F5F5F5" />
        <path
            d="M21.3131 31.6342C19.3228 31.1799 17.5485 30.1523 16.1758 28.7324V31.7692C17.6737 32.8618 19.4215 33.6274 21.3131 33.9775V31.6342Z"
            fill="#FFECD7" />
        <path
            d="M30.5144 31.6342C32.5046 31.1799 34.279 30.1523 35.6517 28.7324V31.7692C34.1538 32.8618 32.406 33.6274 30.5144 33.9775V31.6342Z"
            fill="#FFECD7" />
        <path
            d="M20.4309 25.0519C20.3351 25.071 20.2008 25.3202 20.1625 25.7419C20.1241 26.1637 19.8559 27.9463 19.2807 27.7546C18.7056 27.5629 18.3223 26.7195 18.3223 26.7195L17.5172 27.8888C17.5172 27.8888 18.0539 27.6779 18.6099 27.9272C19.1658 28.1764 19.2999 28.3106 19.4533 28.1572C19.6067 28.0039 19.9709 27.5439 20.2584 27.5821L20.5843 25.2626L20.4309 25.0519Z"
            fill="#FFE15A" />
        <path
            d="M17.2491 28.8666C17.2491 28.8666 17.1149 29.9784 17.1916 30.1126C17.2683 30.2468 19.3768 30.7451 19.3768 30.7451C19.3768 30.7451 18.7634 31.2434 18.7443 31.5119C18.7443 31.5119 17.9967 31.6461 17.7284 31.8761L16.7316 30.2276L16.6932 28.8666H17.2491Z"
            fill="#FFE15A" />
        <path
            d="M16.5817 18.755L16.5961 18.1799C16.5961 18.1799 15.9203 18.108 15.8341 19.6319L15.5897 18.9562C15.5897 18.9562 15.0865 19.6319 15.3884 20.7245L15.2591 20.8252C15.2591 20.8252 14.5977 19.9482 14.1952 18.8125C14.1952 18.8125 13.5194 19.3444 14.3101 20.854L13.3326 19.6176C13.3326 19.6176 12.8438 20.6527 14.3101 21.8892L12.93 20.9116C12.93 20.9116 12.8437 22.0331 14.1807 22.7519L12.8436 22.033C12.8436 22.033 12.8867 23.1112 14.4394 23.6433L12.9729 23.3701C12.9729 23.3701 13.3442 24.2517 14.4286 24.4895C14.2009 24.7437 13.9905 25.0853 13.9361 25.5266L15.0288 24.9227C15.0288 24.9227 14.5112 25.4547 14.655 26.188L16.3371 24.5059L16.1072 24.403C17.3798 24.1643 17.1134 24.0745 17.1134 24.0745C17.1134 24.0745 16.1741 21.6592 16.8068 19.9915C17.4393 18.3238 17.9953 18.0938 17.9953 18.0171C17.9954 17.9402 17.3149 17.8492 16.5817 18.755Z"
            fill="#FFECD7" />
        <path
            d="M17.8807 19.7229C17.8807 19.7229 20.0659 22.0232 20.1043 22.2341C20.1427 22.445 19.8742 22.4067 19.8742 22.4067C19.8742 22.4067 19.3375 21.7166 18.609 21.4483C17.8806 21.1799 17.4014 20.3365 17.1139 20.1449C16.8264 19.953 17.8807 19.7229 17.8807 19.7229Z"
            fill="#FFE15A" />
        <path
            d="M17.1522 20.2788C17.4397 20.3746 18.0916 20.2405 18.0724 19.6463C18.0532 19.052 17.459 18.8221 17.0181 18.9563C16.5772 19.0905 15.7528 19.7039 16.2704 20.8924C16.788 22.0809 17.5548 22.5218 17.7081 23.5378C17.7081 23.5378 17.0181 23.6432 16.6538 23.557C16.3407 23.4828 15.8103 23.2311 15.9254 22.541C16.0403 21.851 16.3088 21.4484 16.0787 21.065C15.8486 20.6816 15.1203 20.0107 15.1203 20.0107C15.1203 20.0107 13.5484 24.0362 16.3855 25.0905C16.3855 25.0905 15.0437 26.3749 14.3729 27.6208L14.7754 27.7358C14.7754 27.7358 14.0661 28.5025 13.6636 28.79C13.6636 28.79 14.9862 29.2501 16.2897 27.7549C16.2897 27.7549 16.6156 28.2916 16.6923 28.8667H17.2482C17.2482 28.8667 17.4399 27.9466 18.3218 27.1799C19.2036 26.4131 20.0985 25.3197 20.0086 24.3236C19.9032 23.1543 19.0225 22.6282 18.106 21.9035C16.8694 20.9258 17.1522 20.2788 17.1522 20.2788Z"
            fill="#FFF5E1" />
        <path
            d="M31.3995 25.0519C31.4953 25.071 31.6296 25.3202 31.6678 25.7419C31.7062 26.1637 31.9745 27.9463 32.5497 27.7546C33.1248 27.5629 33.5082 26.7195 33.5082 26.7195L34.3132 27.8888C34.3132 27.8888 33.7765 27.6779 33.2206 27.9272C32.6646 28.1764 32.5305 28.3106 32.3771 28.1572C32.2238 28.0039 31.8595 27.5439 31.572 27.5821L31.2462 25.2626L31.3995 25.0519Z"
            fill="#FFE15A" />
        <path
            d="M34.5818 28.8665C34.5818 28.8665 34.7159 29.9783 34.6393 30.1125C34.5625 30.2466 32.454 30.745 32.454 30.745C32.454 30.745 33.0674 31.2433 33.0866 31.5118C33.0866 31.5118 33.8342 31.6459 34.1025 31.876L35.0992 30.2275L35.1376 28.8665H34.5817H34.5818Z"
            fill="#FFE15A" />
        <path
            d="M35.248 18.755L35.2336 18.1799C35.2336 18.1799 35.9094 18.108 35.9955 19.6319L36.24 18.9562C36.24 18.9562 36.7432 19.6319 36.4412 20.7245L36.5706 20.8252C36.5706 20.8252 37.232 19.9482 37.6345 18.8125C37.6345 18.8125 38.3103 19.3444 37.5196 20.854L38.4971 19.6176C38.4971 19.6176 38.9859 20.6527 37.5196 21.8892L38.8997 20.9116C38.8997 20.9116 38.9861 22.0331 37.649 22.7519L38.9861 22.033C38.9861 22.033 38.943 23.1112 37.3903 23.6433L38.8568 23.3701C38.8568 23.3701 38.4855 24.2517 37.4011 24.4895C37.6288 24.7437 37.8392 25.0853 37.8936 25.5266L36.8009 24.9227C36.8009 24.9227 37.3185 25.4547 37.1747 26.188L35.4926 24.5059L35.7225 24.403C34.4498 24.1643 34.7162 24.0745 34.7162 24.0745C34.7162 24.0745 35.6556 21.6592 35.0229 19.9915C34.3903 18.3238 33.8344 18.0938 33.8344 18.0171C33.8343 17.9402 34.5148 17.8492 35.248 18.755Z"
            fill="#FFECD7" />
        <path
            d="M33.9489 19.7229C33.9489 19.7229 31.7637 22.0232 31.7253 22.2341C31.6869 22.445 31.9554 22.4067 31.9554 22.4067C31.9554 22.4067 32.4921 21.7166 33.2206 21.4483C33.949 21.1799 34.4282 20.3365 34.7157 20.1449C35.0032 19.9533 33.9489 19.7229 33.9489 19.7229Z"
            fill="#FFE15A" />
        <path
            d="M34.6776 20.2788C34.3901 20.3746 33.7383 20.2405 33.7575 19.6463C33.7766 19.052 34.3709 18.8221 34.8118 18.9563C35.2526 19.0905 36.077 19.7039 35.5594 20.8924C35.0419 22.0809 34.2751 22.5218 34.1217 23.5378C34.1217 23.5378 34.8118 23.6432 35.176 23.557C35.4891 23.4828 36.0195 23.2311 35.9045 22.541C35.7895 21.851 35.5211 21.4484 35.7511 21.065C35.9812 20.6816 36.7095 20.0107 36.7095 20.0107C36.7095 20.0107 38.2814 24.0362 35.4443 25.0905C35.4443 25.0905 36.7861 26.3749 37.457 27.6208L37.0545 27.7358C37.0545 27.7358 37.7637 28.5025 38.1663 28.79C38.1663 28.79 36.8436 29.2501 35.5401 27.7549C35.5401 27.7549 35.2142 28.2916 35.1376 28.8667H34.5816C34.5816 28.8667 34.3899 27.9466 33.5081 27.1799C32.6262 26.4131 31.7313 25.3197 31.8213 24.3236C31.9266 23.1543 32.8073 22.6282 33.7238 21.9035C34.9604 20.9258 34.6776 20.2788 34.6776 20.2788Z"
            fill="#FFF5E1" />
        <path d="M31.4335 16.3884H20.3925V18.6121H31.4335V16.3884Z" fill="#464655" />
        <path
            d="M25.9128 18.151H20.3921C20.3921 18.151 20.3921 24.1318 20.3921 25.512C20.3921 26.8922 21.3122 30.5727 25.9128 31.9528C30.5134 30.5727 31.4335 26.8922 31.4335 25.512C31.4335 24.1318 31.4335 18.151 31.4335 18.151H25.9128Z"
            fill="#41479B" />
        <path
            d="M20.3921 25.5121C20.3921 25.854 20.4492 26.3378 20.6042 26.8922H31.2215C31.3764 26.3378 31.4336 25.854 31.4336 25.5121V22.7517H20.3921V25.5121Z"
            fill="#FF4B55" />
        <path d="M25.913 24.8219L25.2689 26.432L25.913 26.11L26.557 26.432L25.913 24.8219Z"
            fill="#F5F5F5" />
        <path d="M25.913 24.8219L26.557 23.2117L25.913 23.5336L25.2689 23.2117L25.913 24.8219Z"
            fill="#F5F5F5" />
        <path d="M25.913 24.822L24.3028 24.1777L24.6249 24.822L24.3028 25.466L25.913 24.822Z"
            fill="#F5F5F5" />
        <path d="M25.913 24.822L27.5231 25.466L27.2011 24.822L27.5231 24.1777L25.913 24.822Z"
            fill="#F5F5F5" />
        <path
            d="M26.6373 19.7777C26.5299 19.795 26.4355 19.8086 26.3501 19.8535C26.447 19.6114 26.5153 19.3841 26.4552 19.225C26.3082 18.8359 26.0256 18.9055 25.9167 18.6218V18.6111C25.9159 18.6132 25.9148 18.6144 25.914 18.6165C25.9132 18.6143 25.912 18.6131 25.9112 18.6111V18.6218C25.8025 18.9055 25.5197 18.836 25.3728 19.225C25.3126 19.3842 25.381 19.6113 25.4778 19.8535C25.3926 19.8086 25.2981 19.7949 25.1905 19.7777C24.9712 19.7425 24.638 19.9707 24.7081 20.4092C24.7782 20.8478 25.287 20.883 25.287 20.883C25.2169 20.8128 25.1555 20.6988 25.1905 20.5759C25.2256 20.4531 25.48 20.3479 25.6115 20.7601C25.7431 21.1724 25.2958 21.7601 25.2958 21.7601C25.4489 21.752 25.5608 21.7042 25.6415 21.6559C25.5354 22.0021 25.8827 22.2701 25.9111 22.2911V22.2952L25.9139 22.2931C25.9142 22.2933 25.9166 22.2952 25.9166 22.2952V22.2911C25.945 22.2701 26.2924 22.0022 26.1862 21.656C26.2669 21.7043 26.3788 21.752 26.5319 21.7601C26.5319 21.7601 26.0847 21.1724 26.2162 20.7601C26.3478 20.3478 26.6023 20.4531 26.6372 20.5759C26.6724 20.6988 26.611 20.8127 26.5407 20.883C26.5407 20.883 27.0494 20.8478 27.1196 20.4092C27.19 19.9706 26.8567 19.7425 26.6373 19.7777Z"
            fill="#FFE15A" />
        <path
            d="M30.0231 19.7777C29.9156 19.795 29.8212 19.8086 29.7359 19.8535C29.8327 19.6114 29.9011 19.3841 29.8409 19.225C29.694 18.8359 29.4113 18.9055 29.3025 18.6218V18.6111C29.3017 18.6132 29.3005 18.6144 29.2997 18.6165C29.2989 18.6143 29.2978 18.6131 29.297 18.6111V18.6218C29.1882 18.9055 28.9055 18.836 28.7585 19.225C28.6984 19.3842 28.7667 19.6113 28.8636 19.8535C28.7783 19.8086 28.6838 19.7949 28.5763 19.7777C28.357 19.7425 28.0237 19.9707 28.0939 20.4092C28.164 20.8478 28.6728 20.883 28.6728 20.883C28.6027 20.8128 28.5412 20.6988 28.5763 20.5759C28.6114 20.4531 28.8657 20.3479 28.9973 20.7601C29.1288 21.1723 28.6816 21.7601 28.6816 21.7601C28.8347 21.752 28.9465 21.7042 29.0273 21.6559C28.9211 22.0021 29.2685 22.2701 29.2969 22.2911V22.2952L29.2996 22.2931C29.2999 22.2933 29.3024 22.2952 29.3024 22.2952V22.2911C29.3308 22.2701 29.6781 22.0022 29.572 21.656C29.6526 21.7043 29.7646 21.752 29.9177 21.7601C29.9177 21.7601 29.4704 21.1724 29.602 20.7601C29.7335 20.3478 29.988 20.4531 30.023 20.5759C30.0581 20.6988 29.9967 20.8127 29.9265 20.883C29.9265 20.883 30.4352 20.8478 30.5054 20.4092C30.5756 19.9706 30.2424 19.7425 30.0231 19.7777Z"
            fill="#FFE15A" />
        <path
            d="M23.2523 19.7777C23.1449 19.795 23.0505 19.8086 22.9651 19.8535C23.062 19.6114 23.1303 19.3841 23.0702 19.225C22.9232 18.8359 22.6406 18.9055 22.5317 18.6218V18.6111C22.5309 18.6132 22.5298 18.6144 22.529 18.6165C22.5282 18.6143 22.527 18.6131 22.5262 18.6111V18.6218C22.4174 18.9055 22.1347 18.836 21.9878 19.225C21.9276 19.3842 21.996 19.6113 22.0928 19.8535C22.0076 19.8086 21.9131 19.7949 21.8055 19.7777C21.5862 19.7425 21.253 19.9707 21.3231 20.4092C21.3932 20.8478 21.902 20.883 21.902 20.883C21.8319 20.8128 21.7705 20.6988 21.8055 20.5759C21.8407 20.4531 22.095 20.3479 22.2265 20.7601C22.3581 21.1723 21.9108 21.7601 21.9108 21.7601C22.0639 21.752 22.1757 21.7042 22.2565 21.6559C22.1504 22.0021 22.4977 22.2701 22.5261 22.2911V22.2952L22.5289 22.2931C22.5292 22.2933 22.5316 22.2952 22.5316 22.2952V22.2911C22.56 22.2701 22.9074 22.0022 22.8012 21.656C22.8819 21.7043 22.9938 21.752 23.1469 21.7601C23.1469 21.7601 22.6997 21.1724 22.8312 20.7601C22.9628 20.3478 23.2173 20.4531 23.2522 20.5759C23.2874 20.6988 23.2259 20.8127 23.1557 20.883C23.1557 20.883 23.6644 20.8478 23.7346 20.4092C23.8049 19.9706 23.4716 19.7425 23.2523 19.7777Z"
            fill="#FFE15A" />
        <path
            d="M26.9938 29.2568C26.9938 29.2568 26.7478 29.2182 26.7282 29.466C26.7282 29.466 26.7282 29.4944 26.727 29.5337C26.6966 29.5194 26.6635 29.5099 26.6277 29.5099C26.4977 29.5099 26.3923 29.6153 26.3923 29.7453C26.3923 29.8753 26.4977 29.9807 26.6277 29.9807C26.638 29.9807 26.6468 29.9761 26.6568 29.9747C26.6217 30.0869 26.5661 30.1891 26.4878 30.2629H26.1736C26.091 30.1714 26.0659 29.9923 26.0604 29.8626C26.0655 29.8629 26.0694 29.8665 26.0746 29.8665C26.1812 29.8665 26.2676 29.78 26.2676 29.6735C26.2676 29.5681 26.1831 29.4831 26.0782 29.4811C26.0949 29.4526 26.1071 29.421 26.1071 29.3856C26.1071 29.2789 26.0207 29.1925 25.914 29.1925C25.8074 29.1925 25.7209 29.279 25.7209 29.3856C25.7209 29.421 25.7332 29.4525 25.7499 29.4811C25.645 29.4832 25.5604 29.5682 25.5604 29.6735C25.5604 29.7801 25.6469 29.8665 25.7535 29.8665C25.7586 29.8665 25.7625 29.8631 25.7676 29.8626C25.7624 29.9924 25.7372 30.1714 25.6544 30.2629H25.3402C25.262 30.1891 25.2062 30.0868 25.1712 29.9747C25.1813 29.976 25.19 29.9807 25.2003 29.9807C25.3303 29.9807 25.4357 29.8753 25.4357 29.7453C25.4357 29.6154 25.3303 29.5099 25.2003 29.5099C25.1645 29.5099 25.1314 29.5193 25.101 29.5337C25.0999 29.4944 25.0999 29.466 25.0999 29.466C25.0802 29.2182 24.8342 29.2568 24.8342 29.2568C24.9872 29.7236 24.9469 30.263 24.9469 30.263V30.7376H26.8784V30.2641L26.8812 30.263C26.8812 30.263 26.8409 29.7235 26.9938 29.2568Z"
            fill="#FFE15A" />
        <path
            d="M24.737 27.4164C24.737 27.4164 24.491 27.3779 24.4713 27.6257C24.4713 27.6257 24.4713 27.654 24.4702 27.6934C24.4398 27.679 24.4067 27.6696 24.3708 27.6696C24.2409 27.6696 24.1355 27.7749 24.1355 27.9049C24.1355 28.0349 24.2409 28.1404 24.3708 28.1404C24.3812 28.1404 24.39 28.1358 24.3999 28.1344C24.3649 28.2466 24.3092 28.3488 24.231 28.4226H23.9167C23.8341 28.3311 23.809 28.152 23.8036 28.0223C23.8086 28.0227 23.8125 28.0262 23.8177 28.0262C23.9244 28.0262 24.0108 27.9397 24.0108 27.8331C24.0108 27.7278 23.9262 27.6428 23.8213 27.6407C23.838 27.6122 23.8502 27.5807 23.8502 27.5452C23.8502 27.4386 23.7638 27.3522 23.6572 27.3522C23.5505 27.3522 23.4641 27.4387 23.4641 27.5452C23.4641 27.5807 23.4763 27.6121 23.493 27.6407C23.3881 27.6429 23.3036 27.7279 23.3036 27.8331C23.3036 27.9398 23.3901 28.0262 23.4966 28.0262C23.5018 28.0262 23.5057 28.0228 23.5108 28.0223C23.5055 28.1521 23.4803 28.3311 23.3976 28.4226H23.0833C23.0051 28.3488 22.9494 28.2465 22.9144 28.1344C22.9245 28.1357 22.9332 28.1404 22.9435 28.1404C23.0735 28.1404 23.1789 28.035 23.1789 27.9049C23.1789 27.7749 23.0735 27.6696 22.9435 27.6696C22.9077 27.6696 22.8746 27.6789 22.8442 27.6934C22.843 27.654 22.843 27.6257 22.843 27.6257C22.8234 27.3779 22.5774 27.4164 22.5774 27.4164C22.7303 27.8832 22.6901 28.4227 22.6901 28.4227V28.8973H24.6215V28.4238L24.6244 28.4227C24.6243 28.4227 24.5841 27.8832 24.737 27.4164Z"
            fill="#FFE15A" />
        <path
            d="M29.2512 27.4164C29.2512 27.4164 29.0052 27.3779 28.9856 27.6257C28.9856 27.6257 28.9856 27.654 28.9844 27.6934C28.954 27.679 28.9209 27.6696 28.8851 27.6696C28.7551 27.6696 28.6496 27.7749 28.6496 27.9049C28.6496 28.0349 28.755 28.1404 28.8851 28.1404C28.8954 28.1404 28.9042 28.1358 28.9142 28.1344C28.8791 28.2466 28.8234 28.3488 28.7452 28.4226H28.431C28.3484 28.3311 28.3233 28.152 28.3178 28.0223C28.3229 28.0227 28.3268 28.0262 28.3319 28.0262C28.4386 28.0262 28.525 27.9397 28.525 27.8331C28.525 27.7278 28.4404 27.6428 28.3356 27.6407C28.3523 27.6122 28.3645 27.5807 28.3645 27.5452C28.3645 27.4386 28.278 27.3522 28.1714 27.3522C28.0648 27.3522 27.9783 27.4387 27.9783 27.5452C27.9783 27.5807 27.9905 27.6121 28.0072 27.6407C27.9024 27.6429 27.8178 27.7279 27.8178 27.8331C27.8178 27.9398 27.9043 28.0262 28.0109 28.0262C28.016 28.0262 28.0199 28.0228 28.025 28.0223C28.0197 28.1521 27.9945 28.3311 27.9118 28.4226H27.5976C27.5193 28.3488 27.4636 28.2465 27.4286 28.1344C27.4387 28.1357 27.4474 28.1404 27.4577 28.1404C27.5877 28.1404 27.6931 28.035 27.6931 27.9049C27.6931 27.7749 27.5877 27.6696 27.4577 27.6696C27.4219 27.6696 27.3888 27.6789 27.3584 27.6934C27.3572 27.654 27.3572 27.6257 27.3572 27.6257C27.3376 27.3779 27.0916 27.4164 27.0916 27.4164C27.2445 27.8832 27.2043 28.4227 27.2043 28.4227V28.8973H29.1358V28.4238L29.1386 28.4227C29.1385 28.4227 29.0983 27.8832 29.2512 27.4164Z"
            fill="#FFE15A" />
        <path
            d="M33.0591 15.3299C32.7943 15.2247 32.5277 15.1257 32.2597 15.0327C32.1847 15.2501 32.1098 15.4674 32.0348 15.6849C31.9055 15.6402 31.7759 15.5965 31.646 15.5546C31.7162 15.3356 31.7864 15.1167 31.8566 14.8976C31.5871 14.8107 31.3161 14.7297 31.0439 14.655C30.9833 14.8769 30.9227 15.0987 30.8621 15.3205C30.7308 15.2844 30.5993 15.2498 30.4674 15.2166C30.5232 14.9935 30.5789 14.7704 30.6347 14.5472C30.3614 14.4784 30.0868 14.4157 29.8114 14.3591C29.7194 14.8098 29.6272 15.2605 29.5351 15.7112C29.7057 15.7463 29.876 15.7838 30.0458 15.8239C30.0107 15.9731 29.9758 16.1224 29.9407 16.2717C28.9479 16.0373 27.9396 15.8907 26.9275 15.8322C26.9363 15.6791 26.9452 15.5261 26.9539 15.3729C27.1269 15.3829 27.3 15.3955 27.4727 15.4105C27.5124 14.9522 27.552 14.4939 27.5916 14.0355C27.3126 14.0113 27.0332 13.993 26.7535 13.9809C26.7435 14.2108 26.7337 14.4405 26.7237 14.6703C26.5889 14.6645 26.454 14.6601 26.3191 14.6572C26.3241 14.4272 26.3291 14.1971 26.334 13.9673C26.0542 13.9613 25.7744 13.9613 25.4946 13.9673C25.4996 14.1973 25.5046 14.4273 25.5095 14.6572C25.3745 14.6601 25.2396 14.6645 25.1049 14.6703C25.0949 14.4405 25.085 14.2108 25.0751 13.9809C24.7955 13.993 24.5161 14.0112 24.237 14.0355C24.2766 14.4938 24.3163 14.9522 24.3558 15.4105C24.5287 15.3955 24.7016 15.3829 24.8747 15.3729C24.8835 15.526 24.8924 15.6791 24.9011 15.8322C23.8889 15.8908 22.8807 16.0373 21.8879 16.2717C21.8528 16.1225 21.8179 15.9732 21.7828 15.8239C21.9526 15.7836 22.1227 15.7461 22.2934 15.7112C22.2014 15.2605 22.1093 14.8098 22.0172 14.3591C21.7418 14.4156 21.4672 14.4784 21.1938 14.5472C21.2497 14.7703 21.3054 14.9935 21.3612 15.2166C21.2293 15.2498 21.0977 15.2844 20.9665 15.3205C20.906 15.0987 20.8453 14.8768 20.7847 14.655C20.5125 14.7299 20.2415 14.8107 19.972 14.8976C20.0422 15.1166 20.1124 15.3355 20.1826 15.5546C20.0526 15.5965 19.923 15.6401 19.7937 15.6849C19.7187 15.4675 19.6438 15.2502 19.5688 15.0327C19.3008 15.1258 19.0343 15.2248 18.7695 15.3299C18.9384 15.7576 19.1072 16.1854 19.2761 16.6132C19.44 16.5482 19.6049 16.4854 19.7702 16.4254C19.9786 17.0022 20.1869 17.5787 20.3953 18.1555C20.841 17.9934 21.2921 17.8517 21.7471 17.7303C21.8988 17.6899 22.0509 17.6514 22.2033 17.6155C23.1184 17.3996 24.0477 17.2645 24.9806 17.2105C25.6024 17.1744 26.226 17.1746 26.8478 17.2105C27.7807 17.2644 28.71 17.3994 29.6251 17.6155C29.7775 17.6517 29.9297 17.6898 30.0813 17.7303C30.5364 17.8519 30.9874 17.9936 31.4331 18.1555C31.6415 17.5786 31.8498 17.0022 32.0582 16.4254C32.2236 16.4856 32.3883 16.5482 32.5523 16.6132C32.7213 16.1855 32.8902 15.7576 33.0591 15.3299Z"
            fill="#FFE15A" />
        <path
            d="M25.9126 37.2435C28.6571 37.2435 31.1981 36.3623 33.2736 34.8719V31.8607C31.3957 33.7621 28.79 34.9431 25.9126 34.9431C22.9955 34.9431 20.3583 33.7283 18.475 31.7803V34.8171C20.5642 36.3412 23.1344 37.2435 25.9126 37.2435Z"
            fill="#FFE1CD" />
    </g>
    <defs>
        <clipPath id="clip0_9_1516">
            <rect width="50" height="50" fill="white" transform="translate(0.914062 0.174561)" />
        </clipPath>
    </defs>
</svg>
