<svg width="51" height="51" viewBox="0 0 51 51" fill="none" xmlns="http://www.w3.org/2000/svg">
    <g clip-path="url(#clip0_9_1511)">
        <path
            d="M49.4816 41.5537H1.20592C0.729845 41.5537 0.343811 41.1677 0.343811 40.6916V9.65727C0.343811 9.1812 0.729845 8.79517 1.20592 8.79517H49.4817C49.9578 8.79517 50.3438 9.1812 50.3438 9.65727V40.6916C50.3437 41.1678 49.9577 41.5537 49.4816 41.5537Z"
            fill="#3CC8FF" />
        <path d="M25.3436 11.3815L13.2748 38.9676H37.4125L25.3436 11.3815Z" fill="#464655" />
        <path
            d="M25.3436 15.683L34.7763 37.2434H15.9109L25.3436 15.683ZM25.3436 11.3815L13.2748 38.9676H37.4126L25.3436 11.3815Z"
            fill="#F5F5F5" />
        <path d="M13.2748 38.9675L25.3436 25.1744L37.4125 38.9675H13.2748Z" fill="#FFE15A" />
    </g>
    <defs>
        <clipPath id="clip0_9_1511">
            <rect width="50" height="50" fill="white" transform="translate(0.34375 0.174561)" />
        </clipPath>
    </defs>
</svg>
