<svg width="51" height="51" viewBox="0 0 51 51" fill="none" xmlns="http://www.w3.org/2000/svg">
<g clip-path="url(#clip0_9_1498)">
<path d="M50.0666 19.7148H0.0666504V9.65727C0.0666504 9.1812 0.452685 8.79517 0.928758 8.79517H49.2045C49.6806 8.79517 50.0667 9.1812 50.0667 9.65727L50.0666 19.7148Z" fill="#FF4B55"/>
<path d="M49.2044 41.5538H0.928758C0.452685 41.5538 0.0666504 41.1678 0.0666504 40.6917V30.6343H50.0666V40.6917C50.0666 41.1678 49.6805 41.5538 49.2044 41.5538Z" fill="#464655"/>
<path d="M50.0666 19.7146H0.0666504V30.6335H50.0666V19.7146Z" fill="#F5F5F5"/>
<path d="M0.384619 41.3454L20.1933 25.6213C20.481 25.393 20.481 24.9561 20.1933 24.7277L0.384619 9.00366C0.194677 9.16177 0.0666504 9.39087 0.0666504 9.65727V40.6917C0.0666504 40.9582 0.194677 41.1873 0.384619 41.3454Z" fill="#73AF00"/>
</g>
<defs>
<clipPath id="clip0_9_1498">
<rect width="50" height="50" fill="white" transform="translate(0.0664062 0.174561)"/>
</clipPath>
</defs>
</svg>
