<svg width="51" height="51" viewBox="0 0 51 51" fill="none" xmlns="http://www.w3.org/2000/svg">
    <g clip-path="url(#clip0_9_1436)">
        <path
            d="M0.790039 35.5192H50.7899V40.6916C50.7899 41.1677 50.4039 41.5537 49.9278 41.5537H1.65215C1.17607 41.5537 0.790039 41.1677 0.790039 40.6916V35.5192Z"
            fill="#4173CD" />
        <path
            d="M1.65166 8.79517H49.9274C50.4035 8.79517 50.7896 9.1812 50.7896 9.65727V14.8297H0.789551V9.65718C0.789551 9.1811 1.17559 8.79517 1.65166 8.79517Z"
            fill="#4173CD" />
        <path d="M50.7895 14.8297H0.789551V35.5191H50.7895V14.8297Z" fill="#FF4B55" />
        <path d="M50.7895 13.9674H0.789551V15.6915H50.7895V13.9674Z" fill="#FFE15A" />
        <path d="M50.7899 34.6569H0.790039V36.381H50.7899V34.6569Z" fill="#FFE15A" />
        <path
            d="M44.6277 26.0064H6.9165C6.66055 26.0064 6.45312 25.799 6.45312 25.5431V25.3965C6.45312 25.1405 6.66055 24.9331 6.9165 24.9331H44.6277C44.8836 24.9331 45.091 25.1405 45.091 25.3965V25.5431C45.091 25.7989 44.8836 26.0064 44.6277 26.0064Z"
            fill="#FFE15A" />
        <path d="M37.3094 23.8598L39.1877 23.0548L41.0659 23.8598L39.1877 24.6648L37.3094 23.8598Z"
            fill="#F5F5F5" />
        <path
            d="M37.7713 23.517H10.209C10.0196 23.517 9.86609 23.6704 9.86609 23.8598C9.86609 24.0492 10.0195 24.2027 10.209 24.2027H37.7712C37.9606 24.2027 38.1141 24.0492 38.1141 23.8598C38.1141 23.6705 37.9606 23.517 37.7713 23.517Z"
            fill="#FFE15A" />
        <path d="M39.262 21.9816L41.1402 21.1766L43.0184 21.9816L41.1402 22.7866L39.262 21.9816Z"
            fill="#F5F5F5" />
        <path
            d="M39.7237 21.6388H12.1615C11.9721 21.6388 11.8186 21.7922 11.8186 21.9817C11.8186 22.171 11.972 22.3245 12.1615 22.3245H39.7237C39.9131 22.3245 40.0666 22.171 40.0666 21.9817C40.0666 21.7923 39.9132 21.6388 39.7237 21.6388Z"
            fill="#FFE15A" />
        <path
            d="M25.7714 18.4934C21.005 18.4934 16.8466 21.1925 14.6194 25.2014C16.8465 29.2102 21.005 31.9094 25.7714 31.9094C30.5378 31.9094 34.6962 29.2103 36.9234 25.2014C34.6963 21.1925 30.5377 18.4934 25.7714 18.4934Z"
            fill="#F5F5F5" />
        <path
            d="M14.6194 25.2015C16.8465 29.2103 21.005 31.9095 25.7714 31.9095C26.5673 31.9095 27.3443 31.8278 28.1001 31.6837C27.5231 30.417 25.4936 30.4191 25.369 29.9418C25.2348 29.4275 27.0236 29.5394 27.3366 29.1145C27.6497 28.6896 25.6373 28.5107 25.5479 28.0859C25.4584 27.661 26.3529 27.3704 26.5094 26.6996C26.6659 26.0288 27.0237 25.8276 27.2919 25.4252C27.5603 25.0228 26.8448 24.8886 26.6659 23.547C26.4869 22.2054 25.436 22.0265 24.9218 20.931C24.4075 19.8354 25.2349 19.0304 25.7715 18.4938C21.005 18.4935 16.8465 21.1926 14.6194 25.2015Z"
            fill="#464655" />
        <path d="M19.3302 22.7869H18.7936V24.9334H19.3302V22.7869Z" fill="#F5F5F5" />
        <path d="M20.4043 22.7869H19.8677V24.9334H20.4043V22.7869Z" fill="#F5F5F5" />
        <path d="M21.4777 22.7869H20.941V24.9334H21.4777V22.7869Z" fill="#F5F5F5" />
        <path d="M22.5509 22.7869H22.0143V24.9334H22.5509V22.7869Z" fill="#F5F5F5" />
        <path d="M23.624 22.7869H23.0874V24.9334H23.624V22.7869Z" fill="#F5F5F5" />
        <path d="M24.6973 22.7869H24.1606V24.9334H24.6973V22.7869Z" fill="#F5F5F5" />
        <path d="M19.3302 26.0066H18.7936V28.1532H19.3302V26.0066Z" fill="#F5F5F5" />
        <path d="M20.4043 26.0066H19.8677V28.1532H20.4043V26.0066Z" fill="#F5F5F5" />
        <path d="M21.4777 26.0066H20.941V28.1532H21.4777V26.0066Z" fill="#F5F5F5" />
        <path d="M22.5509 26.0066H22.0143V28.1532H22.5509V26.0066Z" fill="#F5F5F5" />
        <path d="M23.624 26.0066H23.0874V28.1532H23.624V26.0066Z" fill="#F5F5F5" />
        <path d="M24.6973 26.0066H24.1606V28.1532H24.6973V26.0066Z" fill="#F5F5F5" />
        <path d="M27.3807 22.7867H26.8441V24.9333H27.3807V22.7867Z" fill="#464655" />
        <path d="M28.454 22.7867H27.9174V24.9333H28.454V22.7867Z" fill="#464655" />
        <path d="M29.5271 22.7867H28.9905V24.9333H29.5271V22.7867Z" fill="#464655" />
        <path d="M30.6003 22.7867H30.0637V24.9333H30.6003V22.7867Z" fill="#464655" />
        <path d="M31.6737 22.7867H31.1371V24.9333H31.6737V22.7867Z" fill="#464655" />
        <path d="M32.7467 22.7867H32.2101V24.9333H32.7467V22.7867Z" fill="#464655" />
        <path d="M27.3807 26.0065H26.8441V28.1531H27.3807V26.0065Z" fill="#464655" />
        <path d="M28.454 26.0065H27.9174V28.1531H28.454V26.0065Z" fill="#464655" />
        <path d="M29.5271 26.0065H28.9905V28.1531H29.5271V26.0065Z" fill="#464655" />
        <path d="M30.6003 26.0065H30.0637V28.1531H30.6003V26.0065Z" fill="#464655" />
        <path d="M31.6737 26.0065H31.1371V28.1531H31.6737V26.0065Z" fill="#464655" />
        <path d="M32.7467 26.0065H32.2101V28.1531H32.7467V26.0065Z" fill="#464655" />
        <path
            d="M42.3307 24.8492C41.9009 25.8476 40.6779 25.9651 41.3556 28.51L41.7027 28.1576C41.7027 28.1576 42.0662 29.1169 42.9422 29.7629C42.9422 29.7629 44.0164 28.8623 44.0992 27.4334L44.5453 27.6292C44.5453 27.6289 44.3305 25.0254 42.3307 24.8492Z"
            fill="#245DBD" />
        <path
            d="M43.9172 26.8951C43.8828 26.8951 43.8487 26.8792 43.8228 26.848C43.4019 26.3403 42.8658 26.1775 42.8606 26.1758C42.7898 26.155 42.7465 26.0699 42.764 25.9861C42.7816 25.9029 42.8534 25.8508 42.9238 25.8716C42.9486 25.879 43.5361 26.0558 44.0113 26.629C44.0625 26.6902 44.0616 26.7898 44.0098 26.8505C43.9841 26.8804 43.9508 26.8951 43.9172 26.8951Z"
            fill="#FF4B55" />
        <path
            d="M43.6139 28.0795C43.5743 28.0795 43.535 28.0587 43.509 28.0182C43.1968 27.5374 42.8427 27.2756 42.839 27.2731C42.7767 27.2279 42.7577 27.1312 42.796 27.0572C42.8345 26.9839 42.9158 26.9612 42.9781 27.0064C42.9944 27.018 43.3773 27.3019 43.7187 27.8274C43.7632 27.896 43.7523 27.9944 43.6945 28.047C43.6705 28.069 43.642 28.0795 43.6139 28.0795Z"
            fill="#FF4B55" />
        <path
            d="M42.9195 29.3976C42.9121 29.3976 42.9046 29.397 42.8969 29.3952C42.8253 29.3806 42.7768 29.2997 42.7891 29.2147C42.8411 28.8562 42.7976 28.2683 42.7262 27.9649C42.7066 27.8817 42.7476 27.7954 42.8177 27.7716C42.8885 27.7489 42.9607 27.7973 42.9801 27.8806C43.0608 28.2231 43.1079 28.8625 43.0491 29.2674C43.0382 29.3438 42.9824 29.3976 42.9195 29.3976Z"
            fill="#FF4B55" />
        <path
            d="M41.9894 27.9515C41.9518 27.9515 41.9144 27.9325 41.8883 27.8958C41.8413 27.8298 41.8483 27.7306 41.904 27.675C41.9073 27.672 42.2448 27.3293 42.333 26.8553C42.3487 26.7709 42.4187 26.7177 42.4905 26.736C42.5617 26.7544 42.607 26.8382 42.5913 26.9227C42.4833 27.5026 42.0911 27.8984 42.0743 27.915C42.0494 27.9393 42.0194 27.9515 41.9894 27.9515Z"
            fill="#FF4B55" />
        <path
            d="M41.623 26.9494C41.5786 26.9494 41.5352 26.9232 41.5102 26.8747C41.4719 26.8014 41.4914 26.7047 41.5537 26.6594C41.5587 26.6557 42.0381 26.3028 42.1869 25.9174C42.2171 25.8379 42.2962 25.803 42.3622 25.8397C42.4286 25.8758 42.4578 25.9688 42.4275 26.0471C42.245 26.5199 41.7144 26.9097 41.6921 26.9262C41.6702 26.9421 41.6465 26.9494 41.623 26.9494Z"
            fill="#FF4B55" />
        <path
            d="M8.82551 25.1852C8.46623 26.0199 7.44348 26.1183 8.01008 28.2462L8.30032 27.9516C8.30032 27.9516 8.60432 28.7536 9.33684 29.2939C9.33684 29.2939 10.2351 28.5408 10.3042 27.3459L10.6774 27.5096C10.6774 27.5097 10.4978 25.3326 8.82551 25.1852Z"
            fill="#245DBD" />
        <path
            d="M10.1501 26.8959C10.1213 26.8959 10.0929 26.8826 10.0713 26.8565C9.71936 26.4319 9.27112 26.2958 9.26672 26.2943C9.20754 26.2769 9.17122 26.2058 9.18606 26.1357C9.20071 26.066 9.26077 26.0226 9.31965 26.04C9.34036 26.0461 9.83157 26.194 10.2289 26.6733C10.2717 26.7244 10.271 26.8077 10.2277 26.8584C10.2061 26.8836 10.1781 26.8959 10.1501 26.8959Z"
            fill="#FF4B55" />
        <path
            d="M9.89665 27.8861C9.86355 27.8861 9.83083 27.8687 9.80895 27.8349C9.54782 27.4329 9.25183 27.2139 9.2488 27.2119C9.19675 27.1741 9.18083 27.0932 9.21267 27.0313C9.24489 26.9699 9.31286 26.951 9.36491 26.9888C9.37849 26.9985 9.6987 27.2359 9.98425 27.6754C10.0215 27.7327 10.0124 27.815 9.96403 27.8589C9.94392 27.8774 9.92009 27.8861 9.89665 27.8861Z"
            fill="#FF4B55" />
        <path
            d="M9.31608 28.9885C9.30984 28.9885 9.30361 28.9879 9.29718 28.9865C9.23728 28.9741 9.19676 28.9066 9.20708 28.8356C9.25062 28.5358 9.21419 28.0442 9.15448 27.7906C9.13812 27.7209 9.17231 27.6489 9.23094 27.6289C9.29017 27.61 9.35046 27.6504 9.36682 27.7199C9.43423 28.0064 9.47368 28.5409 9.42459 28.8796C9.41533 28.9434 9.36858 28.9885 9.31608 28.9885Z"
            fill="#FF4B55" />
        <path
            d="M8.5381 27.7793C8.50656 27.7793 8.47531 27.7634 8.45343 27.7327C8.41408 27.6774 8.41994 27.5945 8.46662 27.548C8.46945 27.5455 8.75167 27.259 8.82521 26.8626C8.83839 26.792 8.89689 26.7475 8.95685 26.7628C9.01642 26.7781 9.05431 26.8482 9.04113 26.9188C8.9508 27.4038 8.62277 27.7347 8.6088 27.7486C8.5882 27.769 8.5632 27.7793 8.5381 27.7793Z"
            fill="#FF4B55" />
        <path
            d="M8.23194 26.9413C8.19473 26.9413 8.1586 26.9193 8.1375 26.8789C8.10547 26.8175 8.12178 26.7366 8.17383 26.6988C8.17793 26.6958 8.57891 26.4006 8.70332 26.0783C8.72852 26.0118 8.79473 25.9826 8.85 26.0133C8.90547 26.0435 8.92989 26.1214 8.90459 26.1867C8.75186 26.5821 8.3084 26.9079 8.28965 26.9217C8.27149 26.9351 8.25157 26.9413 8.23194 26.9413Z"
            fill="#FF4B55" />
    </g>
    <defs>
        <clipPath id="clip0_9_1436">
            <rect width="50" height="50" fill="white" transform="translate(0.789062 0.174561)" />
        </clipPath>
    </defs>
</svg>
