<svg width="51" height="51" viewBox="0 0 51 51" fill="none" xmlns="http://www.w3.org/2000/svg">
    <g clip-path="url(#clip0_9_1430)">
        <path
            d="M49.6501 41.5538H1.37444C0.898364 41.5538 0.512329 41.1678 0.512329 40.6917V9.65727C0.512329 9.1812 0.898364 8.79517 1.37444 8.79517H49.6502C50.1263 8.79517 50.5123 9.1812 50.5123 9.65727V40.6917C50.5122 41.1679 50.1262 41.5538 49.6501 41.5538Z"
            fill="#FF4B55" />
        <path
            d="M34.9949 21.7263H28.9605V15.6918C28.9605 15.2157 28.5744 14.8297 28.0984 14.8297H22.9259C22.4498 14.8297 22.0638 15.2157 22.0638 15.6918V21.7263H16.0293C15.5533 21.7263 15.1672 22.1123 15.1672 22.5884V27.7608C15.1672 28.2369 15.5533 28.6229 16.0293 28.6229H22.0638V34.6574C22.0638 35.1335 22.4498 35.5195 22.9259 35.5195H28.0984C28.5744 35.5195 28.9605 35.1335 28.9605 34.6574V28.6228H34.9949C35.471 28.6228 35.857 28.2367 35.857 27.7606V22.5882C35.857 22.1122 35.471 21.7263 34.9949 21.7263Z"
            fill="#F5F5F5" />
    </g>
    <defs>
        <clipPath id="clip0_9_1430">
            <rect width="50" height="50" fill="white" transform="translate(0.511719 0.174561)" />
        </clipPath>
    </defs>
</svg>
