<svg width="51" height="51" viewBox="0 0 51 51" fill="none" xmlns="http://www.w3.org/2000/svg">
<g clip-path="url(#clip0_9_1423)">
<path d="M50.8063 19.7148H0.806396V9.65727C0.806396 9.1812 1.19243 8.79517 1.6685 8.79517H49.9443C50.4204 8.79517 50.8064 9.1812 50.8064 9.65727L50.8063 19.7148Z" fill="#FF4B55"/>
<path d="M49.9442 41.5538H1.6685C1.19243 41.5538 0.806396 41.1678 0.806396 40.6917V30.6343H50.8063V40.6917C50.8063 41.1678 50.4203 41.5538 49.9442 41.5538Z" fill="#464655"/>
<path d="M50.8063 19.7146H0.806396V30.6335H50.8063V19.7146Z" fill="#F5F5F5"/>
<path d="M15.4575 21.9826L16.1762 24.1376L18.4479 24.1552C18.742 24.1575 18.8639 24.5328 18.6273 24.7076L16.7999 26.0572L17.4851 28.2231C17.5738 28.5035 17.2546 28.7355 17.0153 28.5645L15.1672 27.2435L13.319 28.5645C13.0797 28.7355 12.7605 28.5035 12.8492 28.2231L13.5344 26.0572L11.707 24.7076C11.4704 24.5329 11.5924 24.1575 11.8864 24.1552L14.1581 24.1376L14.8768 21.9826C14.9698 21.7036 15.3644 21.7036 15.4575 21.9826Z" fill="#73AF00"/>
<path d="M36.7354 21.9824L37.4542 24.1375L39.7259 24.1551C40.0199 24.1573 40.1419 24.5326 39.9053 24.7074L38.0778 26.057L38.7631 28.223C38.8517 28.5033 38.5325 28.7354 38.2932 28.5644L36.4451 27.2434L34.597 28.5644C34.3576 28.7354 34.0384 28.5033 34.1271 28.223L34.8124 26.057L32.985 24.7074C32.7483 24.5327 32.8703 24.1573 33.1644 24.1551L35.436 24.1375L36.1548 21.9824C36.2477 21.7034 36.6424 21.7034 36.7354 21.9824Z" fill="#73AF00"/>
</g>
<defs>
<clipPath id="clip0_9_1423">
<rect width="50" height="50" fill="white" transform="translate(0.804688 0.174561)"/>
</clipPath>
</defs>
</svg>
