<svg width="51" height="51" viewBox="0 0 51 51" fill="none" xmlns="http://www.w3.org/2000/svg">
    <g clip-path="url(#clip0_9_1414)">
        <path
            d="M49.7588 41.9819H1.48308C1.00701 41.9819 0.620972 41.5959 0.620972 41.1198V10.0854C0.620972 9.6093 1.00701 9.22327 1.48308 9.22327H49.7589C50.2349 9.22327 50.621 9.6093 50.621 10.0854V41.1198C50.6209 41.596 50.2348 41.9819 49.7588 41.9819Z"
            fill="#FF4B55" />
        <path
            d="M1.48308 9.22339H24.7589C25.235 9.22339 25.621 9.60942 25.621 10.0855V24.7406C25.621 25.2167 25.235 25.6028 24.7589 25.6028H1.48308C1.00701 25.6027 0.620972 25.2166 0.620972 24.7405V10.0854C0.620972 9.60933 1.00701 9.22339 1.48308 9.22339Z"
            fill="#41479B" />
        <path
            d="M10.0349 17.4131C10.0349 16.5613 10.38 15.7902 10.9381 15.2319L8.35271 14.4924C8.20261 14.4495 8.09509 14.6358 8.2072 14.7443L10.1419 16.6149L7.53113 17.2677C7.37976 17.3055 7.37976 17.5207 7.53113 17.5586L10.1419 18.2113L8.2072 20.0819C8.09499 20.1904 8.20261 20.3767 8.35271 20.3339L10.9381 19.5943C10.38 19.0359 10.0349 18.2648 10.0349 17.4131Z"
            fill="#F5F5F5" />
        <path
            d="M10.9392 15.2305C11.4975 14.6725 12.2686 14.3274 13.1204 14.3274C13.9721 14.3274 14.7432 14.6725 15.3015 15.2305L16.0411 12.6452C16.084 12.4951 15.8976 12.3875 15.7891 12.4997L13.9185 14.4342L13.2658 11.8235C13.228 11.6721 13.0128 11.6721 12.9749 11.8235L12.3221 14.4342L10.4515 12.4997C10.343 12.3874 10.1567 12.4951 10.1996 12.6452L10.9392 15.2305Z"
            fill="#F5F5F5" />
        <path
            d="M15.3019 19.5956C14.7436 20.1536 13.9725 20.4987 13.1208 20.4987C12.269 20.4987 11.4979 20.1536 10.9396 19.5956L10.2001 22.1809C10.1572 22.331 10.3435 22.4385 10.452 22.3264L12.3226 20.3919L12.9754 23.0026C13.0132 23.154 13.2284 23.154 13.2663 23.0026L13.919 20.3919L15.7896 22.3264C15.8981 22.4386 16.0844 22.331 16.0416 22.1809L15.3019 19.5956Z"
            fill="#F5F5F5" />
        <path
            d="M18.7102 17.2675L16.0994 16.6148L18.034 14.7442C18.1462 14.6357 18.0386 14.4494 17.8885 14.4923L15.3032 15.2318C15.8612 15.7901 16.2063 16.5612 16.2063 17.413C16.2063 18.2647 15.8612 19.0358 15.3032 19.5941L17.8885 20.3337C18.0386 20.3765 18.1461 20.1902 18.034 20.0817L16.0994 18.2111L18.7102 17.5584C18.8617 17.5207 18.8617 17.3055 18.7102 17.2675Z"
            fill="#F5F5F5" />
        <path
            d="M13.1205 19.8702C14.4775 19.8702 15.5775 18.7702 15.5775 17.4132C15.5775 16.0562 14.4775 14.9562 13.1205 14.9562C11.7635 14.9562 10.6635 16.0562 10.6635 17.4132C10.6635 18.7702 11.7635 19.8702 13.1205 19.8702Z"
            fill="#F5F5F5" />
    </g>
    <defs>
        <clipPath id="clip0_9_1414">
            <rect width="50" height="50" fill="white" transform="translate(0.621094 0.602539)" />
        </clipPath>
    </defs>
</svg>
