<svg width="51" height="51" viewBox="0 0 51 51" fill="none" xmlns="http://www.w3.org/2000/svg">
<g clip-path="url(#clip0_9_1397)">
<path d="M0.915039 31.0623H50.9149V41.1197C50.9149 41.5957 50.5289 41.9818 50.0528 41.9818H1.77715C1.30107 41.9818 0.915039 41.5957 0.915039 41.1197V31.0623Z" fill="#73AF00"/>
<path d="M1.77715 9.22327H50.0529C50.529 9.22327 50.915 9.6093 50.915 10.0854V20.1428H0.915039V10.0853C0.915039 9.6092 1.30107 9.22327 1.77715 9.22327Z" fill="#FF4B55"/>
<path d="M50.9149 20.1426H0.915039V31.0615H50.9149V20.1426Z" fill="#F5F5F5"/>
<path d="M23.0895 28.682C23.4479 28.5015 23.6576 28.2038 23.7698 27.989C24.4118 28.4085 24.962 28.266 25.2488 28.1319C25.5285 28.0008 25.7589 27.787 25.9126 27.5692C26.0664 27.787 26.2968 28.0008 26.5765 28.1319C26.8631 28.266 27.4133 28.4082 28.0555 27.989C28.1676 28.2038 28.3773 28.5014 28.7358 28.682C28.9424 28.7861 29.1701 28.8384 29.4173 28.8384C29.6712 28.8384 29.9454 28.7834 30.2384 28.6736L30.0961 28.2942C29.6302 28.4689 29.2349 28.4783 28.9218 28.3221C28.4835 28.1036 28.3372 27.6219 28.3361 27.6179L28.2506 27.3188L28.0116 27.5178C27.59 27.869 27.1533 27.9551 26.7484 27.7649C26.3371 27.5723 26.1152 27.1825 26.1152 27.0656V25.3169C26.2029 25.124 26.3963 24.989 26.6216 24.989C26.699 24.989 26.7756 25.0058 26.849 25.0389L27.0998 25.1521L27.0619 24.8794C26.9824 24.3066 26.4882 23.8746 25.9125 23.8746C25.3367 23.8746 24.8426 24.3066 24.7631 24.8794L24.7252 25.1521L24.976 25.0389C25.0493 25.0058 25.126 24.989 25.2034 24.989C25.4287 24.989 25.6223 25.124 25.7099 25.3169V27.0656C25.7099 27.1825 25.488 27.5723 25.0767 27.7649C24.6719 27.955 24.2351 27.8692 23.8134 27.5178L23.5762 27.3213L23.489 27.6171C23.4876 27.6219 23.3412 28.1036 22.903 28.3221C22.5896 28.4784 22.1945 28.4691 21.7286 28.2942L21.5864 28.6736C21.8792 28.7834 22.1536 28.8384 22.4075 28.8384C22.655 28.8383 22.8827 28.7862 23.0895 28.682ZM25.2034 24.685C25.1792 24.685 25.1551 24.686 25.131 24.6881C25.2666 24.3858 25.57 24.1784 25.9125 24.1784C26.255 24.1784 26.5584 24.3858 26.6941 24.6881C26.379 24.6604 26.081 24.8143 25.9125 25.0581C25.7571 24.8327 25.4972 24.685 25.2034 24.685Z" fill="#FFCD5A"/>
<path d="M22.4042 29.9704L22.5326 30.3546C23.394 30.0671 24.6261 29.9022 25.9127 29.9022C27.1992 29.9022 28.4313 30.0671 29.2927 30.3546L29.4212 29.9704C28.52 29.6694 27.2411 29.4968 25.9127 29.4968C24.5842 29.4969 23.3053 29.6694 22.4042 29.9704Z" fill="#FFCD5A"/>
<path d="M25.913 29.0917C26.1243 29.0924 26.3103 28.9668 26.4364 28.7978C26.3526 28.746 26.2407 28.7157 26.1139 28.7C26.114 28.6954 26.1156 28.6912 26.1156 28.6865C26.1156 28.5128 26.0336 28.3628 25.913 28.2814C25.7924 28.3628 25.7105 28.5128 25.7105 28.6865C25.7105 28.6911 25.712 28.6953 25.7122 28.7C25.5855 28.7157 25.4736 28.7459 25.3897 28.7978C25.5156 28.9668 25.7017 29.0922 25.913 29.0917Z" fill="#FFCD5A"/>
<path d="M24.0533 29.2831C24.2603 29.2415 24.4176 29.0812 24.5073 28.8904C24.4148 28.8564 24.2991 28.8492 24.1719 28.8592C24.171 28.8547 24.1717 28.8502 24.1708 28.8456C24.1361 28.6755 24.0257 28.5448 23.8913 28.4891C23.7894 28.5931 23.739 28.7565 23.7738 28.9266C23.7748 28.9312 23.777 28.935 23.778 28.9395C23.6571 28.9803 23.5534 29.0322 23.4817 29.0998C23.639 29.2402 23.8463 29.326 24.0533 29.2831Z" fill="#FFCD5A"/>
<path d="M27.9347 28.4891C27.8002 28.5448 27.6899 28.6755 27.6552 28.8456C27.6542 28.8502 27.6549 28.8546 27.654 28.8592C27.5269 28.8492 27.4111 28.8564 27.3187 28.8904C27.4083 29.0813 27.5656 29.2415 27.7727 29.2831C27.9796 29.326 28.1869 29.2402 28.3443 29.0997C28.2726 29.0322 28.169 28.9802 28.0481 28.9394C28.0491 28.9349 28.0514 28.9311 28.0523 28.9265C28.0869 28.7565 28.0364 28.5931 27.9347 28.4891Z" fill="#FFCD5A"/>
<path d="M25.8587 21.0273L25.7222 21.4366L25.2908 21.4399C25.235 21.4403 25.2118 21.5116 25.2567 21.5448L25.6037 21.801L25.4736 22.2124C25.4568 22.2656 25.5174 22.3096 25.5629 22.2772L25.9139 22.0263L26.2648 22.2772C26.3103 22.3096 26.3709 22.2657 26.3541 22.2124L26.2239 21.801L26.5709 21.5448C26.6158 21.5116 26.5927 21.4404 26.5368 21.4399L26.1055 21.4366L25.9689 21.0273C25.9513 20.9743 25.8764 20.9743 25.8587 21.0273Z" fill="#FFCD5A"/>
<path d="M23.3895 21.7026L23.2529 22.1119L22.8216 22.1152C22.7657 22.1156 22.7426 22.1869 22.7875 22.2201L23.1345 22.4763L23.0043 22.8877C22.9875 22.9409 23.048 22.9849 23.0936 22.9525L23.4445 22.7016L23.7955 22.9525C23.841 22.9849 23.9016 22.941 23.8848 22.8877L23.7546 22.4763L24.1016 22.2201C24.1465 22.1869 24.1233 22.1157 24.0675 22.1152L23.6361 22.1119L23.4996 21.7026C23.482 21.6496 23.4071 21.6496 23.3895 21.7026Z" fill="#FFCD5A"/>
<path d="M21.5743 23.526L21.4378 23.9353L21.0065 23.9386C20.9506 23.939 20.9275 24.0103 20.9724 24.0435L21.3193 24.2998L21.1893 24.7111C21.1725 24.7643 21.233 24.8083 21.2785 24.7759L21.6295 24.525L21.9805 24.7759C22.026 24.8083 22.0865 24.7644 22.0697 24.7111L21.9397 24.2998L22.2866 24.0435C22.3315 24.0103 22.3084 23.9391 22.2525 23.9386L21.8212 23.9353L21.6847 23.526C21.6669 23.4731 21.592 23.4731 21.5743 23.526Z" fill="#FFCD5A"/>
<path d="M20.9076 25.9911L20.7711 26.4003L20.3397 26.4037C20.2838 26.4041 20.2607 26.4753 20.3056 26.5085L20.6526 26.7648L20.5224 27.1761C20.5056 27.2293 20.5662 27.2734 20.6117 27.241L20.9627 26.9901L21.3136 27.241C21.3591 27.2734 21.4197 27.2294 21.4029 27.1761L21.2727 26.7648L21.6197 26.5085C21.6646 26.4753 21.6415 26.4041 21.5856 26.4037L21.1543 26.4003L21.0177 25.9911C21.0002 25.938 20.9253 25.938 20.9076 25.9911Z" fill="#FFCD5A"/>
<path d="M28.4405 21.7026L28.577 22.1119L29.0084 22.1152C29.0643 22.1156 29.0874 22.1869 29.0425 22.2201L28.6955 22.4763L28.8257 22.8877C28.8425 22.9409 28.7819 22.9849 28.7364 22.9525L28.3854 22.7016L28.0345 22.9525C27.989 22.9849 27.9284 22.941 27.9452 22.8877L28.0754 22.4763L27.7284 22.2201C27.6835 22.1869 27.7066 22.1157 27.7625 22.1152L28.1938 22.1119L28.3304 21.7026C28.3479 21.6496 28.4228 21.6496 28.4405 21.7026Z" fill="#FFCD5A"/>
<path d="M30.2556 23.526L30.3921 23.9353L30.8235 23.9386C30.8793 23.939 30.9025 24.0103 30.8575 24.0435L30.5106 24.2998L30.6407 24.7111C30.6575 24.7643 30.597 24.8083 30.5515 24.7759L30.2005 24.525L29.8495 24.7759C29.804 24.8083 29.7435 24.7644 29.7603 24.7111L29.8905 24.2998L29.5435 24.0435C29.4986 24.0103 29.5217 23.9391 29.5776 23.9386L30.0089 23.9353L30.1454 23.526C30.163 23.4731 30.2379 23.4731 30.2556 23.526Z" fill="#FFCD5A"/>
<path d="M30.9226 25.9911L31.0591 26.4003L31.4905 26.4037C31.5463 26.4041 31.5695 26.4753 31.5245 26.5085L31.1776 26.7648L31.3076 27.1761C31.3244 27.2293 31.2639 27.2734 31.2184 27.241L30.8674 26.9901L30.5164 27.241C30.4709 27.2734 30.4104 27.2294 30.4272 27.1761L30.5573 26.7648L30.2103 26.5085C30.1654 26.4753 30.1885 26.4041 30.2444 26.4037L30.6757 26.4003L30.8122 25.9911C30.83 25.938 30.9049 25.938 30.9226 25.9911Z" fill="#FFCD5A"/>
</g>
<defs>
<clipPath id="clip0_9_1397">
<rect width="50" height="50" fill="white" transform="translate(0.914062 0.602539)"/>
</clipPath>
</defs>
</svg>
