<svg width="51" height="51" viewBox="0 0 51 51" fill="none" xmlns="http://www.w3.org/2000/svg">
<g clip-path="url(#clip0_9_1392)">
<path d="M0.343811 34.2232V10.0853C0.343811 9.60918 0.729846 9.22314 1.20592 9.22314H38.2749L0.343811 34.2232Z" fill="#73AF00"/>
<path d="M50.3441 16.9819V41.1198C50.3441 41.5959 49.958 41.9819 49.482 41.9819H12.413L50.3441 16.9819Z" fill="#4173CD"/>
<path d="M50.3438 17.468V10.0853C50.3438 9.60918 49.9578 9.22314 49.4817 9.22314H37.7597L0.343811 33.7371V41.1197C0.343811 41.5958 0.729846 41.9818 1.20592 41.9818H12.9279L50.3438 17.468Z" fill="#FFE15A"/>
<path d="M50.3438 14.3767V10.0853C50.3438 9.60918 49.9578 9.22314 49.4817 9.22314H42.478L0.343811 36.8284V41.1198C0.343811 41.5959 0.729846 41.9819 1.20592 41.9819H8.20963L50.3438 14.3767Z" fill="#464655"/>
</g>
<defs>
<clipPath id="clip0_9_1392">
<rect width="50" height="50" fill="white" transform="translate(0.34375 0.602539)"/>
</clipPath>
</defs>
</svg>
