<svg width="51" height="51" viewBox="0 0 51 51" fill="none" xmlns="http://www.w3.org/2000/svg">
<g clip-path="url(#clip0_9_1386)">
<path d="M49.7785 41.9796H1.49725C1.01874 41.9796 0.637878 41.589 0.637878 41.1202V10.0851C0.637878 9.60657 1.0285 9.22571 1.49725 9.22571H49.7687C50.2473 9.22571 50.6281 9.61633 50.6281 10.0851V41.1202C50.6379 41.5988 50.2473 41.9796 49.7785 41.9796Z" fill="#F5F5F5"/>
<path d="M49.7794 41.9796H1.49817C1.01965 41.9796 0.638794 41.589 0.638794 41.1202V36.8136H50.6388V41.1202C50.6388 41.5988 50.2482 41.9796 49.7794 41.9796Z" fill="#FF4B55"/>
<path d="M1.49817 9.22571H49.7697C50.2482 9.22571 50.629 9.61633 50.629 10.0851V14.3917H0.638794V10.0851C0.638794 9.60657 1.02942 9.22571 1.49817 9.22571Z" fill="#FF4B55"/>
<path d="M50.6379 19.5674H0.637878V31.6377H50.6379V19.5674Z" fill="#41479B"/>
</g>
<defs>
<clipPath id="clip0_9_1386">
<rect width="50" height="50" fill="white" transform="translate(0.636719 0.602539)"/>
</clipPath>
</defs>
</svg>
