<svg width="51" height="51" viewBox="0 0 51 51" fill="none" xmlns="http://www.w3.org/2000/svg">
<g clip-path="url(#clip0_9_1231)">
<path d="M49.2043 41.9819H0.928755C0.452683 41.9819 0.0666504 41.5959 0.0666504 41.1198V10.0855C0.0666504 9.60942 0.452683 9.22339 0.928755 9.22339H49.2044C49.6804 9.22339 50.0665 9.60942 50.0665 10.0855V41.1198C50.0664 41.596 49.6803 41.9819 49.2043 41.9819Z" fill="#FFE15A"/>
<path d="M50.0667 11.8097H2.65295V39.3955H50.0667V11.8097Z" fill="#41479B"/>
<path d="M2.65137 11.8097L26.3581 25.6027L14.5048 11.8098L2.65137 11.8097Z" fill="#FF4B55"/>
<path d="M26.3582 25.6027V11.8097L38.2118 11.8098L26.3582 25.6027Z" fill="#FF4B55"/>
<path d="M50.065 11.8097L26.3582 25.6027L50.065 18.7061V11.8097Z" fill="#FF4B55"/>
<path d="M26.3582 25.6027H50.065V32.4992L26.3582 25.6027Z" fill="#FF4B55"/>
<path d="M26.3579 25.6026L2.65137 18.7062V25.6027L26.3579 25.6026Z" fill="#FF4B55"/>
<path d="M2.65137 32.4993L26.3579 25.6027L2.65137 39.3957V32.4993Z" fill="#FF4B55"/>
<path d="M26.7571 23.0796L29.8483 15.9503L27.5659 23.3781L26.7571 23.0796Z" fill="#FFE15A"/>
<path d="M30.8276 27.1792C30.895 26.9884 30.9538 26.794 30.9965 26.593L36.1485 27.05L31.0804 26.0255C31.0929 25.8859 31.1017 25.7453 31.1017 25.6025C31.1017 25.465 31.0927 25.3298 31.0811 25.1953L36.1079 24.1367L31.0014 24.6314C30.9567 24.4167 30.8931 24.2095 30.8205 24.0064L35.3835 21.6209L30.5965 23.4816C30.4745 23.2387 30.3323 23.0083 30.1722 22.7913L33.9557 19.3026L29.8064 22.3526C29.3665 21.8862 28.8354 21.5074 28.2385 21.2495L29.7455 16.3455L27.7026 21.057C27.2767 20.9312 26.8272 20.8611 26.3606 20.8611C25.8903 20.8611 25.4369 20.9319 25.0081 21.0595L22.9641 16.3453L24.4726 21.2541C23.8777 21.5128 23.3484 21.8915 22.9101 22.3574L18.7539 19.3024L22.5444 22.7974C22.3851 23.0137 22.2441 23.2431 22.1228 23.4851L17.326 21.6206L21.8989 24.0113C21.827 24.2132 21.7638 24.4189 21.7195 24.6322L16.6017 24.1364L21.6398 25.1975C21.6284 25.3311 21.6193 25.4656 21.6193 25.6023C21.6193 25.7443 21.6283 25.8842 21.6405 26.0229L16.5611 27.0497L21.7243 26.5917C21.7668 26.7913 21.825 26.9844 21.8917 27.1739L17.3382 29.5007L22.1117 27.6962C22.8856 29.2632 24.495 30.3438 26.3607 30.3438C28.2251 30.3438 29.8335 29.2651 30.608 27.7002L35.3717 29.5009L30.8276 27.1792Z" fill="#FFE15A"/>
<path d="M50.0665 39.3957L26.9016 25.918C26.5666 25.7231 26.1528 25.7231 25.8179 25.918L2.65295 39.3957H50.0665Z" fill="#F5F5F5"/>
<path d="M26.3629 32.5456C26.4617 32.5456 26.5418 32.4652 26.5418 32.3662C26.5418 32.2671 26.4617 32.1868 26.3629 32.1868C26.2641 32.1868 26.184 32.2671 26.184 32.3662C26.184 32.4652 26.2641 32.5456 26.3629 32.5456Z" fill="#FF4B55"/>
<path d="M26.0889 26.3568C26.627 27.0221 25.7562 27.3549 25.8639 27.9909C25.8639 27.9909 25.6878 27.7266 25.7562 27.3549C25.8247 26.9831 25.5898 26.8656 25.5898 26.8656C25.5898 26.8656 25.6975 27.2863 25.4333 27.5212C25.169 27.7559 25.2475 28.2941 25.2475 28.2941C25.2475 28.2941 24.9148 28.0691 24.9832 27.7266C24.9832 27.7266 24.5331 28.118 24.9343 28.7736C24.9343 28.7736 24.67 28.754 24.5722 28.5878C24.5722 28.5878 24.3379 29.2775 25.2818 29.8035C26.2258 30.3294 26.3628 29.077 26.3628 29.077L27.0379 29.9185C27.0379 29.9185 27.8467 29.8957 28.2316 29.0281L27.7684 29.1128C27.7977 28.8682 28.4175 28.8031 28.1728 28.0692C28.1728 28.0692 28.1532 28.2257 27.9771 28.3335C27.9771 28.3335 27.9837 27.828 27.6184 27.4952C27.6184 27.4952 27.6053 27.7659 27.488 27.8637C27.488 27.8637 27.5271 27.5147 27.3119 27.2408C27.1062 26.9791 27.0869 26.7385 27.0869 26.7385C27.0869 26.7385 26.8423 27.1886 26.9304 27.4136C26.9304 27.4136 26.7264 27.364 26.7054 27.0908C26.6597 26.497 26.0889 26.3568 26.0889 26.3568Z" fill="#FF4B55"/>
<path d="M26.3642 32.3508C27.2076 32.3508 27.8912 32.0578 27.8912 31.6964C27.8912 31.3349 27.2076 31.0419 26.3642 31.0419C25.5208 31.0419 24.8372 31.3349 24.8372 31.6964C24.8372 32.0578 25.5208 32.3508 26.3642 32.3508Z" fill="#FFE15A"/>
<path d="M26.3644 32.1456C27.0937 32.1456 27.6849 31.8807 27.6849 31.5538C27.6849 31.227 27.0937 30.962 26.3644 30.962C25.6352 30.962 25.0439 31.227 25.0439 31.5538C25.0439 31.8807 25.6352 32.1456 26.3644 32.1456Z" fill="#FF4B55"/>
<path d="M26.6396 31.6309H26.0859C26.0761 31.8035 26.1543 32.0539 26.3623 32.1447V32.1453C26.3624 32.1453 26.3625 32.1451 26.3625 32.1451C26.3625 32.1451 26.3628 32.1453 26.363 32.1453V32.1447C26.5711 32.0539 26.6494 31.8035 26.6396 31.6309Z" fill="#FF82AA"/>
<path d="M27.0803 31.5243L26.5781 31.6422C26.6086 31.8123 26.7368 32.0395 26.9463 32.0837L26.9464 32.0842L26.9467 32.0839C26.9468 32.0839 26.947 32.0841 26.947 32.0841V32.0835C27.1149 31.9508 27.1286 31.6903 27.0803 31.5243Z" fill="#FF82AA"/>
<path d="M27.3399 31.344L26.9902 31.5731C27.0787 31.7216 27.2653 31.8988 27.4465 31.8886L27.4468 31.889L27.4469 31.8886C27.4469 31.8886 27.4472 31.8887 27.4473 31.8887L27.447 31.8883C27.5286 31.7261 27.4408 31.4842 27.3399 31.344Z" fill="#FF82AA"/>
<path d="M27.3297 30.99L27.1921 31.3373C27.3786 31.5746 27.6844 31.55 27.6844 31.55C27.6967 31.3569 27.4556 31.1083 27.3297 30.99Z" fill="#FF82AA"/>
<path d="M25.6414 31.5243L26.1436 31.6422C26.1131 31.8123 25.9849 32.0395 25.7755 32.0837L25.7754 32.0842L25.7751 32.0839L25.7747 32.0841L25.7748 32.0835C25.6067 31.9508 25.5929 31.6903 25.6414 31.5243Z" fill="#FF82AA"/>
<path d="M25.3811 31.344L25.7308 31.5731C25.6424 31.7216 25.4557 31.8988 25.2746 31.8886L25.2743 31.889L25.2742 31.8886L25.2738 31.8887L25.2741 31.8883C25.1925 31.7261 25.2803 31.4842 25.3811 31.344Z" fill="#FF82AA"/>
<path d="M25.3925 30.9901L25.5301 31.3374C25.3436 31.5747 25.0379 31.5502 25.0379 31.5502C25.0257 31.357 25.2667 31.1084 25.3925 30.9901Z" fill="#FF82AA"/>
<path d="M26.3645 31.6756C26.9564 31.6756 27.4363 31.4606 27.4363 31.1954C27.4363 30.9301 26.9564 30.7151 26.3645 30.7151C25.7726 30.7151 25.2927 30.9301 25.2927 31.1954C25.2927 31.4606 25.7726 31.6756 26.3645 31.6756Z" fill="#FFE15A"/>
<path d="M26.3644 31.5074C26.8048 31.5074 27.1619 31.3677 27.1619 31.1953C27.1619 31.0229 26.8048 30.8832 26.3644 30.8832C25.924 30.8832 25.567 31.0229 25.567 31.1953C25.567 31.3677 25.924 31.5074 26.3644 31.5074Z" fill="#FF4B55"/>
<path d="M26.4445 36.5913C25.9233 36.6356 25.4654 36.2481 25.4208 35.7276C25.398 35.4675 25.5919 35.2378 25.8525 35.2157C26.1129 35.1936 26.3419 35.3867 26.364 35.6474C26.3862 35.908 26.6157 36.1007 26.8757 36.0791C27.1365 36.057 27.3299 35.827 27.3073 35.567C27.3517 36.0884 26.9654 36.5468 26.4445 36.5913Z" fill="#41479B"/>
<path d="M25.4209 35.7275C25.398 35.4674 25.592 35.2377 25.8525 35.2156C26.113 35.1934 26.342 35.3866 26.364 35.6472C26.3862 35.9079 26.6157 36.1006 26.8758 36.079C27.1365 36.0569 27.33 35.8269 27.3073 35.5669C27.2636 35.0451 26.8053 34.6592 26.2841 34.7034C25.7632 34.748 25.3765 35.2063 25.4209 35.7275Z" fill="#FF9B55"/>
<path d="M26.3642 34.0973C25.5083 34.0973 24.8145 34.7911 24.8145 35.6471C24.8145 36.503 25.5083 37.1969 26.3642 37.1969C27.2202 37.1969 27.914 36.5029 27.914 35.6471C27.914 34.7911 27.2201 34.0973 26.3642 34.0973ZM26.3642 36.8741C25.6867 36.8741 25.1373 36.3248 25.1373 35.6472C25.1373 34.9696 25.6866 34.4202 26.3642 34.4202C27.0419 34.4202 27.5912 34.9696 27.5912 35.6472C27.5912 36.3248 27.0418 36.8741 26.3642 36.8741Z" fill="#FFE15A"/>
<path d="M26.3642 34.4203C25.6866 34.4203 25.1372 34.9696 25.1372 35.6472C25.1372 36.3249 25.6865 36.8742 26.3642 36.8742C27.0418 36.8742 27.5911 36.3249 27.5911 35.6472C27.5911 34.9696 27.0417 34.4203 26.3642 34.4203ZM26.3642 36.587C25.8451 36.587 25.4243 36.1662 25.4243 35.6471C25.4243 35.1281 25.8451 34.7073 26.3642 34.7073C26.8832 34.7073 27.304 35.1281 27.304 35.6471C27.3039 36.1663 26.8832 36.587 26.3642 36.587Z" fill="#FF4B55"/>
<path d="M25.8874 35.7649C25.9526 35.7649 26.0055 35.7119 26.0055 35.6466C26.0055 35.5812 25.9526 35.5282 25.8874 35.5282C25.8222 35.5282 25.7693 35.5812 25.7693 35.6466C25.7693 35.7119 25.8222 35.7649 25.8874 35.7649Z" fill="#FF9B55"/>
<path d="M26.8348 35.7649C26.9 35.7649 26.9529 35.7119 26.9529 35.6466C26.9529 35.5812 26.9 35.5282 26.8348 35.5282C26.7696 35.5282 26.7168 35.5812 26.7168 35.6466C26.7168 35.7119 26.7696 35.7649 26.8348 35.7649Z" fill="#41479B"/>
<path d="M26.3646 33.8604C26.4437 33.8604 26.5077 33.7962 26.5077 33.7169C26.5077 33.6377 26.4437 33.5735 26.3646 33.5735C26.2856 33.5735 26.2216 33.6377 26.2216 33.7169C26.2216 33.7962 26.2856 33.8604 26.3646 33.8604Z" fill="#FF4B55"/>
<path d="M26.5066 34.1104C26.5856 34.1104 26.6496 34.0462 26.6496 33.9669C26.6496 33.8877 26.5856 33.8235 26.5066 33.8235C26.4275 33.8235 26.3635 33.8877 26.3635 33.9669C26.3635 34.0462 26.4275 34.1104 26.5066 34.1104Z" fill="#FF4B55"/>
<path d="M26.2215 34.1104C26.3005 34.1104 26.3645 34.0462 26.3645 33.9669C26.3645 33.8877 26.3005 33.8235 26.2215 33.8235C26.1424 33.8235 26.0784 33.8877 26.0784 33.9669C26.0784 34.0462 26.1424 34.1104 26.2215 34.1104Z" fill="#FF4B55"/>
<path d="M26.3646 37.7256C26.4437 37.7256 26.5077 37.6614 26.5077 37.5822C26.5077 37.5029 26.4437 37.4387 26.3646 37.4387C26.2856 37.4387 26.2216 37.5029 26.2216 37.5822C26.2216 37.6614 26.2856 37.7256 26.3646 37.7256Z" fill="#FF4B55"/>
<path d="M26.2215 37.4756C26.3005 37.4756 26.3645 37.4114 26.3645 37.3322C26.3645 37.2529 26.3005 37.1887 26.2215 37.1887C26.1424 37.1887 26.0784 37.2529 26.0784 37.3322C26.0784 37.4114 26.1424 37.4756 26.2215 37.4756Z" fill="#FF4B55"/>
<path d="M26.5066 37.4756C26.5856 37.4756 26.6496 37.4114 26.6496 37.3322C26.6496 37.2529 26.5856 37.1887 26.5066 37.1887C26.4275 37.1887 26.3635 37.2529 26.3635 37.3322C26.3635 37.4114 26.4275 37.4756 26.5066 37.4756Z" fill="#FF4B55"/>
<path d="M26.1017 29.6568C26.0032 29.1071 25.7401 28.6944 25.514 28.7349C25.288 28.7755 25.1846 29.2539 25.2831 29.8035C25.3542 30.2001 25.5115 30.519 25.6782 30.6542C25.6094 30.7722 25.5675 30.9523 25.5666 31.1753C25.6904 31.1859 25.8179 31.1853 25.949 31.1619C26.08 31.1383 26.1999 31.0946 26.3123 31.0417C26.234 30.833 26.1321 30.6786 26.0265 30.5917C26.1359 30.4071 26.1728 30.0535 26.1017 29.6568Z" fill="#FF9B55"/>
<path d="M26.6233 29.6568C26.7218 29.1071 26.9849 28.6944 27.211 28.7349C27.437 28.7755 27.5404 29.2539 27.4419 29.8035C27.3708 30.2001 27.2135 30.519 27.0468 30.6542C27.1156 30.7722 27.1575 30.9523 27.1584 31.1753C27.0346 31.1859 26.9071 31.1853 26.776 31.1619C26.6449 31.1385 26.5251 31.0946 26.4127 31.0417C26.491 30.833 26.5929 30.6786 26.6985 30.5917C26.5891 30.4071 26.5521 30.0535 26.6233 29.6568Z" fill="#41479B"/>
<path d="M26.7848 29.6441C26.7848 29.0386 26.5985 28.5477 26.3689 28.5477C26.1394 28.5477 25.9531 29.0385 25.9531 29.6441C25.9531 30.081 26.0519 30.4514 26.192 30.6276C26.1034 30.7405 26.0304 30.9246 25.9901 31.1626C26.1102 31.1976 26.2358 31.2212 26.3689 31.2212C26.5021 31.2212 26.6277 31.1975 26.7478 31.1626C26.7074 30.9247 26.6345 30.7405 26.5459 30.6276C26.6862 30.4514 26.7848 30.0809 26.7848 29.6441Z" fill="#F5F5F5"/>
<path d="M26.3625 30.789C26.0916 30.789 25.8431 30.7638 25.6815 30.7192C25.6259 30.7046 25.5933 30.6477 25.6084 30.5918C25.6239 30.5365 25.6824 30.5 25.7359 30.5195C26.0217 30.5958 26.7033 30.5958 26.9891 30.5195C27.0447 30.4993 27.1016 30.5365 27.1165 30.5918C27.1315 30.6478 27.0991 30.7046 27.0435 30.7192C26.8819 30.7639 26.6334 30.789 26.3625 30.789Z" fill="#FFE15A"/>
<path d="M25.4726 32.433C25.5848 32.4184 25.7263 32.3841 25.7362 32.2129C25.7362 32.2129 25.4824 32.1885 25.4824 32.208C25.4824 32.2275 25.4726 32.433 25.4726 32.433Z" fill="#FFE15A"/>
<path d="M22.9188 31.7971C23.0456 31.833 23.1693 31.859 23.2084 32.0157C23.2084 32.0157 23.3385 31.7548 23.1564 31.5982C23.1232 31.5696 22.9188 31.7971 22.9188 31.7971Z" fill="#FF4B55"/>
<path d="M23.4604 31.3601C23.5873 31.3959 23.711 31.422 23.75 31.5786C23.75 31.5786 23.8802 31.3178 23.698 31.1612C23.6648 31.1326 23.4604 31.3601 23.4604 31.3601Z" fill="#FF4B55"/>
<path d="M22.9594 32.2669C22.8812 32.2473 22.7441 32.0712 22.9202 31.7973C23.0964 31.5233 22.3234 31.9342 22.2941 32.1594C22.2648 32.3844 22.2354 32.7855 22.4115 32.678C22.5876 32.5702 22.9594 32.2669 22.9594 32.2669Z" fill="#FFE15A"/>
<path d="M23.7973 32.2962C23.8234 32.1527 23.7973 32.0548 23.9799 31.9244C24.1625 31.7941 24.1886 31.7222 24.1886 31.6373C24.1886 31.6373 24.0892 31.7434 23.9129 31.7873C23.8052 31.8143 23.7124 31.8917 23.7124 31.8917C23.7124 31.8917 23.6667 31.7286 23.8299 31.6373C23.8299 31.6373 23.5428 31.6373 23.4973 31.8982C23.4516 32.159 23.6017 32.1983 23.3865 32.2243C23.1711 32.2504 22.6689 32.1461 22.4928 32.544C22.3167 32.9419 22.8515 32.6548 22.9951 32.6027C23.1386 32.5505 23.5952 32.6613 23.6669 32.5635C23.7386 32.4658 23.7973 32.2962 23.7973 32.2962Z" fill="#FF4B55"/>
<path d="M21.9174 33.0105L22.6904 31.7385C22.6904 31.7385 23.4584 31.4417 23.465 31.4025C23.4715 31.3633 23.7194 31.0438 23.7194 30.9981C23.7194 30.9524 23.6933 30.7306 23.5954 30.6916C23.4976 30.6524 23.1861 30.7839 23.0507 30.8185C22.9154 30.8531 22.7018 30.6003 22.7018 30.6003C22.7018 30.6003 21.4559 30.8351 21.3645 30.9852C21.2732 31.1352 20.8426 32.2115 20.8231 32.3225C20.8035 32.4333 20.8231 33.1966 20.8492 33.1836C20.8752 33.1702 21.9174 33.0105 21.9174 33.0105Z" fill="#FFF5E6"/>
<path d="M23.765 30.809C23.6475 30.6394 23.4324 30.6393 23.341 30.7765C23.2497 30.9134 23.0541 30.9134 23.0084 31.083C22.9722 31.217 23.191 31.4613 23.3215 31.4156C23.4521 31.3699 23.6933 31.2199 23.6933 31.2199C23.6933 31.2199 23.8825 30.9785 23.765 30.809ZM23.4078 31.1543C23.3543 31.2227 23.2199 31.1376 23.219 31.0616C23.2181 30.9856 23.3303 30.9814 23.3861 31.0209C23.4224 31.0466 23.4515 31.0985 23.4078 31.1543ZM23.6089 30.9852C23.5305 31.0229 23.4475 30.8873 23.4803 30.8187C23.5131 30.7502 23.6156 30.7959 23.6482 30.856C23.6696 30.8951 23.6727 30.9546 23.6089 30.9852Z" fill="#FF4B55"/>
<path d="M24.0119 35.7435C24.1419 35.7566 24.3139 35.7387 24.3497 35.4445C24.3907 35.1074 24.4927 34.9897 24.6615 35.0677C24.8304 35.1457 24.7886 35.2804 24.7886 35.2804C24.7886 35.2804 24.9744 35.7696 24.8766 35.9652C24.7788 36.161 24.5538 36.3957 24.3874 36.4349C24.221 36.474 23.8786 36.249 23.8786 36.249L24.0119 35.7435Z" fill="#FFF5E6"/>
<path d="M23.0733 34.6055C23.1841 34.5533 24.554 33.601 24.7171 33.2421C24.8802 32.8834 24.7889 32.6224 25.0042 32.6094C25.2196 32.5963 25.5848 32.5833 25.5522 32.3158C25.5196 32.0484 25.1608 32.218 25.0629 32.1658C24.9651 32.1137 24.6585 31.9701 24.5998 32.1789C24.541 32.3877 24.5998 32.5769 24.515 32.6812C24.4302 32.7856 24.0518 32.9683 23.9867 32.9551C23.9214 32.942 23.7822 32.925 23.6756 32.9923C23.5691 33.0596 23.5104 33.1508 23.5104 33.1508C23.5104 33.1508 23.1092 33.1671 23.0521 33.2209C22.995 33.2747 22.7798 33.5617 22.7798 33.5617L23.0733 34.6055Z" fill="#FFE6D7"/>
<path d="M23.2169 34.3901C23.2169 34.3901 23.4778 34.2923 23.6638 33.9302C23.8496 33.568 24.0356 33.7148 24.3096 33.5191C24.5835 33.3234 24.4075 33.0299 24.3292 32.9125C24.251 32.795 24.3048 32.4918 24.5739 32.5014C24.7509 32.5079 25.3175 33.0592 25.0631 33.6071C25.0631 33.6071 25.024 33.5093 24.9262 33.3918C24.9262 33.3918 25.073 33.7539 24.7305 34.155C24.7305 34.155 24.7403 33.9495 24.6326 33.8125C24.6326 33.8125 24.6229 34.3214 24.2315 34.6441C24.2315 34.6441 24.2804 34.3115 24.2217 34.1745C24.2217 34.1745 24.163 34.6148 23.5857 35.016C23.5857 35.016 23.6738 34.8594 23.6542 34.605L23.165 34.8593L23.2169 34.3901Z" fill="#5AA587"/>
<path d="M19.4953 36.0632C19.4953 36.0632 19.3193 36.6014 19.7987 36.7579C20.2781 36.9145 20.5423 36.709 20.7184 36.7579C20.8945 36.8068 20.8553 37.12 20.6108 37.3841C20.3661 37.6483 20.1215 37.6776 19.8475 37.4819C19.5736 37.2862 19.5539 37.1102 19.2702 37.1786C18.9866 37.2472 18.5952 36.9732 18.5952 36.9732C18.5952 36.9732 18.8495 35.8675 18.8788 35.8773C18.9082 35.8871 19.4953 36.0632 19.4953 36.0632Z" fill="#F5DCD2"/>
<path d="M17.0074 34.717C17.0074 34.717 17.3452 34.3921 18.6578 33.9893C19.9702 33.5864 20.672 33.4175 20.672 33.4175L21.6987 33.0926C21.6987 33.0926 22.1819 33.0907 22.4989 33.0007C22.8162 32.9106 22.8162 32.9106 22.8162 32.9106C22.8162 32.9106 23.6609 34.1062 23.0242 35.3147L23.2451 35.5227C23.2451 35.5227 23.4774 35.5936 23.6536 35.6556C23.8299 35.7178 23.6999 36.0555 23.6999 36.0555L23.0241 36.3674L21.0488 36.2764C21.0488 36.2764 21.0099 36.1855 20.3601 36.3933C19.7103 36.6013 19.4244 36.1335 18.1769 36.0944C16.9294 36.0555 17.0074 34.717 17.0074 34.717Z" fill="#FFF5E6"/>
<path d="M22.6223 30.0523C22.6223 30.0523 22.8212 30.2512 22.7136 30.4631C22.7136 30.4631 22.4918 30.2349 22.3092 30.1827C22.028 30.1024 21.9699 30.256 21.3486 30.2854C20.9577 30.3039 20.7998 30.6785 20.4175 30.5872C20.0082 30.4893 19.6706 30.6768 19.6706 30.6768C19.6706 30.6768 19.9054 30.6475 20.0963 30.8286C20.287 31.0095 20.6246 30.9704 20.6246 30.9704C20.6246 30.9704 20.3164 31.1857 20.0571 31.0829C19.7979 30.98 19.426 31.1709 19.426 31.1709C19.4944 31.1661 19.6461 31.1905 19.8174 31.3714C19.9887 31.5524 20.3703 31.5083 20.3703 31.5083C20.3019 31.5915 20.111 31.6844 19.9308 31.6499C19.5222 31.5716 19.086 31.7539 19.086 31.7539C19.086 31.7539 19.346 31.663 19.6968 31.9229C20.0477 32.1827 20.4506 32.0269 20.4506 32.0269C20.4506 32.1958 20.0989 32.8466 19.475 32.8245C18.6982 32.7971 18.5013 33.2485 18.5013 33.2485C18.5013 33.2485 18.8131 33.1445 19.216 33.2095C19.9964 33.3354 20.5285 32.8846 20.5285 32.8846C20.5285 32.8846 20.3985 33.4953 19.8658 33.4694C19.3331 33.4434 18.6573 33.9892 18.6573 33.9892C18.6573 33.9892 19.2576 33.881 20.0329 33.8715C20.2879 33.8684 20.4952 33.7678 20.6725 33.6483C21.1387 33.3334 21.5691 33.3334 21.5691 33.3334C21.0603 33.4509 20.7962 34.0085 20.7962 34.0085C20.7962 34.0085 21.1876 33.666 21.755 33.666C22.3225 33.666 22.4986 33.0007 22.4986 33.0007C21.9703 33.0104 21.892 32.5799 21.892 32.5799C21.892 32.5799 21.7354 32.6288 21.5887 32.805C21.4958 32.9164 21.3389 32.9542 21.2314 32.9693C21.1923 32.6262 21.4514 32.3129 21.4514 32.3129C21.4514 32.3129 21.1005 31.7802 21.5554 31.2083C22.0102 30.6366 23.0498 30.8185 23.0498 30.8185C23.1572 30.3392 22.7528 30.0392 22.6223 30.0523Z" fill="#5AA587"/>
<path d="M21.5652 31.944C21.7349 31.9179 22.5242 31.6569 22.511 31.3048C22.498 30.9525 22.0283 31.0764 22.0545 31.2656C22.0806 31.4548 22.2502 31.4156 22.2502 31.4156C22.2502 31.4156 22.2338 31.5009 21.8849 31.5721C21.5979 31.6308 21.5652 31.944 21.5652 31.944Z" fill="#5AA587"/>
<path d="M23.6529 35.6556C23.6529 35.6556 24.1422 35.5773 24.1225 35.9295C24.1029 36.2817 23.8224 36.6535 23.242 36.8167C23.242 36.8167 23.4573 36.6309 23.4084 36.5231C23.3595 36.4155 23.1148 36.3862 22.9877 36.5721C22.8605 36.7579 22.6452 36.8363 22.4594 36.8068C22.4594 36.8068 22.792 36.5622 22.5572 36.4742C22.3457 36.3949 22.4267 36.7385 21.9212 36.7971C21.9212 36.7971 22.293 36.5035 22.0777 36.4253C21.8625 36.3471 21.7451 36.8558 21.3634 36.8167C21.3634 36.8167 21.683 36.4971 21.5102 36.4449C21.2379 36.3627 21.1677 36.8363 20.6785 36.6308C20.6785 36.6308 20.9231 36.5231 20.7274 36.259C20.5317 35.9947 20.8057 35.6621 20.9428 35.5252C21.0799 35.3883 21.1775 35.3002 21.1385 35.1631C21.1385 35.1631 21.4875 35.3816 21.3113 35.7664C21.1459 36.1278 21.8154 35.9282 22.3354 35.8839C22.8704 35.8382 23.1877 36.145 23.5292 36.0404C23.8486 35.9425 23.6529 35.6556 23.6529 35.6556Z" fill="#5AA587"/>
<path d="M14.1868 35.8215C14.1868 35.8215 14.8286 36.1175 15.1924 35.8186C15.5563 35.5197 15.6551 35.8735 16.084 35.6135C16.5129 35.3537 16.4869 35.4966 16.8247 35.4966C17.1625 35.4966 17.4095 34.9508 17.2016 34.574C17.2016 34.574 17.9073 34.3003 17.7624 33.7345C17.6548 33.3138 17.1236 33.4435 17.1236 33.4435C17.1236 33.4435 16.563 33.0912 16.1749 33.5475C15.8579 33.9206 16.032 34.1713 15.4992 34.2363C14.9665 34.3012 14.8884 34.847 14.3166 34.7821C14.3166 34.7821 14.7065 35.2889 15.3042 34.964C15.3043 34.9639 15.2904 35.4534 14.1868 35.8215Z" fill="#5AA587"/>
<path d="M19.8662 36.7776C19.8662 36.7776 20.4141 37.2668 19.3379 37.5603C19.3379 37.5603 19.4064 37.4722 19.4846 37.3157C19.4846 37.3157 19.152 37.5603 18.7214 37.5407C18.7214 37.5407 18.8485 37.4428 18.8779 37.3253C18.8779 37.3253 18.4865 37.433 18.2028 37.2471C18.2028 37.2471 18.5453 37.2275 18.7605 36.9046C18.7605 36.9046 18.8584 37.1003 19.0639 37.0025C19.2693 36.9046 19.3871 37.0454 19.5726 37.0514C19.7242 37.0564 19.8563 36.9782 19.8662 36.7776Z" fill="#5AA587"/>
<path d="M19.5957 33.7573C19.5957 33.7573 19.2043 33.9399 19.387 34.2856C19.5088 34.5161 19.8903 34.5715 20.0393 34.3574C20.1664 34.1748 20.0655 33.9975 19.9317 33.9725C19.7914 33.9464 19.7067 34.0051 19.6413 34.1225C19.6413 34.1226 19.3999 34.0313 19.5957 33.7573Z" fill="#5AA587"/>
<path d="M21.3534 34.3656C21.3534 34.3656 22.2033 34.3979 22.1606 34.9869C22.1419 35.2461 21.7913 35.427 21.5702 35.2911C21.3815 35.1752 21.4121 34.982 21.5105 34.8964C21.6189 34.802 21.7261 34.836 21.8326 34.9173C21.8326 34.9172 21.8866 34.5955 21.3534 34.3656Z" fill="#5AA587"/>
<path d="M23.0514 33.2208C23.0514 33.2208 23.5101 32.9131 23.6888 33.2794C23.7673 33.4406 23.6208 33.67 23.4417 33.6655C23.2889 33.6616 23.2404 33.5357 23.2693 33.4506C23.3013 33.3567 23.3772 33.3399 23.4687 33.3514C23.4688 33.3515 23.4965 33.1132 23.0514 33.2208Z" fill="#5AA587"/>
<path d="M23.6746 32.9921C23.6746 32.9921 24.0977 32.7081 24.2624 33.0462C24.3349 33.1949 24.1998 33.4065 24.0345 33.4023C23.8936 33.3988 23.8488 33.2827 23.8755 33.2041C23.905 33.1176 23.975 33.1019 24.0596 33.1126C24.0595 33.1127 24.0852 32.8929 23.6746 32.9921Z" fill="#5AA587"/>
<path d="M22.0894 34.869C22.0894 34.869 22.8207 34.8969 22.784 35.4037C22.7678 35.6266 22.4662 35.7824 22.2759 35.6654C22.1135 35.5656 22.1048 35.3825 22.1752 35.2952C22.2975 35.1435 22.4442 35.212 22.4442 35.212C22.4442 35.212 22.5481 35.0669 22.0894 34.869Z" fill="#5AA587"/>
<path d="M22.6255 35.2706C22.6255 35.2706 23.4328 35.1924 23.3728 35.7372C23.3572 35.8793 23.1696 35.9795 23.0478 35.9047C22.9439 35.8409 22.9383 35.7237 22.9835 35.6679C23.0617 35.5709 23.1555 35.6147 23.1555 35.6147C23.1555 35.6147 23.1049 35.3734 22.6255 35.2706Z" fill="#5AA587"/>
<path d="M17.4497 37.8618C17.4497 37.8618 17.5601 38.086 17.6316 38.3036C17.6929 38.4898 18.0085 38.6154 18.1774 38.4985C18.3464 38.3816 18.6316 38.032 18.5147 37.9541C18.3978 37.8761 17.8916 37.9397 17.8137 37.6668C17.7356 37.3939 17.7617 37.2119 17.7617 37.2119C17.7617 37.2119 18.4389 37.4134 18.7619 36.9046C19.0848 36.3958 19.0386 35.899 19.1652 35.6525C19.2641 35.4597 19.4382 35.3666 19.4382 35.3666C19.2392 34.5789 16.8132 34.0152 17.0947 36.0597L16.7136 36.9261L17.4497 37.8618Z" fill="#FFE6D7"/>
<path d="M16.5911 37.8278C16.7575 37.9355 17.3674 38.2453 17.7457 38.0105C18.0551 37.8185 18.0589 37.5994 17.8632 37.5505C17.6675 37.5016 17.5599 37.6386 17.4522 37.5505C17.3445 37.4625 16.7378 36.9634 16.9629 36.8069C17.188 36.6503 17.3098 36.5236 17.3054 36.2491C17.3022 36.0469 17.126 35.8512 16.9172 35.8317C16.657 35.8073 16.454 35.9164 16.1801 35.9164L16.4997 36.0795C16.2943 36.1774 16.278 36.4546 16.0333 36.5035C16.0333 36.5035 16.1997 36.6927 16.4084 36.634C16.4084 36.634 16.3366 36.8297 16.1409 36.8558C16.1409 36.8558 16.3236 37.0645 16.4932 37.1233C16.4932 37.1233 16.3823 37.2015 16.2095 37.169C16.2095 37.169 16.4802 37.5669 16.8846 37.668L16.5911 37.8278Z" fill="#5AA587"/>
<path d="M17.7699 37.0828C17.7699 37.0828 17.8786 37.0639 17.8879 36.9316C17.8933 36.8553 17.8171 36.7564 17.6875 36.7638C17.5356 36.7725 17.4326 36.9742 17.5054 37.1079C17.6916 37.4498 18.3849 37.3125 18.4697 37.1885C18.4698 37.1885 17.9154 37.2146 17.7699 37.0828Z" fill="#5AA587"/>
<path d="M18.0941 38.7085C18.1242 38.6661 18.1485 38.5512 18.09 38.4802C18.09 38.4802 18.1217 38.3163 18.2461 38.375C18.2461 38.375 18.299 38.5063 18.2566 38.5977C18.2145 38.6889 18.0941 38.7085 18.0941 38.7085Z" fill="#FFE15A"/>
<path d="M18.3477 38.6166C18.3456 38.4984 18.3191 38.4336 18.224 38.4239C18.224 38.4239 18.1997 38.2527 18.3412 38.2527C18.3412 38.2527 18.4461 38.3456 18.4471 38.4463C18.4479 38.5469 18.3477 38.6166 18.3477 38.6166Z" fill="#FFE15A"/>
<path d="M18.5049 38.5019C18.4817 38.3859 18.4598 38.3053 18.3539 38.2975C18.3539 38.2975 18.2976 38.1572 18.4537 38.1377C18.4537 38.1377 18.5532 38.2178 18.5722 38.3166C18.5911 38.4154 18.5049 38.5019 18.5049 38.5019Z" fill="#FFE15A"/>
<path d="M18.6619 38.3221C18.6139 38.2141 18.566 38.1709 18.461 38.1865C18.461 38.1865 18.3707 38.0594 18.4952 37.9908C18.4952 37.9908 18.6468 38.0342 18.6868 38.1265C18.7269 38.2188 18.6619 38.3221 18.6619 38.3221Z" fill="#FFE15A"/>
<path d="M20.5204 37.6603C20.5425 37.6132 20.5462 37.4957 20.476 37.4364C20.476 37.4364 20.4781 37.2695 20.611 37.305C20.611 37.305 20.6862 37.4248 20.6607 37.5221C20.6353 37.6196 20.5204 37.6603 20.5204 37.6603Z" fill="#FFE15A"/>
<path d="M20.7545 37.5247C20.7315 37.4087 20.694 37.3498 20.5987 37.3571C20.5987 37.3571 20.5444 37.1929 20.6836 37.1677C20.6836 37.1677 20.8032 37.2405 20.822 37.3394C20.8408 37.4383 20.7545 37.5247 20.7545 37.5247Z" fill="#FFE15A"/>
<path d="M20.8887 37.3841C20.8454 37.2741 20.8096 37.1987 20.7039 37.2098C20.7039 37.2098 20.6236 37.0818 20.7737 37.0348C20.7737 37.0348 20.8858 37.0959 20.9221 37.1898C20.9583 37.2837 20.8887 37.3841 20.8887 37.3841Z" fill="#FFE15A"/>
<path d="M21.0117 37.1791C20.9453 37.0813 20.8906 37.0473 20.79 37.0814C20.79 37.0814 20.6787 36.9722 20.789 36.8827C20.789 36.8827 20.9458 36.8984 21.0017 36.982C21.0575 37.0659 21.0117 37.1791 21.0117 37.1791Z" fill="#FFE15A"/>
<path d="M23.7712 31.1547C23.7924 31.2606 23.7386 31.3764 23.4843 31.4873C23.23 31.5981 23.2364 31.5525 23.0668 31.7677C22.8972 31.9831 22.8777 31.9895 22.6689 32.0286C22.4602 32.0677 22.3623 32.7134 22.6102 32.6157C22.858 32.5178 22.8906 32.3156 23.1646 32.3809C23.4385 32.4463 23.582 32.5375 23.7973 32.2962C23.7973 32.2962 24.006 32.5766 23.6147 32.6941C23.2233 32.8116 23.0097 32.8206 22.8165 32.9106C22.6232 33.0006 21.9376 33.2209 21.8926 32.5799C21.8795 32.3941 22.0165 32.3223 22.0948 32.1853C22.1731 32.0484 22.2514 31.957 22.4405 31.807C22.6297 31.657 22.5123 31.5331 22.8189 31.4874C23.1254 31.4417 23.3799 31.4482 23.4711 31.2265C23.5625 31.0047 23.7451 31.0242 23.7712 31.1547Z" fill="#FFE6D7"/>
<path d="M18.6347 34.2645C18.6347 34.2645 18.5759 34.0308 18.8484 33.9318C18.7845 33.9512 18.7256 33.9686 18.6584 33.9893C18.6011 34.0069 18.5556 34.0234 18.5019 34.0406C18.481 34.0689 18.4529 34.0838 18.4388 34.1234C18.3559 34.3556 18.5609 34.6569 18.8056 34.624C19.0142 34.5959 19.0733 34.4123 19.0052 34.303C18.9336 34.1886 18.7765 34.1617 18.6347 34.2645Z" fill="#5AA587"/>
<path d="M18.719 36.7457C18.4232 36.8119 18.2901 36.6976 18.2901 36.6976C18.2901 36.6976 18.3988 36.6788 18.4081 36.5465C18.4135 36.4702 18.3373 36.3713 18.2077 36.3787C18.0559 36.3874 17.9528 36.589 18.0257 36.7227C18.1859 37.0168 18.6411 36.9473 18.8417 36.7388C18.8522 36.7174 18.8632 36.6961 18.8726 36.6747C18.8288 36.7025 18.7727 36.7338 18.719 36.7457Z" fill="#5AA587"/>
<path d="M19.0173 36.2513C19.0249 36.2178 19.0355 36.184 19.042 36.1521C18.6943 36.2927 18.5929 36.1156 18.5929 36.1156C18.5929 36.1156 18.7016 36.0968 18.7109 35.9645C18.7163 35.8882 18.6401 35.7893 18.5105 35.7968C18.3587 35.8055 18.2556 36.0071 18.3285 36.1408C18.4984 36.4525 18.801 36.3656 19.0173 36.2513Z" fill="#5AA587"/>
<path d="M19.8002 36.4168C19.5981 36.5978 19.4437 36.5879 19.4437 36.5879C19.4437 36.5879 19.5244 36.5128 19.46 36.3969C19.4228 36.33 19.3051 36.2888 19.2006 36.3657C19.078 36.4559 19.1018 36.6811 19.2358 36.7534C19.5657 36.9312 19.7798 36.6562 19.8942 36.4348C19.863 36.4306 19.8314 36.4232 19.8002 36.4168Z" fill="#5AA587"/>
<path d="M25.0052 36.2418C24.9907 36.1697 24.9154 36.0325 24.8227 36.023C24.8227 36.023 24.7134 35.8307 24.8376 35.7607C24.8376 35.7607 24.9742 35.8349 25.0197 35.9672C25.0652 36.0996 25.0052 36.2418 25.0052 36.2418Z" fill="#FFE15A"/>
<path d="M25.0917 35.8926C24.9972 35.7793 24.9296 35.7434 24.8622 35.8311C24.8622 35.8311 24.7119 35.6888 24.8007 35.5443C24.8007 35.5443 24.9397 35.5278 25.0197 35.6249C25.0998 35.7223 25.0917 35.8926 25.0917 35.8926Z" fill="#FFE15A"/>
<path d="M25.1 35.6204C24.9941 35.5309 24.9168 35.4746 24.8443 35.5753C24.8443 35.5753 24.6984 35.496 24.7808 35.3173C24.7808 35.3173 24.9064 35.2936 24.9961 35.3708C25.086 35.4478 25.1 35.6204 25.1 35.6204Z" fill="#FFE15A"/>
<path d="M25.0565 35.2846C24.9413 35.2283 24.8772 35.2349 24.8237 35.3575C24.8237 35.3575 24.6669 35.3256 24.6908 35.1316C24.6908 35.1316 24.82 35.0191 24.918 35.068C25.0159 35.1169 25.0565 35.2846 25.0565 35.2846Z" fill="#FFE15A"/>
<path d="M22.5376 31.7021C22.6381 31.7021 22.7197 31.6204 22.7197 31.5195C22.7197 31.4187 22.6381 31.3369 22.5376 31.3369C22.437 31.3369 22.3554 31.4187 22.3554 31.5195C22.3554 31.6204 22.437 31.7021 22.5376 31.7021Z" fill="#F5F5F5"/>
<path d="M22.5377 31.5858C22.5742 31.5858 22.6038 31.5561 22.6038 31.5196C22.6038 31.483 22.5742 31.4534 22.5377 31.4534C22.5012 31.4534 22.4717 31.483 22.4717 31.5196C22.4717 31.5561 22.5012 31.5858 22.5377 31.5858Z" fill="#41479B"/>
<path d="M22.9136 31.0009C22.9953 31.0009 23.0615 30.9345 23.0615 30.8526C23.0615 30.7706 22.9953 30.7042 22.9136 30.7042C22.8319 30.7042 22.7656 30.7706 22.7656 30.8526C22.7656 30.9345 22.8319 31.0009 22.9136 31.0009Z" fill="#F5F5F5"/>
<path d="M22.914 30.9064C22.9436 30.9064 22.9676 30.8824 22.9676 30.8526C22.9676 30.8229 22.9436 30.7988 22.914 30.7988C22.8843 30.7988 22.8603 30.8229 22.8603 30.8526C22.8603 30.8824 22.8843 30.9064 22.914 30.9064Z" fill="#41479B"/>
<path d="M17.6461 34.439C17.4771 34.569 16.8926 34.2825 16.4817 34.4194C15.9506 34.5965 15.955 34.9379 15.955 34.9379C15.955 34.9379 16.286 34.5271 16.8372 34.7293C17.1422 34.8411 17.3195 34.8469 17.3195 34.8469L17.6461 34.439Z" fill="#FFF5E6"/>
<path d="M27.2446 32.4331C27.1324 32.4185 26.9909 32.3842 26.981 32.213C26.981 32.213 27.2348 32.1886 27.2348 32.2081C27.2348 32.2277 27.2446 32.4331 27.2446 32.4331Z" fill="#FFE15A"/>
<path d="M29.7978 31.7971C29.6709 31.833 29.5472 31.859 29.5082 32.0157C29.5082 32.0157 29.378 31.7548 29.5602 31.5982C29.5934 31.5696 29.7978 31.7971 29.7978 31.7971Z" fill="#FF4B55"/>
<path d="M29.2567 31.3601C29.1299 31.3959 29.0062 31.422 28.9671 31.5786C28.9671 31.5786 28.837 31.3178 29.0191 31.1612C29.0523 31.1326 29.2567 31.3601 29.2567 31.3601Z" fill="#FF4B55"/>
<path d="M29.7597 32.2669C29.8379 32.2473 29.975 32.0712 29.7989 31.7973C29.6227 31.5233 30.3957 31.9342 30.425 32.1594C30.4543 32.3846 30.4837 32.7855 30.3076 32.678C30.1314 32.5702 29.7597 32.2669 29.7597 32.2669Z" fill="#FFE15A"/>
<path d="M28.9218 32.2962C28.8957 32.1527 28.9218 32.0548 28.7391 31.9244C28.5565 31.794 28.5305 31.7222 28.5305 31.6373C28.5305 31.6373 28.6299 31.7434 28.8061 31.7873C28.9139 31.8143 29.0067 31.8917 29.0067 31.8917C29.0067 31.8917 29.0524 31.7286 28.8892 31.6373C28.8892 31.6373 29.1764 31.6373 29.2219 31.8982C29.2676 32.159 29.1175 32.1983 29.3327 32.2243C29.5479 32.2504 30.0503 32.1461 30.2263 32.544C30.4024 32.9418 29.8677 32.6548 29.7241 32.6027C29.5806 32.5505 29.124 32.6613 29.0522 32.5635C28.9805 32.4657 28.9218 32.2962 28.9218 32.2962Z" fill="#FF4B55"/>
<path d="M30.802 33.0105L30.0291 31.7385C30.0291 31.7385 29.261 31.4417 29.2545 31.4025C29.2479 31.3633 29.0001 31.0438 29.0001 30.9981C29.0001 30.9524 29.0261 30.7306 29.124 30.6916C29.2218 30.6524 29.5334 30.7839 29.6687 30.8185C29.8041 30.8531 30.0176 30.6003 30.0176 30.6003C30.0176 30.6003 31.2635 30.8351 31.3549 30.9852C31.4462 31.1352 31.8768 32.2115 31.8963 32.3225C31.916 32.4333 31.8963 33.1966 31.8703 33.1836C31.8441 33.1702 30.802 33.0105 30.802 33.0105Z" fill="#FFF5E6"/>
<path d="M29.0257 31.2199C29.0257 31.2199 29.2671 31.3699 29.3975 31.4156C29.528 31.4612 29.7467 31.2168 29.7107 31.083C29.6651 30.9133 29.4693 30.9133 29.3781 30.7764C29.2867 30.6395 29.0715 30.6395 28.954 30.809C28.8364 30.9785 29.0257 31.2199 29.0257 31.2199ZM29.3328 31.0208C29.3887 30.9813 29.5008 30.9856 29.4999 31.0615C29.499 31.1375 29.3647 31.2226 29.3112 31.1542C29.2674 31.0985 29.2965 31.0466 29.3328 31.0208ZM29.0706 30.8558C29.1032 30.7958 29.2058 30.7502 29.2385 30.8186C29.2712 30.8871 29.1883 31.0228 29.11 30.9851C29.0463 30.9546 29.0493 30.8951 29.0706 30.8558Z" fill="#FF4B55"/>
<path d="M28.7068 35.7435C28.5768 35.7566 28.4048 35.7387 28.369 35.4445C28.328 35.1074 28.2261 34.9897 28.0572 35.0677C27.8884 35.1457 27.9302 35.2804 27.9302 35.2804C27.9302 35.2804 27.7443 35.7696 27.8421 35.9652C27.9399 36.161 28.1649 36.3957 28.3313 36.4349C28.4977 36.474 28.8402 36.249 28.8402 36.249L28.7068 35.7435Z" fill="#FFF5E6"/>
<path d="M29.6457 34.6055C29.5349 34.5533 28.1651 33.601 28.0019 33.2421C27.8387 32.8833 27.9301 32.6224 27.7148 32.6094C27.4995 32.5963 27.1342 32.5833 27.1668 32.3158C27.1995 32.0484 27.5582 32.218 27.6561 32.1658C27.7539 32.1137 28.0605 31.9701 28.1193 32.1789C28.178 32.3876 28.1193 32.5769 28.204 32.6812C28.2888 32.7856 28.6672 32.9683 28.7324 32.9551C28.7976 32.9419 28.9368 32.925 29.0434 32.9923C29.1498 33.0596 29.2086 33.1508 29.2086 33.1508C29.2086 33.1508 29.6098 33.1671 29.6669 33.2209C29.724 33.2747 29.9392 33.5617 29.9392 33.5617L29.6457 34.6055Z" fill="#FFE6D7"/>
<path d="M29.5018 34.3901C29.5018 34.3901 29.241 34.2923 29.0549 33.9302C28.8691 33.568 28.6832 33.7148 28.4092 33.5191C28.1352 33.3234 28.3113 33.0299 28.3895 32.9125C28.4677 32.795 28.4139 32.4918 28.1449 32.5014C27.9678 32.5079 27.4012 33.0592 27.6556 33.6071C27.6556 33.6071 27.6948 33.5093 27.7926 33.3918C27.7926 33.3918 27.6458 33.7539 27.9883 34.155C27.9883 34.155 27.9785 33.9495 28.0861 33.8125C28.0861 33.8125 28.0959 34.3214 28.4873 34.6441C28.4873 34.6441 28.4383 34.3115 28.497 34.1745C28.497 34.1745 28.5557 34.6148 29.1331 35.016C29.1331 35.016 29.0451 34.8594 29.0645 34.605L29.5538 34.8593L29.5018 34.3901Z" fill="#5AA587"/>
<path d="M33.2238 36.0632C33.2238 36.0632 33.3998 36.6014 32.9205 36.7579C32.4411 36.9145 32.1768 36.709 32.0007 36.7579C31.8247 36.8068 31.8638 37.12 32.1084 37.3841C32.353 37.6483 32.5976 37.6776 32.8716 37.4819C33.1456 37.2862 33.1652 37.1102 33.4489 37.1786C33.7326 37.2472 34.124 36.9732 34.124 36.9732C34.124 36.9732 33.8696 35.8675 33.8403 35.8773C33.8108 35.8871 33.2238 36.0632 33.2238 36.0632Z" fill="#F5DCD2"/>
<path d="M35.7112 34.717C35.7112 34.717 35.3734 34.3921 34.0608 33.9893C32.7483 33.5864 32.0465 33.4175 32.0465 33.4175L31.0199 33.0926C31.0199 33.0926 30.5367 33.0907 30.2196 33.0007C29.9025 32.9106 29.9023 32.9106 29.9023 32.9106C29.9023 32.9106 29.0576 34.1062 29.6943 35.3147L29.4734 35.5227C29.4734 35.5227 29.2412 35.5936 29.0649 35.6556C28.8887 35.7178 29.0186 36.0555 29.0186 36.0555L29.6944 36.3674L31.6697 36.2764C31.6697 36.2764 31.7087 36.1855 32.3585 36.3933C33.0083 36.6012 33.2941 36.1335 34.5416 36.0944C35.7891 36.0555 35.7112 34.717 35.7112 34.717Z" fill="#FFF5E6"/>
<path d="M30.0938 30.0523C30.0938 30.0523 29.8949 30.2512 30.0025 30.4631C30.0025 30.4631 30.2243 30.2349 30.4069 30.1827C30.6881 30.1024 30.7462 30.256 31.3674 30.2854C31.7584 30.3039 31.9163 30.6785 32.2986 30.5872C32.7079 30.4893 33.0455 30.6768 33.0455 30.6768C33.0455 30.6768 32.8107 30.6475 32.6198 30.8286C32.4291 31.0095 32.0915 30.9704 32.0915 30.9704C32.0915 30.9704 32.3997 31.1857 32.6589 31.0829C32.9182 30.9801 33.2901 31.1709 33.2901 31.1709C33.2216 31.1661 33.07 31.1905 32.8987 31.3714C32.7275 31.5525 32.3458 31.5083 32.3458 31.5083C32.4142 31.5915 32.605 31.6844 32.7853 31.6499C33.1939 31.5716 33.63 31.7539 33.63 31.7539C33.63 31.7539 33.3702 31.663 33.0193 31.9229C32.6684 32.1827 32.2655 32.0269 32.2655 32.0269C32.2655 32.1958 32.6171 32.8466 33.2411 32.8245C34.0179 32.7971 34.2148 33.2485 34.2148 33.2485C34.2148 33.2485 33.903 33.1445 33.5 33.2095C32.7197 33.3354 32.1876 32.8846 32.1876 32.8846C32.1876 32.8846 32.3175 33.4953 32.8502 33.4694C33.383 33.4434 34.0587 33.9892 34.0587 33.9892C34.0587 33.9892 33.4584 33.881 32.6832 33.8715C32.4282 33.8684 32.2209 33.7678 32.0436 33.6483C31.5775 33.3334 31.1469 33.3334 31.1469 33.3334C31.6557 33.4509 31.9199 34.0085 31.9199 34.0085C31.9199 34.0085 31.5285 33.666 30.961 33.666C30.3934 33.666 30.2174 33.0007 30.2174 33.0007C30.7457 33.0104 30.824 32.5799 30.824 32.5799C30.824 32.5799 30.9805 32.6288 31.1273 32.805C31.2202 32.9164 31.3771 32.9542 31.4845 32.9693C31.5237 32.6262 31.2646 32.3129 31.2646 32.3129C31.2646 32.3129 31.6155 31.7802 31.1606 31.2083C30.7057 30.6365 29.6661 30.8185 29.6661 30.8185C29.5591 30.3392 29.9634 30.0392 30.0938 30.0523Z" fill="#5AA587"/>
<path d="M31.1504 31.944C30.9808 31.9179 30.1914 31.6569 30.2046 31.3047C30.2178 30.9526 30.6873 31.0764 30.6612 31.2656C30.6351 31.4547 30.4655 31.4156 30.4655 31.4156C30.4655 31.4156 30.4819 31.5008 30.8308 31.5721C31.1177 31.6308 31.1504 31.944 31.1504 31.944Z" fill="#5AA587"/>
<path d="M29.0629 35.6556C29.0629 35.6556 28.5736 35.5773 28.5932 35.9295C28.6129 36.2817 28.8933 36.6535 29.4738 36.8167C29.4738 36.8167 29.2585 36.6309 29.3074 36.5231C29.3563 36.4155 29.6009 36.3862 29.7281 36.5721C29.8552 36.7579 30.0706 36.8363 30.2564 36.8068C30.2564 36.8068 29.9238 36.5622 30.1585 36.4742C30.3701 36.3949 30.289 36.7385 30.7946 36.7971C30.7946 36.7971 30.4228 36.5035 30.638 36.4253C30.8534 36.3471 30.9707 36.8558 31.3524 36.8167C31.3524 36.8167 31.0328 36.4971 31.2056 36.4449C31.4779 36.3627 31.5481 36.8363 32.0372 36.6308C32.0372 36.6308 31.7926 36.5231 31.9883 36.259C32.184 35.9947 31.9101 35.6621 31.773 35.5252C31.6361 35.3883 31.5382 35.3002 31.5773 35.1631C31.5773 35.1631 31.2283 35.3816 31.4044 35.7664C31.5699 36.1278 30.9003 35.9282 30.3803 35.8839C29.8454 35.8382 29.5281 36.145 29.1866 36.0404C28.8672 35.9425 29.0629 35.6556 29.0629 35.6556Z" fill="#5AA587"/>
<path d="M38.5294 35.8215C38.5294 35.8215 37.8876 36.1175 37.5238 35.8186C37.1599 35.5197 37.0611 35.8735 36.6322 35.6135C36.2033 35.3537 36.2293 35.4966 35.8914 35.4966C35.5537 35.4966 35.3067 34.9508 35.5146 34.574C35.5146 34.574 34.8088 34.3003 34.9538 33.7345C35.0614 33.3138 35.5926 33.4435 35.5926 33.4435C35.5926 33.4435 36.1532 33.0912 36.5412 33.5475C36.8583 33.9206 36.6842 34.1713 37.217 34.2363C37.7497 34.3012 37.8278 34.847 38.3995 34.7821C38.3995 34.7821 38.0097 35.2889 37.4119 34.964C37.4119 34.9639 37.4259 35.4534 38.5294 35.8215Z" fill="#5AA587"/>
<path d="M32.8497 36.7776C32.8497 36.7776 32.3018 37.2668 33.3781 37.5603C33.3781 37.5603 33.3095 37.4722 33.2313 37.3157C33.2313 37.3157 33.5639 37.5603 33.9946 37.5407C33.9946 37.5407 33.8674 37.4428 33.838 37.3253C33.838 37.3253 34.2294 37.433 34.5131 37.2471C34.5131 37.2471 34.1706 37.2275 33.9554 36.9046C33.9554 36.9046 33.8575 37.1003 33.6521 37.0025C33.4466 36.9046 33.3288 37.0454 33.1432 37.0514C32.9916 37.0564 32.8595 36.9782 32.8497 36.7776Z" fill="#5AA587"/>
<path d="M33.1206 33.7573C33.1206 33.7573 33.512 33.9399 33.3293 34.2856C33.2075 34.5161 32.826 34.5715 32.677 34.3574C32.5499 34.1748 32.6507 33.9975 32.7846 33.9725C32.925 33.9464 33.0096 34.0051 33.075 34.1225C33.0749 34.1226 33.3163 34.0313 33.1206 33.7573Z" fill="#5AA587"/>
<path d="M31.3625 34.3656C31.3625 34.3656 30.5126 34.3979 30.5553 34.9869C30.574 35.2461 30.9245 35.427 31.1457 35.2911C31.3344 35.1752 31.3038 34.982 31.2054 34.8964C31.097 34.802 30.9897 34.836 30.8833 34.9173C30.8833 34.9172 30.8293 34.5955 31.3625 34.3656Z" fill="#5AA587"/>
<path d="M29.665 33.2208C29.665 33.2208 29.2063 32.9131 29.0276 33.2794C28.9491 33.4406 29.0956 33.67 29.2747 33.6655C29.4275 33.6616 29.4761 33.5357 29.4472 33.4506C29.4151 33.3567 29.3393 33.3399 29.2477 33.3514C29.2477 33.3515 29.2199 33.1132 29.665 33.2208Z" fill="#5AA587"/>
<path d="M29.0415 32.9921C29.0415 32.9921 28.6183 32.7081 28.4536 33.0462C28.3811 33.1949 28.5163 33.4065 28.6815 33.4023C28.8224 33.3988 28.8672 33.2827 28.8405 33.2041C28.811 33.1176 28.7411 33.1019 28.6564 33.1126C28.6564 33.1127 28.6308 32.8929 29.0415 32.9921Z" fill="#5AA587"/>
<path d="M30.6265 34.869C30.6265 34.869 29.8952 34.8969 29.9319 35.4037C29.9481 35.6266 30.2497 35.7824 30.44 35.6654C30.6024 35.5656 30.6111 35.3825 30.5407 35.2952C30.4184 35.1435 30.2716 35.212 30.2716 35.212C30.2716 35.212 30.1677 35.0669 30.6265 34.869Z" fill="#5AA587"/>
<path d="M30.0905 35.2706C30.0905 35.2706 29.2833 35.1924 29.3433 35.7372C29.3589 35.8793 29.5465 35.9795 29.6683 35.9047C29.7722 35.8409 29.7777 35.7237 29.7326 35.6679C29.6544 35.5709 29.5606 35.6147 29.5606 35.6147C29.5606 35.6147 29.6111 35.3734 30.0905 35.2706Z" fill="#5AA587"/>
<path d="M35.2697 37.8618C35.2697 37.8618 35.1593 38.086 35.0878 38.3036C35.0266 38.4898 34.711 38.6154 34.542 38.4985C34.3731 38.3816 34.0878 38.032 34.2047 37.9541C34.3216 37.8762 34.8278 37.9397 34.9059 37.6668C34.9839 37.3939 34.9578 37.2119 34.9578 37.2119C34.9578 37.2119 34.2806 37.4134 33.9576 36.9046C33.6348 36.3957 33.6809 35.899 33.5543 35.6525C33.4554 35.4597 33.2814 35.3666 33.2814 35.3666C33.4803 34.5789 35.9064 34.0152 35.6248 36.0597L36.006 36.9261L35.2697 37.8618Z" fill="#FFE6D7"/>
<path d="M36.128 37.8278C35.9616 37.9355 35.3517 38.2453 34.9734 38.0105C34.6641 37.8185 34.6602 37.5994 34.856 37.5505C35.0517 37.5016 35.1593 37.6386 35.267 37.5505C35.3746 37.4625 35.9813 36.9634 35.7562 36.8069C35.5311 36.6503 35.4094 36.5236 35.4138 36.2491C35.417 36.0469 35.5932 35.8512 35.8019 35.8317C36.0622 35.8073 36.2651 35.9164 36.539 35.9164L36.2194 36.0795C36.4249 36.1774 36.4412 36.4546 36.6858 36.5035C36.6858 36.5035 36.5194 36.6927 36.3107 36.634C36.3107 36.634 36.3825 36.8297 36.5782 36.8558C36.5782 36.8558 36.3956 37.0645 36.226 37.1233C36.226 37.1233 36.3368 37.2015 36.5097 37.169C36.5097 37.169 36.239 37.5669 35.8346 37.668L36.128 37.8278Z" fill="#5AA587"/>
<path d="M34.9492 37.0828C34.9492 37.0828 34.8405 37.0639 34.8312 36.9316C34.8259 36.8553 34.902 36.7564 35.0316 36.7638C35.1835 36.7725 35.2865 36.9742 35.2137 37.1079C35.0275 37.4498 34.3342 37.3125 34.2494 37.1885C34.2493 37.1885 34.8037 37.2146 34.9492 37.0828Z" fill="#5AA587"/>
<path d="M34.6252 38.7086C34.5951 38.6662 34.5707 38.5513 34.6293 38.4803C34.6293 38.4803 34.5975 38.3164 34.4731 38.3751C34.4731 38.3751 34.4202 38.5064 34.4626 38.5978C34.5048 38.689 34.6252 38.7086 34.6252 38.7086Z" fill="#FFE15A"/>
<path d="M34.3714 38.6166C34.3735 38.4984 34.3999 38.4336 34.4951 38.4239C34.4951 38.4239 34.5194 38.2527 34.3779 38.2527C34.3779 38.2527 34.273 38.3456 34.272 38.4463C34.2712 38.5469 34.3714 38.6166 34.3714 38.6166Z" fill="#FFE15A"/>
<path d="M34.2141 38.502C34.2373 38.3861 34.2592 38.3054 34.3651 38.2976C34.3651 38.2976 34.4214 38.1573 34.2654 38.1378C34.2654 38.1378 34.1658 38.2179 34.1468 38.3167C34.1278 38.4155 34.2141 38.502 34.2141 38.502Z" fill="#FFE15A"/>
<path d="M34.057 38.3222C34.105 38.2142 34.1528 38.171 34.2578 38.1867C34.2578 38.1867 34.3481 38.0595 34.2237 37.991C34.2237 37.991 34.0721 38.0343 34.0319 38.1266C33.9918 38.2189 34.057 38.3222 34.057 38.3222Z" fill="#FFE15A"/>
<path d="M32.198 37.6604C32.1758 37.6133 32.1721 37.4959 32.2424 37.4365C32.2424 37.4365 32.2402 37.2696 32.1073 37.3051C32.1073 37.3051 32.0321 37.425 32.0574 37.5222C32.0829 37.6197 32.198 37.6604 32.198 37.6604Z" fill="#FFE15A"/>
<path d="M31.9647 37.5248C31.9877 37.4089 32.0252 37.3499 32.1205 37.3572C32.1205 37.3572 32.1748 37.193 32.0356 37.1678C32.0356 37.1678 31.916 37.2406 31.8972 37.3395C31.8783 37.4385 31.9647 37.5248 31.9647 37.5248Z" fill="#FFE15A"/>
<path d="M31.8303 37.3842C31.8736 37.2743 31.9095 37.1988 32.0151 37.2099C32.0151 37.2099 32.0954 37.0819 31.9453 37.0349C31.9453 37.0349 31.8332 37.096 31.797 37.1899C31.7607 37.2838 31.8303 37.3842 31.8303 37.3842Z" fill="#FFE15A"/>
<path d="M31.7079 37.1791C31.7743 37.0813 31.829 37.0473 31.9295 37.0814C31.9295 37.0814 32.0409 36.9722 31.9306 36.8827C31.9306 36.8827 31.7738 36.8984 31.7179 36.982C31.6621 37.0659 31.7079 37.1791 31.7079 37.1791Z" fill="#FFE15A"/>
<path d="M28.9476 31.1547C28.9264 31.2606 28.9802 31.3764 29.2347 31.4873C29.4891 31.5981 29.4826 31.5525 29.6522 31.7677C29.8218 31.9831 29.8414 31.9895 30.0502 32.0286C30.2588 32.0677 30.3567 32.7134 30.1088 32.6157C29.861 32.5178 29.8284 32.3156 29.5545 32.3809C29.2805 32.4463 29.137 32.5375 28.9217 32.2962C28.9217 32.2962 28.7131 32.5766 29.1044 32.6941C29.4958 32.8116 29.7093 32.8206 29.9025 32.9106C30.0959 33.0006 30.7814 33.2209 30.8264 32.5799C30.8395 32.3941 30.7025 32.3223 30.6242 32.1853C30.546 32.0484 30.4676 31.957 30.2785 31.807C30.0892 31.657 30.2067 31.5331 29.9002 31.4874C29.5936 31.4417 29.3391 31.4482 29.2479 31.2265C29.1563 31.0047 28.9737 31.0242 28.9476 31.1547Z" fill="#FFE6D7"/>
<path d="M34.0842 34.2645C34.0842 34.2645 34.143 34.0308 33.8704 33.9318C33.9344 33.9512 33.9932 33.9686 34.0604 33.9893C34.1178 34.0069 34.1633 34.0234 34.2169 34.0406C34.2378 34.0689 34.2659 34.0838 34.2801 34.1234C34.363 34.3556 34.1579 34.6569 33.9133 34.624C33.7047 34.5959 33.6455 34.4123 33.7137 34.303C33.7851 34.1886 33.9423 34.1617 34.0842 34.2645Z" fill="#5AA587"/>
<path d="M34 36.7457C34.2958 36.8119 34.4289 36.6976 34.4289 36.6976C34.4289 36.6976 34.3202 36.6788 34.3109 36.5465C34.3056 36.4702 34.3817 36.3713 34.5113 36.3787C34.6632 36.3874 34.7662 36.589 34.6933 36.7227C34.5331 37.0168 34.0779 36.9473 33.8773 36.7388C33.8668 36.7174 33.8558 36.6961 33.8464 36.6747C33.8903 36.7025 33.9465 36.7338 34 36.7457Z" fill="#5AA587"/>
<path d="M33.7008 36.2514C33.6932 36.2179 33.6826 36.1841 33.6761 36.1522C34.0238 36.2928 34.1252 36.1158 34.1252 36.1158C34.1252 36.1158 34.0165 36.0969 34.0072 35.9646C34.0018 35.8883 34.078 35.7894 34.2076 35.7969C34.3594 35.8056 34.4625 36.0073 34.3896 36.141C34.2198 36.4526 33.917 36.3658 33.7008 36.2514Z" fill="#5AA587"/>
<path d="M32.919 36.4168C33.121 36.5978 33.2754 36.5879 33.2754 36.5879C33.2754 36.5879 33.1948 36.5128 33.2591 36.3969C33.2963 36.33 33.4141 36.2888 33.5186 36.3657C33.6412 36.4559 33.6173 36.6811 33.4833 36.7534C33.1535 36.9312 32.9394 36.6562 32.825 36.4348C32.856 36.4306 32.8875 36.4232 32.919 36.4168Z" fill="#5AA587"/>
<path d="M27.7129 36.2418C27.7274 36.1697 27.8027 36.0325 27.8954 36.023C27.8954 36.023 28.0047 35.8307 27.8805 35.7607C27.8805 35.7607 27.744 35.8349 27.6985 35.9672C27.6529 36.0996 27.7129 36.2418 27.7129 36.2418Z" fill="#FFE15A"/>
<path d="M27.6264 35.8926C27.7209 35.7793 27.7885 35.7434 27.8559 35.8311C27.8559 35.8311 28.0062 35.6888 27.9175 35.5443C27.9175 35.5443 27.7785 35.5278 27.6984 35.6249C27.6184 35.7222 27.6264 35.8926 27.6264 35.8926Z" fill="#FFE15A"/>
<path d="M27.6182 35.6204C27.7241 35.5309 27.8014 35.4746 27.8739 35.5753C27.8739 35.5753 28.0198 35.496 27.9374 35.3173C27.9374 35.3173 27.8118 35.2936 27.722 35.3708C27.6323 35.4478 27.6182 35.6204 27.6182 35.6204Z" fill="#FFE15A"/>
<path d="M27.6618 35.2846C27.777 35.2283 27.8411 35.2349 27.8946 35.3575C27.8946 35.3575 28.0515 35.3256 28.0275 35.1316C28.0275 35.1316 27.8983 35.0191 27.8003 35.068C27.7024 35.1171 27.6618 35.2846 27.6618 35.2846Z" fill="#FFE15A"/>
<path d="M30.1804 31.7021C30.281 31.7021 30.3626 31.6204 30.3626 31.5195C30.3626 31.4187 30.281 31.3369 30.1804 31.3369C30.0798 31.3369 29.9983 31.4187 29.9983 31.5195C29.9983 31.6204 30.0798 31.7021 30.1804 31.7021Z" fill="#F5F5F5"/>
<path d="M30.1807 31.5858C30.2171 31.5858 30.2467 31.5561 30.2467 31.5196C30.2467 31.483 30.2171 31.4534 30.1807 31.4534C30.1442 31.4534 30.1146 31.483 30.1146 31.5196C30.1146 31.5561 30.1442 31.5858 30.1807 31.5858Z" fill="#41479B"/>
<path d="M29.8035 31.0009C29.8852 31.0009 29.9514 30.9345 29.9514 30.8526C29.9514 30.7706 29.8852 30.7042 29.8035 30.7042C29.7218 30.7042 29.6555 30.7706 29.6555 30.8526C29.6555 30.9345 29.7218 31.0009 29.8035 31.0009Z" fill="#F5F5F5"/>
<path d="M29.8037 30.9064C29.8334 30.9064 29.8574 30.8824 29.8574 30.8526C29.8574 30.8229 29.8334 30.7988 29.8037 30.7988C29.7741 30.7988 29.7501 30.8229 29.7501 30.8526C29.7501 30.8824 29.7741 30.9064 29.8037 30.9064Z" fill="#41479B"/>
<path d="M35.0729 34.439C35.2418 34.569 35.8263 34.2825 36.2372 34.4194C36.7684 34.5965 36.764 34.9379 36.764 34.9379C36.764 34.9379 36.4329 34.5271 35.8818 34.7293C35.5768 34.8411 35.3994 34.8469 35.3994 34.8469L35.0729 34.439Z" fill="#FFF5E6"/>
</g>
<defs>
<clipPath id="clip0_9_1231">
<rect width="50" height="50" fill="white" transform="translate(0.0664062 0.602539)"/>
</clipPath>
</defs>
</svg>
