<svg width="51" height="51" viewBox="0 0 51 51" fill="none" xmlns="http://www.w3.org/2000/svg">
<g clip-path="url(#clip0_9_1222)">
<path d="M50.3617 15.7751H0.361816V10.0854C0.361816 9.6093 0.747851 9.22327 1.22392 9.22327H49.4997C49.9758 9.22327 50.3618 9.6093 50.3618 10.0854L50.3617 15.7751Z" fill="#73AF00"/>
<path d="M50.3617 22.3273H0.361816V28.879H50.3617V22.3273Z" fill="#73AF00"/>
<path d="M50.3606 15.7755H0.360718V22.3273H50.3606V15.7755Z" fill="#FFE15A"/>
<path d="M49.4985 41.9819H1.22283C0.746752 41.9819 0.360718 41.5959 0.360718 41.1198V35.4302H50.3606V41.1198C50.3606 41.596 49.9746 41.9819 49.4985 41.9819Z" fill="#73AF00"/>
<path d="M50.3606 28.879H0.360718V35.4308H50.3606V28.879Z" fill="#FFE15A"/>
<path d="M19.3262 28.8785H1.22283C0.746752 28.8785 0.360718 28.4925 0.360718 28.0164V10.0854C0.360718 9.6093 0.746752 9.22327 1.22283 9.22327H19.3262C19.8023 9.22327 20.1883 9.6093 20.1883 10.0854V28.0164C20.1882 28.4925 19.8023 28.8785 19.3262 28.8785Z" fill="#FF4B55"/>
<path d="M10.0614 13.8485L8.81548 17.584L4.87779 17.6145C4.66197 17.6162 4.57242 17.8916 4.74615 18.0199L7.91392 20.3591L6.72613 24.1136C6.66109 24.3195 6.89546 24.4897 7.07095 24.3642L10.2747 22.0743L13.4784 24.3642C13.654 24.4898 13.8884 24.3195 13.8232 24.1136L12.6354 20.3592L15.8032 18.02C15.9769 17.8917 15.8873 17.6161 15.6715 17.6146L11.7338 17.5841L10.4876 13.8486C10.4193 13.6436 10.1296 13.6436 10.0614 13.8485Z" fill="#F5F5F5"/>
</g>
<defs>
<clipPath id="clip0_9_1222">
<rect width="50" height="50" fill="white" transform="translate(0.359375 0.602539)"/>
</clipPath>
</defs>
</svg>
