<svg width="51" height="51" viewBox="0 0 51 51" fill="none" xmlns="http://www.w3.org/2000/svg">
    <g clip-path="url(#clip0_9_1212)">
        <path
            d="M49.9273 41.9818H1.65166C1.17559 41.9818 0.789551 41.5958 0.789551 41.1197V10.0854C0.789551 9.6093 1.17559 9.22327 1.65166 9.22327H49.9274C50.4035 9.22327 50.7896 9.6093 50.7896 10.0854V41.1197C50.7895 41.5959 50.4034 41.9818 49.9273 41.9818Z"
            fill="#41479B" />
        <path
            d="M47.3397 36.8093H12.8571C12.381 36.8093 11.995 36.4233 11.995 35.9472C11.995 35.4711 12.381 35.0851 12.8571 35.0851H47.3397L48.2019 35.9472L47.3397 36.8093Z"
            fill="#FFE15A" />
        <path
            d="M47.7709 34.2232H12.8573C12.8573 34.2232 26.6503 18.706 39.5814 15.2578C39.5814 15.2578 35.271 26.4646 45.6158 33.3612H47.771C48.0091 33.3612 48.2021 33.5542 48.2021 33.7922C48.202 34.0301 48.0091 34.2232 47.7709 34.2232Z"
            fill="#FFE15A" />
        <path
            d="M11.3515 29.2327L11.6859 30.2357L12.7432 30.2439C12.88 30.245 12.9368 30.4197 12.8267 30.5009L11.9762 31.129L12.2951 32.1371C12.3364 32.2675 12.1878 32.3755 12.0765 32.2958L11.2163 31.6811L10.3562 32.2958C10.2448 32.3754 10.0962 32.2675 10.1375 32.1371L10.4564 31.129L9.60596 30.5009C9.49581 30.4196 9.55264 30.2449 9.68946 30.2439L10.7467 30.2357L11.0812 29.2327C11.1244 29.1028 11.3081 29.1028 11.3515 29.2327Z"
            fill="#F5F5F5" />
        <path
            d="M11.3258 15.4433L11.5971 16.257L12.4548 16.2636C12.566 16.2645 12.612 16.4062 12.5226 16.4721L11.8327 16.9817L12.0913 17.7995C12.1248 17.9054 12.0042 17.9929 11.914 17.9284L11.2162 17.4296L10.5183 17.9284C10.428 17.9929 10.3075 17.9053 10.341 17.7995L10.5997 16.9817L9.90971 16.4721C9.82036 16.4062 9.86635 16.2645 9.97748 16.2636L10.8352 16.257L11.1065 15.4433C11.1417 15.3381 11.2908 15.3381 11.3258 15.4433Z"
            fill="#F5F5F5" />
        <path
            d="M4.82765 20.4784L5.09894 21.2921L5.95665 21.2988C6.06779 21.2996 6.11378 21.4413 6.02443 21.5072L5.33449 22.0168L5.59318 22.8346C5.62667 22.9405 5.50607 23.028 5.41583 22.9635L4.71798 22.4647L4.02013 22.9635C3.9298 23.028 3.80929 22.9404 3.84279 22.8346L4.10148 22.0168L3.41154 21.5072C3.32219 21.4413 3.36818 21.2996 3.47932 21.2988L4.33703 21.2921L4.60832 20.4784C4.64357 20.3731 4.79259 20.3731 4.82765 20.4784Z"
            fill="#F5F5F5" />
        <path
            d="M15.9732 20.1353L16.182 20.7615L16.842 20.7666C16.9275 20.7673 16.9629 20.8762 16.8942 20.927L16.3631 21.3191L16.5622 21.9484C16.588 22.0299 16.4953 22.0973 16.4257 22.0475L15.8888 21.6637L15.3519 22.0475C15.2824 22.0972 15.1896 22.0299 15.2154 21.9484L15.4145 21.3191L14.8834 20.927C14.8147 20.8762 14.8501 20.7673 14.9356 20.7666L15.5956 20.7615L15.8044 20.1353C15.8315 20.0542 15.9461 20.0542 15.9732 20.1353Z"
            fill="#F5F5F5" />
    </g>
    <defs>
        <clipPath id="clip0_9_1212">
            <rect width="50" height="50" fill="white" transform="translate(0.789062 0.602539)" />
        </clipPath>
    </defs>
</svg>
