<svg width="51" height="51" viewBox="0 0 51 51" fill="none" xmlns="http://www.w3.org/2000/svg">
<g clip-path="url(#clip0_9_1208)">
<path d="M49.2213 41.9818H0.945604C0.469531 41.9818 0.0834961 41.5958 0.0834961 41.1197V10.0854C0.0834961 9.6093 0.469531 9.22327 0.945604 9.22327H49.2214C49.6975 9.22327 50.0835 9.6093 50.0835 10.0854V41.1197C50.0834 41.5959 49.6974 41.9818 49.2213 41.9818Z" fill="#FF4B55"/>
<path d="M19.0489 25.6025H0.945604C0.469531 25.6025 0.0834961 25.2165 0.0834961 24.7404V10.0854C0.0834961 9.6093 0.469531 9.22327 0.945604 9.22327H19.049C19.5251 9.22327 19.9111 9.6093 19.9111 10.0854V24.7405C19.911 25.2167 19.525 25.6025 19.0489 25.6025Z" fill="#F5F5F5"/>
<path d="M16.4629 15.2577H12.1525V10.9474H7.8422V15.2577H3.53186V19.5681H7.8422V23.8784H12.1525V19.5681H16.4629V15.2577Z" fill="#FF4B55"/>
</g>
<defs>
<clipPath id="clip0_9_1208">
<rect width="50" height="50" fill="white" transform="translate(0.0820312 0.602539)"/>
</clipPath>
</defs>
</svg>
