<svg width="51" height="51" viewBox="0 0 51 51" fill="none" xmlns="http://www.w3.org/2000/svg">
<g clip-path="url(#clip0_9_1199)">
<path d="M49.9442 41.9819H1.6685C1.19243 41.9819 0.806396 41.5959 0.806396 41.1198V10.0854C0.806396 9.6093 1.19243 9.22327 1.6685 9.22327H49.9443C50.4204 9.22327 50.8064 9.6093 50.8064 10.0854V41.1198C50.8063 41.596 50.4203 41.9819 49.9442 41.9819Z" fill="#FF4B55"/>
<path d="M1.66958 9.22327C1.43647 9.22327 1.22671 9.3177 1.07153 9.46799L36.1523 41.9818H38.7386L3.3937 9.22327H1.66958Z" fill="#F5F5F5"/>
<path d="M15.4623 9.22327H12.8761L48.2209 41.9818H49.945C50.1781 41.9818 50.3878 41.8874 50.543 41.7371L15.4623 9.22327Z" fill="#F5F5F5"/>
<path d="M3.39246 9.22339L38.7372 41.9819H48.2199L12.8752 9.22339H3.39246Z" fill="#464655"/>
</g>
<defs>
<clipPath id="clip0_9_1199">
<rect width="50" height="50" fill="white" transform="translate(0.804688 0.602539)"/>
</clipPath>
</defs>
</svg>
