<svg width="51" height="51" viewBox="0 0 51 51" fill="none" xmlns="http://www.w3.org/2000/svg">
<g clip-path="url(#clip0_9_1193)">
<path d="M49.7588 41.4098H1.48308C1.00701 41.4098 0.620972 41.0237 0.620972 40.5477V9.51323C0.620972 9.03716 1.00701 8.65112 1.48308 8.65112H49.7589C50.2349 8.65112 50.621 9.03716 50.621 9.51323V40.5477C50.6209 41.0238 50.2348 41.4098 49.7588 41.4098Z" fill="#FF4B55"/>
<path d="M25.7187 16.4098C30.4763 16.4098 34.3324 20.2764 34.3324 25.0305C34.3324 29.7983 30.4763 33.6512 25.7187 33.6512C20.9508 33.6512 17.0911 29.7983 17.0911 25.0305C17.091 20.2764 20.9508 16.4098 25.7187 16.4098Z" fill="#F5F5F5"/>
<path d="M27.2853 29.8612C24.6166 29.8612 22.452 27.6966 22.452 25.031C22.452 22.3718 24.6166 20.2073 27.2853 20.2073C28.193 20.2073 29.0412 20.4616 29.7662 20.9009C29.8748 20.9667 29.9891 20.8245 29.8986 20.7353C28.8109 19.6636 27.3215 18.9999 25.6764 18.9999C22.3366 18.9999 19.6323 21.7042 19.6323 25.0312C19.6323 28.3647 22.3365 31.0688 25.6764 31.0688C27.3207 31.0688 28.8095 30.4055 29.897 29.3341C29.9875 29.245 29.8733 29.1028 29.7647 29.1685C29.0399 29.6074 28.1922 29.8612 27.2853 29.8612Z" fill="#FF4B55"/>
<path d="M26.8438 21.6503L28.1762 23.4595L30.3193 22.7845C30.5967 22.6971 30.8257 23.0132 30.6564 23.2495L29.3476 25.0758L30.6518 26.9054C30.8206 27.1422 30.5907 27.4577 30.3135 27.3696L28.1721 26.6892L26.835 28.4948C26.6619 28.7287 26.2908 28.6075 26.289 28.3166L26.2744 26.0698L24.144 25.3563C23.8681 25.2639 23.8687 24.8735 24.1448 24.7819L26.2771 24.0737L26.2973 21.827C26.2999 21.5362 26.6713 21.416 26.8438 21.6503Z" fill="#FF4B55"/>
</g>
<defs>
<clipPath id="clip0_9_1193">
<rect width="50" height="50" fill="white" transform="translate(0.621094 0.0305176)"/>
</clipPath>
</defs>
</svg>
