<svg width="51" height="51" viewBox="0 0 51 51" fill="none" xmlns="http://www.w3.org/2000/svg">
<g clip-path="url(#clip0_9_1119)">
<path d="M49.7757 41.4097H1.49999C1.02391 41.4097 0.637878 41.0236 0.637878 40.5475V9.51323C0.637878 9.03716 1.02391 8.65112 1.49999 8.65112H49.7758C50.2518 8.65112 50.6379 9.03716 50.6379 9.51323V40.5475C50.6378 41.0237 50.2517 41.4097 49.7757 41.4097Z" fill="#41479B"/>
<path d="M24.7757 8.65112H23.2784L15.293 13.8829V8.65112H10.9827V13.8829L2.99735 8.65112H1.49999C1.02391 8.65112 0.637878 9.03716 0.637878 9.51323V10.197L7.48894 14.6856H0.637878V18.9959H7.48894L0.637878 23.4846V24.1683C0.637878 24.6444 1.02391 25.0304 1.49999 25.0304H2.99735L10.9827 19.7987V25.0304H15.293V19.7987L23.2783 25.0304H24.7756C25.2517 25.0304 25.6377 24.6444 25.6377 24.1683V23.4845L18.7868 18.9959H25.6377V14.6856H18.7867L25.6377 10.197V9.51323C25.6377 9.03716 25.2519 8.65112 24.7757 8.65112Z" fill="#F5F5F5"/>
<path d="M25.6387 15.5478H14.4319V8.65125H11.8457V15.5478H0.638855V18.1339H11.8457V25.0305H14.4319V18.1339H25.6387V15.5478Z" fill="#FF4B55"/>
<path d="M10.1216 14.6856L1.04969 8.79688C0.808288 8.94971 0.638855 9.20635 0.638855 9.51328V9.55801L8.53816 14.6856H10.1216Z" fill="#FF4B55"/>
<path d="M16.8772 14.6857L25.5074 9.08357C25.3574 8.82976 25.0928 8.65125 24.7765 8.65125H24.59L15.2938 14.6857H16.8772Z" fill="#FF4B55"/>
<path d="M9.377 18.9961L0.763245 24.5875C0.91178 24.8474 1.18053 25.0306 1.50143 25.0306H1.66402L10.9604 18.9961H9.377Z" fill="#FF4B55"/>
<path d="M25.6252 24.2362L17.5524 18.9961H15.9691L25.1364 24.9467C25.4111 24.8192 25.5994 24.5521 25.6252 24.2362Z" fill="#FF4B55"/>
<path d="M34.2386 20.1454C34.1346 20.1454 34.0504 20.2297 34.0504 20.3337V23.5341C34.0504 29.9353 38.5688 31.0648 38.5688 31.0648C38.5688 31.0648 43.0873 29.9352 43.0873 23.5341V20.3337C43.0873 20.2297 43.003 20.1454 42.899 20.1454H34.2386Z" fill="#FFE15A"/>
<path d="M42.6166 20.6161V23.5341C42.6166 28.9786 39.2513 30.3518 38.569 30.5741C37.8829 30.3503 34.5211 28.9755 34.5211 23.5341V20.6161H42.6166ZM42.899 20.1454H34.2386C34.1346 20.1454 34.0504 20.2297 34.0504 20.3337V23.5341C34.0504 29.9353 38.5688 31.0648 38.5688 31.0648C38.5688 31.0648 43.0873 29.9352 43.0873 23.5341V20.3337C43.0873 20.2297 43.003 20.1454 42.899 20.1454Z" fill="#F5F5F5"/>
<path d="M39.0741 26.1085H38.1109C38.1109 26.1085 37.3342 26.8853 37.1561 28.5915C37.1503 28.6459 37.1724 28.701 37.2154 28.7349C37.3788 28.8629 37.8377 29.1586 38.5925 29.1586C39.3473 29.1586 39.8061 28.8629 39.9695 28.7349C40.0126 28.7012 40.0345 28.646 40.0289 28.5915C39.8509 26.8853 39.0741 26.1085 39.0741 26.1085Z" fill="#73AF00"/>
<path d="M39.0756 25.948H38.1124V25.1455C38.1124 24.8806 38.3291 24.6639 38.594 24.6639C38.8588 24.6639 39.0755 24.8806 39.0755 25.1455V25.948H39.0756Z" fill="#FF4B55"/>
<path d="M39.0751 26.2691H38.1119C38.0232 26.2691 37.9514 26.1972 37.9514 26.1085C37.9514 26.0199 38.0232 25.948 38.1119 25.948H39.0751C39.1638 25.948 39.2356 26.0199 39.2356 26.1085C39.2355 26.1972 39.1637 26.2691 39.0751 26.2691Z" fill="#FF4B55"/>
<path d="M42.2846 22.7197C42.2561 22.7197 41.8374 22.7217 41.4016 22.7966V22.5456C41.7693 22.3778 42.1296 22.291 42.1357 22.2895C42.1788 22.2794 42.2056 22.2362 42.1955 22.1931C42.1852 22.15 42.1422 22.123 42.099 22.1333C42.0748 22.1389 41.7513 22.2167 41.3987 22.3701C41.393 22.2739 41.3596 22.1856 41.3054 22.1128C41.5931 21.8901 41.8381 21.7486 41.8427 21.7461C41.8811 21.7241 41.8946 21.6752 41.8727 21.6366C41.8507 21.598 41.8016 21.5847 41.7633 21.6065C41.7438 21.6177 41.4868 21.7659 41.1884 21.999C41.1116 21.9473 41.0193 21.9171 40.92 21.9171C40.8168 21.9171 40.7215 21.9504 40.643 22.0059C40.7254 21.5928 40.8945 21.414 40.8969 21.4117C40.9279 21.3804 40.9278 21.3297 40.8966 21.2985C40.8652 21.2672 40.8144 21.2672 40.7831 21.2985C40.7735 21.3081 40.6176 21.4691 40.5187 21.831C40.4199 21.469 40.264 21.308 40.2544 21.2985C40.2232 21.2674 40.1728 21.2674 40.1413 21.2984C40.1099 21.3295 40.1097 21.3803 40.1405 21.4118C40.1428 21.4141 40.312 21.593 40.3943 22.006C40.3159 21.9505 40.2206 21.9172 40.1174 21.9172C40.0181 21.9172 39.9258 21.9475 39.849 21.9991C39.5507 21.7659 39.2936 21.6178 39.2741 21.6066C39.2355 21.5847 39.1865 21.5981 39.1646 21.6367C39.1427 21.6753 39.1561 21.7242 39.1947 21.7462C39.1992 21.7487 39.4443 21.8901 39.7321 22.1128C39.6778 22.1857 39.6445 22.274 39.6387 22.3702C39.2862 22.2167 38.9626 22.139 38.9384 22.1334C38.895 22.123 38.852 22.1501 38.8419 22.1932C38.8317 22.2363 38.8586 22.2796 38.9016 22.2896C38.9078 22.291 39.2681 22.3778 39.6357 22.5457V22.7967C39.2001 22.7217 38.7813 22.7198 38.7528 22.7198C38.7085 22.7198 38.6725 22.7557 38.6725 22.8001C38.6725 22.8444 38.7084 22.8804 38.7528 22.8804C38.7598 22.8804 39.1985 22.8821 39.6357 22.9597V23.2193C39.3949 23.2121 39.1263 23.2458 38.8774 23.3704C38.8378 23.3902 38.8218 23.4384 38.8416 23.478C38.8557 23.5061 38.8841 23.5225 38.9135 23.5225C38.9256 23.5225 38.9377 23.5197 38.9492 23.514C39.1708 23.4033 39.4149 23.3744 39.6356 23.3818V24.375C39.6356 24.4962 39.6235 24.6181 39.5999 24.7371L39.4767 25.3527C39.4681 25.3963 39.4963 25.4385 39.5396 25.4472C39.5449 25.4482 39.5502 25.4488 39.5555 25.4488C39.593 25.4488 39.6265 25.4225 39.6342 25.3843L39.7573 24.7686C39.7832 24.6393 39.7963 24.5069 39.7963 24.3751V23.3938C39.9167 23.4073 40.0248 23.429 40.1118 23.4508L40.173 24.2457C40.1806 24.3448 40.2303 24.4304 40.3026 24.4885L40.0423 24.8789C39.9028 25.0882 40.0527 25.3684 40.3042 25.3684H40.733C40.9844 25.3684 41.1344 25.0881 40.9949 24.8789L40.7346 24.4885C40.807 24.4304 40.8565 24.3447 40.8641 24.2457L40.9253 23.4508C41.0122 23.429 41.1204 23.4073 41.2408 23.3938V24.375C41.2408 24.5068 41.2539 24.6392 41.2798 24.7685L41.4029 25.3842C41.4105 25.4224 41.444 25.4487 41.4816 25.4487C41.4868 25.4487 41.4921 25.4483 41.4974 25.4471C41.5409 25.4384 41.5691 25.3961 41.5603 25.3526L41.4372 24.737C41.4135 24.6181 41.4014 24.4963 41.4014 24.3749V23.3815C41.6222 23.3741 41.8664 23.403 42.0879 23.5137C42.0994 23.5193 42.1116 23.5222 42.1236 23.5222C42.153 23.5222 42.1813 23.5059 42.1955 23.4777C42.2153 23.4381 42.1993 23.3899 42.1596 23.3701C41.9109 23.2458 41.6423 23.212 41.4014 23.2191V22.9594C41.8386 22.8818 42.2773 22.8801 42.2843 22.8801C42.3287 22.8801 42.3645 22.844 42.3645 22.7998C42.3648 22.7556 42.3289 22.7197 42.2846 22.7197ZM41.2411 22.8273C41.1452 22.8481 41.0508 22.8728 40.9618 22.9024C40.9601 22.8708 40.9556 22.8401 40.9476 22.8104C41.0366 22.7417 41.1366 22.6793 41.2412 22.624V22.8273H41.2411ZM41.2411 22.3986V22.4431C41.114 22.5062 40.9888 22.5795 40.8766 22.6626C40.8534 22.6308 40.8265 22.6021 40.7957 22.5775C40.9157 22.4445 41.0492 22.3213 41.1805 22.2126C41.2184 22.265 41.2411 22.3291 41.2411 22.3986ZM40.9201 22.0775C40.968 22.0775 41.013 22.0888 41.0538 22.1076C40.9151 22.2241 40.7745 22.3566 40.6486 22.5004C40.6322 22.4953 40.6161 22.4903 40.5989 22.4872V22.4787C40.5989 22.4422 40.6002 22.4075 40.6014 22.373C40.6148 22.2082 40.7517 22.0775 40.9201 22.0775ZM40.1175 22.0775C40.2858 22.0775 40.4227 22.2081 40.4359 22.3731C40.4372 22.4076 40.4385 22.4422 40.4385 22.4788V22.4873C40.4214 22.4904 40.4052 22.4954 40.3888 22.5005C40.2629 22.3567 40.1223 22.2242 39.9836 22.1077C40.0246 22.0888 40.0696 22.0775 40.1175 22.0775ZM39.7965 22.3986C39.7965 22.329 39.8192 22.265 39.857 22.2124C39.9884 22.3211 40.1218 22.4444 40.2418 22.5773C40.2109 22.602 40.1842 22.6307 40.1608 22.6625C40.0487 22.5794 39.9236 22.5062 39.7964 22.443L39.7965 22.3986ZM39.7965 22.6241C39.901 22.6794 40.001 22.7418 40.09 22.8105C40.082 22.8403 40.0774 22.8709 40.0759 22.9024C39.9867 22.8728 39.8925 22.8481 39.7966 22.8273V22.6241H39.7965ZM39.7965 23.2305V22.9921C39.8971 23.0148 39.9941 23.0424 40.0831 23.0755L40.0989 23.2811C40.0116 23.2607 39.9091 23.2422 39.7965 23.2305ZM41.2411 23.2306C41.1285 23.2423 41.0259 23.2608 40.9387 23.2811L40.9545 23.0756C41.0434 23.0425 41.1406 23.015 41.2411 22.9922V23.2306Z" fill="#D35A10"/>
<path d="M37.2134 24.8867H36.8529L35.4751 23.662C35.3245 23.5283 35.2608 23.3219 35.3096 23.1265L35.6938 21.5897C35.7278 21.4537 35.8971 21.4068 35.9961 21.506L36.6197 22.1296C36.6535 22.1633 36.6993 22.1824 36.7471 22.1824H37.2132V24.8868L37.2134 24.8867Z" fill="#FFA033"/>
<path d="M36.9547 21.8128L36.7335 22.8086C36.6935 22.989 36.7002 23.1769 36.7533 23.3541L37.2131 24.8868H37.5736L38.0334 23.3541C38.0865 23.1769 38.0935 22.9891 38.0532 22.8086L37.832 21.8128C37.7863 21.6074 37.6042 21.4613 37.3937 21.4613H37.3928C37.1824 21.4612 37.0002 21.6074 36.9547 21.8128Z" fill="#FF9480"/>
<path d="M37.3942 21.8218C37.2944 21.8218 37.2135 21.9024 37.2135 22.0021V24.8867H37.575V22.0021C37.575 21.9024 37.494 21.8218 37.3942 21.8218Z" fill="#FFA0E4"/>
</g>
<defs>
<clipPath id="clip0_9_1119">
<rect width="50" height="50" fill="white" transform="translate(0.636719 0.0305176)"/>
</clipPath>
</defs>
</svg>
