<svg width="51" height="51" viewBox="0 0 51 51" fill="none" xmlns="http://www.w3.org/2000/svg">
<g clip-path="url(#clip0_9_1084)">
<path d="M50.3606 14.111H0.360718V9.51323C0.360718 9.03716 0.746752 8.65112 1.22283 8.65112H49.4986C49.9747 8.65112 50.3607 9.03716 50.3607 9.51323L50.3606 14.111Z" fill="#464655"/>
<path d="M50.3606 14.1116H0.360718V19.5713H50.3606V14.1116Z" fill="#FFE15A"/>
<path d="M50.3606 19.5706H0.360718V25.0303H50.3606V19.5706Z" fill="#FF4B55"/>
<path d="M50.3606 25.0305H0.360718V30.4903H50.3606V25.0305Z" fill="#464655"/>
<path d="M50.3606 30.4905H0.360718V35.9502H50.3606V30.4905Z" fill="#FFE15A"/>
<path d="M49.4985 41.4097H1.22283C0.746752 41.4097 0.360718 41.0236 0.360718 40.5476V35.9498H50.3606V40.5476C50.3606 41.0237 49.9746 41.4097 49.4985 41.4097Z" fill="#FF4B55"/>
<path d="M25.3605 30.2029C28.2172 30.2029 30.533 27.8871 30.533 25.0305C30.533 22.1738 28.2172 19.858 25.3605 19.858C22.5038 19.858 20.188 22.1738 20.188 25.0305C20.188 27.8871 22.5038 30.2029 25.3605 30.2029Z" fill="#F5F5F5"/>
<path d="M25.6723 21.8814L26.1817 21.6776C26.2556 21.6481 26.2913 21.5633 26.2586 21.491C26.1443 21.2376 25.8382 20.7134 25.2563 20.6976C24.8879 20.6876 24.6124 20.7706 24.4569 20.8348C24.3775 20.8675 24.3456 20.962 24.389 21.0362L24.6964 21.5614L25.6723 21.8814Z" fill="#FF4B55"/>
<path d="M25.2564 20.6975C25.214 20.6963 25.1759 20.6987 25.1359 20.6999L25.0804 21.5133L25.3763 21.6771L26.0164 21.098C25.8479 20.8942 25.6009 20.7067 25.2564 20.6975Z" fill="#FFE15A"/>
<path d="M27.448 26.6644L25.1445 23.9769C25.1445 23.4207 25.3455 22.9665 25.4566 22.7576C25.7737 22.616 25.9782 22.2673 25.8931 21.8824C25.8312 21.6024 25.6053 21.374 25.3258 21.3102C24.8229 21.1952 24.3767 21.574 24.3767 22.0572C24.3767 22.0754 24.3808 22.0925 24.382 22.1104C23.8852 22.2414 23.7928 22.4012 23.7928 22.4012C23.7928 22.4012 24.1185 22.3146 24.4011 22.2405C24.4067 22.2636 24.4144 22.2857 24.422 22.308L23.8646 22.4973L24.4732 22.4232C24.5408 22.5469 24.641 22.6496 24.762 22.7207C24.3071 23.0871 23.6087 23.7757 23.6087 24.553C23.6087 25.2638 24.1352 25.7374 24.7982 26.0522C25.0301 26.1624 25.2431 26.3076 25.4183 26.4951L25.4248 26.5021L25.4824 27.3845C25.0068 27.3845 24.4399 27.3845 24.1846 27.3845C23.7046 27.3845 23.5728 27.6964 23.5728 28.2123L23.8007 27.8884L23.9926 28.2483L24.0166 27.8403L24.2206 28.1042C24.2206 28.1042 24.2186 27.7595 24.4786 27.7142C24.6165 27.6902 25.0945 27.6602 25.5006 27.6602L25.5866 28.9751C25.0359 28.9725 24.4127 29.2319 24.4127 29.2319C24.6046 29.1959 25.0727 29.268 25.0727 29.268L24.9946 29.4959C25.5345 29.2019 26.5244 29.1959 26.5244 29.1959C26.5244 29.1959 26.3085 29.0486 25.8046 28.991L25.8162 27.6601H26.6083L26.7282 27.3482C26.7282 27.3482 26.3195 26.8059 26.3195 26.5188C26.9532 26.6392 27.448 26.6644 27.448 26.6644ZM25.8186 27.3844L25.8226 26.9279C26.0603 27.1828 26.2484 27.3844 26.2484 27.3844C26.2484 27.3844 26.0708 27.3844 25.8186 27.3844Z" fill="#464655"/>
<path d="M27.4479 27.0483C27.256 26.2804 26.4147 26.0444 25.5283 25.5125C24.5685 24.9367 25.1443 23.9768 25.1443 23.9768C25.1443 23.9768 28.3597 24.9207 28.5997 26.2803C28.7865 27.3393 28.0238 28.008 27.6399 28.1999L27.7778 27.816H27.0639C27.0639 27.816 27.8198 27.2281 27.8318 26.6641L27.4479 27.0483Z" fill="#696E7D"/>
<path d="M28.6003 26.2805C28.4398 25.3714 26.9506 24.6489 25.9803 24.2693C25.6697 24.2348 25.3969 24.7567 26.2487 25.3206C27.3947 26.0792 27.4485 27.0483 27.4485 27.0483L27.8325 26.6643C27.8206 27.2282 27.0646 27.8162 27.0646 27.8162H27.7785L27.6406 28.2002C28.0244 28.0082 28.7871 27.3395 28.6003 26.2805Z" fill="#FFFCFF"/>
<path d="M28.6002 26.2805C28.4939 25.6781 27.8036 25.1583 27.0677 24.7652C26.7133 24.6592 26.4046 24.6728 26.4046 24.6728C26.6206 24.8048 26.7166 25.1407 26.7166 25.1407C26.5606 25.0447 26.2126 25.0927 26.2126 25.0927C26.3094 25.1757 26.4011 25.3449 26.4625 25.4747C27.4008 26.2041 27.4485 27.0485 27.4485 27.0485L27.8325 26.6645C27.8206 27.2284 27.0646 27.8164 27.0646 27.8164H27.7785L27.6406 28.2003C28.0244 28.0082 28.7871 27.3396 28.6002 26.2805Z" fill="#FF4B55"/>
<path d="M24.8328 22.1136C24.9037 22.1136 24.9612 22.0563 24.9612 21.9856C24.9612 21.9149 24.9037 21.8575 24.8328 21.8575C24.7619 21.8575 24.7045 21.9149 24.7045 21.9856C24.7045 22.0563 24.7619 22.1136 24.8328 22.1136Z" fill="#F5F5F5"/>
<path d="M24.497 22.4731C24.497 22.4731 24.217 22.8011 24.401 22.8971C24.585 22.9931 24.7624 22.7204 24.7624 22.7204L24.497 22.4731Z" fill="#FF4B55"/>
</g>
<defs>
<clipPath id="clip0_9_1084">
<rect width="50" height="50" fill="white" transform="translate(0.359375 0.0305176)"/>
</clipPath>
</defs>
</svg>
