<svg width="51" height="51" viewBox="0 0 51 51" fill="none" xmlns="http://www.w3.org/2000/svg">
<g clip-path="url(#clip0_9_1043)">
<path d="M49.9442 8.65112H1.6685C1.19243 8.65112 0.806396 9.03706 0.806396 9.51313V40.5475C0.806396 41.0236 1.19243 41.4097 1.6685 41.4097H49.9443C50.4204 41.4097 50.8064 41.0236 50.8064 40.5475V9.51313C50.8063 9.03706 50.4203 8.65112 49.9442 8.65112Z" fill="#82AFFF"/>
<path d="M25.7338 31.4419C30.1188 31.4419 33.6861 27.8744 33.6861 23.4897C33.6861 19.105 30.1187 15.5375 25.7338 15.5375C21.349 15.5375 17.7816 19.105 17.7816 23.4897C17.7816 27.8744 21.3489 31.4419 25.7338 31.4419ZM26.6411 16.3692L27.3246 16.1174C28.2891 16.3254 29.186 16.7163 29.9754 17.2551C29.9076 17.2483 29.7282 17.23 29.6972 17.2196C29.6589 17.2069 29.5998 17.4632 29.5998 17.4632L29.9134 17.588L29.999 17.2729C30.3248 17.497 30.629 17.7491 30.9152 18.0204L30.4541 18.4815H30.3726L30.3063 18.2213L30.0541 17.7678L29.163 17.4467L28.5467 17.7449L28.8964 18.502C28.0347 17.9537 27.0237 17.6243 25.9378 17.5871V16.5318L26.5657 16.7301L26.3046 16.2699L25.9378 16.4269V15.9557C26.2103 15.9631 26.4786 15.9853 26.7431 16.0211L26.4347 16.1239L26.6411 16.3692ZM30.7676 22.1898L30.9177 22.1262L30.9555 21.7568C31.1164 22.2404 31.2092 22.7535 31.2288 23.2857H29.8458L29.8967 23.0648L30.2876 23.0308L30.6111 22.4799L30.6019 22.3766L30.2706 22.8014L30.0682 22.8511L29.9392 22.6995L30.091 22.4416L29.7608 22.1981L29.4642 22.4582C29.3843 22.1699 29.2755 21.8937 29.1348 21.6365L29.2957 21.578L29.4247 21.501L29.4236 21.3493L29.5063 21.2464L29.4585 21.2171C29.4231 21.2339 29.2386 21.2875 29.2386 21.2875L29.1747 21.4951L29.0829 21.5509C28.9475 21.318 28.7884 21.1013 28.6092 20.9024L29.3718 20.1398L29.3784 20.1506L29.5641 20.0389L29.5353 19.9761L29.762 19.7495C30.273 20.2995 30.672 20.9525 30.9253 21.6752L30.7355 21.393L30.6376 21.4296L30.7676 22.1898ZM29.7623 27.2297L29.3498 26.8172L29.1941 26.4045L29.114 26.5815L28.9544 26.4219L29.118 25.9205L29.0121 25.5566L29.0045 25.5576C29.1167 25.3809 29.2177 25.1967 29.3003 25.0023L29.3023 25.0021C29.3279 25.0021 29.4212 24.8832 29.4212 24.8832L29.6506 24.9087L30.2436 24.6744L30.0159 24.4585L29.8818 24.3387L29.7779 24.1272L29.592 23.8037C29.595 23.7673 29.5958 23.7305 29.5976 23.6939H31.2289C31.1786 25.0574 30.6321 26.2935 29.7623 27.2297ZM21.8468 26.9688L22.051 26.612L21.6115 25.0757L21.2649 24.2204L21.5793 24.0843L21.6642 23.8295L21.8765 23.8233C21.9507 24.6866 22.3098 25.4677 22.8584 26.0767L21.9578 26.9773L21.8468 26.9688ZM22.3375 23.203L22.3331 23.2859H22.2777C22.2796 23.2545 22.2799 23.2227 22.2825 23.1916L22.3375 23.203ZM27.5726 26.4229L27.5029 26.385L26.6133 26.729L26.1523 26.5515L25.9378 26.6108V26.3176L26.1597 26.2506L26.2943 26.2831L26.5776 26.3939L26.4068 26.0816L26.7728 26.3884L26.9484 26.4285L26.895 26.1944L27.014 25.8076L27.4288 25.5545L27.4648 25.7875L26.9588 26.0625L27.0559 26.2561L27.5821 26.1499L27.5904 26.4124C27.5845 26.4158 27.5784 26.4191 27.5726 26.4229ZM25.4761 24.891L25.4603 24.857L25.3648 24.8625C25.242 24.8293 25.1264 24.7805 25.019 24.7177L25.374 24.6747L25.5299 24.2561V24.8963C25.5122 24.8939 25.4936 24.8942 25.4761 24.891ZM23.9854 24.0178L23.6386 23.9644L23.8155 23.6936H23.9193C23.9318 23.8053 23.9537 23.913 23.9854 24.0178ZM25.9377 22.6069L26.0333 22.6359L26.1535 22.7817L25.9377 22.9975V22.6069ZM26.5808 25.1988L26.4153 25.3925L26.1394 25.5297L26.0469 25.3676L25.9913 25.6899L25.9379 25.7108V25.3043C25.9764 25.3 26.0161 25.2992 26.0541 25.2925L26.1861 25.4581L26.2957 25.3216L26.2872 25.2304C26.348 25.211 26.4101 25.1949 26.4681 25.1694L26.5808 25.1988ZM26.4567 23.0552L26.4523 23.2758L26.4443 23.2859H26.2259L26.4567 23.0552ZM26.5877 23.8147L26.8516 23.8063L26.9956 23.9262L26.9476 24.0127L26.7462 23.8974L26.6358 23.9837L26.6912 24.1492L26.6889 24.1564L26.2261 23.6936H26.5344L26.5877 23.8147ZM26.413 24.4573L26.1609 24.4301L25.9828 24.8919C25.9681 24.8944 25.9526 24.8943 25.9379 24.8963V23.9819L26.413 24.4573ZM25.1039 23.2858L25.0862 23.2115L24.9091 23.2858H24.8308L24.8567 23.1783L24.9711 23.0675L24.8803 23.0469L24.786 23.181L24.688 23.2259L24.6995 23.286H24.5965L24.6585 23.0451L24.8397 22.8843L25.2415 23.2861H25.1039V23.2858ZM24.3473 23.6937L24.3891 23.7429L24.4173 23.6937H24.5631L24.3735 23.8989C24.3534 23.8321 24.3374 23.7642 24.3272 23.6937H24.3473ZM24.573 24.3144L24.8366 23.8591L24.7676 23.7975L24.8839 23.7376L24.8984 23.6936H25.0839L25.0414 23.7165L25.0237 23.7776L25.1673 23.7678L25.0604 23.8748L24.9517 23.8977L24.9292 24.0061L24.5946 24.3406C24.5878 24.3314 24.5797 24.3236 24.573 24.3144ZM25.5299 22.1255L25.4538 22.1138L25.5128 22.3585L25.53 22.3719V22.9975L25.1874 22.6548L25.4279 22.5249L25.2106 22.1649C25.3118 22.1249 25.4191 22.0991 25.53 22.083L25.5299 22.1255ZM22.3114 23.6937L22.3073 23.7712L22.2902 23.8748C22.2837 23.8151 22.2814 23.7542 22.2778 23.6936L22.3114 23.6937ZM22.5109 24.1779L22.7646 24.4329L22.9727 24.2879L23.463 24.6993L23.9903 24.792L24.1378 24.3772C24.1875 24.4661 24.2433 24.5499 24.3066 24.629L23.8536 25.082L23.9264 24.8963L23.6567 24.8525L23.7431 25.1692L23.7559 25.1798L23.1468 25.7888C22.75 25.3426 22.4636 24.7961 22.3388 24.1898L22.5109 24.1779ZM24.5947 24.9171C24.858 25.1277 25.1777 25.2647 25.5299 25.3043V25.7758L25.5254 25.787L25.5299 25.7855V26.1382L25.4112 26.1621L25.3423 26.6047L25.5299 26.583V26.7234L25.2329 26.8054L25.1339 26.9008C24.4884 26.7875 23.9052 26.4957 23.4349 26.0772L24.5947 24.9171ZM28.0343 26.5996L28.3336 26.663L28.6279 26.6721L28.7897 26.8339L28.2953 26.816L27.9767 26.6427C27.9963 26.6287 28.0151 26.6139 28.0343 26.5996ZM28.3211 25.7886L28.2318 25.6994L28.4134 25.6855C28.3842 25.7211 28.3517 25.7541 28.3211 25.7886ZM28.7887 21.8546C28.65 21.8565 28.5155 21.8585 28.5035 21.8585C28.4779 21.8585 28.2781 22.0293 28.2781 22.0293L28.1253 22.227L28.0794 21.9857L28.1876 21.7392L28.1042 21.6629L27.7303 21.9007L27.651 21.8607L27.943 21.5687L28.0073 21.5899L28.1934 21.5462L28.0988 21.413L28.321 21.1908C28.5009 21.3931 28.6596 21.6144 28.7887 21.8546ZM27.6952 21.2401L27.6773 21.183L27.5562 21.202L27.481 21.3476L27.1485 21.3803C27.1728 21.4291 27.2763 21.6312 27.2857 21.6494L26.8731 22.062C26.7854 21.9919 26.6918 21.9305 26.592 21.8772L26.643 21.8498L26.5824 21.6449L26.5411 21.5693L26.3571 21.7706C26.2238 21.722 26.0835 21.6913 25.9379 21.6749V20.0335C26.74 20.0804 27.4682 20.3999 28.033 20.9023L27.6952 21.2401ZM25.5299 21.6752C25.3983 21.69 25.2715 21.7174 25.1498 21.7587L25.2108 21.617L24.8927 21.867L24.8933 21.8679C24.787 21.9233 24.6877 21.988 24.5947 22.0624L23.4349 20.9026C23.9997 20.4002 24.7279 20.0807 25.5299 20.0338V21.6752ZM24.2409 22.2852L23.6926 22.3811L23.7118 22.1728L23.2574 22.016L22.5306 22.1679C22.6802 21.8069 22.8907 21.4785 23.1465 21.1908L24.2409 22.2852ZM22.481 22.3035L22.7092 22.3512L22.4357 22.4269C22.4492 22.3849 22.4659 22.3447 22.481 22.3035ZM21.8699 23.2858H21.8345L21.8716 23.2515C21.871 23.2629 21.8706 23.2744 21.8699 23.2858ZM22.3048 27.2071L23.1466 26.3653C23.6061 26.7791 24.1635 27.0836 24.781 27.2406L24.4911 27.52L25.1152 28.3447L25.5299 28.3676V28.985C24.4408 28.945 23.4318 28.5907 22.5924 28.0049L22.7272 27.9174L22.3048 27.2071ZM25.9377 28.3899L26.4635 28.4189L26.4769 28.5395L26.7968 28.8901C26.5177 28.945 26.23 28.9742 25.9377 28.9849V28.3899ZM29.2782 27.3222L29.474 27.518C29.3803 27.6049 29.2862 27.6912 29.1867 27.7717L29.2782 27.3222ZM29.4739 19.4614L29.3544 19.5808L29.2128 19.2715L28.9554 19.1345C28.9554 19.1345 28.7157 18.923 28.5909 18.7927C28.9079 18.9863 29.2033 19.2099 29.4739 19.4614ZM28.5354 18.7589L28.7156 19.3892L29.1365 19.7556L29.1529 19.7825L28.321 20.6143C27.6817 20.0384 26.852 19.6738 25.9377 19.6259V17.9947C26.8842 18.0296 27.7687 18.3032 28.5354 18.7589ZM25.5299 19.6259C24.6156 19.6739 23.786 20.0385 23.1466 20.6143L21.9937 19.4614C22.93 18.5915 24.1663 18.045 25.5299 17.9947V19.6259ZM22.8583 20.9026C22.4214 21.3878 22.1045 21.9816 21.9563 22.6403L21.5979 23.2858H20.2386C20.2889 21.9221 20.8354 20.6859 21.7052 19.7497L22.8583 20.9026ZM21.4014 23.6937L21.0141 24.5261L20.4663 24.3223L20.3634 24.687C20.2918 24.3655 20.2512 24.0333 20.2387 23.6935H21.4013L21.4014 23.6937ZM20.9931 27.8227L21.0564 27.8788L20.2643 28.6708C19.7175 28.0938 19.263 27.431 18.9188 26.7043L19.1295 26.8274L20.5344 28.0775L20.9931 27.8227ZM21.362 28.1497L21.5538 28.3197L22.1758 28.2015C23.1162 28.9133 24.2726 29.3495 25.5299 29.3927V31.024C23.6042 30.9721 21.859 30.1977 20.5525 28.9593L21.362 28.1497ZM25.9377 29.3926C26.2833 29.3808 26.6226 29.3448 26.9507 29.2757L26.9887 29.527L27.9606 30.2437L29.0549 29.6366L29.3691 28.9743L29.3485 28.5645L29.5551 28.0797L29.5047 28.0403C29.5941 27.9662 29.6774 27.8854 29.7621 27.8063L29.9501 27.9942L30.0074 28.3494L30.2209 28.2648L30.9153 28.9592C29.6087 30.1976 27.8635 30.972 25.9379 31.0239V29.3926H25.9377ZM30.3182 27.7857L30.2793 27.3214L30.227 27.3238C31.0687 26.3388 31.5893 25.0762 31.6368 23.6936H33.268C33.2162 25.6193 32.4417 27.3643 31.2036 28.6708L30.3182 27.7857ZM31.6367 23.2858C31.6013 22.2568 31.303 21.2958 30.8051 20.4643L31.4985 21.1129L32.0548 20.635L31.2009 19.3478L30.6374 18.9145L30.6388 18.873L31.2034 18.3085C32.4416 19.615 33.216 21.3601 33.2678 23.2857H31.6367V23.2858ZM25.5299 17.5869C24.0539 17.6376 22.716 18.2297 21.7055 19.1732L20.5525 18.0203C21.859 16.7819 23.6043 16.0075 25.5299 15.9556V17.5869ZM21.4172 19.4616C20.4737 20.472 19.8817 21.8098 19.8309 23.2858H18.1997C18.2515 21.3601 19.026 19.6151 20.2641 18.3086L21.4172 19.4616ZM19.8309 23.6937C19.8517 24.3 19.9633 24.8824 20.1541 25.4293L20.0925 25.6478L18.4988 25.6128C18.319 25.0014 18.2177 24.3582 18.1998 23.6938L19.8309 23.6937Z" fill="#F5F5F5"/>
<path d="M20.2399 32.9372L21.7122 32.6988C21.8437 32.6775 21.8984 32.5185 21.8072 32.4213C21.4531 32.0429 20.7493 31.2593 20.3418 30.5924C19.781 29.6748 18.7937 28.9183 18.7937 28.9183C18.7937 28.9183 18.9825 31.442 20.8855 32.3086C20.8855 32.3086 18.9994 31.8327 17.793 31.5099C16.5865 31.1871 16.2563 30.8318 16.2563 30.8318C16.2563 30.8318 17.1984 33.243 20.2399 32.9372Z" fill="#F5F5F5"/>
<path d="M18.7788 30.1166C18.7278 29.4878 18.2682 27.8803 17.402 26.5516C17.402 26.5516 17.4031 29.7809 18.5497 30.8748C18.5497 30.8748 16.9266 29.3178 15.9581 28.6042C15.0512 27.9361 14.6497 27.1768 14.6497 27.1768C14.6497 27.1768 14.8933 29.2175 16.2129 30.2353C17.105 30.9235 19.0846 31.4078 19.0846 31.4078C19.0846 31.4078 18.8297 30.7452 18.7788 30.1166Z" fill="#F5F5F5"/>
<path d="M15.6692 27.7035L16.6608 28.5611C16.7642 28.6506 16.9253 28.58 16.9275 28.4433C16.9328 28.0984 16.9539 27.5748 17.0285 27.2447C17.1475 26.718 17.2946 25.0075 16.6943 23.7643C16.6943 23.7643 15.9686 25.9924 16.5358 27.848C16.5358 27.848 15.6449 26.4315 14.7346 25.3586C14.2588 24.7979 14.0704 24.1367 14.0704 24.1367C14.0704 24.1367 14.0549 26.3613 15.6692 27.7035Z" fill="#F5F5F5"/>
<path d="M15.3968 25.5088C15.4746 25.6135 15.6358 25.5914 15.6802 25.4688C15.8106 25.1091 16.0635 24.4624 16.3996 23.8466C17.0113 22.7251 16.7291 21.4052 16.7291 21.4052C16.7291 21.4052 15.747 23.0884 15.4624 24.9591C15.4438 24.8757 15.4235 24.7865 15.3992 24.6846C15.1297 23.5516 14.0813 20.7255 14.0813 20.7255C14.0813 20.7255 13.7126 22.2775 14.1734 23.5067C14.4102 24.1375 15.0719 25.0703 15.3968 25.5088Z" fill="#F5F5F5"/>
<path d="M15.1948 23.0274C15.2244 23.1402 15.3823 23.143 15.4159 23.0313C15.5098 22.7198 15.7049 22.2904 16.1109 21.8753C16.8756 21.0938 17.4554 20.0086 17.7517 19.0389C17.7517 19.0389 16.1202 20.3479 15.6058 21.2305C15.6058 21.2305 15.6566 20.0167 15.4821 19.1396C15.3334 18.3919 15.6494 17.6716 15.6494 17.6716C15.6494 17.6716 14.6156 18.6639 14.7685 20.482C14.8648 21.626 15.0619 22.5209 15.1948 23.0274Z" fill="#F5F5F5"/>
<path d="M16.228 19.911C16.5375 19.6273 17.0795 19.144 17.602 18.8508C18.2959 18.4616 18.8446 17.2059 18.9656 16.9265C18.9656 16.9265 17.0323 18.5086 16.5061 19.0165C16.5061 19.0165 16.8247 17.6019 17.0286 16.9902C17.2325 16.3785 17.207 16.1746 17.3854 15.9197C17.3854 15.9197 16.4552 16.7353 16.2002 17.3852C15.9907 17.9194 16.0309 19.1335 16.0023 19.8039C15.9971 19.9253 16.1385 19.993 16.228 19.911Z" fill="#F5F5F5"/>
<path d="M18.1838 17.0667C18.7275 16.6249 19.5941 15.3335 19.5941 15.3335C19.3795 15.4562 18.5066 15.7583 17.776 16.506C17.0454 17.2536 16.8925 18.273 16.8925 18.273C16.8925 18.273 17.64 17.5085 18.1838 17.0667Z" fill="#F5F5F5"/>
<path d="M30.5309 33.3109C28.9336 32.9965 27.5659 32.7671 25.9625 33.1842C25.8836 33.2047 25.8097 33.2283 25.7337 33.2507C25.6577 33.2284 25.5839 33.2048 25.505 33.1842C23.9017 32.7672 22.5339 32.9965 20.9366 33.3109C19.4969 33.5942 18.1185 33.349 18.1185 33.349C18.1185 33.349 19.1185 34.3645 21.3955 34.3645C22.3888 34.3645 23.6372 33.5283 24.4249 33.4838C24.6188 33.4728 24.8104 33.4846 25.0002 33.5058C23.3088 34.1957 22.528 35.2421 22.5127 35.2623C22.4448 35.352 22.4623 35.4798 22.5519 35.5475C22.5887 35.5757 22.632 35.5893 22.675 35.5893C22.7365 35.5893 22.7974 35.5613 22.8375 35.5088C22.8997 35.4271 24.1491 34.1345 25.7337 33.657C27.3184 34.1345 28.5679 35.427 28.63 35.5088C28.67 35.5614 28.731 35.5893 28.7925 35.5893C28.8355 35.5893 28.8788 35.5757 28.9156 35.5475C29.0052 35.4798 29.0227 35.3519 28.9548 35.2623C28.9395 35.2421 28.1587 34.1957 26.4673 33.5058C26.6571 33.4847 26.8487 33.4729 27.0426 33.4838C27.8303 33.5283 29.0788 34.3645 30.072 34.3645C32.349 34.3645 33.349 33.349 33.349 33.349C33.349 33.349 31.9706 33.5942 30.5309 33.3109Z" fill="#F5F5F5"/>
<path d="M30.5816 32.3086C32.4847 31.442 32.6734 28.9183 32.6734 28.9183C32.6734 28.9183 31.686 29.6748 31.1254 30.5924C30.7178 31.2592 30.0139 32.0429 29.6599 32.4213C29.5689 32.5185 29.6234 32.6775 29.755 32.6988L31.2272 32.9372C34.2688 33.243 35.2107 30.8317 35.2107 30.8317C35.2107 30.8317 34.8804 31.1871 33.6741 31.5098C32.4676 31.8327 30.5816 32.3086 30.5816 32.3086Z" fill="#F5F5F5"/>
<path d="M35.5095 28.6043C34.5409 29.318 32.9179 30.8749 32.9179 30.8749C34.0646 29.781 34.0655 26.5518 34.0655 26.5518C33.1993 27.8806 32.7398 29.488 32.6888 30.1167C32.6378 30.7454 32.3829 31.4081 32.3829 31.4081C32.3829 31.4081 34.3624 30.9238 35.2546 30.2356C36.5742 29.2177 36.8179 27.1771 36.8179 27.1771C36.8179 27.1771 36.4163 27.936 35.5095 28.6043Z" fill="#F5F5F5"/>
<path d="M34.9317 27.8481C35.4988 25.9925 34.7732 23.7644 34.7732 23.7644C34.1729 25.0078 34.32 26.7182 34.4389 27.2449C34.5135 27.5749 34.5346 28.0984 34.54 28.4434C34.5421 28.5801 34.7033 28.6507 34.8067 28.5613L35.7983 27.7037C37.4126 26.3613 37.397 24.137 37.397 24.137C37.397 24.137 37.2086 24.7981 36.7329 25.3588C35.8225 26.4315 34.9317 27.8481 34.9317 27.8481Z" fill="#F5F5F5"/>
<path d="M36.0045 24.9592C35.7198 23.0885 34.7378 21.4052 34.7378 21.4052C34.7378 21.4052 34.4557 22.7252 35.0673 23.8467C35.4031 24.4625 35.6562 25.1092 35.7866 25.4689C35.8311 25.5916 35.9923 25.6136 36.07 25.5089C36.395 25.0704 37.0567 24.1377 37.2933 23.5067C37.7541 22.2775 37.3854 20.7255 37.3854 20.7255C37.3854 20.7255 36.337 23.5516 36.0675 24.6846C36.0433 24.7866 36.0231 24.8757 36.0045 24.9592Z" fill="#F5F5F5"/>
<path d="M35.9849 19.1397C35.8104 20.0169 35.8612 21.2306 35.8612 21.2306C35.3468 20.348 33.7153 19.039 33.7153 19.039C34.0116 20.0088 34.5914 21.0938 35.3561 21.8755C35.7621 22.2904 35.9572 22.7199 36.0511 23.0314C36.0847 23.143 36.2426 23.1402 36.2722 23.0275C36.4052 22.5211 36.6022 21.626 36.6984 20.4821C36.8514 18.6639 35.8175 17.6718 35.8175 17.6718C35.8175 17.6718 36.1336 18.3922 35.9849 19.1397Z" fill="#F5F5F5"/>
<path d="M34.9614 19.0165C34.4351 18.5086 32.5018 16.9265 32.5018 16.9265C32.6229 17.2059 33.1716 18.4617 33.8654 18.8508C34.388 19.1439 34.9299 19.6272 35.2394 19.911C35.3289 19.993 35.4704 19.9254 35.4652 19.804C35.4367 19.1338 35.4768 17.9195 35.2674 17.3853C35.0125 16.7354 34.0821 15.9198 34.0821 15.9198C34.2605 16.1747 34.235 16.3786 34.4389 16.9903C34.6427 17.6019 34.9614 19.0165 34.9614 19.0165Z" fill="#F5F5F5"/>
<path d="M33.2835 17.0667C33.8273 17.5085 34.5749 18.273 34.5749 18.273C34.5749 18.273 34.422 17.2535 33.6913 16.506C32.9608 15.7583 32.0879 15.4562 31.8733 15.3335C31.8733 15.3335 32.7398 16.6249 33.2835 17.0667Z" fill="#F5F5F5"/>
<path d="M29.9518 21.2697L29.6052 21.4979L29.975 21.5557L30.379 22.0025L30.6052 21.8568L30.3338 21.3018L29.9518 21.2697Z" fill="#F5F5F5"/>
<path d="M30.4989 23.1729L30.6272 23.2221L30.9522 22.3491L30.863 22.228L30.7227 22.2981L30.4998 23.0883L30.4989 23.1729Z" fill="#F5F5F5"/>
<path d="M27.2383 21.6928L27.1361 21.5845L26.9061 21.8775L26.9633 21.9662L27.2383 21.6928Z" fill="#F5F5F5"/>
<path d="M29.5863 21.0111L29.6485 20.8116L29.4428 20.8532L29.3846 20.8697L29.3236 20.9511L29.546 21.2083L29.636 21.1319L29.5863 21.0111Z" fill="#F5F5F5"/>
<path d="M25.4663 25.6816L25.4695 25.5576L25.313 25.7837L25.3577 25.86L25.4663 25.6816Z" fill="#F5F5F5"/>
</g>
<defs>
<clipPath id="clip0_9_1043">
<rect width="50" height="50" fill="white" transform="translate(0.804688 0.0305176)"/>
</clipPath>
</defs>
</svg>
