<svg width="51" height="51" viewBox="0 0 51 51" fill="none" xmlns="http://www.w3.org/2000/svg">
<g clip-path="url(#clip0_9_1067)">
<path d="M49.65 41.4097H1.37444C0.898363 41.4097 0.512329 41.0237 0.512329 40.5476V9.51323C0.512329 9.03716 0.898363 8.65112 1.37444 8.65112H49.6501C50.1262 8.65112 50.5122 9.03716 50.5122 9.51323V40.5476C50.5121 41.0237 50.1261 41.4097 49.65 41.4097Z" fill="#41479B"/>
<path d="M50.5121 9.51323C50.5121 9.03716 50.1261 8.65112 49.65 8.65112H45.7931L29.8225 19.1147V8.65112H21.2018V19.1147L5.23126 8.65112H1.37444C0.898363 8.65112 0.512329 9.03716 0.512329 9.51323V11.7428L14.2143 20.72H0.512329V29.3407H14.2143L0.512329 38.318V40.5476C0.512329 41.0237 0.898363 41.4097 1.37444 41.4097H5.23135L21.202 30.9462V41.4097H29.8227V30.9462L45.7933 41.4097H49.6502C50.1263 41.4097 50.5123 41.0237 50.5123 40.5476V38.318L36.8103 29.3408H50.5121V20.7201H36.8101L50.5121 11.7428V9.51323Z" fill="#F5F5F5"/>
<path d="M50.5121 22.4442H28.0984V8.65112H22.926V22.4442H0.512329V27.6166H22.926V41.4097H28.0984V27.6166H50.5121V22.4442Z" fill="#FF4B55"/>
<path d="M17.9879 29.3408L0.536987 40.6686C0.598022 41.0849 0.941283 41.4098 1.37458 41.4098H2.56198L21.1547 29.3409H17.9879V29.3408Z" fill="#FF4B55"/>
<path d="M34.3398 29.3408H31.173L49.7386 41.3919C50.1713 41.3458 50.5128 40.9925 50.5128 40.5476V39.8388L34.3398 29.3408Z" fill="#FF4B55"/>
<path d="M0.512939 10.4649L16.3116 20.7201H19.4784L1.01518 8.73523C0.720263 8.87224 0.512939 9.16667 0.512939 9.51325V10.4649Z" fill="#FF4B55"/>
<path d="M32.9902 20.7203L50.483 9.36513C50.4103 8.9626 50.0744 8.65137 49.6508 8.65137H48.4158L29.8234 20.7203H32.9902Z" fill="#FF4B55"/>
</g>
<defs>
<clipPath id="clip0_9_1067">
<rect width="50" height="50" fill="white" transform="translate(0.511719 0.0305176)"/>
</clipPath>
</defs>
</svg>
