<svg width="50" height="51" viewBox="0 0 50 51" fill="none" xmlns="http://www.w3.org/2000/svg">
<g clip-path="url(#clip0_9_990)">
<path d="M49.1378 41.7031H0.862108C0.386034 41.7031 0 41.3171 0 40.841V9.80657C0 9.33049 0.386034 8.94446 0.862108 8.94446H49.1379C49.614 8.94446 50 9.33049 50 9.80657V40.841C49.9999 41.3172 49.6139 41.7031 49.1378 41.7031Z" fill="#F5F5F5"/>
<path d="M49.9999 11.4645H0V9.80656C0 9.33049 0.386034 8.94446 0.862108 8.94446H49.1379C49.614 8.94446 50 9.33049 50 9.80656L49.9999 11.4645Z" fill="#FF4B55"/>
<path d="M49.9999 19.0239H0V21.5438H49.9999V19.0239Z" fill="#FF4B55"/>
<path d="M49.9999 13.984H0V16.5039H49.9999V13.984Z" fill="#FF4B55"/>
<path d="M49.9999 26.5837H0.862108C0.386034 26.5837 0 26.1977 0 25.7216V24.0637H49.9999V26.5837Z" fill="#FF4B55"/>
<path d="M49.9999 34.144H0V36.664H49.9999V34.144Z" fill="#FF4B55"/>
<path d="M49.1378 41.703H0.862108C0.386034 41.703 0 41.317 0 40.8409V39.1831H49.9999V40.841C49.9999 41.3171 49.6139 41.703 49.1378 41.703Z" fill="#FF4B55"/>
<path d="M49.9999 29.104H0V31.6239H49.9999V29.104Z" fill="#FF4B55"/>
<path d="M22.4137 8.94458H0.862108C0.386034 8.94458 0 9.33052 0 9.80659V25.7216C0 26.1977 0.386034 26.5837 0.862108 26.5837H22.4138C22.8899 26.5837 23.2759 26.1977 23.2759 25.7216V9.80659C23.2758 9.33052 22.8898 8.94458 22.4137 8.94458Z" fill="#41479B"/>
<path d="M2.42152 10.9231L2.61234 11.4954L3.21556 11.5C3.29368 11.5007 3.32601 11.6003 3.26321 11.6467L2.77796 12.0051L2.95999 12.5802C2.98363 12.6546 2.89876 12.7163 2.83519 12.6708L2.34447 12.3201L1.85375 12.6709C1.79017 12.7163 1.7055 12.6547 1.72894 12.5803L1.91097 12.0052L1.42572 11.6468C1.36293 11.6003 1.39525 11.5008 1.47337 11.5001L2.0766 11.4955L2.26742 10.9232C2.29203 10.849 2.39671 10.849 2.42152 10.9231Z" fill="#F5F5F5"/>
<path d="M2.42115 13.9167L2.61197 14.489L3.21519 14.4936C3.29332 14.4942 3.32564 14.5939 3.26285 14.6402L2.7776 14.9986L2.95963 15.5737C2.98326 15.6482 2.8984 15.7099 2.83482 15.6644L2.3441 15.3137L1.85338 15.6645C1.7898 15.7099 1.70514 15.6483 1.72857 15.5738L1.91061 14.9987L1.42535 14.6403C1.36256 14.5939 1.39488 14.4943 1.47301 14.4937L2.07623 14.4891L2.26705 13.9168C2.29166 13.8427 2.39635 13.8427 2.42115 13.9167Z" fill="#F5F5F5"/>
<path d="M2.42115 16.9102L2.61197 17.4825L3.21519 17.4871C3.29332 17.4878 3.32564 17.5874 3.26285 17.6338L2.7776 17.9922L2.95963 18.5673C2.98326 18.6417 2.8984 18.7034 2.83482 18.6579L2.3441 18.3072L1.85338 18.658C1.7898 18.7034 1.70514 18.6418 1.72857 18.5674L1.91061 17.9923L1.42535 17.6339C1.36256 17.5874 1.39488 17.4879 1.47301 17.4872L2.07623 17.4826L2.26705 16.9103C2.29166 16.8362 2.39635 16.8362 2.42115 16.9102Z" fill="#F5F5F5"/>
<path d="M2.42115 19.904L2.61197 20.4762L3.21519 20.4808C3.29332 20.4815 3.32564 20.5811 3.26285 20.6275L2.7776 20.9859L2.95963 21.561C2.98326 21.6354 2.8984 21.6971 2.83482 21.6516L2.3441 21.3009L1.85338 21.6517C1.7898 21.6971 1.70514 21.6355 1.72857 21.5611L1.91061 20.986L1.42535 20.6276C1.36256 20.5811 1.39488 20.4816 1.47301 20.4809L2.07623 20.4763L2.26705 19.9041C2.29166 19.8298 2.39635 19.8298 2.42115 19.904Z" fill="#F5F5F5"/>
<path d="M2.42115 22.8974L2.61197 23.4697L3.21519 23.4743C3.29332 23.475 3.32564 23.5746 3.26285 23.621L2.7776 23.9794L2.95963 24.5545C2.98326 24.6289 2.8984 24.6906 2.83482 24.6451L2.3441 24.2944L1.85338 24.6452C1.7898 24.6906 1.70514 24.629 1.72857 24.5546L1.91061 23.9795L1.42535 23.6211C1.36256 23.5746 1.39488 23.4751 1.47301 23.4744L2.07623 23.4698L2.26705 22.8975C2.29166 22.8232 2.39635 22.8232 2.42115 22.8974Z" fill="#F5F5F5"/>
<path d="M4.74458 12.3908L4.9354 12.9631L5.53862 12.9677C5.61674 12.9684 5.64907 13.068 5.58627 13.1144L5.10102 13.4728L5.28305 14.0479C5.30668 14.1223 5.22182 14.184 5.15825 14.1385L4.66753 13.7877L4.1768 14.1385C4.11323 14.1839 4.02856 14.1223 4.052 14.0479L4.23403 13.4728L3.74878 13.1144C3.68598 13.0679 3.71831 12.9684 3.79643 12.9677L4.39965 12.9631L4.59048 12.3908C4.61499 12.3168 4.71987 12.3168 4.74458 12.3908Z" fill="#F5F5F5"/>
<path d="M4.74458 15.3844L4.9354 15.9567L5.53862 15.9613C5.61674 15.962 5.64907 16.0616 5.58627 16.108L5.10102 16.4664L5.28305 17.0415C5.30668 17.1159 5.22182 17.1776 5.15825 17.1321L4.66753 16.7813L4.1768 17.1321C4.11323 17.1775 4.02856 17.116 4.052 17.0415L4.23403 16.4664L3.74878 16.108C3.68598 16.0615 3.71831 15.962 3.79643 15.9613L4.39965 15.9567L4.59048 15.3844C4.61499 15.3103 4.71987 15.3103 4.74458 15.3844Z" fill="#F5F5F5"/>
<path d="M4.74458 18.378L4.9354 18.9502L5.53862 18.9548C5.61674 18.9555 5.64907 19.0551 5.58627 19.1015L5.10102 19.4599L5.28305 20.035C5.30668 20.1094 5.22182 20.1711 5.15825 20.1256L4.66753 19.7749L4.1768 20.1256C4.11323 20.171 4.02856 20.1094 4.052 20.035L4.23403 19.4599L3.74878 19.1015C3.68598 19.055 3.71831 18.9555 3.79643 18.9548L4.39965 18.9502L4.59048 18.378C4.61499 18.3039 4.71987 18.3039 4.74458 18.378Z" fill="#F5F5F5"/>
<path d="M4.74458 21.3716L4.9354 21.9438L5.53862 21.9484C5.61674 21.9491 5.64907 22.0487 5.58627 22.0951L5.10102 22.4535L5.28305 23.0286C5.30668 23.103 5.22182 23.1647 5.15825 23.1192L4.66753 22.7684L4.1768 23.1192C4.11323 23.1646 4.02856 23.103 4.052 23.0286L4.23403 22.4535L3.74878 22.0951C3.68598 22.0486 3.71831 21.9491 3.79643 21.9484L4.39965 21.9438L4.59048 21.3716C4.61499 21.2975 4.71987 21.2975 4.74458 21.3716Z" fill="#F5F5F5"/>
<path d="M7.06825 10.9231L7.25907 11.4954L7.86229 11.5C7.94041 11.5007 7.97274 11.6003 7.90994 11.6467L7.42469 12.0051L7.60672 12.5802C7.63035 12.6546 7.54549 12.7163 7.48192 12.6708L6.9912 12.32L6.50047 12.6708C6.4369 12.7162 6.35223 12.6546 6.37567 12.5802L6.5577 12.0051L6.07245 11.6467C6.00965 11.6002 6.04198 11.5007 6.1201 11.5L6.72332 11.4954L6.91414 10.9231C6.93875 10.849 7.04354 10.849 7.06825 10.9231Z" fill="#F5F5F5"/>
<path d="M7.06825 13.9167L7.25907 14.489L7.86229 14.4936C7.94041 14.4943 7.97274 14.5939 7.90994 14.6403L7.42469 14.9987L7.60672 15.5738C7.63035 15.6482 7.54549 15.7099 7.48192 15.6644L6.9912 15.3136L6.50047 15.6644C6.4369 15.7098 6.35223 15.6482 6.37567 15.5738L6.5577 14.9987L6.07245 14.6403C6.00965 14.5938 6.04198 14.4943 6.1201 14.4936L6.72332 14.489L6.91414 13.9167C6.93875 13.8427 7.04354 13.8427 7.06825 13.9167Z" fill="#F5F5F5"/>
<path d="M7.06825 16.9103L7.25907 17.4825L7.86229 17.4871C7.94041 17.4878 7.97274 17.5874 7.90994 17.6338L7.42469 17.9922L7.60672 18.5673C7.63035 18.6417 7.54549 18.7034 7.48192 18.6579L6.9912 18.3071L6.50047 18.6579C6.4369 18.7033 6.35223 18.6417 6.37567 18.5673L6.5577 17.9922L6.07245 17.6338C6.00965 17.5873 6.04198 17.4878 6.1201 17.4871L6.72332 17.4825L6.91414 16.9103C6.93875 16.8362 7.04354 16.8362 7.06825 16.9103Z" fill="#F5F5F5"/>
<path d="M7.06825 19.9039L7.25907 20.4761L7.86229 20.4807C7.94041 20.4814 7.97274 20.581 7.90994 20.6274L7.42469 20.9858L7.60672 21.5609C7.63035 21.6353 7.54549 21.697 7.48192 21.6515L6.9912 21.3007L6.50047 21.6515C6.4369 21.6969 6.35223 21.6353 6.37567 21.5609L6.5577 20.9858L6.07245 20.6274C6.00965 20.5809 6.04198 20.4814 6.1201 20.4807L6.72332 20.4761L6.91414 19.9039C6.93875 19.8297 7.04354 19.8297 7.06825 19.9039Z" fill="#F5F5F5"/>
<path d="M7.06825 22.8975L7.25907 23.4697L7.86229 23.4743C7.94041 23.475 7.97274 23.5746 7.90994 23.621L7.42469 23.9794L7.60672 24.5545C7.63035 24.6289 7.54549 24.6906 7.48192 24.6451L6.9912 24.2943L6.50047 24.6451C6.4369 24.6905 6.35223 24.6289 6.37567 24.5545L6.5577 23.9794L6.07245 23.621C6.00965 23.5745 6.04198 23.475 6.1201 23.4743L6.72332 23.4697L6.91414 22.8975C6.93875 22.8232 7.04354 22.8232 7.06825 22.8975Z" fill="#F5F5F5"/>
<path d="M9.39191 12.3908L9.58274 12.9631L10.186 12.9677C10.2641 12.9684 10.2964 13.068 10.2336 13.1144L9.74836 13.4728L9.93039 14.0479C9.95402 14.1223 9.86916 14.184 9.80559 14.1385L9.31486 13.7877L8.82414 14.1385C8.76057 14.1839 8.6759 14.1223 8.69934 14.0479L8.88137 13.4728L8.39612 13.1144C8.33332 13.0679 8.36565 12.9684 8.44377 12.9677L9.04699 12.9631L9.23781 12.3908C9.26233 12.3168 9.36721 12.3168 9.39191 12.3908Z" fill="#F5F5F5"/>
<path d="M9.39191 15.3844L9.58274 15.9567L10.186 15.9613C10.2641 15.962 10.2964 16.0616 10.2336 16.108L9.74836 16.4664L9.93039 17.0415C9.95402 17.1159 9.86916 17.1776 9.80559 17.1321L9.31486 16.7813L8.82414 17.1321C8.76057 17.1775 8.6759 17.116 8.69934 17.0415L8.88137 16.4664L8.39612 16.108C8.33332 16.0615 8.36565 15.962 8.44377 15.9613L9.04699 15.9567L9.23781 15.3844C9.26233 15.3103 9.36721 15.3103 9.39191 15.3844Z" fill="#F5F5F5"/>
<path d="M9.39191 18.378L9.58274 18.9502L10.186 18.9548C10.2641 18.9555 10.2964 19.0551 10.2336 19.1015L9.74836 19.4599L9.93039 20.035C9.95402 20.1094 9.86916 20.1711 9.80559 20.1256L9.31486 19.7749L8.82414 20.1256C8.76057 20.171 8.6759 20.1094 8.69934 20.035L8.88137 19.4599L8.39612 19.1015C8.33332 19.055 8.36565 18.9555 8.44377 18.9548L9.04699 18.9502L9.23781 18.378C9.26233 18.3039 9.36721 18.3039 9.39191 18.378Z" fill="#F5F5F5"/>
<path d="M9.39191 21.3716L9.58274 21.9438L10.186 21.9484C10.2641 21.9491 10.2964 22.0487 10.2336 22.0951L9.74836 22.4535L9.93039 23.0286C9.95402 23.103 9.86916 23.1647 9.80559 23.1192L9.31486 22.7684L8.82414 23.1192C8.76057 23.1646 8.6759 23.103 8.69934 23.0286L8.88137 22.4535L8.39612 22.0951C8.33332 22.0486 8.36565 21.9491 8.44377 21.9484L9.04699 21.9438L9.23781 21.3716C9.26233 21.2975 9.36721 21.2975 9.39191 21.3716Z" fill="#F5F5F5"/>
<path d="M11.7154 10.9231L11.9062 11.4954L12.5094 11.5C12.5875 11.5007 12.6199 11.6003 12.5571 11.6467L12.0718 12.0051L12.2539 12.5802C12.2775 12.6546 12.1926 12.7163 12.129 12.6708L11.6382 12.32L11.1475 12.6708C11.0839 12.7162 10.9993 12.6546 11.0227 12.5802L11.2047 12.0051L10.7195 11.6467C10.6567 11.6002 10.689 11.5007 10.7671 11.5L11.3704 11.4954L11.5612 10.9231C11.5859 10.849 11.6907 10.849 11.7154 10.9231Z" fill="#F5F5F5"/>
<path d="M11.7154 13.9167L11.9062 14.489L12.5094 14.4936C12.5875 14.4943 12.6199 14.5939 12.5571 14.6403L12.0718 14.9987L12.2539 15.5738C12.2775 15.6482 12.1926 15.7099 12.129 15.6644L11.6382 15.3136L11.1475 15.6644C11.0839 15.7098 10.9993 15.6482 11.0227 15.5738L11.2047 14.9987L10.7195 14.6403C10.6567 14.5938 10.689 14.4943 10.7671 14.4936L11.3704 14.489L11.5612 13.9167C11.5859 13.8427 11.6907 13.8427 11.7154 13.9167Z" fill="#F5F5F5"/>
<path d="M11.7154 16.9103L11.9062 17.4825L12.5094 17.4871C12.5875 17.4878 12.6199 17.5874 12.5571 17.6338L12.0718 17.9922L12.2539 18.5673C12.2775 18.6417 12.1926 18.7034 12.129 18.6579L11.6382 18.3071L11.1475 18.6579C11.0839 18.7033 10.9993 18.6417 11.0227 18.5673L11.2047 17.9922L10.7195 17.6338C10.6567 17.5873 10.689 17.4878 10.7671 17.4871L11.3704 17.4825L11.5612 16.9103C11.5859 16.8362 11.6907 16.8362 11.7154 16.9103Z" fill="#F5F5F5"/>
<path d="M11.7154 19.9039L11.9062 20.4761L12.5094 20.4807C12.5875 20.4814 12.6199 20.581 12.5571 20.6274L12.0718 20.9858L12.2539 21.5609C12.2775 21.6353 12.1926 21.697 12.129 21.6515L11.6382 21.3007L11.1475 21.6515C11.0839 21.6969 10.9993 21.6353 11.0227 21.5609L11.2047 20.9858L10.7195 20.6274C10.6567 20.5809 10.689 20.4814 10.7671 20.4807L11.3704 20.4761L11.5612 19.9039C11.5859 19.8297 11.6907 19.8297 11.7154 19.9039Z" fill="#F5F5F5"/>
<path d="M11.7154 22.8975L11.9062 23.4697L12.5094 23.4743C12.5875 23.475 12.6199 23.5746 12.5571 23.621L12.0718 23.9794L12.2539 24.5545C12.2775 24.6289 12.1926 24.6906 12.129 24.6451L11.6382 24.2943L11.1475 24.6451C11.0839 24.6905 10.9993 24.6289 11.0227 24.5545L11.2047 23.9794L10.7195 23.621C10.6567 23.5745 10.689 23.475 10.7671 23.4743L11.3704 23.4697L11.5612 22.8975C11.5859 22.8232 11.6907 22.8232 11.7154 22.8975Z" fill="#F5F5F5"/>
<path d="M14.039 12.3908L14.2298 12.9631L14.8331 12.9677C14.9112 12.9684 14.9435 13.068 14.8807 13.1144L14.3955 13.4728L14.5775 14.0479C14.6011 14.1223 14.5163 14.184 14.4527 14.1385L13.962 13.7877L13.4712 14.1385C13.4077 14.1839 13.323 14.1223 13.3464 14.0479L13.5285 13.4728L13.0432 13.1144C12.9804 13.0679 13.0127 12.9684 13.0909 12.9677L13.6941 12.9631L13.8849 12.3908C13.9096 12.3168 14.0143 12.3168 14.039 12.3908Z" fill="#F5F5F5"/>
<path d="M14.039 15.3844L14.2298 15.9567L14.8331 15.9613C14.9112 15.962 14.9435 16.0616 14.8807 16.108L14.3955 16.4664L14.5775 17.0415C14.6011 17.1159 14.5163 17.1776 14.4527 17.1321L13.962 16.7813L13.4712 17.1321C13.4077 17.1775 13.323 17.116 13.3464 17.0415L13.5285 16.4664L13.0432 16.108C12.9804 16.0615 13.0127 15.962 13.0909 15.9613L13.6941 15.9567L13.8849 15.3844C13.9096 15.3103 14.0143 15.3103 14.039 15.3844Z" fill="#F5F5F5"/>
<path d="M14.039 18.378L14.2298 18.9502L14.8331 18.9548C14.9112 18.9555 14.9435 19.0551 14.8807 19.1015L14.3955 19.4599L14.5775 20.035C14.6011 20.1094 14.5163 20.1711 14.4527 20.1256L13.962 19.7749L13.4712 20.1256C13.4077 20.171 13.323 20.1094 13.3464 20.035L13.5285 19.4599L13.0432 19.1015C12.9804 19.055 13.0127 18.9555 13.0909 18.9548L13.6941 18.9502L13.8849 18.378C13.9096 18.3039 14.0143 18.3039 14.039 18.378Z" fill="#F5F5F5"/>
<path d="M14.039 21.3716L14.2298 21.9438L14.8331 21.9484C14.9112 21.9491 14.9435 22.0487 14.8807 22.0951L14.3955 22.4535L14.5775 23.0286C14.6011 23.103 14.5163 23.1647 14.4527 23.1192L13.962 22.7684L13.4712 23.1192C13.4077 23.1646 13.323 23.103 13.3464 23.0286L13.5285 22.4535L13.0432 22.0951C12.9804 22.0486 13.0127 21.9491 13.0909 21.9484L13.6941 21.9438L13.8849 21.3716C13.9096 21.2975 14.0143 21.2975 14.039 21.3716Z" fill="#F5F5F5"/>
<path d="M16.3626 10.9231L16.5534 11.4954L17.1567 11.5C17.2348 11.5007 17.2671 11.6003 17.2043 11.6467L16.7191 12.0051L16.9011 12.5802C16.9247 12.6546 16.8399 12.7163 16.7763 12.6708L16.2856 12.32L15.7948 12.6708C15.7313 12.7162 15.6466 12.6546 15.67 12.5802L15.8521 12.0051L15.3668 11.6467C15.304 11.6002 15.3364 11.5007 15.4145 11.5L16.0177 11.4954L16.2085 10.9231C16.233 10.849 16.3379 10.849 16.3626 10.9231Z" fill="#F5F5F5"/>
<path d="M16.3626 13.9167L16.5534 14.489L17.1567 14.4936C17.2348 14.4943 17.2671 14.5939 17.2043 14.6403L16.7191 14.9987L16.9011 15.5738C16.9247 15.6482 16.8399 15.7099 16.7763 15.6644L16.2856 15.3136L15.7948 15.6644C15.7313 15.7098 15.6466 15.6482 15.67 15.5738L15.8521 14.9987L15.3668 14.6403C15.304 14.5938 15.3364 14.4943 15.4145 14.4936L16.0177 14.489L16.2085 13.9167C16.233 13.8427 16.3379 13.8427 16.3626 13.9167Z" fill="#F5F5F5"/>
<path d="M16.3626 16.9103L16.5534 17.4825L17.1567 17.4871C17.2348 17.4878 17.2671 17.5874 17.2043 17.6338L16.7191 17.9922L16.9011 18.5673C16.9247 18.6417 16.8399 18.7034 16.7763 18.6579L16.2856 18.3071L15.7948 18.6579C15.7313 18.7033 15.6466 18.6417 15.67 18.5673L15.8521 17.9922L15.3668 17.6338C15.304 17.5873 15.3364 17.4878 15.4145 17.4871L16.0177 17.4825L16.2085 16.9103C16.233 16.8362 16.3379 16.8362 16.3626 16.9103Z" fill="#F5F5F5"/>
<path d="M16.3626 19.9039L16.5534 20.4761L17.1567 20.4807C17.2348 20.4814 17.2671 20.581 17.2043 20.6274L16.7191 20.9858L16.9011 21.5609C16.9247 21.6353 16.8399 21.697 16.7763 21.6515L16.2856 21.3007L15.7948 21.6515C15.7313 21.6969 15.6466 21.6353 15.67 21.5609L15.8521 20.9858L15.3668 20.6274C15.304 20.5809 15.3364 20.4814 15.4145 20.4807L16.0177 20.4761L16.2085 19.9039C16.233 19.8297 16.3379 19.8297 16.3626 19.9039Z" fill="#F5F5F5"/>
<path d="M16.3626 22.8975L16.5534 23.4697L17.1567 23.4743C17.2348 23.475 17.2671 23.5746 17.2043 23.621L16.7191 23.9794L16.9011 24.5545C16.9247 24.6289 16.8399 24.6906 16.7763 24.6451L16.2856 24.2943L15.7948 24.6451C15.7313 24.6905 15.6466 24.6289 15.67 24.5545L15.8521 23.9794L15.3668 23.621C15.304 23.5745 15.3364 23.475 15.4145 23.4743L16.0177 23.4697L16.2085 22.8975C16.233 22.8232 16.3379 22.8232 16.3626 22.8975Z" fill="#F5F5F5"/>
<path d="M18.686 12.3908L18.8769 12.9631L19.4801 12.9677C19.5582 12.9684 19.5905 13.068 19.5277 13.1144L19.0425 13.4728L19.2245 14.0479C19.2482 14.1223 19.1633 14.184 19.0997 14.1385L18.609 13.7877L18.1183 14.1385C18.0547 14.1839 17.97 14.1223 17.9935 14.0479L18.1755 13.4728L17.6902 13.1144C17.6275 13.0679 17.6598 12.9684 17.7379 12.9677L18.3411 12.9631L18.5319 12.3908C18.5566 12.3168 18.6614 12.3168 18.686 12.3908Z" fill="#F5F5F5"/>
<path d="M18.686 15.3844L18.8769 15.9567L19.4801 15.9613C19.5582 15.962 19.5905 16.0616 19.5277 16.108L19.0425 16.4664L19.2245 17.0415C19.2482 17.1159 19.1633 17.1776 19.0997 17.1321L18.609 16.7813L18.1183 17.1321C18.0547 17.1775 17.97 17.116 17.9935 17.0415L18.1755 16.4664L17.6902 16.108C17.6275 16.0615 17.6598 15.962 17.7379 15.9613L18.3411 15.9567L18.5319 15.3844C18.5566 15.3103 18.6614 15.3103 18.686 15.3844Z" fill="#F5F5F5"/>
<path d="M18.686 18.378L18.8769 18.9502L19.4801 18.9548C19.5582 18.9555 19.5905 19.0551 19.5277 19.1015L19.0425 19.4599L19.2245 20.035C19.2482 20.1094 19.1633 20.1711 19.0997 20.1256L18.609 19.7749L18.1183 20.1256C18.0547 20.171 17.97 20.1094 17.9935 20.035L18.1755 19.4599L17.6902 19.1015C17.6275 19.055 17.6598 18.9555 17.7379 18.9548L18.3411 18.9502L18.5319 18.378C18.5566 18.3039 18.6614 18.3039 18.686 18.378Z" fill="#F5F5F5"/>
<path d="M18.686 21.3716L18.8769 21.9438L19.4801 21.9484C19.5582 21.9491 19.5905 22.0487 19.5277 22.0951L19.0425 22.4535L19.2245 23.0286C19.2482 23.103 19.1633 23.1647 19.0997 23.1192L18.609 22.7684L18.1183 23.1192C18.0547 23.1646 17.97 23.103 17.9935 23.0286L18.1755 22.4535L17.6902 22.0951C17.6275 22.0486 17.6598 21.9491 17.7379 21.9484L18.3411 21.9438L18.5319 21.3716C18.5566 21.2975 18.6614 21.2975 18.686 21.3716Z" fill="#F5F5F5"/>
<path d="M21.0097 10.9231L21.2005 11.4954L21.8038 11.5C21.8819 11.5007 21.9142 11.6003 21.8514 11.6467L21.3662 12.0051L21.5482 12.5802C21.5718 12.6546 21.487 12.7163 21.4234 12.6708L20.9327 12.32L20.4419 12.6708C20.3784 12.7162 20.2937 12.6546 20.3171 12.5802L20.4992 12.0051L20.0139 11.6467C19.9511 11.6002 19.9834 11.5007 20.0616 11.5L20.6648 11.4954L20.8556 10.9231C20.8802 10.849 20.9849 10.849 21.0097 10.9231Z" fill="#F5F5F5"/>
<path d="M21.0097 13.9167L21.2005 14.489L21.8038 14.4936C21.8819 14.4943 21.9142 14.5939 21.8514 14.6403L21.3662 14.9987L21.5482 15.5738C21.5718 15.6482 21.487 15.7099 21.4234 15.6644L20.9327 15.3136L20.4419 15.6644C20.3784 15.7098 20.2937 15.6482 20.3171 15.5738L20.4992 14.9987L20.0139 14.6403C19.9511 14.5938 19.9834 14.4943 20.0616 14.4936L20.6648 14.489L20.8556 13.9167C20.8802 13.8427 20.9849 13.8427 21.0097 13.9167Z" fill="#F5F5F5"/>
<path d="M21.0097 16.9103L21.2005 17.4825L21.8038 17.4871C21.8819 17.4878 21.9142 17.5874 21.8514 17.6338L21.3662 17.9922L21.5482 18.5673C21.5718 18.6417 21.487 18.7034 21.4234 18.6579L20.9327 18.3071L20.4419 18.6579C20.3784 18.7033 20.2937 18.6417 20.3171 18.5673L20.4992 17.9922L20.0139 17.6338C19.9511 17.5873 19.9834 17.4878 20.0616 17.4871L20.6648 17.4825L20.8556 16.9103C20.8802 16.8362 20.9849 16.8362 21.0097 16.9103Z" fill="#F5F5F5"/>
<path d="M21.0097 19.9039L21.2005 20.4761L21.8038 20.4807C21.8819 20.4814 21.9142 20.581 21.8514 20.6274L21.3662 20.9858L21.5482 21.5609C21.5718 21.6353 21.487 21.697 21.4234 21.6515L20.9327 21.3007L20.4419 21.6515C20.3784 21.6969 20.2937 21.6353 20.3171 21.5609L20.4992 20.9858L20.0139 20.6274C19.9511 20.5809 19.9834 20.4814 20.0616 20.4807L20.6648 20.4761L20.8556 19.9039C20.8802 19.8297 20.9849 19.8297 21.0097 19.9039Z" fill="#F5F5F5"/>
<path d="M21.0097 22.8975L21.2005 23.4697L21.8038 23.4743C21.8819 23.475 21.9142 23.5746 21.8514 23.621L21.3662 23.9794L21.5482 24.5545C21.5718 24.6289 21.487 24.6906 21.4234 24.6451L20.9327 24.2943L20.4419 24.6451C20.3784 24.6905 20.2937 24.6289 20.3171 24.5545L20.4992 23.9794L20.0139 23.621C19.9511 23.5745 19.9834 23.475 20.0616 23.4743L20.6648 23.4697L20.8556 22.8975C20.8802 22.8232 20.9849 22.8232 21.0097 22.8975Z" fill="#F5F5F5"/>
</g>
<defs>
<clipPath id="clip0_9_990">
<rect width="50" height="50" fill="white" transform="translate(0 0.32373)"/>
</clipPath>
</defs>
</svg>
