<svg width="51" height="51" viewBox="0 0 51 51" fill="none" xmlns="http://www.w3.org/2000/svg">
    <g clip-path="url(#clip0_9_948)">
        <path
            d="M49.5647 8.94446H1.28899C0.812914 8.94446 0.42688 9.33039 0.42688 9.80647V40.8409C0.42688 41.317 0.812914 41.703 1.28899 41.703H49.5648C50.0408 41.703 50.4269 41.317 50.4269 40.8409V9.80647C50.4268 9.33039 50.0407 8.94446 49.5647 8.94446Z"
            fill="#F5F5F5" />
        <path d="M50.4267 12.5845H18.5303V16.2241H50.4267V12.5845Z" fill="#4173CD" />
        <path d="M50.4268 16.2241H0.42688V19.8638H50.4268V16.2241Z" fill="#F5F5F5" />
        <path d="M50.4267 19.8638H18.5303V23.5034H50.4267V19.8638Z" fill="#4173CD" />
        <path d="M50.4268 23.5034H0.42688V27.1431H50.4268V23.5034Z" fill="#F5F5F5" />
        <path d="M50.4268 27.144H0.42688V30.7837H50.4268V27.144Z" fill="#4173CD" />
        <path d="M50.4268 30.7836H0.42688V34.4232H50.4268V30.7836Z" fill="#F5F5F5" />
        <path d="M50.4268 34.4232H0.42688V38.0629H50.4268V34.4232Z" fill="#4173CD" />
        <path d="M6.67462 11.2262L8.11671 17.8993L10.3732 16.9646L6.67462 11.2262Z"
            fill="#FFE15A" />
        <path d="M6.67462 11.2262L9.24493 17.4319L8.11671 17.8993L6.67462 11.2262Z"
            fill="#FFCD5A" />
        <path d="M12.2826 24.7659L10.8405 18.0928L8.58392 19.0275L12.2826 24.7659Z"
            fill="#FFE15A" />
        <path d="M12.2827 24.7659L9.71228 18.5602L10.8405 18.0928L12.2827 24.7659Z"
            fill="#FFCD5A" />
        <path d="M16.2484 15.1921L9.57538 16.6342L10.51 18.8908L16.2484 15.1921Z" fill="#FFE15A" />
        <path d="M16.2484 15.1921L10.0427 17.7624L9.57538 16.6342L16.2484 15.1921Z"
            fill="#FFCD5A" />
        <path d="M2.70874 20.8002L9.38178 19.3581L8.44701 17.1016L2.70874 20.8002Z"
            fill="#FFE15A" />
        <path d="M2.70874 20.8002L8.91439 18.2299L9.38178 19.3581L2.70874 20.8002Z"
            fill="#FFCD5A" />
        <path d="M12.2826 11.2262L8.58392 16.9646L10.8405 17.8993L12.2826 11.2262Z"
            fill="#FFE15A" />
        <path d="M12.2826 11.2262L9.71224 17.4319L8.58392 16.9646L12.2826 11.2262Z"
            fill="#FFCD5A" />
        <path d="M6.67462 24.7659L10.3732 19.0275L8.11671 18.0928L6.67462 24.7659Z"
            fill="#FFE15A" />
        <path d="M6.67462 24.7659L9.24493 18.5602L10.3732 19.0276L6.67462 24.7659Z"
            fill="#FFCD5A" />
        <path d="M16.2484 20.8002L10.51 17.1016L9.57538 19.3581L16.2484 20.8002Z" fill="#FFE15A" />
        <path d="M16.2485 20.8002L10.0427 18.2299L10.5101 17.1016L16.2485 20.8002Z"
            fill="#FFCD5A" />
        <path d="M2.70874 15.1921L8.44701 18.8908L9.38178 16.6342L2.70874 15.1921Z"
            fill="#FFE15A" />
        <path d="M2.70874 15.1921L8.91439 17.7624L8.44701 18.8908L2.70874 15.1921Z"
            fill="#FFCD5A" />
        <path d="M9.47849 10.6686L8.2572 17.3855H10.6997L9.47849 10.6686Z" fill="#FFE15A" />
        <path d="M9.47849 10.6686V17.3855H8.2572L9.47849 10.6686Z" fill="#FFCD5A" />
        <path d="M9.47849 25.3237L10.6997 18.6068H8.2572L9.47849 25.3237Z" fill="#FFE15A" />
        <path d="M9.4787 25.3237V18.6068H10.6999L9.4787 25.3237Z" fill="#FFCD5A" />
        <path d="M16.8062 17.9962L10.0893 16.7749V19.2174L16.8062 17.9962Z" fill="#FFE15A" />
        <path d="M16.8062 17.9962H10.0893V16.7749L16.8062 17.9962Z" fill="#FFCD5A" />
        <path d="M2.15094 17.9962L8.86782 19.2174V16.7749L2.15094 17.9962Z" fill="#FFE15A" />
        <path d="M2.15094 17.9962H8.86782V19.2174L2.15094 17.9962Z" fill="#FFCD5A" />
        <path d="M14.66 12.8147L9.04688 16.7007L10.774 18.4279L14.66 12.8147Z" fill="#FFE15A" />
        <path d="M14.66 12.8147L9.91045 17.5643L9.04688 16.7007L14.66 12.8147Z" fill="#FFCD5A" />
        <path d="M4.29742 23.1775L9.9105 19.2915L8.18335 17.5643L4.29742 23.1775Z" fill="#FFE15A" />
        <path d="M4.29742 23.1775L9.04693 18.4279L9.9105 19.2914L4.29742 23.1775Z" fill="#FFCD5A" />
        <path d="M14.66 23.1775L10.774 17.5643L9.04688 19.2915L14.66 23.1775Z" fill="#FFE15A" />
        <path d="M14.6599 23.1775L9.91034 18.4279L10.7739 17.5643L14.6599 23.1775Z"
            fill="#FFCD5A" />
        <path d="M4.29742 12.8147L8.18335 18.4279L9.9105 16.7007L4.29742 12.8147Z" fill="#FFE15A" />
        <path d="M4.29742 12.8147L9.04693 17.5643L8.18336 18.4279L4.29742 12.8147Z"
            fill="#FFCD5A" />
        <path
            d="M9.47869 20.439C10.8276 20.439 11.9211 19.3455 11.9211 17.9966C11.9211 16.6477 10.8276 15.5542 9.47869 15.5542C8.12981 15.5542 7.03632 16.6477 7.03632 17.9966C7.03632 19.3455 8.12981 20.439 9.47869 20.439Z"
            fill="#FFE15A" />
    </g>
    <defs>
        <clipPath id="clip0_9_948">
            <rect width="50" height="50" fill="white" transform="translate(0.427734 0.32373)" />
        </clipPath>
    </defs>
</svg>
