<svg width="51" height="51" viewBox="0 0 51 51" fill="none" xmlns="http://www.w3.org/2000/svg">
    <g clip-path="url(#clip0_9_924)">
        <path
            d="M50.7208 19.8641H0.720886V9.80657C0.720886 9.33049 1.10692 8.94446 1.58299 8.94446H49.8588C50.3349 8.94446 50.7209 9.33049 50.7209 9.80657L50.7208 19.8641Z"
            fill="#82AFFF" />
        <path
            d="M49.8587 41.7031H1.58299C1.10692 41.7031 0.720886 41.317 0.720886 40.841V30.7836H50.7208V40.841C50.7208 41.3171 50.3348 41.7031 49.8587 41.7031Z"
            fill="#73AF00" />
        <path d="M50.7208 19.8639H0.720886V30.7828H50.7208V19.8639Z" fill="#F5F5F5" />
        <path d="M50.7208 18.894H0.720886V20.2556H50.7208V18.894Z" fill="#FF4B55" />
        <path d="M50.721 30.3911H0.721069V31.7526H50.721V30.3911Z" fill="#FF4B55" />
        <path
            d="M11.8038 17.1276C10.039 17.1276 8.6084 15.7005 8.6084 13.942C8.6084 12.177 10.0389 10.7434 11.8038 10.7434C11.8106 10.7434 11.8173 10.7434 11.8239 10.7435C11.9278 10.7449 11.9643 10.6069 11.8727 10.5578C11.3292 10.2665 10.709 10.1016 10.0496 10.1064C7.9379 10.1215 6.22257 11.8714 6.24503 13.9831C6.2671 16.073 7.97569 17.7647 10.0772 17.7647C10.7275 17.7647 11.3391 17.6002 11.8758 17.3129C11.9671 17.2639 11.9302 17.1259 11.8267 17.1274C11.8188 17.1276 11.8113 17.1276 11.8038 17.1276Z"
            fill="#F5F5F5" />
        <path
            d="M14.3055 16.2467L14.1629 16.6747L13.7118 16.6781C13.6534 16.6785 13.6292 16.7531 13.6761 16.7877L14.039 17.0557L13.9029 17.4858C13.8853 17.5415 13.9487 17.5875 13.9963 17.5536L14.3633 17.2913L14.7302 17.5536C14.7778 17.5875 14.8411 17.5415 14.8236 17.4858L14.6875 17.0557L15.0503 16.7877C15.0972 16.7531 15.073 16.6785 15.0146 16.6781L14.5635 16.6747L14.4209 16.2467C14.4024 16.1914 14.3241 16.1914 14.3055 16.2467Z"
            fill="#F5F5F5" />
        <path
            d="M17.4835 16.2467L17.3408 16.6747L16.8898 16.6781C16.8314 16.6785 16.8072 16.7531 16.8541 16.7877L17.2169 17.0557L17.0808 17.4858C17.0632 17.5415 17.1266 17.5875 17.1741 17.5536L17.5411 17.2913L17.9081 17.5536C17.9557 17.5875 18.019 17.5415 18.0015 17.4858L17.8654 17.0557L18.2282 16.7877C18.2751 16.7531 18.2509 16.6785 18.1925 16.6781L17.7414 16.6747L17.5988 16.2467C17.5803 16.1914 17.5019 16.1914 17.4835 16.2467Z"
            fill="#F5F5F5" />
        <path
            d="M20.6614 16.2467L20.5188 16.6747L20.0677 16.6781C20.0093 16.6785 19.9851 16.7531 20.032 16.7877L20.3949 17.0557L20.2588 17.4858C20.2412 17.5415 20.3046 17.5875 20.3522 17.5536L20.7192 17.2913L21.0861 17.5536C21.1337 17.5875 21.197 17.5415 21.1795 17.4858L21.0434 17.0557L21.4062 16.7877C21.4531 16.7531 21.4289 16.6785 21.3705 16.6781L20.9194 16.6747L20.7768 16.2467C20.7583 16.1914 20.6799 16.1914 20.6614 16.2467Z"
            fill="#F5F5F5" />
        <path
            d="M23.8391 16.2467L23.6964 16.6747L23.2454 16.6781C23.187 16.6785 23.1627 16.7531 23.2097 16.7877L23.5725 17.0557L23.4364 17.4858C23.4188 17.5415 23.4822 17.5875 23.5297 17.5536L23.8967 17.2913L24.2637 17.5536C24.3113 17.5875 24.3746 17.5415 24.3571 17.4858L24.2209 17.0557L24.5837 16.7877C24.6307 16.7531 24.6065 16.6785 24.5481 16.6781L24.097 16.6747L23.9543 16.2467C23.936 16.1914 23.8576 16.1914 23.8391 16.2467Z"
            fill="#F5F5F5" />
        <path
            d="M27.0174 16.2467L26.8747 16.6747L26.4236 16.6781C26.3652 16.6785 26.341 16.7531 26.388 16.7877L26.7509 17.0557L26.6148 17.4858C26.5972 17.5415 26.6606 17.5875 26.7081 17.5536L27.0751 17.2913L27.4421 17.5536C27.4897 17.5875 27.5529 17.5415 27.5355 17.4858L27.3993 17.0557L27.7622 16.7877C27.8092 16.7531 27.785 16.6785 27.7266 16.6781L27.2755 16.6747L27.1328 16.2467C27.1142 16.1914 27.0358 16.1914 27.0174 16.2467Z"
            fill="#F5F5F5" />
        <path
            d="M17.4835 13.2807L17.3408 13.7086L16.8898 13.712C16.8314 13.7124 16.8072 13.787 16.8541 13.8217L17.2169 14.0897L17.0808 14.5198C17.0632 14.5754 17.1266 14.6215 17.1741 14.5875L17.5411 14.3252L17.9081 14.5875C17.9557 14.6215 18.019 14.5754 18.0015 14.5198L17.8654 14.0897L18.2282 13.8217C18.2751 13.787 18.2509 13.7124 18.1925 13.712L17.7414 13.7086L17.5988 13.2807C17.5803 13.2251 17.5019 13.2251 17.4835 13.2807Z"
            fill="#F5F5F5" />
        <path
            d="M20.6614 13.2807L20.5188 13.7086L20.0677 13.712C20.0093 13.7124 19.9851 13.787 20.032 13.8217L20.3949 14.0897L20.2588 14.5198C20.2412 14.5754 20.3046 14.6215 20.3522 14.5875L20.7192 14.3252L21.0861 14.5875C21.1337 14.6215 21.197 14.5754 21.1795 14.5198L21.0434 14.0897L21.4062 13.8217C21.4531 13.787 21.4289 13.7124 21.3705 13.712L20.9194 13.7086L20.7768 13.2807C20.7583 13.2251 20.6799 13.2251 20.6614 13.2807Z"
            fill="#F5F5F5" />
        <path
            d="M23.8391 13.2807L23.6964 13.7086L23.2454 13.712C23.187 13.7124 23.1627 13.787 23.2097 13.8217L23.5725 14.0897L23.4364 14.5198C23.4188 14.5754 23.4822 14.6215 23.5297 14.5875L23.8967 14.3252L24.2637 14.5875C24.3113 14.6215 24.3746 14.5754 24.3571 14.5198L24.2209 14.0897L24.5837 13.8217C24.6307 13.787 24.6065 13.7124 24.5481 13.712L24.097 13.7086L23.9543 13.2807C23.936 13.2251 23.8576 13.2251 23.8391 13.2807Z"
            fill="#F5F5F5" />
        <path
            d="M27.0174 13.2807L26.8747 13.7086L26.4236 13.712C26.3652 13.7124 26.341 13.787 26.388 13.8217L26.7509 14.0897L26.6148 14.5198C26.5972 14.5754 26.6606 14.6215 26.7081 14.5875L27.0751 14.3252L27.4421 14.5875C27.4897 14.6215 27.5529 14.5754 27.5355 14.5198L27.3993 14.0897L27.7622 13.8217C27.8092 13.787 27.785 13.7124 27.7266 13.712L27.2755 13.7086L27.1328 13.2807C27.1142 13.2251 27.0358 13.2251 27.0174 13.2807Z"
            fill="#F5F5F5" />
        <path
            d="M20.6614 16.2467L20.5188 16.6747L20.0677 16.6781C20.0093 16.6785 19.9851 16.7531 20.032 16.7877L20.3949 17.0557L20.2588 17.4858C20.2412 17.5415 20.3046 17.5875 20.3522 17.5536L20.7192 17.2913L21.0861 17.5536C21.1337 17.5875 21.197 17.5415 21.1795 17.4858L21.0434 17.0557L21.4062 16.7877C21.4531 16.7531 21.4289 16.6785 21.3705 16.6781L20.9194 16.6747L20.7768 16.2467C20.7583 16.1914 20.6799 16.1914 20.6614 16.2467Z"
            fill="#F5F5F5" />
        <path
            d="M20.6614 10.3146L20.5188 10.7425L20.0677 10.7459C20.0093 10.7463 19.9851 10.8209 20.032 10.8556L20.3949 11.1236L20.2588 11.5537C20.2412 11.6093 20.3046 11.6554 20.3522 11.6214L20.7192 11.3591L21.0861 11.6214C21.1337 11.6554 21.197 11.6093 21.1795 11.5537L21.0434 11.1236L21.4062 10.8556C21.4531 10.8209 21.4289 10.7463 21.3705 10.7459L20.9194 10.7425L20.7768 10.3146C20.7583 10.2592 20.6799 10.2592 20.6614 10.3146Z"
            fill="#F5F5F5" />
        <path
            d="M23.8391 16.2467L23.6964 16.6747L23.2454 16.6781C23.187 16.6785 23.1627 16.7531 23.2097 16.7877L23.5725 17.0557L23.4364 17.4858C23.4188 17.5415 23.4822 17.5875 23.5297 17.5536L23.8967 17.2913L24.2637 17.5536C24.3113 17.5875 24.3746 17.5415 24.3571 17.4858L24.2209 17.0557L24.5837 16.7877C24.6307 16.7531 24.6065 16.6785 24.5481 16.6781L24.097 16.6747L23.9543 16.2467C23.936 16.1914 23.8576 16.1914 23.8391 16.2467Z"
            fill="#F5F5F5" />
        <path
            d="M27.0174 16.2467L26.8747 16.6747L26.4236 16.6781C26.3652 16.6785 26.341 16.7531 26.388 16.7877L26.7509 17.0557L26.6148 17.4858C26.5972 17.5415 26.6606 17.5875 26.7081 17.5536L27.0751 17.2913L27.4421 17.5536C27.4897 17.5875 27.5529 17.5415 27.5355 17.4858L27.3993 17.0557L27.7622 16.7877C27.8092 16.7531 27.785 16.6785 27.7266 16.6781L27.2755 16.6747L27.1328 16.2467C27.1142 16.1914 27.0358 16.1914 27.0174 16.2467Z"
            fill="#F5F5F5" />
        <path
            d="M23.8391 10.3146L23.6964 10.7425L23.2454 10.7459C23.187 10.7463 23.1627 10.8209 23.2097 10.8556L23.5725 11.1236L23.4364 11.5537C23.4188 11.6093 23.4822 11.6554 23.5297 11.6214L23.8967 11.3591L24.2637 11.6214C24.3113 11.6554 24.3746 11.6093 24.3571 11.5537L24.2209 11.1236L24.5837 10.8556C24.6307 10.8209 24.6065 10.7463 24.5481 10.7459L24.097 10.7425L23.9543 10.3146C23.936 10.2592 23.8576 10.2592 23.8391 10.3146Z"
            fill="#F5F5F5" />
        <path
            d="M27.0174 10.3146L26.8747 10.7425L26.4236 10.7459C26.3652 10.7463 26.341 10.8209 26.388 10.8556L26.7509 11.1236L26.6148 11.5537C26.5972 11.6093 26.6606 11.6554 26.7081 11.6214L27.0751 11.3591L27.4421 11.6214C27.4897 11.6554 27.5529 11.6093 27.5355 11.5537L27.3993 11.1236L27.7622 10.8556C27.8092 10.8209 27.785 10.7463 27.7266 10.7459L27.2755 10.7425L27.1328 10.3146C27.1142 10.2592 27.0358 10.2592 27.0174 10.3146Z"
            fill="#F5F5F5" />
    </g>
    <defs>
        <clipPath id="clip0_9_924">
            <rect width="50" height="50" fill="white" transform="translate(0.720703 0.32373)" />
        </clipPath>
    </defs>
</svg>
