<svg width="51" height="51" viewBox="0 0 51 51" fill="none" xmlns="http://www.w3.org/2000/svg">
<g clip-path="url(#clip0_9_916)">
<path d="M49.2856 41.703H1.00987C0.533801 41.703 0.147766 41.317 0.147766 40.8409V9.80657C0.147766 9.33049 0.533801 8.94446 1.00987 8.94446H49.2857C49.7617 8.94446 50.1478 9.33049 50.1478 9.80657V40.8409C50.1477 41.3171 49.7616 41.703 49.2856 41.703Z" fill="#464655"/>
<path d="M50.1477 24.4616H24.5075L0.147766 11.0215V12.9911L22.5009 25.3237L0.147766 37.6563V39.626L24.5075 26.1858H50.1477V24.4616Z" fill="#FFE15A"/>
<path d="M0.492615 41.5127C0.63822 41.6249 0.81195 41.703 1.0099 41.703H49.2857C49.7618 41.703 50.1478 41.3169 50.1478 40.8408V27.9099H25.1476L0.492615 41.5127Z" fill="#73AF00"/>
<path d="M49.2856 8.94446H1.0099C0.81195 8.94446 0.638122 9.02258 0.492615 9.13479L25.1476 22.7375H50.1475V9.80657C50.1477 9.33049 49.7617 8.94446 49.2856 8.94446Z" fill="#FF4B55"/>
<path d="M7.61395 20.4885C5.15252 19.7142 3.29423 21.5028 2.86952 22.4233C2.50985 23.2032 1.84169 26.7364 5.17235 27.2998C8.50281 27.8633 8.46531 24.7205 8.46531 24.7205C8.31512 25.2214 8.04578 26.6487 5.64168 26.6487C4.73993 26.6487 3.44432 25.309 3.68846 23.8316C3.91825 22.4413 5.16014 21.7302 6.09881 21.6906C6.98768 21.6531 9.05994 22.2665 9.05994 24.7896C9.05994 27.6254 6.13709 27.9448 6.13709 27.9448V29.6572C8.68133 29.4078 10.1212 27.9985 10.5022 25.7409C10.8819 23.4936 10.1167 21.2759 7.61395 20.4885Z" fill="#FFE15A"/>
<path d="M4.88914 24.6937C4.83103 24.7674 4.80018 24.8591 4.79861 24.953L4.79139 25.4135L4.70174 25.5699C4.66941 25.6263 4.68856 25.6984 4.7448 25.7312C4.80174 25.7645 4.87478 25.745 4.9075 25.6876L4.99939 25.5269L5.36717 25.3937C5.47859 25.3534 5.56814 25.2696 5.61658 25.1615C5.71267 24.9469 5.91902 24.553 6.2534 24.1419C6.58777 24.553 6.79412 24.9469 6.89021 25.1615C6.93855 25.2696 7.0281 25.3533 7.13953 25.3937L7.5074 25.5269L7.59929 25.6876C7.63191 25.745 7.70515 25.7645 7.76199 25.7312C7.81824 25.6983 7.83738 25.6263 7.80505 25.5699L7.7154 25.4135L7.70818 24.953C7.70671 24.8591 7.67576 24.7674 7.61765 24.6937C7.30955 24.3024 6.98181 23.9947 6.65886 23.7225C6.91697 23.4799 7.20876 23.2484 7.57624 23.0696C7.6613 23.0282 7.70574 22.9328 7.68376 22.8408C7.65378 22.7152 7.51648 22.6493 7.39949 22.7039C7.1532 22.8187 6.72966 23.0448 6.2533 23.3921C5.77683 23.0449 5.3534 22.8189 5.10711 22.7039C4.99012 22.6495 4.85281 22.7154 4.82283 22.8408C4.80096 22.9328 4.84539 23.0282 4.93025 23.0696C5.29783 23.2484 5.58963 23.48 5.84773 23.7225C5.52498 23.9947 5.19725 24.3025 4.88914 24.6937Z" fill="#FFE15A"/>
</g>
<defs>
<clipPath id="clip0_9_916">
<rect width="50" height="50" fill="white" transform="translate(0.148438 0.32373)"/>
</clipPath>
</defs>
</svg>
