<svg width="51" height="51" viewBox="0 0 51 51" fill="none" xmlns="http://www.w3.org/2000/svg">
    <g clip-path="url(#clip0_9_862)">
        <path
            d="M49.5796 8.94446H25.4417V41.7031H49.5796C50.0557 41.7031 50.4417 41.317 50.4417 40.8409V9.80647C50.4417 9.3304 50.0557 8.94446 49.5796 8.94446Z"
            fill="#F5F5F5" />
        <path
            d="M1.30388 41.7031H25.4418V8.94446H1.30388C0.827808 8.94446 0.441772 9.3304 0.441772 9.80647V40.8409C0.441772 41.3171 0.827808 41.7031 1.30388 41.7031Z"
            fill="#FFE15A" />
        <path
            d="M40.3118 17.3895L40.2543 17.504C40.4399 17.5987 40.5459 17.7065 40.5459 17.8214L40.517 17.252C40.4784 17.3284 40.4028 17.3833 40.3118 17.3895Z"
            fill="#EBEBEB" />
        <path
            d="M35.8369 17.504L35.7794 17.3895C35.6886 17.3832 35.613 17.3284 35.574 17.252L35.5452 17.8214C35.5452 17.7067 35.6514 17.5987 35.8369 17.504Z"
            fill="#EBEBEB" />
        <path
            d="M35.7954 16.8927C35.9335 16.8927 36.0454 17.0046 36.0454 17.1427C36.0454 17.1927 36.027 17.2366 36.0017 17.2757L36.0675 17.4073C36.2562 17.3409 36.4886 17.2846 36.7537 17.2409L36.7256 17.1284C36.6223 17.0978 36.5454 17.0058 36.5454 16.8926C36.5454 16.7545 36.6573 16.6426 36.7954 16.6426C36.9335 16.6426 37.0454 16.7545 37.0454 16.8926C37.0454 16.9631 37.0158 17.0261 36.969 17.0716L37.0024 17.2051C37.1417 17.1876 37.2877 17.1739 37.4393 17.1635C37.4279 17.1165 37.4204 17.068 37.4204 17.0176C37.4204 16.6725 37.7003 16.3926 38.0454 16.3926C38.3905 16.3926 38.6704 16.6725 38.6704 17.0176C38.6704 17.0682 38.6629 17.1165 38.6516 17.1635C38.8033 17.1738 38.9493 17.1876 39.0885 17.2051L39.1219 17.0716C39.075 17.0261 39.0454 16.9631 39.0454 16.8926C39.0454 16.7545 39.1573 16.6426 39.2954 16.6426C39.4335 16.6426 39.5454 16.7545 39.5454 16.8926C39.5454 17.0059 39.4686 17.0978 39.3652 17.1284L39.3371 17.2409C39.6022 17.2845 39.8347 17.3408 40.0233 17.4073L40.0892 17.2757C40.0639 17.2365 40.0454 17.1927 40.0454 17.1427C40.0454 17.0046 40.1573 16.8927 40.2954 16.8927C40.3854 16.8927 40.4608 16.9428 40.5047 17.0142L40.4856 16.6329C40.2387 16.3527 39.2408 16.1427 38.0454 16.1427C36.85 16.1427 35.8523 16.3525 35.6054 16.6329L35.5862 17.0142C35.6302 16.9428 35.7055 16.8927 35.7954 16.8927Z"
            fill="#EBEBEB" />
        <path
            d="M38.4354 13.9518C38.503 13.8664 38.545 13.76 38.545 13.6427C38.545 13.41 38.3854 13.2162 38.17 13.1604V12.8543C38.2434 12.8108 38.295 12.7342 38.295 12.6427C38.295 12.5046 38.1831 12.3927 38.045 12.3927C37.907 12.3927 37.795 12.5046 37.795 12.6427C37.795 12.7342 37.8467 12.8108 37.92 12.8543V13.1604C37.7047 13.216 37.545 13.41 37.545 13.6427C37.545 13.7601 37.5871 13.8665 37.6547 13.9518C37.7819 13.917 37.9114 13.8927 38.045 13.8927C38.1787 13.8927 38.3081 13.9169 38.4354 13.9518Z"
            fill="#E6B432" />
        <path
            d="M36.9976 15.2174L36.9754 15.1287C36.8721 15.098 36.7953 15.006 36.7953 14.8928C36.7953 14.7547 36.9072 14.6428 37.0453 14.6428C37.1833 14.6428 37.2953 14.7547 37.2953 14.8928C37.2953 14.9633 37.2657 15.0263 37.2188 15.0718L37.247 15.1845C37.4916 15.1578 37.7614 15.1428 38.0452 15.1428C37.8381 15.1428 37.6703 14.9749 37.6703 14.7678C37.6703 14.5607 37.8381 14.3928 38.0452 14.3928C38.2524 14.3928 38.4202 14.5607 38.4202 14.7678C38.4202 14.9749 38.2524 15.1428 38.0452 15.1428C38.3292 15.1428 38.599 15.1578 38.8435 15.1845L38.8717 15.0718C38.8248 15.0263 38.7952 14.9633 38.7952 14.8928C38.7952 14.7547 38.9072 14.6428 39.0452 14.6428C39.1833 14.6428 39.2952 14.7547 39.2952 14.8928C39.2952 15.0061 39.2184 15.098 39.1151 15.1287L39.0929 15.2174C39.22 15.2371 39.3381 15.2598 39.4442 15.2858L39.6285 14.9172C39.3096 14.4232 38.8976 14.0785 38.4355 13.9519C38.3083 13.9171 38.1788 13.8928 38.0452 13.8928C37.9116 13.8928 37.7821 13.917 37.6548 13.9519C37.1926 14.0784 36.7807 14.4231 36.4619 14.9172L36.6461 15.2858C36.7523 15.2598 36.8705 15.2371 36.9976 15.2174Z"
            fill="#EBEBEB" />
        <path
            d="M37.7957 35.6886V35.1427C37.7957 35.0842 37.8039 35.028 37.8166 34.9734C37.81 34.9691 37.8026 34.966 37.7957 34.962C37.7219 34.9192 37.6372 34.8927 37.5457 34.8927C37.4542 34.8927 37.3695 34.9191 37.2957 34.962C37.1469 35.0487 37.0457 35.208 37.0457 35.3927C37.0457 35.5272 37.0995 35.6488 37.1858 35.7385C37.293 35.6793 37.4146 35.6427 37.5456 35.6427C37.6339 35.6427 37.7172 35.6607 37.7957 35.6886Z"
            fill="#E6B432" />
        <path
            d="M38.2956 33.712C38.1468 33.7987 38.0456 33.958 38.0456 34.1427C38.0456 34.2772 38.0994 34.3987 38.1856 34.4885C38.2929 34.4293 38.4144 34.3927 38.5456 34.3927C38.6767 34.3927 38.7981 34.4293 38.9056 34.4885C38.9919 34.3987 39.0456 34.2772 39.0456 34.1427C39.0456 33.9581 38.9444 33.7987 38.7956 33.712C38.7218 33.6692 38.6371 33.6427 38.5456 33.6427C38.4541 33.6427 38.3694 33.6692 38.2956 33.712Z"
            fill="#E6B432" />
        <path
            d="M38.1853 34.4885C38.0017 34.5898 37.8647 34.7636 37.8161 34.9735C37.8035 35.0281 37.7952 35.0843 37.7952 35.1428V35.6887C37.7167 35.6608 37.6334 35.6428 37.5452 35.6428C37.4141 35.6428 37.2925 35.6794 37.1853 35.7386C36.9538 35.8664 36.7952 36.1097 36.7952 36.3928V37.3928H38.2952V36.3928C38.2952 36.3046 38.2773 36.2213 38.2493 36.1428H39.2952V35.1428C39.2952 34.8598 39.1366 34.6164 38.9052 34.4886C38.798 34.4294 38.6764 34.3928 38.5452 34.3928C38.4141 34.3928 38.2925 34.4293 38.1853 34.4885Z"
            fill="#FF4B57" />
        <path
            d="M38.2956 24.4346L38.7227 24.8618L38.8688 24.7157C38.9035 24.6811 38.9467 24.6632 38.9913 24.6531L41.1056 22.5383L42.4599 23.8926L43.3437 23.0088L42.9902 22.6553L42.8134 22.8321L42.4598 22.4785L42.6366 22.3018L42.4598 22.1249L42.8134 21.7714L42.9902 21.9482L43.167 21.7714L43.5205 22.1249L43.3437 22.3018L43.6972 22.6553L44.581 21.7715L43.2264 20.4169L44.1534 19.4897C44.1087 19.4713 44.0667 19.4443 44.0303 19.408L43.5303 18.908C43.493 18.8707 43.4658 18.8275 43.4474 18.7814L38.2391 23.991C38.2724 24.0335 38.2955 24.0846 38.2955 24.1428L38.2956 24.4346Z"
            fill="#E6B432" />
        <path
            d="M37.7222 25.9226L37.0151 25.2155L34.8172 27.4141C34.622 27.6095 34.622 27.926 34.8173 28.1211C34.9149 28.2188 35.0428 28.2676 35.1708 28.2676C35.2987 28.2676 35.4268 28.2188 35.5245 28.1211L37.2425 26.4027L37.7222 25.9226Z"
            fill="#E6B432" />
        <path
            d="M30.8975 28.5176C30.9113 28.4783 30.9204 28.4367 30.9204 28.3927C30.9204 28.1856 30.7525 28.0177 30.5454 28.0177C30.3383 28.0177 30.1704 28.1856 30.1704 28.3927C30.1704 28.5998 30.3383 28.7677 30.5454 28.7677C30.5895 28.7677 30.6311 28.7587 30.6703 28.7448C30.7412 28.6643 30.817 28.5885 30.8975 28.5176Z"
            fill="#D2D2D2" />
        <path
            d="M30.6706 32.0407C30.6314 32.0268 30.5898 32.0177 30.5457 32.0177C30.3386 32.0177 30.1707 32.1856 30.1707 32.3927C30.1707 32.5998 30.3386 32.7677 30.5457 32.7677C30.7528 32.7677 30.9207 32.5998 30.9207 32.3927C30.9207 32.3488 30.9117 32.3071 30.8978 32.2678C30.8173 32.197 30.7415 32.1211 30.6706 32.0407Z"
            fill="#D2D2D2" />
        <path
            d="M34.4206 28.7448C34.4599 28.7586 34.5015 28.7677 34.5455 28.7677C34.7527 28.7677 34.9205 28.5998 34.9205 28.3927C34.9205 28.1856 34.7527 28.0177 34.5455 28.0177C34.3384 28.0177 34.1705 28.1856 34.1705 28.3927C34.1705 28.4367 34.1795 28.4783 34.1935 28.5176C34.274 28.5885 34.3497 28.6643 34.4206 28.7448Z"
            fill="#D2D2D2" />
        <path
            d="M34.1705 32.3927C34.1705 32.5998 34.3384 32.7677 34.5455 32.7677C34.6611 32.7677 34.763 32.7144 34.8319 32.6323C34.5968 32.5472 34.3773 32.4525 34.1749 32.3488C34.1733 32.3634 34.1705 32.3777 34.1705 32.3927Z"
            fill="#D2D2D2" />
        <path
            d="M33.6482 32.0306C33.5956 31.9924 33.564 31.9372 33.5518 31.8782C33.5093 31.8874 33.4655 31.8927 33.4203 31.8927C33.1234 31.8927 32.8752 31.6842 32.8119 31.4061C32.7439 31.4749 32.6496 31.5177 32.5453 31.5177C32.4409 31.5177 32.3465 31.4749 32.2787 31.4061C32.2154 31.6842 31.9672 31.8927 31.6703 31.8927C31.3256 31.8927 31.0453 31.6124 31.0453 31.2677C31.0453 30.9707 31.2539 30.7227 31.5319 30.6593C31.463 30.5914 31.4203 30.497 31.4203 30.3927C31.4203 30.2883 31.463 30.194 31.5319 30.1261C31.2539 30.0628 31.0453 29.8148 31.0453 29.5177C31.0453 29.173 31.3256 28.8927 31.6703 28.8927C31.9671 28.8927 32.2153 29.1012 32.2787 29.3793C32.3466 29.3105 32.441 29.2677 32.5453 29.2677C32.6497 29.2677 32.744 29.3105 32.8119 29.3793C32.8751 29.1012 33.1233 28.8927 33.4203 28.8927C33.7649 28.8927 34.0453 29.173 34.0453 29.5177C34.0453 29.8147 33.8367 30.0627 33.5586 30.1261C33.6275 30.1941 33.6703 30.2884 33.6703 30.3927C33.6703 30.4971 33.6275 30.5915 33.5586 30.6593C33.8367 30.7226 34.0453 30.9707 34.0453 31.2677C34.0453 31.3996 34.0038 31.5215 33.9338 31.6225C33.9362 31.6242 33.939 31.6243 33.9414 31.6259C34.1031 31.743 34.2895 31.8519 34.4965 31.9514C34.5588 31.8736 34.6155 31.7914 34.6682 31.7064C34.833 31.4411 34.9494 31.1436 35.0052 30.8249C35.0299 30.6842 35.0452 30.5405 35.0452 30.3928C35.0452 29.7614 34.8079 29.1854 34.4203 28.7449C34.3494 28.6644 34.2736 28.5885 34.1931 28.5177C33.7526 28.1301 33.1767 27.8928 32.5452 27.8928C31.9136 27.8928 31.3377 28.1301 30.8972 28.5177C30.8167 28.5886 30.7409 28.6644 30.6701 28.7449C30.2825 29.1854 30.0452 29.7613 30.0452 30.3928C30.0452 31.0244 30.2825 31.6002 30.6701 32.0408C30.741 32.1212 30.8167 32.1971 30.8972 32.2679C31.3377 32.6555 31.9136 32.8928 32.5452 32.8928C33.1459 32.8928 33.6975 32.6795 34.1291 32.3251C33.9552 32.2332 33.793 32.1355 33.6482 32.0306ZM34.478 29.887C34.5205 30.0488 34.5454 30.2177 34.5454 30.3926C34.5454 30.5675 34.5205 30.7365 34.478 30.8983C34.4074 30.6969 34.2822 30.5234 34.1187 30.3926C34.2822 30.2619 34.4074 30.0883 34.478 29.887ZM33.051 28.46C32.8497 28.5306 32.6761 28.6558 32.5454 28.8193C32.4145 28.6558 32.2411 28.5306 32.0397 28.46C32.2015 28.4175 32.3704 28.3926 32.5454 28.3926C32.7204 28.3926 32.8891 28.4175 33.051 28.46ZM30.6126 29.887C30.6833 30.0883 30.8084 30.262 30.9719 30.3926C30.8084 30.5235 30.6833 30.6969 30.6126 30.8983C30.5702 30.7365 30.5453 30.5676 30.5453 30.3926C30.5453 30.2176 30.5702 30.0488 30.6126 29.887ZM32.0396 32.3253C32.241 32.2547 32.4145 32.1295 32.5453 31.9661C32.6761 32.1295 32.8496 32.2548 33.0509 32.3253C32.8891 32.3678 32.7203 32.3927 32.5453 32.3927C32.3703 32.3927 32.2014 32.3677 32.0396 32.3253Z"
            fill="#E6B432" />
        <path
            d="M32.1707 30.3926C32.1707 30.1854 32.0028 30.0176 31.7957 30.0176C31.693 30.0176 31.6 30.0591 31.5323 30.126C31.4635 30.1939 31.4207 30.2883 31.4207 30.3926C31.4207 30.497 31.4635 30.5913 31.5323 30.6592C31.6001 30.7261 31.693 30.7676 31.7957 30.7676C32.0028 30.7676 32.1707 30.5997 32.1707 30.3926Z"
            fill="#F0C814" />
        <path
            d="M32.9207 30.3926C32.9207 30.5997 33.0886 30.7676 33.2957 30.7676C33.3984 30.7676 33.4914 30.7261 33.5591 30.6592C33.6279 30.5912 33.6707 30.4969 33.6707 30.3926C33.6707 30.2882 33.6279 30.1938 33.5591 30.126C33.4913 30.0591 33.3984 30.0176 33.2957 30.0176C33.0886 30.0176 32.9207 30.1854 32.9207 30.3926Z"
            fill="#F0C814" />
        <path
            d="M32.5458 30.0176C32.753 30.0176 32.9208 29.8497 32.9208 29.6426C32.9208 29.5398 32.8793 29.4469 32.8124 29.3792C32.7445 29.3104 32.6501 29.2676 32.5458 29.2676C32.4414 29.2676 32.3471 29.3104 32.2792 29.3792C32.2123 29.447 32.1708 29.5398 32.1708 29.6426C32.1708 29.8497 32.3387 30.0176 32.5458 30.0176Z"
            fill="#F0C814" />
        <path
            d="M32.5458 30.7676C32.3387 30.7676 32.1708 30.9354 32.1708 31.1426C32.1708 31.2453 32.2123 31.3383 32.2792 31.406C32.3472 31.4748 32.4415 31.5176 32.5458 31.5176C32.6502 31.5176 32.7446 31.4748 32.8124 31.406C32.8793 31.3383 32.9208 31.2453 32.9208 31.1426C32.9208 30.9354 32.753 30.7676 32.5458 30.7676Z"
            fill="#F0C814" />
        <path
            d="M44.0312 19.4078C44.0675 19.4441 44.1095 19.4712 44.1542 19.4894C44.1997 19.5081 44.248 19.5175 44.2963 19.5175C44.3922 19.5175 44.4882 19.4809 44.5614 19.4076C44.6913 19.2776 44.6991 19.0793 44.5986 18.9333L44.7368 18.3804C44.7565 18.3854 44.7752 18.3923 44.7963 18.3923C44.9344 18.3923 45.0463 18.2804 45.0463 18.1423C45.0463 18.0042 44.9344 17.8923 44.7963 17.8923C44.6582 17.8923 44.5463 18.0042 44.5463 18.1423C44.5463 18.1634 44.5534 18.1822 44.5582 18.2018L44.0054 18.3401C43.8593 18.2394 43.661 18.2473 43.5311 18.3773C43.4219 18.4865 43.3946 18.646 43.4482 18.781C43.4665 18.827 43.4938 18.8704 43.5311 18.9077L44.0312 19.4078Z"
            fill="#D2D2D2" />
        <path
            d="M37.7961 25.289V25.1426V24.1426C37.7961 24.0844 37.8192 24.0333 37.8525 23.9908L32.6442 18.7811C32.6258 18.8271 32.5985 18.8705 32.5612 18.9078L32.0612 19.4078C32.0249 19.4441 31.9829 19.4713 31.9382 19.4894L32.8651 20.4167L31.5106 21.7713L32.3943 22.6551L32.7479 22.3015L32.5711 22.1247L32.9246 21.7712L33.1014 21.9479L33.2782 21.7712L33.6317 22.1247L33.455 22.3015L33.6317 22.4783L33.2782 22.8318L33.1014 22.6551L32.7479 23.0086L33.6317 23.8924L34.9859 22.5381L37.1003 24.6529C37.1449 24.663 37.188 24.6808 37.2228 24.7155L37.7961 25.289Z"
            fill="#D2D2D2" />
        <path
            d="M38.3696 25.9227L38.8495 26.4027L40.5675 28.1211C40.6651 28.2188 40.793 28.2676 40.9212 28.2676C41.0491 28.2676 41.177 28.2188 41.2747 28.1211C41.4701 27.9261 41.4701 27.6094 41.2748 27.4141L39.0769 25.2155L38.3696 25.9227Z"
            fill="#D2D2D2" />
        <path d="M38.296 25.1426V25.2891L38.7232 24.8619L38.296 24.4347V25.1426Z" fill="#D2D2D2" />
        <path
            d="M45.4212 28.7446C45.4605 28.7585 45.5021 28.7676 45.5461 28.7676C45.7533 28.7676 45.9211 28.5997 45.9211 28.3926C45.9211 28.1854 45.7533 28.0176 45.5461 28.0176C45.339 28.0176 45.1711 28.1854 45.1711 28.3926C45.1711 28.4366 45.1801 28.4782 45.1941 28.5175C45.2747 28.5884 45.3503 28.6642 45.4212 28.7446Z"
            fill="#D2D2D2" />
        <path
            d="M45.5461 32.0176C45.5021 32.0176 45.4605 32.0266 45.4212 32.0405C45.3503 32.121 45.2746 32.1969 45.1941 32.2677C45.1802 32.3069 45.1711 32.3485 45.1711 32.3926C45.1711 32.5997 45.339 32.7676 45.5461 32.7676C45.7533 32.7676 45.9211 32.5997 45.9211 32.3926C45.9211 32.1854 45.7533 32.0176 45.5461 32.0176Z"
            fill="#D2D2D2" />
        <path
            d="M41.8981 28.5175C41.9119 28.4782 41.921 28.4366 41.921 28.3926C41.921 28.1854 41.7531 28.0176 41.546 28.0176C41.3389 28.0176 41.171 28.1854 41.171 28.3926C41.171 28.5997 41.3389 28.7676 41.546 28.7676C41.5901 28.7676 41.6317 28.7586 41.6709 28.7446C41.7418 28.6642 41.8176 28.5884 41.8981 28.5175Z"
            fill="#D2D2D2" />
        <path
            d="M41.5461 32.7676C41.7532 32.7676 41.9211 32.5997 41.9211 32.3926C41.9211 32.3775 41.9184 32.3633 41.9167 32.3486C41.7146 32.4524 41.4948 32.5472 41.2599 32.6322C41.3287 32.7144 41.4306 32.7676 41.5461 32.7676Z"
            fill="#D2D2D2" />
        <path
            d="M45.4203 32.0407C45.8079 31.6001 46.0452 31.0242 46.0452 30.3927C46.0452 29.7612 45.8079 29.1853 45.4203 28.7448C45.3494 28.6643 45.2736 28.5884 45.1931 28.5176C44.7526 28.13 44.1767 27.8927 43.5452 27.8927C42.9136 27.8927 42.3377 28.13 41.8972 28.5176C41.8167 28.5885 41.7409 28.6643 41.6701 28.7448C41.2825 29.1853 41.0452 29.7612 41.0452 30.3927C41.0452 30.541 41.0606 30.6857 41.0855 30.8271C41.1416 31.145 41.2578 31.4417 41.4221 31.7064C41.475 31.7914 41.5315 31.8735 41.5938 31.9514C41.8006 31.852 41.9869 31.7432 42.1486 31.6262C42.151 31.6243 42.1541 31.6242 42.1566 31.6225C42.0867 31.5216 42.0452 31.3995 42.0452 31.2677C42.0452 30.9707 42.2538 30.7227 42.5318 30.6593C42.4629 30.5913 42.4202 30.497 42.4202 30.3927C42.4202 30.2883 42.4629 30.194 42.5318 30.1261C42.2538 30.0628 42.0452 29.8148 42.0452 29.5177C42.0452 29.173 42.3255 28.8927 42.6702 28.8927C42.967 28.8927 43.2152 29.1012 43.2786 29.3793C43.3465 29.3105 43.4409 29.2677 43.5452 29.2677C43.6495 29.2677 43.7439 29.3105 43.8118 29.3793C43.8751 29.1012 44.1232 28.8927 44.4202 28.8927C44.7648 28.8927 45.0452 29.173 45.0452 29.5177C45.0452 29.8147 44.8366 30.0627 44.5585 30.1261C44.6274 30.1941 44.6702 30.2884 44.6702 30.3927C44.6702 30.4971 44.6274 30.5914 44.5585 30.6593C44.8366 30.7226 45.0452 30.9707 45.0452 31.2677C45.0452 31.6124 44.7648 31.8927 44.4202 31.8927C44.1233 31.8927 43.8751 31.6842 43.8118 31.4061C43.7438 31.4749 43.6495 31.5177 43.5452 31.5177C43.4409 31.5177 43.3464 31.4749 43.2786 31.4061C43.2152 31.6842 42.9671 31.8927 42.6702 31.8927C42.625 31.8927 42.5809 31.8873 42.5382 31.8782C42.5261 31.9373 42.4945 31.9928 42.4417 32.031C42.2969 32.1359 42.135 32.2334 41.9611 32.3251C42.3926 32.6795 42.9444 32.8928 43.5451 32.8928C44.1766 32.8928 44.7525 32.6555 45.193 32.2679C45.2737 32.197 45.3494 32.1211 45.4203 32.0407ZM41.6125 30.8985C41.5701 30.7366 41.5452 30.5678 41.5452 30.3928C41.5452 30.2178 41.5701 30.049 41.6125 29.8871C41.6832 30.0885 41.8084 30.2621 41.9718 30.3928C41.8084 30.5236 41.6832 30.697 41.6125 30.8985ZM43.5452 28.8194C43.4143 28.6559 43.2409 28.5307 43.0395 28.4601C43.2013 28.4176 43.3702 28.3927 43.5452 28.3927C43.7202 28.3927 43.889 28.4176 44.0508 28.4601C43.8495 28.5307 43.676 28.6559 43.5452 28.8194ZM45.4779 29.887C45.5204 30.0489 45.5453 30.2178 45.5453 30.3927C45.5453 30.5676 45.5204 30.7366 45.4779 30.8984C45.4073 30.697 45.2821 30.5235 45.1186 30.3927C45.2821 30.2619 45.4073 30.0884 45.4779 29.887ZM43.0395 32.3254C43.2409 32.2548 43.4144 32.1296 43.5452 31.9661C43.676 32.1296 43.8495 32.2549 44.0508 32.3254C43.889 32.3679 43.7202 32.3928 43.5452 32.3928C43.3702 32.3928 43.2013 32.3678 43.0395 32.3254Z"
            fill="#E6B432" />
        <path
            d="M43.9197 30.3926C43.9197 30.5997 44.0876 30.7676 44.2947 30.7676C44.3975 30.7676 44.4904 30.7261 44.5581 30.6592C44.627 30.5912 44.6697 30.4969 44.6697 30.3926C44.6697 30.2882 44.627 30.1938 44.5581 30.126C44.4903 30.0591 44.3975 30.0176 44.2947 30.0176C44.0876 30.0176 43.9197 30.1854 43.9197 30.3926Z"
            fill="#F0C814" />
        <path
            d="M43.1697 30.3926C43.1697 30.1854 43.0019 30.0176 42.7947 30.0176C42.692 30.0176 42.599 30.0591 42.5314 30.126C42.4625 30.1939 42.4197 30.2883 42.4197 30.3926C42.4197 30.497 42.4625 30.5913 42.5314 30.6592C42.5991 30.7261 42.692 30.7676 42.7947 30.7676C43.0019 30.7676 43.1697 30.5997 43.1697 30.3926Z"
            fill="#F0C814" />
        <path
            d="M43.5448 30.0176C43.7519 30.0176 43.9198 29.8497 43.9198 29.6426C43.9198 29.5398 43.8783 29.4469 43.8114 29.3792C43.7434 29.3104 43.6491 29.2676 43.5448 29.2676C43.4405 29.2676 43.3461 29.3104 43.2782 29.3792C43.2113 29.447 43.1698 29.5398 43.1698 29.6426C43.1698 29.8497 43.3377 30.0176 43.5448 30.0176Z"
            fill="#F0C814" />
        <path
            d="M43.5448 30.7676C43.3377 30.7676 43.1698 30.9354 43.1698 31.1426C43.1698 31.2453 43.2113 31.3383 43.2782 31.406C43.3462 31.4748 43.4405 31.5176 43.5448 31.5176C43.6491 31.5176 43.7435 31.4748 43.8114 31.406C43.8783 31.3383 43.9198 31.2453 43.9198 31.1426C43.9198 30.9354 43.7519 30.7676 43.5448 30.7676Z"
            fill="#F0C814" />
        <path
            d="M32.5603 18.9078C32.5976 18.8705 32.6248 18.8272 32.6432 18.7811C32.6967 18.6462 32.6695 18.4867 32.5603 18.3774C32.4303 18.2474 32.2321 18.2396 32.086 18.3402L31.5331 18.2019C31.5381 18.1823 31.545 18.1635 31.545 18.1425C31.545 18.0044 31.4331 17.8925 31.295 17.8925C31.157 17.8925 31.045 18.0044 31.045 18.1425C31.045 18.2805 31.157 18.3925 31.295 18.3925C31.3161 18.3925 31.3349 18.3853 31.3545 18.3805L31.4928 18.9334C31.3921 19.0795 31.4 19.2778 31.53 19.4077C31.6032 19.4809 31.6992 19.5177 31.795 19.5177C31.8434 19.5177 31.8917 19.5081 31.9371 19.4895C31.9819 19.4712 32.0239 19.4441 32.0602 19.4079L32.5603 18.9078Z"
            fill="#F7B518" />
        <path
            d="M42.4418 32.0308C42.4947 31.9926 42.5262 31.9371 42.5384 31.878C42.552 31.8116 42.5406 31.7406 42.4978 31.6817C42.4186 31.5726 42.268 31.5474 42.1568 31.6223C42.1542 31.624 42.1513 31.6241 42.1488 31.626C41.9871 31.743 41.8008 31.8518 41.594 31.9512C40.861 32.3038 39.8687 32.539 38.7953 32.6151V29.1035C39.8864 30.5935 40.9491 31.3943 41.4223 31.7063C41.2579 31.4416 41.1417 31.1449 41.0857 30.827C40.4806 30.3264 39.625 29.4856 38.7953 28.2178V26.5191C38.813 26.4801 38.8311 26.4421 38.8487 26.4027L38.3688 25.9227L39.0759 25.2156L39.222 25.0695C39.3197 24.9718 39.3197 24.8136 39.222 24.7159C39.1591 24.6531 39.0717 24.6351 38.9909 24.6533C38.9462 24.6634 38.9033 24.6813 38.8684 24.7159L38.7223 24.862L38.2952 25.2892V25.1427V24.4347V24.1427C38.2952 24.0845 38.2721 24.0334 38.2388 23.9909C38.193 23.9325 38.125 23.8927 38.0452 23.8927C37.9652 23.8927 37.8973 23.9325 37.8515 23.9909C37.8182 24.0334 37.7951 24.0845 37.7951 24.1427V25.1427V25.2892L37.2219 24.7159C37.1872 24.6813 37.1441 24.6634 37.0994 24.6533C37.0186 24.6352 36.9313 24.6531 36.8683 24.7159C36.7706 24.8136 36.7706 24.9718 36.8683 25.0695L37.0144 25.2156L37.7215 25.9227L37.2416 26.4027C37.2592 26.4422 37.2773 26.48 37.295 26.5191V28.2157C36.4661 29.481 35.6104 30.3228 35.005 30.8245C34.9491 31.1434 34.8328 31.4409 34.668 31.7061C35.1412 31.3942 36.2038 30.5934 37.295 29.1033V32.6149C36.2216 32.5389 35.2293 32.3036 34.4962 31.9511C34.2892 31.8515 34.1028 31.7427 33.9411 31.6256C33.9387 31.6239 33.9359 31.6238 33.9335 31.6222C33.8223 31.547 33.6714 31.5723 33.5919 31.6813C33.5491 31.7405 33.5377 31.8115 33.5515 31.878C33.5637 31.9369 33.5952 31.9923 33.6478 32.0304C33.7927 32.1354 33.9548 32.2331 34.1288 32.3248C34.144 32.3328 34.159 32.3406 34.1743 32.3486C34.3765 32.4524 34.5962 32.5471 34.8313 32.6321C35.5412 32.889 36.3871 33.057 37.295 33.117V34.9618C37.3688 34.919 37.4535 34.8925 37.545 34.8925C37.6365 34.8925 37.7211 34.9189 37.795 34.9618V33.1389C37.8781 33.1406 37.9612 33.1424 38.045 33.1424C38.1287 33.1424 38.2119 33.1406 38.295 33.1389V33.7118C38.3688 33.669 38.4535 33.6425 38.545 33.6425C38.6365 33.6425 38.7211 33.6689 38.795 33.7118V33.117C39.7029 33.057 40.5489 32.889 41.2587 32.6321C41.4938 32.547 41.7133 32.4523 41.9156 32.3485C41.9309 32.3405 41.9459 32.3327 41.9611 32.3247C42.1352 32.2333 42.2971 32.1356 42.4418 32.0308ZM38.0452 32.6426C37.9617 32.6426 37.8784 32.6408 37.7952 32.6389V28.3722C37.879 28.2406 37.9623 28.1037 38.0452 27.9635C38.1282 28.1038 38.2115 28.2406 38.2952 28.3722V32.6389C38.2122 32.6409 38.1289 32.6426 38.0452 32.6426Z"
            fill="#FF4B55" />
        <path
            d="M38.0453 18.3371C39.426 18.3371 40.5453 18.5734 40.5453 18.8649C40.5453 18.3745 40.5453 17.896 40.5453 17.8213C40.5453 17.7066 40.4395 17.5986 40.2545 17.5039L40.3118 17.3894C40.4025 17.3831 40.4779 17.3283 40.5167 17.2519C40.5335 17.2187 40.5455 17.1827 40.5455 17.1427C40.5455 17.0946 40.5284 17.0522 40.5048 17.0142C40.4608 16.9429 40.3856 16.8927 40.2955 16.8927C40.1574 16.8927 40.0455 17.0046 40.0455 17.1427C40.0455 17.1927 40.064 17.2366 40.0893 17.2757L40.0235 17.4072C39.8348 17.3409 39.6024 17.2846 39.3372 17.2409L39.3654 17.1284C39.4687 17.0978 39.5455 17.0058 39.5455 16.8926C39.5455 16.7545 39.4336 16.6426 39.2955 16.6426C39.1574 16.6426 39.0455 16.7545 39.0455 16.8926C39.0455 16.9631 39.0751 17.0261 39.122 17.0716L39.0886 17.2051C38.9492 17.1876 38.8032 17.1738 38.6517 17.1635C38.663 17.1165 38.6705 17.068 38.6705 17.0176C38.6705 16.6725 38.3906 16.3926 38.0455 16.3926C37.7004 16.3926 37.4205 16.6725 37.4205 17.0176C37.4205 17.0682 37.4281 17.1165 37.4394 17.1635C37.2876 17.1737 37.1416 17.1876 37.0025 17.2051L36.9691 17.0716C37.0159 17.0261 37.0455 16.9631 37.0455 16.8926C37.0455 16.7545 36.9336 16.6426 36.7955 16.6426C36.6574 16.6426 36.5455 16.7545 36.5455 16.8926C36.5455 17.0059 36.6224 17.0978 36.7257 17.1284L36.7538 17.2409C36.4888 17.2845 36.2563 17.3408 36.0676 17.4072L36.0018 17.2757C36.0271 17.2365 36.0455 17.1927 36.0455 17.1427C36.0455 17.0046 35.9336 16.8927 35.7955 16.8927C35.7056 16.8927 35.6302 16.9428 35.5863 17.0142C35.5627 17.0523 35.5455 17.0946 35.5455 17.1427C35.5455 17.1826 35.5573 17.2187 35.5742 17.2519C35.613 17.3283 35.6885 17.3831 35.7791 17.3894L35.8365 17.5039C35.6514 17.5986 35.5456 17.7064 35.5456 17.8213C35.5456 17.8961 35.5456 18.3745 35.5456 18.8649C35.5453 18.5734 36.6647 18.3371 38.0453 18.3371Z"
            fill="#E6B432" />
        <path
            d="M35.5452 18.8927L35.5484 18.8914C35.5476 18.883 35.5452 18.8716 35.5452 18.8649C35.5452 18.8743 35.5452 18.8834 35.5452 18.8927Z"
            fill="#E6B432" />
        <path
            d="M40.5451 18.8927C40.5451 18.8833 40.5451 18.8741 40.5451 18.8647C40.5451 18.8716 40.5428 18.883 40.542 18.8913L40.5451 18.8927Z"
            fill="#E6B432" />
        <path
            d="M36.0453 19.3928C36.0453 19.4428 36.0268 19.4867 36.0015 19.5258L36.0963 19.7153C36.2617 19.6333 36.4877 19.5629 36.7579 19.5089L36.7254 19.3787C36.622 19.348 36.5452 19.256 36.5452 19.1428C36.5452 19.0048 36.6571 18.8928 36.7952 18.8928C36.9333 18.8928 37.0452 19.0048 37.0452 19.1428C37.0452 19.2134 37.0156 19.2763 36.9687 19.3219L37.0049 19.466C37.2461 19.43 37.5125 19.4059 37.7953 19.397V19.1706C37.7191 19.1019 37.6703 19.0036 37.6703 18.8928C37.6703 18.6857 37.8382 18.5178 38.0453 18.5178C38.2524 18.5178 38.4203 18.6857 38.4203 18.8928C38.4203 19.0035 38.3715 19.1019 38.2953 19.1706V19.397C38.578 19.406 38.8445 19.4301 39.0857 19.466L39.1218 19.3219C39.075 19.2763 39.0454 19.2134 39.0454 19.1428C39.0454 19.0048 39.1573 18.8928 39.2954 18.8928C39.4335 18.8928 39.5454 19.0048 39.5454 19.1428C39.5454 19.2561 39.4685 19.348 39.3652 19.3787L39.3327 19.5089C39.6029 19.5629 39.829 19.6335 39.9943 19.7153L40.089 19.5258C40.0637 19.4866 40.0453 19.4428 40.0453 19.3928C40.0453 19.2547 40.1572 19.1428 40.2953 19.1428C40.3551 19.1428 40.4078 19.1667 40.4508 19.2017C40.5064 19.0651 40.536 18.9566 40.5422 18.8916C40.5429 18.8832 40.5453 18.8719 40.5453 18.8651C40.5453 18.5736 39.4259 18.3373 38.0453 18.3373C36.6646 18.3373 35.5453 18.5736 35.5453 18.8651C35.5453 18.872 35.5476 18.8833 35.5484 18.8916C35.5545 18.9566 35.5841 19.0651 35.6397 19.2017C35.6827 19.1667 35.7354 19.1428 35.7952 19.1428C35.9334 19.1428 36.0453 19.2548 36.0453 19.3928Z"
            fill="#EBEBEB" />
        <path
            d="M35.5453 19.3926C35.5453 19.5248 35.6488 19.6304 35.7788 19.6393L35.8867 19.855C35.8282 19.9123 35.7952 19.9727 35.7952 20.0354C35.7952 20.1074 35.8386 20.1767 35.9153 20.2414L36.2952 20.8926C36.2952 20.6164 37.0787 20.3926 38.0452 20.3926C39.0117 20.3926 39.7952 20.6164 39.7952 20.8926L40.1751 20.2414C40.2518 20.1767 40.2952 20.1076 40.2952 20.0354C40.2952 19.9727 40.2623 19.9123 40.2037 19.855L40.3116 19.6393C40.4416 19.6303 40.5452 19.5248 40.5452 19.3926C40.5452 19.3144 40.507 19.2474 40.4507 19.2016C40.4077 19.1665 40.355 19.1426 40.2952 19.1426C40.1571 19.1426 40.0452 19.2545 40.0452 19.3926C40.0452 19.4426 40.0636 19.4865 40.0889 19.5256L39.9942 19.7152C39.8288 19.6331 39.6028 19.5627 39.3326 19.5087L39.3651 19.3785C39.4684 19.3479 39.5453 19.2559 39.5453 19.1427C39.5453 19.0046 39.4334 18.8927 39.2953 18.8927C39.1572 18.8927 39.0453 19.0046 39.0453 19.1427C39.0453 19.2132 39.0749 19.2762 39.1218 19.3217L39.0856 19.4658C38.8444 19.4298 38.578 19.4058 38.2952 19.3969V19.1704C38.3714 19.1018 38.4202 19.0034 38.4202 18.8927C38.4202 18.6856 38.2523 18.5177 38.0452 18.5177C37.8381 18.5177 37.6702 18.6856 37.6702 18.8927C37.6702 19.0033 37.719 19.1018 37.7952 19.1704V19.3969C37.5125 19.4059 37.246 19.4299 37.0048 19.4658L36.9686 19.3217C37.0155 19.2762 37.0451 19.2132 37.0451 19.1427C37.0451 19.0046 36.9332 18.8927 36.7951 18.8927C36.657 18.8927 36.5451 19.0046 36.5451 19.1427C36.5451 19.256 36.6219 19.3479 36.7253 19.3785L36.7578 19.5087C36.4876 19.5627 36.2615 19.6333 36.0962 19.7152L36.0014 19.5256C36.0267 19.4865 36.0452 19.4426 36.0452 19.3926C36.0452 19.2545 35.9333 19.1426 35.7952 19.1426C35.7354 19.1426 35.6827 19.1665 35.6397 19.2016C35.5835 19.2474 35.5453 19.3144 35.5453 19.3926Z"
            fill="#E6B432" />
        <path
            d="M38.0451 21.3931C39.0116 21.3931 39.7951 21.1692 39.7951 20.8931C39.7951 20.6169 39.0116 20.3931 38.0451 20.3931C37.0786 20.3931 36.2951 20.6169 36.2951 20.8931C36.2951 21.1692 37.0786 21.3931 38.0451 21.3931Z"
            fill="#EBEBEB" />
        <path
            d="M40.4854 16.6329L40.0453 15.6427C40.0453 15.5802 39.9973 15.5206 39.9134 15.4654L40.2688 14.7546C40.3305 14.6311 40.2805 14.4809 40.157 14.4192C40.0332 14.3578 39.8833 14.4077 39.8215 14.531L39.6285 14.9172L39.4442 15.2858C39.3381 15.2598 39.2199 15.237 39.0929 15.2174L39.1151 15.1286C39.2184 15.098 39.2953 15.006 39.2953 14.8928C39.2953 14.7547 39.1834 14.6428 39.0453 14.6428C38.9072 14.6428 38.7953 14.7547 38.7953 14.8928C38.7953 14.9633 38.8249 15.0263 38.8717 15.0718L38.8435 15.1845C38.5989 15.1577 38.3292 15.1428 38.0453 15.1428C37.7613 15.1428 37.4916 15.1577 37.247 15.1845L37.2188 15.0718C37.2657 15.0263 37.2953 14.9633 37.2953 14.8928C37.2953 14.7547 37.1834 14.6428 37.0453 14.6428C36.9072 14.6428 36.7953 14.7547 36.7953 14.8928C36.7953 15.0061 36.8721 15.098 36.9755 15.1286L36.9976 15.2174C36.8706 15.237 36.7524 15.2598 36.6463 15.2858L36.462 14.9172L36.2689 14.531C36.2071 14.4077 36.0574 14.3579 35.9335 14.4192C35.8099 14.4809 35.7598 14.6311 35.8216 14.7546L36.177 15.4654C36.0932 15.5206 36.0452 15.5802 36.0452 15.6427L35.605 16.6329C35.8519 16.3527 36.8498 16.1427 38.0452 16.1427C39.2407 16.1427 40.2385 16.3526 40.4854 16.6329Z"
            fill="#E6B432" />
        <path
            d="M38.0455 15.1432C38.2526 15.1432 38.4205 14.9753 38.4205 14.7682C38.4205 14.5611 38.2526 14.3932 38.0455 14.3932C37.8384 14.3932 37.6705 14.5611 37.6705 14.7682C37.6705 14.9753 37.8384 15.1432 38.0455 15.1432Z"
            fill="#E6B432" />
    </g>
    <defs>
        <clipPath id="clip0_9_862">
            <rect width="50" height="50" fill="white" transform="translate(0.441406 0.32373)" />
        </clipPath>
    </defs>
</svg>
