<svg width="51" height="51" viewBox="0 0 51 51" fill="none" xmlns="http://www.w3.org/2000/svg">
<g clip-path="url(#clip0_9_847)">
<path d="M50.8686 19.8641H0.868652V9.80657C0.868652 9.33049 1.25469 8.94446 1.73076 8.94446H50.0065C50.4826 8.94446 50.8687 9.33049 50.8687 9.80657L50.8686 19.8641Z" fill="#FFE15A"/>
<path d="M50.0065 41.7031H1.73076C1.25469 41.7031 0.868652 41.317 0.868652 40.841V30.7836H50.8686V40.841C50.8686 41.3171 50.4825 41.7031 50.0065 41.7031Z" fill="#FF4B55"/>
<path d="M50.8686 19.8639H0.868652V30.7828H50.8686V19.8639Z" fill="#41479B"/>
<path d="M18.2659 27.4231L18.4819 28.0708L19.1647 28.0761C19.253 28.0768 19.2898 28.1896 19.2187 28.2421L18.6694 28.6477L18.8754 29.2987C18.9021 29.383 18.8061 29.4527 18.7341 29.4013L18.1786 29.0042L17.6232 29.4013C17.5513 29.4527 17.4553 29.3829 17.4818 29.2987L17.6878 28.6477L17.1386 28.2421C17.0675 28.1897 17.1041 28.0768 17.1926 28.0761L17.8753 28.0708L18.0913 27.4231C18.1193 27.3393 18.238 27.3393 18.2659 27.4231Z" fill="#F5F5F5"/>
<path d="M19.5924 25.3611L19.4767 26.034L20.0759 26.3614C20.1534 26.4038 20.1324 26.5206 20.0449 26.5332L19.3691 26.631L19.243 27.302C19.2266 27.3888 19.1092 27.405 19.07 27.3257L18.7682 26.7132L18.0909 26.8006C18.0032 26.812 17.9516 26.7051 18.0149 26.6434L18.5042 26.1671L18.2118 25.5501C18.174 25.4702 18.2596 25.3881 18.3378 25.4293L18.942 25.7473L19.4386 25.2786C19.5028 25.2179 19.6073 25.274 19.5924 25.3611Z" fill="#F5F5F5"/>
<path d="M21.2711 23.5563L20.9506 24.1592L21.4173 24.6576C21.4777 24.7221 21.4213 24.8264 21.3342 24.811L20.6616 24.6925L20.3318 25.2905C20.2892 25.3678 20.1725 25.3464 20.1602 25.2589L20.065 24.5828L19.3944 24.4539C19.3076 24.4372 19.292 24.3196 19.3715 24.2808L19.9852 23.9814L19.9005 23.3039C19.8895 23.2162 19.9965 23.165 20.0579 23.2286L20.5323 23.7196L21.1505 23.4297C21.2308 23.3922 21.3125 23.4782 21.2711 23.5563Z" fill="#F5F5F5"/>
<path d="M23.2911 22.4366L22.82 22.931L23.1352 23.5366C23.176 23.615 23.0935 23.7003 23.0137 23.662L22.3981 23.3666L21.9193 23.8535C21.8574 23.9166 21.7507 23.8643 21.7624 23.7768L21.8531 23.0999L21.242 22.795C21.1629 22.7556 21.1795 22.6381 21.2664 22.6222L21.9381 22.4992L22.0392 21.8239C22.0523 21.7365 22.1692 21.716 22.2112 21.7938L22.5356 22.3946L23.2091 22.2821C23.2965 22.2678 23.352 22.3727 23.2911 22.4366Z" fill="#F5F5F5"/>
<path d="M25.6131 21.9178L25.0268 22.2678L25.1682 22.9358C25.1865 23.0223 25.0841 23.0823 25.0176 23.0241L24.5036 22.5747L23.9119 22.9155C23.8353 22.9597 23.7466 22.881 23.7814 22.7996L24.0501 22.1718L23.5431 21.7145C23.4774 21.6553 23.525 21.5466 23.613 21.5546L24.2931 21.616L24.5714 20.9925C24.6074 20.9118 24.7255 20.9234 24.7451 21.0095L24.8969 21.6752L25.5759 21.7472C25.6635 21.7567 25.6891 21.8725 25.6131 21.9178Z" fill="#F5F5F5"/>
<path d="M33.4729 27.4231L33.2569 28.0708L32.5742 28.0761C32.4858 28.0768 32.4491 28.1896 32.5202 28.2421L33.0694 28.6477L32.8634 29.2987C32.8368 29.383 32.9328 29.4527 33.0047 29.4013L33.5602 29.0042L34.1157 29.4013C34.1875 29.4527 34.2835 29.3829 34.257 29.2987L34.051 28.6477L34.6002 28.2421C34.6713 28.1897 34.6347 28.0768 34.5462 28.0761L33.8635 28.0708L33.6475 27.4231C33.6195 27.3393 33.5008 27.3393 33.4729 27.4231Z" fill="#F5F5F5"/>
<path d="M32.1465 25.3611L32.2623 26.034L31.663 26.3614C31.5855 26.4038 31.6065 26.5206 31.694 26.5332L32.3698 26.631L32.496 27.302C32.5124 27.3888 32.6298 27.405 32.6689 27.3257L32.9708 26.7132L33.648 26.8006C33.7357 26.812 33.7874 26.7051 33.724 26.6434L33.2347 26.1671L33.5271 25.5501C33.5649 25.4702 33.4793 25.3881 33.4011 25.4293L32.7969 25.7473L32.3003 25.2786C32.2361 25.2179 32.1316 25.274 32.1465 25.3611Z" fill="#F5F5F5"/>
<path d="M30.4679 23.5563L30.7884 24.1592L30.3217 24.6576C30.2613 24.7221 30.3177 24.8264 30.4048 24.811L31.0774 24.6925L31.4072 25.2905C31.4498 25.3678 31.5665 25.3464 31.5788 25.2589L31.674 24.5828L32.3446 24.4539C32.4314 24.4372 32.447 24.3196 32.3675 24.2808L31.7538 23.9814L31.8385 23.3039C31.8495 23.2162 31.7425 23.165 31.6811 23.2286L31.2067 23.7196L30.5885 23.4297C30.5082 23.3922 30.4265 23.4782 30.4679 23.5563Z" fill="#F5F5F5"/>
<path d="M28.4476 22.4366L28.9187 22.931L28.6035 23.5366C28.5627 23.615 28.6452 23.7003 28.725 23.662L29.3406 23.3666L29.8194 23.8535C29.8813 23.9166 29.988 23.8643 29.9762 23.7768L29.8855 23.0999L30.4966 22.795C30.5757 22.7556 30.5591 22.6381 30.4722 22.6222L29.8005 22.4992L29.6994 21.8239C29.6863 21.7365 29.5694 21.716 29.5274 21.7938L29.203 22.3946L28.5295 22.2821C28.4422 22.2678 28.3867 22.3727 28.4476 22.4366Z" fill="#F5F5F5"/>
<path d="M26.1258 21.9178L26.7122 22.2678L26.5708 22.9358C26.5524 23.0223 26.6548 23.0823 26.7213 23.0241L27.2353 22.5747L27.827 22.9155C27.9037 22.9597 27.9923 22.881 27.9575 22.7996L27.6888 22.1718L28.1958 21.7145C28.2615 21.6553 28.2139 21.5466 28.1259 21.5546L27.4458 21.616L27.1675 20.9925C27.1315 20.9118 27.0134 20.9234 26.9938 21.0095L26.842 21.6752L26.163 21.7472C26.0754 21.7567 26.0499 21.8725 26.1258 21.9178Z" fill="#F5F5F5"/>
</g>
<defs>
<clipPath id="clip0_9_847">
<rect width="50" height="50" fill="white" transform="translate(0.869141 0.32373)"/>
</clipPath>
</defs>
</svg>
