<svg width="51" height="51" viewBox="0 0 51 51" fill="none" xmlns="http://www.w3.org/2000/svg">
<g clip-path="url(#clip0_9_844)">
<path d="M49.3005 41.7031H1.02477C0.548693 41.7031 0.162659 41.3171 0.162659 40.841V9.80657C0.162659 9.33049 0.548693 8.94446 1.02477 8.94446H49.3006C49.7766 8.94446 50.1627 9.33049 50.1627 9.80657V40.841C50.1626 41.3172 49.7765 41.7031 49.3005 41.7031Z" fill="#FF4B55"/>
<path d="M25.5648 15.5552L27.8703 22.4682L35.1575 22.5247C35.565 22.5278 35.7339 23.0478 35.4062 23.2899L29.544 27.6189L31.7421 34.5668C31.8651 34.9553 31.4227 35.2768 31.0911 35.0398L25.1625 30.8022L19.2338 35.0398C18.9024 35.2767 18.46 34.9553 18.5829 34.5668L20.781 27.6189L14.9188 23.2899C14.591 23.0479 14.76 22.5278 15.1674 22.5247L22.4546 22.4682L24.7602 15.5552C24.8892 15.1686 25.4359 15.1686 25.5648 15.5552Z" fill="#FFE15A"/>
</g>
<defs>
<clipPath id="clip0_9_844">
<rect width="50" height="50" fill="white" transform="translate(0.162109 0.32373)"/>
</clipPath>
</defs>
</svg>
