<svg width="51" height="51" viewBox="0 0 51 51" fill="none" xmlns="http://www.w3.org/2000/svg">
<g clip-path="url(#clip0_9_819)">
<path d="M49.7273 41.703H1.45162C0.975542 41.703 0.589508 41.317 0.589508 40.8409V9.80657C0.589508 9.33049 0.975542 8.94446 1.45162 8.94446H49.7274C50.2035 8.94446 50.5895 9.33049 50.5895 9.80657V40.8409C50.5894 41.3171 50.2034 41.703 49.7273 41.703Z" fill="#F5F5F5"/>
<path d="M39.5599 28.6446L39.8745 29.7484L40.968 26.4987L37.9351 28.0979L39.075 28.232L35.435 32.509L35.4034 32.4184L38.3106 26.3986L38.8936 27.3873L39.1315 23.9669L36.6005 26.2797L37.7373 26.1217L34.8301 32.1415L34.7394 32.1731L35.8263 26.6629L36.6399 27.4724L36.0066 24.1028L34.1414 26.9796L35.2016 26.5397L34.0297 32.4811L33.6472 33.2733L33.235 33.5497L33.0653 34.4093L31.6238 36.1031L32.7492 36.0125L32.545 37.0477L32.9431 36.7809L32.9816 37.2584L33.6653 36.455L34.2941 37.3926L34.7244 35.2105L35.2923 34.5433L35.2524 34.0485L35.6351 33.2564L39.5599 28.6446Z" fill="#4173CD"/>
<path d="M13.3746 25.4145C13.4982 24.8586 13.4215 24.3378 13.2098 24.0172C12.882 24.218 12.5919 24.6571 12.4683 25.213C12.4111 25.4704 12.4008 25.7181 12.4231 25.9441L11.7425 24.9293C12.0197 24.7033 12.2583 24.3164 12.3666 23.8296C12.4902 23.2738 12.4135 22.753 12.2018 22.4323C11.874 22.6331 11.5839 23.0723 11.4603 23.6281C11.3945 23.9241 11.3888 24.2074 11.4268 24.4587L10.9667 23.7727C10.9897 23.4243 10.8827 23.0006 10.6259 22.5968C10.3204 22.1163 9.89791 21.8023 9.52145 21.7252C9.4317 22.0989 9.53707 22.6147 9.84264 23.095C10.1023 23.5033 10.4454 23.7813 10.774 23.9059L11.1957 24.6059C10.9841 24.465 10.7252 24.3499 10.4291 24.2841C9.8732 24.1605 9.3524 24.2371 9.0318 24.4488C9.23258 24.7766 9.67174 25.0667 10.2276 25.1903C10.7144 25.2987 11.1661 25.2466 11.4882 25.0913L12.1188 26.138C11.9234 26.0221 11.6949 25.9264 11.4374 25.8691C10.8815 25.7454 10.3607 25.8221 10.0401 26.0338C10.2409 26.3615 10.68 26.6517 11.2359 26.7753C11.7018 26.879 12.1357 26.8357 12.4551 26.6961L13.0357 27.6598C12.8562 27.5629 12.6564 27.4798 12.43 27.4295C11.8742 27.3059 11.3534 27.3825 11.0328 27.5943C11.2336 27.922 11.6727 28.2121 12.2286 28.3358C12.6741 28.4348 13.0917 28.4009 13.4071 28.2762L13.967 29.2056C13.8062 29.1269 13.633 29.0578 13.4382 29.0146C12.8824 28.8909 12.3616 28.9676 12.041 29.1793C12.2418 29.507 12.6809 29.7972 13.2368 29.9208C13.6614 30.0152 14.0638 29.9914 14.374 29.8811L14.884 30.7275C14.7437 30.6656 14.5946 30.6115 14.431 30.5751C13.8751 30.4515 13.3544 30.5281 13.0337 30.7399C13.2345 31.0676 13.6737 31.3577 14.2295 31.4814C14.6345 31.5714 15.0188 31.5529 15.3226 31.4555L16.9425 34.1442L17.6305 33.7065L15.8818 31.0996C16.0988 30.8655 16.2785 30.5255 16.3685 30.1205C16.4921 29.5647 16.4155 29.0439 16.2038 28.7233C15.8759 28.924 15.5859 29.3632 15.4623 29.919C15.4258 30.0825 15.4117 30.2405 15.4083 30.3938L14.8579 29.5732C15.0892 29.339 15.2815 28.9846 15.3758 28.56C15.4995 28.0041 15.4228 27.4833 15.2111 27.1627C14.8833 27.3635 14.5932 27.8026 14.4696 28.3585C14.4262 28.5532 14.4155 28.7394 14.4185 28.9183L13.8142 28.0173C14.0609 27.7843 14.2686 27.4205 14.3677 26.9752C14.4914 26.4194 14.4147 25.8986 14.203 25.5779C13.8752 25.7787 13.5851 26.2179 13.4615 26.7737C13.4112 27 13.4017 27.2162 13.4133 27.4197L12.7866 26.4855C13.0479 26.2549 13.271 25.8803 13.3746 25.4145Z" fill="#73AF00"/>
<path d="M20.417 25.3236L19.5549 20.1513H19.4215C18.639 20.1513 18.0862 19.3846 18.3338 18.6421L18.3366 18.6338C18.5344 18.0405 18.2202 17.3982 17.6305 17.1901L5.79387 13.0125C5.12298 12.7757 4.49104 13.4504 4.77132 14.1044L6.05491 17.0994C6.42424 17.9611 7.06428 18.6788 7.87815 19.144L11.1616 21.0202C12.1425 21.5807 13.2526 21.8755 14.3822 21.8755H14.3824L14.677 22.4645C15.5532 24.2167 17.3442 25.3236 19.3034 25.3236H20.417Z" fill="#FFE15A"/>
<path d="M30.761 25.3237L31.6231 20.1513H31.7565C32.539 20.1513 33.0918 19.3846 32.8442 18.6422L32.8414 18.6339C32.6436 18.0405 32.9578 17.3982 33.5475 17.1901L45.3794 13.0141C46.0521 12.7766 46.6857 13.4533 46.4046 14.1091L45.1231 17.0994C44.7538 17.961 44.1137 18.6788 43.2999 19.1439L40.0164 21.0202C39.0355 21.5806 37.9255 21.8755 36.7958 21.8755H36.7955L36.501 22.4644C35.6248 24.2168 33.8339 25.3237 31.8747 25.3237H30.761Z" fill="#FFE15A"/>
<path d="M29.0371 19.2891L26.8987 14.2996C26.627 13.6656 26.0037 13.2546 25.314 13.2546H24.7267L23.8646 14.1167H23.0025L22.1404 14.9789H23.3434C23.6484 14.9789 23.8541 15.2907 23.734 15.5711L22.1404 19.2892H29.0371V19.2891Z" fill="#FFE15A"/>
<path d="M23.0024 27.9098L21.2783 25.3236L19.6994 26.9025C19.037 27.5649 18.5379 28.3725 18.2417 29.2612L17.8301 30.496L16.968 31.3581H15.8475C15.4775 31.3581 15.1393 31.5672 14.9738 31.8979L14.7308 32.3841C14.5704 32.7048 14.8036 33.0821 15.1621 33.0821H16.968L17.5428 31.9327L20.2911 30.5585C20.374 30.517 20.4496 30.4625 20.5151 30.3969L23.0024 27.9098Z" fill="#FFE15A"/>
<path d="M28.1749 27.9098L29.899 25.3236L31.4779 26.9025C32.1403 27.5649 32.6394 28.3725 32.9356 29.2612L33.3473 30.496L34.2094 31.3581H35.3299C35.6998 31.3581 36.0381 31.5672 36.2035 31.8979L36.4466 32.3841C36.6069 32.7048 36.3737 33.0821 36.0152 33.0821H34.2094L33.6347 31.9327L30.8863 30.5585C30.8034 30.517 30.7278 30.4625 30.6623 30.3969L28.1749 27.9098Z" fill="#FFE15A"/>
<path d="M23.0025 28.7719L20.9074 32.2636C20.6248 32.7347 20.7275 33.3416 21.1495 33.6931L24.331 36.3444C25.0595 36.9515 26.1177 36.9515 26.8461 36.3444L30.0276 33.6931C30.4497 33.3414 30.5524 32.7346 30.2697 32.2636L28.1748 28.7719H23.0025Z" fill="#FFE15A"/>
<path d="M25.5895 18.4271C25.5895 18.4271 23.0033 19.2892 19.555 18.4271C19.555 18.4271 19.555 20.1512 19.555 21.8754C19.555 23.5995 20.4171 28.7719 25.5895 30.496C30.7618 28.7719 31.6239 23.5995 31.6239 21.8754C31.6239 20.1512 31.6239 18.4271 31.6239 18.4271C28.1757 19.2892 25.5895 18.4271 25.5895 18.4271Z" fill="#F5F5F5"/>
<path d="M25.5895 18.4271C25.5895 18.4271 23.0033 19.2892 19.555 18.4271C19.555 18.4271 19.555 20.1512 19.555 21.8754H31.6239C31.6239 20.1512 31.6239 18.4271 31.6239 18.4271C28.1757 19.2892 25.5895 18.4271 25.5895 18.4271Z" fill="#41479B"/>
<path d="M21.3575 27.3904V21.8755H20.417V25.7128C20.6614 26.2741 20.9683 26.8425 21.3575 27.3904Z" fill="#FF4B55"/>
<path d="M23.2386 21.8755H22.2981V28.4925C22.5829 28.7746 22.8942 29.0432 23.2386 29.2931V21.8755Z" fill="#FF4B55"/>
<path d="M29.8217 27.3904C30.2108 26.8424 30.5178 26.274 30.7621 25.7127V21.8755H29.8217V27.3904Z" fill="#FF4B55"/>
<path d="M25.1195 21.8755H24.179V29.8766C24.4736 30.0354 24.7874 30.1799 25.1195 30.3111V21.8755Z" fill="#FF4B55"/>
<path d="M28.8812 21.8755H27.9408V29.2932C28.2851 29.0432 28.5963 28.7747 28.8812 28.4926V21.8755Z" fill="#FF4B55"/>
<path d="M27.0003 29.8766V21.8755H26.0599V30.3111C26.3919 30.1799 26.7058 30.0354 27.0003 29.8766Z" fill="#FF4B55"/>
<path d="M16.5254 32.0599L15.9133 32.4366L16.9418 34.1439L17.6298 33.7063L16.5254 32.0599Z" fill="#73AF00"/>
<path d="M35.6133 33.302L35.0725 32.2203H34.0814L34.0301 32.4812L33.6475 33.2735L33.2352 33.5498L33.0656 34.4094L31.6241 36.1032L32.7495 36.0126L32.5453 37.0478L32.9434 36.781L32.9818 37.2585L33.6656 36.4551L34.2943 37.3927L34.7247 35.2106L35.2926 34.5434L35.2527 34.0487L35.6133 33.302Z" fill="#4173CD"/>
<path d="M8.84083 21.8755H6.62404L6.82296 22.4724L5.51564 27.0478L4.20832 22.4724L4.40734 21.8755H2.19055L2.78743 22.6713L4.60627 29.0373L4.40734 29.6341H6.62404L6.42511 29.0373L8.24396 22.6713L8.84083 21.8755Z" fill="#4173CD"/>
<path d="M46.4025 22.4297L46.772 21.8755H46.4025H44.9248H44.5552L44.9248 22.4297V29.08L44.5552 29.6341H44.9248H46.4025H46.772L46.4025 29.08V22.4297Z" fill="#4173CD"/>
</g>
<defs>
<clipPath id="clip0_9_819">
<rect width="50" height="50" fill="white" transform="translate(0.589844 0.32373)"/>
</clipPath>
</defs>
</svg>
