<svg width="51" height="51" viewBox="0 0 51 51" fill="none" xmlns="http://www.w3.org/2000/svg">
    <g clip-path="url(#clip0_9_809)">
        <path
            d="M50.8834 25.3237H0.883545V9.80644C0.883545 9.33037 1.26958 8.94434 1.74565 8.94434H50.0214C50.4975 8.94434 50.8835 9.33037 50.8835 9.80644L50.8834 25.3237Z"
            fill="#F5F5F5" />
        <path
            d="M0.883545 25.3237H50.8834V40.841C50.8834 41.3171 50.4974 41.7031 50.0213 41.7031H1.74565C1.26958 41.7031 0.883545 41.3171 0.883545 40.841V25.3237Z"
            fill="#73AF00" />
        <path
            d="M38.9207 18.5304C38.9207 18.5304 39.5166 20.1649 39.5677 20.2501L39.6358 20.1138L40.0444 17.9856L41.0999 16.0106L40.7935 16.0447L38.3928 17.2024C38.3928 17.2024 36.9626 18.7688 36.9456 18.8199C36.9286 18.871 38.9207 18.5304 38.9207 18.5304Z"
            fill="#FF4B55" />
        <path
            d="M39.7654 34.1602C39.686 34.1488 38.5054 34.2057 38.5054 34.2057L38.1196 32.9117L37.8983 30.4657L38.3154 30.3551L38.8347 30.6019L39.022 29.6229C39.022 29.6229 38.5709 29.1292 38.4857 29.0951C38.4006 29.061 37.3791 28.8312 37.3791 28.8312L36.0085 27.0181L37.6429 26.1072L38.9199 24.3535L39.2263 22.7701L38.971 21.4591L38.3902 20.4868C38.3816 20.4591 38.375 20.4376 38.375 20.4376C38.3709 20.4324 38.3565 20.4227 38.3474 20.4151L38.2388 20.2332L38.2371 20.3393C37.9852 20.1819 37.4697 19.9083 37.3364 19.8416C37.1662 19.7565 36.2638 19.6032 36.0764 19.7395C35.8891 19.8757 35.0209 20.2843 34.8677 20.5737C34.7144 20.8632 34.6123 21.9018 34.6123 21.9018C34.6123 21.9018 34.8677 22.4807 35.1912 22.6168C35.5147 22.753 36.1446 22.9063 36.2468 22.8722C36.3349 22.8428 37.3344 22.5475 37.607 22.4233L37.728 22.6679L37.6769 23.3659L37.1151 23.7575L36.0765 24.1661C36.0765 24.1661 34.4931 23.7234 34.4251 23.7404C34.357 23.7574 32.399 23.1615 32.399 23.1615L30.5602 22.7358L31.1731 22.4294L32.8417 22.3103C32.8417 22.3103 33.1652 20.4204 33.2163 20.3863C33.2674 20.3523 34.357 19.484 34.357 19.484L35.2594 19.2627L34.7145 16.9528L35.5318 14.4329L33.3978 15.0458L30.0154 15.8858L27.8589 15.7495L25.952 16.3624L24.7261 17.4748L24.0223 18.4282L23.7726 19.9492L23.6136 21.9697L23.0233 23.0821L22.3546 23.6064C22.2796 23.4084 21.9281 22.6509 21.9281 22.6509L22.7794 22.4466L22.5581 21.8848L21.9622 21.4421L22.1495 20.761L22.8306 21.1357L23.0179 21.2719L23.137 20.5738L22.3879 19.5183L22.507 18.9904L23.4094 19.4672L23.3072 18.2413L22.507 17.7476L22.5581 17.0665L23.4321 17.3276L23.3413 16.6806L22.3879 15.9881L23.3186 14.4899L22.1835 14.5467L22.0927 14.0585L21.7977 13.9449C21.7977 13.9449 20.2198 14.6147 20.1064 14.5919C19.9929 14.5693 18.733 14.399 18.5854 14.4331C18.4378 14.4672 17.9156 14.6033 17.9156 14.6033L17.768 15.1822L16.8032 15.0235L15.3731 14.9043L14.9417 15.4322L15.6228 15.7046C15.6228 15.7046 15.464 16.9077 15.5093 16.9986C15.5547 17.0893 15.9633 17.6796 15.9633 17.6796L15.0326 18.9508L15.9861 19.087L17.3027 18.8827L17.2572 19.2006L19.0053 19.019L18.6192 19.2233L18.1199 20.7215L16.667 23.6727L16.1563 26.2946L15.339 25.4434L14.7942 23.1959L13.9769 20.9825C13.9769 20.9825 13.8067 20.3015 13.7044 20.2845C13.6023 20.2675 13.1596 20.1823 13.1596 20.1823L12.5978 20.642L11.8827 20.5399L11.4741 21.1017L11.9338 21.8167C11.9338 21.8167 11.1676 22.1232 11.1676 22.2083C11.1676 22.2935 11.2187 22.7872 11.2698 22.8042C11.3208 22.8212 12.4785 22.7872 12.4785 22.7872L13.1766 24.0301L12.6318 25.4603L12.9042 26.0051L13.381 26.0731L13.8237 25.5624L15.356 30.1424C15.356 30.1424 15.2368 30.7383 15.1517 30.7893C15.0665 30.8404 14.6579 31.3001 14.7601 31.3001C14.8622 31.3001 15.4922 31.3852 15.5603 31.3512C15.6283 31.3171 16.5137 30.6361 16.5137 30.6361C16.5137 30.6361 17.9098 29.5635 17.9949 29.6486C18.0801 29.7338 19.4081 30.551 19.4081 30.551L18.7952 32.6622L17.3481 34.7734L16.4457 34.2286L15.7987 33.3092L15.322 33.4624L15.1518 33.7518L15.2198 34.3647C15.2198 34.3647 14.7261 34.7563 14.7261 34.8415C14.7261 34.9266 14.7772 35.5395 14.7772 35.5395C14.7772 35.5395 15.1007 35.6928 15.1177 35.7779C15.1347 35.8631 15.305 36.476 15.305 36.476L15.6455 36.5951L16.2925 36.2035H17.3652L18.0291 36.3056L19.4423 35.863L21.5024 35.9651L21.3151 35.5735C21.3151 35.5735 20.4809 35.1478 20.1914 35.0628C19.902 34.9776 19.6125 34.9096 19.6125 34.9096L19.4934 34.3137L21.5194 31.913L22.2686 31.7598L22.5239 32.3897C22.5239 32.3897 23.3639 32.1854 23.3639 32.1173C23.3639 32.0492 23.3639 31.3226 23.3639 31.2546C23.3639 31.1865 23.1822 30.619 23.1822 30.619C23.1822 30.619 23.1798 30.5981 23.1762 30.567L23.8179 30.4601L26.0426 29.3932L26.8258 30.3352L27.8019 30.8006L26.5874 32.9799L25.5432 33.6837L24.794 33.3432L23.7497 32.5713L23.3411 32.8211L23.4319 33.593L22.819 33.5475L22.5466 34.0924L23.0006 34.7507L22.8416 35.2728C22.8416 35.2728 22.9552 35.7496 23.0687 35.7496C23.1821 35.7496 23.8632 35.4998 23.8632 35.4998L25.8609 35.341L27.3139 34.8642L28.8349 34.9778C28.8349 34.9778 29.13 33.9562 29.0619 33.9562C28.9938 33.9562 28.9711 33.9335 28.7894 33.9335C28.6078 33.9335 27.9722 33.9562 27.9722 33.9562L27.9493 33.7289L28.4487 32.8208L30.3783 31.209L30.9459 31.3226L31.1502 31.6176L31.7178 31.1863L31.695 30.4599L31.1957 29.9378L30.6962 29.3475L30.8552 28.4621L31.7178 28.8707C31.7178 28.8707 33.0799 29.8241 33.1932 29.8696C33.3068 29.915 35.9401 30.596 35.9401 30.596L36.4849 31.8899L36.2125 33.933L35.3725 33.6833L34.578 32.6617C34.578 32.6617 34.351 32.5481 34.2375 32.5709C34.124 32.5936 33.8516 33.0476 33.8516 33.0476L34.1241 33.6833L33.7608 33.7968L33.4203 34.0238L33.3522 34.5006L33.67 34.7956C33.67 34.7956 33.67 35.3404 33.67 35.4085C33.67 35.4765 33.8516 35.7264 33.9198 35.749C33.9879 35.7717 34.51 35.8397 34.6348 35.8285C34.7597 35.8171 35.6904 35.4312 35.6904 35.4312C35.6904 35.4312 37.4384 35.4653 37.4839 35.454C37.5294 35.4426 39.0389 35.1135 39.0389 35.1135L39.8902 35.2497C39.8902 35.2497 40.4578 34.8183 40.435 34.7615C40.4124 34.7051 39.8448 34.1716 39.7654 34.1602ZM36.502 21.8675C36.0424 21.9186 35.804 22.0548 35.7699 21.7994C35.7358 21.5441 35.7358 21.0332 35.7869 21.0162C35.838 20.9992 36.3658 20.6927 36.3828 20.7438C36.3998 20.7948 36.9276 21.0502 36.9276 21.0502L37.2491 21.6999C37.0795 21.79 36.8179 21.8323 36.502 21.8675Z"
            fill="#FF4B55" />
        <path
            d="M13.2967 17.6963C13.2967 17.6963 13.484 16.7258 13.5351 16.7258C13.5862 16.7258 14.2842 16.4704 14.2842 16.4704L12.2071 15.1254C12.2071 15.1254 12.5646 16.7768 12.5987 16.9131C12.6327 17.0492 13.2967 17.6963 13.2967 17.6963Z"
            fill="#FF4B55" />
        <path
            d="M18.5791 15.6989C18.5863 15.7006 18.6277 15.7097 18.691 15.7222L18.6754 15.7903C18.6498 15.8999 18.7184 16.01 18.8286 16.035C18.844 16.0388 18.8595 16.0403 18.8746 16.0403C18.9675 16.0403 19.0517 15.9764 19.0733 15.8818L19.0952 15.7867C19.2424 15.8049 19.4044 15.819 19.5609 15.819C19.6932 15.819 19.8209 15.8095 19.9307 15.7839C20.0406 15.7583 20.1093 15.6487 20.0838 15.5391C20.0582 15.429 19.9494 15.3588 19.8388 15.3859C19.5155 15.462 18.8853 15.3497 18.6703 15.3008C18.5626 15.2752 18.4512 15.3438 18.4256 15.454C18.4006 15.5642 18.4692 15.6739 18.5791 15.6989Z"
            fill="#464655" />
        <path
            d="M38.8064 18.9973L39.3213 20.5693C39.349 20.6534 39.4274 20.7099 39.5154 20.7099C39.5183 20.7099 39.5213 20.7099 39.5245 20.7099C39.616 20.7056 39.6936 20.6412 39.7144 20.5519C40.0912 18.9376 40.845 16.3842 41.3779 15.9671C41.4521 15.9091 41.4768 15.8086 41.4383 15.7224C41.4 15.6372 41.3088 15.5883 41.2151 15.6054C41.106 15.6256 38.5216 16.129 36.7234 18.826C36.6774 18.8951 36.6776 18.9851 36.724 19.0537C36.7706 19.1224 36.8535 19.1543 36.935 19.1394L38.4323 18.8298C38.2226 19.3353 38.0889 19.78 38.0427 19.9434C37.3608 19.5284 36.5919 19.4546 36.0586 19.5927C35.4499 19.7523 34.9384 20.1402 34.6547 20.6573C34.4373 21.0536 34.3799 21.4889 34.497 21.8513C34.633 22.2722 34.9958 22.7957 35.6069 23.0016C36.0118 23.1391 36.666 23.1695 37.5285 22.6357C37.5285 22.6398 37.5292 22.6437 37.5291 22.6477C37.5232 22.9882 37.3485 23.2658 37.0091 23.4739C36.3344 23.8873 35.1515 23.9149 34.3727 23.5341C33.3459 23.0328 31.802 22.7475 30.9396 22.6181C31.4743 22.4476 32.1209 22.3995 32.8978 22.5775C32.9084 22.5803 32.9186 22.5761 32.9292 22.5769C32.9344 22.5772 32.9384 22.5829 32.9436 22.5829C32.9493 22.5829 32.9537 22.5769 32.9594 22.5765C33.0063 22.5727 33.0519 22.5584 33.0863 22.525C33.0869 22.5244 33.087 22.5237 33.0874 22.5231C33.0876 22.523 33.088 22.5231 33.088 22.5231C33.089 22.5221 33.0887 22.5207 33.0894 22.5199C33.1224 22.4856 33.1369 22.4416 33.141 22.3955C33.142 22.3845 33.1433 22.376 33.1425 22.365C33.1418 22.3558 33.1457 22.347 33.1437 22.3378C33.1414 22.3261 32.9149 21.1662 33.5383 20.367C33.9129 19.8865 34.5256 19.6242 35.3593 19.5865C35.3725 19.5859 35.3833 19.5784 35.3958 19.5753C35.4139 19.571 35.4318 19.5684 35.4481 19.5594C35.463 19.5511 35.4734 19.5382 35.4858 19.5264C35.4962 19.5167 35.509 19.5108 35.5174 19.4986C35.5192 19.4962 35.5193 19.4931 35.5209 19.4903C35.5223 19.4881 35.525 19.4871 35.5264 19.4848C35.5301 19.4784 35.5293 19.471 35.5322 19.4644C35.5414 19.444 35.5478 19.4234 35.55 19.4019C35.5511 19.3915 35.5511 19.382 35.5504 19.3717C35.5492 19.3486 35.5439 19.327 35.5351 19.3057C35.533 19.3003 35.5341 19.2942 35.5313 19.2891C35.5148 19.2567 33.9117 16.0509 36.5236 13.9104C36.6086 13.8406 36.623 13.7162 36.5569 13.6289C36.4904 13.5422 36.3673 13.522 36.2767 13.5853C33.6978 15.3958 30.1336 15.5911 28.7209 15.5911C26.2013 15.5911 24.6094 16.5399 23.8539 18.4909C23.7755 18.6938 23.7198 18.9341 23.6733 19.1915C23.6985 18.8305 23.6324 18.5141 23.4695 18.2494C23.237 17.8721 22.8814 17.7141 22.7215 17.6592C22.7216 17.5666 22.7208 17.4749 22.7182 17.385C22.9942 17.3425 23.3217 17.5568 23.4297 17.6477C23.4675 17.6796 23.5147 17.6966 23.5621 17.6966C23.5935 17.6966 23.6252 17.6892 23.6541 17.6743C23.7275 17.637 23.7717 17.5599 23.7658 17.478C23.699 16.5279 23.0545 16.0662 22.6123 15.91C23.0022 15.6002 23.4177 15.0933 23.6723 14.2665C23.6967 14.1866 23.6704 14.1 23.6055 14.0479C23.5406 13.9951 23.4501 13.9872 23.3777 14.0277C23.3708 14.0316 22.9549 14.2568 22.3297 14.4424L22.3868 13.6999C22.3924 13.6249 22.3566 13.5525 22.2927 13.5121C22.2291 13.4712 22.1478 13.4696 22.0825 13.5069C22.072 13.5127 21.0259 14.0998 19.959 14.4098C19.1537 14.2073 18.1057 14.0497 17.7083 14.4636C17.6125 14.563 17.5234 14.7248 17.5455 14.9754C16.86 14.8323 15.2862 14.5982 14.3308 15.2159C14.2555 15.2643 14.2208 15.3564 14.2452 15.4426C14.2696 15.5288 14.3473 15.5895 14.4369 15.5916C14.7402 15.599 15.2089 15.6688 15.4045 15.7981C15.3183 16.0306 15.1757 16.5233 15.3002 16.9984C14.8856 17.1185 14.4505 17.137 13.9214 16.8508L14.3826 16.7376C14.4654 16.7174 14.5268 16.6478 14.5369 16.563C14.5467 16.4784 14.5032 16.3965 14.4276 16.3576C14.4159 16.3513 13.2528 15.7463 12.2855 14.7295C12.2306 14.6726 12.1474 14.6518 12.071 14.6774C11.9954 14.7034 11.942 14.771 11.9343 14.8503C11.926 14.9322 11.7527 16.8652 13.2205 18.0113C13.2573 18.0396 13.3017 18.0544 13.3464 18.0544C13.3744 18.0544 13.4023 18.0485 13.4288 18.0368C13.4975 18.0066 13.5443 17.941 13.5501 17.866L13.6071 17.1359C14.3394 17.5743 14.9457 17.5324 15.4659 17.3743C15.5311 17.4737 15.614 17.5685 15.7186 17.6553C15.7354 17.6693 15.7584 17.6844 15.7818 17.6997C15.4475 18.4822 14.7837 18.684 14.7553 18.6918C14.6726 18.7157 14.6133 18.7887 14.6074 18.8743C14.6012 18.96 14.6492 19.0402 14.7276 19.0754C14.777 19.0972 15.8462 19.5596 17.0447 19.1328L17.0258 19.2695C17.0178 19.327 17.0349 19.3855 17.0729 19.4297C17.1107 19.4744 17.1657 19.5005 17.224 19.5016C17.229 19.5016 17.2426 19.5022 17.2638 19.5022C17.4014 19.5022 17.8578 19.4917 18.3753 19.3729C18.2971 20.1039 17.8517 20.9751 17.3779 21.8943C16.7365 23.1396 16.0216 24.5439 16.033 25.9621C15.7883 25.6453 15.4836 25.1514 15.3329 24.4956C15.2808 24.2679 15.2462 24.0636 15.2149 23.8769C15.1385 23.4251 15.0725 23.0346 14.8055 22.6675C14.5035 22.2525 14.0766 21.3261 14.0952 20.8202C14.1127 20.3525 13.8063 20.0775 13.495 20.012C13.4725 20.0074 13.4513 20.0132 13.429 20.0106C13.3553 19.862 13.1557 19.5775 12.6969 19.5448C12.5865 19.53 12.4865 19.6215 12.4785 19.7343C12.4704 19.8466 12.5551 19.9444 12.6676 19.9524C12.8277 19.9637 12.9269 20.0248 12.9878 20.0858C12.8379 20.1628 12.7166 20.2913 12.6322 20.4559C12.3586 20.2983 12.0823 20.2588 11.8708 20.3071C11.8161 20.3195 11.7747 20.3491 11.7274 20.3715C11.589 20.2993 11.2204 20.1619 10.7763 20.4443C10.6811 20.5045 10.6528 20.6311 10.7135 20.7264C10.7523 20.7876 10.8186 20.8211 10.8862 20.8211C10.9235 20.8211 10.9615 20.8109 10.9955 20.7892C11.1541 20.6885 11.2896 20.6753 11.389 20.688C11.3162 20.823 11.2748 20.9716 11.2819 21.1101C11.296 21.3852 11.455 21.5985 11.7008 21.689C11.4077 21.7448 11.1592 21.881 11.0265 22.0651C11.005 22.095 11.0006 22.129 10.9852 22.1606C10.7985 22.1799 10.5113 22.3055 10.3297 22.6894C10.2814 22.791 10.3249 22.9129 10.4268 22.9612C10.4552 22.9745 10.4848 22.981 10.5141 22.981C10.5908 22.981 10.6641 22.9379 10.6991 22.864C10.78 22.6931 10.8751 22.6254 10.9462 22.5944C11.1403 23.2345 11.7712 23.0888 12.1518 22.9996L12.3042 22.965C12.5176 22.9225 12.8938 23.5455 12.9949 23.9498C13.0651 24.2308 12.9449 24.5745 12.566 25.1757C12.3359 25.5417 12.4021 25.8067 12.4984 25.9646C12.5003 25.9679 12.5035 25.9696 12.5054 25.9727C12.4443 25.991 12.369 26.0042 12.2672 25.9907C12.1573 25.9685 12.0523 26.0535 12.0371 26.1653C12.0219 26.2771 12.1002 26.3803 12.212 26.3952C12.2641 26.4026 12.3133 26.4059 12.3599 26.4059C12.5975 26.4059 12.7558 26.3247 12.8509 26.2583C12.9838 26.3151 13.1205 26.3365 13.2216 26.3287C13.5033 26.3054 13.6942 26.0585 13.8231 25.752C14.199 27.8244 15.0627 29.7488 15.2128 30.0734C15.1826 30.8077 14.39 30.9801 14.3557 30.9876C14.2676 31.0057 14.2017 31.0791 14.1934 31.169C14.1851 31.2584 14.236 31.3426 14.319 31.3765C14.6638 31.5175 14.9655 31.574 15.2275 31.574C16.0357 31.574 16.4629 31.0409 16.5975 30.8355C17.1944 30.6276 17.8941 30.1409 18.1672 29.9418C18.6227 30.2831 19.0013 30.4723 19.1278 30.5314C18.9077 32.6978 17.6375 34.1612 17.2659 34.545C17.0143 34.4009 16.4585 34.0449 16.275 33.6208C16.1014 33.22 15.7794 33.1071 15.5168 33.1306C15.4286 33.0167 15.2307 32.8042 14.9532 32.7736C14.8167 32.7593 14.6097 32.7843 14.3993 32.9949C14.3194 33.0748 14.3194 33.204 14.3993 33.2838C14.4787 33.3637 14.608 33.3641 14.6881 33.2844C14.8035 33.1689 14.8821 33.1759 14.9076 33.1795C14.9864 33.1879 15.0624 33.2448 15.1225 33.3034C14.9736 33.4304 14.8813 33.608 14.8962 33.8019C14.9068 33.9382 14.9578 34.0663 15.0298 34.1854C14.881 34.2629 14.7017 34.3899 14.5836 34.5909C14.5794 34.5981 14.5745 34.6096 14.5701 34.6176C14.3262 34.6331 13.8871 34.8053 13.8188 35.3736C13.8055 35.4859 13.8853 35.5875 13.9973 35.6008C14.0058 35.6018 14.0138 35.6024 14.0221 35.6024C14.1241 35.6024 14.2123 35.5263 14.2248 35.4225C14.2493 35.219 14.3478 35.1211 14.4403 35.0721C14.4379 35.1559 14.4449 35.2431 14.4749 35.3343C14.5455 35.5487 14.7121 35.7226 14.961 35.8579C14.9347 35.9417 14.9175 36.0309 14.9153 36.1275C14.7839 36.1938 14.5902 36.3174 14.491 36.5277C14.4167 36.6847 14.4121 36.8602 14.4774 37.0358C14.5079 37.1182 14.5859 37.1688 14.669 37.1688C14.6927 37.1688 14.7168 37.1645 14.7403 37.1561C14.8462 37.1168 14.8998 36.9991 14.8605 36.8933C14.8248 36.7981 14.8432 36.739 14.8603 36.7028C14.8905 36.6385 14.9505 36.5844 15.0118 36.5424C15.0875 36.6784 15.202 36.782 15.3551 36.8326C15.425 36.8554 15.4977 36.8667 15.5706 36.8667C15.8137 36.8667 16.0602 36.7437 16.2182 36.53C16.4074 36.2735 16.7774 36.4204 16.8014 36.4305C17.575 36.7115 18.6202 36.4997 19.2529 36.1443C19.6037 35.9469 20.8401 36.0534 21.5372 36.1677C21.5917 36.1751 21.6497 36.1618 21.6947 36.1283C21.7395 36.0937 21.7679 36.0427 21.7736 35.9863C21.8441 35.2808 20.9313 35.0935 20.1979 34.943C19.9981 34.902 19.8079 34.8631 19.6285 34.7865C19.557 34.3726 20.6325 32.8658 21.6573 32.1124C21.9085 31.9278 22.1107 31.8538 22.2119 31.9081C22.3567 31.9874 22.4027 32.3566 22.388 32.5811C22.3876 32.5871 22.391 32.5922 22.3911 32.598C22.3913 32.6203 22.3955 32.6418 22.4033 32.6634C22.4067 32.6725 22.4092 32.681 22.4137 32.6895C22.4165 32.695 22.4168 32.701 22.4201 32.7061C22.4319 32.7241 22.4477 32.7373 22.4635 32.7502C22.4666 32.7527 22.4677 32.7569 22.471 32.7594C22.4718 32.7599 22.4728 32.7598 22.4728 32.7598C22.4992 32.7786 22.5283 32.7897 22.5591 32.7948C22.567 32.7961 22.5744 32.7949 22.5823 32.7952C22.6052 32.7964 22.6273 32.794 22.6497 32.7872C22.655 32.7857 22.6606 32.7873 22.6657 32.7853C22.6823 32.7789 22.7003 32.7697 22.7172 32.7628C22.8262 32.7069 23.0109 32.7692 23.1401 32.8354C23.116 32.9099 23.1015 32.9877 23.1084 33.0721C23.1169 33.1774 23.1497 33.2822 23.2008 33.3828C22.9984 33.3599 22.809 33.3828 22.6719 33.4882C22.623 33.5257 22.5844 33.5729 22.5454 33.6196C22.2578 33.648 21.8982 33.8293 21.8127 34.2575C21.7906 34.3681 21.8621 34.4756 21.9729 34.498C21.9864 34.5008 22 34.5018 22.0133 34.5018C22.1085 34.5018 22.1939 34.4348 22.2134 34.3374C22.2339 34.2351 22.2862 34.1732 22.3439 34.1266C22.3421 34.2013 22.3501 34.2752 22.3722 34.3448C22.4121 34.4712 22.5201 34.6596 22.7947 34.765C22.77 34.807 22.7487 34.8517 22.7299 34.8974C22.5254 34.9632 22.2174 35.1753 22.2174 35.6254C22.2174 35.7382 22.3089 35.8297 22.4217 35.8297C22.5345 35.8297 22.626 35.7382 22.626 35.6254C22.626 35.5459 22.6457 35.4882 22.6717 35.4404C22.6782 35.4699 22.683 35.5002 22.6936 35.5279C22.743 35.6572 22.8917 35.8998 23.3083 35.8998C23.4456 35.8998 23.6115 35.8737 23.8127 35.8083C24.3003 35.6503 24.6459 35.6337 24.9801 35.6173C25.3797 35.5981 25.7571 35.5795 26.2874 35.3337C27.0514 34.9788 27.9978 35.0991 28.4936 35.2027C28.7622 35.2581 29.0251 35.1261 29.1333 34.8798C29.1705 34.7958 29.1948 34.7222 29.2205 34.6475C29.4517 34.6753 29.4995 34.8999 29.5058 34.9494C29.5172 35.0537 29.6056 35.1314 29.7085 35.1314C29.7154 35.1314 29.7227 35.1308 29.7297 35.1304C29.842 35.1186 29.9236 35.018 29.9119 34.9057C29.8898 34.6923 29.7316 34.3093 29.3083 34.2427C29.3137 34.0977 29.2855 33.9784 29.2145 33.8905C29.1367 33.7947 28.9822 33.6942 28.6794 33.7564C28.366 33.8213 28.2219 33.8342 28.1568 33.8283C28.1666 33.7885 28.1898 33.7177 28.2438 33.5969C28.4263 33.1861 29.6381 32.1028 30.4315 31.4543C30.6229 31.4112 30.8655 31.4085 30.9215 31.4724C30.9412 31.4941 30.9412 31.5692 30.8965 31.6879C30.8646 31.772 30.8914 31.8667 30.9622 31.9215C31.0327 31.9764 31.1312 31.9789 31.2046 31.9278C31.2362 31.9056 31.9774 31.3792 31.9626 30.7382C31.9549 30.4142 31.766 30.1327 31.401 29.9017C31.0916 29.7065 30.9139 29.4803 30.8725 29.2303C30.8291 28.9687 30.9406 28.7366 31.0151 28.613C31.3078 28.7533 31.6016 28.9347 31.894 29.1765C33.6193 30.6031 35.0876 30.8303 35.8807 30.8266C36.0471 31.1941 36.5355 32.4481 36.1185 33.7362C35.8967 33.6969 35.4609 33.5553 35.1619 33.0568C34.8712 32.5726 34.5224 32.4514 34.2806 32.4353C33.9047 32.406 33.5059 32.6199 33.1925 33.0115C33.1255 33.0956 33.1348 33.2169 33.2135 33.2892C33.2925 33.3621 33.4145 33.3617 33.492 33.2882C33.5441 33.2387 33.6412 33.1786 33.683 33.211L33.7254 33.3291C33.748 33.3945 33.7712 33.4605 33.7987 33.5243C33.6362 33.5482 33.4798 33.6147 33.3577 33.7531C33.2772 33.8443 33.2266 33.9496 33.1899 34.058C32.8157 34.1249 32.6118 34.4088 32.6032 34.4219C32.5409 34.5149 32.5663 34.6399 32.6588 34.7028C32.6936 34.7267 32.7336 34.7385 32.7729 34.7385C32.8382 34.7385 32.9022 34.7076 32.9421 34.6501C32.946 34.6448 33.0215 34.5425 33.1565 34.4851C33.1734 34.5621 33.2011 34.6365 33.243 34.7043C33.3135 34.818 33.4136 34.894 33.5271 34.9346C33.5118 34.9936 33.4987 35.0581 33.4902 35.1274C33.4859 35.1289 33.4814 35.1282 33.477 35.1299C32.9878 35.3358 33.0876 35.9438 33.2086 36.2365C33.2413 36.3153 33.3171 36.3626 33.3972 36.3626C33.4232 36.3626 33.4495 36.3573 33.4749 36.3471C33.5792 36.3041 33.6289 36.1848 33.5863 36.0805C33.5849 36.0766 33.47 35.7763 33.5438 35.6054C33.5458 35.6099 33.5463 35.6148 33.5482 35.6193C33.6328 35.8103 33.7959 35.9466 34.0197 36.0137C34.1299 36.0467 34.2352 36.0605 34.336 36.0605C34.6704 36.0605 34.9542 35.9056 35.1932 35.7749C35.3792 35.6732 35.555 35.5802 35.6935 35.5897C35.7944 35.5993 35.9099 35.6175 36.0364 35.637C36.5142 35.7115 37.1691 35.8126 37.819 35.6035C37.94 35.5647 38.0496 35.5268 38.15 35.4923C38.6781 35.3113 38.8754 35.2437 39.1981 35.4274C39.5889 35.651 40.0928 35.5008 40.3524 35.2269C40.4338 35.1411 40.4806 35.0454 40.5058 34.9484C40.6391 35.0015 40.7471 35.0589 40.7644 35.0908C40.7263 35.1972 40.7817 35.3137 40.8882 35.352C40.9108 35.36 40.934 35.3638 40.9568 35.3638C41.0407 35.3638 41.1193 35.3116 41.1492 35.2281C41.1876 35.1212 41.1782 35.011 41.1229 34.9099C40.9879 34.664 40.5926 34.532 40.3946 34.4796C40.0677 34.0353 39.5692 33.897 38.7457 34.0272C38.713 34.032 38.6874 34.0262 38.6593 34.0028C38.3586 33.7597 38.2925 32.4966 38.253 31.7426C38.2214 31.1392 38.1998 30.7891 38.1072 30.621C38.1545 30.5822 38.4132 30.5773 38.5743 30.6949C38.652 30.7523 38.6597 30.804 38.6411 30.8625C38.6379 30.871 38.6349 30.879 38.632 30.8869C38.5922 30.9912 38.6437 31.1088 38.7477 31.1497C38.8517 31.1895 38.9696 31.1406 39.0119 31.0369C39.0181 31.0225 39.0233 31.0076 39.0282 30.9932C39.1011 30.7862 39.3995 29.8487 39.0479 29.255C38.8899 28.9884 38.6326 28.8293 38.2829 28.782C37.3917 28.6619 36.7125 28.0925 36.2558 27.1001C36.9477 26.857 38.9848 25.9337 39.3656 23.3853C39.6186 21.6912 39.0115 20.7425 38.4574 20.245C38.4309 20.2212 38.4022 20.2031 38.3752 20.1807C38.3912 20.1599 38.4116 20.1428 38.4188 20.1158C38.4213 20.1067 38.5613 19.5914 38.8064 18.9973ZM37.3639 18.6331C38.5283 17.1178 39.9563 16.4432 40.7286 16.1707C40.2221 17.0832 39.7394 18.7901 39.4879 19.7648L39.0628 18.4665C39.0611 18.4614 39.0558 18.4593 39.054 18.4544C39.1786 18.2085 39.3187 17.9704 39.4732 17.7694C39.5419 17.6801 39.5251 17.5519 39.4357 17.4832C39.3461 17.4141 39.2181 17.4311 39.1492 17.5205C38.9563 17.7713 38.7864 18.0687 38.6397 18.3692L37.3639 18.6331ZM13.1753 17.4179C12.5459 16.7512 12.382 15.8861 12.3445 15.3605C12.8829 15.8595 13.4261 16.2331 13.7924 16.4608L13.4668 16.5407C13.4046 16.4908 13.3436 16.4447 13.2786 16.3863C13.1953 16.3113 13.0662 16.3188 12.9902 16.4018C12.9146 16.4859 12.9215 16.6152 13.0056 16.6906C13.0786 16.7562 13.1479 16.8066 13.2184 16.8627L13.1753 17.4179ZM28.5866 24.1575C28.2048 23.1386 27.0524 20.6991 24.2291 18.6581C24.2314 18.6522 24.2328 18.6443 24.2351 18.6385C24.2713 18.5449 24.3186 18.4644 24.3591 18.3759C28.6337 19.4683 31.2353 21.2453 32.2747 22.0727C30.1513 21.9161 29.028 23.3787 28.5866 24.1575ZM33.2141 20.1176C32.7628 20.6977 32.684 21.4042 32.6929 21.8813C31.7556 21.0966 29.1209 19.1866 24.5387 18.0017C24.598 17.8988 24.669 17.8094 24.7353 17.7146C24.75 17.718 24.7643 17.7233 24.7799 17.7242C30.4176 17.4819 33.563 18.6926 34.7149 19.2631C34.0685 19.3942 33.5593 19.6737 33.2141 20.1176ZM28.7211 15.9994C29.9672 15.9994 32.844 15.85 35.3253 14.6203C34.2602 16.2245 34.6431 18.0252 34.944 18.9149C33.8014 18.3296 30.7068 17.114 25.0626 17.3086C25.8769 16.4365 27.0807 15.9994 28.7211 15.9994ZM23.9291 20.3527C23.98 19.8909 24.0308 19.4517 24.111 19.0817C26.8242 21.093 27.917 23.5242 28.2402 24.4058C27.5738 24.2563 26.9702 24.3048 26.4499 24.573C26.0241 24.7929 25.7271 25.1159 25.5234 25.4117C25.4327 24.3836 25.0933 22.549 23.8535 21.1045C23.8495 21.0999 23.844 21.0979 23.8397 21.0937C23.8729 20.8452 23.9023 20.5962 23.9291 20.3527ZM23.671 26.5901C22.7216 26.3688 22.3228 25.4121 22.3044 25.367C22.2794 25.3053 22.226 25.259 22.161 25.244C22.1455 25.2408 22.1301 25.2388 22.1147 25.2388C22.0649 25.2388 22.0163 25.2574 21.9782 25.2915C21.2961 25.905 20.4616 26.0667 20.0449 26.1093C20.3742 25.0749 21.3003 24.5376 22.5461 23.8145L22.6035 23.781C22.9141 23.6007 23.1381 23.3271 23.3133 23.0052C23.3131 23.5193 23.3406 24.0921 23.4351 24.5742C23.4542 24.6717 23.5396 24.7392 23.6354 24.7392C23.6485 24.7392 23.6616 24.7381 23.675 24.7354C23.7857 24.7136 23.8577 24.6061 23.8362 24.4954C23.6319 23.4527 23.7612 21.8844 23.78 21.6732C24.9683 23.2772 25.1256 25.3014 25.1434 25.9615C24.4464 25.8409 24.0579 25.2992 24.0538 25.2937C24.0157 25.2383 23.9532 25.2053 23.8864 25.2053H23.8857C23.8192 25.2053 23.7568 25.2372 23.7187 25.2915C23.4167 25.7191 23.5346 26.2464 23.671 26.5901ZM22.9474 21.0002C22.7891 20.8055 22.5762 20.5911 22.3653 20.497C22.4129 20.3066 22.4576 20.1041 22.4983 19.8913C22.7169 20.0709 23.0478 20.4407 22.9474 21.0002ZM22.0271 21.7306C22.0883 21.7396 22.4606 21.8115 22.6153 22.2896C22.442 22.2597 22.2381 22.2754 22.0323 22.3862C21.9994 22.1946 21.993 21.9761 22.0271 21.7306ZM22.7567 22.7783C22.8157 22.8238 22.8942 22.8294 22.9614 22.8003C22.8429 23.0203 22.694 23.2022 22.5107 23.339C22.4106 23.2379 22.2632 23.057 22.1522 22.7951C22.4549 22.5746 22.7264 22.7564 22.7567 22.7783ZM23.4609 19.7664C23.5321 19.7481 23.5873 19.6915 23.6059 19.6201C23.5761 19.8424 23.5488 20.0711 23.5228 20.308C23.4372 21.0849 23.3439 21.9262 23.0791 22.5648C23.004 21.7063 22.4437 21.3902 22.1155 21.3332C22.133 21.2739 22.1488 21.2155 22.1711 21.1537C22.2001 21.0731 22.2287 20.9862 22.2568 20.8946C22.4435 21.0124 22.7015 21.3313 22.8461 21.5532C22.8842 21.6117 22.9485 21.6463 23.0174 21.6463C23.0222 21.6463 23.027 21.6463 23.0318 21.6457C23.106 21.6404 23.1714 21.5951 23.2026 21.5281C23.6915 20.4764 23.0332 19.7264 22.5751 19.4435C22.5866 19.3686 22.5982 19.2938 22.6086 19.2177C22.8742 19.3425 23.1576 19.5995 23.2598 19.7085C23.2989 19.7505 23.3532 19.7733 23.409 19.7733C23.4263 19.7733 23.4436 19.7712 23.4609 19.7664ZM23.1217 18.4634C23.2382 18.6528 23.2872 18.8859 23.2686 19.1593C23.1027 19.0216 22.8836 18.8728 22.6592 18.7935C22.6833 18.5612 22.7015 18.3281 22.7119 18.0981C22.836 18.16 23.0031 18.271 23.1217 18.4634ZM23.2693 17.0752C23.1015 17.002 22.8997 16.9523 22.6926 16.9749C22.6718 16.7476 22.6386 16.5361 22.5923 16.3447C22.8071 16.4457 23.1157 16.6568 23.2693 17.0752ZM21.9509 14.0383L21.9115 14.5498C21.5946 14.6204 21.2459 14.6735 20.8764 14.6821C20.821 14.6629 20.7439 14.637 20.6541 14.6081C21.1801 14.4136 21.6525 14.1901 21.9509 14.0383ZM15.9804 17.3407C15.9384 17.3056 15.9014 17.2683 15.8692 17.2295C15.9094 17.2136 15.9492 17.1976 15.9883 17.1822C16.2719 17.0684 16.5395 16.961 16.797 16.9466C17.3757 16.911 17.5446 17.1397 17.5824 17.21C17.6209 17.2818 17.6148 17.3451 17.5919 17.3765C17.4956 17.5074 17.3412 17.586 17.1329 17.6116C16.6572 17.6658 16.0908 17.4328 15.9804 17.3407ZM17.4158 18.6369C17.3541 18.5922 17.2728 18.5853 17.2054 18.6204C16.5044 18.9705 15.8069 18.9264 15.3639 18.838C15.6298 18.6567 15.9417 18.3527 16.1502 17.8728C16.3891 17.9594 16.6859 18.0292 16.9794 18.0292C17.0475 18.0292 17.1155 18.025 17.1822 18.0169C17.5019 17.9781 17.7573 17.8402 17.9209 17.619C18.0441 17.4514 18.0521 17.2199 17.9417 17.0156C17.8561 16.8571 17.5711 16.4916 16.7747 16.5389C16.4499 16.5565 16.1381 16.6815 15.8365 16.8027C15.7881 16.8219 15.7396 16.8415 15.6915 16.8602C15.582 16.3766 15.8267 15.8434 15.8301 15.8364C15.8604 15.7716 15.8549 15.6955 15.8153 15.6359C15.7017 15.4651 15.4755 15.3587 15.2377 15.2921C16.3391 15.0617 17.7531 15.4421 17.7703 15.447C17.8459 15.4667 17.9252 15.4448 17.9768 15.3863C18.0284 15.3289 18.0431 15.2469 18.0146 15.1746C17.9324 14.9676 17.9287 14.8235 18.0033 14.7457C18.321 14.4148 19.8164 14.7419 20.7759 15.0793C20.7988 15.0873 20.8242 15.0852 20.8469 15.091C21.7924 15.0762 22.6187 14.8058 23.1079 14.6036C22.5557 15.8028 21.6163 15.9715 21.5722 15.979C21.4613 15.9966 21.3855 16.1003 21.4025 16.2115C21.4195 16.3233 21.524 16.4015 21.6356 16.3828C21.6571 16.3794 21.8568 16.3446 22.1286 16.2139C22.5332 17.3332 22.2163 19.8215 21.7866 21.0149C21.3058 22.351 21.8392 23.1994 22.1657 23.5636C20.8753 24.3144 19.8665 24.9522 19.5841 26.2628C19.5837 26.2639 19.5827 26.2647 19.5823 26.2659C19.5755 26.2872 19.5065 26.5169 19.4268 26.9265C18.9267 26.5941 17.9948 25.23 18.4964 23.6311C18.6331 23.1947 18.7939 22.768 18.9492 22.3552C19.411 21.1294 19.8459 19.9706 19.5221 18.8854C19.6485 18.7947 19.7668 18.6931 19.8692 18.5738C20.2254 18.1589 20.3498 17.6283 20.2392 16.9968C20.22 16.8851 20.1144 16.8095 20.0027 16.8309C19.8918 16.85 19.8172 16.9559 19.8369 17.0671C19.9266 17.5795 19.8359 17.9849 19.5595 18.3073C19.0253 18.931 17.9391 19.0597 17.4643 19.0858L17.4994 18.8304C17.5095 18.7556 17.4773 18.681 17.4158 18.6369ZM19.2499 27.9527C18.8981 28.3829 18.1839 28.955 17.9066 29.1712C17.6505 28.927 17.3941 28.6372 17.1681 28.2977C18.2135 28.1204 18.8409 27.4715 19.0762 27.1707C19.1545 27.2373 19.2291 27.2908 19.2949 27.326C19.314 27.3362 19.3345 27.3373 19.3546 27.3408C19.3272 27.5158 19.3011 27.7142 19.2764 27.9311C19.2677 27.9386 19.2574 27.9435 19.2499 27.9527ZM16.7634 24.2289C16.928 24.2752 17.3547 24.3842 17.7485 24.3842C17.8205 24.3842 17.8851 24.3709 17.9528 24.3625C17.9382 24.614 17.9506 24.8562 17.9859 25.0865C17.6601 25.2986 16.9009 25.3165 16.4909 25.2989C16.5457 24.9412 16.6398 24.5837 16.7634 24.2289ZM17.2748 23.0096C17.4254 23.0456 17.7206 23.1056 18.0188 23.1056C18.0961 23.1056 18.1731 23.101 18.248 23.0912C18.1999 23.2298 18.1508 23.3672 18.1063 23.5088C18.0594 23.6584 18.027 23.8051 18.0009 23.9503C17.9994 23.9505 17.9979 23.9501 17.9964 23.9504C17.6932 24.0253 17.1728 23.9171 16.9071 23.8447C17.0199 23.5629 17.1429 23.2837 17.2748 23.0096ZM17.7417 22.0809C17.7946 21.9783 17.8466 21.8768 17.8984 21.7755C18.0762 21.8183 18.4268 21.8986 18.6723 21.9292C18.6372 22.023 18.6027 22.116 18.5667 22.2118C18.5124 22.3559 18.4579 22.5042 18.4033 22.6517C18.3781 22.6495 18.3519 22.6516 18.3262 22.6598C18.0841 22.7346 17.7058 22.6835 17.4608 22.6325C17.5545 22.4458 17.6489 22.2612 17.7417 22.0809ZM18.3899 20.7477C18.5369 20.8033 18.7724 20.8774 19.0101 20.8774C19.0175 20.8774 19.0243 20.8742 19.0319 20.8741C18.9703 21.0878 18.8964 21.3081 18.8164 21.5326C18.7027 21.5314 18.369 21.465 18.0872 21.3997C18.1967 21.1786 18.298 20.9613 18.3899 20.7477ZM18.6722 19.9668C18.7877 19.9749 18.8947 19.9803 18.9851 19.9803C19.0742 19.9803 19.1452 19.9744 19.2098 19.9665C19.1955 20.1252 19.1729 20.2862 19.1379 20.4508C18.9828 20.4967 18.7294 20.4372 18.5417 20.3678C18.5917 20.2321 18.6354 20.0984 18.6722 19.9668ZM16.7532 25.7134C17.1445 25.7134 17.6918 25.6687 18.0698 25.4932C18.1229 25.6865 18.1897 25.8687 18.2659 26.0383C17.564 26.526 16.7798 26.6382 16.5024 26.6612C16.4719 26.4923 16.4498 26.3175 16.4393 26.1354C16.4311 25.9928 16.4366 25.8495 16.4449 25.7061C16.5243 25.7098 16.6289 25.7134 16.7532 25.7134ZM18.456 26.4025C18.5615 26.5817 18.6738 26.7421 18.7865 26.8764C18.6128 27.1066 18.0003 27.8106 16.945 27.925C16.8043 27.6627 16.6857 27.3754 16.5972 27.0637C16.9533 27.0288 17.7304 26.891 18.456 26.4025ZM19.1529 19.1043C19.1894 19.2522 19.2104 19.4025 19.2181 19.5552C19.1662 19.5718 18.9724 19.5733 18.7631 19.5624C18.7799 19.4575 18.7895 19.3545 18.7938 19.2529C18.9149 19.2112 19.0354 19.1613 19.1529 19.1043ZM16.4015 30.4688C16.3486 30.4858 16.3044 30.5231 16.2796 30.5726C16.2628 30.6061 15.9168 31.2787 15.0037 31.1474C15.3267 30.9346 15.6225 30.5765 15.6225 30.0289C15.6225 29.9986 15.6159 29.9687 15.6028 29.9416C15.5895 29.9134 14.2604 27.0785 14.0781 24.5428C14.0703 24.4363 13.9821 24.3539 13.8753 24.3533H13.8743C13.7681 24.3533 13.6795 24.4347 13.6707 24.5406C13.6178 25.1785 13.4066 25.9021 13.1876 25.9202C13.1071 25.9287 12.9185 25.8681 12.8477 25.7516C12.795 25.6648 12.8168 25.544 12.912 25.393C13.2837 24.8023 13.5075 24.3146 13.3914 23.85C13.2944 23.4611 12.8403 22.4385 12.2202 22.564L12.0584 22.6007C11.5314 22.7257 11.3957 22.699 11.3303 22.4607C11.314 22.4012 11.3229 22.3527 11.3585 22.3032C11.448 22.1788 11.6767 22.0856 11.9282 22.0712C12.3998 22.0456 12.5879 22.2468 12.5929 22.2526C12.6552 22.3282 12.7614 22.3484 12.847 22.3032C12.9327 22.2574 12.9745 22.1574 12.9464 22.0644C12.9384 22.0383 12.7453 21.4243 11.9242 21.3243C11.7398 21.3021 11.6954 21.1834 11.6904 21.0887C11.6824 20.9316 11.7817 20.7455 11.9617 20.7045C12.2846 20.6326 12.8872 20.9066 13.1484 21.9512C13.1757 22.0613 13.2891 22.1247 13.396 22.1002C13.5056 22.0725 13.5721 21.9618 13.5448 21.8523C13.4111 21.3177 13.1945 20.9512 12.9523 20.7042C12.9565 20.6967 12.9628 20.691 12.9661 20.6827C13.0641 20.4337 13.2658 20.382 13.4116 20.4114C13.5507 20.4407 13.6965 20.5594 13.6874 20.8046C13.6621 21.4815 14.1971 22.5247 14.4753 22.9073C14.686 23.1968 14.739 23.5102 14.812 23.9442C14.8448 24.1379 14.8807 24.3496 14.935 24.5865C15.2059 25.7655 15.9179 26.4799 16.0854 26.6352C16.3065 28.0532 17.1053 29.0435 17.8377 29.6737C17.5223 29.8975 16.8952 30.3148 16.4015 30.4688ZM18.2168 29.4475C18.4527 29.2619 18.8683 28.9224 19.2166 28.5828C19.1873 28.9808 19.1658 29.4179 19.1639 29.9143C19.1637 29.9724 19.1588 30.0277 19.1571 30.0849C18.9552 29.9766 18.6052 29.7684 18.2168 29.4475ZM30.8369 28.0858L31.1928 27.032C31.5407 27.1556 31.8687 27.297 32.1769 27.4517L31.4973 28.4004C31.2812 28.2739 31.0611 28.1691 30.8369 28.0858ZM30.4462 27.9649C30.2554 27.9159 30.0622 27.8799 29.8666 27.8609L29.9988 26.7081C30.0464 26.7171 30.095 26.7221 30.1422 26.7321C30.3704 26.7813 30.5895 26.8411 30.8038 26.9058L30.4462 27.9649ZM29.4573 27.8436C29.2557 27.8455 29.052 27.8637 28.8463 27.8965L28.734 26.6055C29.0228 26.6016 29.3109 26.6138 29.5946 26.6457L29.4573 27.8436ZM28.3254 26.6224L28.4433 27.9786C28.2324 28.0321 28.0195 28.1042 27.8055 28.1894L27.4449 26.7184C27.734 26.6739 28.0282 26.6408 28.3254 26.6224ZM27.6967 30.5474C27.5328 30.4896 27.3792 30.4113 27.234 30.3245L27.9644 28.9382C27.9815 28.9577 28 28.9744 28.0143 28.9982C28.0869 29.1206 28.0978 29.2818 28.0467 29.4776C27.9788 29.738 27.857 30.1214 27.6967 30.5474ZM26.7913 29.1887C27.0442 29.02 27.3223 28.8584 27.6189 28.7178L26.8936 30.0944C26.6145 29.8784 26.3982 29.6529 26.2758 29.5122C26.4461 29.4106 26.6182 29.304 26.7913 29.1887ZM27.0411 26.7871L27.4258 28.3565C27.2287 28.4515 27.0304 28.5598 26.8312 28.6812L26.2395 26.9647C26.495 26.8994 26.7646 26.8397 27.0411 26.7871ZM25.8442 27.0717L26.4678 28.8807C26.4706 28.8888 26.4785 28.8924 26.4822 28.8998C26.2331 29.0628 25.9867 29.2086 25.7445 29.3428L25.1404 27.292C25.3557 27.2192 25.5904 27.1445 25.8442 27.0717ZM24.7542 27.4278L25.3752 29.5361C25.3756 29.5376 25.3773 29.5383 25.3776 29.5396C25.1064 29.6785 24.8463 29.8013 24.607 29.905L23.9315 27.7963C23.9401 27.7816 23.9495 27.7627 23.9579 27.749C24.07 27.6985 24.3529 27.5756 24.7542 27.4278ZM23.6715 28.3227L24.2287 30.062C23.8034 30.2308 23.4712 30.3383 23.3059 30.3877C23.1996 29.7114 23.4217 28.9113 23.6715 28.3227ZM23.5511 32.0602C23.6895 31.7277 23.6486 31.318 23.4261 30.8094C23.4221 30.8003 23.4181 30.7913 23.4144 30.7816C23.7572 30.6814 24.7602 30.3542 25.914 29.7172C26.1201 29.9668 26.73 30.6337 27.5476 30.9265C27.0833 32.062 26.3902 33.3348 25.692 33.4477C25.1067 33.5403 24.7899 33.1913 24.4839 32.8513C24.2171 32.5555 23.9141 32.2202 23.4841 32.4469C23.4506 32.4645 23.4254 32.4872 23.3962 32.5074C23.3629 32.488 23.317 32.464 23.2628 32.4392C23.3801 32.3368 23.4857 32.2178 23.5511 32.0602ZM30.4687 29.2914C30.5284 29.6633 30.7688 29.9848 31.183 30.247C31.4248 30.3997 31.5496 30.5678 31.5541 30.7466C31.5589 30.9376 31.4342 31.1365 31.2929 31.2977C31.2734 31.2579 31.2498 31.2249 31.2255 31.1983C30.9648 30.9089 30.3979 31.0392 30.2867 31.0684C30.2585 31.0754 30.2322 31.0892 30.2096 31.1072C30.0002 31.2774 28.1545 32.7912 27.8703 33.4302C27.7639 33.6696 27.6722 33.918 27.8158 34.0964C27.9656 34.2826 28.2522 34.2619 28.7629 34.1559C28.8067 34.1469 28.8384 34.1442 28.8598 34.1442C28.8842 34.1442 28.8962 34.1442 28.8962 34.147C28.9135 34.1763 28.925 34.3406 28.7595 34.714C28.7294 34.7816 28.6533 34.8173 28.577 34.8018C28.0318 34.689 26.9863 34.5592 26.1153 34.9625C25.6574 35.1748 25.3343 35.1902 24.9603 35.2083C24.6159 35.2248 24.226 35.2439 23.6865 35.4189C23.5623 35.4588 23.1502 35.5764 23.0749 35.3806C23.012 35.2161 23.1346 34.9282 23.2647 34.8437C24.0688 34.875 24.3965 34.8753 24.3965 34.8753C24.5093 34.8753 24.6008 34.7838 24.6008 34.671C24.6008 34.5582 24.5093 34.4667 24.3965 34.4667C24.3931 34.4667 24.0541 34.4667 23.2129 34.4326C23.0677 34.4267 22.8157 34.3917 22.7615 34.2203C22.7211 34.0931 22.7924 33.9096 22.9206 33.8117C23.0319 33.7255 23.4067 33.8202 23.773 33.9782C23.8893 34.0515 24.0103 34.1106 24.1276 34.1495C24.227 34.1851 24.3369 34.1346 24.3792 34.0378C24.4218 33.9409 24.3835 33.8282 24.2908 33.7771C24.2182 33.7367 24.0995 33.6744 23.9565 33.6106C23.7187 33.4494 23.5303 33.2185 23.5156 33.0381C23.5104 32.9732 23.5234 32.8881 23.6744 32.8088C23.8056 32.7401 23.8995 32.8146 24.1801 33.1254C24.506 33.4867 24.951 33.9772 25.7571 33.8512C27.3268 33.5969 28.4315 29.6208 28.4419 29.5808C28.5214 29.2759 28.4959 29.0099 28.3655 28.7901C28.2902 28.6631 28.1934 28.5806 28.1009 28.5175C28.8716 28.2401 29.7404 28.1453 30.6324 28.4543C30.5306 28.6416 30.4129 28.9455 30.4687 29.2914ZM31.8416 28.6214L32.5401 27.6463C32.7946 27.7892 33.0336 27.9392 33.2581 28.0942L32.362 29.0202C32.2924 28.966 32.2248 28.9193 32.1543 28.8609C32.0512 28.7757 31.947 28.6958 31.8416 28.6214ZM33.5929 29.8166L34.4903 29.1017C34.6632 29.2686 34.8208 29.4318 34.9601 29.5858L34.2344 30.1016C34.0306 30.0254 33.8166 29.9309 33.5929 29.8166ZM33.2028 29.6052C33.0355 29.5058 32.864 29.3945 32.6885 29.2705L33.5933 28.3355C33.8059 28.4964 34.0053 28.6592 34.1872 28.8208L33.2028 29.6052ZM34.7206 30.2573L35.228 29.8966C35.3944 30.0971 35.529 30.2751 35.6261 30.412C35.3737 30.3971 35.0658 30.3498 34.7206 30.2573ZM38.9614 23.3243C38.6004 25.7414 36.6635 26.5427 36.0867 26.7296C35.6019 25.639 34.7981 24.7215 34.2632 24.4442C34.1638 24.3932 34.04 24.4319 33.9879 24.5315C33.936 24.6321 33.9752 24.7551 34.0754 24.8072C34.4829 25.0185 35.3081 25.8777 35.7847 27.0519C36.2989 28.3187 37.1212 29.0371 38.2282 29.1871C38.4509 29.217 38.6039 29.3073 38.6964 29.4628C38.832 29.6916 38.8252 30.0353 38.7754 30.3375C38.5147 30.172 38.0903 30.1188 37.8592 30.296C37.715 30.4061 37.6737 30.5812 37.7485 30.7641C37.7991 30.8881 37.8224 31.3329 37.8451 31.7634C37.9103 33.009 37.9931 33.9885 38.4022 34.3199C38.5203 34.4157 38.6627 34.4551 38.8097 34.4301C39.6174 34.3023 39.9122 34.4737 40.1045 34.7711C40.1162 34.7891 40.1517 34.8439 40.0561 34.9457C39.9109 35.0989 39.6062 35.1887 39.4012 35.0728C38.9178 34.7961 38.5786 34.9127 38.0176 35.1058C37.9194 35.1393 37.812 35.1761 37.6935 35.2149C37.1364 35.3948 36.5619 35.3054 36.0995 35.233C35.9639 35.2122 35.8403 35.1931 35.7327 35.183C35.4693 35.158 35.2294 35.2889 34.9972 35.4161C34.716 35.5699 34.4505 35.7173 34.1376 35.622C33.9924 35.5784 33.9452 35.5055 33.9221 35.454C33.8534 35.3004 33.9042 35.0776 33.9531 34.9359C34.1283 34.9051 34.2858 34.9108 34.4593 34.9289C34.7094 34.9539 34.9939 34.9838 35.3526 34.8517C35.4586 34.813 35.5126 34.6953 35.4736 34.5894C35.4345 34.4835 35.3177 34.4309 35.211 34.4686C34.9415 34.567 34.7367 34.5474 34.5013 34.5224C34.2866 34.5007 34.0444 34.4762 33.7534 34.5533C33.709 34.565 33.642 34.572 33.5906 34.4889C33.523 34.3804 33.526 34.1798 33.6644 34.0234C33.7708 33.9026 33.9769 33.9064 34.1674 33.9468C34.274 34.0063 34.4098 34.0553 34.5851 34.0888C34.6851 34.1099 34.7843 34.05 34.8171 33.9536C34.8498 33.8567 34.8062 33.7509 34.7149 33.7051C34.6995 33.6976 34.5389 33.6188 34.3246 33.5646C34.2118 33.4827 34.1716 33.3672 34.1112 33.1942L34.0657 33.0671C34.0386 32.9946 34.0038 32.9399 33.9657 32.8984C34.0639 32.8558 34.1599 32.8367 34.2533 32.8426C34.4635 32.8569 34.6513 32.9996 34.8114 33.2672C35.3416 34.1504 36.2209 34.1605 36.2581 34.1605C36.3431 34.1605 36.4191 34.1078 36.4491 34.0285C37.1098 32.2823 36.2265 30.594 36.1885 30.5228C36.1878 30.5218 36.1867 30.5211 36.1861 30.5199C36.1855 30.5189 36.1858 30.5179 36.1852 30.5169C36.1068 30.3812 34.2211 27.1936 30.2286 26.3333C27.3525 25.7113 23.8772 27.3342 23.7306 27.4038C23.696 27.4197 23.667 27.4453 23.6462 27.4771C23.2328 28.1161 22.5435 29.8118 23.0516 30.9733C23.2247 31.3692 23.266 31.682 23.174 31.9039C23.1123 32.0524 22.992 32.1716 22.7875 32.2817C22.7602 32.0264 22.6721 31.6938 22.4092 31.5491C22.1522 31.4087 21.818 31.4868 21.4154 31.7827C20.4621 32.4835 19.1022 34.1387 19.2262 34.8554C19.2565 35.0314 19.3669 35.1565 19.5366 35.2076C19.7008 35.2565 19.903 35.2985 20.1157 35.3422C20.5366 35.4289 21.033 35.5305 21.2532 35.713C20.6589 35.6369 19.5075 35.5315 19.0524 35.7869C18.5156 36.0891 17.5927 36.2817 16.9502 36.0492C16.7166 35.9518 16.1937 35.8746 15.8896 36.2865C15.7762 36.4403 15.5983 36.4823 15.4833 36.4435C15.3498 36.3999 15.3218 36.261 15.3218 36.1525C15.3218 35.6785 15.7781 35.6418 15.9177 35.6418C16.0305 35.6418 16.122 35.5503 16.122 35.4375C16.122 35.3247 16.0305 35.2332 15.9177 35.2332C15.6048 35.2332 15.3473 35.3351 15.1706 35.5086C15.0073 35.4232 14.9018 35.3223 14.8635 35.2059C14.8112 35.0469 14.8864 34.8819 14.9362 34.7978C15.0308 34.6371 15.1983 34.5517 15.3008 34.5103C15.5327 34.7282 15.8027 34.8842 15.9381 34.9435C16.0403 34.9877 16.1613 34.9414 16.2073 34.8382C16.2525 34.7349 16.2051 34.6141 16.1019 34.569C15.8284 34.4493 15.328 34.0801 15.3043 33.7704C15.2956 33.657 15.4001 33.5708 15.5081 33.5437C15.5861 33.524 15.7824 33.5086 15.9005 33.7815C16.1992 34.4727 17.1707 34.959 17.212 34.9792C17.2408 34.9935 17.2716 35.0006 17.3025 35.0006C17.3523 35.0006 17.4012 34.9825 17.4398 34.9478C17.5262 34.869 19.5611 32.9898 19.5729 29.9156C19.5799 28.0572 19.8383 26.8979 19.9343 26.5292C20.2954 26.5118 21.2186 26.4007 22.0476 25.7649C22.2875 26.19 22.8965 27.0152 24.0173 27.0435C24.019 27.0435 24.0207 27.0435 24.0224 27.0435C24.0957 27.0435 24.1637 27.0036 24.2001 26.9396C24.2374 26.8737 24.2353 26.7928 24.1948 26.7295C24.1908 26.7231 23.877 26.2209 23.9485 25.7878C24.2061 26.0363 24.675 26.3725 25.3434 26.3965H25.3435H25.3436C25.3459 26.3965 25.3484 26.3965 25.3508 26.3965C25.3861 26.3965 25.4179 26.385 25.4471 26.3687C25.4604 26.3613 25.4721 26.3557 25.4832 26.3452C25.5094 26.3226 25.5284 26.2936 25.5405 26.2601C25.5416 26.2569 25.5448 26.2555 25.5458 26.2521C25.5485 26.2431 25.8313 25.353 26.6382 24.9363C27.1535 24.6697 27.7749 24.6532 28.4876 24.888C28.5052 24.8937 28.5229 24.8935 28.5404 24.8943C28.5444 24.8945 28.5475 24.8981 28.5515 24.8981C28.5546 24.8981 28.5578 24.8971 28.5609 24.8969C28.5662 24.8967 28.5712 24.8955 28.5765 24.8948C28.5856 24.8938 28.5945 24.8938 28.6036 24.8913C28.6099 24.8896 28.6144 24.8853 28.6204 24.883C28.6339 24.878 28.6461 24.872 28.6582 24.8644C28.6689 24.8577 28.6787 24.8508 28.6878 24.8424C28.6975 24.8337 28.7055 24.8238 28.7134 24.8133C28.7213 24.8026 28.7281 24.792 28.7339 24.78C28.7366 24.7745 28.7411 24.7705 28.7433 24.7646C28.7704 24.6902 29.1931 23.5868 30.2468 22.9356C30.2506 22.9363 30.2535 22.9387 30.2574 22.939C30.2827 22.9417 32.8004 23.2204 34.1938 23.9009C34.6187 24.1084 35.1372 24.2111 35.6504 24.2111C36.2298 24.2111 36.802 24.0802 37.2231 23.8223C37.6828 23.5408 37.9301 23.1365 37.9382 22.6544C37.955 21.6658 37.3465 20.905 36.7655 20.6916C36.4011 20.5581 36.0501 20.6384 35.8283 20.9092C35.5521 21.2455 35.5684 21.6812 35.8671 21.9456C36.177 22.2202 36.7495 22.2638 37.3223 21.7572C37.3892 21.8873 37.4429 22.031 37.479 22.1844C36.8329 22.631 36.2302 22.7798 35.7381 22.6139C35.2706 22.4564 34.9919 22.0515 34.8866 21.7253C34.8039 21.4693 34.8504 21.1512 35.0138 20.8532C35.2436 20.4339 35.6624 20.1185 36.1625 19.9882C36.684 19.8515 37.5392 19.9691 38.1851 20.5489C38.6639 20.9796 39.1878 21.8101 38.9614 23.3243ZM37.0907 21.4152C36.6893 21.7931 36.3198 21.8016 36.1375 21.6398C36.0034 21.5212 36.0058 21.336 36.1436 21.169C36.2253 21.0695 36.3264 21.0359 36.4246 21.0359C36.4954 21.0359 36.5648 21.0535 36.6244 21.0753C36.7861 21.1349 36.9486 21.253 37.0907 21.4152Z"
            fill="#464655" />
    </g>
    <defs>
        <clipPath id="clip0_9_809">
            <rect width="50" height="50" fill="white" transform="translate(0.882812 0.32373)" />
        </clipPath>
    </defs>
</svg>
