<svg width="51" height="51" viewBox="0 0 51 51" fill="none" xmlns="http://www.w3.org/2000/svg">
    <g clip-path="url(#clip0_9_797)">
        <path
            d="M49.742 8.94446H1.46654C0.990464 8.94446 0.604431 9.33039 0.604431 9.80646V40.8408C0.604431 41.3168 0.990464 41.7029 1.46654 41.7029H49.7421C50.2182 41.7029 50.6042 41.3168 50.6042 40.8408V9.80646C50.6041 9.33039 50.2181 8.94446 49.742 8.94446Z"
            fill="#73AF00" />
        <path d="M38.5353 20.1509H32.5009V41.7025H38.5353V20.1509Z" fill="#FF4B55" />
        <path d="M44.5694 20.1509H38.5349V41.7025H44.5694V20.1509Z" fill="#464655" />
        <path d="M50.6033 20.1509H44.5688V41.7025H50.6033V20.1509Z" fill="#FF9B55" />
        <path
            d="M49.1344 12.9076C49.1532 12.8698 49.1442 12.8241 49.1125 12.7961C49.0807 12.7681 49.0342 12.7652 48.9992 12.7884C48.8249 12.9041 48.6491 13.0093 48.4748 13.1047C49.0359 12.641 49.1145 12.2382 49.1196 12.2089C49.1259 12.1721 49.1095 12.135 49.0782 12.1148C49.0466 12.0944 49.0062 12.095 48.9752 12.116C48.3691 12.5271 47.7625 12.8206 47.2394 13.0271C47.9419 12.5832 48.2203 12.1304 48.2373 12.1018C48.2592 12.0651 48.2533 12.0181 48.223 11.9879C48.1927 11.9577 48.1458 11.9521 48.109 11.9741C47.5482 12.3122 46.884 12.5787 46.2491 12.784C46.3334 12.654 46.3934 12.5079 46.3395 12.4257C46.2894 12.3497 46.198 12.3497 46.0675 12.426C45.8032 12.5809 43.8008 13.0914 43.0248 13.2815C42.234 13.1386 41.5787 13.3413 41.3745 13.4162C41.3201 13.3514 41.2953 13.2887 41.2849 13.2397C41.2679 13.1599 41.2803 13.0789 41.318 13.0227C41.3795 12.9312 41.5066 12.9224 41.6188 12.9147C41.6677 12.9114 41.7112 12.9083 41.7493 12.8988C41.7737 12.906 41.8036 12.9201 41.8031 12.931C41.8009 12.9736 41.8277 13.0121 41.8684 13.0248C41.9091 13.0375 41.9529 13.0213 41.9755 12.9851C41.9812 12.9759 42.1131 12.76 42.0109 12.5761C41.9366 12.4424 41.766 12.3721 41.5037 12.367C41.3961 12.2919 40.9894 12.0474 40.4882 12.2364C39.9806 12.4279 39.7553 12.9492 39.6808 13.1695C39.2858 13.1146 37.4721 12.8378 36.4861 12.259C36.4381 12.2373 36.2745 12.173 36.1831 12.2601C36.127 12.3133 36.1204 12.3959 36.1634 12.5058C36.1863 12.564 36.2213 12.6208 36.2678 12.6767C35.74 12.4344 35.0285 12.096 34.4907 11.7952C34.4065 11.7562 34.2539 11.7033 34.175 11.7858C34.1257 11.8377 34.1264 11.9131 34.1773 12.0102C34.188 12.0307 34.1987 12.0536 34.2102 12.0787C34.2625 12.1915 34.3339 12.3453 34.5083 12.5228C34.378 12.4516 34.2605 12.3784 34.1664 12.3051C33.6943 11.9378 33.6303 11.9019 33.5458 11.9589C33.4729 12.008 33.4964 12.0909 33.5213 12.1787L33.5279 12.2018C33.5484 12.2748 33.5819 12.3923 33.6736 12.5341C33.6004 12.4843 33.5375 12.4742 33.488 12.5087C33.4585 12.5291 33.4141 12.5799 33.4483 12.6918C33.5304 12.9595 34.0977 13.6643 35.177 13.8718C35.0685 13.8876 34.9543 13.8994 34.8443 13.9016C34.8025 13.9025 34.7663 13.9311 34.7558 13.9716C34.7455 14.0121 34.7633 14.0548 34.7996 14.0756C34.8194 14.087 35.2008 14.3004 35.9002 14.2825C35.7956 14.3088 35.677 14.3291 35.5457 14.337C35.5049 14.3394 35.4704 14.3681 35.4607 14.4078C35.4509 14.4474 35.4681 14.4888 35.5031 14.5099C35.5239 14.5225 35.9297 14.7612 36.5581 14.7259L36.5034 14.7596C36.4718 14.779 36.4547 14.8151 36.4598 14.8517C36.4649 14.8883 36.491 14.9186 36.5266 14.9287C36.5462 14.9343 36.9004 15.0329 37.3416 14.9863L37.2641 15.0414C37.2329 15.0636 37.2184 15.1026 37.2276 15.1396C37.2367 15.1767 37.2674 15.2045 37.3053 15.2098C37.3133 15.211 37.3703 15.2183 37.4617 15.2183C37.522 15.2183 37.5972 15.215 37.6829 15.2045C37.681 15.2268 37.6836 15.249 37.6909 15.271C37.7351 15.4039 37.9308 15.4361 37.9959 15.4369C37.9999 15.437 38.0038 15.437 38.0077 15.437C38.0865 15.437 38.1698 15.4259 38.2547 15.409C38.3907 15.5361 38.6391 15.5244 38.88 15.4684C38.8657 15.4901 38.8549 15.5117 38.8481 15.5331C38.8342 15.5772 38.8447 15.6221 38.8763 15.6535C38.9069 15.6839 38.9809 15.7575 39.6543 15.568C39.6515 15.5701 39.6487 15.5723 39.6459 15.5744C39.5564 15.6438 39.562 15.7154 39.5734 15.7519C39.6148 15.8843 39.9118 15.9692 40.4509 16.0053C40.4628 16.3051 40.3796 16.6307 40.3786 16.6343C40.3692 16.6701 40.382 16.7082 40.4112 16.7312C40.4403 16.7539 40.4803 16.7574 40.5131 16.74C40.5442 16.7232 40.5753 16.7015 40.6046 16.6781L40.6021 16.7773C40.6011 16.8133 40.6209 16.8466 40.6529 16.8628C40.6664 16.8697 40.6809 16.873 40.6953 16.873C40.699 16.873 40.7024 16.8717 40.7061 16.8712C40.696 16.9557 40.6617 17.0566 40.5535 17.0803C40.5044 17.091 40.4523 17.0963 40.4019 17.1015C40.1724 17.125 39.9123 17.1517 39.8712 17.6776C39.8681 17.717 39.8902 17.7542 39.9265 17.7702C39.9626 17.7861 40.0049 17.7777 40.0321 17.7489L40.132 17.6427C40.1908 17.6571 40.2845 17.672 40.3848 17.6558C40.3596 17.7775 40.367 17.9273 40.4888 18.0543C40.5151 18.0818 40.5556 18.0904 40.5909 18.0763C40.6263 18.062 40.6494 18.0278 40.6494 17.9898V17.9224C40.7073 17.9089 40.7842 17.8808 40.8568 17.823C40.8994 17.9149 40.9807 18.0227 41.1354 18.1137C41.15 18.1223 41.1664 18.1265 41.1826 18.1265C41.204 18.1265 41.2252 18.1192 41.2422 18.1049C41.2725 18.0798 41.2837 18.0383 41.2702 18.0012L41.2215 17.8672C41.2555 17.8337 41.2996 17.7858 41.3382 17.7346C41.3572 17.7623 41.3893 17.7782 41.4234 17.7749C41.4589 17.7715 41.4894 17.7482 41.5019 17.7148L41.5361 17.6235C41.5563 17.6179 41.5757 17.6112 41.5941 17.6036C41.6171 17.8057 41.7725 17.9738 41.7818 17.9838C41.7997 18.0027 41.8244 18.0132 41.8498 18.0132C41.8573 18.0132 41.865 18.0123 41.8726 18.0104C41.9055 18.0021 41.9312 17.9768 41.94 17.9441L41.992 17.7501C42.1297 17.6803 42.1432 17.554 42.1516 17.4753C42.1532 17.4599 42.1556 17.4385 42.156 17.4277C42.2098 17.4541 42.3238 17.5822 42.4099 17.7152C42.4269 17.7415 42.4563 17.7577 42.4878 17.7578C42.5198 17.7556 42.5486 17.7423 42.5661 17.716C42.5661 17.716 42.639 17.6057 42.6744 17.5413C42.8248 17.2684 42.597 17.1049 42.4875 17.0264C42.4606 17.0071 42.4238 16.9807 42.4179 16.9734C42.3973 16.9234 42.4045 16.8768 42.4181 16.8406C42.5094 16.9035 42.6131 16.9566 42.7281 16.9836C42.7352 16.9854 42.7424 16.9861 42.7494 16.9861C42.7794 16.9861 42.8081 16.9715 42.8258 16.9462C42.8476 16.915 42.8483 16.8735 42.8274 16.8416C42.8254 16.8384 42.6538 16.5745 42.5433 16.25C42.7218 16.3548 42.9635 16.4813 43.0889 16.4813C43.1749 16.4813 43.2077 16.4278 43.218 16.4048C43.2239 16.3913 43.2347 16.3669 43.2262 16.3212C43.3921 16.4109 43.5793 16.4804 43.7216 16.4437C43.7636 16.4329 43.8621 16.4074 43.877 16.3191C43.8846 16.2743 43.8695 16.2381 43.8365 16.2025C43.9906 16.2399 44.1567 16.2585 44.3197 16.2369C44.4555 16.2191 44.4957 16.1532 44.5053 16.1009C44.5114 16.0675 44.5223 16.0033 44.4012 15.8821C44.6352 15.8693 44.8442 15.8181 44.8614 15.6769C44.8629 15.6642 44.8605 15.6527 44.8595 15.6408C45.6118 15.5587 46.1842 15.0882 46.2095 15.067C46.2169 15.0609 46.2218 15.0533 46.2268 15.0455C46.6823 14.9886 47.1997 14.8858 47.6185 14.6975C48.4089 14.3421 48.8092 13.8623 48.7376 13.6882C48.7168 13.6375 48.657 13.6009 48.5833 13.6285C48.5626 13.6362 48.5207 13.6532 48.4658 13.6754C48.9338 13.2953 49.1169 12.9427 49.1344 12.9076Z"
            fill="#FF9B55" />
        <path
            d="M49.1345 12.9076C49.1533 12.8698 49.1443 12.8241 49.1127 12.7961C49.0808 12.7681 49.0343 12.7652 48.9993 12.7884C48.825 12.9042 48.6491 13.0093 48.4749 13.1047C49.036 12.641 49.1147 12.2382 49.1197 12.2089C49.126 12.1721 49.1096 12.1349 49.0783 12.1148C49.0468 12.0944 49.0063 12.0949 48.9754 12.116C48.3692 12.5271 47.7626 12.8205 47.2395 13.0271C47.9421 12.5832 48.2204 12.1305 48.2374 12.1019C48.2594 12.0652 48.2534 12.0182 48.2231 11.9879C48.1929 11.9577 48.1459 11.9521 48.1092 11.9742C47.5483 12.3123 46.8841 12.5788 46.2492 12.7842C46.3335 12.6541 46.3935 12.508 46.3396 12.4259C46.2895 12.3498 46.1981 12.3497 46.0676 12.4262C45.8033 12.5811 43.8009 13.0915 43.025 13.2817C42.2342 13.1388 41.5789 13.3414 41.3747 13.4163C41.3204 13.3516 41.2955 13.2889 41.285 13.24C41.268 13.1602 41.2804 13.0791 41.3181 13.023C41.3796 12.9315 41.5068 12.9228 41.619 12.915C41.6677 12.9117 41.7113 12.9086 41.7494 12.8992C41.7738 12.9063 41.8037 12.9205 41.8033 12.9313C41.8011 12.9739 41.828 13.0123 41.8686 13.0251C41.9093 13.0378 41.9531 13.0216 41.9758 12.9854C41.9816 12.9763 42.1133 12.7603 42.0112 12.5764C41.9369 12.4427 41.7664 12.3724 41.5039 12.3673C41.3962 12.2922 40.9896 12.0477 40.4884 12.2367C39.9809 12.4281 39.7555 12.9495 39.681 13.1698C39.286 13.1149 37.4723 12.8381 36.4863 12.2593C36.4384 12.2375 36.2749 12.1735 36.1834 12.2604C36.1272 12.3136 36.1207 12.3962 36.1636 12.5061C36.1865 12.5643 36.2215 12.6211 36.268 12.677C35.7402 12.4347 35.0288 12.0963 34.4908 11.7955C34.4067 11.7565 34.254 11.7035 34.1753 11.7861C34.1259 11.838 34.1265 11.9135 34.1775 12.0105C34.1883 12.031 34.1988 12.0539 34.2104 12.079C34.2628 12.1917 34.3341 12.3456 34.5086 12.5233C34.3783 12.4521 34.2607 12.3789 34.1666 12.3056C33.6945 11.9383 33.6304 11.9024 33.546 11.9594C33.4731 12.0085 33.4967 12.0914 33.5216 12.1791L33.5281 12.2023C33.5486 12.2752 33.582 12.3928 33.6738 12.5346C33.6007 12.4848 33.5378 12.4747 33.4883 12.5092C33.4588 12.5294 33.4143 12.5804 33.4486 12.6923C33.5306 12.96 34.098 13.6646 35.1773 13.8723C35.0688 13.8881 34.9548 13.8998 34.8446 13.9021C34.8027 13.903 34.7665 13.9316 34.7561 13.9721C34.7458 14.0126 34.7636 14.0552 34.8 14.0761C34.8197 14.0874 35.2011 14.3009 35.9005 14.2827C35.796 14.3091 35.6773 14.3295 35.546 14.3372C35.5052 14.3396 35.4707 14.3684 35.4609 14.408C35.4511 14.4477 35.4683 14.4891 35.5034 14.5102C35.5242 14.5228 35.93 14.7616 36.5585 14.7262L36.5037 14.7599C36.4722 14.7793 36.455 14.8154 36.4601 14.852C36.4652 14.8886 36.4915 14.9189 36.5269 14.929C36.5465 14.9346 36.9007 15.0331 37.3419 14.9866L37.2644 15.0417C37.2333 15.0639 37.2187 15.1029 37.2279 15.14C37.237 15.1771 37.2677 15.2049 37.3056 15.2101C37.3136 15.2113 37.3708 15.2187 37.4622 15.2187C37.5224 15.2187 37.5976 15.2154 37.6833 15.2049C37.6814 15.2272 37.684 15.2494 37.6914 15.2714C37.7355 15.4043 37.9312 15.4365 37.9963 15.4373C38.0003 15.4373 38.0042 15.4373 38.0082 15.4373C38.087 15.4373 38.1701 15.4262 38.2551 15.4093C38.3912 15.5364 38.6395 15.5247 38.8804 15.4687C38.8662 15.4904 38.8553 15.512 38.8484 15.5335C38.8345 15.5776 38.8451 15.6225 38.8766 15.6539C38.9074 15.6843 38.9812 15.7577 39.6547 15.5684C39.6519 15.5706 39.6492 15.5727 39.6463 15.5749C39.5568 15.6443 39.5624 15.7158 39.5739 15.7524C39.6152 15.8848 39.9122 15.9697 40.4513 16.0058C40.4632 16.3056 40.3798 16.6312 40.379 16.6348C40.3697 16.6706 40.3825 16.7087 40.4117 16.7317C40.4408 16.7544 40.4807 16.7579 40.5135 16.7404C40.5448 16.7237 40.5757 16.702 40.605 16.6786L40.6025 16.7777C40.6015 16.8137 40.6213 16.847 40.6534 16.8632C40.6669 16.87 40.6813 16.8734 40.6958 16.8734C40.6995 16.8734 40.703 16.872 40.7066 16.8715C40.6965 16.956 40.6622 17.0569 40.5538 17.0806C40.5047 17.0913 40.4527 17.0966 40.4022 17.1018C40.1727 17.1253 39.9126 17.152 39.8715 17.6779C39.8685 17.7174 39.8906 17.7544 39.9268 17.7705C39.9628 17.7862 40.0052 17.7779 40.0324 17.7492L40.1323 17.643C40.1909 17.6574 40.2848 17.6722 40.385 17.6561C40.3598 17.7777 40.3672 17.9276 40.489 18.0546C40.5154 18.082 40.5558 18.0907 40.5911 18.0766C40.6265 18.0623 40.6495 18.028 40.6495 17.9901V17.9227C40.7074 17.9092 40.7843 17.8811 40.857 17.8233C40.8995 17.9151 40.9808 18.0231 41.1355 18.114C41.1501 18.1226 41.1665 18.1269 41.1827 18.1269C41.204 18.1269 41.2253 18.1195 41.2424 18.1053C41.2727 18.0802 41.2839 18.0387 41.2704 18.0018L41.2217 17.8677C41.2557 17.8342 41.2999 17.7863 41.3384 17.7352C41.3574 17.7629 41.3895 17.7788 41.4237 17.7755C41.4592 17.7721 41.4896 17.7487 41.5022 17.7153L41.5364 17.624C41.5567 17.6185 41.576 17.6117 41.5945 17.6042C41.6174 17.8063 41.7728 17.9744 41.7821 17.9844C41.8 18.0034 41.8247 18.0138 41.85 18.0138C41.8576 18.0138 41.8653 18.0129 41.8728 18.0109C41.9057 18.0026 41.9314 17.9774 41.9402 17.9446L41.9921 17.7507C42.1298 17.681 42.1433 17.5546 42.1517 17.4759C42.1533 17.4605 42.1557 17.4391 42.1561 17.4282C42.2099 17.4547 42.3239 17.5828 42.41 17.7157C42.4271 17.7421 42.4565 17.7583 42.4879 17.7584C42.5199 17.7562 42.5487 17.7428 42.5662 17.7165C42.5662 17.7165 42.6391 17.6063 42.6745 17.5418C42.8249 17.2689 42.5971 17.1054 42.4876 17.0269C42.4608 17.0075 42.4239 16.9812 42.418 16.9738C42.3975 16.9238 42.4046 16.8773 42.4181 16.8411C42.5094 16.904 42.6132 16.957 42.7281 16.9841C42.7353 16.9859 42.7424 16.9865 42.7494 16.9865C42.7794 16.9865 42.8081 16.972 42.8258 16.9467C42.8478 16.9154 42.8484 16.8739 42.8275 16.8421C42.8254 16.8389 42.6538 16.575 42.5433 16.2505C42.722 16.3551 42.9635 16.4818 43.0889 16.4818C43.1749 16.4818 43.2077 16.4282 43.2179 16.4053C43.2239 16.3918 43.2346 16.3674 43.2261 16.3217C43.3921 16.4114 43.5792 16.4809 43.7215 16.4442C43.7635 16.4333 43.862 16.4078 43.877 16.3196C43.8845 16.2747 43.8694 16.2387 43.8364 16.203C43.9905 16.2404 44.1566 16.259 44.3195 16.2374C44.4554 16.2195 44.4955 16.1536 44.5052 16.1014C44.5113 16.068 44.5223 16.0038 44.4011 15.8825C44.6352 15.8697 44.8441 15.8186 44.8613 15.6774C44.863 15.6647 44.8605 15.6532 44.8594 15.6412C45.6117 15.5592 46.1842 15.0887 46.2095 15.0675C46.2168 15.0614 46.2218 15.0537 46.2268 15.046C46.6822 14.9892 47.1996 14.8864 47.6184 14.6981C48.4089 14.3427 48.8092 13.8629 48.7375 13.6888C48.7167 13.6381 48.6569 13.6014 48.5832 13.629C48.5626 13.6368 48.5206 13.6537 48.4658 13.6761C48.934 13.2953 49.1171 12.9427 49.1345 12.9076ZM47.7606 12.378C47.4171 12.7141 46.7698 13.1975 45.7023 13.478C45.6931 13.4804 45.6851 13.4852 45.6773 13.4901C45.4529 13.4726 45.1691 13.4317 44.9203 13.3387C45.7092 13.1598 46.8175 12.8516 47.7606 12.378ZM43.0107 13.4686C43.0238 13.4709 43.0371 13.4706 43.05 13.4675C43.161 13.4404 45.7306 12.8102 46.1431 12.5974C46.0951 12.6919 46.003 12.8244 45.9276 12.8796C45.9255 12.8811 45.9245 12.8835 45.9226 12.8852C44.8161 13.2136 43.8772 13.3521 43.8617 13.3542C43.8108 13.3616 43.7753 13.4088 43.7826 13.4598C43.79 13.5108 43.837 13.5461 43.8882 13.5389C43.8967 13.5376 44.1818 13.4957 44.6196 13.4043C44.8463 13.5343 45.1249 13.606 45.3786 13.6448C44.9996 13.6768 44.6488 13.6584 44.6431 13.6581C44.5989 13.6565 44.5559 13.6872 44.5466 13.7325C44.5373 13.7777 44.5624 13.823 44.6059 13.8388L44.9587 13.9681C44.4626 14.0737 43.9843 13.9745 43.9786 13.9734C43.9403 13.9649 43.9014 13.9816 43.8805 14.0143C43.8596 14.047 43.861 14.0894 43.8844 14.1204C43.9518 14.2103 44.1418 14.3047 44.3076 14.3743C43.6256 14.5034 43.1563 14.0854 43.1341 14.0653C43.0962 14.0307 43.0374 14.0331 43.0027 14.0708C42.968 14.1085 42.97 14.1671 43.0073 14.2022C43.5461 14.7064 44.5502 14.9211 45.0009 14.995C44.9342 15.0345 44.8537 15.0717 44.7694 15.0867C44.4235 15.1482 43.6249 14.7683 43.063 14.461L42.613 14.2013C42.569 14.1757 42.5123 14.1906 42.4862 14.2343C42.4601 14.2782 42.474 14.3349 42.5175 14.3616C42.5391 14.3748 42.7155 14.4828 42.9663 14.6206L44.0615 15.2528C43.7255 15.2943 43.371 15.2191 43.3666 15.2181C43.3639 15.2175 43.3613 15.2183 43.3586 15.218C43.1023 15.0377 42.6886 14.7342 42.0675 14.2192C41.9675 13.8623 41.7802 13.7056 41.5457 13.5567C41.8109 13.4753 42.3698 13.3484 43.0107 13.4686ZM43.6876 15.4465C43.687 15.4467 43.6866 15.4472 43.6859 15.4474C43.6859 15.4474 43.6851 15.4467 43.6847 15.4464C43.6857 15.4464 43.6867 15.4465 43.6876 15.4465ZM37.6114 15.0235L37.8248 14.8716C37.8626 14.8447 37.8749 14.7938 37.8535 14.7526C37.8319 14.7112 37.7831 14.6923 37.7393 14.7077C37.3869 14.8336 37.0299 14.8208 36.8066 14.7921L37.0537 14.6401C37.093 14.6159 37.1087 14.5664 37.0905 14.5239C37.0724 14.4814 37.0259 14.4586 36.981 14.4703C36.5313 14.5884 36.1568 14.5394 35.9116 14.4717C36.3013 14.3807 36.5276 14.2082 36.5396 14.1991C36.5737 14.1727 36.5852 14.1263 36.5675 14.0869C36.5498 14.0477 36.5076 14.0261 36.4652 14.0336C35.9514 14.1304 35.5547 14.0985 35.2883 14.0434C35.5635 13.9972 35.7823 13.9315 35.7959 13.9274C35.7975 13.927 35.7986 13.9256 35.8001 13.9251C35.8064 13.9229 35.8117 13.9193 35.8173 13.9159C35.8221 13.9128 35.8269 13.9104 35.831 13.9067C35.8355 13.9026 35.8386 13.8977 35.8423 13.8928C35.8459 13.888 35.8496 13.8837 35.8521 13.8785C35.8545 13.8734 35.8555 13.8678 35.8571 13.8624C35.8588 13.8561 35.8606 13.8501 35.8611 13.8435C35.8611 13.842 35.862 13.8407 35.862 13.8391C35.862 13.8342 35.86 13.8299 35.8592 13.8252C35.8586 13.8206 35.8593 13.816 35.858 13.8113C35.8576 13.8098 35.8563 13.8088 35.8558 13.8074C35.8536 13.8011 35.8501 13.7958 35.8466 13.7903C35.8436 13.7854 35.8412 13.7803 35.8374 13.7761C35.8334 13.7717 35.8286 13.7686 35.8238 13.765C35.8189 13.7613 35.8145 13.7575 35.809 13.7548C35.8041 13.7525 35.7985 13.7514 35.7931 13.7499C35.7868 13.7481 35.7807 13.7462 35.7741 13.7458C35.7724 13.7457 35.7713 13.7449 35.7697 13.7449C34.5714 13.7336 33.91 13.1033 33.6982 12.7816C34.0716 13.0417 34.5621 13.2625 34.9193 13.3893H34.9196C35.3947 13.5728 35.9869 13.6897 36.012 13.6946C36.0624 13.7043 36.1116 13.6716 36.1214 13.6209C36.1314 13.5703 36.0984 13.5213 36.0478 13.5115C36.0418 13.5103 35.4446 13.3925 34.9842 13.2143C33.9915 12.8301 33.7903 12.414 33.7232 12.2039C33.8305 12.2801 33.9747 12.3923 34.0519 12.4524C34.6331 12.9043 35.9852 13.3318 36.0425 13.3498C36.0916 13.3654 36.1432 13.3384 36.1591 13.2898C36.175 13.2412 36.1489 13.1889 36.1005 13.1724C34.7024 12.6961 34.4924 12.2433 34.3797 12.0001C34.3699 11.979 34.3607 11.9593 34.3516 11.941C34.3705 11.9468 34.3901 11.954 34.406 11.9612C35.1811 12.3949 36.3203 12.9084 36.7508 13.0991C36.6734 13.1364 36.5921 13.1675 36.5383 13.1705C36.5025 13.1726 36.4708 13.195 36.4572 13.2285C36.4435 13.2618 36.4503 13.2999 36.4745 13.3265C36.4802 13.3328 36.5715 13.4307 36.7491 13.4691L36.6231 13.5512C36.5936 13.5705 36.5774 13.6049 36.5814 13.64C36.5855 13.6751 36.6089 13.7049 36.6421 13.717C36.6507 13.7202 36.7947 13.7708 36.9849 13.7909L36.88 13.8673C36.8534 13.8868 36.8391 13.9188 36.8422 13.9516C36.8454 13.9844 36.8656 14.0131 36.8955 14.0272C36.9077 14.0328 37.051 14.098 37.2811 14.0871L37.2732 14.0926C37.2429 14.1139 37.2281 14.1511 37.2353 14.1874C37.2425 14.2238 37.2709 14.2523 37.3071 14.2602C37.3213 14.2632 37.4975 14.2994 37.7502 14.2707L37.6928 14.309C37.6623 14.3292 37.6465 14.3659 37.6525 14.402C37.6585 14.4382 37.6852 14.4675 37.7208 14.4769C37.748 14.4839 38.1562 14.5855 38.6919 14.4156C38.5796 14.4895 38.4749 14.5431 38.3884 14.5625C38.349 14.5715 38.3197 14.6048 38.3161 14.6451C38.3123 14.6855 38.3352 14.7236 38.3724 14.7395C38.3748 14.7406 38.384 14.7441 38.3962 14.7485C38.11 14.9379 37.8173 15.0037 37.6114 15.0235ZM37.16 13.3312C37.1419 13.2895 37.0966 13.2666 37.0523 13.2777C36.9443 13.304 36.8569 13.3014 36.7895 13.2871C36.9001 13.2379 36.9945 13.1792 37.0113 13.1686C37.0181 13.1643 37.0239 13.1591 37.0292 13.1536C37.1952 13.2204 37.3835 13.2845 37.5949 13.3458L37.2368 13.6072C37.1168 13.6199 36.9979 13.6084 36.9031 13.5914L37.1253 13.4465C37.1634 13.4214 37.1781 13.3728 37.16 13.3312ZM37.9982 15.2506C37.9627 15.2502 37.8973 15.2321 37.873 15.2148C37.8791 15.205 37.8947 15.1858 37.9291 15.1584C38.1494 15.102 38.4023 14.995 38.6447 14.7972C38.899 14.8157 39.2989 14.7552 39.7064 14.3457C39.7214 14.373 39.7372 14.4006 39.7555 14.4287C39.7114 14.462 38.6582 15.2565 37.9982 15.2506ZM38.7259 14.6136C39.0276 14.4321 39.3651 14.1163 39.5756 13.9053C39.5788 13.9825 39.5938 14.071 39.6273 14.1682C39.6201 14.1725 39.6125 14.1764 39.6064 14.1828C39.272 14.5355 38.9467 14.6133 38.7259 14.6136ZM40.4783 15.8212C40.1711 15.8002 39.8852 15.7525 39.7807 15.7064C40.0348 15.508 40.1076 15.4205 40.1153 15.4109C40.1409 15.3787 40.1425 15.3335 40.1192 15.2996C40.0956 15.2657 40.0527 15.251 40.0137 15.2639C39.6789 15.3721 39.2878 15.4777 39.0947 15.5048C39.1833 15.4252 39.3411 15.3246 39.4835 15.2533C39.5292 15.2305 39.5481 15.1751 39.5258 15.1292C39.5036 15.0832 39.4485 15.0639 39.4022 15.0855C39.1483 15.2049 38.7848 15.3252 38.5574 15.3234C39.1765 15.1004 39.8077 14.6236 39.8678 14.5776C39.9155 14.6343 39.968 14.692 40.0313 14.7507C40.5884 15.2687 40.5274 15.6751 40.4783 15.8212ZM40.632 16.3901C40.6269 16.3962 40.62 16.4043 40.6116 16.4137C40.6318 16.2756 40.6462 16.1024 40.633 15.9376C40.6843 15.8248 40.7882 15.4905 40.5193 15.0469C40.6966 15.0727 41.1037 15.158 41.2799 15.4143C41.3032 15.4483 41.3265 15.486 41.3494 15.525L41.3492 15.5253C41.3406 15.5459 41.1641 15.9732 41.2204 16.5072C41.1791 16.4586 41.1398 16.399 41.1133 16.3292C41.1008 16.2965 41.0712 16.2734 41.0363 16.2697C41.0018 16.2659 40.9674 16.2819 40.9481 16.3112C40.9087 16.3708 40.8519 16.4527 40.7952 16.5272L40.7972 16.4518C40.7983 16.412 40.774 16.376 40.7366 16.362C40.6995 16.3481 40.6574 16.3592 40.632 16.3901ZM41.2334 17.5513C41.2149 17.6068 41.1154 17.7142 41.0507 17.7725C41.0485 17.7745 41.0462 17.7768 41.0442 17.779C40.9954 17.6985 40.9972 17.6347 40.9973 17.6312C41.0005 17.5875 40.973 17.5476 40.9311 17.5349C40.8891 17.5223 40.8441 17.5405 40.8228 17.5786C40.7374 17.731 40.5876 17.7466 40.5602 17.7484C40.565 17.636 40.6298 17.5338 40.634 17.5276C40.6598 17.4883 40.6524 17.436 40.6166 17.4055C40.5811 17.375 40.5283 17.3756 40.4934 17.4071C40.3565 17.5311 40.139 17.4509 40.137 17.4502C40.1281 17.4468 40.1189 17.4447 40.1096 17.4441C40.1699 17.313 40.2752 17.3023 40.4208 17.2874C40.4764 17.2818 40.5339 17.2758 40.5934 17.2627C40.8805 17.1999 40.9144 16.8825 40.8921 16.7235C40.8914 16.7191 40.8891 16.7154 40.8878 16.7113C40.9327 16.6561 40.9776 16.5955 41.0148 16.5433C41.0329 16.5711 41.0525 16.5962 41.0721 16.6199C41.0727 16.688 41.0765 16.8979 41.1001 17.0083C41.1189 17.096 41.183 17.1551 41.2446 17.193C41.2344 17.2128 41.2258 17.2337 41.2203 17.2564C41.1984 17.3467 41.217 17.446 41.2449 17.5312C41.2406 17.5379 41.2359 17.5438 41.2334 17.5513ZM41.2825 16.9695C41.2736 16.9278 41.268 16.8624 41.2644 16.7966C41.2905 16.8146 41.3088 16.8254 41.3114 16.8268C41.3439 16.8447 41.3841 16.842 41.4136 16.8193C41.443 16.7966 41.4563 16.7586 41.4473 16.7227C41.3488 16.3286 41.4148 15.96 41.4695 15.758C41.6301 16.1111 41.7453 16.5467 41.7055 16.834C41.6993 16.8779 41.7251 16.9201 41.7669 16.9349C41.7756 16.9379 41.7846 16.9389 41.7934 16.9393C41.7924 16.949 41.7914 16.9594 41.7903 16.9685C41.6958 16.9655 41.5404 16.98 41.3897 17.0584C41.3465 17.0403 41.2906 17.0072 41.2825 16.9695ZM42.5111 17.4517C42.5036 17.4652 42.4944 17.4807 42.4847 17.4967C42.3734 17.3492 42.2204 17.1976 42.0896 17.247C41.9841 17.2872 41.9733 17.3887 41.966 17.456C41.9574 17.5371 41.9513 17.5709 41.8836 17.5942C41.8542 17.6042 41.8318 17.6282 41.8237 17.6581L41.8132 17.6969C41.7777 17.6186 41.7588 17.524 41.8118 17.4435C41.839 17.4022 41.8291 17.347 41.7894 17.3175C41.7496 17.2881 41.6937 17.2947 41.662 17.3327C41.6612 17.3337 41.5767 17.4331 41.4538 17.4506C41.4411 17.4525 41.4291 17.4569 41.4185 17.4633C41.4006 17.4063 41.3904 17.3466 41.4016 17.3004C41.4083 17.2729 41.422 17.2541 41.4456 17.2398C41.6324 17.1267 41.8505 17.1588 41.8524 17.1592C41.9016 17.1674 41.9469 17.1362 41.958 17.0885C41.9631 17.0672 42.003 16.8853 41.9738 16.7329L42.0945 16.5302C42.1379 16.5857 42.1966 16.6537 42.2685 16.7207C42.2288 16.7934 42.1902 16.9108 42.2453 17.0446C42.2675 17.0986 42.3191 17.1355 42.3787 17.1781C42.5309 17.2874 42.5712 17.3423 42.5111 17.4517ZM42.1676 16.311C42.1505 16.2829 42.1165 16.2678 42.0874 16.2661C42.0547 16.2662 42.0245 16.2835 42.0076 16.3116L41.8864 16.5154C41.8353 16.1029 41.6409 15.6101 41.4336 15.3084C41.1641 14.9163 40.4976 14.842 40.3719 14.8425C40.3108 14.7683 40.2425 14.6924 40.1582 14.6141C39.605 14.0998 39.7869 13.6888 39.7957 13.6697C39.7965 13.668 39.7963 13.6663 39.797 13.6647C39.7994 13.6586 39.8005 13.6526 39.8016 13.6463C39.8027 13.6407 39.804 13.6351 39.804 13.6293C39.804 13.6234 39.8027 13.6179 39.8017 13.612C39.8005 13.6061 39.7996 13.6003 39.7975 13.5946C39.7953 13.5894 39.7922 13.585 39.7891 13.5801C39.7857 13.5745 39.7824 13.5691 39.7776 13.5644C39.7763 13.5631 39.7758 13.5614 39.7744 13.5601C39.7711 13.5571 39.767 13.5559 39.7633 13.5535C39.7595 13.5509 39.7569 13.5473 39.7527 13.5453C39.7509 13.5444 39.7492 13.5446 39.7474 13.5439C39.7413 13.5414 39.7353 13.5402 39.7289 13.539C39.7231 13.5379 39.7176 13.5366 39.7119 13.5366C39.706 13.5366 39.7005 13.5378 39.6947 13.5389C39.6886 13.54 39.6828 13.5409 39.6772 13.5431C39.672 13.5452 39.6675 13.5484 39.6626 13.5514C39.6571 13.5549 39.6516 13.5582 39.6469 13.5629C39.6456 13.5642 39.6439 13.5648 39.6427 13.5661L39.6426 13.5661C39.0096 14.2576 38.3471 14.3399 38.0039 14.3254L38.402 14.0599C38.4802 14.0161 38.5592 13.9641 38.6377 13.9025C38.6772 13.8714 38.685 13.815 38.6557 13.7744C38.6263 13.7337 38.5701 13.7238 38.5285 13.7516L38.3098 13.8973C38.0402 14.0469 37.7796 14.0871 37.5976 14.0928L37.805 13.9474C37.9644 13.8703 38.1383 13.7546 38.3215 13.5841C38.3574 13.5507 38.3614 13.4953 38.3305 13.4572C38.2998 13.4191 38.2449 13.4115 38.2044 13.4394L37.7099 13.7861C37.475 13.8967 37.2826 13.9103 37.1534 13.8985L37.8605 13.3823C37.8896 13.3611 37.9039 13.325 37.8971 13.2897C37.8905 13.2543 37.8641 13.226 37.8294 13.2167C36.6767 12.9099 36.3997 12.5967 36.3372 12.4372C36.3317 12.4233 36.3281 12.4121 36.3259 12.4033C36.3492 12.4068 36.3803 12.4156 36.4004 12.4241C37.5298 13.0877 39.6456 13.3536 39.7351 13.3647C39.7812 13.3693 39.824 13.3415 39.8363 13.297C39.8682 13.1822 40.0527 12.5997 40.5539 12.4106C41.0267 12.2326 41.3989 12.5205 41.4144 12.5326C41.431 12.5458 41.4515 12.5531 41.4727 12.5531C41.6736 12.5531 41.8068 12.5931 41.8476 12.666C41.8607 12.6893 41.8645 12.7161 41.8631 12.7428C41.8305 12.7262 41.7946 12.7151 41.7591 12.7098C41.7431 12.7074 41.7268 12.7092 41.7116 12.7151C41.6933 12.7222 41.6469 12.7254 41.6061 12.7283C41.4745 12.7373 41.2757 12.751 41.1632 12.9183C41.0968 13.017 41.0747 13.1483 41.1026 13.2784C41.1199 13.3595 41.1634 13.4656 41.2625 13.5691C41.2723 13.5884 41.2878 13.6025 41.3063 13.6111C41.3403 13.6412 41.3781 13.671 41.4234 13.6994C41.6435 13.8369 41.805 13.964 41.8908 14.2754C41.8915 14.2865 41.8944 14.2969 41.8988 14.307C41.934 14.4476 41.955 14.6235 41.9597 14.8524C41.9608 14.9033 42.0024 14.9438 42.0529 14.9438C42.0529 14.9438 42.0542 14.9438 42.0549 14.9438C42.1064 14.9427 42.1473 14.9 42.1463 14.8486C42.1436 14.7203 42.1352 14.6077 42.1226 14.5057C42.8174 15.0733 43.2276 15.3553 43.4334 15.4964C43.4624 15.5163 43.49 15.5352 43.514 15.5521C43.3046 15.5711 42.9731 15.38 42.7138 15.1824C42.6285 15.1054 42.548 15.0418 42.5043 15.0084C42.4647 14.9781 42.4081 14.9843 42.3761 15.0227C42.3441 15.061 42.3479 15.1177 42.3847 15.1514C42.4083 15.173 42.4835 15.2403 42.5892 15.322C42.7113 15.433 42.8057 15.5378 42.8353 15.5982C42.6901 15.5676 42.2917 15.3307 41.9678 15.0994C41.9279 15.0709 41.8729 15.0783 41.8416 15.1159C41.8105 15.1537 41.8138 15.2093 41.8492 15.243C42.0729 15.4553 42.2106 15.6492 42.2982 16.0649C42.3481 16.302 42.4447 16.527 42.5273 16.6901C42.3098 16.5416 42.1695 16.3141 42.1676 16.311ZM44.2951 16.0523C43.8014 16.1171 43.2427 15.7407 43.2371 15.7369C43.1973 15.7098 43.1433 15.7173 43.1128 15.7545C43.0819 15.7916 43.0846 15.8459 43.1187 15.8799C43.2804 16.0416 43.4453 16.1515 43.5656 16.2316C43.5831 16.2432 43.6019 16.2557 43.6198 16.268C43.4403 16.259 43.1284 16.0567 42.9565 15.9158C42.9188 15.8849 42.8634 15.8884 42.8296 15.9239C42.796 15.9594 42.7955 16.0149 42.8284 16.0509C42.8981 16.1272 42.9641 16.2124 43.0041 16.2747C42.8678 16.2249 42.6378 16.0941 42.4717 15.9878C42.4333 15.8176 42.3861 15.6791 42.3278 15.5617C42.8697 15.8845 42.9609 15.7756 42.9952 15.7346C43.0151 15.7107 43.0375 15.6696 43.0307 15.609C43.0307 15.6087 43.0307 15.6083 43.0307 15.6083C43.2519 15.7202 43.489 15.7863 43.6709 15.7012C43.6899 15.6922 43.7174 15.6781 43.7394 15.6555C44.0751 15.8431 44.2508 15.9835 44.3042 16.0509C44.3013 16.0513 44.2982 16.0518 44.2951 16.0523ZM44.1684 15.6978C44.0653 15.6279 43.9334 15.5474 43.76 15.4532C43.7565 15.4513 43.7524 15.4512 43.7487 15.4498C43.7793 15.451 43.8106 15.4519 43.8427 15.4519C43.9323 15.4519 44.0268 15.4457 44.1205 15.4321C44.1276 15.4366 44.1345 15.4417 44.1431 15.4445C44.432 15.5353 44.606 15.6043 44.6616 15.6505C44.5873 15.6827 44.374 15.7037 44.1684 15.6978ZM44.7181 15.4654C44.7181 15.4654 44.717 15.4657 44.7164 15.4657C44.6414 15.422 44.5348 15.3791 44.399 15.3324C44.4039 15.3226 44.4076 15.3121 44.4087 15.3008C44.4109 15.2778 44.4045 15.2552 44.3916 15.2371C44.5501 15.275 44.6918 15.29 44.8023 15.2703C44.9415 15.2455 45.0676 15.177 45.1589 15.1154H45.159C45.2526 15.1154 45.5186 15.112 45.8593 15.084C45.6133 15.2361 45.1937 15.4447 44.7181 15.4654ZM48.4805 13.8714C48.3536 14.0311 48.0653 14.2924 47.5418 14.5278C46.8268 14.8492 45.771 14.9133 45.331 14.9257C45.3303 14.9187 45.3295 14.9117 45.327 14.9049C45.3154 14.8706 45.285 14.8462 45.2489 14.8421C45.2406 14.8412 44.7683 14.7863 44.2429 14.6279C44.5578 14.6576 44.8551 14.6724 45.1332 14.6724C45.9186 14.6724 46.5602 14.5629 47.082 14.3989C47.0848 14.3985 47.0874 14.3991 47.0901 14.3985C47.3776 14.3232 48.0628 14.0425 48.4307 13.8918C48.4482 13.8845 48.4647 13.8778 48.4805 13.8714ZM47.983 13.7823C47.3761 14.1579 46.3177 14.5593 44.6435 14.4697C44.676 14.4539 44.6974 14.4213 44.6966 14.3845C44.6958 14.3451 44.6705 14.3106 44.6332 14.298C44.5583 14.2727 44.4693 14.2392 44.3828 14.203C44.6391 14.2105 44.9727 14.1866 45.2897 14.0644C45.326 14.0504 45.3498 14.0155 45.3494 13.9766C45.3491 13.9377 45.3247 13.9031 45.2882 13.8898L45.1663 13.8452C45.4756 13.8323 45.8548 13.7917 46.1192 13.6804C46.1609 13.6628 46.1839 13.618 46.174 13.574C46.1734 13.5717 46.1721 13.5699 46.1715 13.5676C46.7302 13.4277 47.7589 13.1047 48.8208 12.4394C48.5921 12.8195 47.9277 13.5262 46.0471 13.9706C45.9983 13.9822 45.9673 14.03 45.9769 14.0791C45.9865 14.1284 46.0332 14.1606 46.0825 14.1535C46.0965 14.1514 47.375 13.9506 48.695 13.1951C48.5386 13.369 48.3075 13.5814 47.983 13.7823Z"
            fill="#464655" />
    </g>
    <defs>
        <clipPath id="clip0_9_797">
            <rect width="50" height="50" fill="white" transform="translate(0.603516 0.32373)" />
        </clipPath>
    </defs>
</svg>
