<svg width="51" height="51" viewBox="0 0 51 51" fill="none" xmlns="http://www.w3.org/2000/svg">
    <g clip-path="url(#clip0_9_781)">
        <path
            d="M50.0312 13.6244H0.0312881V9.80657C0.0312881 9.33049 0.417323 8.94446 0.893396 8.94446H49.1692C49.6453 8.94446 50.0313 9.33049 50.0313 9.80657L50.0312 13.6244Z"
            fill="#73AF00" />
        <path d="M50.0312 13.6245H0.0312881V18.3045H50.0312V13.6245Z" fill="#FFE15A" />
        <path d="M50.0312 18.3042H0.0312881V22.9842H50.0312V18.3042Z" fill="#FF4B55" />
        <path
            d="M0.0312881 37.0232H50.0312V40.841C50.0312 41.317 49.6452 41.7031 49.1691 41.7031H0.893396C0.417323 41.7031 0.0312881 41.317 0.0312881 40.841V37.0232Z"
            fill="#73AF00" />
        <path d="M50.0312 32.3433H0.0312881V37.0232H50.0312V32.3433Z" fill="#FFE15A" />
        <path d="M50.0312 27.6637H0.0312881V32.3437H50.0312V27.6637Z" fill="#FF4B55" />
        <path
            d="M50.0313 22.984H19.1542L1.42025 8.94458H0.893493C0.671032 8.94458 0.472693 9.03442 0.319763 9.1729V41.4749C0.472693 41.6133 0.671032 41.7031 0.893493 41.7031H1.42035L19.1542 27.6637H50.0313V22.984Z"
            fill="#464655" />
        <path
            d="M0.319667 41.4747L20.7209 25.3238L0.319667 9.17285C0.145253 9.33066 0.0312881 9.55293 0.0312881 9.80654V40.841C0.0312881 41.0947 0.145253 41.3169 0.319667 41.4747Z"
            fill="#F5F5F5" />
        <path
            d="M8.43603 19.0199L10.2527 22.7008L14.3148 23.2912L11.3754 26.1563L12.0693 30.202L8.43603 28.2919L4.80273 30.202L5.49668 26.1563L2.55723 23.2912L6.61943 22.7008L8.43603 19.0199Z"
            fill="#FF4B55" />
        <path
            d="M13.1493 25.7928L8.32159 22.0555C7.75675 20.7319 6.95392 19.8782 6.27238 19.8782C5.69338 19.8782 5.41027 20.4148 5.32922 20.7373C4.91223 20.9303 4.81437 21.3146 4.81027 21.3313C4.80344 21.3588 4.80998 21.3881 4.82736 21.4104C4.84494 21.4327 4.8717 21.4457 4.90012 21.4457L4.98654 21.4441C5.37443 21.4351 6.02072 21.4181 6.18595 22.6503C6.28908 23.4198 6.13595 24.798 5.64914 25.8368C5.30891 26.5625 5.42131 27.1494 5.42629 27.1741C5.43556 27.2203 5.47863 27.2508 5.52668 27.2479C5.5341 27.2471 5.55207 27.2464 5.57492 27.2456L5.96554 29.454C5.97345 29.4982 6.01164 29.5304 6.05656 29.5304H11.885C11.9276 29.5304 11.9648 29.5012 11.9748 29.4598L12.6259 26.7856C12.6261 26.7848 12.627 26.7844 12.6272 26.7836C12.6275 26.7822 12.6271 26.7807 12.6273 26.7792L12.8342 25.9298C12.9872 25.9479 13.0782 25.9574 13.0833 25.9579C13.1274 25.9637 13.1634 25.9385 13.1785 25.9003C13.1937 25.8621 13.182 25.8182 13.1493 25.7928Z"
            fill="#FFE15A" />
        <path
            d="M13.1493 25.7928L8.32159 22.0555C7.75675 20.7319 6.95392 19.8782 6.27238 19.8782C5.69338 19.8782 5.41027 20.4148 5.32922 20.7373C4.91223 20.9303 4.81437 21.3146 4.81027 21.3313C4.80344 21.3588 4.80998 21.3881 4.82736 21.4104C4.84494 21.4327 4.8717 21.4457 4.90012 21.4457L4.98654 21.4441C5.37443 21.4351 6.02072 21.4181 6.18595 22.6503C6.28908 23.4198 6.13595 24.798 5.64914 25.8368C5.30891 26.5625 5.42131 27.1494 5.42629 27.1741C5.43556 27.2203 5.47863 27.2508 5.52668 27.2479C5.5341 27.2471 5.55207 27.2464 5.57492 27.2456L5.96554 29.454C5.97345 29.4982 6.01164 29.5304 6.05656 29.5304H11.885C11.9276 29.5304 11.9648 29.5012 11.9748 29.4598L12.6259 26.7856C12.6261 26.7848 12.627 26.7844 12.6272 26.7836C12.6275 26.7822 12.6271 26.7807 12.6273 26.7792L12.8342 25.9298C12.9872 25.9479 13.0782 25.9574 13.0833 25.9579C13.1274 25.9637 13.1634 25.9385 13.1785 25.9003C13.1937 25.8621 13.182 25.8182 13.1493 25.7928ZM5.81642 25.9155C6.25705 24.9756 6.49464 23.5614 6.36925 22.6259C6.19035 21.2917 5.44152 21.2499 5.03713 21.258C5.09445 21.1465 5.21359 20.9829 5.44377 20.889C5.47228 20.8775 5.49308 20.8522 5.49933 20.8219C5.50578 20.791 5.6632 20.0633 6.27218 20.0633C6.87365 20.0633 7.63253 20.902 8.16066 22.15C8.16681 22.1647 8.17667 22.1775 8.18917 22.1872L12.7741 25.7365C11.966 25.6384 9.8544 25.3475 8.60363 24.8546C7.94982 24.5971 7.80079 24.2052 7.66935 23.8594C7.65128 23.8116 7.59757 23.7879 7.54992 23.8059C7.50216 23.8241 7.47814 23.8776 7.4964 23.9253C7.62706 24.2689 7.80607 24.7396 8.53585 25.0271C8.68458 25.0857 8.84513 25.1414 9.01398 25.1944C8.98458 25.2835 8.79747 25.7379 7.96788 26.036C7.29562 26.2776 6.8172 26.6848 6.75187 27.0527C6.50617 27.0517 6.28693 27.0521 6.10275 27.0533V26.7862C6.10275 26.5832 6.29826 26.2894 6.50519 25.9782C6.79357 25.5446 7.12043 25.0531 7.12043 24.5503C7.12043 24.4993 7.07892 24.4578 7.02785 24.4578C6.97677 24.4578 6.93527 24.4993 6.93527 24.5503C6.93527 24.9971 6.62482 25.4639 6.35099 25.8756C6.11838 26.2253 5.9176 26.5274 5.9176 26.7861V27.0547C5.77795 27.0562 5.66847 27.058 5.59709 27.0601C5.58058 26.886 5.57111 26.4387 5.81642 25.9155ZM9.48546 25.3294C9.37843 25.6269 9.06163 25.7276 8.82677 25.7598C9.08136 25.5335 9.1673 25.3243 9.19142 25.2477C9.28732 25.276 9.38575 25.3031 9.48546 25.3294ZM9.66378 25.3754C9.76564 25.401 9.86837 25.4256 9.97218 25.4495C9.87774 25.6415 9.6254 25.7358 9.34962 25.7752C9.48634 25.6885 9.60216 25.5606 9.66378 25.3754ZM12.2793 27.4272C11.3414 27.1382 8.63478 27.0643 6.93849 27.0535C6.99591 26.8433 7.26212 26.5673 7.7129 26.3461C7.71749 26.3469 7.72169 26.349 7.72648 26.349C10.2587 26.3579 12.0213 26.7335 12.4251 26.8282L12.2793 27.4272ZM12.1599 27.9175L11.7899 27.5048C11.9663 27.5355 12.1166 27.5697 12.2355 27.6076L12.1599 27.9175ZM7.37433 27.9827L7.55421 28.1521C7.49884 28.1517 7.44425 28.1511 7.38761 28.1508C7.38273 28.0965 7.37863 28.039 7.37433 27.9827ZM12.0492 28.3719L11.5792 27.8569C11.5482 27.8229 11.4971 27.8166 11.4595 27.8424L10.9075 28.2119L10.4922 27.7568C10.4601 27.7214 10.4056 27.7167 10.3676 27.7457L9.86866 28.1283L9.41593 27.6813C9.38194 27.6477 9.32765 27.6455 9.29132 27.6763L8.80392 28.0863L8.34728 27.6625C8.31271 27.6305 8.25909 27.6298 8.22335 27.6608L7.74699 28.0794L7.35529 27.7109C7.34845 27.6009 7.3424 27.4876 7.33712 27.3711L7.68781 27.7155C7.72199 27.7492 7.77638 27.7506 7.8129 27.7196L8.30343 27.2973L8.75157 27.7386C8.78536 27.7719 8.83917 27.7741 8.87579 27.7438L9.36788 27.3337L9.84005 27.7785C9.87335 27.8098 9.92413 27.8123 9.95977 27.7846L10.4536 27.4058L10.8668 27.8799C10.8981 27.9158 10.9515 27.9219 10.9903 27.8944L11.5397 27.503L12.0857 28.1121C12.0923 28.1194 12.1005 28.1239 12.1085 28.1285L12.0492 28.3719ZM11.7716 28.3421C11.6243 28.3235 11.4187 28.3015 11.1401 28.2789L11.4964 28.0405L11.7716 28.3421ZM10.6889 28.2467C10.5031 28.235 10.2948 28.2237 10.0622 28.213L10.4128 27.9443L10.6889 28.2467ZM9.67481 28.1968C9.4631 28.1888 9.23292 28.1816 8.98566 28.1752L9.34601 27.8721L9.67481 28.1968ZM8.61886 28.1667C8.40558 28.1623 8.17892 28.1587 7.94054 28.1559L8.28302 27.8551L8.61886 28.1667ZM7.47228 27.2447C7.66427 27.2471 7.86427 27.2506 8.06886 27.2549L7.75656 27.5238L7.47228 27.2447ZM8.53566 27.2661C8.73448 27.2716 8.93536 27.2784 9.13585 27.2859L8.82159 27.5477L8.53566 27.2661ZM9.6087 27.3063C9.82101 27.3165 10.0306 27.328 10.2338 27.341L9.90968 27.5897L9.6087 27.3063ZM10.6709 27.3732C10.8992 27.3917 11.1152 27.4127 11.3141 27.4365L10.9513 27.695L10.6709 27.3732ZM5.76193 27.2418C6.03996 27.2377 6.5383 27.2355 7.14621 27.241C7.18087 28.1202 7.25773 28.8266 7.37443 29.3454H6.1341L5.76193 27.2418ZM11.8123 29.3455H7.56378C7.49884 29.0673 7.44621 28.7293 7.40587 28.336C10.5006 28.3564 11.6763 28.51 11.9701 28.558C11.9788 28.5665 11.9885 28.5735 11.9992 28.5778L11.8123 29.3455ZM12.4689 26.6485C12.0776 26.557 10.4628 26.2143 8.13341 26.1696C8.29757 26.1041 8.43751 26.0333 8.55538 25.9601C8.61046 25.967 8.77267 25.9849 8.97599 25.9849C9.39816 25.9849 9.99122 25.905 10.155 25.4904C11.1165 25.7008 12.1021 25.839 12.6493 25.9074L12.4689 26.6485Z"
            fill="#464655" />
        <path
            d="M6.53402 20.6954C6.53402 20.5253 6.39574 20.387 6.22562 20.387C6.0556 20.387 5.91722 20.5252 5.91722 20.6954C5.91722 20.8654 6.0555 21.0038 6.22562 21.0038C6.39564 21.0038 6.53402 20.8654 6.53402 20.6954ZM6.22562 20.8187C6.15755 20.8187 6.10228 20.7634 6.10228 20.6954C6.10228 20.6273 6.15755 20.572 6.22562 20.572C6.29368 20.572 6.34896 20.6273 6.34896 20.6954C6.34896 20.7634 6.29368 20.8187 6.22562 20.8187Z"
            fill="#464655" />
        <path
            d="M8.81086 26.4292C8.64357 26.4292 8.50764 26.5652 8.50764 26.7324C8.50764 26.8996 8.64367 27.0357 8.81086 27.0357C8.97805 27.0357 9.11418 26.8996 9.11418 26.7324C9.11418 26.5652 8.97805 26.4292 8.81086 26.4292ZM8.81086 26.8507C8.74562 26.8507 8.6927 26.7977 8.6927 26.7325C8.6927 26.6674 8.74572 26.6144 8.81086 26.6144C8.87609 26.6144 8.92922 26.6674 8.92922 26.7325C8.92922 26.7977 8.876 26.8507 8.81086 26.8507Z"
            fill="#464655" />
        <path
            d="M9.71724 26.481C9.54995 26.481 9.41392 26.6171 9.41392 26.7843C9.41392 26.9515 9.55005 27.0875 9.71724 27.0875C9.88452 27.0875 10.0205 26.9515 10.0205 26.7843C10.0205 26.6171 9.88452 26.481 9.71724 26.481ZM9.71724 26.9024C9.652 26.9024 9.59888 26.8494 9.59888 26.7843C9.59888 26.719 9.652 26.6659 9.71724 26.6659C9.78247 26.6659 9.8354 26.719 9.8354 26.7843C9.8355 26.8494 9.78247 26.9024 9.71724 26.9024Z"
            fill="#464655" />
    </g>
    <defs>
        <clipPath id="clip0_9_781">
            <rect width="50" height="50" fill="white" transform="translate(0.03125 0.32373)" />
        </clipPath>
    </defs>
</svg>
