<svg width="24" height="25" viewBox="0 0 24 25" fill="none" xmlns="http://www.w3.org/2000/svg">
<path d="M9.06802 3.72803C7.70453 3.57564 6.29549 3.57564 4.932 3.72803C4.05481 3.82607 3.34551 4.51682 3.24207 5.40126C3.07898 6.79568 3.07898 8.20435 3.24207 9.59877C3.34551 10.4832 4.05481 11.174 4.932 11.272C6.29549 11.4244 7.70453 11.4244 9.06802 11.272C9.9452 11.174 10.6545 10.4832 10.7579 9.59877C10.921 8.20435 10.921 6.79568 10.7579 5.40126C10.6545 4.51682 9.9452 3.82607 9.06802 3.72803Z" fill="#37DDEC"/>
<path d="M9.06802 13.728C7.70453 13.5756 6.29549 13.5756 4.932 13.728C4.05481 13.8261 3.34551 14.5168 3.24207 15.4013C3.07898 16.7957 3.07898 18.2043 3.24207 19.5988C3.34551 20.4832 4.05481 21.174 4.932 21.272C6.29549 21.4244 7.70453 21.4244 9.06802 21.272C9.9452 21.174 10.6545 20.4832 10.7579 19.5988C10.921 18.2043 10.921 16.7957 10.7579 15.4013C10.6545 14.5168 9.9452 13.8261 9.06802 13.728Z" fill="#37DDEC"/>
<path d="M19.068 3.72803C17.7045 3.57564 16.2955 3.57564 14.932 3.72803C14.0548 3.82607 13.3455 4.51682 13.2421 5.40126C13.079 6.79568 13.079 8.20435 13.2421 9.59877C13.3455 10.4832 14.0548 11.174 14.932 11.272C16.2955 11.4244 17.7045 11.4244 19.068 11.272C19.9452 11.174 20.6545 10.4832 20.758 9.59877C20.9211 8.20435 20.9211 6.79568 20.758 5.40126C20.6545 4.51682 19.9452 3.82607 19.068 3.72803Z" fill="#37DDEC"/>
<path d="M19.068 13.728C17.7045 13.5756 16.2955 13.5756 14.932 13.728C14.0548 13.8261 13.3455 14.5168 13.2421 15.4013C13.079 16.7957 13.079 18.2043 13.2421 19.5988C13.3455 20.4832 14.0548 21.174 14.932 21.272C16.2955 21.4244 17.7045 21.4244 19.068 21.272C19.9452 21.174 20.6545 20.4832 20.758 19.5988C20.9211 18.2043 20.9211 16.7957 20.758 15.4013C20.6545 14.5168 19.9452 13.8261 19.068 13.728Z" fill="#37DDEC"/>
</svg>
