<svg width="24" height="25" viewBox="0 0 24 25" fill="none" xmlns="http://www.w3.org/2000/svg">
<path d="M3.27971 13.7899C3.39206 11.9922 3.47326 10.7172 3.66153 9.75241C3.84566 8.80885 4.11454 8.26605 4.53252 7.87338C4.9505 7.48071 5.50901 7.24621 6.46222 7.1213C7.43684 6.99358 8.71443 6.99207 10.5156 6.99207H13.4844C15.2855 6.99207 16.5631 6.99358 17.5378 7.1213C18.491 7.24621 19.0495 7.48071 19.4675 7.87338C19.8854 8.26605 20.1543 8.80885 20.3385 9.75241C20.5267 10.7172 20.6079 11.9922 20.7203 13.7899C20.8461 15.8039 20.9341 17.2372 20.8529 18.3275C20.7734 19.3962 20.5379 20.0129 20.1109 20.4674C19.6839 20.9219 19.0831 21.1954 18.0215 21.3414C16.9384 21.4904 15.5024 21.4921 13.4844 21.4921H10.5156C8.49762 21.4921 7.06161 21.4904 5.97848 21.3414C4.91685 21.1954 4.31606 20.9219 3.8891 20.4674C3.46213 20.0129 3.22657 19.3962 3.14705 18.3275C3.06592 17.2372 3.15383 15.8039 3.27971 13.7899Z" stroke="#37DDEC" stroke-width="1.5"/>
<path fill-rule="evenodd" clip-rule="evenodd" d="M7.85158 9.24207C8.38955 9.24207 8.73211 8.60917 8.60267 8.087C8.53559 7.81641 8.5 7.5334 8.5 7.24207C8.5 5.30907 10.067 3.74207 12 3.74207C13.933 3.74207 15.5 5.30907 15.5 7.24207C15.5 7.5334 15.4644 7.81641 15.3973 8.087C15.2679 8.60917 15.6105 9.24207 16.1484 9.24207C16.413 9.24207 16.6563 9.08661 16.7406 8.83584C16.9088 8.33527 17 7.79932 17 7.24207C17 4.48065 14.7614 2.24207 12 2.24207C9.23858 2.24207 7 4.48065 7 7.24207C7 7.79932 7.09116 8.33527 7.25938 8.83584C7.34365 9.08661 7.58703 9.24207 7.85158 9.24207Z" fill="#37DDEC"/>
<path d="M8.5 13.2421C8.77614 13.2421 9 13.0182 9 12.7421C9 12.4659 8.77614 12.2421 8.5 12.2421C8.22386 12.2421 8 12.4659 8 12.7421C8 13.0182 8.22386 13.2421 8.5 13.2421Z" stroke="#37DDEC"/>
<path d="M15.5 13.2421C15.7761 13.2421 16 13.0182 16 12.7421C16 12.4659 15.7761 12.2421 15.5 12.2421C15.2239 12.2421 15 12.4659 15 12.7421C15 13.0182 15.2239 13.2421 15.5 13.2421Z" stroke="#37DDEC"/>
</svg>
