<svg width="44" height="41" viewBox="0 0 44 41" fill="none" xmlns="http://www.w3.org/2000/svg">
    <path fill-rule="evenodd" clip-rule="evenodd"
        d="M15 22.5C13.3431 22.5 12 21.1569 12 19.5V7.5C12 5.84315 13.3431 4.5 15 4.5H16V3.5C16 2.94772 16.4477 2.5 17 2.5C17.5523 2.5 18 2.94772 18 3.5V4.5H26V3.5C26 2.94772 26.4477 2.5 27 2.5C27.5523 2.5 28 2.94772 28 3.5V4.5H29C30.6569 4.5 32 5.84315 32 7.5V19.5C32 21.1569 30.6569 22.5 29 22.5H15ZM18 17.5H14V19.5C14 20.0523 14.4477 20.5 15 20.5H18V17.5ZM24 17.5H20V20.5H24V17.5ZM30 17.5H26V20.5H29C29.5523 20.5 30 20.0523 30 19.5V17.5ZM18 12.5H14V15.5H18V12.5ZM24 12.5H20V15.5H24V12.5ZM30 12.5H26V15.5H30V12.5ZM16 6.5H15C14.4477 6.5 14 6.94772 14 7.5V10.5H30V7.5C30 6.94772 29.5523 6.5 29 6.5H28V7.5C28 8.05228 27.5523 8.5 27 8.5C26.4477 8.5 26 8.05228 26 7.5V6.5H18V7.5C18 8.05228 17.5523 8.5 17 8.5C16.4477 8.5 16 8.05228 16 7.5V6.5Z"
        fill="#5B5B71" />
    <path
        d="M7.23295 33.5H6.35227C6.30019 33.2467 6.20904 33.0241 6.07884 32.8324C5.95099 32.6406 5.79474 32.4796 5.61009 32.3494C5.42779 32.2169 5.22538 32.1174 5.00284 32.0511C4.7803 31.9848 4.5483 31.9517 4.30682 31.9517C3.86648 31.9517 3.46757 32.063 3.11009 32.2855C2.75497 32.508 2.47206 32.8359 2.26136 33.2692C2.05303 33.7024 1.94886 34.2339 1.94886 34.8636C1.94886 35.4934 2.05303 36.0249 2.26136 36.4581C2.47206 36.8913 2.75497 37.2192 3.11009 37.4418C3.46757 37.6643 3.86648 37.7756 4.30682 37.7756C4.5483 37.7756 4.7803 37.7424 5.00284 37.6761C5.22538 37.6098 5.42779 37.5116 5.61009 37.3814C5.79474 37.2488 5.95099 37.0866 6.07884 36.8949C6.20904 36.7008 6.30019 36.4782 6.35227 36.2273H7.23295C7.16667 36.599 7.04593 36.9316 6.87074 37.2251C6.69555 37.5187 6.47775 37.7685 6.21733 37.9744C5.95691 38.178 5.66454 38.3331 5.3402 38.4396C5.01823 38.5462 4.67377 38.5994 4.30682 38.5994C3.68655 38.5994 3.13494 38.4479 2.65199 38.1449C2.16903 37.8419 1.78906 37.411 1.51207 36.8523C1.23509 36.2936 1.09659 35.6307 1.09659 34.8636C1.09659 34.0966 1.23509 33.4337 1.51207 32.875C1.78906 32.3163 2.16903 31.8854 2.65199 31.5824C3.13494 31.2794 3.68655 31.1278 4.30682 31.1278C4.67377 31.1278 5.01823 31.1811 5.3402 31.2876C5.66454 31.3942 5.95691 31.5504 6.21733 31.7564C6.47775 31.96 6.69555 32.2086 6.87074 32.5021C7.04593 32.7933 7.16667 33.1259 7.23295 33.5ZM10.1475 38.6278C9.80191 38.6278 9.48822 38.5627 9.2065 38.4325C8.92478 38.3 8.70105 38.1094 8.53533 37.8608C8.36961 37.6098 8.28675 37.3068 8.28675 36.9517C8.28675 36.6392 8.34831 36.3859 8.47141 36.1918C8.59452 35.9953 8.75906 35.8414 8.96502 35.7301C9.17099 35.6188 9.39826 35.536 9.64684 35.4815C9.89779 35.4247 10.1499 35.3797 10.4032 35.3466C10.7347 35.304 11.0034 35.272 11.2093 35.2507C11.4177 35.227 11.5692 35.188 11.6639 35.1335C11.7609 35.0791 11.8095 34.9844 11.8095 34.8494V34.821C11.8095 34.4706 11.7136 34.1984 11.5218 34.0043C11.3324 33.8101 11.0448 33.7131 10.6589 33.7131C10.2588 33.7131 9.94514 33.8007 9.71786 33.9759C9.49059 34.151 9.33079 34.3381 9.23846 34.5369L8.443 34.2528C8.58505 33.9214 8.77444 33.6634 9.01119 33.4787C9.2503 33.2917 9.51071 33.1615 9.79244 33.0881C10.0765 33.0123 10.3559 32.9744 10.6305 32.9744C10.8057 32.9744 11.0069 32.9957 11.2342 33.0384C11.4638 33.0786 11.6852 33.1626 11.8983 33.2905C12.1137 33.4183 12.2924 33.6113 12.4345 33.8693C12.5765 34.1274 12.6475 34.473 12.6475 34.9062V38.5H11.8095V37.7614H11.7669C11.71 37.8797 11.6154 38.0064 11.4828 38.1413C11.3502 38.2763 11.1738 38.3911 10.9537 38.4858C10.7335 38.5805 10.4648 38.6278 10.1475 38.6278ZM10.2754 37.875C10.6068 37.875 10.8862 37.8099 11.1135 37.6797C11.3431 37.5495 11.5159 37.3814 11.6319 37.1754C11.7503 36.9695 11.8095 36.7528 11.8095 36.5256V35.7585C11.774 35.8011 11.6958 35.8402 11.5751 35.8757C11.4567 35.9089 11.3194 35.9384 11.1632 35.9645C11.0093 35.9882 10.859 36.0095 10.7122 36.0284C10.5678 36.045 10.4506 36.0592 10.3606 36.071C10.1428 36.0994 9.93922 36.1456 9.74982 36.2095C9.5628 36.2711 9.41128 36.3646 9.29528 36.4901C9.18164 36.6132 9.12482 36.7812 9.12482 36.9943C9.12482 37.2855 9.23254 37.5057 9.44798 37.6548C9.66578 37.8016 9.94158 37.875 10.2754 37.875ZM15.0153 31.2273V38.5H14.1772V31.2273H15.0153ZM18.8372 38.6136C18.3116 38.6136 17.8583 38.4976 17.4771 38.2656C17.0983 38.0312 16.8059 37.7045 16.6 37.2855C16.3964 36.8641 16.2946 36.3741 16.2946 35.8153C16.2946 35.2566 16.3964 34.7642 16.6 34.3381C16.8059 33.9096 17.0924 33.5758 17.4593 33.3366C17.8287 33.0952 18.2595 32.9744 18.752 32.9744C19.036 32.9744 19.3166 33.0218 19.5936 33.1165C19.8706 33.2112 20.1227 33.3651 20.35 33.5781C20.5772 33.7888 20.7583 34.0682 20.8933 34.4162C21.0282 34.7642 21.0957 35.1927 21.0957 35.7017V36.0568H16.8912V35.3324H20.2434C20.2434 35.0246 20.1819 34.75 20.0588 34.5085C19.938 34.267 19.7652 34.0765 19.5403 33.9368C19.3178 33.7971 19.055 33.7273 18.752 33.7273C18.4181 33.7273 18.1293 33.8101 17.8855 33.9759C17.644 34.1392 17.4582 34.3523 17.3279 34.6151C17.1977 34.8778 17.1326 35.1596 17.1326 35.4602V35.9432C17.1326 36.3551 17.2037 36.7043 17.3457 36.9908C17.4901 37.2749 17.6902 37.4915 17.9458 37.6406C18.2015 37.7874 18.4986 37.8608 18.8372 37.8608C19.0574 37.8608 19.2562 37.83 19.4338 37.7685C19.6137 37.7045 19.7688 37.6098 19.899 37.4844C20.0292 37.3565 20.1298 37.1979 20.2008 37.0085L21.0105 37.2358C20.9252 37.5104 20.782 37.7519 20.5808 37.9602C20.3796 38.1662 20.131 38.3272 19.835 38.4432C19.5391 38.5568 19.2065 38.6136 18.8372 38.6136ZM23.2086 35.2188V38.5H22.3706V33.0455H23.1802V33.8977H23.2512C23.3791 33.6207 23.5732 33.3982 23.8336 33.2301C24.094 33.0597 24.4302 32.9744 24.8422 32.9744C25.2115 32.9744 25.5346 33.0502 25.8116 33.2017C26.0886 33.3509 26.304 33.5781 26.4579 33.8835C26.6118 34.1866 26.6887 34.5701 26.6887 35.0341V38.5H25.8507V35.0909C25.8507 34.6624 25.7394 34.3286 25.5169 34.0895C25.2943 33.848 24.9889 33.7273 24.6007 33.7273C24.3332 33.7273 24.094 33.7853 23.8833 33.9013C23.675 34.0173 23.5105 34.1866 23.3897 34.4091C23.269 34.6316 23.2086 34.9015 23.2086 35.2188ZM30.2798 38.6136C29.8253 38.6136 29.424 38.4988 29.076 38.2692C28.728 38.0372 28.4557 37.7105 28.2592 37.2891C28.0627 36.8653 27.9645 36.3646 27.9645 35.7869C27.9645 35.214 28.0627 34.7169 28.2592 34.2955C28.4557 33.8741 28.7292 33.5485 29.0795 33.3189C29.4299 33.0893 29.8348 32.9744 30.294 32.9744C30.6491 32.9744 30.9297 33.0336 31.1357 33.152C31.344 33.268 31.5026 33.4006 31.6115 33.5497C31.7228 33.6965 31.8092 33.8172 31.8707 33.9119H31.9418V31.2273H32.7798V38.5H31.9702V37.6619H31.8707C31.8092 37.7614 31.7216 37.8868 31.608 38.0384C31.4943 38.1875 31.3321 38.3213 31.1214 38.4396C30.9107 38.5556 30.6302 38.6136 30.2798 38.6136ZM30.3935 37.8608C30.7296 37.8608 31.0137 37.7732 31.2457 37.598C31.4777 37.4205 31.6541 37.1754 31.7749 36.8629C31.8956 36.5481 31.956 36.1847 31.956 35.7727C31.956 35.3655 31.8968 35.0092 31.7784 34.7038C31.66 34.3961 31.4848 34.157 31.2528 33.9865C31.0208 33.8137 30.7344 33.7273 30.3935 33.7273C30.0384 33.7273 29.7424 33.8184 29.5057 34.0007C29.2713 34.1806 29.0949 34.4257 28.9766 34.7358C28.8606 35.0436 28.8026 35.3892 28.8026 35.7727C28.8026 36.161 28.8617 36.5137 28.9801 36.831C29.1009 37.1458 29.2784 37.3968 29.5128 37.5838C29.7495 37.7685 30.0431 37.8608 30.3935 37.8608ZM36.0362 38.6278C35.6906 38.6278 35.3769 38.5627 35.0952 38.4325C34.8134 38.3 34.5897 38.1094 34.424 37.8608C34.2583 37.6098 34.1754 37.3068 34.1754 36.9517C34.1754 36.6392 34.237 36.3859 34.3601 36.1918C34.4832 35.9953 34.6477 35.8414 34.8537 35.7301C35.0597 35.6188 35.2869 35.536 35.5355 35.4815C35.7865 35.4247 36.0386 35.3797 36.2919 35.3466C36.6233 35.304 36.892 35.272 37.098 35.2507C37.3063 35.227 37.4579 35.188 37.5526 35.1335C37.6496 35.0791 37.6982 34.9844 37.6982 34.8494V34.821C37.6982 34.4706 37.6023 34.1984 37.4105 34.0043C37.2211 33.8101 36.9335 33.7131 36.5476 33.7131C36.1475 33.7131 35.8338 33.8007 35.6065 33.9759C35.3793 34.151 35.2195 34.3381 35.1271 34.5369L34.3317 34.2528C34.4737 33.9214 34.6631 33.6634 34.8999 33.4787C35.139 33.2917 35.3994 33.1615 35.6811 33.0881C35.9652 33.0123 36.2446 32.9744 36.5192 32.9744C36.6944 32.9744 36.8956 32.9957 37.1229 33.0384C37.3525 33.0786 37.5739 33.1626 37.7869 33.2905C38.0024 33.4183 38.1811 33.6113 38.3232 33.8693C38.4652 34.1274 38.5362 34.473 38.5362 34.9062V38.5H37.6982V37.7614H37.6555C37.5987 37.8797 37.504 38.0064 37.3714 38.1413C37.2389 38.2763 37.0625 38.3911 36.8423 38.4858C36.6222 38.5805 36.3535 38.6278 36.0362 38.6278ZM36.1641 37.875C36.4955 37.875 36.7749 37.8099 37.0021 37.6797C37.2318 37.5495 37.4046 37.3814 37.5206 37.1754C37.639 36.9695 37.6982 36.7528 37.6982 36.5256V35.7585C37.6626 35.8011 37.5845 35.8402 37.4638 35.8757C37.3454 35.9089 37.2081 35.9384 37.0518 35.9645C36.898 35.9882 36.7476 36.0095 36.6009 36.0284C36.4564 36.045 36.3393 36.0592 36.2493 36.071C36.0315 36.0994 35.8279 36.1456 35.6385 36.2095C35.4515 36.2711 35.3 36.3646 35.1839 36.4901C35.0703 36.6132 35.0135 36.7812 35.0135 36.9943C35.0135 37.2855 35.1212 37.5057 35.3366 37.6548C35.5545 37.8016 35.8303 37.875 36.1641 37.875ZM40.0659 38.5V33.0455H40.8755V33.8693H40.9324C41.0318 33.5994 41.2117 33.3804 41.4721 33.2124C41.7325 33.0443 42.0261 32.9602 42.3528 32.9602C42.4144 32.9602 42.4913 32.9614 42.5836 32.9638C42.676 32.9661 42.7458 32.9697 42.7931 32.9744V33.8267C42.7647 33.8196 42.6996 33.8089 42.5978 33.7947C42.4984 33.7782 42.3931 33.7699 42.2818 33.7699C42.0166 33.7699 41.7799 33.8255 41.5716 33.9368C41.3656 34.0457 41.2022 34.1972 41.0815 34.3913C40.9631 34.5831 40.9039 34.8021 40.9039 35.0483V38.5H40.0659Z"
        fill="#5B5B71" />
</svg>
