<svg width="25" height="25" viewBox="0 0 25 25" fill="none" xmlns="http://www.w3.org/2000/svg">
<path fill-rule="evenodd" clip-rule="evenodd" d="M5.12433 22.5C3.46747 22.5 2.12433 21.1569 2.12433 19.5V7.5C2.12433 5.84315 3.46747 4.5 5.12433 4.5H6.12433V3.5C6.12433 2.94772 6.57204 2.5 7.12433 2.5C7.67661 2.5 8.12433 2.94772 8.12433 3.5V4.5H16.1243V3.5C16.1243 2.94772 16.572 2.5 17.1243 2.5C17.6766 2.5 18.1243 2.94772 18.1243 3.5V4.5H19.1243C20.7812 4.5 22.1243 5.84315 22.1243 7.5V19.5C22.1243 21.1569 20.7812 22.5 19.1243 22.5H5.12433ZM8.12433 17.5H4.12433V19.5C4.12433 20.0523 4.57204 20.5 5.12433 20.5H8.12433V17.5ZM14.1243 17.5H10.1243V20.5H14.1243V17.5ZM20.1243 17.5H16.1243V20.5H19.1243C19.6766 20.5 20.1243 20.0523 20.1243 19.5V17.5ZM8.12433 12.5H4.12433V15.5H8.12433V12.5ZM14.1243 12.5H10.1243V15.5H14.1243V12.5ZM20.1243 12.5H16.1243V15.5H20.1243V12.5ZM6.12433 6.5H5.12433C4.57204 6.5 4.12433 6.94772 4.12433 7.5V10.5H20.1243V7.5C20.1243 6.94772 19.6766 6.5 19.1243 6.5H18.1243V7.5C18.1243 8.05228 17.6766 8.5 17.1243 8.5C16.572 8.5 16.1243 8.05228 16.1243 7.5V6.5H8.12433V7.5C8.12433 8.05228 7.67661 8.5 7.12433 8.5C6.57204 8.5 6.12433 8.05228 6.12433 7.5V6.5Z" fill="#5B5B71"/>
</svg>
