<svg width="52" height="41" viewBox="0 0 52 41" fill="none" xmlns="http://www.w3.org/2000/svg">
<path d="M23.0679 3.72803C21.7044 3.57564 20.2954 3.57564 18.9319 3.72803C18.0547 3.82607 17.3454 4.51682 17.2419 5.40126C17.0789 6.79568 17.0789 8.20435 17.2419 9.59877C17.3454 10.4832 18.0547 11.174 18.9319 11.272C20.2954 11.4244 21.7044 11.4244 23.0679 11.272C23.9451 11.174 24.6544 10.4832 24.7578 9.59877C24.9209 8.20435 24.9209 6.79568 24.7578 5.40126C24.6544 4.51682 23.9451 3.82607 23.0679 3.72803Z" fill="#5B5B71"/>
<path d="M23.0679 13.728C21.7044 13.5756 20.2954 13.5756 18.9319 13.728C18.0547 13.8261 17.3454 14.5168 17.2419 15.4013C17.0789 16.7957 17.0789 18.2043 17.2419 19.5988C17.3454 20.4832 18.0547 21.174 18.9319 21.272C20.2954 21.4244 21.7044 21.4244 23.0679 21.272C23.9451 21.174 24.6544 20.4832 24.7578 19.5988C24.9209 18.2043 24.9209 16.7957 24.7578 15.4013C24.6544 14.5168 23.9451 13.8261 23.0679 13.728Z" fill="#5B5B71"/>
<path d="M33.0679 3.72803C31.7044 3.57564 30.2954 3.57564 28.9319 3.72803C28.0547 3.82607 27.3454 4.51682 27.242 5.40126C27.0789 6.79568 27.0789 8.20435 27.242 9.59877C27.3454 10.4832 28.0547 11.174 28.9319 11.272C30.2954 11.4244 31.7044 11.4244 33.0679 11.272C33.9451 11.174 34.6544 10.4832 34.7578 9.59877C34.9209 8.20435 34.9209 6.79568 34.7578 5.40126C34.6544 4.51682 33.9451 3.82607 33.0679 3.72803Z" fill="#5B5B71"/>
<path d="M33.0679 13.728C31.7044 13.5756 30.2954 13.5756 28.9319 13.728C28.0547 13.8261 27.3454 14.5168 27.242 15.4013C27.0789 16.7957 27.0789 18.2043 27.242 19.5988C27.3454 20.4832 28.0547 21.174 28.9319 21.272C30.2954 21.4244 31.7044 21.4244 33.0679 21.272C33.9451 21.174 34.6544 20.4832 34.7578 19.5988C34.9209 18.2043 34.9209 16.7957 34.7578 15.4013C34.6544 14.5168 33.9451 13.8261 33.0679 13.728Z" fill="#5B5B71"/>
<path d="M6.73295 33.5H5.85227C5.80019 33.2467 5.70904 33.0241 5.57884 32.8324C5.45099 32.6406 5.29474 32.4796 5.11009 32.3494C4.92779 32.2169 4.72538 32.1174 4.50284 32.0511C4.2803 31.9848 4.0483 31.9517 3.80682 31.9517C3.36648 31.9517 2.96757 32.063 2.61009 32.2855C2.25497 32.508 1.97206 32.8359 1.76136 33.2692C1.55303 33.7024 1.44886 34.2339 1.44886 34.8636C1.44886 35.4934 1.55303 36.0249 1.76136 36.4581C1.97206 36.8913 2.25497 37.2192 2.61009 37.4418C2.96757 37.6643 3.36648 37.7756 3.80682 37.7756C4.0483 37.7756 4.2803 37.7424 4.50284 37.6761C4.72538 37.6098 4.92779 37.5116 5.11009 37.3814C5.29474 37.2488 5.45099 37.0866 5.57884 36.8949C5.70904 36.7008 5.80019 36.4782 5.85227 36.2273H6.73295C6.66667 36.599 6.54593 36.9316 6.37074 37.2251C6.19555 37.5187 5.97775 37.7685 5.71733 37.9744C5.45691 38.178 5.16454 38.3331 4.8402 38.4396C4.51823 38.5462 4.17377 38.5994 3.80682 38.5994C3.18655 38.5994 2.63494 38.4479 2.15199 38.1449C1.66903 37.8419 1.28906 37.411 1.01207 36.8523C0.735085 36.2936 0.596591 35.6307 0.596591 34.8636C0.596591 34.0966 0.735085 33.4337 1.01207 32.875C1.28906 32.3163 1.66903 31.8854 2.15199 31.5824C2.63494 31.2794 3.18655 31.1278 3.80682 31.1278C4.17377 31.1278 4.51823 31.1811 4.8402 31.2876C5.16454 31.3942 5.45691 31.5504 5.71733 31.7564C5.97775 31.96 6.19555 32.2086 6.37074 32.5021C6.54593 32.7933 6.66667 33.1259 6.73295 33.5ZM9.64755 38.6278C9.30191 38.6278 8.98822 38.5627 8.7065 38.4325C8.42478 38.3 8.20105 38.1094 8.03533 37.8608C7.86961 37.6098 7.78675 37.3068 7.78675 36.9517C7.78675 36.6392 7.84831 36.3859 7.97141 36.1918C8.09452 35.9953 8.25906 35.8414 8.46502 35.7301C8.67099 35.6188 8.89826 35.536 9.14684 35.4815C9.39779 35.4247 9.64992 35.3797 9.90323 35.3466C10.2347 35.304 10.5034 35.272 10.7093 35.2507C10.9177 35.227 11.0692 35.188 11.1639 35.1335C11.2609 35.0791 11.3095 34.9844 11.3095 34.8494V34.821C11.3095 34.4706 11.2136 34.1984 11.0218 34.0043C10.8324 33.8101 10.5448 33.7131 10.1589 33.7131C9.75882 33.7131 9.44514 33.8007 9.21786 33.9759C8.99059 34.151 8.83079 34.3381 8.73846 34.5369L7.943 34.2528C8.08505 33.9214 8.27444 33.6634 8.51119 33.4787C8.7503 33.2917 9.01071 33.1615 9.29244 33.0881C9.57653 33.0123 9.85588 32.9744 10.1305 32.9744C10.3057 32.9744 10.5069 32.9957 10.7342 33.0384C10.9638 33.0786 11.1852 33.1626 11.3983 33.2905C11.6137 33.4183 11.7924 33.6113 11.9345 33.8693C12.0765 34.1274 12.1475 34.473 12.1475 34.9062V38.5H11.3095V37.7614H11.2669C11.21 37.8797 11.1154 38.0064 10.9828 38.1413C10.8502 38.2763 10.6738 38.3911 10.4537 38.4858C10.2335 38.5805 9.96478 38.6278 9.64755 38.6278ZM9.77539 37.875C10.1068 37.875 10.3862 37.8099 10.6135 37.6797C10.8431 37.5495 11.0159 37.3814 11.1319 37.1754C11.2503 36.9695 11.3095 36.7528 11.3095 36.5256V35.7585C11.274 35.8011 11.1958 35.8402 11.0751 35.8757C10.9567 35.9089 10.8194 35.9384 10.6632 35.9645C10.5093 35.9882 10.359 36.0095 10.2122 36.0284C10.0678 36.045 9.95058 36.0592 9.86062 36.071C9.64281 36.0994 9.43922 36.1456 9.24982 36.2095C9.0628 36.2711 8.91128 36.3646 8.79528 36.4901C8.68164 36.6132 8.62482 36.7812 8.62482 36.9943C8.62482 37.2855 8.73254 37.5057 8.94798 37.6548C9.16578 37.8016 9.44158 37.875 9.77539 37.875ZM16.0494 33.0455V33.7557H13.2227V33.0455H16.0494ZM14.0465 31.7386H14.8846V36.9375C14.8846 37.1742 14.9189 37.3518 14.9876 37.4702C15.0586 37.5862 15.1486 37.6643 15.2575 37.7045C15.3687 37.7424 15.4859 37.7614 15.609 37.7614C15.7013 37.7614 15.7771 37.7566 15.8363 37.7472C15.8955 37.7353 15.9428 37.7259 15.9783 37.7188L16.1488 38.4716C16.092 38.4929 16.0127 38.5142 15.9109 38.5355C15.8091 38.5592 15.68 38.571 15.5238 38.571C15.2871 38.571 15.055 38.5201 14.8278 38.4183C14.6029 38.3165 14.4158 38.1615 14.2667 37.9531C14.1199 37.7448 14.0465 37.482 14.0465 37.1648V31.7386ZM19.5384 38.6136C19.0128 38.6136 18.5594 38.4976 18.1783 38.2656C17.7995 38.0312 17.5071 37.7045 17.3011 37.2855C17.0975 36.8641 16.9957 36.3741 16.9957 35.8153C16.9957 35.2566 17.0975 34.7642 17.3011 34.3381C17.5071 33.9096 17.7936 33.5758 18.1605 33.3366C18.5298 33.0952 18.9607 32.9744 19.4531 32.9744C19.7372 32.9744 20.0178 33.0218 20.2947 33.1165C20.5717 33.2112 20.8239 33.3651 21.0511 33.5781C21.2784 33.7888 21.4595 34.0682 21.5945 34.4162C21.7294 34.7642 21.7969 35.1927 21.7969 35.7017V36.0568H17.5923V35.3324H20.9446C20.9446 35.0246 20.883 34.75 20.7599 34.5085C20.6392 34.267 20.4664 34.0765 20.2415 33.9368C20.0189 33.7971 19.7562 33.7273 19.4531 33.7273C19.1193 33.7273 18.8305 33.8101 18.5866 33.9759C18.3452 34.1392 18.1593 34.3523 18.0291 34.6151C17.8989 34.8778 17.8338 35.1596 17.8338 35.4602V35.9432C17.8338 36.3551 17.9048 36.7043 18.0469 36.9908C18.1913 37.2749 18.3913 37.4915 18.647 37.6406C18.9027 37.7874 19.1998 37.8608 19.5384 37.8608C19.7585 37.8608 19.9574 37.83 20.1349 37.7685C20.3149 37.7045 20.4699 37.6098 20.6001 37.4844C20.7304 37.3565 20.831 37.1979 20.902 37.0085L21.7116 37.2358C21.6264 37.5104 21.4832 37.7519 21.282 37.9602C21.0807 38.1662 20.8321 38.3272 20.5362 38.4432C20.2403 38.5568 19.9077 38.6136 19.5384 38.6136ZM25.2734 40.6591C24.8686 40.6591 24.5206 40.607 24.2294 40.5028C23.9382 40.401 23.6955 40.2661 23.5014 40.098C23.3097 39.9323 23.157 39.7547 23.0433 39.5653L23.7109 39.0966C23.7867 39.196 23.8826 39.3097 23.9986 39.4375C24.1146 39.5677 24.2732 39.6802 24.4744 39.7749C24.678 39.8719 24.9444 39.9205 25.2734 39.9205C25.7138 39.9205 26.0772 39.8139 26.3636 39.6009C26.6501 39.3878 26.7933 39.054 26.7933 38.5994V37.4915H26.7223C26.6607 37.5909 26.5732 37.714 26.4595 37.8608C26.3482 38.0052 26.1873 38.1342 25.9766 38.2479C25.7682 38.3591 25.4865 38.4148 25.1314 38.4148C24.6911 38.4148 24.2957 38.3106 23.9453 38.1023C23.5973 37.8939 23.3215 37.5909 23.1179 37.1932C22.9167 36.7955 22.8161 36.3125 22.8161 35.7443C22.8161 35.1856 22.9143 34.6991 23.1108 34.2848C23.3073 33.8681 23.5807 33.5462 23.9311 33.3189C24.2815 33.0893 24.6863 32.9744 25.1456 32.9744C25.5007 32.9744 25.7824 33.0336 25.9908 33.152C26.2015 33.268 26.3625 33.4006 26.4737 33.5497C26.5874 33.6965 26.675 33.8172 26.7365 33.9119H26.8217V33.0455H27.6314V38.6562C27.6314 39.125 27.5249 39.5062 27.3118 39.7997C27.1011 40.0956 26.817 40.3123 26.4595 40.4496C26.1044 40.5893 25.709 40.6591 25.2734 40.6591ZM25.245 37.6619C25.5812 37.6619 25.8653 37.585 26.0973 37.4311C26.3293 37.2772 26.5057 37.0559 26.6264 36.767C26.7472 36.4782 26.8075 36.1326 26.8075 35.7301C26.8075 35.3371 26.7483 34.9903 26.63 34.6896C26.5116 34.389 26.3364 34.1534 26.1044 33.983C25.8724 33.8125 25.5859 33.7273 25.245 33.7273C24.8899 33.7273 24.594 33.8172 24.3572 33.9972C24.1229 34.1771 23.9465 34.4186 23.8281 34.7216C23.7121 35.0246 23.6541 35.3608 23.6541 35.7301C23.6541 36.1089 23.7133 36.4439 23.8317 36.7351C23.9524 37.0239 24.13 37.2512 24.3643 37.4169C24.6011 37.5803 24.8946 37.6619 25.245 37.6619ZM31.3814 38.6136C30.889 38.6136 30.4569 38.4964 30.0852 38.2621C29.7159 38.0277 29.4271 37.6998 29.2188 37.2784C29.0128 36.857 28.9098 36.3646 28.9098 35.8011C28.9098 35.233 29.0128 34.737 29.2188 34.3132C29.4271 33.8894 29.7159 33.5604 30.0852 33.326C30.4569 33.0916 30.889 32.9744 31.3814 32.9744C31.8738 32.9744 32.3047 33.0916 32.674 33.326C33.0457 33.5604 33.3345 33.8894 33.5405 34.3132C33.7488 34.737 33.853 35.233 33.853 35.8011C33.853 36.3646 33.7488 36.857 33.5405 37.2784C33.3345 37.6998 33.0457 38.0277 32.674 38.2621C32.3047 38.4964 31.8738 38.6136 31.3814 38.6136ZM31.3814 37.8608C31.7554 37.8608 32.0632 37.7649 32.3047 37.5732C32.5462 37.3814 32.7249 37.1293 32.8409 36.8168C32.9569 36.5043 33.0149 36.1657 33.0149 35.8011C33.0149 35.4366 32.9569 35.0968 32.8409 34.782C32.7249 34.4671 32.5462 34.2126 32.3047 34.0185C32.0632 33.8243 31.7554 33.7273 31.3814 33.7273C31.0073 33.7273 30.6996 33.8243 30.4581 34.0185C30.2166 34.2126 30.0379 34.4671 29.9219 34.782C29.8059 35.0968 29.7479 35.4366 29.7479 35.8011C29.7479 36.1657 29.8059 36.5043 29.9219 36.8168C30.0379 37.1293 30.2166 37.3814 30.4581 37.5732C30.6996 37.7649 31.0073 37.8608 31.3814 37.8608ZM35.1323 38.5V33.0455H35.9419V33.8693H35.9988C36.0982 33.5994 36.2781 33.3804 36.5385 33.2124C36.7989 33.0443 37.0925 32.9602 37.4192 32.9602C37.4808 32.9602 37.5577 32.9614 37.65 32.9638C37.7424 32.9661 37.8122 32.9697 37.8596 32.9744V33.8267C37.8311 33.8196 37.766 33.8089 37.6642 33.7947C37.5648 33.7782 37.4595 33.7699 37.3482 33.7699C37.083 33.7699 36.8463 33.8255 36.638 33.9368C36.432 34.0457 36.2686 34.1972 36.1479 34.3913C36.0295 34.5831 35.9703 34.8021 35.9703 35.0483V38.5H35.1323ZM38.853 38.5V33.0455H39.6911V38.5H38.853ZM39.2791 32.1364C39.1158 32.1364 38.9749 32.0807 38.8565 31.9695C38.7405 31.8582 38.6825 31.7244 38.6825 31.5682C38.6825 31.4119 38.7405 31.2782 38.8565 31.1669C38.9749 31.0556 39.1158 31 39.2791 31C39.4425 31 39.5821 31.0556 39.6982 31.1669C39.8165 31.2782 39.8757 31.4119 39.8757 31.5682C39.8757 31.7244 39.8165 31.8582 39.6982 31.9695C39.5821 32.0807 39.4425 32.1364 39.2791 32.1364ZM43.513 38.6136C42.9874 38.6136 42.534 38.4976 42.1529 38.2656C41.7741 38.0312 41.4817 37.7045 41.2757 37.2855C41.0721 36.8641 40.9703 36.3741 40.9703 35.8153C40.9703 35.2566 41.0721 34.7642 41.2757 34.3381C41.4817 33.9096 41.7682 33.5758 42.1351 33.3366C42.5044 33.0952 42.9353 32.9744 43.4277 32.9744C43.7118 32.9744 43.9924 33.0218 44.2694 33.1165C44.5463 33.2112 44.7985 33.3651 45.0257 33.5781C45.253 33.7888 45.4341 34.0682 45.5691 34.4162C45.704 34.7642 45.7715 35.1927 45.7715 35.7017V36.0568H41.5669V35.3324H44.9192C44.9192 35.0246 44.8577 34.75 44.7346 34.5085C44.6138 34.267 44.441 34.0765 44.2161 33.9368C43.9935 33.7971 43.7308 33.7273 43.4277 33.7273C43.0939 33.7273 42.8051 33.8101 42.5613 33.9759C42.3198 34.1392 42.1339 34.3523 42.0037 34.6151C41.8735 34.8778 41.8084 35.1596 41.8084 35.4602V35.9432C41.8084 36.3551 41.8794 36.7043 42.0215 36.9908C42.1659 37.2749 42.3659 37.4915 42.6216 37.6406C42.8773 37.7874 43.1744 37.8608 43.513 37.8608C43.7331 37.8608 43.932 37.83 44.1096 37.7685C44.2895 37.7045 44.4445 37.6098 44.5748 37.4844C44.705 37.3565 44.8056 37.1979 44.8766 37.0085L45.6863 37.2358C45.601 37.5104 45.4578 37.7519 45.2566 37.9602C45.0553 38.1662 44.8068 38.3272 44.5108 38.4432C44.2149 38.5568 43.8823 38.6136 43.513 38.6136ZM50.91 34.267L50.1571 34.4801C50.1098 34.3546 50.04 34.2327 49.9476 34.1143C49.8577 33.9936 49.7346 33.8942 49.5783 33.8161C49.4221 33.7379 49.222 33.6989 48.9782 33.6989C48.6444 33.6989 48.3662 33.7758 48.1436 33.9297C47.9235 34.0812 47.8134 34.2741 47.8134 34.5085C47.8134 34.7169 47.8891 34.8814 48.0407 35.0021C48.1922 35.1229 48.4289 35.2235 48.7509 35.304L49.5605 35.5028C50.0482 35.6212 50.4116 35.8023 50.6507 36.0462C50.8899 36.2876 51.0094 36.599 51.0094 36.9801C51.0094 37.2926 50.9194 37.572 50.7395 37.8182C50.562 38.0644 50.3134 38.2585 49.9938 38.4006C49.6742 38.5426 49.3025 38.6136 48.8787 38.6136C48.3224 38.6136 47.8619 38.4929 47.4973 38.2514C47.1328 38.0099 46.9019 37.6572 46.8049 37.1932L47.6003 36.9943C47.6761 37.2879 47.8193 37.508 48.03 37.6548C48.2431 37.8016 48.5212 37.875 48.8645 37.875C49.2551 37.875 49.5653 37.7921 49.7949 37.6264C50.0269 37.4583 50.1429 37.2571 50.1429 37.0227C50.1429 36.8333 50.0766 36.6747 49.9441 36.5469C49.8115 36.4167 49.6079 36.3196 49.3333 36.2557L48.4242 36.0426C47.9247 35.9242 47.5577 35.7408 47.3233 35.4922C47.0913 35.2412 46.9753 34.9276 46.9753 34.5511C46.9753 34.2434 47.0617 33.9711 47.2346 33.7344C47.4097 33.4976 47.6477 33.3118 47.9483 33.1768C48.2514 33.0419 48.5946 32.9744 48.9782 32.9744C49.5179 32.9744 49.9417 33.0928 50.2495 33.3295C50.5596 33.5663 50.7798 33.8788 50.91 34.267Z" fill="#5B5B71"/>
</svg>
