<svg width="24" height="25" viewBox="0 0 24 25" fill="none" xmlns="http://www.w3.org/2000/svg">
    <path
        d="M3 12.2421C3 8.49234 3 6.61747 3.95491 5.30314C4.26331 4.87867 4.6366 4.50538 5.06107 4.19698C6.3754 3.24207 8.25027 3.24207 12 3.24207C15.7497 3.24207 17.6246 3.24207 18.9389 4.19698C19.3634 4.50538 19.7367 4.87867 20.0451 5.30314C21 6.61747 21 8.49234 21 12.2421C21 15.9918 21 17.8667 20.0451 19.181C19.7367 19.6055 19.3634 19.9788 18.9389 20.2872C17.6246 21.2421 15.7497 21.2421 12 21.2421H3V12.2421Z"
        stroke="#37DDEC" stroke-width="1.5" stroke-linejoin="round" />
    <path d="M7.75 14.4921H13.25" stroke="#37DDEC" stroke-width="1.5" stroke-linecap="round" />
    <path d="M7.75 10.4921H16.25" stroke="#37DDEC" stroke-width="1.5" stroke-linecap="round" />
</svg>
