<svg width="25" height="25" viewBox="0 0 25 25" fill="none" xmlns="http://www.w3.org/2000/svg">
<path d="M16.3143 2.5H7.93433C4.29433 2.5 2.12433 4.67 2.12433 8.31V16.68C2.12433 20.33 4.29433 22.5 7.93433 22.5H16.3043C19.9443 22.5 22.1143 20.33 22.1143 16.69V8.31C22.1243 4.67 19.9543 2.5 16.3143 2.5ZM13.4543 17.5H10.7843C10.3743 17.5 10.0343 17.16 10.0343 16.75C10.0343 16.34 10.3743 16 10.7843 16H13.4543C13.8643 16 14.2043 16.34 14.2043 16.75C14.2043 17.16 13.8743 17.5 13.4543 17.5ZM16.1243 13.25H8.12433C7.71433 13.25 7.37433 12.91 7.37433 12.5C7.37433 12.09 7.71433 11.75 8.12433 11.75H16.1243C16.5343 11.75 16.8743 12.09 16.8743 12.5C16.8743 12.91 16.5343 13.25 16.1243 13.25ZM18.1243 9H6.12433C5.71433 9 5.37433 8.66 5.37433 8.25C5.37433 7.84 5.71433 7.5 6.12433 7.5H18.1243C18.5343 7.5 18.8743 7.84 18.8743 8.25C18.8743 8.66 18.5343 9 18.1243 9Z" fill="#5B5B71"/>
</svg>
