<svg width="54" height="41" viewBox="0 0 54 41" fill="none" xmlns="http://www.w3.org/2000/svg">
<path d="M31.19 2.5H22.81C19.17 2.5 17 4.67 17 8.31V16.68C17 20.33 19.17 22.5 22.81 22.5H31.18C34.82 22.5 36.99 20.33 36.99 16.69V8.31C37 4.67 34.83 2.5 31.19 2.5ZM28.33 17.5H25.66C25.25 17.5 24.91 17.16 24.91 16.75C24.91 16.34 25.25 16 25.66 16H28.33C28.74 16 29.08 16.34 29.08 16.75C29.08 17.16 28.75 17.5 28.33 17.5ZM31 13.25H23C22.59 13.25 22.25 12.91 22.25 12.5C22.25 12.09 22.59 11.75 23 11.75H31C31.41 11.75 31.75 12.09 31.75 12.5C31.75 12.91 31.41 13.25 31 13.25ZM33 9H21C20.59 9 20.25 8.66 20.25 8.25C20.25 7.84 20.59 7.5 21 7.5H33C33.41 7.5 33.75 7.84 33.75 8.25C33.75 8.66 33.41 9 33 9Z" fill="#5B5B71"/>
<path d="M4.85795 33.0455C4.81534 32.6856 4.64252 32.4062 4.33949 32.2074C4.03646 32.0085 3.66477 31.9091 3.22443 31.9091C2.90246 31.9091 2.62074 31.9612 2.37926 32.0653C2.14015 32.1695 1.95313 32.3127 1.81818 32.495C1.68561 32.6773 1.61932 32.8845 1.61932 33.1165C1.61932 33.3106 1.66548 33.4775 1.75781 33.6172C1.85251 33.7545 1.97325 33.8693 2.12003 33.9616C2.26681 34.0516 2.42069 34.1262 2.58168 34.1854C2.74266 34.2422 2.89062 34.2884 3.02557 34.3239L3.7642 34.5227C3.9536 34.5724 4.1643 34.6411 4.39631 34.7287C4.63068 34.8163 4.8544 34.9358 5.06747 35.0874C5.28291 35.2365 5.46046 35.4283 5.60014 35.6626C5.73982 35.897 5.80966 36.1847 5.80966 36.5256C5.80966 36.9186 5.70668 37.2737 5.50071 37.5909C5.29711 37.9081 4.99882 38.1603 4.60582 38.3473C4.2152 38.5343 3.74053 38.6278 3.18182 38.6278C2.66098 38.6278 2.20999 38.5438 1.82884 38.3757C1.45005 38.2076 1.15175 37.9732 0.933949 37.6726C0.718513 37.3719 0.596591 37.0227 0.568182 36.625H1.47727C1.50095 36.8996 1.59328 37.1269 1.75426 37.3068C1.91761 37.4844 2.12358 37.617 2.37216 37.7045C2.62311 37.7898 2.89299 37.8324 3.18182 37.8324C3.51799 37.8324 3.81984 37.7779 4.08736 37.669C4.35488 37.5578 4.56676 37.4039 4.72301 37.2074C4.87926 37.0085 4.95739 36.7765 4.95739 36.5114C4.95739 36.2699 4.88991 36.0734 4.75497 35.9219C4.62003 35.7704 4.44247 35.6473 4.2223 35.5526C4.00213 35.4579 3.7642 35.375 3.50852 35.304L2.61364 35.0483C2.04545 34.8849 1.59564 34.6518 1.2642 34.3487C0.932765 34.0457 0.767045 33.6491 0.767045 33.1591C0.767045 32.7519 0.877131 32.3968 1.0973 32.0938C1.31984 31.7884 1.61813 31.5516 1.99219 31.3835C2.36861 31.2131 2.78883 31.1278 3.25284 31.1278C3.72159 31.1278 4.13826 31.2119 4.50284 31.38C4.86742 31.5457 5.15625 31.773 5.36932 32.0618C5.58475 32.3506 5.69839 32.6785 5.71023 33.0455H4.85795ZM7.144 40.5455V33.0455H7.95366V33.9119H8.05309C8.11464 33.8172 8.19987 33.6965 8.30877 33.5497C8.42004 33.4006 8.57866 33.268 8.78462 33.152C8.99296 33.0336 9.27468 32.9744 9.62979 32.9744C10.0891 32.9744 10.4939 33.0893 10.8443 33.3189C11.1947 33.5485 11.4681 33.8741 11.6646 34.2955C11.8611 34.7169 11.9593 35.214 11.9593 35.7869C11.9593 36.3646 11.8611 36.8653 11.6646 37.2891C11.4681 37.7105 11.1958 38.0372 10.8478 38.2692C10.4998 38.4988 10.0985 38.6136 9.644 38.6136C9.29362 38.6136 9.01308 38.5556 8.80238 38.4396C8.59168 38.3213 8.42951 38.1875 8.31587 38.0384C8.20224 37.8868 8.11464 37.7614 8.05309 37.6619H7.98207V40.5455H7.144ZM7.96786 35.7727C7.96786 36.1847 8.02823 36.5481 8.14897 36.8629C8.26971 37.1754 8.44608 37.4205 8.67809 37.598C8.9101 37.7732 9.19419 37.8608 9.53036 37.8608C9.88074 37.8608 10.1731 37.7685 10.4075 37.5838C10.6442 37.3968 10.8218 37.1458 10.9402 36.831C11.0609 36.5137 11.1213 36.161 11.1213 35.7727C11.1213 35.3892 11.0621 35.0436 10.9437 34.7358C10.8277 34.4257 10.6513 34.1806 10.4146 34.0007C10.1802 33.8184 9.88548 33.7273 9.53036 33.7273C9.18945 33.7273 8.90299 33.8137 8.67099 33.9865C8.43898 34.157 8.26379 34.3961 8.14542 34.7038C8.02705 35.0092 7.96786 35.3655 7.96786 35.7727ZM15.4537 38.6136C14.9612 38.6136 14.5292 38.4964 14.1575 38.2621C13.7882 38.0277 13.4993 37.6998 13.291 37.2784C13.085 36.857 12.9821 36.3646 12.9821 35.8011C12.9821 35.233 13.085 34.737 13.291 34.3132C13.4993 33.8894 13.7882 33.5604 14.1575 33.326C14.5292 33.0916 14.9612 32.9744 15.4537 32.9744C15.9461 32.9744 16.377 33.0916 16.7463 33.326C17.118 33.5604 17.4068 33.8894 17.6127 34.3132C17.8211 34.737 17.9252 35.233 17.9252 35.8011C17.9252 36.3646 17.8211 36.857 17.6127 37.2784C17.4068 37.6998 17.118 38.0277 16.7463 38.2621C16.377 38.4964 15.9461 38.6136 15.4537 38.6136ZM15.4537 37.8608C15.8277 37.8608 16.1355 37.7649 16.377 37.5732C16.6184 37.3814 16.7972 37.1293 16.9132 36.8168C17.0292 36.5043 17.0872 36.1657 17.0872 35.8011C17.0872 35.4366 17.0292 35.0968 16.9132 34.782C16.7972 34.4671 16.6184 34.2126 16.377 34.0185C16.1355 33.8243 15.8277 33.7273 15.4537 33.7273C15.0796 33.7273 14.7718 33.8243 14.5304 34.0185C14.2889 34.2126 14.1101 34.4671 13.9941 34.782C13.8781 35.0968 13.8201 35.4366 13.8201 35.8011C13.8201 36.1657 13.8781 36.5043 13.9941 36.8168C14.1101 37.1293 14.2889 37.3814 14.5304 37.5732C14.7718 37.7649 15.0796 37.8608 15.4537 37.8608ZM19.2045 38.5V33.0455H20.0142V33.8693H20.071C20.1705 33.5994 20.3504 33.3804 20.6108 33.2124C20.8712 33.0443 21.1648 32.9602 21.4915 32.9602C21.553 32.9602 21.63 32.9614 21.7223 32.9638C21.8146 32.9661 21.8845 32.9697 21.9318 32.9744V33.8267C21.9034 33.8196 21.8383 33.8089 21.7365 33.7947C21.6371 33.7782 21.5317 33.7699 21.4205 33.7699C21.1553 33.7699 20.9186 33.8255 20.7102 33.9368C20.5043 34.0457 20.3409 34.1972 20.2202 34.3913C20.1018 34.5831 20.0426 34.8021 20.0426 35.0483V38.5H19.2045ZM25.6392 33.0455V33.7557H22.8125V33.0455H25.6392ZM23.6364 31.7386H24.4744V36.9375C24.4744 37.1742 24.5088 37.3518 24.5774 37.4702C24.6484 37.5862 24.7384 37.6643 24.8473 37.7045C24.9586 37.7424 25.0758 37.7614 25.1989 37.7614C25.2912 37.7614 25.367 37.7566 25.4261 37.7472C25.4853 37.7353 25.5327 37.7259 25.5682 37.7188L25.7386 38.4716C25.6818 38.4929 25.6025 38.5142 25.5007 38.5355C25.3989 38.5592 25.2699 38.571 25.1136 38.571C24.8769 38.571 24.6449 38.5201 24.4176 38.4183C24.1927 38.3165 24.0057 38.1615 23.8565 37.9531C23.7098 37.7448 23.6364 37.482 23.6364 37.1648V31.7386ZM30.5504 35.2188V38.5H29.7124V33.0455H30.522V33.8977H30.593C30.7209 33.6207 30.915 33.3982 31.1754 33.2301C31.4358 33.0597 31.772 32.9744 32.1839 32.9744C32.5533 32.9744 32.8764 33.0502 33.1534 33.2017C33.4304 33.3509 33.6458 33.5781 33.7997 33.8835C33.9536 34.1866 34.0305 34.5701 34.0305 35.0341V38.5H33.1925V35.0909C33.1925 34.6624 33.0812 34.3286 32.8587 34.0895C32.6361 33.848 32.3307 33.7273 31.9425 33.7273C31.675 33.7273 31.4358 33.7853 31.2251 33.9013C31.0168 34.0173 30.8523 34.1866 30.7315 34.4091C30.6108 34.6316 30.5504 34.9015 30.5504 35.2188ZM37.8489 38.6136C37.3233 38.6136 36.87 38.4976 36.4888 38.2656C36.11 38.0312 35.8176 37.7045 35.6117 37.2855C35.4081 36.8641 35.3063 36.3741 35.3063 35.8153C35.3063 35.2566 35.4081 34.7642 35.6117 34.3381C35.8176 33.9096 36.1041 33.5758 36.4711 33.3366C36.8404 33.0952 37.2712 32.9744 37.7637 32.9744C38.0478 32.9744 38.3283 33.0218 38.6053 33.1165C38.8823 33.2112 39.1344 33.3651 39.3617 33.5781C39.589 33.7888 39.7701 34.0682 39.905 34.4162C40.04 34.7642 40.1074 35.1927 40.1074 35.7017V36.0568H35.9029V35.3324H39.2551C39.2551 35.0246 39.1936 34.75 39.0705 34.5085C38.9498 34.267 38.7769 34.0765 38.552 33.9368C38.3295 33.7971 38.0667 33.7273 37.7637 33.7273C37.4299 33.7273 37.141 33.8101 36.8972 33.9759C36.6557 34.1392 36.4699 34.3523 36.3397 34.6151C36.2095 34.8778 36.1444 35.1596 36.1444 35.4602V35.9432C36.1444 36.3551 36.2154 36.7043 36.3574 36.9908C36.5018 37.2749 36.7019 37.4915 36.9576 37.6406C37.2132 37.7874 37.5104 37.8608 37.8489 37.8608C38.0691 37.8608 38.2679 37.83 38.4455 37.7685C38.6254 37.7045 38.7805 37.6098 38.9107 37.4844C39.0409 37.3565 39.1415 37.1979 39.2125 37.0085L40.0222 37.2358C39.937 37.5104 39.7937 37.7519 39.5925 37.9602C39.3913 38.1662 39.1427 38.3272 38.8468 38.4432C38.5508 38.5568 38.2182 38.6136 37.8489 38.6136ZM42.6181 38.5L40.9561 33.0455H41.8368L43.0158 37.2216H43.0726L44.2374 33.0455H45.1323L46.2828 37.2074H46.3397L47.5186 33.0455H48.3993L46.7374 38.5H45.9135L44.7203 34.3097H44.6351L43.4419 38.5H42.6181ZM53.3709 34.267L52.6181 34.4801C52.5707 34.3546 52.5009 34.2327 52.4086 34.1143C52.3186 33.9936 52.1955 33.8942 52.0392 33.8161C51.883 33.7379 51.6829 33.6989 51.4391 33.6989C51.1053 33.6989 50.8271 33.7758 50.6046 33.9297C50.3844 34.0812 50.2743 34.2741 50.2743 34.5085C50.2743 34.7169 50.3501 34.8814 50.5016 35.0021C50.6531 35.1229 50.8899 35.2235 51.2118 35.304L52.0215 35.5028C52.5092 35.6212 52.8726 35.8023 53.1117 36.0462C53.3508 36.2876 53.4703 36.599 53.4703 36.9801C53.4703 37.2926 53.3804 37.572 53.2005 37.8182C53.0229 38.0644 52.7743 38.2585 52.4547 38.4006C52.1351 38.5426 51.7634 38.6136 51.3397 38.6136C50.7833 38.6136 50.3229 38.4929 49.9583 38.2514C49.5937 38.0099 49.3629 37.6572 49.2658 37.1932L50.0613 36.9943C50.137 37.2879 50.2802 37.508 50.4909 37.6548C50.704 37.8016 50.9822 37.875 51.3255 37.875C51.7161 37.875 52.0262 37.7921 52.2559 37.6264C52.4879 37.4583 52.6039 37.2571 52.6039 37.0227C52.6039 36.8333 52.5376 36.6747 52.405 36.5469C52.2724 36.4167 52.0688 36.3196 51.7942 36.2557L50.8851 36.0426C50.3856 35.9242 50.0186 35.7408 49.7843 35.4922C49.5523 35.2412 49.4363 34.9276 49.4363 34.5511C49.4363 34.2434 49.5227 33.9711 49.6955 33.7344C49.8707 33.4976 50.1086 33.3118 50.4093 33.1768C50.7123 33.0419 51.0556 32.9744 51.4391 32.9744C51.9789 32.9744 52.4026 33.0928 52.7104 33.3295C53.0205 33.5663 53.2407 33.8788 53.3709 34.267Z" fill="#5B5B71"/>
</svg>
