<svg width="26" height="25" viewBox="0 0 26 25" fill="none" xmlns="http://www.w3.org/2000/svg">
<path d="M22.0655 9.01659L20.7251 2.68178C20.7091 2.602 20.6613 2.55413 20.6134 2.53817C20.5815 2.50626 20.5177 2.4903 20.4219 2.50626C20.39 2.50626 20.374 2.52222 20.3421 2.53817L14.8211 5.84121C14.7094 5.90504 14.6616 6.0646 14.7413 6.1763C14.7732 6.22417 14.8052 6.25608 14.853 6.27204L16.3689 6.92626L16.0657 7.70814C15.97 7.97941 13.6563 13.8674 4.43331 13.8674C4.08226 13.8674 3.6993 13.8515 3.3323 13.8355H3.28443C3.25251 13.8355 3.23656 13.8515 3.20464 13.8674C3.18869 13.8834 3.17273 13.9153 3.17273 13.9472C3.17273 13.9951 3.20464 14.043 3.25251 14.0589L3.28443 14.0749C5.27901 14.745 7.35338 15.0961 9.45967 15.128C17.071 15.128 19.7996 9.46338 19.8315 9.39955L20.1985 8.61767L21.7463 9.28786C21.8101 9.31977 21.8899 9.30381 21.9218 9.28786C21.9697 9.2719 22.0176 9.23998 22.0495 9.1602C22.0814 9.11233 22.0814 9.06446 22.0655 9.01659Z" fill="#5B5B71"/>
<path d="M4.25781 22.5H8.23103V16.7396C6.89067 16.6439 5.56626 16.4365 4.25781 16.1014V22.5Z" fill="#5B5B71"/>
<path d="M17.0072 14.7131V22.5H20.9804V10.7718H20.9644C20.39 11.6814 19.1294 13.3568 17.0072 14.7131Z" fill="#5B5B71"/>
<path d="M10.6245 22.5H14.5977V15.9099C13.4488 16.3407 12.1404 16.6439 10.6245 16.7556V22.5Z" fill="#5B5B71"/>
</svg>
