<svg width="42" height="41" viewBox="0 0 42 41" fill="none" xmlns="http://www.w3.org/2000/svg">
<path d="M30.4411 9.01659L29.1007 2.68178C29.0847 2.602 29.0369 2.55413 28.989 2.53817C28.9571 2.50626 28.8933 2.4903 28.7975 2.50626C28.7656 2.50626 28.7497 2.52222 28.7177 2.53817L23.1967 5.84121C23.085 5.90504 23.0372 6.0646 23.1169 6.1763C23.1489 6.22417 23.1808 6.25608 23.2286 6.27204L24.7445 6.92626L24.4413 7.70814C24.3456 7.97941 22.0319 13.8674 12.8089 13.8674C12.4579 13.8674 12.0749 13.8515 11.7079 13.8355H11.66C11.6281 13.8355 11.6122 13.8515 11.5803 13.8674C11.5643 13.8834 11.5483 13.9153 11.5483 13.9472C11.5483 13.9951 11.5803 14.043 11.6281 14.0589L11.66 14.0749C13.6546 14.745 15.729 15.0961 17.8353 15.128C25.4466 15.128 28.1752 9.46338 28.2071 9.39955L28.5741 8.61767L30.1219 9.28786C30.1858 9.31977 30.2655 9.30381 30.2975 9.28786C30.3453 9.2719 30.3932 9.23998 30.4251 9.1602C30.457 9.11233 30.457 9.06446 30.4411 9.01659Z" fill="#5B5B71"/>
<path d="M12.6333 22.5H16.6065V16.7396C15.2662 16.6439 13.9417 16.4365 12.6333 16.1014V22.5Z" fill="#5B5B71"/>
<path d="M25.3828 14.7131V22.5H29.356V10.7718H29.3401C28.7656 11.6814 27.5051 13.3568 25.3828 14.7131Z" fill="#5B5B71"/>
<path d="M19 22.5H22.9732V15.9099C21.8243 16.3407 20.5159 16.6439 19 16.7556V22.5Z" fill="#5B5B71"/>
<path d="M0.880682 38.5V31.2273H3.33807C3.90862 31.2273 4.375 31.3303 4.73722 31.5362C5.1018 31.7398 5.37169 32.0156 5.54688 32.3636C5.72206 32.7116 5.80966 33.0999 5.80966 33.5284C5.80966 33.9569 5.72206 34.3464 5.54688 34.6967C5.37405 35.0471 5.10653 35.3265 4.74432 35.5348C4.3821 35.7408 3.91809 35.8438 3.35227 35.8438H1.59091V35.0625H3.32386C3.71449 35.0625 4.02817 34.995 4.26491 34.8601C4.50166 34.7251 4.6733 34.5429 4.77983 34.3132C4.88873 34.0812 4.94318 33.8196 4.94318 33.5284C4.94318 33.2372 4.88873 32.9768 4.77983 32.7472C4.6733 32.5175 4.50047 32.3376 4.26136 32.2074C4.02225 32.0748 3.70502 32.0085 3.30966 32.0085H1.76136V38.5H0.880682ZM7.1147 38.5V33.0455H7.92436V33.8693H7.98118C8.08061 33.5994 8.26054 33.3804 8.52095 33.2124C8.78137 33.0443 9.07493 32.9602 9.40163 32.9602C9.46319 32.9602 9.54013 32.9614 9.63246 32.9638C9.72479 32.9661 9.79463 32.9697 9.84197 32.9744V33.8267C9.81357 33.8196 9.74846 33.8089 9.64666 33.7947C9.54723 33.7782 9.44188 33.7699 9.33061 33.7699C9.06546 33.7699 8.82872 33.8255 8.62038 33.9368C8.41442 34.0457 8.25107 34.1972 8.13033 34.3913C8.01196 34.5831 7.95277 34.8021 7.95277 35.0483V38.5H7.1147ZM12.8853 38.6136C12.3929 38.6136 11.9608 38.4964 11.5891 38.2621C11.2198 38.0277 10.931 37.6998 10.7227 37.2784C10.5167 36.857 10.4137 36.3646 10.4137 35.8011C10.4137 35.233 10.5167 34.737 10.7227 34.3132C10.931 33.8894 11.2198 33.5604 11.5891 33.326C11.9608 33.0916 12.3929 32.9744 12.8853 32.9744C13.3777 32.9744 13.8086 33.0916 14.1779 33.326C14.5496 33.5604 14.8384 33.8894 15.0444 34.3132C15.2527 34.737 15.3569 35.233 15.3569 35.8011C15.3569 36.3646 15.2527 36.857 15.0444 37.2784C14.8384 37.6998 14.5496 38.0277 14.1779 38.2621C13.8086 38.4964 13.3777 38.6136 12.8853 38.6136ZM12.8853 37.8608C13.2594 37.8608 13.5671 37.7649 13.8086 37.5732C14.0501 37.3814 14.2288 37.1293 14.3448 36.8168C14.4608 36.5043 14.5188 36.1657 14.5188 35.8011C14.5188 35.4366 14.4608 35.0968 14.3448 34.782C14.2288 34.4671 14.0501 34.2126 13.8086 34.0185C13.5671 33.8243 13.2594 33.7273 12.8853 33.7273C12.5112 33.7273 12.2035 33.8243 11.962 34.0185C11.7205 34.2126 11.5418 34.4671 11.4258 34.782C11.3098 35.0968 11.2518 35.4366 11.2518 35.8011C11.2518 36.1657 11.3098 36.5043 11.4258 36.8168C11.5418 37.1293 11.7205 37.3814 11.962 37.5732C12.2035 37.7649 12.5112 37.8608 12.8853 37.8608ZM18.8379 40.6591C18.4331 40.6591 18.085 40.607 17.7939 40.5028C17.5027 40.401 17.26 40.2661 17.0659 40.098C16.8741 39.9323 16.7214 39.7547 16.6078 39.5653L17.2754 39.0966C17.3511 39.196 17.447 39.3097 17.563 39.4375C17.679 39.5677 17.8377 39.6802 18.0389 39.7749C18.2425 39.8719 18.5088 39.9205 18.8379 39.9205C19.2782 39.9205 19.6416 39.8139 19.9281 39.6009C20.2145 39.3878 20.3578 39.054 20.3578 38.5994V37.4915H20.2868C20.2252 37.5909 20.1376 37.714 20.024 37.8608C19.9127 38.0052 19.7517 38.1342 19.541 38.2479C19.3327 38.3591 19.051 38.4148 18.6958 38.4148C18.2555 38.4148 17.8601 38.3106 17.5098 38.1023C17.1618 37.8939 16.8859 37.5909 16.6824 37.1932C16.4811 36.7955 16.3805 36.3125 16.3805 35.7443C16.3805 35.1856 16.4788 34.6991 16.6752 34.2848C16.8717 33.8681 17.1452 33.5462 17.4956 33.3189C17.8459 33.0893 18.2508 32.9744 18.71 32.9744C19.0652 32.9744 19.3469 33.0336 19.5552 33.152C19.7659 33.268 19.9269 33.4006 20.0382 33.5497C20.1518 33.6965 20.2394 33.8172 20.301 33.9119H20.3862V33.0455H21.1958V38.6562C21.1958 39.125 21.0893 39.5062 20.8762 39.7997C20.6655 40.0956 20.3815 40.3123 20.024 40.4496C19.6689 40.5893 19.2735 40.6591 18.8379 40.6591ZM18.8095 37.6619C19.1457 37.6619 19.4297 37.585 19.6618 37.4311C19.8938 37.2772 20.0701 37.0559 20.1909 36.767C20.3116 36.4782 20.372 36.1326 20.372 35.7301C20.372 35.3371 20.3128 34.9903 20.1944 34.6896C20.0761 34.389 19.9009 34.1534 19.6689 33.983C19.4368 33.8125 19.1504 33.7273 18.8095 33.7273C18.4544 33.7273 18.1584 33.8172 17.9217 33.9972C17.6873 34.1771 17.5109 34.4186 17.3926 34.7216C17.2766 35.0246 17.2186 35.3608 17.2186 35.7301C17.2186 36.1089 17.2778 36.4439 17.3961 36.7351C17.5169 37.0239 17.6944 37.2512 17.9288 37.4169C18.1655 37.5803 18.4591 37.6619 18.8095 37.6619ZM22.7299 38.5V33.0455H23.5396V33.8693H23.5964C23.6958 33.5994 23.8758 33.3804 24.1362 33.2124C24.3966 33.0443 24.6902 32.9602 25.0169 32.9602C25.0784 32.9602 25.1554 32.9614 25.2477 32.9638C25.34 32.9661 25.4099 32.9697 25.4572 32.9744V33.8267C25.4288 33.8196 25.3637 33.8089 25.2619 33.7947C25.1625 33.7782 25.0571 33.7699 24.9458 33.7699C24.6807 33.7699 24.444 33.8255 24.2356 33.9368C24.0297 34.0457 23.8663 34.1972 23.7456 34.3913C23.6272 34.5831 23.568 34.8021 23.568 35.0483V38.5H22.7299ZM28.5716 38.6136C28.046 38.6136 27.5926 38.4976 27.2115 38.2656C26.8327 38.0312 26.5403 37.7045 26.3343 37.2855C26.1307 36.8641 26.0289 36.3741 26.0289 35.8153C26.0289 35.2566 26.1307 34.7642 26.3343 34.3381C26.5403 33.9096 26.8268 33.5758 27.1937 33.3366C27.563 33.0952 27.9939 32.9744 28.4863 32.9744C28.7704 32.9744 29.051 33.0218 29.3279 33.1165C29.6049 33.2112 29.8571 33.3651 30.0843 33.5781C30.3116 33.7888 30.4927 34.0682 30.6277 34.4162C30.7626 34.7642 30.8301 35.1927 30.8301 35.7017V36.0568H26.6255V35.3324H29.9778C29.9778 35.0246 29.9163 34.75 29.7931 34.5085C29.6724 34.267 29.4996 34.0765 29.2747 33.9368C29.0521 33.7971 28.7894 33.7273 28.4863 33.7273C28.1525 33.7273 27.8637 33.8101 27.6199 33.9759C27.3784 34.1392 27.1925 34.3523 27.0623 34.6151C26.9321 34.8778 26.867 35.1596 26.867 35.4602V35.9432C26.867 36.3551 26.938 36.7043 27.0801 36.9908C27.2245 37.2749 27.4245 37.4915 27.6802 37.6406C27.9359 37.7874 28.233 37.8608 28.5716 37.8608C28.7917 37.8608 28.9906 37.83 29.1681 37.7685C29.3481 37.7045 29.5031 37.6098 29.6333 37.4844C29.7636 37.3565 29.8642 37.1979 29.9352 37.0085L30.7449 37.2358C30.6596 37.5104 30.5164 37.7519 30.3152 37.9602C30.1139 38.1662 29.8654 38.3272 29.5694 38.4432C29.2735 38.5568 28.9409 38.6136 28.5716 38.6136ZM35.9686 34.267L35.2157 34.4801C35.1684 34.3546 35.0985 34.2327 35.0062 34.1143C34.9163 33.9936 34.7931 33.8942 34.6369 33.8161C34.4806 33.7379 34.2806 33.6989 34.0368 33.6989C33.7029 33.6989 33.4248 33.7758 33.2022 33.9297C32.9821 34.0812 32.872 34.2741 32.872 34.5085C32.872 34.7169 32.9477 34.8814 33.0993 35.0021C33.2508 35.1229 33.4875 35.2235 33.8095 35.304L34.6191 35.5028C35.1068 35.6212 35.4702 35.8023 35.7093 36.0462C35.9484 36.2876 36.068 36.599 36.068 36.9801C36.068 37.2926 35.978 37.572 35.7981 37.8182C35.6206 38.0644 35.372 38.2585 35.0524 38.4006C34.7328 38.5426 34.3611 38.6136 33.9373 38.6136C33.381 38.6136 32.9205 38.4929 32.5559 38.2514C32.1913 38.0099 31.9605 37.6572 31.8635 37.1932L32.6589 36.9943C32.7347 37.2879 32.8779 37.508 33.0886 37.6548C33.3017 37.8016 33.5798 37.875 33.9231 37.875C34.3137 37.875 34.6239 37.7921 34.8535 37.6264C35.0855 37.4583 35.2015 37.2571 35.2015 37.0227C35.2015 36.8333 35.1352 36.6747 35.0027 36.5469C34.8701 36.4167 34.6665 36.3196 34.3919 36.2557L33.4828 36.0426C32.9833 35.9242 32.6163 35.7408 32.3819 35.4922C32.1499 35.2412 32.0339 34.9276 32.0339 34.5511C32.0339 34.2434 32.1203 33.9711 32.2931 33.7344C32.4683 33.4976 32.7063 33.3118 33.0069 33.1768C33.31 33.0419 33.6532 32.9744 34.0368 32.9744C34.5765 32.9744 35.0003 33.0928 35.3081 33.3295C35.6182 33.5663 35.8384 33.8788 35.9686 34.267ZM41.1932 34.267L40.4403 34.4801C40.393 34.3546 40.3232 34.2327 40.2308 34.1143C40.1409 33.9936 40.0178 33.8942 39.8615 33.8161C39.7053 33.7379 39.5052 33.6989 39.2614 33.6989C38.9276 33.6989 38.6494 33.7758 38.4268 33.9297C38.2067 34.0812 38.0966 34.2741 38.0966 34.5085C38.0966 34.7169 38.1723 34.8814 38.3239 35.0021C38.4754 35.1229 38.7121 35.2235 39.0341 35.304L39.8438 35.5028C40.3314 35.6212 40.6948 35.8023 40.9339 36.0462C41.1731 36.2876 41.2926 36.599 41.2926 36.9801C41.2926 37.2926 41.2027 37.572 41.0227 37.8182C40.8452 38.0644 40.5966 38.2585 40.277 38.4006C39.9574 38.5426 39.5857 38.6136 39.1619 38.6136C38.6056 38.6136 38.1451 38.4929 37.7805 38.2514C37.416 38.0099 37.1851 37.6572 37.0881 37.1932L37.8835 36.9943C37.9593 37.2879 38.1025 37.508 38.3132 37.6548C38.5263 37.8016 38.8045 37.875 39.1477 37.875C39.5384 37.875 39.8485 37.7921 40.0781 37.6264C40.3101 37.4583 40.4261 37.2571 40.4261 37.0227C40.4261 36.8333 40.3598 36.6747 40.2273 36.5469C40.0947 36.4167 39.8911 36.3196 39.6165 36.2557L38.7074 36.0426C38.2079 35.9242 37.8409 35.7408 37.6065 35.4922C37.3745 35.2412 37.2585 34.9276 37.2585 34.5511C37.2585 34.2434 37.3449 33.9711 37.5178 33.7344C37.6929 33.4976 37.9309 33.3118 38.2315 33.1768C38.5346 33.0419 38.8778 32.9744 39.2614 32.9744C39.8011 32.9744 40.2249 33.0928 40.5327 33.3295C40.8428 33.5663 41.063 33.8788 41.1932 34.267Z" fill="#5B5B71"/>
</svg>
