<svg width="40" height="41" viewBox="0 0 40 41" fill="none" xmlns="http://www.w3.org/2000/svg">
    <path
        d="M16.7501 12.5C16.7501 10.7051 18.2052 9.25001 20.0001 9.25001C21.795 9.25001 23.2501 10.7051 23.2501 12.5C23.2501 14.2949 21.795 15.75 20.0001 15.75C18.2052 15.75 16.7501 14.2949 16.7501 12.5Z"
        fill="#5B5B71" />
    <path fill-rule="evenodd" clip-rule="evenodd"
        d="M19.4608 2.33852C19.7557 2.03348 20.2446 2.03348 20.5394 2.33852L23.1117 5.00001H26.7501C27.1643 5.00001 27.5001 5.33579 27.5001 5.75001V9.3884L30.1616 11.9607C30.4667 12.2555 30.4667 12.7445 30.1616 13.0393L27.5001 15.6116V19.25C27.5001 19.6642 27.1643 20 26.7501 20H23.1117L20.5394 22.6615C20.2446 22.9665 19.7557 22.9665 19.4608 22.6615L16.8885 20H13.2501C12.8359 20 12.5001 19.6642 12.5001 19.25V15.6116L9.83864 13.0393C9.5336 12.7445 9.5336 12.2555 9.83864 11.9607L12.5001 9.3884V5.75001C12.5001 5.33579 12.8359 5.00001 13.2501 5.00001H16.8885L19.4608 2.33852ZM20.0001 7.75001C17.3768 7.75001 15.2501 9.87666 15.2501 12.5C15.2501 15.1234 17.3768 17.25 20.0001 17.25C22.6235 17.25 24.7501 15.1234 24.7501 12.5C24.7501 9.87666 22.6235 7.75001 20.0001 7.75001Z"
        fill="#5B5B71" />
    <path
        d="M4.85795 33.0455C4.81534 32.6856 4.64252 32.4062 4.33949 32.2074C4.03646 32.0085 3.66477 31.9091 3.22443 31.9091C2.90246 31.9091 2.62074 31.9612 2.37926 32.0653C2.14015 32.1695 1.95313 32.3127 1.81818 32.495C1.68561 32.6773 1.61932 32.8845 1.61932 33.1165C1.61932 33.3106 1.66548 33.4775 1.75781 33.6172C1.85251 33.7545 1.97325 33.8693 2.12003 33.9616C2.26681 34.0516 2.42069 34.1262 2.58168 34.1854C2.74266 34.2422 2.89062 34.2884 3.02557 34.3239L3.7642 34.5227C3.9536 34.5724 4.1643 34.6411 4.39631 34.7287C4.63068 34.8163 4.8544 34.9358 5.06747 35.0874C5.28291 35.2365 5.46046 35.4283 5.60014 35.6626C5.73982 35.897 5.80966 36.1847 5.80966 36.5256C5.80966 36.9186 5.70668 37.2737 5.50071 37.5909C5.29711 37.9081 4.99882 38.1603 4.60582 38.3473C4.2152 38.5343 3.74053 38.6278 3.18182 38.6278C2.66098 38.6278 2.20999 38.5438 1.82884 38.3757C1.45005 38.2076 1.15175 37.9732 0.933949 37.6726C0.718513 37.3719 0.596591 37.0227 0.568182 36.625H1.47727C1.50095 36.8996 1.59328 37.1269 1.75426 37.3068C1.91761 37.4844 2.12358 37.617 2.37216 37.7045C2.62311 37.7898 2.89299 37.8324 3.18182 37.8324C3.51799 37.8324 3.81984 37.7779 4.08736 37.669C4.35488 37.5578 4.56676 37.4039 4.72301 37.2074C4.87926 37.0085 4.95739 36.7765 4.95739 36.5114C4.95739 36.2699 4.88991 36.0734 4.75497 35.9219C4.62003 35.7704 4.44247 35.6473 4.2223 35.5526C4.00213 35.4579 3.7642 35.375 3.50852 35.304L2.61364 35.0483C2.04545 34.8849 1.59564 34.6518 1.2642 34.3487C0.932765 34.0457 0.767045 33.6491 0.767045 33.1591C0.767045 32.7519 0.877131 32.3968 1.0973 32.0938C1.31984 31.7884 1.61813 31.5516 1.99219 31.3835C2.36861 31.2131 2.78883 31.1278 3.25284 31.1278C3.72159 31.1278 4.13826 31.2119 4.50284 31.38C4.86742 31.5457 5.15625 31.773 5.36932 32.0618C5.58475 32.3506 5.69839 32.6785 5.71023 33.0455H4.85795ZM9.43093 38.6136C8.90536 38.6136 8.452 38.4976 8.07085 38.2656C7.69206 38.0312 7.39968 37.7045 7.19371 37.2855C6.99012 36.8641 6.88832 36.3741 6.88832 35.8153C6.88832 35.2566 6.99012 34.7642 7.19371 34.3381C7.39968 33.9096 7.68614 33.5758 8.05309 33.3366C8.42241 33.0952 8.85328 32.9744 9.3457 32.9744C9.62979 32.9744 9.91033 33.0218 10.1873 33.1165C10.4643 33.2112 10.7164 33.3651 10.9437 33.5781C11.171 33.7888 11.3521 34.0682 11.487 34.4162C11.622 34.7642 11.6895 35.1927 11.6895 35.7017V36.0568H7.48491V35.3324H10.8372C10.8372 35.0246 10.7756 34.75 10.6525 34.5085C10.5318 34.267 10.359 34.0765 10.1341 33.9368C9.91152 33.7971 9.64873 33.7273 9.3457 33.7273C9.0119 33.7273 8.72307 33.8101 8.47923 33.9759C8.23775 34.1392 8.05191 34.3523 7.9217 34.6151C7.79149 34.8778 7.72638 35.1596 7.72638 35.4602V35.9432C7.72638 36.3551 7.79741 36.7043 7.93945 36.9908C8.08387 37.2749 8.28391 37.4915 8.5396 37.6406C8.79528 37.7874 9.09239 37.8608 9.43093 37.8608C9.6511 37.8608 9.84996 37.83 10.0275 37.7685C10.2074 37.7045 10.3625 37.6098 10.4927 37.4844C10.6229 37.3565 10.7235 37.1979 10.7946 37.0085L11.6042 37.2358C11.519 37.5104 11.3758 37.7519 11.1745 37.9602C10.9733 38.1662 10.7247 38.3272 10.4288 38.4432C10.1329 38.5568 9.80025 38.6136 9.43093 38.6136ZM15.3365 33.0455V33.7557H12.5098V33.0455H15.3365ZM13.3336 31.7386H14.1717V36.9375C14.1717 37.1742 14.206 37.3518 14.2747 37.4702C14.3457 37.5862 14.4357 37.6643 14.5446 37.7045C14.6558 37.7424 14.773 37.7614 14.8961 37.7614C14.9885 37.7614 15.0642 37.7566 15.1234 37.7472C15.1826 37.7353 15.2299 37.7259 15.2654 37.7188L15.4359 38.4716C15.3791 38.4929 15.2998 38.5142 15.198 38.5355C15.0962 38.5592 14.9672 38.571 14.8109 38.571C14.5742 38.571 14.3422 38.5201 14.1149 38.4183C13.89 38.3165 13.7029 38.1615 13.5538 37.9531C13.407 37.7448 13.3336 37.482 13.3336 37.1648V31.7386ZM18.9693 33.0455V33.7557H16.1426V33.0455H18.9693ZM16.9664 31.7386H17.8045V36.9375C17.8045 37.1742 17.8388 37.3518 17.9075 37.4702C17.9785 37.5862 18.0685 37.6643 18.1774 37.7045C18.2886 37.7424 18.4058 37.7614 18.5289 37.7614C18.6213 37.7614 18.697 37.7566 18.7562 37.7472C18.8154 37.7353 18.8627 37.7259 18.8983 37.7188L19.0687 38.4716C19.0119 38.4929 18.9326 38.5142 18.8308 38.5355C18.729 38.5592 18.6 38.571 18.4437 38.571C18.207 38.571 17.975 38.5201 17.7477 38.4183C17.5228 38.3165 17.3358 38.1615 17.1866 37.9531C17.0398 37.7448 16.9664 37.482 16.9664 37.1648V31.7386ZM20.2299 38.5V33.0455H21.068V38.5H20.2299ZM20.6561 32.1364C20.4927 32.1364 20.3519 32.0807 20.2335 31.9695C20.1175 31.8582 20.0595 31.7244 20.0595 31.5682C20.0595 31.4119 20.1175 31.2782 20.2335 31.1669C20.3519 31.0556 20.4927 31 20.6561 31C20.8194 31 20.9591 31.0556 21.0751 31.1669C21.1935 31.2782 21.2527 31.4119 21.2527 31.5682C21.2527 31.7244 21.1935 31.8582 21.0751 31.9695C20.9591 32.0807 20.8194 32.1364 20.6561 32.1364ZM23.4411 35.2188V38.5H22.603V33.0455H23.4126V33.8977H23.4837C23.6115 33.6207 23.8056 33.3982 24.0661 33.2301C24.3265 33.0597 24.6626 32.9744 25.0746 32.9744C25.4439 32.9744 25.767 33.0502 26.044 33.2017C26.321 33.3509 26.5365 33.5781 26.6903 33.8835C26.8442 34.1866 26.9212 34.5701 26.9212 35.0341V38.5H26.0831V35.0909C26.0831 34.6624 25.9718 34.3286 25.7493 34.0895C25.5268 33.848 25.2214 33.7273 24.8331 33.7273C24.5656 33.7273 24.3265 33.7853 24.1158 33.9013C23.9074 34.0173 23.7429 34.1866 23.6222 34.4091C23.5014 34.6316 23.4411 34.9015 23.4411 35.2188ZM30.6543 40.6591C30.2495 40.6591 29.9015 40.607 29.6103 40.5028C29.3191 40.401 29.0764 40.2661 28.8823 40.098C28.6905 39.9323 28.5378 39.7547 28.4242 39.5653L29.0918 39.0966C29.1676 39.196 29.2634 39.3097 29.3794 39.4375C29.4954 39.5677 29.6541 39.6802 29.8553 39.7749C30.0589 39.8719 30.3252 39.9205 30.6543 39.9205C31.0946 39.9205 31.458 39.8139 31.7445 39.6009C32.031 39.3878 32.1742 39.054 32.1742 38.5994V37.4915H32.1032C32.0416 37.5909 31.954 37.714 31.8404 37.8608C31.7291 38.0052 31.5681 38.1342 31.3574 38.2479C31.1491 38.3591 30.8674 38.4148 30.5123 38.4148C30.0719 38.4148 29.6766 38.3106 29.3262 38.1023C28.9782 37.8939 28.7024 37.5909 28.4988 37.1932C28.2975 36.7955 28.1969 36.3125 28.1969 35.7443C28.1969 35.1856 28.2952 34.6991 28.4917 34.2848C28.6882 33.8681 28.9616 33.5462 29.312 33.3189C29.6623 33.0893 30.0672 32.9744 30.5265 32.9744C30.8816 32.9744 31.1633 33.0336 31.3716 33.152C31.5823 33.268 31.7433 33.4006 31.8546 33.5497C31.9682 33.6965 32.0558 33.8172 32.1174 33.9119H32.2026V33.0455H33.0123V38.6562C33.0123 39.125 32.9057 39.5062 32.6926 39.7997C32.4819 40.0956 32.1979 40.3123 31.8404 40.4496C31.4853 40.5893 31.0899 40.6591 30.6543 40.6591ZM30.6259 37.6619C30.9621 37.6619 31.2462 37.585 31.4782 37.4311C31.7102 37.2772 31.8865 37.0559 32.0073 36.767C32.128 36.4782 32.1884 36.1326 32.1884 35.7301C32.1884 35.3371 32.1292 34.9903 32.0108 34.6896C31.8925 34.389 31.7173 34.1534 31.4853 33.983C31.2533 33.8125 30.9668 33.7273 30.6259 33.7273C30.2708 33.7273 29.9748 33.8172 29.7381 33.9972C29.5037 34.1771 29.3274 34.4186 29.209 34.7216C29.093 35.0246 29.035 35.3608 29.035 35.7301C29.035 36.1089 29.0942 36.4439 29.2125 36.7351C29.3333 37.0239 29.5108 37.2512 29.7452 37.4169C29.9819 37.5803 30.2755 37.6619 30.6259 37.6619ZM38.41 34.267L37.6571 34.4801C37.6098 34.3546 37.54 34.2327 37.4476 34.1143C37.3577 33.9936 37.2346 33.8942 37.0783 33.8161C36.9221 33.7379 36.722 33.6989 36.4782 33.6989C36.1444 33.6989 35.8662 33.7758 35.6436 33.9297C35.4235 34.0812 35.3134 34.2741 35.3134 34.5085C35.3134 34.7169 35.3891 34.8814 35.5407 35.0021C35.6922 35.1229 35.9289 35.2235 36.2509 35.304L37.0605 35.5028C37.5482 35.6212 37.9116 35.8023 38.1507 36.0462C38.3899 36.2876 38.5094 36.599 38.5094 36.9801C38.5094 37.2926 38.4194 37.572 38.2395 37.8182C38.062 38.0644 37.8134 38.2585 37.4938 38.4006C37.1742 38.5426 36.8025 38.6136 36.3787 38.6136C35.8224 38.6136 35.3619 38.4929 34.9973 38.2514C34.6328 38.0099 34.4019 37.6572 34.3049 37.1932L35.1003 36.9943C35.1761 37.2879 35.3193 37.508 35.53 37.6548C35.7431 37.8016 36.0212 37.875 36.3645 37.875C36.7551 37.875 37.0653 37.7921 37.2949 37.6264C37.5269 37.4583 37.6429 37.2571 37.6429 37.0227C37.6429 36.8333 37.5766 36.6747 37.4441 36.5469C37.3115 36.4167 37.1079 36.3196 36.8333 36.2557L35.9242 36.0426C35.4247 35.9242 35.0577 35.7408 34.8233 35.4922C34.5913 35.2412 34.4753 34.9276 34.4753 34.5511C34.4753 34.2434 34.5617 33.9711 34.7346 33.7344C34.9097 33.4976 35.1477 33.3118 35.4483 33.1768C35.7514 33.0419 36.0946 32.9744 36.4782 32.9744C37.0179 32.9744 37.4417 33.0928 37.7495 33.3295C38.0596 33.5663 38.2798 33.8788 38.41 34.267Z"
        fill="#5B5B71" />
</svg>
