<svg width="25" height="25" viewBox="0 0 25 25" fill="none" xmlns="http://www.w3.org/2000/svg">
<path d="M8.87433 12.5C8.87433 10.7051 10.3294 9.25001 12.1243 9.25001C13.9193 9.25001 15.3743 10.7051 15.3743 12.5C15.3743 14.2949 13.9193 15.75 12.1243 15.75C10.3294 15.75 8.87433 14.2949 8.87433 12.5Z" fill="#5B5B71"/>
<path fill-rule="evenodd" clip-rule="evenodd" d="M11.585 2.33852C11.8799 2.03348 12.3688 2.03348 12.6636 2.33852L15.2359 5.00001H18.8743C19.2885 5.00001 19.6243 5.33579 19.6243 5.75001V9.3884L22.2858 11.9607C22.5909 12.2555 22.5909 12.7445 22.2858 13.0393L19.6243 15.6116V19.25C19.6243 19.6642 19.2885 20 18.8743 20H15.2359L12.6636 22.6615C12.3688 22.9665 11.8799 22.9665 11.585 22.6615L9.01272 20H5.37434C4.96012 20 4.62434 19.6642 4.62434 19.25V15.6116L1.96285 13.0393C1.65781 12.7445 1.65781 12.2555 1.96285 11.9607L4.62434 9.3884V5.75001C4.62434 5.33579 4.96012 5.00001 5.37434 5.00001H9.01273L11.585 2.33852ZM12.1243 7.75001C9.50098 7.75001 7.37433 9.87666 7.37433 12.5C7.37433 15.1234 9.50098 17.25 12.1243 17.25C14.7477 17.25 16.8743 15.1234 16.8743 12.5C16.8743 9.87666 14.7477 7.75001 12.1243 7.75001Z" fill="#5B5B71"/>
</svg>
