<svg width="24" height="25" viewBox="0 0 24 25" fill="none" xmlns="http://www.w3.org/2000/svg">
    <path
        d="M11.1169 3.90489C11.4929 3.19698 12.5073 3.19698 12.8833 3.90489L14.8393 7.58775C14.9838 7.8599 15.2458 8.05019 15.5493 8.10356L19.6563 8.82581C20.4458 8.96463 20.7592 9.92934 20.2021 10.5057L17.304 13.5041C17.0898 13.7256 16.9898 14.0336 17.0328 14.3387L17.6151 18.4679C17.727 19.2616 16.9063 19.8578 16.1861 19.5061L12.4389 17.6764C12.162 17.5411 11.8382 17.5411 11.5613 17.6764L7.81412 19.5061C7.09384 19.8578 6.27321 19.2616 6.38513 18.4679L6.96739 14.3387C7.01042 14.0336 6.91037 13.7256 6.69621 13.5041L3.79806 10.5057C3.24098 9.92934 3.55444 8.96463 4.34389 8.82581L8.45093 8.10356C8.75442 8.05019 9.01636 7.85989 9.1609 7.58775L11.1169 3.90489Z"
        stroke="#37DDEC" stroke-width="1.5" />
</svg>
